<?xml version="1.0" encoding="utf-8"?>
<!-- Generator: Adobe Illustrator 23.0.1, SVG Export Plug-In . SVG Version: 6.00 Build 0)  -->
<svg version="1.1" id="Layer_1" xmlns="http://www.w3.org/2000/svg" xmlns:xlink="http://www.w3.org/1999/xlink" x="0px" y="0px"
	 width="1200px" height="750px" viewBox="0 0 1200 750" style="enable-background:new 0 0 1200 750;" xml:space="preserve">
<style type="text/css">
	.st0{fill:#364655;}
	.st1{fill:#FFFFFF;}
	.st2{fill:#69B342;}
</style>
<polygon id="Shape" class="st0" points="0,0 1200,0 1200,750 0,750 "/>
<g>
	<path class="st1" d="M710.4,368.8l-2.7-6.7c-34.6-83.3-97.7-140.6-100.4-143l-7.4-6.6l-7.3,6.6c-2.7,2.4-65.9,59.7-100.4,143
		l-2.7,6.7l110.5,110.5L710.4,368.8z M610.9,316.9c10.7-8.4,22.4-14.9,35.1-19.9c6.2,8.8,12.6,18.3,18.6,28.3
		c-21.9,6.9-40.3,20.3-53.7,37.8V316.9z M589,363.1c-13.3-17.6-31.7-31.1-53.7-37.8c6.1-10.2,12.5-19.5,18.6-28.3
		c12.6,5,24.3,11.5,35.1,19.9V363.1z M610.9,437.3v-9.6c0.5-39.4,27-73,64.7-82.7c3.1,6.1,6.2,12.2,9,18.9L610.9,437.3z
		 M632.2,278.9c-7.5,3.2-14.6,6.9-21.3,11.3v-36.3C617.1,260.5,624.6,269.1,632.2,278.9z M589,254v36.3c-6.7-4.3-14.1-8-21.3-11.3
		C575.5,269.1,582.8,260.5,589,254z M524.3,344.9c37.8,9.9,64.5,43.7,64.7,83.3v0.5v8.6l-73.6-73.6
		C518.4,357.3,521.3,351.1,524.3,344.9L524.3,344.9z"/>
	<path class="st2" d="M659.9,508.5H540.3c-3.1,0-5.3,2.4-5.3,5.1v18.8c0,2.7,2.2,5.1,5.3,5.1h41.8h35.8h41.8c3.1,0,5.3-2.4,5.3-5.1
		v-18.8C665.2,510.9,662.9,508.5,659.9,508.5z"/>
</g>
</svg>
