<?xml version="1.0" encoding="utf-8"?>
<!-- Generator: Adobe Illustrator 23.0.1, SVG Export Plug-In . SVG Version: 6.00 Build 0)  -->
<svg version="1.1" id="Layer_1" xmlns="http://www.w3.org/2000/svg" xmlns:xlink="http://www.w3.org/1999/xlink" x="0px" y="0px"
	 width="1200px" height="750px" viewBox="0 0 1200 750" style="enable-background:new 0 0 1200 750;" xml:space="preserve">
<style type="text/css">
	.st0{opacity:0.1;fill:#F2B826;enable-background:new    ;}
	.st1{fill:#F2B826;}
</style>
<rect class="st0" width="1200" height="750"/>
<g>
	<g>
		<path class="st1" d="M599.9,200C503.3,200,425,278.3,425,374.9c0,2.4,0.1,4.6,0.2,7c10.1,0,14.4,2.6,20.9,6.5
			c8.1,4.9,18.3,11,37.3,11s29.1-6.1,37.3-11c6.6-3.9,10.8-6.5,21.1-6.5c10.2,0,14.5,2.6,21.1,6.5c8.1,4.9,18.3,11,37.3,11
			s29.1-6.1,37.3-11c6.6-3.9,10.8-6.5,21.1-6.5s14.5,2.6,21.1,6.5c8.1,4.9,18.3,11,37.3,11c19,0,29.1-6.1,37.3-11
			c6.5-3.9,10.8-6.5,20.9-6.5c0.1-2.4,0.2-4.6,0.2-7C774.8,278.3,696.6,200,599.9,200z M737.6,361.4c-6.6,3.9-10.8,6.5-21.1,6.5
			s-14.5-2.6-21.1-6.5c-8.1-4.9-18.3-11-37.3-11s-29.1,6.1-37.3,11c-6.6,3.9-10.8,6.5-21.1,6.5c-10.2,0-14.5-2.6-21.1-6.5
			c-8.1-4.9-18.3-11-37.3-11s-29.1,6.1-37.3,11c-6.6,3.9-10.8,6.5-21.1,6.5s-14.5-2.6-21.1-6.5c-1.5-0.9-3.1-1.8-4.8-2.8
			c8.1-71.5,68.9-127.1,142.5-127.1s134.3,55.7,142.5,127.1C740.7,359.5,739.1,360.5,737.6,361.4z"/>
		<path class="st1" d="M716.5,437.9c-10.2,0-14.5-2.6-21.1-6.5c-8.1-4.9-18.3-11-37.3-11c-19,0-29.1,6.1-37.3,11
			c-6.6,3.9-10.8,6.5-21.1,6.5c-10.2,0-14.5-2.6-21.1-6.5c-8.1-4.9-18.3-11-37.3-11s-29.1,6.1-37.3,11c-6.6,3.9-10.8,6.5-21.1,6.5
			s-14.5-2.6-21.1-6.5c-7.3-4.4-16.1-9.6-31.2-10.8c3.6,13.3,8.7,26,15.1,37.9c8.1,4.9,18.3,10.9,37.1,10.9c19,0,29.1-6.1,37.3-11
			c6.6-3.9,10.8-6.5,21.1-6.5c10.2,0,14.5,2.6,21.1,6.5c8.1,4.9,18.3,11,37.3,11c19,0,29.1-6.1,37.3-11c6.6-3.9,10.8-6.5,21.1-6.5
			c10.2,0,14.5,2.6,21.1,6.5c8.1,4.9,18.3,11,37.3,11c18.8,0,28.9-6,37.1-10.9c6.5-11.9,11.5-24.6,15.1-37.9
			c-15.1,1.1-24,6.4-31.2,10.8C731,435.3,726.7,437.9,716.5,437.9z"/>
		<path class="st1" d="M658.2,490.4c-19,0-29.1,6.1-37.3,11c-6.6,3.9-10.8,6.5-21.1,6.5c-10.2,0-14.5-2.6-21.1-6.5
			c-8.1-4.9-18.3-11-37.3-11s-29.1,6.1-37.3,11c-5.9,3.5-10,5.9-18.2,6.4c9.9,8.4,20.6,15.8,32.2,21.9c0.8-0.4,1.5-0.9,2.2-1.3
			c6.6-3.9,10.8-6.5,21.1-6.5c10.2,0,14.5,2.6,21.1,6.5c8.1,4.9,18.3,11,37.3,11c19,0,29.1-6.1,37.3-11c6.6-3.9,10.8-6.5,21.1-6.5
			c10.2,0,14.5,2.6,21.1,6.5c0.7,0.4,1.5,0.9,2.2,1.3c11.5-6.1,22.4-13.5,32.2-21.9c-8.2-0.4-12.3-2.9-18.2-6.4
			C687.3,496.5,677.1,490.4,658.2,490.4z"/>
	</g>
</g>
</svg>
