<?xml version="1.0" encoding="utf-8"?>
<!-- Generator: Adobe Illustrator 27.1.0, SVG Export Plug-In . SVG Version: 6.00 Build 0)  -->
<svg version="1.1" id="Layer_1" xmlns="http://www.w3.org/2000/svg" xmlns:xlink="http://www.w3.org/1999/xlink" x="0px" y="0px"
	 viewBox="0 0 669.6 360" style="enable-background:new 0 0 669.6 360;" xml:space="preserve">
<style type="text/css">
	.st0{fill:none;stroke:#EBEBEB;stroke-dasharray:4,3;}
	.st1{fill:none;stroke:#EBEBEB;}
	.st2{fill:none;}
	.st3{fill:#748088;}
	.st4{font-family:'SFUIText-Regular';}
	.st5{font-size:12px;}
	.st6{font-size:10px;}
	.st7{fill:#247F5E;enable-background:new    ;}
	.st8{fill:#FFFFFF;}
	.st9{fill:#878787;}
</style>
<g>
	<line class="st0" x1="57.8" y1="3.9" x2="57.8" y2="303.9"/>
	<g>
		<line class="st0" x1="208.5" y1="3.9" x2="208.5" y2="303.9"/>
		<line class="st0" x1="356.8" y1="3.9" x2="356.8" y2="303.9"/>
		<line class="st0" x1="507.1" y1="3.9" x2="507.1" y2="303.9"/>
		<line class="st0" x1="657.3" y1="3.9" x2="657.3" y2="303.9"/>
		<line class="st1" x1="58.2" y1="3.9" x2="58.2" y2="303.9"/>
	</g>
	<rect x="58.2" y="340.6" class="st2" width="599.1" height="15.5"/>
	<text transform="matrix(1 0 0 1 322.4142 350.858)" class="st3 st4 st5">SCROBBLES</text>
	<g>
		<text transform="matrix(1 0 0 1 3.5019 20.858)" class="st3 st4 st6">Jan 20</text>
		<text transform="matrix(1 0 0 1 35.4019 20.858)" class="st3 st4 st6">2</text>
		<text transform="matrix(1 0 0 1 41.4019 20.858)" class="st3 st4 st6">3</text>
		<text transform="matrix(1 0 0 1 3.3017 45.858)" class="st3 st4 st6">F</text>
		<text transform="matrix(1 0 0 1 8.6017 45.858)" class="st3 st4 st6">eb 20</text>
		<text transform="matrix(1 0 0 1 35.6017 45.858)" class="st3 st4 st6">2</text>
		<text transform="matrix(1 0 0 1 41.6017 45.858)" class="st3 st4 st6">3</text>
		<text transform="matrix(1 0 0 1 3.872 70.858)" class="st3 st4 st6">Mar 20</text>
		<text transform="matrix(1 0 0 1 37.072 70.858)" class="st3 st4 st6">2</text>
		<text transform="matrix(1 0 0 1 43.072 70.858)" class="st3 st4 st6">3</text>
		<text transform="matrix(1 0 0 1 4.5419 95.858)" class="st3 st4 st6">Apr 20</text>
		<text transform="matrix(1 0 0 1 36.3419 95.858)" class="st3 st4 st6">2</text>
		<text transform="matrix(1 0 0 1 42.3419 95.858)" class="st3 st4 st6">3</text>
		<text transform="matrix(1 0 0 1 2.9023 120.858)" class="st3 st4 st6">M</text>
		<text transform="matrix(1 0 0 1 11.6023 120.858)" class="st3 st4 st6">a</text>
		<text transform="matrix(1 0 0 1 17.1023 120.858)" class="st3 st4 st6">y 20</text>
		<text transform="matrix(1 0 0 1 37.7023 120.858)" class="st3 st4 st6">2</text>
		<text transform="matrix(1 0 0 1 43.7023 120.858)" class="st3 st4 st6">3</text>
		<text transform="matrix(1 0 0 1 3.2519 145.858)" class="st3 st4 st6">Jun 20</text>
		<text transform="matrix(1 0 0 1 35.4519 145.858)" class="st3 st4 st6">2</text>
		<text transform="matrix(1 0 0 1 41.4519 145.858)" class="st3 st4 st6">3</text>
		<text transform="matrix(1 0 0 1 6.3417 170.858)" class="st3 st4 st6">Jul 20</text>
		<text transform="matrix(1 0 0 1 35.2417 170.858)" class="st3 st4 st6">2</text>
		<text transform="matrix(1 0 0 1 41.2417 170.858)" class="st3 st4 st6">3</text>
		<text transform="matrix(1 0 0 1 2.9921 195.858)" class="st3 st4 st6">Aug 20</text>
		<text transform="matrix(1 0 0 1 36.7921 195.858)" class="st3 st4 st6">2</text>
		<text transform="matrix(1 0 0 1 42.7921 195.858)" class="st3 st4 st6">3</text>
		<text transform="matrix(1 0 0 1 3.082 220.858)" class="st3 st4 st6">Sep 20</text>
		<text transform="matrix(1 0 0 1 36.382 220.858)" class="st3 st4 st6">2</text>
		<text transform="matrix(1 0 0 1 42.382 220.858)" class="st3 st4 st6">3</text>
		<text transform="matrix(1 0 0 1 4.7119 245.858)" class="st3 st4 st6">Oct 20</text>
		<text transform="matrix(1 0 0 1 36.8119 245.858)" class="st3 st4 st6">2</text>
		<text transform="matrix(1 0 0 1 42.8119 245.858)" class="st3 st4 st6">3</text>
		<text transform="matrix(1 0 0 1 2.8115 270.858)" class="st3 st4 st6">N</text>
		<text transform="matrix(1 0 0 1 10.2115 270.858)" class="st3 st4 st6">o</text>
		<text transform="matrix(1 0 0 1 15.9115 270.858)" class="st3 st4 st6">v 20</text>
		<text transform="matrix(1 0 0 1 36.5115 270.858)" class="st3 st4 st6">2</text>
		<text transform="matrix(1 0 0 1 42.5115 270.858)" class="st3 st4 st6">3</text>
		<text transform="matrix(1 0 0 1 3.0615 295.858)" class="st3 st4 st6">Dec 20</text>
		<text transform="matrix(1 0 0 1 36.7615 295.858)" class="st3 st4 st6">2</text>
		<text transform="matrix(1 0 0 1 42.7615 295.858)" class="st3 st4 st6">3</text>
	</g>
	<g>
		<text transform="matrix(1 0 0 1 199.1633 321.858)" class="st3 st4 st6">200</text>
		<text transform="matrix(1 0 0 1 347.3022 321.858)" class="st3 st4 st6">400</text>
		<text transform="matrix(1 0 0 1 497.5734 321.858)" class="st3 st4 st6">600</text>
		<text transform="matrix(1 0 0 1 647.8044 321.858)" class="st3 st4 st6">800</text>
	</g>
	<g>
		<rect x="57.3" y="6.9" class="st7" width="372.7" height="19"/>
		<rect x="57.3" y="31.9" class="st7" width="329" height="19"/>
		<rect x="57.3" y="56.9" class="st7" width="386.1" height="19"/>
		<rect x="57.3" y="81.9" class="st7" width="239.6" height="19"/>
		<rect x="57.3" y="106.9" class="st7" width="407" height="19"/>
		<rect x="57.3" y="131.9" class="st7" width="507.8" height="19"/>
		<rect x="57.3" y="156.9" class="st7" width="386.1" height="19"/>
		<rect x="57.3" y="181.9" class="st7" width="256.7" height="19"/>
		<rect x="57.3" y="206.9" class="st7" width="291" height="19"/>
		<rect x="57.3" y="231.9" class="st7" width="388" height="19"/>
		<rect x="57.3" y="256.9" class="st7" width="465.9" height="19"/>
		<rect x="57.3" y="281.9" class="st7" width="397.5" height="19"/>
	</g>
</g>
<g>
	<path class="st8" d="M329.6,786.1L329.6,786.1c0-2.7,1.8-4.5,4.3-4.5c2.1,0,3.6,1,3.8,3.1h-2c-0.1-1-0.7-1.6-1.8-1.6
		c-1.4,0-2.2,1.1-2.2,2.8v0.1c0,1.8,0.8,2.8,2.2,2.8c1.1,0,1.8-0.5,2-1.6h1.9c-0.2,2.1-1.7,3.2-3.9,3.2
		C331.1,790.5,329.6,788.8,329.6,786.1z"/>
	<path class="st8" d="M339.8,786.1L339.8,786.1c0-2.7,1.9-4.5,4.4-4.5c2.6,0,4.4,1.7,4.4,4.3v0.1c0,2.6-1.8,4.4-4.4,4.4
		C341.5,790.5,339.8,788.6,339.8,786.1z M346.6,786.1L346.6,786.1c0-1.8-0.9-2.9-2.4-2.9s-2.4,1.1-2.4,2.8v0.1c0,1.8,1,2.8,2.4,2.8
		C345.7,788.9,346.6,787.8,346.6,786.1z"/>
	<path class="st8" d="M351.3,781.8h3.1c2,0,3.3,0.8,3.3,2.6l0,0c0,1.3-0.8,2-1.8,2.3l2.3,3.6h-2.1L354,787h-0.8v3.3h-1.9V781.8z
		 M354.3,785.7c1,0,1.5-0.4,1.5-1.2l0,0c0-0.9-0.5-1.2-1.5-1.2h-1.1v2.5L354.3,785.7L354.3,785.7z"/>
	<path class="st8" d="M360.6,781.8h2.3l3.3,5.6v-5.6h1.7v8.6H366l-3.6-6.1v6.1h-1.7L360.6,781.8L360.6,781.8z"/>
	<path class="st8" d="M370.9,781.8h5.6v1.5h-3.7v2h2.9v1.4h-2.9v2.1h3.8v1.5h-5.8v-8.5H370.9z"/>
	<path class="st8" d="M379.3,781.8h3.1c2,0,3.3,0.8,3.3,2.6l0,0c0,1.3-0.8,2-1.8,2.3l2.3,3.6h-2.1L382,787h-0.8v3.3h-1.9V781.8z
		 M382.3,785.7c1,0,1.5-0.4,1.5-1.2l0,0c0-0.9-0.5-1.2-1.5-1.2h-1.1v2.5L382.3,785.7L382.3,785.7z"/>
	<path class="st8" d="M392.5,781.8h3.4c1.9,0,2.8,0.8,2.8,2.2l0,0c0,0.9-0.4,1.6-1.4,1.8c1.1,0.2,1.7,0.9,1.7,2l0,0
		c0,1.6-1,2.4-3,2.4h-3.5V781.8z M395.5,785.3c0.9,0,1.3-0.3,1.3-1.1l0,0c0-0.7-0.4-1-1.3-1h-1.2v2.2h1.2V785.3z M395.7,789
		c1,0,1.4-0.4,1.4-1.2l0,0c0-0.8-0.4-1.2-1.5-1.2h-1.2v2.5L395.7,789L395.7,789z"/>
	<path class="st8" d="M401.6,781.8h5.6v1.5h-3.7v2h2.9v1.4h-2.9v2.1h3.8v1.5h-5.8v-8.5H401.6z"/>
	<path class="st8" d="M410,781.8h2.8c3,0,4.5,1.6,4.5,4.2v0.1c0,2.6-1.5,4.3-4.5,4.3H410V781.8z M412.7,788.9c1.7,0,2.5-1,2.5-2.7
		V786c0-1.8-0.8-2.7-2.6-2.7h-0.8v5.6L412.7,788.9L412.7,788.9z"/>
</g>
<g>
	<path class="st8" d="M203,788.4c0,0.7-0.7,3.6-5.4,3.6h-3.3c-4.7,0-5.4-2.9-5.4-3.6V777h-3.8v11.6c0,2.2,1.8,6.4,8.8,6.4h4.1
		c3.1,0,5.5-0.8,7.1-2.4c1.8-1.8,1.8-3.8,1.8-4V777H203V788.4z"/>
	<rect x="244.9" y="777" class="st8" width="3.9" height="17.5"/>
	<polygon class="st8" points="233.3,777 233.3,790.2 218.5,777 214.6,777 214.6,794.5 218.4,794.5 218.4,781.4 233.1,794.5 
		237.2,794.5 237.2,777 	"/>
	<polygon class="st8" points="255.2,777 255.2,780.1 263.2,780.1 263.2,794.5 267.1,794.5 267.1,780.1 275.1,780.1 275.1,777 	"/>
	<polygon class="st8" points="297.2,777 290.5,783.2 284,777 279.1,777 288.6,786.1 288.6,794.5 292.5,794.5 292.5,786 302.1,777 	
		"/>
</g>
<g>
	<rect x="315.4" y="777" class="st9" width="0.2" height="18"/>
</g>
</svg>
