<?xml version="1.0" encoding="UTF-8"?>
<svg id="world-map-svg" xmlns="http://www.w3.org/2000/svg" xmlns:svg="http://www.w3.org/2000/svg" xmlns:rdf="http://www.w3.org/1999/02/22-rdf-syntax-ns#" version="1.1" viewBox="0 0 550 262.5">
  <!-- Generator: Adobe Illustrator 29.1.0, SVG Export Plug-In . SVG Version: 2.1.0 Build 142)  -->
  <defs>
    <style>
      .st0 {
        fill: #1e69d9;
      }

      .st0, .st1 {
        stroke: #6e6e6e;
        stroke-miterlimit: 3.1;
        stroke-width: .3px;
      }

      .st1 {
        fill: #eee;
      }
    </style>
  </defs>
  <path id="FO" class="st1" d="M244,55.3h.3l-.2.4-.7-.5h.6,0Z"/>
  <path id="US" class="st0" d="M58.3,66.7l-.2-.2,1.5-.9v.6l-1.2,1.3v-.7h0ZM56.5,64.5l-1.6,1.3.8-1.7,1-.4,1,.2.5.7-1.8.2v-.2h0ZM13.7,58.2l.5.2-.4.6-1.1.3-1-.5,2-.6ZM54.5,63.5l.5-.6.5.5-.2.9-.8.8v-1.7h0ZM57.4,62.2l-.5.3.2.8-1.5.6.6-.6.4-1.3.9.2h-.1ZM13.2,53.6h-.9l-2.3-.6,2.4-.3v.4l1.7.3-1,.2h.1ZM55.9,65.7l.5-.7,1.1.9.2.9-.5.9-.4-.7-.9-.3.2,1-.9-1s.7-1,.7-1ZM29.4,62.2l2-1-.2.9-1.6.3h1v.6l-3,1-1,.2-.2-.7,3.1-1.2h0ZM53.7,62.5l.2-.4,1.2-.3,1,.4-.4.9-1.1-.5v.5s-.9-.6-.9-.6ZM124.8,87.8l-.2-.2-.5.6h0l-.9,1,1.4.6,1.3-.2,4.3-1.7.5-.6h-.2v-.5l1.6-.2.9.2h1.3l.9-.6.2-1,.6-.2v-.2l1.1-.6.9-.2h5l2.2-1.4.7-1.4,1.5-1.2.4.4.9-.2.7.4-.5,2.2.2.3h.3l-.2.5.5.2.2.5-1.5.5-1.3.8-.5-.4-.8.6-2.1,1.1-.5.7.2.4-.9.6.5.2.3,1-.8.6v-.5l-1.9.5h-1.3l-1.1.5h2.1l-1.2.3-2.3.5.4.2-.4,1-1.7,1.4-.7-.9.5,1.2v.5l-.7.9-1,.9.6-1-.9-.9.5-.2-.4-1.1-.5,1.5.2.7-.3,1.3.4.3v2.1l-.9.5.2.5-.8.8h-.9l-1.3.7-.3.5h-.9l-1.2,1.1-2,1.2-1.6,1.3-.8,1.7.2,1.6.8,2.2v.6l.4,2.1-.3,1.7-.5.9-1.2.2-.3-1.2-.5-.2-.2-.8h-.5l-.6-1.8.6-.5-.7-.2.5-1.7-1.4-1.7-.5-.3-1.7.9-1.7-1.5-.5.2-3.1.3-.6-.3-1.3.4-1-.3v.6l.9-.2v.4l.9-.6.2.7-.6.6-.2.8-1.2-.8-1.3.6-1.3-1.1-1.1.3-1.4-.4-1.5.2-2.7,1.6-2.8,1.1.4.2-.9,1.3v2.1l-1.7-.2-1.4-.8v-.6l-.3-.2v-.9l-.9-1.1-.4-1.4-.5-.5h-.2l-.2-.3-1.6-.4-.6.2-.9,1.3-1.4-.6-.6-.5-.2-1.4-2.2-2h-2.7l-.2.7h-4.6l-5.6-1.9.2-.4-3.9.3v-.9l-1.1-1.1h-.2l-.5,1.6-.2-.4.6-1.3-1.6-.9h-1.4v-1.2l-.8-.9-.6-1.6.4-.3-.8-.7.2-.9.5.5-.3-1.1-.2.5-1.3-1.8.3-1.5-.6-1,1.2-1.7v-2.4l1-1.2,1.8-3.3.2-1.2.5-.8-.2-.3.4-2.4.6.3,2,.2.3-.5-.7-.2,1.2-.2-.2-.6h42.1l.7-.5v.9l2.9.5,1.6.8h2.8l.9.2.5.9h.9l-.9.7.9.2.2.5,1.2.2.8-.4,1.9-.2-.3.4.9.2.6-.2v.3l-.4.2.4.2h0l.5.3-1.7-.2-.2.3-1.2-.4v1.3l1.3-.9,1.5.8.2.5-.4,1.3-.9.6.2.6.9-.6h.8v1.6l-.3.6-.2.2.4-1ZM66,77.2h0ZM10.8,67.5l.3.5-.6-.5-2.5.6.9-.8,1.7-.3.2.3.2-.4,3.2-1.3,1.9-.2.6-.5,2.8-.9,2.6-1.2,1.5-1.5,1.1-.7-1.9.5-.9-.3-.7.6-.2-.8-.6.2-.2-.5-1.5.9-.9-.3.2-.9.8-.4v-1l-2.4.6-1.7-1.3,1.5-.5.9.4.8-.2-1.6-.2-1.3-1.1,1.3-.6v-.2l2.2-1,1.1-.9.8-.2,1.2.3,1.6-.6,1.8-.2.9-.4.5-.8-.2-.5,1-.2-.2-.5-3.5.9-.7-.3-2,.2-1.4-.2-.2-.9,1.3-.2-1.6-.2-.6-.4,3.8-1,2.4-.5h1.5l-.8.8h2.7l1.3-.2-.9-.4-.4-.7h.6l.2.7,1,.2,1-.3-.6-.2-1.1.2.4-.9-.9.2-1.6-.2.2-.9-.9-.7-1.2-.5,1.5-.9h2.7l2.6-.9.9-.7,2.4-.9h1.4l2.5-.8h2.2l2.5-.8,1.4.2-1,.4.5.2,1-.5.2.6,2-.2,1.1.2-.2.7,3.5-.2,2.6.6h1.7l.5.2,2.9-.2,2.4.8-3.4,3.6-1.6,1.9-3.2,3.9-1.6,2.1-2.8,3.9,1.3.2,1.5-.3-.4.5,1.3,1.4v.6l1.3-.5.9-.7,1.5-.3.2.9,1.4,1.4.8,3,1.7.9v.3l-.6,1-.9.6-.9.2.2-.6.7-.9-.2-.4h-.9l-.7.8.6-2-.5-.6-.9-.2.5-.4-.3-1.1-.6-.2v-1.8l-.7,1.8-1.9-.3-.5.3-1-.6-.4-.8-1.7-.8.7-.6-1.3.3-3.1-.7-1.8.2-1.1-.6-1.5-.3.5-.6-1.5-.2-1.5.3-.4,1.3h-2.4l-2,.9-1.5.3-1-.2,1.5-.5-.8-.3,1.2-.7.6-.8,2-.6,1.6.3-1.5-.7-1.9.5-1.3.7.2.2-1.5.5-.6.5-2.7.9-.5.6,1.1.2-1.3.6-1.3.9h-1.1l-1.6.9h-.4l-1.5.9-3.2.9v.3l-1.8.6-2.9.7h.8l-.3.7-.7-.8-4.3,1.2h.4ZM2.8,69.8h.3-.3ZM2.8,69.8h-.5l-2.3.9,1.6-.9h1.3-.1ZM3.1,69.8l.7-.7,1.9-.4-.3.5-1.1.5-1.2.2h0Z"/>
  <path id="JP" class="st0" d="M469,101.6l-.2,1.7-.9-.5-.6.2-.5,1.1-.6-.4-.6-.9.7-1.1.4.3,1.4-.7.9.2h0ZM463,105.5l.4-1.2-.9.7v-1l-1.4-.6-.6.9h-.5l1.1-1.3.2-.5-1-.6,1,.5.6.6.6-.7,1,.4h.9l.9,1.1-.4.7v1.9h-.6l.4,1-.7-.9-.9.2-.3-1.1h.2ZM476.1,91.1l1.1.9.5.9-.5,1.3.4.7-.8-.2v.5l.6,1.2-.2,1.8.8.9-.5.9-.6.5-.6-1.1-.9.6-.3.9-.2-.8-.8.7-1.8.2-.7-.8v.7l.6.6-.9.3-.2.9h-.8l-.8-.6.2-1.3-1.6-.2v.6l-1.1-.2-1.3.3-.7.9-.9-.4-.9.2-.6-.8h.7l1.7-1.8-.2-.9.5.8.6.2,1.7-.3,2,.2v-.8l.8-1.1-.2-1.2.8-.3-.2,1.1,1.9-.5.6-.7-.8-.4,1.4-.3.2-2.4-.7-.8-.3-1,.6-.4-.2-.8.9.7h.6v-.7l-.7.2v-.7l.9.7.6.9.3.2ZM478,87.8v1.1l-2.7-1.1-1.1.5-.6-.4-.5.5,1.7.8-1.7.4v-.7l-.8-.4-.2-.7.8-.5-.4-.6,1.3.4.3-.4-.4-2.1-.7-.9h-.4l-.5-.2,1.2-.3,3.2,2,2.4.6.7-.5v.7l.7,1-.7.4h-.9l-.7.5h0Z"/>
  <path id="IN" class="st1" d="M406.9,140.4v-1.5l.2-2.6.2-.5v2l-.5,2.7h0ZM399.5,122.1h0l.2.6h-1.4l-.5-.4-1.2.5-.6.8.4.7-.9,1.2-1.2.4-.3-.3-2,2.7-.7.4-.6.8-1.5.9v.7l-.9.5h-.8l-.6.9h-.9l-.3,1.2.7,2.7-.2,1.4-.5.8.2,2.9h-.8l-.6,1v.6l-1.2.5-.2,1-.9.5-.9-.5-.8-.9-1.3-3.6-1.2-1.6-.6-1.3-.5-1.7-.5-1.2-.8-.9-.9-1.6-.4-1.5-.8-2.4-.6-2.4.3-1.1-.7-1.4.9-.6h-.9l-.4-1-.2,1.9-1.8.9-1-.4-2-1.7v-.5l1.5-.5.3-.6-1.1.3-1.8-.7-.9-1.1.9-.2v-.5l2,.2.9-.5.3.3.5-.7-.9-1.6-1-.5v-.9l-1.2-.5.2-.6,1.2-1.4.5.5,1.9-.3.5-1.3.9-.5.6-1.5,1.6-2-.2-1,1.2-.7-.9-.6-.2-.5h-.5l-.7-.6-.6-2,.8-.6,2.4.4,1.3-.4.5-.6,1.1-.6,1,1.5,1.1.4-.2.5.3,1,1,.5.3.6-.9.7-.9-.3.7.9.2,1h.8l.7.7,2.5,1.2-.9.8-.3,1.5.9.2,2.4,1.4,1.5.5,1.8.3.4-.3.8.3.2.5,2,.8,2.5.4,1.3-.6-.5-.6v-1.3l1.2-.2.3,1.1.5.9,1.2.2,3.1-.2.6-.2-.3-.9-.6-.5,1.6-.2v-.4l1.1-.9,1.3-.6.4-.5,1.1.5,1.3-.6,1.6,1.7.6.2.2.6-.9.9-.9.2-1.6,1.3v1.3l-.5.5.3.6-.7,2-1.3-.3.3,1.5-.4.2.2,1-.3.7h-.6l-.6-2.1-.4-.8-.8,1.3-.9-1.2.2-.8,1.2-.5.5-.9-.8-.5h-2.7l-.9-.3v-.9l-2.4-.9-.5.9,1.6,1.3h-.8l-.6.9,1.3.6-.2,1.1.6,1.1.3.9.2.9-.5-.3Z"/>
  <path id="FR" class="st0" d="M268.6,87.7l.2.9-.6,1.3-.6-.3-.4-1.1.3-.6h1v-.2ZM523,193v-1.3l1.9,2,1.1.6.9.9-.4.3-2.2-1.4-1.3-1.3v.2ZM150.1,128.5h.2-.2ZM265.5,85.8h-.2l-1.6,1.1-1.5-.2-2.2-.6-1.4,1,.2.9-1,.2-.9-.2h0l-.4-.2v-.2h-.4l-1.2-.4-1.1.2-2-.6-.7-.5.5-.4.5-1.7.2-2.3-1.2-.8-.2-.9-1.3-.7-1.7-.7-.6.2-.5-.4.6-.2-.6-.6,2.4-.5.7.5,1.7-.4-.6-1.6h1l.2.5,1.4.2.6-.7,1.6-.5.5-.5v-1l1.5-.3,1.7,1.3.9.2-.2.4h1l1,.8h.5l.2.2h.6l.7.4,2.1.4-.9,1.3v.9l-.8.4-1.4,1.3.2.5v-.2h.9v.4l.3.4-.2.4.5.5-.8.5.6.5v.9l1,.2-.2.6h0ZM164,149.6l.4-.6,1.6.5,2.1,1.8v.5l-1.2,1.5-.4,1.1-.6.5-.6-.3-1.3.4-.9-.4.8-.9.3-1-.6-.9-.2-1.4.5-.8h0Z"/>
  <path id="CN" class="st0" d="M434.3,127.9l-.5.5-1.5-.6-.2-1.3,1.6-1.2,1.6-.3.6.8-.5.5-.2,1.2-.9.5h0ZM396.6,112.3h-1.6l-1-.4-.9.3-.6-.7h-.9v-.5h-.7l-1.2-1.1-.9.2-.7-.8-1.7-.7-.2-.4h-1.2l-.6.2-2.5-1.2-.7-.7h-.8l-.2-1-.7-.9.9.3.9-.7-.3-.6-1-.5-.3-1,.2-.5-1.1-.4-1-1.5h-.6l-1-.2-1.5-.6v-.7l-1.6-.9h-.9l-.3-.2.8-.2-.6-2.2h-1.5l-.6-1.5.3-1,1.2-.8,1.1-.2.3.5,1.4-.5v-.6l2.1-.2.3-.5,1.3-.7,1.3-.4v-.2l-.3-.8.8-.8-.9-1.5-.3-1-.6-.6,2.3-.5,1.3.4-.5-.7.4-2.7,2.8.6,1-.4v-.6l-.4-.9.2-.9,1.2-.2v-.9h1.1l.5-.2.5,1,1.9.9h.8l1.4.5,1.7,1.8.2.9-.2.9.5.6,2.2.2,2,.2.8.4,1.9.7h.6l1.3,1.7,1,.9,1.3-.2,3.7.4.8-.2,2.6.2.8.5,1.7.3,1.1.4,1.2-.2.2.3,1-.2,2.2-.9,2-.3h2.1l1.3-.5.5-.9,1.3-.6-1.2-1.3.5-1,2.7.5,1-1.1h1.7l.6-.6.3-.9h1.1l1.2-.7,2.3.2.2-.6-.6-.5-2.2-1.3h-1.3l-.2.3-1-.2-1.4.2-.8-.7.6-2.7,1.9.5,1-.7.8-.2-.2-.5.4-2.1.6-.8-.4-.7-1.3-.4.9-.8,3.3-.5,1.7.3,1.1.5,1.4.2,1.9,1.3v.3l1.4,1.1v.4l1.8,1.4.2.7.9.4,2.1.2,1.8.9,1.3.9v.4l.9.6h2.2l.6-.7,1.8-.5.6.2.5.9-.6.8.4,1.6-.2,1.1-.5.9-.6-.4-.9.2-1.3.6,1,1.3.4,1v1l-.9.2.3.4-1.3-.7.2.9h-.6l-.4.6h-1.3l.6,1.1-1.4-.2-.7-.5-.5.2-.5,1.3-1.5.7-.6.6-.2.5h-1.1l-1.3.6.2.3-1.9.9.6-1.1-.9-.2.8-.8.4-.8-.9-.5-1.1-.2-.7,1.2-1.3.5-.5,1.2-2,.2v.8l1,.8h1.3l.6,1.5.8.2,1.7-1.2,1.6.7.8-.2.9.2-.3.9-.5-.2-1.8.9v.6l-1.3.9-.5.9.9.8,1.1.4,1.6,2.2.2.5,1.8,1.2.3.9-1.6-.6,1.4.9.6.6-1.5.6-.2.6,1-.2.6.5.9-.8-.4,1.4.2.9-.6-.4.5,1.6-1.2.6-.2,1.3-.9.9-.2,1.6.6.2-.6.6-.9.2-.2.9-2.4,1.7-.7.2v.8l-.9.3-1.7-.2-.8.4.2.9-.7-.6-.6-1v1.3l-1.1.7h-.9l-.9.4-1.4.3-.6.6.4,1.1-.8.2-.6-1.2v-.9l-2.2-.7-.6.6-1.1-.2-1.1-.7-.6-1.5h-1l-1-.7-2,1.4-1.2-.5-.4.5-.9-.5-.5.6-.9.2.5.7v1.2h-.7l-.2-.6v-.3l-1.6.5-.6-1-1.3-.2.3-1.5-1.1-.2-.6-1.5-1.5.3-.3-.9v-1l1.5-1.4-.5-2.7h-.6l-.5-.9-1-.7-.3.5-.6-.2-1.6-1.7-1.3.6-1.1-.5-.4.5-1.3.6-1.1.9v.4l-1.6.2-2.4-1-1,.4-.9,1.3-.3-1.1-1.1.2-.9.6Z"/>
  <path id="SW" class="st1" d="M124.3,132.2h0Z"/>
  <path id="SH" class="st1" d="M447.9,133.3h0Z"/>
  <path id="EC" class="st1" d="M102.9,159l2.7.9-.5.3-1.7-.5v-.5h-.7v.9h-.8l.5-.7-.5-.5h1ZM123,156.1l.4.4,1.8.9.2.4,1.7.2.2-.3,1.6.9h-.5l.6.7-.5,1.7-.8.9-1,.8-2,.7-.8.7-.5,1.9-.6.7-.8-.8-1-.4-.4.3-.2-.6.5-.3-.3-.9.7-.3.2-.9-.8.6v-.5l-1.1-.7.3-.6-.4-1.4.6-.3v-.8l.8-.8v-1.1l1.5-.6.6-.5h0Z"/>
  <path id="AU" class="st0" d="M473,217.6l.6.3-1.1.5h-1.2v-.5l1.6-.3h.1ZM469.5,177.7l.2.4h-.9l.6-1,.6.3.9-.3.3.7-.9.5-.8-.6h0ZM485.4,228.4l-1,1.9-.4-.6-1.6,1.3-1.2-.2-.5-1.6.2-.7v-1.8l.4-1-.7-.7v-.5l1,1.3v.4l2.1.8,2.4-.5.6-.5.3-1.4.3,1.2h-.4l-.9,2.7h-.6ZM493.3,185.7l.9,2.1-.4,1,.5.3v1.1l1.4.5.2.5,2.1,1-.6.4.7.9.2,2,.6.6-.2-.8,1.3.9-.2.8.9,1.3h.5l.9,2,.6.2.7-.5-.9,1.3-.3,2.1.4.5-.4,1.1-.2,1.3-2,3.1-.5,1.3-1,1.1v.5l-1.5.8-1.7,2-2.7,3-1,1.7-.2.9-.9.5h-1.9l-1.3.5-1.5.9-.7.2-.3.7-.8-.9-1.2-.2.5-1-2.9,1.7-1.5-.9h-1.2l-1.3-.5-.9-1.5.5-.9v-1l-.7-.8h-1.5l.7-.4.5-.9-.4-1-1.3,1.7-1.3.2.5-.6h.6v-.6l1.9-2.3h-.9l-.6.9-1.1.4-2.1,1.7-.2-1.7-.5-1.1-.6-.2.2-1.2-.6-.4h-.9l-.4-.4h-.9l-1.6-.8-3.5.3-3,1h-1.7l-3.8,1.4-1.3,1.3-2.4-.2-3.2.2-1,.9h-1.1l-.9.8-2.1.2-1.7-.3-1.3-1.3.2-.9.4.2.8-.6.4-1.1.3-1.6-.5-1.3v-1l.2-1.2-.3-1.7-.5-.7v-1.3l-.9-1.5-.3-1.5,1.1,1.8-.4-1.5.2-.3.7,1.5.2-1-.8-2.1.2-.8.6-.9.2-1.6.8-1.3v1.1l1-1.1,1.7-.9v-.9l.6.5.5-.4,1.7-.4h.9l.8-.4,1.1-.2.5-.6.8.2,2.4-.8.6-.4,1.2-1.5.8-.5v-1.5l1.5-1.4v.3l.7,1.6.2-.9.3.3-.2-1.7,1.3.3.2-1.8.8.2.5-1.3,1.6-.2.4-.8.6.3.7-.8.7.3,1.1,1.3-.3,1,.9-.9,1.8.6.2-.3-.6-.8.6-.6.4-1,.6-.2-.2-.6.9-.9,3.5-.4-.2-1.1-1-.3,1.3-.4v.8l.5-.3.4.6h1l1,.5.5-.2.5.5,1.4-.7-.5.5h.7l.6-.4.8.5-.9.8-1.1,1.7h1.7l-.6.9-.6-.7-.6.2-1,1.6,1.7,1.3,1.9.9.8.8,1.1.3.6-.7-.2,1.4,1.1.6,1.5-.5,1.3-2.3.6-1.7v-1.8l.5-1.1-.2-.5.6-.7h-.6l1.2-2.4.2-1.6.2.9h.6l.3,1.1v.8l.4.2-.2.5.6.5v1.9l.5,1.3.9-.5.2.6,1,.6-.3.9v1.9Z"/>
  <path id="PH" class="st1" d="M458.5,143.1l-.9.5-1.2-1.4.8-.4-.2-.7.6-.8.6.3-.6,1.6.4.9h.5ZM458.8,142.3l.5-.6h.6l-.3.9-1.6.2.9-2.4.2.9-.6.5.2.5h0ZM459.6,139.5l1,.4v.8l.5,1.1h-.8v-1.2l-.8.3.2-1.4h-.1ZM457.8,137.7l.4-.2.7,1.4-1-.6v-.5h-.1ZM452.3,135.8l1.6.3.6.5.2.9-.5.6-1.9-2.4h0ZM460.3,139.4v-.4l-1.1-1.3h1.5l.6.5v1l.6.9h-.8l-.7-.7h-.1ZM455.6,138.8l1.1.6h.9v.6l-.8.7-1,.5v-2.4h-.2ZM459.6,147.8v-1.1l.2-.5-1.4-.6v.7h-.8l-.4-.7-.6.5-.4,1.2-.5.2.4-1.9.2-.4,1.1-.3.7-.9.6.2.2.7h.6l.3-.7.5.2v-.9l.6.4.6-.3-.2-1.1.2-.6.2.7.6-.2.7,1.5.2,1.7.4.9-.6.9-.8-1-.6,1.1.6.9-.5.9-.6-.5-1.4-.5-.3-.5h.2ZM449.3,143.2l2-2.4-.2-.4.4-.8.7-.4-.2-1.1.8.4-1.1,1.5.3,1.1-1.5,1.1-.4.9-1.8,1.3.5-.9.6-.3h0ZM457,135.3l1.7.3-.9.3,1,1v.7l-1.1-.8-.5-.7-1.2-.9.2,1.3-.9-.9-.7-.4-.4.5-1.5-.9.6-.6-.7-.5v.6l-.8-.5-.7-1.9v-.7l.9.3-.4-2.4.2-1.5.9-.2,1.4.6.3-.4-1.2-1.3.8.5.7,1-.2,1.1.8,1-.4,1.4-.9.6-.2.9.7,1v.9l1,.2.2-.5,1.1.6.2.3ZM455.6,138.8h0v-.5l.2.5h-.2Z"/>
  <path id="ES" class="st0" d="M224.9,111.3l.2-.5.9,1.1.3-.5,1.3-.3,1.1.7-.3.6-1.3-.6-1.3.2-1-.7h.1ZM259.8,92l-1.3,1.5v-.3l-.9-.5,1.3-.5v.3l1-.5h-.1ZM245.2,98.8h.2v.2h0v-.2h-.2ZM245.3,98.5l-.4.2-.9-.5-.6-1.1-1.4-.4-.2-.5.8-.8-.5-.7.6-.9-.9-1.1h.9l.4-1.1-.2-1.1,1.2-.9-.6-.6-2.5.2v-.6l-.9.3v-1.3l-.6-.8,1.3-.4.7-.5.9.3h3l1.8.2,1-.2,2.7.2.7.5,2,.6,1.1-.2,1.2.4.2.3.2-.2h.4l.9.2,1-.2v.8l-1.7,1.1-1.7.4-2,2.5.3.9.6.4-1.2.6-.3,1.2-1.5.5-.6.9-3.8.2-1.2.5-.3.5v.2ZM249.1,99.9h0Z"/>
  <path id="BU" class="st1" d="M122,132.3h0Z"/>
  <path id="MV" class="st1" d="M375.9,149.8l-.4-.2.2-.3.2.2v.2h0Z"/>
  <path id="SP" class="st1" d="M445.5,140.6h0Z"/>
  <path id="GB" class="st0" d="M243.4,62.5v-.6l1.3-.6-.2.8s-1.1.4-1.1.4ZM162.2,243.8l1.7-.2.5.2-.8.9-.9.5-1.1-.6,1.1.2.4-.5-.8-.6h0ZM163.9,245.4v-.5l.5-.5.2-.7,1.7.2.4.6-2.7,1h0ZM307.9,100.5h-.4.4-.2l.2.2v-.2ZM307.7,100.4h0ZM245.3,98.5h0ZM306.5,101h-.4.4ZM243,67.1l1.7-.4.9,1-.8,1.1-.4-.2h-.6l-.5-.5-.4.5-1.3-.6.7-.2.7-.8h0ZM245.5,63l-.2-.6.8-.2-.2-.6.6-.6h2.3l.2-.8.9.2-.7,1.1-1.3.6-.2.7,1.1-.3h2.3l.3.4-.7.9-1.4,1.4,1.5.2.8.6.6,1.6.9.3.7.6.6,1.7,2,.5v1.2l-1.1.8-.7.2,1.5.2v.5l-1.7.6-.7-.2-1.7.4-.9-.2-.9.2h-1.5l-.5.6-1.5-.2-.6.6-.4-.3,2-1.8h1.7l-2-.9-.9.3-.5-.5,1.7-.6v-1.6l1.6-.3.5-1.3-.6.2-.5-.7.3-.6h-1.5v.8l-.2-.6-.9-.2.8-1-1.2-.8-.2,1-.2-1.7-.9.2-.5-.6.9-.2.4-.6-1.2.2.3-1.1.3.6.6-.3h0Z"/>
  <path id="GR" class="st1" d="M296.8,99.7l-1.3.7h-2.2v-.2l-1.9-.3,1-.5,2.4.3.2.4,1.9-.5h-.1ZM286.9,91l.2-.2h-.4l.2-.2h0l1.3-.4h1.3l.3-.4,2.4-.4,1.2.5,1.4-.2.2-.6.6.6-.9,1.1-1.2,1.2.4-1.4-.8-.2-.4.6-.4-.6-1.3.5,1.2.8-1.1-.2-.6.2-1.3-.5v.7l1.3,1.4-.5.2,1.8.7.5-.5.3.3-.7.4,2,1.9-2.4-1.5.2,1-1.4-.5v.6l.6.4-1.3-.3.9,1.9-1-.6v.5l-.7-.9-.4.5-.5-.5v-.8l-.8-.5.4-.6.9-.2,1.5.6.5-.2-2-.5-1.3.2-.5-.9-.4.3h0v-.2l.9-.4-1.7-.4-.9-.9.6.2.6-.2.9-1.4h.3ZM286.4,94.4h0ZM286.4,94.4l.3.9-.2.5v-1.3h0ZM294.1,97.7h-1.3l.3-.6,1.3-.3.7-.8-.2-.9.2-1.4-.5-.4.8-.2v.7l-.3,1.3.2.9,1-.3.4,1.6-.2.2-.5-1.7-1,.4v1l-.7-.2-.3.6h.1Z"/>
  <path id="DK" class="st0" d="M269.4,65.8l.5.9v.9l-.9-.3-.9-.9,1.3-.6ZM271.9,67.3l-1.3-.5-.2-.8.8-.4.2.4.6-.8.7.9-.7.3v.9h-.1ZM267.8,67.5l-.9-.2h-.2l-.2-.9-.8-.2.5-.6-.5-1.1h.6l1.8-.9-1.3.2-.6.6-.4-.3.6-.6h1.2l.8-.8.8-.2-.2,1.9.9.3-2.1,1.6v.6l.9.5h-.9,0Z"/>
  <path id="GL" class="st1" d="M217.8,41.5l-1.7.6.8.2.7-.4h.6l1.5-.3,2.2.6h1.7l-1.3.7-1.2.2-3.2,1.4-2.4.2-2,.5-2.4.3-.9-.2-.9-.9.4.9-2,.9v.4l-.9.9-1.3.7-2.6.9-.2-.4-.9.9-.2-.4-1,.4.3-.8.9-.6-1.2.2v.5l-.9.4-2.4.4.9.2-1.2.6-1.1-.2.7.4-.5.9v.9l-.9.3v.5l-1.8,1.1-.9,1.4-.2.9h-.9l.6.5-.4.5-.9.2v.9l-1.3.2-1.7-.7-.6-.8-1.6-.3h-1.7l.2-.5h-1l-.3-.9.2-.6-1.3-.6.5-.8-1.1-.3-.5-.6.6-1.5-1.3.4.6-1.4-1.7-1.9.2-.6.7-.4,1.3-.3h-1.9l-.3-.2,2.7-.5-2.4.2.5-1h.8l.2-.6,1.7.2.7-.2h-1.3l.2-.8,1.7.2.4-.9,1.2.2-.2-.5-.6.2.3-.8-.6.2v-.7l-1.2-.2-1-.5h-.8l-.8-.6.9-.2,2,.2,1.1.5.4-.8h-.9v-.4l.8-.4-1.7.4.7-.9-.7.2-1.1-.3.6.9-.5.2-.5-.6h-1.5l-.5-.5,1-.7.3-.5-.7-.6,1.9-.2-1.3-.2.9-.7-1-.2v-.4l.5-.9-1-.6.2-.3-1.3-.2-.4-.6.5-.5-2.7-.7-3.1-.4-.9.4-2.6-.2-.7.6-2.4-.2-1.3-.5v-.7l-1.5-.3,1.1-.8,2-.3-2.1-.2-1.6-.6.9-.6,4.2-.5,2-.5h2.6l1.8-.7.4-.9h-2.4l-.2-.5,3.4-.8.6-.3,2.4-.4,1.6.2.9-.2.6-.5-.6-.4,3.8-.6,5.2-.4.8.4-.9.9,1.3-.6.3-.7,1.8.5h-1l1.9.5-.7-.4h1.9l-1.1-.3-.2-.5h2.4l.2.2,2.8.6.8.4h1.2l-.7-.4.3-.2-2.3-.4-.3-.7,3.2.6-.6.5,1.5-.5-2-.6h5.6l-5.3-.2-1.3-.2,1-.2.9.2.7-.3,3-.2h2.6l1.1.3,2.2-.2h-2l.2-.5,2.4-.2,4.9-.2h2.1l5.5.5-.6.2-5.4.2-5,.3h3.7l2.1-.3h5.6l.7.5,2,.2,1.5.2-1.4.5-8.8.4-3.6.5h1.3l4.8-.4,3.6.2-.2.3-2,.3-.2.3,3.2-.5.8-.5h2.2v.9l-2.5.9,1.4-.2,2.7-.9,1-.5,1.5.2.6.5,1.8-.6h2.2l2.2.3.7.3-2.4.7h-1.4l.2.4-1.4.2h-2l1.5.4-.9.3-2.7.2-2.1.4.4.4h.9l-.5.5.8.2-.8.9h-1.9l-.9,1.3.4-.2,2.1.2v-.6l1.5-.5-.9.5v.4l-.6.9-1.8-.2.4.5,2.6.3-.6,1.1v.9l-.5-.9.3-.5-2-.3-1.6.5-.6-.3-.7.3,1.3.2-.2.5h2.3v.5l.6.9,1.3.2,1.2.5h-1.4v.6l-1.5.6-2.5.3h-1.3l2,.3v.7h-1.3l-1,.4-2.1-.5-1.7.2-1.2.4,1.3.2-.9.3,1.3.4v.4l2.7.9-.8.3h1.5l-.7.2v.5h.7l.3,1.3-2.6.2-.7-.3-.3-.8-2-.8h-1.3l1.3.2v.5l-1.6.3-1.5.2-.6.8,1.8-.2h-1.6l.6-.4v-.2l1.9-.2.9-.2.5.7-1.6.3h-.5ZM218.1,39.7h0l-1.3-.7h-.8l1.4.5-.5.2h1.2ZM223.3,37.2l1.6.3v.3l-1.6-.3h-1.8l1.8-.3ZM232.9,25.7l-1.6.5-1-.2,2.1-.4.5.2h0ZM221.8,38l-.2-.5h1.7l1.5.6h-.9l.5.5-2.5-.7h-.1ZM223.3,36.9l-2.2-.2,2.5.3-2,.2-1.6-.2.6-.4h1.1l1.5.3h0ZM179.8,41.6l2.1.3,1.5.6-.2.5-2.3.5-1.4-.5.2-1.3h0Z"/>
  <path id="PR" class="st1" d="M146.4,128.4l-.8.2h-2.1v-.8h2l.9.5h0Z"/>
  <path id="UM" class="st1" d="M130.6,127.9h0Z"/>
  <path id="VI" class="st1" d="M147.4,129h.3l-.6.2v-.2h.3Z"/>
  <path id="CA" class="st0" d="M138,83.8l-.9.2-1,.6-.8.4h-.6l-.9.6-.7-.3-2.4.3-1.3.9h1.1v.5h.2l-2,.3-.6.4-1.3-.2-.9.6-1.3.4-.5-.4h1l-.2-.4.2-.2.3-.6,1.2-.6.3-1.2.9-.9-.2-1.1,2,1.3.7-.6-1.1-1.9-1.4-.2-.4.8-2.4-.5,1.1-.2,1,.2.7-.4-2.3-.2-1.1.2h0v-.8l-.5.2-.2-.9.4-.5-.5-.6.4-.5-1.3.2-.5-.6-.2-1h-3l-.2-.2-1.3.6-.9.8h-2.8l-1.6-.9-3-.5v-.9l-.6.5h-42.1l-.2-.2-.2.2h0v-.5l-1-.5.5-.4-1.3.2-.2-.5-.5.2.5.9,1.2.4-.3.2.5.9-.5.2-1.5-.4-1.8-1.2-2.2-2.2,1-.6.7.6,1.8.3h.9v.2-.4h-2l-1.2-1,.7-1.7-.9,1.2.7-2.7h0l-.6.6-.5.5.3-1.1h.8l-.8-.5-.9-1.6,1.6-1.6.5-1v-.3l-1.6-.9-.8-3-1.4-1.4-.2-.9-1.5.3-.9.7-1.4.5v-.6l-1.3-1.4.4-.5-1.5.3-1.3-.2,2.8-3.9,1.6-2.1,3.2-3.9,1.6-1.9,3.4-3.6h2.8l-.2.6,2,.6h1.3l1.2-.9,1.3-.2.9-.4.9.6.9-.5h1.2l4.1-1-.2.5-2.6.6-1.5.2-1.9.8,3-.9v.5l1.4-.6,1.9-.3v.3l1.3-.7,1.3-.2-.6-.2.4-.5.8.7v.9l.9.7,1.9-1.2.5.5-.9.6,1.9-.2.8-.5h2l1,.7,2,.3.6.3,2.5.3.3-.3,1,.2.8.5-.2.6h-1.3l-.8.8,2.7.2,3.1-.2,2.2-.7.2.9.9.5,1.1-1.2h1.6l2.1-.9-1.4.2-1.8.6-1.6-.2,1.2-.6,3-.5h.7l.2,1.1,1.2-.4-.6.8h1.5l2.1.6,1.3-.2h3.1l.9.4.8-.3-.5-.4-.6.2-.4-.8,2.1-.2.2.7,1.4-.4-1.6,1.3v.4h1.1l.8-1.3h.9l2.2-.8-.2-1,1.3-.4h-1.2l-2.1-.8v-.8l1.1-.5-.5-.3.7-.8h1.1v-.5l1.3-.6h.8-.7l.6-.9-.3-.6.9-1.4,2-.8h2l1,.2,2.6.2-3.4,1.7-.9.2h-2.3l.5.4-1.4.7h-.5l1.3,1.1-.6.9,1.3,1.2h-.9l.5,1,1.5.2-1.5.2.6.7-.7.7.3.3.9-.5.7-.9,1.2-.3.9.9-.2.6h-.9l-.2,1.1.6.6-.2.4,1.6-.4v-.9l.6-.6v.8l.9-.4.9-1.1,1.5-.6-.6-.2.3-1,1.6-.2,2.2.4,1.3.9-.9.3.5.5-1.7.5v.7l.8.8-.8.8h-.6l-2.1,1.3-.6-.2-.6-1,.4,1.4v.9l-1.1-.2-.2-.8h-.9v-.6h-1.9l.9.6-1.2.7-1.7.7h-.8l-1.9-1h-2.3l1.7.2,1.1.8,2.5.2v.2l-1.6,1-.6.5-1.7.4-1.1-.4-.3.7-1.3.3-1.3-.2,1.3.6-.2.5-1.3.5h-1.5l.4.4h-1l-.6,1-2.1.8-2.4,2.5-.6,1.4.2.5h1.9v2.1l-.5.9,2.6-.6,2.9.7,1.1.7.3.6,2.5.7,1.4.6,1-.2,2.3.5-.7,1.3.2.7-.7,1.4.8.9-.4.3,1,.5.5,1.1.9.2.9-.8.4.7.4-.6-.8-1,.8.5.8-.7-.3-1.1.3-.9v-.9l-.6-.9,3.3-1,2-1.3.5-.6.3-1.6-.2-.9-.6-.6-1.3-.5v-.3l1.7-.9.2-.6,1-.5-.5-.8.4-.6h-.9l1.6-1.2-.5-.9.5-.9h.9l3.5.7,1.5-.6,1.8.7.8.6-.4.4,1.3.6,1.9.5-.8.4-.5,1.7.7.8.9.3,1,.9,2.3-.9,1.3-.8v-.8l.8-.4.6-.9.7.9-.2.5,1.2,1v.8l1.2,1.9-.4.4.9.2-.9.6.9.4-1.3.4h1.2l.9,1.3-.5.4,1.2-.2-.2.4h1.2v.4l2.1.4.2.2-1.3.2-.8.5-2.3.5-.2.7,3.4-1.5.9.2.2.7,1.9.4-.2,2.1-.5.5-1.7.9h-1.1l-2.1.7-1.6,1.1-2.3.2-3.8-.2h-4l-1.3.8-.5.9h-1l-1.7.9-1.8,1.7-2.4,1.6,1.2-.3,2.7-2,1.4-.6,3.3-.9h1.9l1,.5-.3.8-1.7.7-1.8-.2,1.2.7h1.3l-.8.8.6,1.5.6.5,2.4.7.9-.5,1.3.9-4,1.3h-1.3l-.2.5-2.3,1.5-.7-1.1.5-.9,2-.9,2.4-.4h-1.9l.2-.9-2.4,1.2-1.6.2-.4-.2-.5-.2.2-.5-.3-.2-.2-.2.5-2.2-.7-.4-.9.2-.4-.4-1.5,1.2-.7,1.4-2.2,1.4h-5l2-.7.5-.7-.6.7-2,.7.5.8ZM141,82l2.1-1h.2-.2l-2,.8-.2.2h0ZM156.3,75.6l1.1.2,2.1.8.2.5h-.9l-1.9-.5-1-.7.4-.2h0ZM131.7,70.2h.5l.3.9-1.8-.6,1-.3ZM140.3,54.9v.6l-1,.7-.5-.3.2-.6,1.3-.4ZM136.9,54v.4l-2,.9h-.9v-.5l1.2-.7h1.7ZM143.9,52.3l.6.5-1.5.9-.6-.5h1.2l.6-.6-.3-.4h0ZM150.2,45.1h.5l-.5,1.3-1.3.5h-1.6l.2-1,1-.6h1.6v-.2ZM146.8,43.2l.5-.3.2.5-1.3.6.2.6-.9.6.5-.8-.5-.5,1.2-.6v-.3.2ZM116.6,36.8l-1.5.8-.9-.9.3-.5h1.9l.6.2-.5.4h0ZM104,32.1l-1.6.9h-1.6l1.6-.6s1.6-.3,1.6-.3ZM121.2,31.7v-.4l1-.2.9.4-1.3.3h1.6v.4h-2.5l.4-.6h0ZM140.9,29.6l.5.5h-1.6v-.5h1.1ZM122.2,29.9l-.2.5-.6-.5v-.5h.8s0,.5,0,.5ZM134.7,29.4h2.3l-.4.5h-3.1v-.4h1.2ZM156.4,81.8l-1.4-.3.2-.6,1.2.6h1.3l-.5.7-.9-.4h0ZM55.9,71v.9l-1-1.6,1.3-.2-.2.9h0ZM136,64.3l1.6.6-1.6.9h-.6l.9-1.3-.4-.2h.1ZM132.6,32.6l1,.9-.9,1h-1.5l-.5-.2-.4.5-.5-1.2,2.9-1h-.1ZM115.7,28.5l-2-.2,4.1-.5.9.3-.5.5-2-.2-.5.2h0ZM58.5,68.1l1.4,1.8-.6.5-.8-.5v-1.7h0ZM160,82.5l.5-.8,1.1.4-2.1.9-.6-.4v-.6l1.7-1.6.2.7-1.4,1.5.6-.2h0ZM55,68.7h2.2l-1.3,1.4-1.1-.3s.2-1.1.2-1.1ZM153.5,37.6h-2.7l-1.5.2-.9-.2v-.7h-.7l.4-.8,1.7.2h1.8l1,.2.9.7s0,.4,0,.4ZM136.2,28.4l-.8.2v.5l-2.2.2-1-.3,1.3-.2-1-.2-.3-.3.9-.6,2.1.3,1.1.5h-.1ZM162.9,43.7l-2.8-.3,1.5.5-1.3.7,1.9.2.8.3v.7l1.9-.3,1.2,1.1h.8l-.8.8,1.5-.5,1.3.8-.5.6-1.6.2.2.9h-1.5l-.8.4.3.4-.6.5-.9-.6-.3.3-.9-1.1.3-.4-2.4-.9-.7.2.5.9h-1l-.5-.4.3,1,.9-.3.2,1,2.2.9-.5.5,1.3.8.2.5-.8.5-.8-.5.3,1.1h-.8l.9.7h-.9l-.2-.5-1.6-.5-.5.2-1-1.3v.5l-1.6-.6.7.8,1.8,1,.9.8-.4.3.8.6,1.1.2-.5.4-1.3-.9-1.8-.5-1.6-.2-1.3-.7-1.2-.2-1.5-.7.9-.6-.6-.3h-1v-.5l-.9-.2-.2-.9-.7.6.2-.6-1.1.6-1.4-.4v.4l-1.6.3-1.5-.3v-.9l1.3-.4v-.5l3.1.3,1.6-.4h.9l-.9-1,2.5-1,1-.6.3-1.1-.2-.8-1.4-.2-.5.5,1.1.2-.2.3h-1.3l.9-1.2-.9.2-.7-.3.4-.3h.9l-1-.5-1.8.6v-.8l-.4-.5h.9l-1-.6.3-.6-1.7-.2v.7h-1.3l-.8.5-1.1-.2-.6-.4-1.9.2-.9-.2-2.7-.2-3.5-.6-.5-1,1.5.2h1.5l-.9-.4-2.2-.2.2-1,.6-.6,2.4-1.6,2-.7,1.7-.2h1.9v.3l-1.8.5-1.3.8v.6l-.5.9.7.8.6.2-1.4.5h1.3l.7-.9h-.7l-.6-.5.9-.5,1.1.2-1-.9,2-1.3,2.9-.6h1.7v.8l.6.2v.7l-1.4.9v.3l1.7-.7,1.2.3.7-.5,1.5-.4,2.9.4-.5.6h1.3l-.2.6-1.8.5,2.2-.4-.2.3.8.3.5-.3.7-.2,1.2.2.9,1-.8.5,1.6-.4,1.9.5,1,1.4h-1.2l1.3.6-.2.3h.1ZM171.4,77.9h1.4l-.9.6-.6.8.4.3.6-.8.6-.2-.6,1.1.7-.5.2.4-.7,1.3-.9.2v-.5h-.9l.8-.9-.2-.6-.3.7-1.3.2-.6.6h-1.1l.6-1.1h-1.7l-1.8-.2-1.7.2-.3-.5,1.7-.9-.4-.2,2.7-3.4,1.3-1.2,1.4-.6h.6l-.6.8.2.5h-.5l-1.6,1.4-.4.8,1.3-.9.5.3-.5.7h1.3l-.2.4,1.9-.8v.5l.8.4-.9.6v.5h-.3ZM109,30.2l-1.3.2-.5.9-1.8.2-.8.5-.6-.2,1-.6-2,.5.2.2-1.1.4v-.4l-1.4.8h-1.1l-1.1-.3-.9.2v-.4l.9-.4h1.1l1-.5,4.1-1.1,3.5-.4.8.5h0ZM134.4,52.9l-1.3.7h-.9v-.9l-1.9.2.6-.6,1.1-.2v-.9l1.7-1.9h1.2l1.3.9,1.8.7.6.4v.6h.9l.7.6-1.3.5-1.4-.4-.2-.3-1.5-.3-.4.6-1,.2h0ZM120.1,43l1.2-.6.9.7h1.2l-.5.2v.9h.9l-2.3.7-2-.5-2.2-.3-.7.4v-.6h1.4l2-.5v-.4h0ZM115.6,42.4l-1.5.9,1.6.4-1.2.3v.6l-.5-.5-1.3.2-1.7-.5-1.9-.2.2-.5-1.6.8h-1.7l-.9.5-5.8.4-.5-.6.5-.6-3-.2-1.1-.8.9-.6,3.5-.3,2.5.2.9-.5-2.1-.4-3.6.3-1.3-.2-.6-.6,3.3-.6.9-.3-3.4.3.6-.5h-1.3l.3-.4,1.8-.5-.2-.4,2.2-.8,4.4-.7.5.4-.5.5-1.1.3,1.6-.2,1.1-.6,2,.6-1.4.5h1.2l1.6-.5-.2-.5h.8l1.3.7-.6,1.3.5.3,1-.5-.4-.4.4-1,1.3-1.3.3.5h1.2l.9.8-.5,1.1.2.9-.9.8.5.6,2.5,1.1.8-.2-1,1.2-.9-.7h-.6ZM125.4,39.2l-2.4.6-1.3.4-1.6-1.6-1.3-.2-.6-.5.7-.6h.6l.5.6,1.4-.2v-.5l-.8-.6,1.4-.6,1.6-.2.5.3,1.6-.2h-1.6l2.4-.4-.3.4.6.5-2.7,1h2l.2.9-1,.9h.1ZM102.8,36.5l-6.3,1.4-.7.5-1.3.2-1.7,1.3-3.9.6-.4-1-1.2-.4h-.9l2.2-1,.2-.5,3.2-1.5-.3-1,3-.2,1.5-.2,1.4.5h2.7l1.3.3,1.1,1h.1ZM124.6,33.2l1.8-.4-4.2.3.4-.4h-.9l1.8-.5.8.4-.3-.7,1.1-.6,1.1-.2,3.8.4-1.2,1.7-1,.2v1.2l-.4-.7h-2.9v-.7h0ZM115.4,31.1l1.1-.2-.4.8.3.2-.9.4.7.3,1.7-.3.9.2.4,1h1.2l-1,.6-1.1-.7-1.2.6-3.3.2v-.2l-4.8.9-2,.2-1.4-.4,3-.6h1.3l1.2-.4-6.6.5-2-.5,1.9-.9,2.8-.2h-2.4l.7-.5,1.8-.5h1.4v-.5h.5l-.3.9h1.4l1.3.6-.3.5h2.8l.3-.3-.9-.2,1.3-.4-1.1-.3,1.9-.7h-.2ZM137.3,34.7l-2.4-.4v-.7l1.1-.6.2-.5-.5-.8-3.1.2-.8-1.2,1.5-.2,2.4.2.4.5h2.2l1.9.7h-2.4l1.2.2,1.8.9,1.5-.2,1.2.2,2.1-.2,1.3-.3h3.3l1.5.6-.2.5-1.3.2,1.3.2-1.5.5-2.1.2-2.1-.2-1,.2h-4.5l-1.3-.2-1.5.2h-.2ZM115.8,29.9l-2.7.2-.9-.2-.2-.5-.9.2-.8-.4,1.3-.2.7.5,1.7-.3,3.3-.2-1.8.4.7.2-.6.5.2-.2ZM125,26.8h2.1l.9.5.8-.2,2,.9-.6.2.2.9h-2v-.5h-2.1l-.2.5,1.7.2h-2l-.2-.7.9-.3-2.3.2-.3-.4h1.8l.4-.6-2-.2.8-.5h0ZM146.4,25.4l1-.4h.9v.9l-.7.6h2l.3.5-2.2.3-4.5,1.5-.5-.7v.7h-2.6l-1-.2-1-1.1,1.4-.3h1.6l-.3-.3-1.8.2h-1.6l-.2-.5,2-.3-2,.2-.4-.7h2.3l-1.7-.3,1.5-.2-.3-.5,2-.2h-1l1.2-.5.4.2,1.7-.2-1.2-.3,1.6-.2,1.3.3.2,1h1.7l-.2.6h.1ZM152.4,30.1l2,.4-.7.3h1.9l-.2.4-1.3.2-1.1.5-1.8.2.2-.5h-5l-.9.2-2.5-.2h-1.4l.3-.5-.9.5-1.5-.2-.2-.4,3.5-.7,1.9-.2-.9-.2v-.8l1.4-.2,1.3.3-.2.5,1.3-.6v-.5h-2.4l.5-.5,1.6-.6,1.9-.2h3.8-2.7v-1.2l-1.6-.2.9-.9h3.1l1.4.8.2.4.8-.5-1.6-.6,6.6-.5h-2.3l2.4-.3-.5-.3-3.3.6-4.9.2-1.8-.2,1.7-.6,4.4-.4-4.7.3-2,.6-2.1-.4,1.3-.2h2l2.8-.5-2.4.2-4.1.2.5-.5-.9-.2,1.7-.3h-2.7l1.5-.3,3.9-.5,3.7.2-2.1-.2,1.9-.3-.2-.2,3,.2,2.9.6-2.4-.7,1.3-.5,1.5.2-.8-.4h2v-.2h3.3l1.5-.2h2.1l.2.3,1.8-.4h3.4l-.2.2,3.6.2-3,.4h1.4l3.5-.5,1.6.7h1.5v.5l-4.3.8h-1.1l-1.9.4-4.5.5,5.6-.5h1.5l-2.1.5-3.3.8-3.7,1-1.5.6-1,.2-1.3-.2v.4h-2.4v.2h-3.8.8l3.5.2-.2.3-1.7-.2-1,.2,2.3.5-.5.3h-2.1l1.5.3-.9.5-1.9.3h-1.2l-.2.5-2.1.5h-2.2Z"/>
  <path id="CV" class="st1" d="M214.7,133.1l.4.3v.3l-.4-.2v-.5h0Z"/>
  <path id="DM" class="st1" d="M152.7,132.6l.2.3-.2.3-.2-.5.2-.2h0Z"/>
  <path id="SC" class="st1" d="M330.7,174v.2h-.3.3v-.2Z"/>
  <path id="JM" class="st0" d="M126.7,127.8h.9l1,.9-1-.2-.6.5-.9-.2-.6-1h1.3-.1Z"/>
  <path id="OM" class="st1" d="M345.4,116.6h0v-.2h.2v.2h-.2ZM344.9,115.3l.4-.5v1.3h-.2l-.2-.7h0ZM339.2,127l4.8-1.7.9-3.3-.9-1.2.7-2.6v-1l.9-.2.4.8,1,.9,2.7.7,1.9,2.2-.6,1.3-1,1,.5.5-.5.2-.9-.3-.6,1.4.3,1.1-1,.2-.9.5-.4,1-1.5.2-.6,1.4h-1.6l-1.6.6-.7-1.1-1.3-2.8v.2Z"/>
  <path id="VC" class="st1" d="M152.7,136.9l-.2-.3.2-.2v.5Z"/>
  <path id="SB" class="st1" d="M521,174.5l-.7-.8-.4-1.3.6.5.8,1.7-.4.9,1.1.4.2.6-.7-.2-.8-.6.2-1.2h.1ZM517.3,173.6l.9.3.8-.5,1.1,1.2-.3.3-1.3-.2-.3-.7-.8-.4h-.1ZM513.7,172l-.5-.8,1.6.6.6.9-1.2.2.3-.5-.9-.2v-.2ZM516.1,170.9l.6.2,1.9,1.3v.4l-1.6-.9-.4-.5-2.4-.5-1-1,.9.2.2.5,1,.5h.7v-.2Z"/>
  <path id="LC" class="st1" d="M153.2,135.8l-.2-.3.3-.4v.7h-.1Z"/>
  <path id="NO" class="st0" d="M280.3,28.1h.8l.3.5-1.5.2-1.2-.5,1.6-.2h0ZM280.6,29.9h-.6l.7-.8-.9-.2,2.5-.2.3.4,1.6.3-1.3.9h-1v-.5l-1.4.2h0ZM295.6,42.6l.2.5-.9-.2-.2.5-1.3.5.4-.8-.4-.3-1.7-.6-1.9.2-.6.4-.2,1.3-.9.5-1.4-.5-.9.3-1.1-.2-1.2-.9-1.3.4-.7,1.1-2.5-.3-.2.9-.9-.2-1.5,1.2.4.6-1.3.9.2.4-1.3.2v1.3l-1,1.3.6.2v.8l-1.1-.2-.8.2-.9,1.1.4.5.2,1.2-.2.9,1,.6-.2.5h-.6l.6.9v.6l-1,.4v1l-.5.5h-.4l-.5-.2-.5-.6-2.9,1.9-1.3.4-1.6-.2-1.6-1,.2-.6h-.5v-1.4l-.7-1,.3-.9h-.5l1.1-.8-.9-.4,1.3-.9,1.3-.4.6-.7,1.4-.2,1-.6-.8-.3.7-.2.6.5.7-.2.6.6,1-.2v-.3l-1.3.2-.6-.4,2-1.5,1-.2h-1.4l1.4-.3.5-.8h.4l-.3-.9,1.7-.3-.7-.2,1-.7-.3-.2,1.5-.5-.5-.4,1.4-1.1,1.3.2-.3-.6.2-.2-3.8.6-1,.5.4-.5,2.3-.6-.6-.4,1.5-.3,1.5-.2v.8l1.1-.9-.7-.2,1.2-.6h1.6l.2-.2,1.4-.4.5-.5.9.6.9-.3-.9-.2,1.7-.2-.2-.7,1.5-.2.6.5.3-.7,1.6.2.5-.6.2.5-1,.6.2.6,1.8-1.4v.9l1-.8-.3-.3,1.8.2-.8.8h.6l.6-.6,1.6.2,1.7.7-1.2.4h-2.1l3.1.4-.6.2ZM271.2,29.8l3.5-.5-3.5.2-.5-.5h1.7l.9-.5-1.3-.6v.6l-1.1.3h-1.2l-1.2-.7.3.7-1.3-.4-.8-.8.8.3.2-.4-.9-1,1.3-.5.4.3,2-.4-.5.7,1.5-.5,1,.3.3.5,1.3.7-.7-.7-.5-.9.6-.3,1.6.3,1.6.6.4.7,1.4.2,1.9.3-3.1.6-.6.9v.7h-.6l-.9,1.5-3.1-1-.8-.6h0ZM283.2,27h-1.3l-.2-.4-3.8.2-.2-.5,2.7-.2v-.2l-3.8.2-.6-.3.7-.2-1.3-.2.6-.4,1.3.5.6-.8.5-.2.6.7h1.2l.7.4.3-.9.4.6,1.6-.2,3,.2.6.5-1.5.4.2.2-2.2.5h-.1Z"/>
  <path id="KN" class="st1" d="M150.9,130l-.5-.2v-.2l.3.2.2.2Z"/>
  <path id="BH" class="st1" d="M335.8,115h.2v.7l-.2-.3s0-.4,0-.4Z"/>
  <path id="ID" class="st1" d="M452.6,174l1.3,1-.6.5-1.3-.9-.9-.2.4-.5h1.3-.2ZM447.2,172.5l-.9.9-.2-.8.6-.4.6.3h-.1ZM445.3,172.9l-.6.2-1.3-1.2h1.3l.8.5-.2.5h0ZM483.8,172.1l.2.4h-2l.7-1.3,1.3-.5.4.4-.6.9h0ZM472.3,170.3l-.3.9-.8.9-.2-1.3.3.2.9-.6h.1ZM443.4,170.3l-1.3.2h-1.3l.2-.5h1.8l.6.3h0ZM457.1,167.5h-.9v-.5l.5.4.2-.9.9-.5,1.2,1.3h-.7l-.7.7-.4-.5h-.1ZM465,164.8h-.8l-.9-.3-.2-.7,1.3-.2.7.5v.7h-.1ZM432.2,163.3l.3-.5h.7l.2.9-1,.2-.2-.6h0ZM461.9,161.5h1.6l-.8.5-.4-.3-2,.2v-.5l1.6.2h0ZM419.2,161.9l1.4,1.7-.7-.3v-.5l-1.9-1.3-.5-.8.5-.5.6,1.4.6.4h0ZM470.5,159.4l-.3-.7.9-.2.7.6-1,.2.7.9-1.3,1.7-.9-.3,1-.3.7-.7-.6-.6v-.6h0ZM465.2,159.8l.4-.8.5.7-.2.8.8.8h-1.3l.5-.7v-.7h-.7ZM427,157.1l.9,1.7-.7.8-.2-.2.5-.9-.9-1.9,1.3.3-.9.2h0ZM413.9,154.6l-1.3-.7.2-.3,1.2,1,1.4.2v1.1l1,.9-.4.6-.7-1.1-.2-1.4-1.2-.4h0ZM431,163.4l-1.2-.2-.3-1.1-1.1-.3.8-.7h.7l.4,1.3.9.4-.2.6h0ZM476.8,169.2l-.6.5.2-1.3.6-.9.5.4-.2,1.1-.5.2ZM424,156.9l-.7-1.1.7.2v.7h.9v.5l-.9-.3h0ZM448.6,172.5v-.4h1l1.4.3v.5l-.9.4-2.4.4-.4-.2.2-.9,1.2-.2h-.1ZM465.9,163.9l.3-.6,2.7-.2,1.7.6.2.4,1.2,1.1-3.1-1.3-1.1-.2-.5.5-1.1.4-.2-.9v.2ZM460,173.8h.2l.6-.4v.4l.2.5-1.1,1.1-1.7.3v.5l-1,.4,2.2-2.6.3.2.4-.5h-.1ZM449.2,151.6h.3l-.5.2.3.8-1.2-.2,1.7,2.3-.4.6,1.9,1.5-.3.3-1.7.2-.4.7-.2,1.4-.6,1.1-.8.4-.3,1.3h.3l-.4,1.1-.4.2.2,1.5-.5-.5-2.3,1v-.9l-.6-.5-1,.2v-.5h-1l-.8.4-1.3.2v-1.3l-1.9.5-.6-.2-.5-3.1-.8.3.2-.7-.7-.6v-1l-.5-1.2.3-1.2.9-.9v.9l1.6,1.2,1-.3.6.2.9-.3.2-.5,1.3-.2,1.1.6.5-.4h.9l.6-.8v-.5l.6-.4-.2-.5.6-.4.2-1.9.3-.3h2.2l.7.4h.2l.3-.2ZM487.9,162.8l-.2,6.2-.3,4.6-1.4-1.4v-.3l-1.9.4.4-1.3-.7-.5.2-.9-1.4-2.3-3-1.3h-1.3l-1.4-1.1h-.6l-.5-.6-.7.9h-.6l-.2-1.3-1-1,.9.2.5-.5,1.7-.2v-.5l-2.2.3-1-.3-.4-.9-1.4-.2.5-1,2.4-.8,1.1.6h1l.5,1-.2,1.3.5,1.2.2-.6.7,1.4h.9l1.3-1.3.2-.5,1.3-.2-.5-.5-1,.2-.6-.5-.2-1.3.7.4v.9l1.5.2,1.2-.5,3.4,1.5h.5l1.3.3-.2.2ZM429.2,162.5l.7,1.4-.2,1-.3,3-.4.2-.5-.5-1,.8-1.3-1.3-2.6-1.9-.2-.6-1-.6-1.3-1.8v-.5l-.9-1.7-1.6-1.8-.9.2.4-.8-.9-2.1-1.5-.8v-.8l-1.6-1.5h-.4l-1.8-1.8-.4-.7.3-.6,1.6.7h1.8l.7.5.6,1.2,2.5,1.7.3.9,1.7,1.3-.3-.5,1,.5.4-.3.2.7.6.5.8,1.1,1.3.3.7.9-.6.3.6.2-.6.6.7.5h.9l.3,1.4.5.3-.2.5h1.9ZM454.3,172.4l.8.4.4-.4.9.5,1.1-.7,1.8.2,1.8-.2v.3l-1.8.3-.4-.4-.6.5-2.2.2-.6.2h-1.5l-2-.4.9-.5h1.4ZM439.1,172.2h-1.8l-2.1-.9-1.8.2-1.4-.5-1.5-.2v-.5l-1.6-.5.9-1.5,1.3.3.4-.3,1,.5h1.1l.4.9,3.1.3.5-.8,2.2.7h.6l.5,1.1.9.4,1.2-.3.7.4-.2.9.4.6-2.2-.9-1,.3-1.4-.3h-.2ZM456.7,164.1l.7,1.2.6-.2-.2.7-1.3.2v.5l-1-.3.3-.9-1.3-.9.4-1.3-.6-.2-.9.5.4.5v2.4l-.3,1.4-1.3.2-.3-.4.5-1.8-.5-1.5-.6.2-.2-1.6.6-.3.3-.8v-1.2l.7-1v-1.5l.5-.8h.9l.6-1,1.2.5,3.9.4,1-.6.9-.9.2.6-1.6,1.6-1.8.2-.3-.3h-4.4l-.6,1.2.2.7,1,1.3h.7l.9-1.6.7-.3.2.9,2-.2-.4.9.5.2-.8.9.2-.9-.5.5-.2-.8-.6.6-1.3.7.8,1.3.7.8-.4.4-.2-.2ZM466.4,159.7l-.9-1.3v-.9l.3-.3-.4-.6.2-.9.9-.9.7-.5v.9l-.9.6v.7l-.6.5.3.4.6-1,.9-.3v.9l-.7.3.9,1-1.5-.4v.9l.8,1.4-.7-.4h.1Z"/>
  <path id="MU" class="st1" d="M348.5,191.9v.6h-.6l.3-.8h.3v.2Z"/>
  <path id="SE" class="st0" d="M281.8,62.4v.9l-.9.7-.4-1,1.3-.5h0ZM281.9,43.9l2.1.9,1,.2,1.3.7-.2.8.9,1.2-.4.6.9,1-1.4.2-1.2-.2.2.6-.9.2-.7,1,.7.3-1,1-1.5.7-.4-.2-.5.6-1.6,1.2h-.8l.4.5-.4,1v.9l.8.9.4-.2,1.7,1.3-.2.9-.7-.2-.4.6-1.7.6.2.5-.6.7.4.7v1l.6-.6-.8,1.7-.3-.7-.6.9h-1.7l-.7.5v.7h-1.7l-.8-1.5.5-.6-.8-.5-1-1.3v-.7l-.8-.4v-1.1h0l.4.2.5-.5v-1l.9-.4v-.6l-.5-.9h.6l.2-.6-1-.6.2-.9-.2-1.2-.4-.5.9-1.1.8-.2,1,.2v-.8l-.6-.2,1.1-1.3v-1.3l1.3-.2-.2-.4,1.3-.9-.4-.6,1.5-1.2.9.2.2-.9,2.5.3.7-1.1h0Z"/>
  <path id="RU" class="st1" d="M489.7,74.2l1.2-.2-.4,1.2-.8.9.2.5-.6,1,.9-2.7-.4-.7h-.1ZM322.1,44l-2,.4-.6-.9,1.2-.4,1.3.4v.5h.1ZM483.3,42.7l-.3.3-1.9-.4.2-.3,2,.4h0ZM333.8,41.7l1.7.6.2.4h-1.3l-1.6-.6-.3-.4h1.3ZM495.2,40.6l-1.3.3-.8-.7.9-.5,1.2.9h0ZM15.5,39.7l1,.6-1.1.3-2.2.2-.7-.2,1.2-.9s1.8,0,1.8,0ZM347.1,36.7l.8.2-2.2.3-.2-.6,1.2-.2.4.2h0ZM400.9,35l-.3.5-2.1-.5.4-.3h1.8l.2.3ZM322.7,25.5h-1.5v-.3l1-.2h1.8l1.1.2-.9.2h-1.6.1ZM319.3,25.1l-.9.3-1.7-.2.8-.2h1.8ZM320.6,23.9h3.1l-1.7.7h-1.3l-2.4-.3,2.2-.4h0ZM330.7,23.7l1.3.5-.9.3h-1.7l-.9-.2,1.7-.2s.5-.4.5-.4ZM322.1,22.9l1.3-.2-1.1.8.2.4h-2.3l.9-.2.2-.5.9-.2h-.1ZM364.3,25.8l.5-.2,2.6.2-.9.5-2.1-.5h-.1ZM326.6,23l1-.2-.4,1.2,1,.7-1,.3-2.3-.2.8-.5.9-1.3ZM437.6,35.7h-.5l-1-.4h.8l1,.6h1.2l2.4.5.4.6-2.4-.2-1.6-.3-.2-.8h0ZM311.2,24.5l-2,.5-1.4-.4,3.7-.3-.3.2h0ZM444.9,33.6h.6l2.5.2.2.4-1.5.2h-1.4l-3.6-.9-.2-.6,1.4.4h1.4l.7.2h-.1ZM457.7,87.9l-.3-.4.9-.2v-1l-.4-1-1-1.3,1.3-.6,1,1.1.4-.9.5-.9.2-1.1-.4-1.6.6-.8-.5-.9-.6-.2-1.8.5-.6.6h-2.2l-.9-.6v-.4l-1.3-.9-1.8-.9-2.1-.2-.9-.4-.2-.7-1.7-1.4v-.4l-1.5-1.1v-.3l-1.9-1.3-1.4-.2-1.1-.5-1.7-.3-3.3.5-.9.8,1.3.4.4.7-.6.8-.4,2.1.2.5-.8.2-1,.7-1.9-.5-.8-.3-1.2.2-2-.6-1.3.8v.3l-2.5.4-.8.4-2.5-.3h-.9l-1.2-.5-.2-.5h-1.1l-1.1-.6-2.1-.2-2.3.6-2.4-.8-.6-1.2-2.8-.7h-.8l-2-.6-.9,1.1v.8l1,.8v.7l-1,.5-2.4-.5-.5.2-1.5-.2-.8-.9-2.5-.2-.5-.4-1.3.7-2.4.9.2.3-1.1.5h-1l-.4.4h-.5l-.2.2-1.4-.9-.5.2-1.5-.2-.6-.9-1.3-.3-.9-1-.6-.2-1.9.5h-1l-.7-.8-.7-.2-.9.9-1.1-1.2-3.4-2.9-2.4-1.2v-.8l-2.1,1-1.1.4-1.6-.2.2-.5-1.6-.3h-2l-.2-.9-.9-.9-.8.2-.9-.3-2,.2v.4l-3.1.6h-.8l-.2.5h-1.8l-1.3.4-3.1.4.5,1,1.3.2-1.9.7.7.5-1.2.8.7.5,1.5.3v1l-.9.2-1.2-.3-.2.5-1.3-.3-.6-.5-1.3-.2-.3.5-.5-.4h-1l-1.1.9-1.7-.9-.2.3-2-1.1h-1.3l-.3-.4-.8.4-1.8-.2-.2.6-1.3.3v.5l-1,.5.5.9-.6.4-1.5-1.1-.8,1.1.4,1-.6,1.3.9.2.2.8h1.4l1.8,1.7-.9.2,1.3.6-1.4,1h-.9l-.5,1.3-.6.6,1.6,1.5v1.2l2,2-1.1,1.1-.8-.2-.9-.9h-.6l-1.3-.6.2-.4-1.5-.5-1.3.3-1.9-1h-2l-1.5-.6-1,.3-1.7-1.3-1.2-.4-.8-.6-2-.7,1.4-.3.6-1.1.9-.2-1.3-.6.9-.5,1.3-.3v-.4l-1.7.2.2-.9.6-.4h1.4l.3-.6-.6-.9.4-.2v-.9l-1.5-.6-1.6-.3-.2.2-.9-.9-1.2.3-1.5-.2-1.1-1.5h-1.3l.2-.9-1.1-1h-2.1l-.9.4-1-1.5h1.3l.8-.7-1.5-.6-1-1.4-.7-1.6-4.2-.9v-.7l-.9-.5.2-.7-.8-.4.2-.5.2-.3v-2l.2-.2h.4l-.2-.2h0v-.5l1.5-.4,1.5.2-.6-.5-1.7-.2-.2-.8-1.2.3,1.8-1.2,2.6-2,.4-.7-.6-.5-1.9-.9.7-.5-.8-.6v-.5l-.9-.5v-1h.6l-.4-.9-1.3-1.2,1-1.4-1.1-.6-.9-.2-.4-.5.5-.8,1.3-.5.2-.5.9.2-.2-.5,1.3.2.2-.5,1.6.4-1.5.2,3.1.3.7.2,1.8.2,2.5.7,1.2.6,1.8.3,2,.8.6.8v.7l-.9.6-2.4.6-4.6-.6-.9-.3-1.9-.2-1.3-.6-.2.4,1.2.3.6.6,1.4.4.6.6-.5.5.9.9.7-.5h1l.3.4.7-.5,1.6.6,2.3.5,1.1-.4-1.2-.9v-.4l2-.8,1.5-1.1.2.5h.9l1.5,1-.2-.7.3-.7-.5-.6-.6-.2v-1.8l-1.3-.6,3.6.3,1.4,1-1.9.2-.3.7,1.4.7h1.1l1.5-.2-.2-.9,1.2-.3,2.5-1.2,1.8-.2,1.4-.6,1.2-.2-.6.6.6.5-1,.2,2.1.2.4-.6,1.1-.3,1.9.2,1.8-.7.9.4-.3.6h.9v-.6h.8l.3-.6-1.3-.8.9-.5,4.6.5,2.4.7,2,.4,2.1.9.9-1h-1.1l-.9-.9-1.7-.2-.2-2h-.9l-.2-.9.8-.2.9-.6v-1.5l.6-.3h2.6l1.9.3.4.7-.2,1.1-.5.2,1.4.6.8,1.2-.3.2,1.3,2.3,1.8.6-.5.5.4.8-.6.2-.2.8-.8.5.2.4-2.1.4,3.1.3.2-.6,1.3-.4.2-.8.9-.6-1.2-1.7,2.4-.6,1.7.8.3,1.3,1,.4h1.3l-1.7-.3v-.8h.5l-1.2-1.1-3.2-.6-2,.3-1.2-1.2v-.6l.5-.6-1.7-1.2-.9-.3.3-.6,1.6-.5v-.4l-1-.9.3-1h1.8l-.9,1.3.7.7v1l.3.6,3.5.3.9.4-.5-.5-3-.6-.7-.6,1.1-.2,1.1.3.4-.4-1.8-.5.7-.5,1.2.2.4-.9.7.2-.2.9h.5l3.8,1.1h2v.5l-.9.2.9,1.1v-.6h.6l.3,1,.9-.2-1.6-1.3.2-.6-1.5-.5-1-.6-2.3-.5-.2-.6-.9-.5v-.6h1.7v-.7l1.1-.2,1.8.3.2.5,3.4-.3-.8-.9-1.3-.4.3-.6h1.2l2.2-1,4.2-.5-1-.3h2.8v-.9h-1.3l.2-.7.9-.2-.5.7h1.3l-.2.7h.8l-.2.6,3.2-.5,1.5.3-1.8-.8h2.7l-.6-.9,1.6-.9h1.9l1,.2v-1.1l.6,1,1.3.3-.2.5h.9l.2-.5.9.7-.6.6h1.7l-.2-.3h3.1l2.6.2,1.5.6v-.3l2,1.4-1.9-.5.7.5h1.2l.4.5-3.3,1.6-1.4,1.2h-1.2l-.5.8h1.9l3.4-.9h-1.9l.2-.6,3.5.6.8-.3.9.6,2.3-.3,4.2.2.3.5,2.9.5h3.9v-.4l-.9-.6,1-.4,2.1.6.9-.2h2.4v.3l2.5.5.5.9.9.4-.5.2-2-.5,5.3,2.4,1.7.3.2-.2-.2-1.7,2.2.8h1.2l1.6-.3,2.9.2.8-.2.9.4h1l-2.3-1.3v-.6l1.8-.2-1-.5,1.3.2,5.5.3,2.3.3-.6.7.7.2.4-.9h1.7l2.1.3.8.4-.9.3,2.5.3.4.4h1l1.8.7h2l2.6-.4h2.3l2.7.5,1.3.4.9-.4-.3.6.5.9,1.3.4,2.3.2.6-.2,2-.2,1.4.3,3,.2.7-.5,1.8.9,1.5.2,1,.5,1.3-.5-1.6-.9-.9-.9,3.2.2,3.9.2,1.5.2,4.7.9,1.6.5,7.3,6.4-1.1.7-3.6-.3.9.5h.9l1.5.6.2-.2,1.3.7,1.2,1,1.2.3,1,.7-.4.6-2.7-.3-.8.2-2.1,1.1-1.3.2.2.3-1.1,1.1-1.4.7.4.8-1.7-.7-2.4-.3-1.5.5-.6.8-.5-1.1-1.3.7.3,1.4.6.6h-.6l-1,1.5,1.3.5-.3.6.6.9h.7l.9.9h-1.7v.9l1.4,1.3-.2.6h-1.6l-.6.6.4,1.5-1.1.6.5.9-.4,1.3-.9.9-.6-.5-1.1-1.6-1.3-1.2-3.4-3.9-.5-1-.4-1.4.6-1.1-.7-.6h.9l1.5-1.1.3-1.2,1.6-1.8-.2-.3,1.4-1,.3-.6-1.2-1.5v-.7l-1.6.2.6,1.2-2.4,2-.2-.7-.8.2-.5-.6.3-.5-.5-.7-.7.6-.6-.5-2.6.2-.8.4.5.6-1.4,1.4-.4.8.2.6h1.3l.7.6-1.5.2-1.3-.2-.2.6-1-.3-1.2.4-.7-.5-.8.2.2-.8-2.4-.5-.9.5.3.4-1.4-.3-.4.3-2-.3h-3.5l-1.6.3-.8,1-.7.4v.9l-1.8,1.4-.7,1.5-2.3,2,1.1.6h1.7l.6,1.3.6-1-.8-1.3,1,.3-.2,1.6.8.2-.3.7h.9l.5-1.3h1.6l3.5,1.9.4,1.3.6.2-.4.9.3,1.9.9,1.6.4,1.8-.9,1.2-.5,1.2v1.4l-2.2,3-.2,1.1-1.7,1.4-1.1.3-1.5-.3-.2-.7-.5.6-.3-.6-.5,1.2-.6.6-.2-.2-.3-.2,1,.4ZM283.3,68.1l.9-.4-1.1.4h0l.5-.9,1.3-.5h0l-.6.5h1.1v-.5l2.4.6v.9h0l-4.4-.2h0ZM481,84.8l2.7-1.8,1.2-.2.5-.8.8-.3-.9,1.1-1.8.6-1.4,1.3.3.9-.4.2v-1.2l-1.1.4-.5.9-.3-.2.6-1.1.4.2h-.1ZM324,37.5l-.4-.4,1.3-.2-1.1-.8,2.8-1.3-1-.2,1.3-1.3,1.7-.5.6-.4,2.4-.2-.2-.4,1.8.2,2-.2,1.6-.5,1.3-.6h1.9l1,.6-1.8.8-6,1.1-1.3.5-.4.7-1.2.2v.3l-1.4-.2,1,.6h-.6l-.4,1-1.2.6-.8,1.5,1.7,1.8,2.4.9-.4.3-2.6-.4-.2.3-2.7-.5.5-.5-.9-.3v.5l-2.4-.9-.3-.6,1.2-.2-.2-1.3h1ZM472.3,80.4l-.5-.9v-.6l-1.1-1.5-.4-1.3-.9-1.5-.2-1-1.3-.9-.6-1-.2-1.1-.6-.5h1l.2-.6-1.3-.9.6-.2,2,2.1,1,2.1,1.1,1,1.3,1.6,1.3,1.3.9.9-.9-.5-1.3-.2v2.3l.9.9,1.7,1.5-1.6-.2v1.2l-.9-1.1v-.8h-.2ZM3.1,49.5l-2,.9,7.3-6.4,1.1.4v.8l1.3.2v.8l1-.2.5.7-1.3,1.9.9-.3.9-.9-.5-.2,3.7.2v.4l1.2,1.2-1.3.2-.5.5-2.4.2-.7.8-.8.3-.4.7-1.9.2-1-.7-1.3-.5.6-.7-1.2-.3-.9.2h-1.5l.4-.9-1-.2-.2.8h0ZM437.7,32.6l2.5.6-.8.8-1.7-.2-.9-.3v-.6l-.9.2,1.7.8,1.6.2-1.5.2-1-.3-2,.3-.9-.2.2.4-1.8-.2-2.7-.9h.7l-1.1-.6-.8.5-.6.2-.6-.9,1.1.4,2.3-.9,1.8.5,1.6.2-.3-.8,2.2.5h1.9,0ZM381,27.1l1.4.5h.9l.7.5-.4.3-4.2.2-1,.4-1.1-.2.5-.5-.2-.5.7-1.2h1.7l.2.5.9-.2v.2ZM368.7,25.5l3-.2,1.5.5.7-.2,1.6.6.2.8,1,.5-.4.2h-2l-1.4-.3h-2.2l-1.7-.8h-1.7l1.4-1h0ZM310.8,24.9l2.5-.3-.9-.2,1.4-.4,1.9.5-2.2.3,1.5.9h-.6l-1-.6h-.8l-.3.5h-.9l-1.4-.4h1.8l-1-.2h0ZM367.6,25.8l-3.7-.7,1.3-.2-.3-.4-.2-.4,2.7-.5,3.7.9h-.9l.8.8-3.1.2-.4.3h.1Z"/>
  <path id="TT" class="st1" d="M153.2,140l-.4.8v.9h-1.3l.6-.3v-.8l1.1-.6h0Z"/>
  <path id="BR" class="st0" d="M170.3,157.7v.5l1.1-.3-.3.6h-1.8l1-.8ZM169.2,159.7l.9-1,3.3.3-.8,1.9-1.6.6-.7-.3-.6.2-.6-1.7h.1ZM168.1,214.3l.5-1.3.9-.4-.2-.6-.7.8-.8-.5-1.7-1.5-1.1-.3-.6-.7-.6.4-.4-.8-1.1-.8h-1.3l1.7-1.7.9-1.4,1.3-1,1.6-.7.2-1.6-.5-1h-1.2v-.3l.5-1.3v-1l-.8-.4-1.3.2-.5-2.2-1.3-.9-.4.2-2.2-.2v-1.9l-.5-1.3.8-3.3-.5-1.1-1-.5-.2-1.5-2.7-.2-.8-4.1-.9-.5-1.3.2-.6-.7-1-.2-.6-.5-2.2-.3-1-.8-.7-1.4-.2-1.1.2-.5-.3-.9-2,.4-1.7,1.3-.9.5h-3.9v-2.6l-1.1.9h-1.7l-.2-.7-1.6-.2.5-.5-1-1.3-.3-.9-.6-.4.5-.4v-.7l.9-.8-.2-.5.5-1.6,1.6-1,1.6-.2.2-.4,1.4.2.8-4.6-.3-1.5-.7-.6v-1.3h1.5l-.3-.8h-.9v-1.1h2.8l1.4-.6.4,1.6h.3l1.3.7.6-.4.3.5.7-.8,1.7-.8.2-.5,1.1-.4v-.5h-1.1l-.2-1.8-.7-.6h2l1,.6v-.7l2-.3,1-.5.6-.7-.2-.4,1.3.2-.2.9.7.2.2.7-.5.6-.2,1.6.4,1.3,1.6,1.1.8-.6,1.3-.2.8-.5h1l.8.3v-1.2l.5.2,1.3-.2.6.3.9.4,1.3-.4.6.3.6-.5.4-1.1,1.2-1.5.2-.6.7.9.2,1.4.5,1.5h.3l.9.8-.3,1.6h-.6l-1.6,2.1.2.8-.9.7-.7-.2v.5l2.1-.9.5,1.2,1.6.2.6-.3-.5,1.6.7-1.2,2.1-2.2h.8l.7.3,1.5.2,1.4,1.3.5-.6.8.9v1.8l.2-.8.4.5.7-.9,2.1.9,1.3.2h2.7l2.5,1.3.6.7,1.5,1.3.9.3h1.7l.6.6.8,2.8v1.3l-.8,2.1-1.7,2.1-.9.5-1.2,2.1-1,1.5-.7-.6-.3,1-.2,2.4.5,2-.6,2.1.2.9-.7.9v2l-.5.6-.5,1.4-.5.4-.5,1.1.2.7-1.6,1-.2.7h-3.7l-1.6,1.1-2.4,1-1.3,1.2-1.2,1.8v1.1l.5,1.4-.4,1.6-1.6,1.6-.6,1.7-1.2,1.7v-.7l.6-.5v-.7l-.9-.2-.2,1.4-.8.4-.4.7v.9l-.4,1.3-1,1.1-.3-.2v-.5Z"/>
  <path id="BS" class="st1" d="M127.6,117l-.6,1,.5.5-.4.5-.7-1.5.5-.8.7.2h0ZM129.3,116.4h-.4l-.9-1,.3-.7-.4-.7-2,.5.5-.3,1.6-.3.7.6-.3,1,.9.9ZM131.4,120.1l1.7.6,1.2.6-2-.8h-.8l-.2-.5h.1ZM131.2,119.7l.2.5h-.2v-.5ZM131.2,119.7l-.5-1.2h.4v1.2h.1ZM131.1,118.5h1.3-1.3Z"/>
  <path id="PW" class="st1" d="M471.6,153.5h0Z"/>
  <path id="CL" class="st1" d="M138.1,189l.7-.2.2-.9.6-.4.6,1.1.4,1.3.9.8-.4.5v1.1l1,1.4.8,2.6h1.2l.3.3-.4,1.7-1.4.6-.5.6.4.5-.3.5.5,1.2-.2.7.5.6-.8.4-.5,1.3-.6.8v1.1l-.4.5.4,1.6h-.4l-.4,2.1,1.3,2.1.6,2.3h-.3l-.3,1.6.2,1.5-.9.7-.2.8.2,1.2.8,1.7-.7.4v1.2l-.3,1.8.4,1.5.4.8-.5.3.2,1.2.7.3-.2.5.5.8v.8h.9v.6h-1.2l1.3.9-.6.7.4.4v2.1l-.5.3-.2.8.5.7-.2.8-1.1.9.2,1.3.9,1,1.3-.2.2,1.5,1,.7h3l2.4.6-1.1-.2-2.1.9v1.8l-1.7-.2-.5-.3,1.4-.6-.3-.5-1.4.7.2.5-1.3-.6v-.2l-2.2-1.7,1.2.3-.8-.8-1.3.5v-.8l.5.4.7-.4v-1.1l-1-.8.2,1.5-1,.5v-.5l.9-.2-.9-.6.3-.5h.5l-.5-.5.5-.2.2-.9-.5-.2-.3-1.3-.6-1h1.3l.2-.3-1.9-.2.6-1.2-2.6-.6,1-.9-.3-.4.8-.7,1,.3.8-.6-.6-1.1.7-.6-.6-.2.4-.9-.4-.2.4-.8-.3-1.3.4-.3-.9-.9-.3.6h-.9l-.6-1.4v-1.6l.6-.8-1.3-2.9v-.9h.5l.5-2.7.5-.7v-1.7l.6-1.1v-1.8l-.9-3,.5-1.1-.6-1.7.7-2.2v-2.7l.3-.9-.3-1.1v-1.6l-.3-1.1.3-.2.2-2.7-.3-1v-1.3l-.7-2.7v-.2ZM143.9,246.6h0l.5-.5h0l1.6-.4h-1.1l-.5.4h-.4l-.2.5h0ZM154.9,250.2l-.6.2-1.6-.2-.3-.6h1.3l1.2.5h0ZM139.2,231.6l-.2.7.5.3v1.2l-.8-.3v-.5l-.9-.3.9-.6.4-.6h.1ZM143.5,247l-1.3-.3-.7-.6,1.3.5,3,1.3-.9.6-.9-.8-.5.2-.2-.8h.2ZM138.8,228.9l.3.7v1h-.7l-.9.5.6-1v-1.8l.5-.2.5.9h-.3ZM149.8,249.9l.2-.3,1.4.2,1.4.9,1.5.4-.9.2-.9-.6-1.1-.2v-.4l-1.3.3-.4-.5h.1ZM138.4,238h.6l1,1.8.5,1.6-.5.2v.6l-.5.6-.2-.9.5-.5-1-.5.2-.6h.7l-.8-1.1h-.5l-.2-.9.4-.4h-.2ZM150.6,245.9l1,3.5h-.2.2v.2l-1.6-.2-1.1.4-1.5-.8v-.5l-.9.2-.6-.4.2-.4,1.6.4.5-.9.5,1.3,2,.2-1.7-.5-.3-.6.9-.6-1.2.2-.5-.7.9-.4.3-.5.5.4h.7l.3-.3Z"/>
  <path id="GD" class="st1" d="M152,138.5h-.2v-.2h.3v.3h-.1Z"/>
  <path id="EE" class="st0" d="M286.8,61.1l-.9-.4.8-.2.7.4-.5.4,1.1.2-1.7.6-.6-.6,1.1-.3h0ZM294.6,59.7h0l.2.2h-.4l-.2.2v.3l-1.2.3,1.2,1.3-.2.3-.2.5h-1.3l-1.9-.9-1.4.4.2-.8h-.8l-.7-.4-.2-1.1,1.6-.4h1.2l.4-.3,1.7.3h2Z"/>
  <path id="AG" class="st1" d="M152.2,130.1l.2.2h-.3v-.2h.2,0Z"/>
  <path id="TW" class="st1" d="M449,119.4l.8-.4,1-2.1.9-.4.5.3-.2,3.2-.6,1.3v.8l-1.6-2v-.7h-.8,0Z"/>
  <path id="FJ" class="st1" d="M549.2,185.7h.8l-.7.5-1.3.5-.2-.4,1.4-.7h0ZM547.9,187.9l-1.4,1.2.6.7-.6.2-.2-1.2-.9-.3v-.4l.7-.7,1.1-.2.6.6h.2,0ZM547.9,187.9h0l.9.2-.9-.2Z"/>
  <path id="BB" class="st1" d="M155.6,136.9l-.2-.2v-.4l.3.4v.2h-.1Z"/>
  <path id="IT" class="st0" d="M275.6,96.8l-2-1,.5-.6,1.6.3,3-.5-.7.8-.2.8.4.5-.3.6s-2.3-.9-2.3-.9ZM266.9,90.7l1-.5h.9l.5,1-.3,2.3h-.8l-.4.5-.7-.2.2-1.9-.3-1.3h-.1ZM265.5,85.8l.2-.6-1.1-.2v-.9l-.5-.5.8-.5-.5-.5.2-.4h1.3l.3-.5,1.2.3v.4l.6-1.1,1.1.2.7-.3v-.6l2.7-.4.4.7,2,.2-.5.4.6,1.2-.8-.3-1.6.8.6.5-.5.5.2.8,2,1.2.8,1.5,1.8,1.1h1.3v.9l3.2,1.3.8.9-.2.5-.8-.8-1.3-.4-.7.7v.7l.9.5v.8l-.9.2v.5l-.8.9-.7-.2.3-1,.6-.2-1-2.1-1.1-.3-.2-.7-1.2-.3-.6-.6h-1l-.6-.3-1.6-1.4-.7-.4-1-1-.8-1.5-2-.7-.9.9-1,.2h0ZM273.3,88.9h0ZM273.2,85.6v-.2h0v.2Z"/>
  <path id="MT" class="st1" d="M276.6,98.7l.3.2v.2h-.2l-.2-.3h.1Z"/>
  <path id="PG" class="st1" d="M510.3,167.6l.7.2.2.5,1.1,1v.5h-.9l-.2-.7-.8-.7-.2-.8h.1ZM503.6,163l-.4-.5,2.4,1.1.5-.6.4,1.3,1.5,1.4-.5.9-.2-1.1-.6-1-2-1.3-.9-.2h-.2ZM487.3,173.6l.3-4.6.2-6.2,1.8.8,2.4.6.8.6h.8l2.1,1.7-.2,1,1.9.6.4-1.1.3,1.3.8.6v.6h-1.5l.3,1.3.8.8.7.2v.8l.6.9h1.2l-.2.7,1.3.2.6-.5h.6v.7l.5.7-1.5.3.9.2-1.2.3-.2-.4-3.5-.5-1.4-1.1-1.5-2.4-3.8-.8.3.6-1.1.6v1l-1.3.6-.7-.3h-2l.5.2ZM506.2,167.4l-1.9,1.1-1,.4h-1.3l-.9-.2-.5-.5-1.1-.3.2-.4,1.7.3,1.1-.2.3-.8.2.9,1.4-.2.6-.9h.6l-.2-1.2,1.5.2-.2,1h-.6l.2.7h-.1Z"/>
  <path id="VU" class="st1" d="M529.4,184.5l.2.8.6.5-.6.2-.2-1.4-.8-.2-.2-1.3.3.5.5-.4.2,1.2h0ZM530.7,186.2h0ZM530.8,186.2l.4.4-.5.9.2-1.3h-.1ZM530.8,186.1v-1.1l-.3-.8.5-.5v1.9l-.2.5h0Z"/>
  <path id="SG" class="st1" d="M426.2,156.1h.2l-.2.3h-.3l.3-.3Z"/>
  <path id="CY" class="st1" d="M307.7,100.4h0ZM308.1,100.3l.2.2h-.3l-.2-.2h.3ZM307.7,100.4h0ZM307.6,100.4l-.2.3-.9.3-.2-.2h-.2l-.8-.6.5-.2h1.3l.5.3h0Z"/>
  <path id="KM" class="st1" d="M325.7,178.4l-.4-.3v-.6h.3v.9h.1Z"/>
  <path id="VA" class="st1" d="M273.3,88.9h0Z"/>
  <path id="SM" class="st1" d="M273.2,85.6h0v-.2h0v.2Z"/>
  <path id="AZ" class="st1" d="M324.5,90.4h-.2.2ZM324.8,90.4h0ZM324.4,92.7v-.2l1.6.3.7,1.1-1.2-.2s-1.1-1-1.1-1ZM326.5,88.9h.6l.9,1,.8.2,1.1-1.1.9.7,1,1.3h.7l-.8.9-.2,1.8-.4-.3v1.3h-.4l-1-.6.4-.9-.7-.5-2.1,1.4-.3-.9-1.3-1,.5-.4-1-.7.3-.3-1-.7.3-.2,2,.6.2-.4-.9-.6.3-.4v-.2ZM325.3,91.1h0Z"/>
  <path id="AM" class="st1" d="M325.3,91.1h0ZM327.2,94h-.5l-.7-1.1-1.7-.3-.8-.6h-1v-1l-.6-.7,1.1-.2h1.3l1,.6-.3.3,1,.7-.5.4,1.3,1,.3.9h.1ZM324.5,90.4h0ZM324.8,90.4h0Z"/>
  <path id="SD" class="st1" d="M293.1,126.1v-.8h1.7l-.2-3.3h19.5v.5l.8,1.3v1.4l.6,2.1,1.8,1.2-.6.8-2,.8v1.3l-.8,2,.2,1.4-.6,2.6h-.7l-.8,1.3-.6,2-.5-.3-.7,2.4h-.3v-1.3l-1.3-1.1-.2-1.3.2-1-.8.4h-1.1l.5.5.2,1.1-.8.6-1.1,1.5h-.8l-1.3-.9-2,1.6h-1.3l-.3-.4h-2.2l-1.2-1.4-1.3.2-.5.8-.4,1.6-.6.3-1.1-.2.2-1.8-1.3-1.7v-.9l-.6-.4v-.7l-.6-1.1h-.6l.7-.9-.3-.8.8-.6-.3-.7.6-.2.6-1.6h1.4l-.2-6.4h.2Z"/>
  <path id="LY" class="st1" d="M294.6,122l.2,3.3h-1.7v.8l-13.3-6.5-1.6.8-1.3.6-1.2-.9-2.5-.6-.7-1.3-1.4-.4h-.5l-.6-.6v-.9l-1-1.2.7-.7-.2-1.3.3-.9-.2-.7v-1.4l-.9-1.6.4-.2.5-.2.6-.9-.3-.9,1.3-1.2.9-.4v-1.3l1.4.6,1.6-.2,3,.9.5,1.2.9.7,2.1.3,1.4.5,1.3.9,1.1-.4.6-1.2-.4-.9.2-.7.7-.6,1.7-.6h.8l1.6.6v.5l1.6.5h1.4l.3.6-.5.5.3,1-.5,1,.5,1.6.5,11.9h.4Z"/>
  <path id="TJ" class="st1" d="M364.7,90.5h-.2.2ZM365,92.3h.2l-.2.2-.2-.2h.2ZM369.9,93l.6,1.4h1.5l.6,2.3-1.1-.3-.7.3-.8-.4-.9.7-1.6.5-.4-.6v-1.3l-.5-.7h-1.2l-.6.6v.6h-.9l-.2.8-.9-.2-.9.5-.5-.4.6-1.8-.6-.5v-.7l-1.3-.4.5-.7,1.1.2.6-.6.5-1.5.4.3,1.1-.7.6.5-.6.4,1,.4-.6.3-.9-.2-1,.7.2.4h1.8l.6.2,1-.4,1.3.7.5-.3h1.7Z"/>
  <path id="MX" class="st1" d="M107.2,128.9h-3l-.2.9h-.7l1.6,1.5-.2.5h-2.1l-.9,1.3-.2,1.2-2.5-2.6-1.3-.2-.2-.3-1,.8-2,.5-1.9-.5-1.6-.9-1.3-.2-2.3-.9-1.2-1.1h-.6l-2-.7-1.2-1.2-1-.5-.9-1.8.8-.4-.4-.2.7-1.2-.6-.9-.2-1.1-.9-.9-.6-1.1-1.8-1.7-.2-.6-1.6-.9.6-.9-.2-.6-1.6-1.1.2-.8h-.5l-1.2-1-.5-.9-.9-3,.2-.5-1.3-.7-.9-.3-.5.4-.2,2.2.3.7,1,.9h.8l-.7.4.5.9.6-.2-.2,1.3.6.5.5,1.4h.5v1.6l.6.2v.9l.5.5-.4.6.4.7.2-.6.9.5.3,1.5-.9.6-.5-1.1-1-.9-1-.3-.3-.9h-.5l.5-.7v-1.3l-1.4-1.1-1.8-.9-1.1-1.5.6.5h.9l.2.4.4-1.4-1.2-1.5-1-.6-.2-1.7-.7-1.3-.3-1.6,3.9-.3-.2.4,5.6,1.9h4.6l.2-.7h2.7l2.2,2,.2,1.4.6.5,1.4.6.9-1.3.6-.2,1.6.4v.2h.4l.5.6.4,1.4,1,1.1v.9l.2.4v.4l1.5.8,1.7.2-1.2,2.4-.9,3.3.2,1.5.6,1.7.9,1.3.2.9.7.9h1l1.1,1,3-.8h1.3l1.7-.9.9-1.3.5-1.8.9-.4,2.7-.5,1.4.2.5-.2.4.5-1,1.2-1.4,3.8-.4-.2-.3-.2-1,.9-.5.2v-.3Z"/>
  <path id="GT" class="st1" d="M101.7,134.4l.2-1.2.9-1.3h2.1l.2-.5-1.6-1.5h.7l.2-.9h3l-.5,3.2h.6l.5.2h.6l-1.7,1.1-.4,1.1-1.3.9v.2l-2-.3-1.4-1h0Z"/>
  <path id="LS" class="st1" d="M297.9,207.6l.8-1.1,1.5-.5,1.3,1.3-.6.9-1.3.4-.5.8-1.1-.5-.5-1.2h.4Z"/>
  <path id="NP" class="st1" d="M384.4,108.4l.6-.2h1.2l.2.5,1.7.7.7.8.9-.2,1.2,1.1h.8v.5h.9l.6.7.9-.3,1,.4h1.6v1.3l.4.6-1.3.6-2.5-.4-2-.8-.2-.5-.8-.3-.4.3-1.8-.3-1.5-.5-2.4-1.4-.9-.2.3-1.5.9-.8h-.1Z"/>
  <path id="UZ" class="st1" d="M366.8,92.2h-.2l.2-.2v.2ZM365.8,92v.2h-.2l-.2-.4h.4v.2ZM344.7,83l1.2.6-.2.6,1.3.9v-1l1.7.8,1.8,1.5,1.8-.3,1.9.2.7-.2,1.1.6.6.7.5-.2.2,1.6h.8l.6,1.3h2l.2.6,1,.3-.2-.5.6-.8,2.7-1.4h.5l-1.4,1.1,1,.5,1,.2.5-.6,1.6,1,.8.2-2,1-1.2-.2-1-.4.6-.4-.6-.5-1.1.7-.4-.3-.5,1.5-.6.6-1.1-.2-.5.7,1.3.4v.7l.6.5-.6,1.8h-.9l-1.2-.3-.2-1.1-1.6-.4-2.2-1.2h-.3l-2.9-1.7-1.1-1.6-3.1-.6-.6-1.6h-.6l-1.5-.8-.5.2.5.7-.8-.4-.5.6-.5-.3-.4.6v1.2l-1.6-.2-1-6.1,3.9-.9-.4,1,.2.9.7-.6-.3-1.3-.3.3ZM364.7,90.5h-.2.2Z"/>
  <path id="BD" class="st1" d="M399.5,122.1h0v-.3l-.2-.5-.9-2,.2-1.1-1.3-.6.6-.9h.8l-1.6-1.2.5-.9,2.4.9v.9l1,.4h2.7l.8.4-.5.9-1.2.5-.2.8.9,1.2.8-1.3.4.8.6,2.1.3,1.1-.5-.2v.6l-.8-.7v-.6l-.8-1.3-.6.4-.6-.5-.5-1,.7,2-.9.6-1.1-.3-.5.5-.3-.5-.2-.2Z"/>
  <path id="MN" class="st1" d="M431.4,75.8l-.6,2.7.8.7,1.4-.2,1,.2.5-.2-.3-.2h1.3l2.2,1.3.6.5-.2.6-2.3-.2-1.2.6h-1.1l-.3,1-.6.5h-1.7l-1,1.2-2.7-.5-.5,1,1.2,1.3-1.3.6-.5.9-1.3.5h-2.1l-2,.3-2.2.9-1,.2-.2-.3-1.2.2-1.1-.4-1.7-.3-.8-.5-2.6-.2-.8.2-3.7-.4-1.3.2-1-.9-1.3-1.7h-.6l-1.9-.7-.8-.4-2-.2-2.2-.2-.5-.6.2-.9-.2-.9-1.7-1.8-1.4-.5h-.8l-1.9-.9-.5-1,.4-.5h1l1.1-.4-.2-.3,2.4-.9,1.3-.7.5.4,2.5.2.8.9,1.5.2.5-.2,2.4.5,1-.5v-.7l-1-.8v-.8l.9-1.1,2,.6h.8l2.8.7.6,1.2,2.4.8,2.3-.6,2.1.2,1.1.5h1.1l.2.6,1.2.5h.9l2.5.3.8-.4,2.4-.4v-.3l1.4-.8,2,.6,1.2-.2.8.3.2-.4Z"/>
  <path id="PT" class="st1" d="M242.1,96.7l-.9.4-1-.2-.6.2.3-.6v-1.7l-1-.5,1.3-3.5-.2-1.7.2-.2.9-.3v.6l2.6-.2.6.6-1.2.9.2,1.1-.4,1.1h-.9l.9,1.1-.6.9.5.7-.8.8.2.5h-.1Z"/>
  <path id="MA" class="st1" d="M249.1,99.9h0l.2.2h.9l.8.6v2.5l.5.9.6.3-.3.7h-2l-.5.5-1.3.2-.3.5.3,1-1.2.4-2.3,1.5-2.2.2-.9.2-1.6,1.2v1.7l-.2.9h-1l-.6.5-1.9-.2-.8.2v.5l-.6.9h-.5l-.7,2.1-1,.7-.5.7-.7.3-.5.6-.3,1.8-1.1,1.4h-3.5l.5-1.3.6-.5.2-.8,1-1.6,1.3-1.2.2-1.2.6-1.2,1.4-.9,1.2-2,2.4-.6,1.5-1.1,1.3-1.4.3-.9-.4-.5v-1.2l1-1.3v-.6l1.3-1.2,2.4-.9,1.3-1.7.6-1.5.9-.2h0v.2l.2.4,1.4.8,2.3-.3h0l-.3-.3Z"/>
  <path id="TZ" class="st1" d="M311.6,177.7v-.2h0v-.2h-.2v-.2h0l-.3-2.2-.3-.4-.2-.2h0l-.2-.2h-.2v.3l-.9-.2-.8-.3-1.5-.6-1.3-.8-.9-1.8v-.9l-1.4-1.6.4-.2-.4-.9v-1.6l.5-.3.7-1.2.7-.5-.7-.6.2-.8h.5v-1.3l-.6-.9h2.2l-.3,2.2.3-.3,1.2.6h1.1l1.1-.6-1.7-.2h1v-.6l.9-1,5.9,3.3.2,1,2.4,1.7,1,.5v.5l-.9.7.5,1.2h-.9l.7.7-.2,1.6h.9l-.7.4-.2,1.2.7,1.8,1,1.1-.7.6-2.5,1-.6-.3-1.1.8-.7-.2-1.4.2-.6-.5-.5.3h-1.2Z"/>
  <path id="AR" class="st0" d="M151.6,249.5h.2-.2ZM165,201h1.2l.5,1.1-.2,1.6-1.6.7-1.3,1-.9,1.4-1.7,1.8-.6,2.9.2.9.2,1h-.4v2l.7.8,1.1.4.7.7-.3.7,1.3,1.7-1,1.6v.5l-2.3.9-2.7.5h-2l.2,1.4-.4.8.7.3-.3.6-1,.5h-1.3l-1.8-.7-.3.4.4,1.7.9.8,1.2-.5.5,1.1-.8.2-.6-.6-.8.5.9.3-1.2,1.1.5,1.2-.5.5v.7l-.8-.2-.9.4-.5.6-.2.9.4.7,1.2.7h1.3l.6.9-.2.9-2,1.6v1.7l-1.5.6-.2,1.1.6,1.1,1.1,1.2-2.4-.5h-3l-1-.8-.2-1.5-1.3.2-.9-1-.2-1.3,1.1-.9.2-.8-.5-.7.2-.8.5-.3v-2.1l-.5-.4.6-.7-1.3-.9h1.2v-.5h-1v-.8l-.5-.8.2-.5-.7-.3-.2-1.2.5-.3-.4-.8-.4-1.5.3-1.8v-1.2l.7-.4-.8-1.7-.2-1.2.2-.8.9-.7-.2-1.5.3-1.5h.3l-.6-2.4-1.3-2.1.4-2h.4l-.4-1.6.3-.5v-1.1l.7-.8.5-1.3.8-.4-.5-.6.2-.7-.5-1.2.3-.5-.4-.5.5-.6,1.4-.6.4-1.7-.3-.3,1.3-1.7.9.5,1.9.2.5,1.1.5-1.5h1.8l.3.4,1.3,1.3,1.6,1.3,1.7.3,2.1,1.3,1.7.7.4.4-.8,1.2-.6,2h.9l1.4.2,1.6-.3.6.2.5-.7.9-.5.2-1.8-.2-.4ZM151.6,249.5l-1-3.5,2.2,2.1,2.9,1.2h1l.9.5h-1.6l-1.2.2-.8-.2-2.4-.2h0Z"/>
  <path id="SA" class="st1" d="M332.2,111.1l.9,1.6,2.2,1.6v1.6l.6.5.7,1.2.2.2h.8l-.2.5h.5v.4l1.7,1.9,4.2.5h.2l.9,1.1-.9,3.3-4.8,1.7-4.6.6-1.6.8-1.1,1.7-.8.2-.5-.5h-2l-.5-.2-3.3.2.2.9-.7.7-.7-1.1-.2-.7-.9-.7-1-1.4-.5-1.3-1.5-1.3-.8-.3-.9-1.4-.2-2-1.1-2-1.6-.8-.7-1,.2-.5-1.3-.8.2-.5-2.8-3.5h-.8l.3-.6.2-1.4,1.8.3,1-1.1,1.2-.2.7-.9-1.7-1.7,3.1-.9.3-.2,2,.3,2.7,1.4,4.5,3.1,3,.2,1.5.2.5.7h1.3v-.4Z"/>
  <path id="NL" class="st0" d="M150.2,128.5h-.2.2ZM258.9,73.2h1.3l-.6.2-.7-.2h0ZM264.6,70.1l-.2,1.7-.9.6h-.7l.5.6-.3,1.3-.2-.7-1.3-.5-1.2.2-.6-.4,1.5-2.2.7-.3.4-.6h1.8l.5.4h0Z"/>
  <path id="YE" class="st1" d="M339.2,127l1.3,2.8.7,1.1-.9.3-.6.8.2.5-1.4.7-2.9.8-.8.4-.6.8h-1.1l-1,.6-1.1.4h-1.5l-1.1.8-1.9.6-1.2-1-1.1-3.9v-1.3l.8-.7-.2-.9,3.3-.2.5.2h2l.5.5.8-.2,1.1-1.7,1.6-.8,4.6-.6h0Z"/>
  <path id="AE" class="st1" d="M345.3,116l.2.2.2.9-.9.2v1l-.7,2.6h-.2l-4.2-.4-1.7-1.9v-.3l.4.4,1.2-.2,1.7.2.9-.2.8-1,.7-.4,1.4-1.7.2.6h.2-.2ZM345.4,116.6h0l-.2-.2v.2h.2Z"/>
  <path id="KE" class="st1" d="M318.8,166.3l-2.4-1.7-.2-1-5.9-3.3.2-1.2h1.1l-.2-.5-.9.3-.4-.9,1.7-2.3-.2-1.4-.8-1.1v-.9l-.8-.9.7-.6,1.6-.7.4.7h.5l.2.3h1.3l2,1.3,2.4.4.5-.8,1.5-.7.7.5h1.2l-1.5,1.9v6.1l.9,1.3-1.5,1.4-.8.4v.9l-1.3,2.2h-.4l.4.3Z"/>
  <path id="TR" class="st1" d="M294.7,90.9l.9-1.1-.6-.6,1.1-.6,1.5.2.2.6,1.6.6-.4.5-1-.2-1,.2-.5.6-.6.4h3.8l.3-.6-.6-.4.3-.4,3.1.2,1.5-1,1.7-.5,2.1.2.4-.2.6.6h1l.9.8.2-.2,1.5.5,1.3.2,1.7-.3,1.1.3,2.1-1,1.5.2.5-.2,1.1.8.6.7v.9h1l.8.6v.2l-1.1.4.5.9.2,1.4.6.4.3,1-.8.2v-.4l-2.4-.2-.5.4-.3-.3-1.1.4h-.9l-1.7.5h-1.7l-.7-.3-1.2.5-1.3-.3-.6,1.6-.4-.2-.2-.6.6-.5-.3-.6-1,.6-1.3-.4-1.5,1.1-1.2.2-1.3-.9-2.1-.5-.4,1-1.2.2-.9-.4v-.5l-.9-.3-1.3.2.9-.5h-.9l-.9-.5v-1l-1.6-.5,1.1-.3-.4-.5.5-.2-.7-.7.4-.5-1.3.2v-.9l.8-.5-.8.5-.6-.2,1.7-.7-1.3-.2h-.5Z"/>
  <path id="FI" class="st0" d="M287.6,49.2l-.9-1,.4-.6-.9-1.2.2-.8-1.3-.7-1-.2-2.1-.9,1.3-.4,1.2.9,1.1.2.9-.3,1.4.5.9-.5.2-1.3.6-.4,1.9-.2,1.7.6.4.3-.4.8-.5.8.4.5.9.2,1.1.6-1,1.4,1.3,1.2.4.8h-.6v1.1l.9.5v.5l.7.6-.7.5,1.9.9.6.5-.4.7-2.6,2-1.8,1.2h-.9l-1.7.5h-1l-2.3.5-2.4-.6-.8-.5-1.6,1-1.1-.5.7-.2.4.6,1.5-1.3v-.7l-.4-1.9-.5-.6.2-.8,1.6-.3.5-.8.8-.2,1.8-1.6h.7v-1l-1.7-.6v.2Z"/>
  <path id="MY" class="st1" d="M449.5,151.6h-.5l-.7-.3h-2.2l-.3.2-.2,1.9-.6.4.2.5-.6.4v.5l-.5.8h-.9l-.5.4-1.1-.6-1.3.2-.2.5-.9.3-.6-.2-1,.3-1.5-1.2v-.9l.4.7,1.8.2.5-2,2.8-.6,1.5-1.9v-.5l1.1,1,.6-1.5h0v.2l.6.8-.4-.9.8-.5h-.7l1-.5.4-.9.9-.9.4-.9.7.9.8.4v.9l.5-.3,2.1,1.5-1.9.5.8.9-1.3.2.2.2-.2-.2ZM419.9,147.8v-.4l1.2.8h.4v1l.7-.5.5.2.4-.9,1.8,1.5.6.9-.2,1.7.2,1.3.6.5.9,2.1-1.5-.3-2.5-1.4-1-.8v-.7l-.9-1-.2-1.6-.7-.7.2-1.3-.4-.7v.3Z"/>
  <path id="PA" class="st1" d="M117.1,142.6l.8.5v.6l1.7.2,2-.9.4-.5,2,.4,1.7,1.2.3,1.3-1.3,1.2-.6-.8-.3-1.5-1.1.5.8-.9-.6-.4h-.8l-.2.6-1.2.5-.2.4.7,1-1.4.4-.2-.6-.9-.2-.4-.9-1.5-.2-.4.5-.2-.5h0l.6-.9-.4-.2.2-.9h.5Z"/>
  <path id="IR" class="st1" d="M324.8,96.9l-.3-1-.6-.4-.2-1.4-.5-.9,1.2-.4,1.1,1,1.2.2h.5l2.1-1.4.7.5-.4.9,1,.7h.4l.4,1.1.7.4,1.2.2.6.6,1,.5,1.3.2,2.4-.5h.9l-.2-.8,1.3-.3.9-.9h1.4l.2-.3h1.2l.3.5,2.4.5,2.1,1.1.6.6,1.3.2.3,1.6-.2,2.1-.6.4.2.8h.6l-.3.9.5,1.3.2,1.3,1.4.2.3.9-1.3,1.6,2,2.2,1.4.5.2,1.6,1,.2-.3.9-1.3.2-.7.5-.2,1.7-.2.2-1.5-.6-1,.2-1.8-.4h-1l-1.4-.3-.7-1.8-1.1-.5-.7.7-.4-.4-1.3.9-.9-.4h-.9l-.5-.5-1.4-.6-.3-.4-1.7-.6-1.4-2.5-1.1-1.3-.7.3-1.1-.6v.6h-.6l-.9-.8v-.9h-.6l.2-1.3-.8-1-2-.9-.7-1.1-.9-.5v-.8l.6-1.1v-.7l.5-.5-1.7-.3-1.1-1.9h-.3Z"/>
  <path id="HT" class="st1" d="M135.7,127.8h0ZM135.5,127.6v.2h.2l.3.2-.2.5-.5-.3-1.3.2-.7-.2-.9.3-.9-.6.4-.4,2.5.4-.8-.7h.6l.3-.9-1.1-.6,1.1-.2,1.6.4v1.6l-.5.2h-.1Z"/>
  <path id="DO" class="st1" d="M135.6,127.8v-.2l.4-.2v-1.6l1.4-.4,1.7.5.5.9,1.4.2.6.5-.7.9-.3-.5h-1.6l-1.1.4-.2-.4-1.3,1.3-.6-.7.2-.5-.3-.2h0Z"/>
  <path id="HR" class="st0" d="M282.7,88.1l-.9-.6-.4-.2.3.2.9.4h0v.2h.1ZM274.8,83h2.7l.5-1.2,1.3-.5,1.3.9,1.7.4.8-.3.3,1.3v.4l-.6-.3h-1.3l-1.4-.4-.9.5-.9-.2v.8l.8.8,2.2,1.9v.2l-.4-.3h-1.5l-.7-.9-1.3-.5.2-.6-1.3-1.1v-.5l-.9.7-.5-1h-.1Z"/>
  <path id="TH" class="st1" d="M423.1,148.1l-.4.9-.5-.2-.7.5v-1.1h-.5l-1.2-.8v.4l-1.3-1.3-.2-.7-1.5-1.1-.2.9-.2-1.3.2-2,.5-.9v-.5l.7-.7.6-1.2-1-2v-1.1l-1.7-1.8-.2-.7.6-.2-.2-1.3.5-.2-.8-1.4-1.4-1.3-.5-1.1.5-.2-.2-.5.5-1.5.9.2.7-.6,1.4-.7.3.2.8.4v.9h1.3l.2.8-.3,1,.3.6-.4.8.4.2,1.4-1.2,1.5.3.6-.7,1,.2,1.6,1.7v1.3l1.6,1.3v1.3l-.5,1-2.5-.2-1.2.5-.5.9h-.4l.4,1.6.8,1.7-.6-.9-1.3-.8h-1.4l-.2-1.3h-1.5l.2,2.1-1,2.6-.2,1.4.6.9h.7l.2,1,.6.5.4,1.9.9.5h.9l.9.9h0Z"/>
  <path id="CD" class="st0" d="M302.3,164.1l-.3,1.6v1.3l.6.9-.4.5.5,1.3,1,.9.2.9.5.6-2.7.5-.9,1,.2.5.3.6v1.3l-.6,1.5.2.7.9.9.8.2.5-.6v2.1l-.5-.3-.6.3-1.4-1.7-1.1-.2-.7-1.2-.9.7-2.2-.6v-.8l-1.7.3.2-.5-.7-.4-1.6.4h-.8l-.5.2v-.8l-.2-1.4-.6-.9.2-1.6-.3-.7v-1.3h-2l.2-.6h-1.8l-.2,1.8h-2l-.9.2-1-1.3-.6-2.3-.5-.2h-5.2l-1.3.3-.4-.5h.6l-.2-1.2,1.1-.7.5.5,1.7-1v1l.8-.2,1.2-1.3.6-.2.5-.9v-2l1-1.4.8-.4.8-.8.3-1.5-.2-1.1.3-.9v-1l.9-1.6v-.6l-.2-1.4.9-.9,1.1-.4,1,.6.4.5,3.2.4.6-1,.7.3,2-.8h1.3l.5-.5,1.5.6,1-.2.6.2.6.8.9.5.7-.5.7.4.5-.6.6.2.6,1,1.1.8-.2,1.7.9.5-1.3,1.1v.4l-.9.7-.4,1.5-.6.7h.6l-.2.7v.8l-.3.2-.2.2-.5.5v1.2h.2l.3.6v.9Z"/>
  <path id="KW" class="st1" d="M331.2,108.7l.6.3-.3.7.7,1.3h-1.3l-.5-.7-1.5-.2.9-1.5h1.4Z"/>
  <path id="DE" class="st0" d="M266.7,67.3h.2l.9.2h.8l.3.5.9.3v.4l1.1.2,1.5-.9.9.2.4-.6.6.6-.7.2,1.4.6h-.6l.7.3.2.7-.3.7.8.4v1.3l.7.9-.3.7h-.7l-2.7.8-.2,1,2.3,1.6-.2.4-1.4.7v.7l-1.7.2-.9.3-.9-.3-.4.5-.7-.4-.8-.4v.2l-.9-.2-.2.4h-1.3v-.9l.9-1.3-2.1-.4-.7-.5.2-.5-.6-.5.3-.3-.5-.7.3-1.3-.5-.6h.7l.9-.6.2-1.7-.2-.5,1.2-.3,1,.4.6-.6-.6-1h.6l-.5-.6v-.3ZM267.9,79.4h0Z"/>
  <path id="BE" class="st0" d="M262.9,74.3l.5.7-.3.3-.6.4.2.6h-.5l-1-.7h-1l.2-.5-.9-.2-1.7-1.3.9-.4h.3l.7.2.6-.2h0l1.2-.2,1.3.5.2.7h-.1Z"/>
  <path id="IE" class="st0" d="M243,67.1l-.7.8-.7.2,1.3.6.4-.5.5.6h.6l.4,1.8-.6,1.3h-1.7l-2,.9-1.7.2-.8-.6.7-.3.6-.9-.6.2,1.4-1.2-1.7-.2.5-.4v-1.1h2l.7-.6h-.9l.8-.9,1.6-.3v.5h-.1Z"/>
  <path id="MM" class="st1" d="M404.9,123.5v-.6l.6.2-.3-1.1h.6l.3-.7-.2-1,.4-.2-.3-1.5,1.3.3.7-2-.3-.6.5-.5v-1.3l1.5-1.3.9-.2.9-.9-.2-.6.3-.5,1,.7.5,1h.6l.5,2.7-1.4,1.4v1l.2.9,1.5-.3.6,1.5,1.1.2-.3,1.5,1.3.2.6,1,1.5-.5v.3l-.5.4-.2.9-.5.8-.3-.2-1.4.7-.7.6-.9-.2-.5,1.5.2.5-.5.2.5,1.1,1.4,1.3.8,1.4-.5.2.2,1.3-.6.2.2.7,1.7,1.8v1.1l1,2-.6,1.2-.7.7v.5l-.9.8.6-.9-.7-.9h.9v-1h-.9l.3-1,.6.2-.4-2-.6-.9-.6-.2.2-.5-.6-1.2-.5-2.3h-.3l-.6-1.3h-.5l-.4.8-1.2.5-.7.9-2-.5.4-2.4-1-2.1-.8.2-.4-1.1.8-.2-1.1-1.1-.4.4-1.3-1.4-.3-.6h-.1Z"/>
  <path id="GQ" class="st1" d="M270.1,156.8l-.8-.2.8-1.3v-.7l.3.3h2.2v1.9h-2.5Z"/>
  <path id="UG" class="st1" d="M306.7,160.2h0ZM306.6,160.2h-2.2l-.9.8-.5-.2v-1.5l.4-.5-.3-.2.4-1.5.9-.7.2.3,1.3-1.4-.2-.4-.9-.5.2-1.7.5-.5h1l.6.5,1.4-.6.8.2.8-.8.8.9v.9l.8,1.1.2,1.4-1.7,2.3h-1.3l-2.2.6-.2,1.5h.1Z"/>
  <path id="KZ" class="st1" d="M344.7,83l.4-.5.8,1.2-1.2-.6h0ZM344.5,82.9l-3.9.9,1,6.1h-.3l-.4.2-1.1-1.2-1.2-.6-1.9.3-.8.6v-.5l.2-1.1-1.3-.2-1.1-1-.9-1.2-.8-.2-.8-1,.5-.2v.7h1.7l-.6-.5.5-.8h1.7l.6-1.1-.2-1.5-1-.2-.5.3-1.4-.5-1.2.3-1.6.9-1.3-.6.9-.2-1.8-1.6h-1.4l-.2-.9-.9-.2.6-1.3-.4-1,.8-1.1,1.5,1.1.6-.4-.5-.9,1-.5v-.5l1.3-.3.2-.6,1.8.2.8-.4.3.4h1.3l2,1.1.2-.3,1.7.9,1.1-.9h1l.5.4.3-.5,1.3.2.6.5,1.3.3.2-.5,1.2.3.9-.2v-1l-1.6-.3-.7-.5,1.2-.8-.7-.5,1.9-.7-1.3-.2-.5-1,3.1-.4,1.3-.3h1.8l.2-.6h.8l3.1-.6v-.4l2-.2.9.3.8-.2.9.9.2,1h2l1.6.2-.2.5,1.6.2,1.1-.4,2.1-1v.8l2.4,1.2,3.4,2.9,1.1,1.2.9-.9.7.2.7.7h1l1.9-.4.6.2.9,1,1.3.3.6.9,1.5.2.5-.2,1.4.9h-.8v.9l-1.3.2-.2.9.5.9v.6l-1.1.4-2.8-.6-.4,2.7.5.7-1.3-.4-2.3.5.6.6.3,1,.9,1.5-.8.8.3.8-2.1-.9-.9-.2h-5.1l-1.6-.7-.9.4v1l-2.7-.7-1.2.5v.5l-2.7,1.4-.6.8.2.5-1-.3-.2-.6h-2l-.6-1.3h-.8l-.2-1.6-.5.2-.6-.7-1.1-.6-.7.2-1.9-.2-1.8.3-1.8-1.5-1.7-.8v-.9l-.6-.9.9.2-.2-.5-2.4.4v.5h.1Z"/>
  <path id="ER" class="st1" d="M314.1,134.8l-.2-1.4.8-2v-1.3l2-.8.6-.8.6,1,.8,2.5.6,1.3.3-.6.5.9h.8l.9.5.9,1.2,1,.6.9,1.2.6.2-.7.6-.5-.2-1-1.2-1-.7-.6-.9-1.3-.5-1.8-.3-.9.4-.9-.8-.6,1.3-.4-.5-1.3.3h0Z"/>
  <path id="TN" class="st0" d="M272.2,103.4v1.3l-.9.4-1.3,1.2.3.9-.6.9-.5.2-.9-3.1-1.1-.8-.5-.9-.5-.2-.5-1.2.6-.9.6-.4v-3l.5-.8,1.8-.7.9.3v.7l1.3-.5v.4l-.9.9.2.8.9,1-.9,1.1-.8.4.4,1,1.2-.2.2,1h.6v.2Z"/>
  <path id="TL" class="st1" d="M459.2,174l.3-.2h.4l-.4.4-.3-.2ZM460.7,173.4l.4-.5,3.1-.5.6.2-1.4.9-1.5.5-.9.5-.2-.5v-.6Z"/>
  <path id="MR" class="st1" d="M239.7,113.2l5.1,3.1,1.2.7h-2.9l1.5,14.1.4.4-.2,1.3h-6.4l-1.3.2-1-.2-.3.5-.8-.8h-.5l-.2,1.2-.7.2-1.6-1.4-.4-.9h-.6l-.8-.8h-.9l-2.4.3-.3,1,.2-1.3.7-2.2-.2-1.7-.6-.6.6-1.4-1.2-1.6-.2.7.2-.9h6.4v-2.9l1.7-.7v-4.2h5.5v-2.1Z"/>
  <path id="DZ" class="st1" d="M246,117l-1.2-.7-5.1-3.1v-2.3l1.7-1.2.9-.2,2.2-.2,2.3-1.5,1.2-.4-.3-1,.3-.5,1.3-.2.5-.6h2l.3-.6-.6-.3-.4-.9v-2.5l-.9-.6h.8l.9-.8,2.1-.8,1.5-.8,2.4-.2.6-.3,2.9-.2.7.4,3.5-.7.8.4,1.1-.2-.4.8v3l-.7.4-.6.9.5,1.2.5.2.5.9,1.1.8.9,3.1-.4.2.9,1.6v1.4l.2.7-.3.9.2,1.3-.7.7.9,1.2v.9l.7.6h.5l1.4.3.7,1.3-7.3,4.4-2.7,2.4-2.5.5-1.4.2-.5-.2.2-1.1-2.2-.7-1.2-.9v-.5l-9.7-6.5h-.1Z"/>
  <path id="PE" class="st0" d="M139.5,184.2l-.9-.2v.8l1.5.6h.2l-.2.5h0l-.9,1.3.3.3-.6.4-.2.9-.7.2-1.7-1-.2-.7-1.6-.9-2.2-.9-2.6-1.4-1.3-1.2-.6-.9v-1.2l-1.7-2.2v-.6l-.9-.6v-.6l-.8-.9-.8-1.9-.9-1.6-.9-.8-.9-1.6-2-1.2.4-.7-.5-.7-.2-1.7,1.5-1.4.3.9-.5.3.2.6.4-.3,1,.4.8.8.6-.7.5-1.9.8-.7,2-.7,1-.8.8-.9.5-1.7-.6-.7h1.3l.9,1.4,1,.5.2.7.5.2v.7l1.3.4,1-.5.6.4.9-.3,1.4.9-1.1,1.7h.7l.6.8-1.4-.2-.2.4-1.6.2-1.6,1-.5,1.6.2.5-1,.8v.7l-.4.4.6.4.3.9,1,1.3-.5.5,1.6.2.2.8h1.7l1.1-.9-.2.7v1.9h1.9l1.6,2.6-.5.6v1.3l.3.9-.8,1.3.5.4-.4.5.4-.4Z"/>
  <path id="AO" class="st1" d="M274.1,168.1v-.5l-.3-.7,1.3-1.1.6.4-1.1.7.2,1.2h-.7ZM273.2,187.2v-2.4l.4-.2.5-1.5.4-2.2,1.2-1.3.7-.6.3-.7v-1.9l-1-1.7-.3-.9.7-.5v-.7l-.9-1.8v-.6l-.9-1.3,1.5-.5h5.2l.5.2.6,2.3,1,1.3.9-.2h2l.2-1.7h1.8l-.2.5h2.1v1.3l.2.7-.2,1.6.6.9.2,1.4v.8l.4-.3h.8l1.6-.3v3.5h-3.3l-.2,5.3.2.6,2,1.8-3.3.6h-.9l-3.4-.4-.5-.6h-7.5l-1.3-.7-.9.5h-1.3v-.3Z"/>
  <path id="MZ" class="st1" d="M311.4,181l-.2-2.2.5-1h1l.5-.2.6.5,1.4-.2.7.2,1.1-.8.6.3,2.5-1,.7-.6.3.6-.4.8.3,2.4-.2,1.5.5,1.9-.5,1.2-1.2,1.5-1.3.8-2,.8-1.4.9-1.4,1.7-.2-.2-2,1.7-.4.9,1.2,2.8v1.3l-.3,1.5.2.5-.7.8-2.3.9-1.5.8-.6.6.5.5v.9h-1.2v-.9l-.2-.5.2-2.5-.7-1.6-.3-1.7,2-1.9.2-1.2.8-.9-.3-.9.5-1.9v-2.7l-1.7-.4-1-.7h-1.4v-.6l-.2-1.1,4.9-1.6.7.9,1.2-.3.3,1.5-.6.9.2.5,1.5,1.5-.2-.9.4-.6.7-.2.2-2.4-1.6-1.9h-.4Z"/>
  <path id="CR" class="st1" d="M115.4,140.4l.3.7,1.3,1.5h-.4l-.2.9.4.2-.6.9h0l-.2-.5-.8-.7-1.6-.9v-.5l-.7.7-.9-.6-.3-.7.3-1.3,1.3.2h.9l.7.4.5-.3h0ZM116.4,145.2l-.2-.5h0l.2.5Z"/>
  <path id="SV" class="st1" d="M108.8,136.2l-.2.4h-1.4l-2-.9v-.2l1.3-.9,1.3.7,1.3.3-.2.6h-.1Z"/>
  <path id="KH" class="st1" d="M426.6,141.2h-1.3l-.2-1.2-.5.6-.6-1.5-.8-1.7-.4-1.5h.4l.5-1,1.2-.5,2.5.2,1.3.7v-.7l.9-.4.5.5,1.2-.6-.2.9.6,1-.2.8.2,1.2-1.3.6-.4.5-.7-.2-.2.8.5.9-.7-.4-1.2.2-.2.6-.7.2h-.2Z"/>
  <path id="BZ" class="st1" d="M107.2,128.9l.5-.2,1-.9.3.2h0l-.4,1.3v1.1l-.6,1.2-.7.6h-.6l.5-3.2h0Z"/>
  <path id="KP" class="st1" d="M457.7,87.9l.3.2.2.2-.9.3-.3.9.6,1.3-.7.2-1,1.1-1.1.5.2.9,1.7.9-.2.5h-1.6l-.6.9-1.8-.3-.2.5-1-.7-.2-.7.4-1.4-2-.8-.2-.4.6-.6,1.5-.7.5-1.3.5-.2.7.5,1.4.2-.6-1h1.3l.4-.8h.6l-.2-.8,1.3.7h.4Z"/>
  <path id="KR" class="st0" d="M454.4,95.7l.6-.8h1.6l.2-.6,2.3,2.3,1,2v.9l-.9,1.3-1-.6-.6,1h-1.4l.7,1.4-.2.5h-.6l.6-.5-.8-1.5-1-.5h.8l-.3-.7.2-1.3-.8-1.2.4-.5-1.3-1.3h.6-.1Z"/>
  <path id="VE" class="st1" d="M154.4,144.3l.3.4-1.2.8-.2,1.1h.5l-.7.7h-.7v.9l-.4.5,1,1.2.2.4-.6.7-1,.5-2,.3v.7l-1.1-.6h-2l.7.6.2,1.8h1.2v.5l-1.1.4-.2.5-1.7.8-.7.8-.3-.5-.6.4-1.3-.8-.5-2-1.1-.9.9-.9-.5-.5-.4-1.3v-1.3l.8-1.2v-.4l-3.3.2-1.1-1.4-.8-.2-1,.2-1.5-.2-.6-.7.2-1.4-.9-1.6-.6.2.7-1.1.2-1,.7-1.2.9-.9,1.1-.3-1,.4.5,1.5-.9,1.5.9,1.3.8-.5v-.6l-.8-1.8,2.4-1.1-.2-.6.5-.5.5,1.2h1.3l.8.5v.8l.7.3,2.7-.3.5.6,1.9.3,1.3-.9,2.2-.2,1.3.2-1.4.3.7,1.3.2-.5,1,.2,1.3,1-.5.9,1.8.4h0Z"/>
  <path id="GY" class="st1" d="M153.1,149.9l-1-1.2.4-.5v-.9h.7l.7-.7h-.5l.2-1.2,1.2-.8-.3-.4,1.5.9,1,1.2v.5l.7.3,1.4,1.2-.2,1v.7h-.8l-.6,1.3.6,1.3h.6l.2.9.8,1.3h.4-1l-.8.5-1.3.2-.8.6-1.6-1.1-.4-1.3.2-1.6.5-.6-.2-.7-.7-.2.2-.9-1.3-.2.2.4Z"/>
  <path id="HN" class="st1" d="M106.4,134.6l.4-1.1,1.7-1.1.9-.3,2.2.2.8-.4h1.5l1.2.3.8,1,1,.4-2.3.6-.9-.2-.3.7-.9.5h-.6l-1.1.4v.8l-1,.5-.3-.5-.5-.2.2-.6-1.3-.3-1.3-.7h-.2Z"/>
  <path id="GA" class="st1" d="M270.1,156.8h2.5v-2.1h3.1v.2l-.2.9.2.6.9-.4.8.2.3.7-.9,1.2v.7l1,.6-.2,2.1-.6,1-.5-.6-.5.5-.7-.2-.4-.7h-.6v.7h-1.5l.2,1.4.5.2-.2.7-.6-.3-.6.7-.8-1-1.2-1-1.1-1.5.2-.8h-.5l-.6-1.3.6.2.3-.5v-1.6h.5l.4-.9.2.3Z"/>
  <path id="IL" class="st1" d="M308.9,106.5l.9-1.6.3-1.3h.6l.5-.6.2.8-.2.3-.3.2.2,1.4-.2.4v.5h0v.2h0l-.4,1.2-.2,1.5h0v-.4l-1.3-2.6h-.1Z"/>
  <path id="NI" class="st1" d="M112,140.1l-1.3-1.1-.4-.7-1.3-1.2.5-.2,1-.5v-.8l1.1-.5h.6l.9-.5.3-.7.9.2,2.3-.6-.2,1-.8,1.6-.7,3.4.3.8-.5.3-.7-.5h-.9l-1.3-.2.2.2Z"/>
  <path id="MW" class="st1" d="M311.5,177.5h0ZM311.3,177.3h0ZM310.6,174.7l-.2-.2h0l.2.2ZM310.3,174.3h0ZM310,174.7l.4,1.4.2,1.8-.5,1.1.4.9v.8l1.5,1.7-.6-1.5,1.6,1.9-.2,2.4-.7.2-.4.6.2.9-1.5-1.5-.2-.5.6-.9-.3-1.5-1.2.3-.7-.9-.6-.5.4-1.8.6-.2-.2-2.7.8-.5-.6-1.1-.7-.9.8.3.9.2h0Z"/>
  <path id="TM" class="st1" d="M341.6,89.9l1.6.2v-1.2l.5.7.8-.2-.5-.8.5-.6.8.4-.5-.7.5-.2,1.5.9h.6l.6,1.5,3.1.6,1.1,1.6,2.9,1.7h.3l2.2,1.2,1.6.4.2,1.1-1.3-.4-.3.5h-.7l-.7,1.6-1.7.7-.3.7-1.2.5-.6-.5-1.3-.3-.3-1.6-1.3-.2-.6-.6-2.1-1.1-2.4-.5-.3-.5h-1.2l-.2.3h-1.4l-.9.9-1.3.3-.5-2,.2-.6-.7-.7-.2-1-1.3-.2v-1.5l1.4.6.9-.2.5-.6-1.1-.6-.5-1h-1.1l-.5.5v.6l-.6-.6.8-.6,1.9-.3,1.2.6,1.1,1.2h.8,0Z"/>
  <path id="ZM" class="st1" d="M301,174.1l1.1-1.2-.4-.3,2.7-.5-.2.4,1,.5.2-.3,1.3.8,1.5.6.7.9.6,1.1-.8.5.2,2.7-.6.2-.4,1.8.6.5-4.9,1.6.2,1.1h-.9l-1.6.7-.2.8h-.5l-1.5,1-.9,1.3-.6.2-2.4-.4-.5-.5h-1.3l-1.3.2-2-1.8-.2-.6.2-5.3h3.3v-3.5l.7.4-.2.5,1.6-.3v.8l2.3.6.9-.7.7,1.2,1.1.2,1.4,1.7.6-.3.5.3v-2.1l-.5.6-.8-.2-.9-.9-.2-.7.5-1.5v-1.3l-.2-.6v-.2Z"/>
  <path id="NC" class="st1" d="M307.9,100.3h-.4l-.4-.2h-1.2l.3-.4.9.2,1.8-.6-1,.6.2.4h-.2,0ZM305.8,100.1h0Z"/>
  <path id="ZA" class="st0" d="M306,203.1h1.3l-1,2.8-1,.7-1,.9-1.4,2.1-1.6,1.4-.9,1-2.9,2-1,.4h-1l-.2.4h-1.1l-.3.3-1.9-.3-.4.2-1.3-.2-1.1.5-2.2.2-.9.5h-.6l-1.7-1.6-.9-1.7.7-.3v-1.6l-1.5-2.2-.7-2-.5-.9.9-.9.5,1.1,1.2.3h1.6l.7-.6.7-.2.2-6,.6.5.7,1.8-.3.5v.8h1.6l1.7-1.4.6-1.2h.7l.8.5,1.4.3,1.3-.3.6-1.4.9-.2.7-.6.3-1,1.3-.7.8-.9,1.9-.9,1.7.3h1.5l.3,1.8.7,1.6-.2,2.5-.8-.3-1.1,1v.7l.5.6,1.3.2.3-.8-.5.3ZM297.9,207.6h-.4l.5,1.3,1.1.5.5-.8,1.3-.4.6-.9-1.3-1.3-1.5.5-.8,1.1h0Z"/>
  <path id="LT" class="st1" d="M285.4,66.8l-.2-.7-.2-.7,1.5-.6,3.6.2,1.7.2,1.4.8-.4.9-.6.3-.5,1.1-1.6.7h-1.3v-.5l-1-.3v-.9l-2.4-.6h0ZM284.9,66.7l.2-.3-.2.3h0Z"/>
  <path id="ET" class="st0" d="M322.9,139.8l-.2.2.2.2.2.3,1.7-.2-.4.6,1.3,2,1,.7,4.9,1.6h1.7l-2.5,2.5-2.4,2.7h-1.7l-1.4.4-.6.6-1.1.2-.4.3h-1.2l-.7-.5-1.5.7-.5.8-2.4-.4-2-1.3h-1.3l-.2-.3-.2-1.2h-.7l-.6-.9-.4-1.3-1.7-1.6-1.1-.2.2-1.1h1.2l.3-.3v-1.3l.6-2.4.5.3.6-2,.8-1.3h.7l.6-2.7,1.3-.3.4.5.6-1.3.9.8.9-.4,1.8.3,1.3.5.6.9,1,.7,1,1.2-1,1.6v.4h0Z"/>
  <path id="GH" class="st0" d="M255.8,148.4l-.4.5h-1.2l-1.7.9-1.4.3-.8.5-1.7-.5h.4l-.6-2v-.9l.4-1.3.8-1-.3-2.1-.4-1.9.3-.6h3.1l1.1-.2.2.9.7.7-.2,1,.6.3-.3,1,.4.9v1.5l-.2.8,1.2,1.3h0Z"/>
  <path id="SI" class="st1" d="M274.8,83h0l.2-.2-.6-1.2.5-.4,1.3.2.5-.3,1.7-.2.2-.3h.2l.4.6-1.3.5-.5,1.3h-2.7,0Z"/>
  <path id="BA" class="st1" d="M281.4,87.3h-.2v-.2l-2.3-1.9-.7-.8v-.8l.9.2.9-.5,1.4.4h1.3l.6.3h.5l-.3.9.8.5-.6.2v.6l-1.1.9v.7l-.9-.4-.3-.2h0Z"/>
  <path id="JO" class="st1" d="M310.8,106.9l.2-.2h-.2v-.2h.2v-.7l-.2-1.4.3-.2,1.7.8,3.1-1.8.5,1.5.2.6-.3.2-3.1.9,1.7,1.7-.7.9-1.2.2-1,1.1-1.8-.3v-.3h0l.2-1.5.4-1.1v-.2Z"/>
  <path id="SY" class="st1" d="M315.9,103.1l-3.1,1.8-1.7-.8.2-.3-.2-.8.3-.6.9-.6-.4-.7h-.7l-.2-1.3v-.9l.3.2.6-1.6,1.3.3,1.2-.5.7.3h1.7l1.7-.6h.9l1.1-.3.3.3-.7.9-.8.2v2.8l-.7.8-2.9,1.6.2-.2Z"/>
  <path id="MC" class="st1" d="M265.4,85.9h.2-.2Z"/>
  <path id="AL" class="st1" d="M286.7,90.6h0ZM284.1,88.6v-.4l.5-.6.5.2.7.5.2.6v.9l.2.4v.3h.5v.2h.2v.2h0l-.9,1.4-.6.2-.9-.9-.3-.8.4-1.9h-.4v-.5.2ZM284.1,88.3h0Z"/>
  <path id="UY" class="st1" d="M168.5,212.8l-.6.7.2.8v.2l.3.2-.5,1-1.7.9-.7-.2-1.3.2-1.7-.8h-1.2l-.9-.9-.2-1.3.5-.2-.3-1-.2-.9.6-2.9h1.3l1.1.7.4.8.6-.4.6.7,1.1.3,1.7,1.5.8.5h0Z"/>
  <path id="CNM" class="st1" d="M308.1,100.3h-.2.2ZM305.8,100.1h0ZM306,100.1h0ZM307.5,100.3h0l-.5-.2h-1.1,1.1l.4.2h.1Z"/>
  <path id="RW" class="st1" d="M302,163h-.2v-.4l.8-.7-.2-.6.2-.2.4-.2.5.2.9-.7.6.9v1.3h-1.5v.6h-1.5v-.2Z"/>
  <path id="SX" class="st1" d="M333.3,145.2h-1.7l-4.9-1.6-1-.7-1.3-2,.4-.6.6-.8,1.7,1.7h1.2l1.3-.7,1.2.3,1.5-.9h2.6v3l-1.5,2.4h-.1Z"/>
  <path id="BO" class="st1" d="M140,185.5v-.3l.2.2h-.2ZM139.5,187.5l-.3-.3.9-1.3.7-.3-.4-.6-1-.8.4-.5-.5-.4.8-1.3-.4-.9v-1.3l.6-.6-1.6-2.6h2.1l.9-.4,1.7-1.3,2-.4.3.9-.2.5.2,1.1.7,1.4,1,.8,2.2.3.6.5,1,.2.6.7,1.3-.2.9.5.8,4.1,2.7.2.2,1.5,1,.5.5,1.1-.8,3.3v-.6l-1.6-.9h-1.5l-2.8.6-.7,1.5v.9l-.4,1.9-.3-.4h-1.8l-.5,1.5-.5-1.1-1.9-.2-.9-.5-1.3,1.7h-1.2l-.8-2.6-1-1.4v-1.1l.4-.5-.9-.8-.4-1.3-.6-1.1h-.2Z"/>
  <path id="CM" class="st0" d="M275.9,154.9v-.2h-3.2v.2h-2.2l-.3-.3.2-1.3-.6-1.3-1.1-.4-.2-.8-.5-.4.3-.6v-1.1l2.3-2,.7-.2,1.2,1.1.9-1.1.5-2,.9-.7v-1l.7-.2v-.9l1.3-2,1-.3v-1.2l-.7-.3-.2-1.2h.4v.3l.3-.2.6.5.5,1.9v1.2l.9,1.3h-2.5l-.4.6,2.1,1.9.5,1.6-1.3,2.1-.6.4.4.5-.2.8.3,1.1.5.3.3,1.1,1.6,1.6.2.9v.9l-2.7-.8h-2.1l.2.2ZM277.6,136.8h0Z"/>
  <path id="CG" class="st1" d="M275.6,166.2l-.6-.4-1.3,1.1-.3-.8-1.2-1,.6-.7.6.3.2-.7-.5-.2-.2-1.4h1.5v-.8h.6l.4.7.7.2.5-.5.5.6.6-1,.2-2.1-1.1-.6v-.7l1-1.2-.3-.7-.8-.2-.9.4-.2-.6.2-.9h2.1l2.7.7v-.9l.5-.9v-1.1l1.6-.4,2,.4v.6l-.9,1.6v1l-.3.9.2,1.1-.3,1.5-.8.8-.8.4-1,1.4v2l-.5.9-.6.2-1.2,1.3-.7.2v-1l-1.7,1-.5-.5h0Z"/>
  <path id="EH" class="st1" d="M225.9,124.1v-1.1h3.5l1.1-1.5.3-1.8.5-.6.7-.3.5-.7,1-.7.7-2h.5l.6-.9v-.5l.7-.2,1.9.2.6-.4h1l.2-.9v2.7h-5.4v4.2l-1.7.7-.2.9v2h-6.4l-.2.9h0Z"/>
  <path id="ME" class="st1" d="M285.1,87.8l-.5-.2-.5.6h-.4l.4.3v.4l-.9-.7-.5-.2v-.2h0v-.7l1.1-.9.6.6,1.3.5-.6.2v.2h0Z"/>
  <path id="RS" class="st1" d="M285.6,87.4l-1.3-.5-.6-.6v-.6l.6-.2-.8-.5.3-.9h-.5v-.4l-.3-1.3.9-.4h1.1l.9.7v.4l1.2.6-.2.5,1.3.5.4-.4.5.9-.5.7,1,1-.8.6v.8h-.7l-.6.2.2-.7-.6-.2-1-.9-.6.7h.1Z"/>
  <path id="BJ" class="st0" d="M258.3,148l-1.4.2h-.4v-4.6l-.5-.8v-.8l-.9-.6.2-1,.9-.8h.9l.6-.7v-.6l.7-.3,1.3,1.2-.2.5.6,1.3-.5,1.3-1.3,1.3-.2,2,.2,1.4v1.1h0Z"/>
  <path id="TG" class="st1" d="M256.5,148.2h-.3l-.4.2-1.2-1.3.2-.8v-1.5l-.5-.9.3-1-.6-.3.2-1-.7-.7-.2-.9,1.1.2h.6l-.2,1,.9.6v.8l.4.8v4.7h.4Z"/>
  <path id="AF" class="st1" d="M372.6,96.7l-.8.2.3.2-1.1.2h-2l-2,1.4.8.8.2.6-.9,1.2.2.7h-1.7l.6,1.2-1.1.4-.4,1.1.2.9-.7.5-1.1-.4-1.1,1-.7-.2-.9.6v1.8l-3.3.7-.9-.2-1.7.2-2.7-.8,1.3-1.6-.3-.9-1.4-.2-.2-1.3-.5-1.3.3-.9h-.6l-.2-.9.6-.4.2-2.1,1.3.3.6.5,1.2-.5.3-.7,1.7-.7.7-1.6h.7l.3-.6,1.3.4,1.2.3h.9l.5.4.9-.5.9.2.2-.8h1v-.6l.6-.7h1.2l.5.8v1.3l.4.6,1.6-.5.9-.7.8.4.7-.3,1.1.3v.2Z"/>
  <path id="UA" class="st1" d="M287.7,78.2l.2-.5.2-.7.6.2-.5-.9.7-.7,1.4-1v-.5l-.9-1.1,1.2-.6h2l2.4.5h1.4l1.7.4,1.7-.3.5-.9h1.3l.9-.4h2.1l1.1.9-.2.8h1.3l1.1,1.6,1.5.2,1.2-.3.9.9.2-.2,1.6.3,1.4.6v.9l-.3.2.6.9-.3.7h-1.4l-.6.3-.2.9h-.9l-1.1.6-1.4.2-1.6.8,1.2,1.4,1.7-.2-.5.7-1-.2-.7.5h-.9l-.8.7-.7-.5v-.8l-1.1-.4v-.5l1.3-.5-3.1-.5.8-.4-.6-.3h-1.2l-2.2,1.9.2.5-.6-.4-.8.3-.9-.3,1-.9v-.7h1.7l-.3-.7-.6-.2v-.6l-.8-.3.2-.6-2.3-.9-1.8.3-.6.4-1.4.2h-3.6l-.5-.3-.7-.5h-.2Z"/>
  <path id="SK" class="st1" d="M288.2,77l-.2.7-.2.5-1.2-.3h-1.4l-.8.7-1.7.2v.4h-1.5l-1.1-.3-.5-.6v-.4l1.8-.8,1.1-.7.9-.2,1,.7.4-.3.9.2,1.4-.2,1.1.5h0Z"/>
  <path id="JK" class="st1" d="M377.8,99.5l-1.1.6-.5-.9,1,.3h.6Z"/>
  <path id="PK" class="st1" d="M376.1,99.3l.5.9-.5.6-1.3.4-2.4-.4-.8.6.6,2,.7.7h.5l.2.5.9.6-1.2.7.2,1-1.6,2-.6,1.5-.9.5-.5,1.3-1.9.3-.5-.5-1.2,1.4-.2.6,1.2.5v.9l1,.5.9,1.6-.5.7-.3-.3-.9.5-1.9-.2v.5l-.9.2h-.8l-.6-.4-.4-1-.9-.2v-.7l-.6-.4-2.9.3-1.3-.2-.3.3h-1.7l-1.2.2-.2-.2.2-1.7.7-.5,1.3-.2.3-.9-1-.2-.2-1.6-1.4-.5-2-2.2,2.7.8,1.7-.2.9.2,3.3-.7v-1.8l.9-.6.7.2,1.1-1,1.1.4.7-.5-.2-.9.4-1.1,1.1-.4-.6-1.2h1.7l-.2-.7.9-1.2-.2-.6-.8-.8,2-1.3h2l1.1-.3h.9l1.5.9v.7l1.6.6h0Z"/>
  <path id="BG" class="st1" d="M298.3,85.9v.6h-.6l-.5,1.6.5.7-1.5-.2-1.1.6-.2.6-1.4.2-1.2-.5-2.4.4v-.7l-1-.9v-.8l.9-.6-1-1,.5-.7,1,.5,3.2.4,1.2-.6,1.3-.2,2.4.7h0Z"/>
  <path id="RO" class="st1" d="M299.7,83.4l-.2.6h-.6l-.7.9v.9l-2.4-.7-1.3.2-1.2.6-3.2-.4-1-.5-.5-.9-.4.4-1.3-.5.2-.5-1.2-.6v-.4l-.9-.6,1.4-.3,1.1-2,1.3-.8h5l.6-.4.6.2.5.8,1.2,1.1.4.6-.2,1,.3.9.9.3.8-.3.6.4h.2Z"/>
  <path id="QA" class="st1" d="M336.6,117.5l-.2-1.3.7-1.1.6.5.2,1.5-.2.5h-.6l-.2-.2h-.3Z"/>
  <path id="LI" class="st1" d="M268.5,80.1l.2.2h-.2v-.3h0Z"/>
  <path id="AT" class="st1" d="M268.6,80.4h0l-.2-.3.2-.2-.2-.2h.2l.7.4.4-.5.9.3.9-.3,1.8-.2v-.7l1.3-.7.2-.4,1.3.3.4-.6,3.1.5v.4l.4.6v.5h-.9l-.2,1.3-.5.2-.2.3-1.7.2-.5.3-1.3-.2-2-.2-.4-.7-2.7.4h-.5l-.9-.3.4-.2Z"/>
  <path id="SZ" class="st1" d="M305.7,201.6l.2.5v.9l-.2.8-1.3-.2-.5-.6v-.7l1.1-1,.8.3h-.1Z"/>
  <path id="HU" class="st0" d="M285.1,82h-1.1l-.9.3-.8.3-1.7-.4-1.3-.9-.4-.6h-.2l.5-.2.2-1.3h.8v-.4l1.1.4h1.5v-.5l1.7-.2.8-.6h1.4l1.2.2.7.5.5.2-1.3.8-1.1,2-1.4.3h-.2Z"/>
  <path id="NE" class="st0" d="M273.3,119.4l2.5.6,1.2.9,1.3-.6.4,2.4,1.3,2-.4.7-.3,5-1.8,2-1.5,2.3.2,1.1-1.2.3-.6.7-1.7-.5-2.2.2-.8.8-1.6-.2-1.4-.7-1.5.6-.9-1-1.4-.5-1.1.2-1.2.5v.8l-.8.8v1.3l-1.3-1.2-.8.3v.6l-.5-.7.2-.5h-1.1l-.9-.7-.2-.9-.5-.2-.7-1.4v-.6h1.3l.6-.6h3.6l.6-.6.5-1.2v-4.6l2.6-.5,2.7-2.4,7.3-4.4h0Z"/>
  <path id="LU" class="st1" d="M263.5,76.4h-.8l-.2-.6.6-.4.6.5-.2.5h0Z"/>
  <path id="AD" class="st1" d="M256.1,87.8h.5v.2l-.3.2-.2-.3h0Z"/>
  <path id="CI" class="st1" d="M248.7,150.1h-.3.3ZM241.3,151.3v-1.3l.2-1.3-.6-.5-1.3-.5.5-1-.3-.7h.5l.2-1-.2-.5.9.2-.5-.7.2-1h-.4l.2-1.3.5-.5,1.2.5,1.2-.9v.8l1.2-.3.7.2.7,1,1.6-.5h.8l.9.8.3,2.1-.8,1-.5,1.3v.9l.6,1.9-1.9-.2-3.1.3-2.8,1.2h0Z"/>
  <path id="LR" class="st1" d="M239.7,146l.3.7-.5,1,1.3.5.6.5-.2,1.3v1.3l-1.2-.4-1.7-.9-1.8-1.6-1.7-.9-.2-.4,1.5-1.4.5-1.2,1.3.2.6,2,.7-.9.3.2h.2Z"/>
  <path id="SL" class="st0" d="M236.8,144.4l-.5,1.2-1.5,1.4-2.4-1,.7-.2-.7-.5-.6-1.9,1-.6.3-.7,2.1-.2.9,1.2.3,1-.4.6.8-.3h0Z"/>
  <path id="BN" class="st1" d="M444.7,150.5h.2v-.2l.4.9-.6-.8h0ZM443,150.9l.9-.2.8-.3-.6,1.5-1-1h0Z"/>
  <path id="IQ" class="st1" d="M332.1,108.7h-2.2l-.9,1.5-3-.2-4.5-3.1-2.7-1.4-2-.3-.2-.6-.5-1.5,2.9-1.6.7-.8v-2.8l.8-.2.7-.9.5-.4,2.4.2v.4l.9-.2,1.1,1.9,1.7.3-.5.5v.7l-.7,1.1v.8l.9.5.7,1.1,2,.9.8,1-.2,1.3h.5v.9l.9.8h0Z"/>
  <path id="GE" class="st1" d="M324.4,90h-1.3l-1.1.3-1.1-.8-.5.2-1.5-.2.3-.5-.6-1.4-.8-.5-1.7-.6,1-.3,1.5.6h2l1.9,1.1,1.3-.3,1.5.5-.2.4,1.3.5-.3.4.9.6-.2.4-2-.6-.3.2h0Z"/>
  <path id="GM" class="st1" d="M226.1,136.8v-.4l.3-.5h1.7l1.1-.3,1.7.8-.9.2-1.3-.6-1.1.7-1.6.2h.1Z"/>
  <path id="CH" class="st0" d="M267.9,79.4h0l.5.3h0l.2.2-.2.2v.3h0l.9.3h.5v.6l-.7.3-1.1-.2-.6,1.1v-.4l-1.3-.3-.3.5h-1.3l-.3-.4v-.4l-.3-.2-.3.2-.2.2-.2-.5,1.4-1.3.9-.4h1.3l.2-.4.9.2h0Z"/>
  <path id="TD" class="st1" d="M277.7,137l.5-.2h-1.2l-.8-1-.2-1.1,1.5-2.3,1.8-2,.3-5,.4-.7-1.3-2-.4-2.4,1.6-.8,13.3,6.5.2,6.3h-1.4l-.6,1.7-.6.2.3.7-.8.6.3.8-.7.9h.6l.7,1.2v.7l.5.4v.9l-.8-.2-1.2.6v.3l-2.1,2.1-2.2.2v.5l-.8,1-1.6.2-1.5.7-.3-.5-1.3.7-.5-.2-.5-1.6-2.1-1.9.4-.5h2.5l-1-1.4v-1.2l-.5-1.9-.6-.5v.2Z"/>
  <path id="NG" class="st0" d="M276.3,135.8l.8,1,.2,1.2.8.3v1.2l-1.1.3-1.2,2v.9l-.7.2v1l-1,.7-.5,2-.9,1.1-1.2-1.1-.7.2-2.2,2v1.1l-.4.6-.6-.2.2.6h-1.7l-1.8.5-.9-.5-1.2-2.3-.9-.6h-2.8v-2.5l.2-2,1.3-1.3.5-1.3-.6-1.3.2-.5v-1.3l.8-.8v-.8l1.3-.5,1.1-.2,1.4.5.9,1,1.5-.6,1.4.7,1.6.2.8-.8,2.2-.2,1.7.5.6-.7,1.2-.3h-.3Z"/>
  <path id="KV" class="st1" d="M286,89l-.2-.6-.7-.5v-.2l.5-.2.6-.7,1,.9.6.2-.2.7h-.8l-.8.6v-.2Z"/>
  <path id="LB" class="st0" d="M310,103.6l.7-1.3.5-1.3h.7l.4.8-.9.6-.3.6-.5.6h-.6Z"/>
  <path id="DJ" class="st1" d="M324.8,140.3l-1.7.2-.2-.3.2-.2-.2-.2v-.4l.9-1.6.5.2.7-.6.5,1.2-1.3.8h1.2l-.6.9h0Z"/>
  <path id="BI" class="st1" d="M303.1,165.9l-.5-.9-.2-.9v-.5l-.3-.5h1.4v-.7l1,.2-.2.8.7.6-.7.5-.7,1.2-.5.3h0Z"/>
  <path id="SR" class="st1" d="M160,155.3h-.4l-.8-1.4-.2-.9h-.6l-.6-1.3.6-1.3h.7v-.8l.5-.9,1.7.4v-.3h2.4l.7.2-.2.8-.5.8.2,1.4.6.9-.3,1-.8.9-.6-.3-1.3.2-.4-.2v1.2l-.9-.2.2-.2Z"/>
  <path id="GW" class="st1" d="M226.2,138l1.7-.2.8-.4h2.4l-.4.9.4.7-1.7.4-.6.9-.6-.6-1.3.5.4-.9-.6-.9-.6-.2v-.2Z"/>
  <path id="SN" class="st0" d="M231.2,137.5h-2.4l-.8.4-1.7.2-.2-.8v-.5l1.6-.2,1.1-.7,1.3.6.9-.2-1.7-.8-1.1.3h-1.7l-1-1.8,1.2-1.9.3-1,2.4-.3h.9l.8.9h.6l.4.8,1.6,1.4.5,1-.2.8,1.2,1.3v.9l-1.7.2-2.2-.5h-.1Z"/>
  <path id="GN" class="st1" d="M231.2,137.5l2.2.5,1.7-.2,1.1.9.8-.6.9.3.9-.7.6.9v.5l.7.5-.5.6h.7l.5,1.4-.2,1.3h.4l-.2,1,.5.7-.9-.2.2.5-.2,1h-.5l-.3-.2-.7.9-.6-2-1.3-.2-.8.3.4-.6-.3-1-.9-1.2-2.1.2-.3.7-1,.6-.9-1.3-1.3-1-.6-.8.6-.9,1.7-.4-.4-.7.4-.9h-.3Z"/>
  <path id="ZW" class="st1" d="M295.3,188.1l2.4.4.6-.2,1.8-1.8,1.3-.2-.2-.4.2-.8,1.6-.8h.9v.7h1.4l1,.7,1.7.4v2.7l-.5,1.9.3.9-.8.9-.2,1.2-2,1.9h-1.5l-1.7-.4-.5-.6-1.7-.4-.5-.9v-.9h-.6v-.7l-1.8-.9-.2-1-.7-.9-.4-.9h.1Z"/>
  <path id="PL" class="st0" d="M283.1,68.1l-.3.2.6-.2,4.4.2h0l1,.3v.4l.9,1.3v.8l-.9.6.7.4v.9l.9,1.1v.5l-1.4,1-.7.7.5.9-.6-.2-1.1-.5-1.4.2-.9-.2-.4.3-1-.7-.9.2-.5-.6-1.1-.2-1-.6-.7.5-.9-.6.4-.2-2.5-.5.3-.7-.7-.9v-1.3l-.8-.4.3-.7-.2-.7.5-.3h-.7l2.8-.6.6-.4,2.6-.5.4.6h1.8Z"/>
  <path id="MK" class="st1" d="M286.7,90.7h0ZM288.7,88.2l1.1.9v.7l-.4.3h-1.3l-1.3.5-.2-.2v.2h-.3v-.3h-.2l-.3-.4v-.9l.9-.6h.8l.6-.2h.6,0Z"/>
  <path id="PY" class="st1" d="M165.4,198.5l-.2.6-.2,1.7v.2h0l-.2,1.9-.9.5-.5.7-.6-.2-1.6.3-1.4-.3h-.9l.6-1.9.8-1.2-.4-.4-1.7-.7-2.1-1.3-1.7-.3-1.6-1.3-1.3-1.3.5-1.9v-.9l.6-1.5,2.8-.6h1.5l1.6.9v.6l.7,1.3v1.9l2.1.2.4-.2,1.3.9.5,2.2,1.3-.2.7.4h-.1Z"/>
  <path id="BY" class="st1" d="M289.5,73v-.9l-.7-.4.9-.6v-.8l-.8-1.3h1.3l1.6-.6.5-1.1.6-.3.4-.9,1.5-.2.7-.6,4.2.9.7,1.6,1,1.4,1.5.6-.8.6h-1.3l1,1.6h-1.3l-.5.9-1.7.3-1.7-.5h-1.4l-2.4-.5h-2l-1.2.7h-.1Z"/>
  <path id="LV" class="st1" d="M295.4,65.3l-.7.6-1.5.2-1.4-.8-1.7-.2-3.6-.2-1.5.6v-1.3l.8-1.2,1.3-.3,1,1.1.7.2.9-.5-.2-1,1.4-.4,1.9.9h1.3l.8.4-.2.7.8.5v.7h0Z"/>
  <path id="BF" class="st1" d="M255.3,140.3h-.6l-1.1-.2-1.1.2h-3.1l-.3.6.4,1.9-.9-.7h-.8l-1.6.4-.7-1-.7-.2.6-2.5,1-.3.5-1-.2-.6.5-.5,1.3.2v-.7h.6v-.5l.6-.4.6.2,2.3-1.5,1.6.2v.6l.6,1.4.5.2.2.9.9.7h1.1l-.2.5.6.7-.6.8h-.9l-.9.7h-.2Z"/>
  <path id="SS" class="st1" d="M310.2,151.5l-.8.8-.8-.2-1.4.6-.6-.5h-1l-.5.5-1.1-.8-.6-1-.6-.2-.5.6-.7-.4-.7.5-.9-.5-.6-.8-.6-1.1-1.2-.6v-.9l-1.8-1.2-.9-1.3-1-.2v-.6l.5-.3.4-1.6.5-.8,1.3-.2,1.2,1.5h2.2l.3.3h1.3l2-1.6,1.3.9h.8l1.1-1.6.8-.6-.2-1.1-.5-.5h1.1l.8-.4-.2,1,.2,1.3,1.3,1.1v1.3h.3v1.3l-.2.3h-1.2l-.2,1.1,1.1.2,1.7,1.6.4,1.3.6.8h.7l.2,1.3h-.5l-.4-.7-1.6.7-.7.6h0Z"/>
  <path id="NA" class="st1" d="M292.3,187.8l1.3-.2h1.3l.5.5-1.7.3-1.1.8-.4-.8-3.8.5-.2,6h-1.7v4.6l-.3,6-.7.2-.7.7h-1.6l-1.2-.4-.5-1.1-.9.9-1.3-1-.6-1-.6-2.6v-1.6l-.4-.4-.2-3.8-.7-.8-.9-1.6-.4-1.2-1.4-2.4-.7-.9v-1.5h1.3l.9-.5,1.3.7h7.5l.5.6,3.4.5h.9l3.3-.7-.2.2Z"/>
  <path id="LA" class="st1" d="M417.9,124.8l.5-.8.2-.9.6-.4.2.6h.8v-1.1l-.5-.7.9-.2,1.6,1.4.4,1.2.9.3.6-.5,1,.5-.4.4,1.1.5-.5.8h-1l-.2.5,1.5.8,1.9,1.9,1.4,1.1,1.7,1.8-.4.2.9.9v.9l-1.3.6-.5-.5-.9.4v.7l-1.3-.7.5-1v-1.3l-1.6-1.3v-1.3l-1.6-1.7-1-.2-.6.7-1.5-.3-1.4,1.2-.4-.2.4-.8-.3-.6.3-1-.2-.9h-1.3v-.9l-.8-.4.3.3Z"/>
  <path id="CO" class="st0" d="M124.7,146.5l1.3-1.2-.3-1.3.9,1.3-.2-1,2.3-1.5.2-1.9,1.2-.9.8.5.4-1,1.4.2,1.7-1,.3-.6.9-.3.7.5-.4.4-1.1.3-.9.9-.7,1.2-.2,1-.7,1.1.6-.2.9,1.6-.2,1.4.6.7,1.5.2,1-.2.8.2,1.1,1.4,3.2-.2v.4l-.6,1.2v1.3l.3,1.3.5.5-.9.9,1.1.9.5,2h-.3l-.4-1.5-1.4.6h-2.8v1.1h.9l.3.7h-1.5v1.3l.7.6.3,1.5-.8,4.6-.6-.7h-.7l1.1-1.8-1.4-.9-.9.3-.6-.4-1,.5-1.3-.4v-.7l-.5-.2-.2-.7-1-.5-.9-1.3h-.8l-1.6-1-.2.3-1.7-.2-.2-.4-1.8-.9-.4-.4.4-.5-.2-.7.6-.7.9-.2,1.3-1.9-.7-.6.3-.5v-1.7l.2-.5-.4-.6.2-.6-.9-1.1h0Z"/>
  <path id="ML" class="st0" d="M244.7,141.2l-1.2.3v-.8l-1.2.9-1.2-.5-.5.5-.5-1.4h-.7l.5-.6-.8-.5v-.5l-.5-.9-.9.7-.9-.3-.8.6-1.1-.9v-.9l-1.2-1.3.2-.8-.5-1,.7-.2.2-1.1h.5l.8.7.3-.5,1,.2,1.3-.2h6.4l.2-1.3-.4-.4-1.5-14.1h2.9l9.7,6.5v.5l1.3.9,2.2.7-.2,1.1.5.2,1.4-.2v4.6l-.6,1.2-.6.5h-3.6l-.6.6h-1.2l-1.6-.2-2.3,1.5-.6-.2-.6.4v.6h-.7v.7l-1.3-.2-.5.5.2.6-.5,1-1,.3-.6,2.5v.2Z"/>
  <path id="MD" class="st1" d="M294.6,78.4l1.8-.3,2.3.9-.2.6.7.3v.6l.7.2.3.7h-1.8v.6l-1,.9-.3-.9.2-1-.4-.6-1.2-1.1-.5-.8-.6-.2h0Z"/>
  <path id="CZ" class="st1" d="M282.5,76.3l-1.1.7-1.7.8-3.1-.5-.4.6-1.3-.3-2.3-1.6.2-1,2.7-.9h.7l2.5.6-.4.2.9.6.7-.5,1,.6,1.1.2.5.6h0Z"/>
  <path id="CF" class="st1" d="M293.9,144.1v.6l1.1.2.9,1.3,1.7,1.2v.9l1.3.6.6,1.1-.6-.2-1,.2-1.5-.6-.5.6h-1.3l-2,.7-.7-.3-.6,1-3.2-.4-.4-.5-1-.6-1.1.4-.9.9.2,1.4-2-.4-1.5.4v1.1l-.6.9-.2-.9-1.6-1.6-.3-1.1-.5-.3-.3-1.1.2-.8-.4-.5.6-.4,1.3-2.1.5.2,1.3-.7.3.5,1.5-.7,1.6-.2.9-1v-.5l2.1-.2,2.2-2.1v-.3l1.1-.6.7.2,1.3,1.7-.2,1.8,1.1.2h-.1Z"/>
  <path id="BT" class="st1" d="M402.3,112.4l.6.5.3.9-.6.2-3.1.2-1.2-.2-.5-.9.9-1.3,1-.4,2.4,1h.2Z"/>
  <path id="KG" class="st1" d="M379.3,88.5v.2l-1.3.4-1.3.7-.3.5-2,.2v.6l-1.5.5-.3-.5-1.1.2-1.2.8-.3,1h-1.6l-.5.4-1.3-.7-1,.4-.6-.3h-1.8l-.2-.3,1-.7.9.2.6-.3,1.2.2,2-1-.8-.2-1.6-1-.5.6-1-.2-1-.5,1.4-1h-.5v-.6l1.2-.5,2.7.7v-1l.8-.4,1.6.7.9-.2h4.2l.9.3,2.1.9h.2ZM365,92.3h-.2l.2.2h.2l-.2-.2ZM366.8,92.2v-.2h-.2l.2.2ZM365.8,92h-.4l.2.3h.2v-.3h0Z"/>
  <path id="NZ" class="st0" d="M519.1,233.1l-1.6,1.3-2.4,1.5h-1.7l-1.1.9-1.1.2,1.2-.9v-.8h-1.4v-.6l1.3-1.1,3.1-1.9h.7l1.8-.8,3.1-1.6,1.2-1.3.7-.3,1-1.3,1.3-.6v1.3l1.3-.6-.2.5.9-.4-.8.7v.7l-1.7,1-.8.8-1.2.6v.9l-.9-.2-2.2.9-.8,1.1h.3ZM532.9,224.4l-2.8,2.4-1.6.8-.9-.6,1.3-1,.5-.6-.2-.6-1.4-.9.2-.3,1.6-.6,1.2-1.7v-1.9l.5-.8-.7.2-.7-1.7.2-.5-.4-.8.6-.2-.2.8,1.1.2.6,1-.4.6.3.5-.4.9.9.5.3-1.6.3,2.4.7.4,1,.2,1.3-.7.8.3-1.1,1.3-.7.2-.4.7h-.8l-1,.6.2.4h.1Z"/>
  <path id="CU" class="st1" d="M128.9,125.3l-2.5.2,1.2-1-.4-.4h-2.2l.7-.3-.6-1.3-.8.2-1.1-.2-.9-.6-2.2-.2-.5-.5.5-.4h-1.4l-.8.5.9,1.3-.5.2-.8-1.2h-.9l-1,.6.3-.9.7-.5,1.3-.5,2-.3,1.3.2,1.1-.2,1.3.6.7.3-.2.4,1.7-.2,2.1,1.8,1.3.6h.9l.2.5,1.1.2.8.9-2.3.3-.9-.2h0Z"/>
  <path id="VN" class="st0" d="M430.6,122.8l-1,.4v.5l-1.2.7.2.5-.9.4-.5,1.7.9,1.2.6.2.5,1.1,2.3,2,.6.2,1,1.3,1.2,2.5v.8l.4.9-.4.4.2,1.2-.4,1-1.4.7-1.3.9-.9-.2.2.6-.4,1-1.6.7-.6.8-.6-.5-.2-2.1-1.6-.3h.9l.7-.2.2-.6,1.2-.2.7.4-.5-.9.2-.8.7.2.4-.5,1.3-.6-.2-1.2.2-.8-.6-1,.2-.9v-.9l-.9-.9.4-.2-1.7-1.8-1.4-1.1-1.9-1.9-1.5-.8.2-.6h1l.5-.7-1.1-.5.4-.4-1-.5-.6.5-.9-.3-.4-1.2-1.6-1.4.5-.6.9.5.4-.5,1.2.5,2-1.4,1,.7h1l.6,1.5,1.1.7,1.1.2.2-.4Z"/>
  <path id="MG" class="st1" d="M335.9,186l-.8,1.3.2.7-2.3,6-.9,1.9-.7,2.3-.9,1.8-1.4.4-1.1.6h-.7l-1.7-.9-.5-1,.2-1.6-.5-1-.2-.9.6-1.6,1.7-2.2v-.8l-.5-1.8-.2-1.6.9-1.3v-.8h.8l.7-.5h.6l2.4-1.2.6-.9v.6l1-1.9-.2-.5.5-.3h.9l.3-1.6.6-.9.5,1.1.6.7.3,2.4.4,1.6-.4.9-.5-.9-.4.2.2,1.6h-.1Z"/>
  <path id="EG" class="st1" d="M310.1,109.5l-.8,2.9-1.7-1.3-.2-.8-.7-.7-.4-.9-.2.6.6,1,1.6,2-.2.2.9,1.3v.5l2.7,4.4.4,1.7.9.5,1.1,1.1h-19.5l-.5-11.9-.5-1.6.5-1-.3-1,.5-.5,3.5.5.2.2,1.6.2.9.4.8-.2,1.3-.9h1.9l.9.7,1.6-.3.9.2.9-.3,1.2,2.6v.4h.1Z"/>
  <path id="SO" class="st1" d="M334.8,139.9l2.1-.5.9-.7.9.2-.3.5v1.4l-.2.5v1.5l-2.4,4-.5,1.5-1.8,2.7-3.1,3.4-1.7.9-2.5,2-1.5,1.6-1.7,2.3-.9-1.3v-6.1l1.4-2,.4-.3,1.1-.2.6-.6,1.4-.5h1.7l2.4-2.6,2.5-2.5,1.6-2.4v-3l-.4.2Z"/>
  <path id="IS" class="st0" d="M219.4,49.7l1.7-1.2,1,.2-.5-.5h.8l1.7.7-.5.6.9.5.9-.6.3-.6.6.6.5-.6,1.5-.2.9.3.7-.4h.9l.6-.6,1,.7h.9l-.2.6,1.6.4v.6l-1.5,1.3-1.2.2-1.8.7-1.6.2-1.6.6-2-.2-.5-.3-.9-.3-2.2.2,1.1-.5.5-.5-.9-.7-1.7-.2,1.8-.2.5-.6-.9-.2h-2.7.3Z"/>
  <path id="LK" class="st1" d="M386,145.1l.5-2.9,1,.8,1.1,1.4.8,1.5.2,1-.3.9-1.7.9-.9-.3-.4-1.1-.4-2.2h.2-.1Z"/>
  <path id="BW" class="st1" d="M286.4,199.7v-4.6h1.7l.2-6,3.8-.5.4.8,1.1-.8,1.7-.3.4.9.7.9.2,1,1.7.9v.7h.8v.9l.5.9,1.7.4.5.6-1.9.9-.8.9-1.3.7-.3,1-.7.6-.9.2-.6,1.4-1.3.3-1.4-.3-.8-.5h-.7l-.6,1.2-1.7,1.4h-1.6v-.7l.3-.5-.7-1.8-.6-.5h.2Z"/>
</svg>