<?xml version="1.0" encoding="UTF-8"?>
<svg id="Layer_1" xmlns="http://www.w3.org/2000/svg" version="1.1" viewBox="0 0 300 163.1">
  <!-- Generator: Adobe Illustrator 29.1.0, SVG Export Plug-In . SVG Version: 2.1.0 Build 142)  -->
  <defs>
    <style>
      .st0 {
        fill: #1e69d9;
        opacity: .5;
      }

      .st1, .st2 {
        fill: none;
        stroke: #ebebeb;
        stroke-width: .5px;
      }

      .st3 {
        fill: #999;
        font-size: 6px;
      }

      .st3, .st4 {
        font-family: -apple-system,BlinkMacSystemFont,sans-serif;
      }

      .st2 {
        stroke-dasharray: 2 1.5;
      }

      .st4 {
        fill: #7f7f7f;
        font-size: 5px;
        letter-spacing: 0em;
      }
    </style>
  </defs>
  <g>
    <line class="st2" x1="30.5" x2="30.5" y2="138.1"/>
    <line class="st2" x1="80.1" x2="80.1" y2="138.1"/>
    <line class="st2" x1="129.7" x2="129.7" y2="138.1"/>
    <line class="st2" x1="180.3" x2="180.3" y2="138.1"/>
    <line class="st2" x1="229.9" x2="229.9" y2="138.1"/>
    <line class="st2" x1="279.5" x2="279.5" y2="138.1"/>
    <line class="st1" x1="30.5" x2="30.5" y2="138.1"/>
  </g>
  <g>
    <rect class="st0" x="30" y="1.5" width="270" height="8.5"/>
    <rect class="st0" x="30" y="13" width="198.4" height="8.5"/>
    <rect class="st0" x="30" y="24.5" width="137.4" height="8.5"/>
    <rect class="st0" x="30" y="36" width="206.1" height="8.5"/>
    <rect class="st0" x="30" y="47.5" width="268.1" height="8.5"/>
    <rect class="st0" x="30" y="59" width="177.5" height="8.5"/>
    <rect class="st0" x="30" y="70.5" width="187" height="8.5"/>
    <rect class="st0" x="30" y="82" width="192.7" height="8.5"/>
    <rect class="st0" x="30" y="93.5" width="101.1" height="8.5"/>
    <rect class="st0" x="30" y="105" width="142.2" height="8.5"/>
    <rect class="st0" x="30" y="116.5" width="153.6" height="8.5"/>
    <rect class="st0" x="30" y="128" width="147.9" height="8.5"/>
  </g>
  <g>
    <text class="st3" transform="translate(148.2 161.6)"><tspan x="0" y="0">SCROBBLES</tspan></text>
    <g>
      <text class="st4" transform="translate(75.7 147.1)"><tspan x="0" y="0">250</tspan></text>
      <text class="st4" transform="translate(125.3 147.1)"><tspan x="0" y="0">500</tspan></text>
      <text class="st4" transform="translate(175.9 147.1)"><tspan x="0" y="0">750</tspan></text>
      <text class="st4" transform="translate(224.1 147.1)"><tspan x="0" y="0">1000</tspan></text>
      <text class="st4" transform="translate(273.7 147.1)"><tspan x="0" y="0">1250</tspan></text>
    </g>
    <g>
      <text class="st4" transform="translate(6.5 8)"><tspan x="0" y="0">January</tspan></text>
      <text class="st4" transform="translate(4.2 19.5)"><tspan x="0" y="0">February</tspan></text>
      <text class="st4" transform="translate(9.4 31)"><tspan x="0" y="0">March</tspan></text>
      <text class="st4" transform="translate(12.9 42.5)"><tspan x="0" y="0">April</tspan></text>
      <text class="st4" transform="translate(13.7 54)"><tspan x="0" y="0">May</tspan></text>
      <text class="st4" transform="translate(12.8 65.5)"><tspan x="0" y="0">June</tspan></text>
      <text class="st4" transform="translate(14.5 77)"><tspan x="0" y="0">July</tspan></text>
      <text class="st4" transform="translate(8.1 88.5)"><tspan x="0" y="0">August</tspan></text>
      <text class="st4" transform="translate(-.5 100)"><tspan x="0" y="0">September</tspan></text>
      <text class="st4" transform="translate(5.7 111.5)"><tspan x="0" y="0">October</tspan></text>
      <text class="st4" transform="translate(.9 123)"><tspan x="0" y="0">November</tspan></text>
      <text class="st4" transform="translate(1.1 134.5)"><tspan x="0" y="0">December</tspan></text>
    </g>
  </g>
</svg>