<?xml version="1.0" encoding="UTF-8"?>
<svg id="Layer_1" xmlns="http://www.w3.org/2000/svg" xmlns:svg="http://www.w3.org/2000/svg" xmlns:rdf="http://www.w3.org/1999/02/22-rdf-syntax-ns#" version="1.1" viewBox="0 0 550.2 232">
  <!-- Generator: Adobe Illustrator 29.8.4, SVG Export Plug-In . SVG Version: 2.1.1 Build 6)  -->
  <g id="unlistened" opacity=".3">
    <g>
      <path id="FO" d="M244.1,35.8h.3l-.2.4-.7-.5h.6,0Z" fill="#1e69d9" stroke="#fff" stroke-miterlimit="3.1" stroke-width=".3"/>
      <path id="IN" d="M407,120.9v-1.5l.2-2.6.2-.5v2l-.5,2.7h0ZM399.5,102.6h0l.2.6h-1.4l-.5-.4-1.2.5-.6.8.4.7-.9,1.2-1.2.4-.3-.3-2,2.7-.7.4-.6.8-1.5.9v.7l-.9.5h-.8l-.6.9h-.9l-.3,1.2.7,2.7-.2,1.4-.5.8.2,2.9h-.8l-.6,1v.6l-1.2.5-.2,1-.9.5-.9-.5-.8-.9-1.3-3.6-1.2-1.6-.6-1.3-.5-1.7-.5-1.2-.8-.9-.9-1.6-.4-1.5-.8-2.4-.6-2.4.3-1.1-.7-1.4.9-.6h-.9l-.4-1-.2,1.9-1.8.9-1-.4-2-1.7v-.5l1.5-.5.3-.6-1.1.3-1.8-.7-.9-1.1.9-.2v-.5l2,.2.9-.5.3.3.5-.7-.9-1.6-1-.5v-.9l-1.2-.5.2-.6,1.2-1.4.5.5,1.9-.3.5-1.3.9-.5.6-1.5,1.6-2-.2-1,1.2-.7-.9-.6-.2-.5h-.5l-.7-.6-.6-2,.8-.6,2.4.4,1.3-.4.5-.6,1.1-.6,1,1.5,1.1.4-.2.5.3,1,1,.5.3.6-.9.7-.9-.3.7.9.2,1h.8l.7.7,2.5,1.2-.9.8-.3,1.5.9.2,2.4,1.4,1.5.5,1.8.3.4-.3.8.3.2.5,2,.8,2.5.4,1.3-.6-.5-.6v-1.3l1.2-.2.3,1.1.5.9,1.2.2,3.1-.2.6-.2-.3-.9-.6-.5,1.6-.2v-.4l1.1-.9,1.3-.6.4-.5,1.1.5,1.3-.6,1.6,1.7.6.2.2.6-.9.9-.9.2-1.6,1.3v1.3l-.5.5.3.6-.7,2-1.3-.3.3,1.5-.4.2.2,1-.3.7h-.6l-.6-2.1-.4-.8-.8,1.3-.9-1.2.2-.8,1.2-.5.5-.9-.8-.5h-2.7l-.9-.3v-.9l-2.4-.9-.5.9,1.6,1.3h-.8l-.6.9,1.3.6-.2,1.1.6,1.1.3.9.2.9-.5-.3Z" fill="#1e69d9" stroke="#fff" stroke-miterlimit="3.1" stroke-width=".3"/>
      <path id="CN" d="M434.4,108.4l-.5.5-1.5-.6-.2-1.3,1.6-1.2,1.6-.3.6.8-.5.5-.2,1.2-.9.5h0ZM396.6,92.8h-1.6l-1-.4-.9.3-.6-.7h-.9v-.5h-.7l-1.2-1.1-.9.2-.7-.8-1.7-.7-.2-.4h-1.2l-.6.2-2.5-1.2-.7-.7h-.8l-.2-1-.7-.9.9.3.9-.7-.3-.6-1-.5-.3-1,.2-.5-1.1-.4-1-1.5h-.6l-1-.2-1.5-.6v-.7l-1.6-.9h-.9l-.3-.2.8-.2-.6-2.2h-1.5l-.6-1.5.3-1,1.2-.8,1.1-.2.3.5,1.4-.5v-.6l2.1-.2.3-.5,1.3-.7,1.3-.4v-.2l-.3-.8.8-.8-.9-1.5-.3-1-.6-.6,2.3-.5,1.3.4-.5-.7.4-2.7,2.8.6,1-.4v-.6l-.4-.9.2-.9,1.2-.2v-.9h1.1l.5-.2.5,1,1.9.9h.8l1.4.5,1.7,1.8.2.9-.2.9.5.6,2.2.2,2,.2.8.4,1.9.7h.6l1.3,1.7,1,.9,1.3-.2,3.7.4.8-.2,2.6.2.8.5,1.7.3,1.1.4,1.2-.2.2.3,1-.2,2.2-.9,2-.3h2.1l1.3-.5.5-.9,1.3-.6-1.2-1.3.5-1,2.7.5,1-1.1h1.7l.6-.6.3-.9h1.1l1.2-.7,2.3.2.2-.6-.6-.5-2.2-1.3h-1.3l-.2.3-1-.2-1.4.2-.8-.7.6-2.7,1.9.5,1-.7.8-.2-.2-.5.4-2.1.6-.8-.4-.7-1.3-.4.9-.8,3.3-.5,1.7.3,1.1.5,1.4.2,1.9,1.3v.3l1.4,1.1v.4l1.8,1.4.2.7.9.4,2.1.2,1.8.9,1.3.9v.4l.9.6h2.2l.6-.7,1.8-.5.6.2.5.9-.6.8.4,1.6-.2,1.1-.5.9-.6-.4-.9.2-1.3.6,1,1.3.4,1v1l-.9.2.3.4-1.3-.7.2.9h-.6l-.4.6h-1.3l.6,1.1-1.4-.2-.7-.5-.5.2-.5,1.3-1.5.7-.6.6-.2.5h-1.1l-1.3.6.2.3-1.9.9.6-1.1-.9-.2.8-.8.4-.8-.9-.5-1.1-.2-.7,1.2-1.3.5-.5,1.2-2,.2v.8l1,.8h1.3l.6,1.5.8.2,1.7-1.2,1.6.7.8-.2.9.2-.3.9-.5-.2-1.8.9v.6l-1.3.9-.5.9.9.8,1.1.4,1.6,2.2.2.5,1.8,1.2.3.9-1.6-.6,1.4.9.6.6-1.5.6-.2.6,1-.2.6.5.9-.8-.4,1.4.2.9-.6-.4.5,1.6-1.2.6-.2,1.3-.9.9-.2,1.6.6.2-.6.6-.9.2-.2.9-2.4,1.7-.7.2v.8l-.9.3-1.7-.2-.8.4.2.9-.7-.6-.6-1v1.3l-1.1.7h-.9l-.9.4-1.4.3-.6.6.4,1.1-.8.2-.6-1.2v-.9l-2.2-.7-.6.6-1.1-.2-1.1-.7-.6-1.5h-1l-1-.7-2,1.4-1.2-.5-.4.5-.9-.5-.5.6-.9.2.5.7v1.2h-.7l-.2-.6v-.3l-1.6.5-.6-1-1.3-.2.3-1.5-1.1-.2-.6-1.5-1.5.3-.3-.9v-1l1.5-1.4-.5-2.7h-.6l-.5-.9-1-.7-.3.5-.6-.2-1.6-1.7-1.3.6-1.1-.5-.4.5-1.3.6-1.1.9v.4l-1.6.2-2.4-1-1,.4-.9,1.3-.3-1.1-1.1.2-.9.6Z" fill="#1e69d9" stroke="#fff" stroke-miterlimit="3.1" stroke-width=".3"/>
      <path id="SW" d="M124.4,112.7h0Z" fill="#1e69d9" stroke="#fff" stroke-miterlimit="3.1" stroke-width=".3"/>
      <path id="SH" d="M448,113.9h0Z" fill="#1e69d9" stroke="#fff" stroke-miterlimit="3.1" stroke-width=".3"/>
      <path id="EC" d="M103,139.5l2.7.9-.5.3-1.7-.5v-.5h-.7v.9h-.8l.5-.7-.5-.5h1ZM123,136.6l.4.4,1.8.9.2.4,1.7.2.2-.3,1.6.9h-.5l.6.7-.5,1.7-.8.9-1,.8-2,.7-.8.7-.5,1.9-.6.7-.8-.8-1-.4-.4.3-.2-.6.5-.3-.3-.9.7-.3.2-.9-.8.6v-.5l-1.1-.7.3-.6-.4-1.4.6-.3v-.8l.8-.8v-1.1l1.5-.6.6-.5h0Z" fill="#1e69d9" stroke="#fff" stroke-miterlimit="3.1" stroke-width=".3"/>
      <path id="BU" d="M122.1,112.8h0Z" fill="#1e69d9" stroke="#fff" stroke-miterlimit="3.1" stroke-width=".3"/>
      <path id="MV" d="M376,130.3l-.4-.2.2-.3.2.2v.2h0Z" fill="#1e69d9" stroke="#fff" stroke-miterlimit="3.1" stroke-width=".3"/>
      <path id="SP" d="M445.6,121.1h0Z" fill="#1e69d9" stroke="#fff" stroke-miterlimit="3.1" stroke-width=".3"/>
      <path id="GR" d="M296.8,80.2l-1.3.7h-2.2v-.2l-1.9-.3,1-.5,2.4.3.2.4,1.9-.5h-.1ZM286.9,71.5l.2-.2h-.4l.2-.2h0l1.3-.4h1.3l.3-.4,2.4-.4,1.2.5,1.4-.2.2-.6.6.6-.9,1.1-1.2,1.2.4-1.4-.8-.2-.4.6-.4-.6-1.3.5,1.2.8-1.1-.2-.6.2-1.3-.5v.7l1.3,1.4-.5.2,1.8.7.5-.5.3.3-.7.4,2,1.9-2.4-1.5.2,1-1.4-.5v.6l.6.4-1.3-.3.9,1.9-1-.6v.5l-.7-.9-.4.5-.5-.5v-.8l-.8-.5.4-.6.9-.2,1.5.6.5-.2-2-.5-1.3.2-.5-.9-.4.3h0v-.2l.9-.4-1.7-.4-.9-.9.6.2.6-.2.9-1.4h.3ZM286.5,74.9h0ZM286.5,74.9l.3.9-.2.5v-1.3h0ZM294.2,78.2h-1.3l.3-.6,1.3-.3.7-.8-.2-.9.2-1.4-.5-.4.8-.2v.7l-.3,1.3.2.9,1-.3.4,1.6-.2.2-.5-1.7-1,.4v1l-.7-.2-.3.6h.1Z" fill="#1e69d9" stroke="#fff" stroke-miterlimit="3.1" stroke-width=".3"/>
      <path id="GL" d="M217.9,22l-1.7.6.8.2.7-.4h.6l1.5-.3,2.2.6h1.7l-1.3.7-1.2.2-3.2,1.4-2.4.2-2,.5-2.4.3-.9-.2-.9-.9.4.9-2,.9v.4l-.9.9-1.3.7-2.6.9-.2-.4-.9.9-.2-.4-1,.4.3-.8.9-.6-1.2.2v.5l-.9.4-2.4.4.9.2-1.2.6-1.1-.2.7.4-.5.9v.9l-.9.3v.5l-1.8,1.1-.9,1.4-.2.9h-.9l.6.5-.4.5-.9.2v.9l-1.3.2-1.7-.7-.6-.8-1.6-.3h-1.7l.2-.5h-1l-.3-.9.2-.6-1.3-.6.5-.8-1.1-.3-.5-.6.6-1.5-1.3.4.6-1.4-1.7-1.9.2-.6.7-.4,1.3-.3h-1.9l-.3-.2,2.7-.5-2.4.2.5-1h.8l.2-.6,1.7.2.7-.2h-1.3l.2-.8,1.7.2.4-.9,1.2.2-.2-.5-.6.2.3-.8-.6.2v-.7l-1.2-.2-1-.5h-.8l-.8-.6.9-.2,2,.2,1.1.5.4-.8h-.9v-.4l.8-.4-1.7.4.7-.9-.7.2-1.1-.3.6.9-.5.2-.5-.6h-1.5l-.5-.5,1-.7.3-.5-.7-.6,1.9-.2-1.3-.2.9-.7-1-.2v-.4l.5-.9-1-.6.2-.3-1.3-.2-.4-.6.5-.5-2.7-.7-3.1-.4-.9.4-2.6-.2-.7.6-2.4-.2-1.3-.5v-.7l-1.5-.3,1.1-.8,2-.3-2.1-.2-1.6-.6.9-.6,4.2-.5,2-.5h2.6l1.8-.7.4-.9h-2.4l-.2-.5,3.4-.8.6-.3,2.4-.4,1.6.2.9-.2.6-.5-.6-.4,3.8-.6,5.2-.4.8.4-.9.9,1.3-.6.3-.7,1.8.5h-1l1.9.5-.7-.4h1.9l-1.1-.3-.2-.5h2.4l.2.2,2.8.6.8.4h1.2l-.7-.4.3-.2-2.3-.4-.3-.7,3.2.6-.6.5,1.5-.5-2-.6h5.6l-5.3-.2-1.3-.2,1-.2.9.2.7-.3,3-.2h2.6l1.1.3,2.2-.2h-2l.2-.5,2.4-.2,4.9-.2h2.1l5.5.5-.6.2-5.4.2-5,.3h3.7l2.1-.3h5.6l.7.5,2,.2,1.5.2-1.4.5-8.8.4-3.6.5h1.3l4.8-.4,3.6.2-.2.3-2,.3-.2.3,3.2-.5.8-.5h2.2v.9l-2.5.9,1.4-.2,2.7-.9,1-.5,1.5.2.6.5,1.8-.6h2.2l2.2.3.7.3-2.4.7h-1.4l.2.4-1.4.2h-2l1.5.4-.9.3-2.7.2-2.1.4.4.4h.9l-.5.5.8.2-.8.9h-1.9l-.9,1.3.4-.2,2.1.2v-.6l1.5-.5-.9.5v.4l-.6.9-1.8-.2.4.5,2.6.3-.6,1.1v.9l-.5-.9.3-.5-2-.3-1.6.5-.6-.3-.7.3,1.3.2-.2.5h2.3v.5l.6.9,1.3.2,1.2.5h-1.4v.6l-1.5.6-2.5.3h-1.3l2,.3v.7h-1.3l-1,.4-2.1-.5-1.7.2-1.2.4,1.3.2-.9.3,1.3.4v.4l2.7.9-.8.3h1.5l-.7.2v.5h.7l.3,1.3-2.6.2-.7-.3-.3-.8-2-.8h-1.3l1.3.2v.5l-1.6.3-1.5.2-.6.8,1.8-.2h-1.6l.6-.4v-.2l1.9-.2.9-.2.5.7-1.6.3h-.5ZM218.2,20.2h0l-1.3-.7h-.8l1.4.5-.5.2h1.2ZM223.4,17.7l1.6.3v.3l-1.6-.3h-1.8l1.8-.3ZM233,6.2l-1.6.5-1-.2,2.1-.4.5.2h0ZM221.9,18.5l-.2-.5h1.7l1.5.6h-.9l.5.5-2.5-.7h-.1ZM223.4,17.4l-2.2-.2,2.5.3-2,.2-1.6-.2.6-.4h1.1l1.5.3h0ZM179.9,22.2l2.1.3,1.5.6-.2.5-2.3.5-1.4-.5.2-1.3h0Z" fill="#1e69d9" stroke="#fff" stroke-miterlimit="3.1" stroke-width=".3"/>
      <path id="PR" d="M146.5,108.9l-.8.2h-2.1v-.8h2l.9.5h0Z" fill="#1e69d9" stroke="#fff" stroke-miterlimit="3.1" stroke-width=".3"/>
      <path id="UM" d="M130.7,108.4h0Z" fill="#1e69d9" stroke="#fff" stroke-miterlimit="3.1" stroke-width=".3"/>
      <path id="VI" d="M147.5,109.5h.3l-.6.2v-.2h.3Z" fill="#1e69d9" stroke="#fff" stroke-miterlimit="3.1" stroke-width=".3"/>
      <path id="CV" d="M214.7,113.6l.4.3v.3l-.4-.2v-.5h0Z" fill="#1e69d9" stroke="#fff" stroke-miterlimit="3.1" stroke-width=".3"/>
      <path id="DM" d="M152.7,113.1l.2.3-.2.3-.2-.5.2-.2h0Z" fill="#1e69d9" stroke="#fff" stroke-miterlimit="3.1" stroke-width=".3"/>
      <path id="SC" d="M330.8,154.6v.2h-.3.3v-.2Z" fill="#1e69d9" stroke="#fff" stroke-miterlimit="3.1" stroke-width=".3"/>
      <path id="OM" d="M345.5,97.1h0v-.2h.2v.2h-.2ZM345,95.8l.4-.5v1.3h-.2l-.2-.7h0ZM339.3,107.5l4.8-1.7.9-3.3-.9-1.2.7-2.6v-1l.9-.2.4.8,1,.9,2.7.7,1.9,2.2-.6,1.3-1,1,.5.5-.5.2-.9-.3-.6,1.4.3,1.1-1,.2-.9.5-.4,1-1.5.2-.6,1.4h-1.6l-1.6.6-.7-1.1-1.3-2.8v.2Z" fill="#1e69d9" stroke="#fff" stroke-miterlimit="3.1" stroke-width=".3"/>
      <path id="VC" d="M152.8,117.4l-.2-.3.2-.2v.5Z" fill="#1e69d9" stroke="#fff" stroke-miterlimit="3.1" stroke-width=".3"/>
      <path id="SB" d="M521.1,155l-.7-.8-.4-1.3.6.5.8,1.7-.4.9,1.1.4.2.6-.7-.2-.8-.6.2-1.2h.1ZM517.4,154.2l.9.3.8-.5,1.1,1.2-.3.3-1.3-.2-.3-.7-.8-.4h-.1ZM513.8,152.5l-.5-.8,1.6.6.6.9-1.2.2.3-.5-.9-.2v-.2ZM516.2,151.4l.6.2,1.9,1.3v.4l-1.6-.9-.4-.5-2.4-.5-1-1,.9.2.2.5,1,.5h.7v-.2Z" fill="#1e69d9" stroke="#fff" stroke-miterlimit="3.1" stroke-width=".3"/>
      <path id="LC" d="M153.3,116.3l-.2-.3.3-.4v.7h-.1Z" fill="#1e69d9" stroke="#fff" stroke-miterlimit="3.1" stroke-width=".3"/>
      <path id="KN" d="M150.9,110.5l-.5-.2v-.2l.3.2.2.2Z" fill="#1e69d9" stroke="#fff" stroke-miterlimit="3.1" stroke-width=".3"/>
      <path id="BH" d="M335.9,95.5h.2v.7l-.2-.3s0-.4,0-.4Z" fill="#1e69d9" stroke="#fff" stroke-miterlimit="3.1" stroke-width=".3"/>
      <path id="MU" d="M348.5,172.4v.6h-.6l.3-.8h.3v.2Z" fill="#1e69d9" stroke="#fff" stroke-miterlimit="3.1" stroke-width=".3"/>
      <path id="RU" d="M489.8,54.7l1.2-.2-.4,1.2-.8.9.2.5-.6,1,.9-2.7-.4-.7h-.1ZM322.2,24.5l-2,.4-.6-.9,1.2-.4,1.3.4v.5h.1ZM483.4,23.2l-.3.3-1.9-.4.2-.3,2,.4h0ZM333.9,22.2l1.7.6.2.4h-1.3l-1.6-.6-.3-.4h1.3ZM495.2,21.1l-1.3.3-.8-.7.9-.5,1.2.9h0ZM15.6,20.2l1,.6-1.1.3-2.2.2-.7-.2,1.2-.9h1.8ZM347.2,17.2l.8.2-2.2.3-.2-.6,1.2-.2.4.2h0ZM401,15.6l-.3.5-2.1-.5.4-.3h1.8l.2.3ZM322.8,6h-1.5v-.3l1-.2h1.8l1.1.2-.9.2h-1.6.1ZM319.4,5.6l-.9.3-1.7-.2.8-.2h1.8ZM320.7,4.4h3.1l-1.7.7h-1.3l-2.4-.3,2.2-.4h0ZM330.8,4.2l1.3.5-.9.3h-1.7l-.9-.2,1.7-.2s.5-.4.5-.4ZM322.2,3.4l1.3-.2-1.1.8.2.4h-2.3l.9-.2.2-.5.9-.2h-.1ZM364.4,6.3l.5-.2,2.6.2-.9.5-2.1-.5h-.1ZM326.7,3.5l1-.2-.4,1.2,1,.7-1,.3-2.3-.2.8-.5s.9-1.3.9-1.3ZM437.6,16.2h-.5l-1-.4h.8l1,.6h1.2l2.4.5.4.6-2.4-.2-1.6-.3-.2-.8h0ZM311.3,5l-2,.5-1.4-.4,3.7-.3-.3.2h0ZM445,14.1h.6l2.5.2.2.4-1.5.2h-1.4l-3.6-.9-.2-.6,1.4.4h1.4l.7.2h-.1ZM457.8,68.4l-.3-.4.9-.2v-1l-.4-1-1-1.3,1.3-.6,1,1.1.4-.9.5-.9.2-1.1-.4-1.6.6-.8-.5-.9-.6-.2-1.8.5-.6.6h-2.2l-.9-.6v-.4l-1.3-.9-1.8-.9-2.1-.2-.9-.4-.2-.7-1.7-1.4v-.4l-1.5-1.1v-.3l-1.9-1.3-1.4-.2-1.1-.5-1.7-.3-3.3.5-.9.8,1.3.4.4.7-.6.8-.4,2.1.2.5-.8.2-1,.7-1.9-.5-.8-.3-1.2.2-2-.6-1.3.8v.3l-2.5.4-.8.4-2.5-.3h-.9l-1.2-.5-.2-.5h-1.1l-1.1-.6-2.1-.2-2.3.6-2.4-.8-.6-1.2-2.8-.7h-.8l-2-.6-.9,1.1v.8l1,.8v.7l-1,.5-2.4-.5-.5.2-1.5-.2-.8-.9-2.5-.2-.5-.4-1.3.7-2.4.9.2.3-1.1.5h-1l-.4.4h-.5l-.2.2-1.4-.9-.5.2-1.5-.2-.6-.9-1.3-.3-.9-1-.6-.2-1.9.5h-1l-.7-.8-.7-.2-.9.9-1.1-1.2-3.4-2.9-2.4-1.2v-.8l-2.1,1-1.1.4-1.6-.2.2-.5-1.6-.3h-2l-.2-.9-.9-.9-.8.2-.9-.3-2,.2v.4l-3.1.6h-.8l-.2.5h-1.8l-1.3.4-3.1.4.5,1,1.3.2-1.9.7.7.5-1.2.8.7.5,1.5.3v1l-.9.2-1.2-.3-.2.5-1.3-.3-.6-.5-1.3-.2-.3.5-.5-.4h-1l-1.1.9-1.7-.9-.2.3-2-1.1h-1.3l-.3-.4-.8.4-1.8-.2-.2.6-1.3.3v.5l-1,.5.5.9-.6.4-1.5-1.1-.8,1.1.4,1-.6,1.3.9.2.2.8h1.4l1.8,1.7-.9.2,1.3.6-1.4,1h-.9l-.5,1.3-.6.6,1.6,1.5v1.2l2,2-1.1,1.1-.8-.2-.9-.9h-.6l-1.3-.6.2-.4-1.5-.5-1.3.3-1.9-1h-2l-1.5-.6-1,.3-1.7-1.3-1.2-.4-.8-.6-2-.7,1.4-.3.6-1.1.9-.2-1.3-.6.9-.5,1.3-.3v-.4l-1.7.2.2-.9.6-.4h1.4l.3-.6-.6-.9.4-.2v-.9l-1.5-.6-1.6-.3-.2.2-.9-.9-1.2.3-1.5-.2-1.1-1.5h-1.3l.2-.9-1.1-1h-2.1l-.9.4-1-1.5h1.3l.8-.7-1.5-.6-1-1.4-.7-1.6-4.2-.9v-.7l-.9-.5.2-.7-.8-.4.2-.5.2-.3v-2l.2-.2h.4l-.2-.2h0v-.5l1.5-.4,1.5.2-.6-.5-1.7-.2-.2-.8-1.2.3,1.8-1.2,2.6-2,.4-.7-.6-.5-1.9-.9.7-.5-.8-.6v-.5l-.9-.5v-1h.6l-.4-.9-1.3-1.2,1-1.4-1.1-.6-.9-.2-.4-.5.5-.8,1.3-.5.2-.5.9.2-.2-.5,1.3.2.2-.5,1.6.4-1.5.2,3.1.3.7.2,1.8.2,2.5.7,1.2.6,1.8.3,2,.8.6.8v.7l-.9.6-2.4.6-4.6-.6-.9-.3-1.9-.2-1.3-.6-.2.4,1.2.3.6.6,1.4.4.6.6-.5.5.9.9.7-.5h1l.3.4.7-.5,1.6.6,2.3.5,1.1-.4-1.2-.9v-.4l2-.8,1.5-1.1.2.5h.9l1.5,1-.2-.7.3-.7-.5-.6-.6-.2v-1.8l-1.3-.6,3.6.3,1.4,1-1.9.2-.3.7,1.4.7h1.1l1.5-.2-.2-.9,1.2-.3,2.5-1.2,1.8-.2,1.4-.6,1.2-.2-.6.6.6.5-1,.2,2.1.2.4-.6,1.1-.3,1.9.2,1.8-.7.9.4-.3.6h.9v-.6h.8l.3-.6-1.3-.8.9-.5,4.6.5,2.4.7,2,.4,2.1.9.9-1h-1.1l-.9-.9-1.7-.2-.2-2h-.9l-.2-.9.8-.2.9-.6v-1.5l.6-.3h2.6l1.9.3.4.7-.2,1.1-.5.2,1.4.6.8,1.2-.3.2,1.3,2.3,1.8.6-.5.5.4.8-.6.2-.2.8-.8.5.2.4-2.1.4,3.1.3.2-.6,1.3-.4.2-.8.9-.6-1.2-1.7,2.4-.6,1.7.8.3,1.3,1,.4h1.3l-1.7-.3v-.8h.5l-1.2-1.1-3.2-.6-2,.3-1.2-1.2v-.6l.5-.6-1.7-1.2-.9-.3.3-.6,1.6-.5v-.4l-1-.9.3-1h1.8l-.9,1.3.7.7v1l.3.6,3.5.3.9.4-.5-.5-3-.6-.7-.6,1.1-.2,1.1.3.4-.4-1.8-.5.7-.5,1.2.2.4-.9.7.2-.2.9h.5l3.8,1.1h2v.5l-.9.2.9,1.1v-.6h.6l.3,1,.9-.2-1.6-1.3.2-.6-1.5-.5-1-.6-2.3-.5-.2-.6-.9-.5v-.6h1.7v-.7l1.1-.2,1.8.3.2.5,3.4-.3-.8-.9-1.3-.4.3-.6h1.2l2.2-1,4.2-.5-1-.3h2.8v-.9h-1.3l.2-.7.9-.2-.5.7h1.3l-.2.7h.8l-.2.6,3.2-.5,1.5.3-1.8-.8h2.7l-.6-.9,1.6-.9h1.9l1,.2v-1.1l.6,1,1.3.3-.2.5h.9l.2-.5.9.7-.6.6h1.7l-.2-.3h3.1l2.6.2,1.5.6v-.3l2,1.4-1.9-.5.7.5h1.2l.4.5-3.3,1.6-1.4,1.2h-1.2l-.5.8h1.9l3.4-.9h-1.9l.2-.6,3.5.6.8-.3.9.6,2.3-.3,4.2.2.3.5,2.9.5h3.9v-.4l-.9-.6,1-.4,2.1.6.9-.2h2.4v.3l2.5.5.5.9.9.4-.5.2-2-.5,5.3,2.4,1.7.3.2-.2-.2-1.7,2.2.8h1.2l1.6-.3,2.9.2.8-.2.9.4h1l-2.3-1.3v-.6l1.8-.2-1-.5,1.3.2,5.5.3,2.3.3-.6.7.7.2.4-.9h1.7l2.1.3.8.4-.9.3,2.5.3.4.4h1l1.8.7h2l2.6-.4h2.3l2.7.5,1.3.4.9-.4-.3.6.5.9,1.3.4,2.3.2.6-.2,2-.2,1.4.3,3,.2.7-.5,1.8.9,1.5.2,1,.5,1.3-.5-1.6-.9-.9-.9,3.2.2,3.9.2,1.5.2,4.7.9,1.6.5,7.3,6.4-1.1.7-3.6-.3.9.5h.9l1.5.6.2-.2,1.3.7,1.2,1,1.2.3,1,.7-.4.6-2.7-.3-.8.2-2.1,1.1-1.3.2.2.3-1.1,1.1-1.4.7.4.8-1.7-.7-2.4-.3-1.5.5-.6.8-.5-1.1-1.3.7.3,1.4.6.6h-.6l-1,1.5,1.3.5-.3.6.6.9h.7l.9.9h-1.7v.9l1.4,1.3-.2.6h-1.6l-.6.6.4,1.5-1.1.6.5.9-.4,1.3-.9.9-.6-.5-1.1-1.6-1.3-1.2-3.4-3.9-.5-1-.4-1.4.6-1.1-.7-.6h.9l1.5-1.1.3-1.2,1.6-1.8-.2-.3,1.4-1,.3-.6-1.2-1.5v-.7l-1.6.2.6,1.2-2.4,2-.2-.7-.8.2-.5-.6.3-.5-.5-.7-.7.6-.6-.5-2.6.2-.8.4.5.6-1.4,1.4-.4.8.2.6h1.3l.7.6-1.5.2-1.3-.2-.2.6-1-.3-1.2.4-.7-.5-.8.2.2-.8-2.4-.5-.9.5.3.4-1.4-.3-.4.3-2-.3h-3.5l-1.6.3-.8,1-.7.4v.9l-1.8,1.4-.7,1.5-2.3,2,1.1.6h1.7l.6,1.3.6-1-.8-1.3,1,.3-.2,1.6.8.2-.3.7h.9l.5-1.3h1.6l3.5,1.9.4,1.3.6.2-.4.9.3,1.9.9,1.6.4,1.8-.9,1.2-.5,1.2v1.4l-2.2,3-.2,1.1-1.7,1.4-1.1.3-1.5-.3-.2-.7-.5.6-.3-.6-.5,1.2-.6.6-.2-.2-.3-.2,1,.4ZM283.4,48.6l.9-.4-1.1.4h0l.5-.9,1.3-.5h0l-.6.5h1.1v-.5l2.4.6v.9h0l-4.4-.2h0ZM481.1,65.3l2.7-1.8,1.2-.2.5-.8.8-.3-.9,1.1-1.8.6-1.4,1.3.3.9-.4.2v-1.2l-1.1.4-.5.9-.3-.2.6-1.1.4.2h-.1ZM324.1,18l-.4-.4,1.3-.2-1.1-.8,2.8-1.3-1-.2,1.3-1.3,1.7-.5.6-.4,2.4-.2-.2-.4,1.8.2,2-.2,1.6-.5,1.3-.6h1.9l1,.6-1.8.8-6,1.1-1.3.5-.4.7-1.2.2v.3l-1.4-.2,1,.6h-.6l-.4,1-1.2.6-.8,1.5,1.7,1.8,2.4.9-.4.3-2.6-.4-.2.3-2.7-.5.5-.5-.9-.3v.5l-2.4-.9-.3-.6,1.2-.2-.2-1.3h1ZM472.4,60.9l-.5-.9v-.6l-1.1-1.5-.4-1.3-.9-1.5-.2-1-1.3-.9-.6-1-.2-1.1-.6-.5h1l.2-.6-1.3-.9.6-.2,2,2.1,1,2.1,1.1,1,1.3,1.6,1.3,1.3.9.9-.9-.5-1.3-.2v2.3l.9.9,1.7,1.5-1.6-.2v1.2l-.9-1.1v-.8h-.2ZM3.2,30l-2,.9,7.3-6.4,1.1.4v.8l1.3.2v.8l1-.2.5.7-1.3,1.9.9-.3.9-.9-.5-.2,3.7.2v.4l1.2,1.2-1.3.2-.5.5-2.4.2-.7.8-.8.3-.4.7-1.9.2-1-.7-1.3-.5.6-.7-1.2-.3-.9.2h-1.5l.4-.9-1-.2-.2.8h0ZM437.8,13.1l2.5.6-.8.8-1.7-.2-.9-.3v-.6l-.9.2,1.7.8,1.6.2-1.5.2-1-.3-2,.3-.9-.2.2.4-1.8-.2-2.7-.9h.7l-1.1-.6-.8.5-.6.2-.6-.9,1.1.4,2.3-.9,1.8.5,1.6.2-.3-.8,2.2.5h1.9,0ZM381.1,7.6l1.4.5h.9l.7.5-.4.3-4.2.2-1,.4-1.1-.2.5-.5-.2-.5.7-1.2h1.7l.2.5.9-.2v.2ZM368.7,6.1l3-.2,1.5.5.7-.2,1.6.6.2.8,1,.5-.4.2h-2l-1.4-.3h-2.2l-1.7-.8h-1.7l1.4-1h0ZM310.9,5.4l2.5-.3-.9-.2,1.4-.4,1.9.5-2.2.3,1.5.9h-.6l-1-.6h-.8l-.3.5h-.9l-1.4-.4h1.8l-1-.2h0ZM367.7,6.3l-3.7-.7,1.3-.2-.3-.4-.2-.4,2.7-.5,3.7.9h-.9l.8.8-3.1.2-.4.3h.1Z" fill="#1e69d9" stroke="#fff" stroke-miterlimit="3.1" stroke-width=".3"/>
      <path id="TT" d="M153.3,120.5l-.4.8v.9h-1.3l.6-.3v-.8l1.1-.6h0Z" fill="#1e69d9" stroke="#fff" stroke-miterlimit="3.1" stroke-width=".3"/>
      <path id="BS" d="M127.7,97.5l-.6,1,.5.5-.4.5-.7-1.5.5-.8.7.2h0ZM129.4,96.9h-.4l-.9-1,.3-.7-.4-.7-2,.5.5-.3,1.6-.3.7.6-.3,1,.9.9h0ZM131.5,100.7l1.7.6,1.2.6-2-.8h-.8l-.2-.5h.1ZM131.3,100.2l.2.5h-.2v-.5ZM131.3,100.2l-.5-1.2h.4v1.2h.1ZM131.2,99h1.3-1.3Z" fill="#1e69d9" stroke="#fff" stroke-miterlimit="3.1" stroke-width=".3"/>
      <path id="PW" d="M471.7,134h0Z" fill="#1e69d9" stroke="#fff" stroke-miterlimit="3.1" stroke-width=".3"/>
      <path id="CL" d="M138.2,169.5l.7-.2.2-.9.6-.4.6,1.1.4,1.3.9.8-.4.5v1.1l1,1.4.8,2.6h1.2l.3.3-.4,1.7-1.4.6-.5.6.4.5-.3.5.5,1.2-.2.7.5.6-.8.4-.5,1.3-.6.8v1.1l-.4.5.4,1.6h-.4l-.4,2.1,1.3,2.1.6,2.3h-.3l-.3,1.6.2,1.5-.9.7-.2.8.2,1.2.8,1.7-.7.4v1.2l-.3,1.8.4,1.5.4.8-.5.3.2,1.2.7.3-.2.5.5.8v.8h.9v.6h-1.2l1.3.9-.6.7.4.4v2.1l-.5.3-.2.8.5.7-.2.8-1.1.9.2,1.3.9,1,1.3-.2.2,1.5,1,.7h3l2.4.6-1.1-.2-2.1.9v1.8l-1.7-.2-.5-.3,1.4-.6-.3-.5-1.4.7.2.5-1.3-.6v-.2l-2.2-1.7,1.2.3-.8-.8-1.3.5v-.8l.5.4.7-.4v-1.1l-1-.8.2,1.5-1,.5v-.5l.9-.2-.9-.6.3-.5h.5l-.5-.5.5-.2.2-.9-.5-.2-.3-1.3-.6-1h1.3l.2-.3-1.9-.2.6-1.2-2.6-.6,1-.9-.3-.4.8-.7,1,.3.8-.6-.6-1.1.7-.6-.6-.2.4-.9-.4-.2.4-.8-.3-1.3.4-.3-.9-.9-.3.6h-.9l-.6-1.4v-1.6l.6-.8-1.3-2.9v-.9h.5l.5-2.7.5-.7v-1.7l.6-1.1v-1.8l-.9-3,.5-1.1-.6-1.7.7-2.2v-2.7l.3-.9-.3-1.1v-1.6l-.3-1.1.3-.2.2-2.7-.3-1v-1.3l-.7-2.7v-.2ZM144,227.2h0l.5-.5h0l1.6-.4h-1.1l-.5.4h-.4l-.2.5h0ZM154.9,230.7l-.6.2-1.6-.2-.3-.6h1.3l1.2.5h0ZM139.3,212.1l-.2.7.5.3v1.2l-.8-.3v-.5l-.9-.3.9-.6.4-.6h.1ZM143.6,227.5l-1.3-.3-.7-.6,1.3.5,3,1.3-.9.6-.9-.8-.5.2-.2-.8h.2ZM138.8,209.4l.3.7v1h-.7l-.9.5.6-1v-1.8l.5-.2.5.9h-.3ZM149.9,230.5l.2-.3,1.4.2,1.4.9,1.5.4-.9.2-.9-.6-1.1-.2v-.4l-1.3.3-.4-.5h.1ZM138.5,218.5h.6l1,1.8.5,1.6-.5.2v.6l-.5.6-.2-.9.5-.5-1-.5.2-.6h.7l-.8-1.1h-.5l-.2-.9.4-.4h-.2ZM150.7,226.4l1,3.5h-.2.2v.2l-1.6-.2-1.1.4-1.5-.8v-.5l-.9.2-.6-.4.2-.4,1.6.4.5-.9.5,1.3,2,.2-1.7-.5-.3-.6.9-.6-1.2.2-.5-.7.9-.4.3-.5.5.4h.7l.3-.3Z" fill="#1e69d9" stroke="#fff" stroke-miterlimit="3.1" stroke-width=".3"/>
      <path id="GD" d="M152,119h-.2v-.2h.3v.3h-.1Z" fill="#1e69d9" stroke="#fff" stroke-miterlimit="3.1" stroke-width=".3"/>
      <path id="EE" d="M286.9,41.6l-.9-.4.8-.2.7.4-.5.4,1.1.2-1.7.6-.6-.6,1.1-.3h0ZM294.6,40.2h0l.2.2h-.4l-.2.2v.3l-1.2.3,1.2,1.3-.2.3-.2.5h-1.3l-1.9-.9-1.4.4.2-.8h-.8l-.7-.4-.2-1.1,1.6-.4h1.2l.4-.3,1.7.3h2Z" fill="#1e69d9" stroke="#fff" stroke-miterlimit="3.1" stroke-width=".3"/>
      <path id="AG" d="M152.3,110.6l.2.2h-.3v-.2h.2,0Z" fill="#1e69d9" stroke="#fff" stroke-miterlimit="3.1" stroke-width=".3"/>
      <path id="TW" d="M449.1,99.9l.8-.4,1-2.1.9-.4.5.3-.2,3.2-.6,1.3v.8l-1.6-2v-.7h-.8,0Z" fill="#1e69d9" stroke="#fff" stroke-miterlimit="3.1" stroke-width=".3"/>
      <path id="FJ" d="M549.3,166.2h.8l-.7.5-1.3.5-.2-.4,1.4-.7h0ZM548,168.5l-1.4,1.2.6.7-.6.2-.2-1.2-.9-.3v-.4l.7-.7,1.1-.2.6.6h.2,0ZM548,168.5h0l.9.2-.9-.2Z" fill="#1e69d9" stroke="#fff" stroke-miterlimit="3.1" stroke-width=".3"/>
      <path id="BB" d="M155.7,117.4l-.2-.2v-.4l.3.4v.2h-.1Z" fill="#1e69d9" stroke="#fff" stroke-miterlimit="3.1" stroke-width=".3"/>
      <path id="MT" d="M276.7,79.2l.3.2v.2h-.2l-.2-.3h.1Z" fill="#1e69d9" stroke="#fff" stroke-miterlimit="3.1" stroke-width=".3"/>
      <path id="PG" d="M510.4,148.1l.7.2.2.5,1.1,1v.5h-.9l-.2-.7-.8-.7-.2-.8h0ZM503.7,143.5l-.4-.5,2.4,1.1.5-.6.4,1.3,1.5,1.4-.5.9-.2-1.1-.6-1-2-1.3-.9-.2h-.2ZM487.4,154.2l.3-4.6.2-6.2,1.8.8,2.4.6.8.6h.8l2.1,1.7-.2,1,1.9.6.4-1.1.3,1.3.8.6v.6h-1.5l.3,1.3.8.8.7.2v.8l.6.9h1.2l-.2.7,1.3.2.6-.5h.6v.7l.5.7-1.5.3.9.2-1.2.3-.2-.4-3.5-.5-1.4-1.1-1.5-2.4-3.8-.8.3.6-1.1.6v1l-1.3.6-.7-.3h-2l.5.2ZM506.3,148l-1.9,1.1-1,.4h-1.3l-.9-.2-.5-.5-1.1-.3.2-.4,1.7.3,1.1-.2.3-.8.2.9,1.4-.2.6-.9h.6l-.2-1.2,1.5.2-.2,1h-.6l.2.7h-.1Z" fill="#1e69d9" stroke="#fff" stroke-miterlimit="3.1" stroke-width=".3"/>
      <path id="VU" d="M529.5,165l.2.8.6.5-.6.2-.2-1.4-.8-.2-.2-1.3.3.5.5-.4.2,1.2h0ZM530.8,166.7h0ZM530.9,166.7l.4.4-.5.9.2-1.3h-.1ZM530.9,166.7v-1.1l-.3-.8.5-.5v1.9l-.2.5h0Z" fill="#1e69d9" stroke="#fff" stroke-miterlimit="3.1" stroke-width=".3"/>
      <path id="SG" d="M426.3,136.6h.2l-.2.3h-.3l.3-.3Z" fill="#1e69d9" stroke="#fff" stroke-miterlimit="3.1" stroke-width=".3"/>
      <path id="CY" d="M307.8,80.9h0ZM308.2,80.9l.2.2h-.3l-.2-.2h.3ZM307.8,80.9h0ZM307.7,80.9l-.2.3-.9.3-.2-.2h-.2l-.8-.6.5-.2h1.3l.5.3h0Z" fill="#1e69d9" stroke="#fff" stroke-miterlimit="3.1" stroke-width=".3"/>
      <path id="KM" d="M325.8,158.9l-.4-.3v-.6h.3v.9h.1Z" fill="#1e69d9" stroke="#fff" stroke-miterlimit="3.1" stroke-width=".3"/>
      <path id="VA" d="M273.4,69.5h0Z" fill="#1e69d9" stroke="#fff" stroke-miterlimit="3.1" stroke-width=".3"/>
      <path id="SM" d="M273.3,66.2h0v-.2h0v.2Z" fill="#1e69d9" stroke="#fff" stroke-miterlimit="3.1" stroke-width=".3"/>
      <path id="AZ" d="M324.6,70.9h-.2.2ZM324.9,71h0ZM324.5,73.2v-.2l1.6.3.7,1.1-1.2-.2s-1.1-1-1.1-1ZM326.5,69.5h.6l.9,1,.8.2,1.1-1.1.9.7,1,1.3h.7l-.8.9-.2,1.8-.4-.3v1.3h-.4l-1-.6.4-.9-.7-.5-2.1,1.4-.3-.9-1.3-1,.5-.4-1-.7.3-.3-1-.7.3-.2,2,.6.2-.4-.9-.6.3-.4v-.2ZM325.4,71.6h0Z" fill="#1e69d9" stroke="#fff" stroke-miterlimit="3.1" stroke-width=".3"/>
      <path id="AM" d="M325.4,71.6h0ZM327.3,74.5h-.5l-.7-1.1-1.7-.3-.8-.6h-1v-1l-.6-.7,1.1-.2h1.3l1,.6-.3.3,1,.7-.5.4,1.3,1,.3.9h.1ZM324.6,70.9h0ZM324.9,71h0Z" fill="#1e69d9" stroke="#fff" stroke-miterlimit="3.1" stroke-width=".3"/>
      <path id="LY" d="M294.7,102.5l.2,3.3h-1.7v.8l-13.3-6.5-1.6.8-1.3.6-1.2-.9-2.5-.6-.7-1.3-1.4-.4h-.5l-.6-.6v-.9l-1-1.2.7-.7-.2-1.3.3-.9-.2-.7v-1.4l-.9-1.6.4-.2.5-.2.6-.9-.3-.9,1.3-1.2.9-.4v-1.3l1.4.6,1.6-.2,3,.9.5,1.2.9.7,2.1.3,1.4.5,1.3.9,1.1-.4.6-1.2-.4-.9.2-.7.7-.6,1.7-.6h.8l1.6.6v.5l1.6.5h1.4l.3.6-.5.5.3,1-.5,1,.5,1.6.5,11.9h.4Z" fill="#1e69d9" stroke="#fff" stroke-miterlimit="3.1" stroke-width=".3"/>
      <path id="TJ" d="M364.8,71h-.2.2ZM365.1,72.8h.2l-.2.2-.2-.2h.2ZM370,73.5l.6,1.4h1.5l.6,2.3-1.1-.3-.7.3-.8-.4-.9.7-1.6.5-.4-.6v-1.3l-.5-.7h-1.2l-.6.6v.6h-.9l-.2.8-.9-.2-.9.5-.5-.4.6-1.8-.6-.5v-.7l-1.3-.4.5-.7,1.1.2.6-.6.5-1.5.4.3,1.1-.7.6.5-.6.4,1,.4-.6.3-.9-.2-1,.7.2.4h1.8l.6.2,1-.4,1.3.7.5-.3h1.7Z" fill="#1e69d9" stroke="#fff" stroke-miterlimit="3.1" stroke-width=".3"/>
      <path id="MX" d="M107.3,109.5h-3l-.2.9h-.7l1.6,1.5-.2.5h-2.1l-.9,1.3-.2,1.2-2.5-2.6-1.3-.2-.2-.3-1,.8-2,.5-1.9-.5-1.6-.9-1.3-.2-2.3-.9-1.2-1.1h-.6l-2-.7-1.2-1.2-1-.5-.9-1.8.8-.4-.4-.2.7-1.2-.6-.9-.2-1.1-.9-.9-.6-1.1-1.8-1.7-.2-.6-1.6-.9.6-.9-.2-.6-1.6-1.1.2-.8h-.5l-1.2-1-.5-.9-.9-3,.2-.5-1.3-.7-.9-.3-.5.4-.2,2.2.3.7,1,.9h.8l-.7.4.5.9.6-.2-.2,1.3.6.5.5,1.4h.5v1.6l.6.2v.9l.5.5-.4.6.4.7.2-.6.9.5.3,1.5-.9.6-.5-1.1-1-.9-1-.3-.3-.9h-.5l.5-.7v-1.3l-1.4-1.1-1.8-.9-1.1-1.5.6.5h.9l.2.4.4-1.4-1.2-1.5-1-.6-.2-1.7-.7-1.3-.3-1.6,3.9-.3-.2.4,5.6,1.9h4.6l.2-.7h2.7l2.2,2,.2,1.4.6.5,1.4.6.9-1.3.6-.2,1.6.4v.2h.4l.5.6.4,1.4,1,1.1v.9l.2.4v.4l1.5.8,1.7.2-1.2,2.4-.9,3.3.2,1.5.6,1.7.9,1.3.2.9.7.9h1l1.1,1,3-.8h1.3l1.7-.9.9-1.3.5-1.8.9-.4,2.7-.5,1.4.2.5-.2.4.5-1,1.2-1.4,3.8-.4-.2-.3-.2-1,.9-.5.2v-.3Z" fill="#1e69d9" stroke="#fff" stroke-miterlimit="3.1" stroke-width=".3"/>
      <path id="GT" d="M101.8,114.9l.2-1.2.9-1.3h2.1l.2-.5-1.6-1.5h.7l.2-.9h3l-.5,3.2h.6l.5.2h.6l-1.7,1.1-.4,1.1-1.3.9v.2l-2-.3-1.4-1h0Z" fill="#1e69d9" stroke="#fff" stroke-miterlimit="3.1" stroke-width=".3"/>
      <path id="LS" d="M297.9,188.1l.8-1.1,1.5-.5,1.3,1.3-.6.9-1.3.4-.5.8-1.1-.5-.5-1.2h.4Z" fill="#1e69d9" stroke="#fff" stroke-miterlimit="3.1" stroke-width=".3"/>
      <path id="NP" d="M384.5,88.9l.6-.2h1.2l.2.5,1.7.7.7.8.9-.2,1.2,1.1h.8v.5h.9l.6.7.9-.3,1,.4h1.6v1.3l.4.6-1.3.6-2.5-.4-2-.8-.2-.5-.8-.3-.4.3-1.8-.3-1.5-.5-2.4-1.4-.9-.2.3-1.5.9-.8h-.1Z" fill="#1e69d9" stroke="#fff" stroke-miterlimit="3.1" stroke-width=".3"/>
      <path id="UZ" d="M366.9,72.8h-.2l.2-.2v.2ZM365.9,72.5v.2h-.2l-.2-.4h.4v.2ZM344.8,63.5l1.2.6-.2.6,1.3.9v-1l1.7.8,1.8,1.5,1.8-.3,1.9.2.7-.2,1.1.6.6.7.5-.2.2,1.6h.8l.6,1.3h2l.2.6,1,.3-.2-.5.6-.8,2.7-1.4h.5l-1.4,1.1,1,.5,1,.2.5-.6,1.6,1,.8.2-2,1-1.2-.2-1-.4.6-.4-.6-.5-1.1.7-.4-.3-.5,1.5-.6.6-1.1-.2-.5.7,1.3.4v.7l.6.5-.6,1.8h-.9l-1.2-.3-.2-1.1-1.6-.4-2.2-1.2h-.3l-2.9-1.7-1.1-1.6-3.1-.6-.6-1.6h-.6l-1.5-.8-.5.2.5.7-.8-.4-.5.6-.5-.3-.4.6v1.2l-1.6-.2-1-6.1,3.9-.9-.4,1,.2.9.7-.6-.3-1.3-.3.3ZM364.8,71h-.2.2Z" fill="#1e69d9" stroke="#fff" stroke-miterlimit="3.1" stroke-width=".3"/>
      <path id="BD" d="M399.5,102.6h0v-.3l-.2-.5-.9-2,.2-1.1-1.3-.6.6-.9h.8l-1.6-1.2.5-.9,2.4.9v.9l1,.4h2.7l.8.4-.5.9-1.2.5-.2.8.9,1.2.8-1.3.4.8.6,2.1.3,1.1-.5-.2v.6l-.8-.7v-.6l-.8-1.3-.6.4-.6-.5-.5-1,.7,2-.9.6-1.1-.3-.5.5-.3-.5-.2-.2Z" fill="#1e69d9" stroke="#fff" stroke-miterlimit="3.1" stroke-width=".3"/>
      <path id="TZ" d="M311.7,158.2v-.2h0v-.2h-.2v-.2h0l-.3-2.2-.3-.4-.2-.2h0l-.2-.2h-.2v.3l-.9-.2-.8-.3-1.5-.6-1.3-.8-.9-1.8v-.9l-1.4-1.6.4-.2-.4-.9v-1.6l.5-.3.7-1.2.7-.5-.7-.6.2-.8h.5v-1.3l-.6-.9h2.2l-.3,2.2.3-.3,1.2.6h1.1l1.1-.6-1.7-.2h1v-.6l.9-1,5.9,3.3.2,1,2.4,1.7,1,.5v.5l-.9.7.5,1.2h-.9l.7.7-.2,1.6h.9l-.7.4-.2,1.2.7,1.8,1,1.1-.7.6-2.5,1-.6-.3-1.1.8-.7-.2-1.4.2-.6-.5-.5.3h-1.2Z" fill="#1e69d9" stroke="#fff" stroke-miterlimit="3.1" stroke-width=".3"/>
      <path id="AR" d="M151.7,230.1h.2-.2ZM165.1,181.5h1.2l.5,1.1-.2,1.6-1.6.7-1.3,1-.9,1.4-1.7,1.8-.6,2.9.2.9.2,1h-.4v2l.7.8,1.1.4.7.7-.3.7,1.3,1.7-1,1.6v.5l-2.3.9-2.7.5h-2l.2,1.4-.4.8.7.3-.3.6-1,.5h-1.3l-1.8-.7-.3.4.4,1.7.9.8,1.2-.5.5,1.1-.8.2-.6-.6-.8.5.9.3-1.2,1.1.5,1.2-.5.5v.7l-.8-.2-.9.4-.5.6-.2.9.4.7,1.2.7h1.3l.6.9-.2.9-2,1.6v1.7l-1.5.6-.2,1.1.6,1.1,1.1,1.2-2.4-.5h-3l-1-.8-.2-1.5-1.3.2-.9-1-.2-1.3,1.1-.9.2-.8-.5-.7.2-.8.5-.3v-2.1l-.5-.4.6-.7-1.3-.9h1.2v-.5h-1v-.8l-.5-.8.2-.5-.7-.3-.2-1.2.5-.3-.4-.8-.4-1.5.3-1.8v-1.2l.7-.4-.8-1.7-.2-1.2.2-.8.9-.7-.2-1.5.3-1.5h.3l-.6-2.4-1.3-2.1.4-2h.4l-.4-1.6.3-.5v-1.1l.7-.8.5-1.3.8-.4-.5-.6.2-.7-.5-1.2.3-.5-.4-.5.5-.6,1.4-.6.4-1.7-.3-.3,1.3-1.7.9.5,1.9.2.5,1.1.5-1.5h1.8l.3.4,1.3,1.3,1.6,1.3,1.7.3,2.1,1.3,1.7.7.4.4-.8,1.2-.6,2h.9l1.4.2,1.6-.3.6.2.5-.7.9-.5.2-1.8-.2-.4ZM151.7,230l-1-3.5,2.2,2.1,2.9,1.2h1l.9.5h-1.6l-1.2.2-.8-.2-2.4-.2h0Z" fill="#1e69d9" stroke="#fff" stroke-miterlimit="3.1" stroke-width=".3"/>
      <path id="SA" d="M332.3,91.6l.9,1.6,2.2,1.6v1.6l.6.5.7,1.2.2.2h.8l-.2.5h.5v.4l1.7,1.9,4.2.5h.2l.9,1.1-.9,3.3-4.8,1.7-4.6.6-1.6.8-1.1,1.7-.8.2-.5-.5h-2l-.5-.2-3.3.2.2.9-.7.7-.7-1.1-.2-.7-.9-.7-1-1.4-.5-1.3-1.5-1.3-.8-.3-.9-1.4-.2-2-1.1-2-1.6-.8-.7-1,.2-.5-1.3-.8.2-.5-2.8-3.5h-.8l.3-.6.2-1.4,1.8.3,1-1.1,1.2-.2.7-.9-1.7-1.7,3.1-.9.3-.2,2,.3,2.7,1.4,4.5,3.1,3,.2,1.5.2.5.7h1.3v-.4Z" fill="#1e69d9" stroke="#fff" stroke-miterlimit="3.1" stroke-width=".3"/>
      <path id="YE" d="M339.3,107.5l1.3,2.8.7,1.1-.9.3-.6.8.2.5-1.4.7-2.9.8-.8.4-.6.8h-1.1l-1,.6-1.1.4h-1.5l-1.1.8-1.9.6-1.2-1-1.1-3.9v-1.3l.8-.7-.2-.9,3.3-.2.5.2h2l.5.5.8-.2,1.1-1.7,1.6-.8,4.6-.6h0Z" fill="#1e69d9" stroke="#fff" stroke-miterlimit="3.1" stroke-width=".3"/>
      <path id="AE" d="M345.4,96.5l.2.2.2.9-.9.2v1l-.7,2.6h-.2l-4.2-.4-1.7-1.9v-.3l.4.4,1.2-.2,1.7.2.9-.2.8-1,.7-.4,1.4-1.7.2.6h.2-.2ZM345.5,97.1h0l-.2-.2v.2h.2Z" fill="#1e69d9" stroke="#fff" stroke-miterlimit="3.1" stroke-width=".3"/>
      <path id="TR" d="M294.8,71.4l.9-1.1-.6-.6,1.1-.6,1.5.2.2.6,1.6.6-.4.5-1-.2-1,.2-.5.6-.6.4h3.8l.3-.6-.6-.4.3-.4,3.1.2,1.5-1,1.7-.5,2.1.2.4-.2.6.6h1l.9.8.2-.2,1.5.5,1.3.2,1.7-.3,1.1.3,2.1-1,1.5.2.5-.2,1.1.8.6.7v.9h1l.8.6v.2l-1.1.4.5.9.2,1.4.6.4.3,1-.8.2v-.4l-2.4-.2-.5.4-.3-.3-1.1.4h-.9l-1.7.5h-1.7l-.7-.3-1.2.5-1.3-.3-.6,1.6-.4-.2-.2-.6.6-.5-.3-.6-1,.6-1.3-.4-1.5,1.1-1.2.2-1.3-.9-2.1-.5-.4,1-1.2.2-.9-.4v-.5l-.9-.3-1.3.2.9-.5h-.9l-.9-.5v-1l-1.6-.5,1.1-.3-.4-.5.5-.2-.7-.7.4-.5-1.3.2v-.9l.8-.5-.8.5-.6-.2,1.7-.7-1.3-.2h-.5Z" fill="#1e69d9" stroke="#fff" stroke-miterlimit="3.1" stroke-width=".3"/>
      <path id="MY" d="M449.6,132.2h-.5l-.7-.3h-2.2l-.3.2-.2,1.9-.6.4.2.5-.6.4v.5l-.5.8h-.9l-.5.4-1.1-.6-1.3.2-.2.5-.9.3-.6-.2-1,.3-1.5-1.2v-.9l.4.7,1.8.2.5-2,2.8-.6,1.5-1.9v-.5l1.1,1,.6-1.5h0v.2l.6.8-.4-.9.8-.5h-.7l1-.5.4-.9.9-.9.4-.9.7.9.8.4v.9l.5-.3,2.1,1.5-1.9.5.8.9-1.3.2.2.2-.2-.2ZM420,128.3v-.4l1.2.8h.4v1l.7-.5.5.2.4-.9,1.8,1.5.6.9-.2,1.7.2,1.3.6.5.9,2.1-1.5-.3-2.5-1.4-1-.8v-.7l-.9-1-.2-1.6-.7-.7.2-1.3-.4-.7v.3Z" fill="#1e69d9" stroke="#fff" stroke-miterlimit="3.1" stroke-width=".3"/>
      <path id="PA" d="M117.2,123.1l.8.5v.6l1.7.2,2-.9.4-.5,2,.4,1.7,1.2.3,1.3-1.3,1.2-.6-.8-.3-1.5-1.1.5.8-.9-.6-.4h-.8l-.2.6-1.2.5-.2.4.7,1-1.4.4-.2-.6-.9-.2-.4-.9-1.5-.2-.4.5-.2-.5h0l.6-.9-.4-.2.2-.9h.5Z" fill="#1e69d9" stroke="#fff" stroke-miterlimit="3.1" stroke-width=".3"/>
      <path id="HT" d="M135.8,108.4h0ZM135.6,108.1v.2h.2l.3.2-.2.5-.5-.3-1.3.2-.7-.2-.9.3-.9-.6.4-.4,2.5.4-.8-.7h.6l.3-.9-1.1-.6,1.1-.2,1.6.4v1.6l-.5.2h-.1Z" fill="#1e69d9" stroke="#fff" stroke-miterlimit="3.1" stroke-width=".3"/>
      <path id="DO" d="M135.7,108.3v-.2l.4-.2v-1.6l1.4-.4,1.7.5.5.9,1.4.2.6.5-.7.9-.3-.5h-1.6l-1.1.4-.2-.4-1.3,1.3-.6-.7.2-.5-.3-.2h0Z" fill="#1e69d9" stroke="#fff" stroke-miterlimit="3.1" stroke-width=".3"/>
      <path id="HR" d="M282.8,68.6l-.9-.6-.4-.2.3.2.9.4h0v.2h.1ZM274.9,63.5h2.7l.5-1.2,1.3-.5,1.3.9,1.7.4.8-.3.3,1.3v.4l-.6-.3h-1.3l-1.4-.4-.9.5-.9-.2v.8l.8.8,2.2,1.9v.2l-.4-.3h-1.5l-.7-.9-1.3-.5.2-.6-1.3-1.1v-.5l-.9.7-.5-1h-.1Z" fill="#1e69d9" stroke="#fff" stroke-miterlimit="3.1" stroke-width=".3"/>
      <path id="TH" d="M423.2,128.6l-.4.9-.5-.2-.7.5v-1.1h-.5l-1.2-.8v.4l-1.3-1.3-.2-.7-1.5-1.1-.2.9-.2-1.3.2-2,.5-.9v-.5l.7-.7.6-1.2-1-2v-1.1l-1.7-1.8-.2-.7.6-.2-.2-1.3.5-.2-.8-1.4-1.4-1.3-.5-1.1.5-.2-.2-.5.5-1.5.9.2.7-.6,1.4-.7.3.2.8.4v.9h1.3l.2.8-.3,1,.3.6-.4.8.4.2,1.4-1.2,1.5.3.6-.7,1,.2,1.6,1.7v1.3l1.6,1.3v1.3l-.5,1-2.5-.2-1.2.5-.5.9h-.4l.4,1.6.8,1.7-.6-.9-1.3-.8h-1.4l-.2-1.3h-1.5l.2,2.1-1,2.6-.2,1.4.6.9h.7l.2,1,.6.5.4,1.9.9.5h.9l.9.9h0Z" fill="#1e69d9" stroke="#fff" stroke-miterlimit="3.1" stroke-width=".3"/>
      <path id="KW" d="M331.3,89.3l.6.3-.3.7.7,1.3h-1.3l-.5-.7-1.5-.2.9-1.5h1.4Z" fill="#1e69d9" stroke="#fff" stroke-miterlimit="3.1" stroke-width=".3"/>
      <path id="MM" d="M405,104v-.6l.6.2-.3-1.1h.6l.3-.7-.2-1,.4-.2-.3-1.5,1.3.3.7-2-.3-.6.5-.5v-1.3l1.5-1.3.9-.2.9-.9-.2-.6.3-.5,1,.7.5,1h.6l.5,2.7-1.4,1.4v1l.2.9,1.5-.3.6,1.5,1.1.2-.3,1.5,1.3.2.6,1,1.5-.5v.3l-.5.4-.2.9-.5.8-.3-.2-1.4.7-.7.6-.9-.2-.5,1.5.2.5-.5.2.5,1.1,1.4,1.3.8,1.4-.5.2.2,1.3-.6.2.2.7,1.7,1.8v1.1l1,2-.6,1.2-.7.7v.5l-.9.8.6-.9-.7-.9h.9v-1h-.9l.3-1,.6.2-.4-2-.6-.9-.6-.2.2-.5-.6-1.2-.5-2.3h-.3l-.6-1.3h-.5l-.4.8-1.2.5-.7.9-2-.5.4-2.4-1-2.1-.8.2-.4-1.1.8-.2-1.1-1.1-.4.4-1.3-1.4-.3-.6h-.1Z" fill="#1e69d9" stroke="#fff" stroke-miterlimit="3.1" stroke-width=".3"/>
      <path id="GQ" d="M270.2,137.3l-.8-.2.8-1.3v-.7l.3.3h2.2v1.9h-2.5Z" fill="#1e69d9" stroke="#fff" stroke-miterlimit="3.1" stroke-width=".3"/>
      <path id="UG" d="M306.7,140.7h0ZM306.7,140.7h-2.2l-.9.8-.5-.2v-1.5l.4-.5-.3-.2.4-1.5.9-.7.2.3,1.3-1.4-.2-.4-.9-.5.2-1.7.5-.5h1l.6.5,1.4-.6.8.2.8-.8.8.9v.9l.8,1.1.2,1.4-1.7,2.3h-1.3l-2.2.6-.2,1.5h.1Z" fill="#1e69d9" stroke="#fff" stroke-miterlimit="3.1" stroke-width=".3"/>
      <path id="KZ" d="M344.8,63.5l.4-.5.8,1.2-1.2-.6h0ZM344.5,63.4l-3.9.9,1,6.1h-.3l-.4.2-1.1-1.2-1.2-.6-1.9.3-.8.6v-.5l.2-1.1-1.3-.2-1.1-1-.9-1.2-.8-.2-.8-1,.5-.2v.7h1.7l-.6-.5.5-.8h1.7l.6-1.1-.2-1.5-1-.2-.5.3-1.4-.5-1.2.3-1.6.9-1.3-.6.9-.2-1.8-1.6h-1.4l-.2-.9-.9-.2.6-1.3-.4-1,.8-1.1,1.5,1.1.6-.4-.5-.9,1-.5v-.5l1.3-.3.2-.6,1.8.2.8-.4.3.4h1.3l2,1.1.2-.3,1.7.9,1.1-.9h1l.5.4.3-.5,1.3.2.6.5,1.3.3.2-.5,1.2.3.9-.2v-1l-1.6-.3-.7-.5,1.2-.8-.7-.5,1.9-.7-1.3-.2-.5-1,3.1-.4,1.3-.3h1.8l.2-.6h.8l3.1-.6v-.4l2-.2.9.3.8-.2.9.9.2,1h2l1.6.2-.2.5,1.6.2,1.1-.4,2.1-1v.8l2.4,1.2,3.4,2.9,1.1,1.2.9-.9.7.2.7.7h1l1.9-.4.6.2.9,1,1.3.3.6.9,1.5.2.5-.2,1.4.9h-.8v.9l-1.3.2-.2.9.5.9v.6l-1.1.4-2.8-.6-.4,2.7.5.7-1.3-.4-2.3.5.6.6.3,1,.9,1.5-.8.8.3.8-2.1-.9-.9-.2h-5.1l-1.6-.7-.9.4v1l-2.7-.7-1.2.5v.5l-2.7,1.4-.6.8.2.5-1-.3-.2-.6h-2l-.6-1.3h-.8l-.2-1.6-.5.2-.6-.7-1.1-.6-.7.2-1.9-.2-1.8.3-1.8-1.5-1.7-.8v-.9l-.6-.9.9.2-.2-.5-2.4.4v.5h.1Z" fill="#1e69d9" stroke="#fff" stroke-miterlimit="3.1" stroke-width=".3"/>
      <path id="ER" d="M314.2,115.3l-.2-1.4.8-2v-1.3l2-.8.6-.8.6,1,.8,2.5.6,1.3.3-.6.5.9h.8l.9.5.9,1.2,1,.6.9,1.2.6.2-.7.6-.5-.2-1-1.2-1-.7-.6-.9-1.3-.5-1.8-.3-.9.4-.9-.8-.6,1.3-.4-.5-1.3.3h0Z" fill="#1e69d9" stroke="#fff" stroke-miterlimit="3.1" stroke-width=".3"/>
      <path id="TN" d="M272.3,83.9v1.3l-.9.4-1.3,1.2.3.9-.6.9-.5.2-.9-3.1-1.1-.8-.5-.9-.5-.2-.5-1.2.6-.9.6-.4v-3l.5-.8,1.8-.7.9.3v.7l1.3-.5v.4l-.9.9.2.8.9,1-.9,1.1-.8.4.4,1,1.2-.2.2,1h.6v.2Z" fill="#1e69d9" stroke="#fff" stroke-miterlimit="3.1" stroke-width=".3"/>
      <path id="TL" d="M459.3,154.6l.3-.2h.4l-.4.4-.3-.2ZM460.8,153.9l.4-.5,3.1-.5.6.2-1.4.9-1.5.5-.9.5-.2-.5v-.6Z" fill="#1e69d9" stroke="#fff" stroke-miterlimit="3.1" stroke-width=".3"/>
      <path id="MR" d="M239.8,93.7l5.1,3.1,1.2.7h-2.9l1.5,14.1.4.4-.2,1.3h-6.4l-1.3.2-1-.2-.3.5-.8-.8h-.5l-.2,1.2-.7.2-1.6-1.4-.4-.9h-.6l-.8-.8h-.9l-2.4.3-.3,1,.2-1.3.7-2.2-.2-1.7-.6-.6.6-1.4-1.2-1.6-.2.7.2-.9h6.4v-2.9l1.7-.7v-4.2h5.5s0-2.1,0-2.1Z" fill="#1e69d9" stroke="#fff" stroke-miterlimit="3.1" stroke-width=".3"/>
      <path id="DZ" d="M246.1,97.5l-1.2-.7-5.1-3.1v-2.3l1.7-1.2.9-.2,2.2-.2,2.3-1.5,1.2-.4-.3-1,.3-.5,1.3-.2.5-.6h2l.3-.6-.6-.3-.4-.9v-2.5l-.9-.6h.8l.9-.8,2.1-.8,1.5-.8,2.4-.2.6-.3,2.9-.2.7.4,3.5-.7.8.4,1.1-.2-.4.8v3l-.7.4-.6.9.5,1.2.5.2.5.9,1.1.8.9,3.1-.4.2.9,1.6v1.4l.2.7-.3.9.2,1.3-.7.7.9,1.2v.9l.7.6h.5l1.4.3.7,1.3-7.3,4.4-2.7,2.4-2.5.5-1.4.2-.5-.2.2-1.1-2.2-.7-1.2-.9v-.5l-9.7-6.5h-.1Z" fill="#1e69d9" stroke="#fff" stroke-miterlimit="3.1" stroke-width=".3"/>
      <path id="AO" d="M274.1,148.6v-.5l-.3-.7,1.3-1.1.6.4-1.1.7.2,1.2h-.7ZM273.3,167.7v-2.4l.4-.2.5-1.5.4-2.2,1.2-1.3.7-.6.3-.7v-1.9l-1-1.7-.3-.9.7-.5v-.7l-.9-1.8v-.6l-.9-1.3,1.5-.5h5.2l.5.2.6,2.3,1,1.3.9-.2h2l.2-1.7h1.8l-.2.5h2.1v1.3l.2.7-.2,1.6.6.9.2,1.4v.8l.4-.3h.8l1.6-.3v3.5h-3.3l-.2,5.3.2.6,2,1.8-3.3.6h-.9l-3.4-.4-.5-.6h-7.5l-1.3-.7-.9.5h-1.3v-.3Z" fill="#1e69d9" stroke="#fff" stroke-miterlimit="3.1" stroke-width=".3"/>
      <path id="MZ" d="M311.5,161.5l-.2-2.2.5-1h1l.5-.2.6.5,1.4-.2.7.2,1.1-.8.6.3,2.5-1,.7-.6.3.6-.4.8.3,2.4-.2,1.5.5,1.9-.5,1.2-1.2,1.5-1.3.8-2,.8-1.4.9-1.4,1.7-.2-.2-2,1.7-.4.9,1.2,2.8v1.3l-.3,1.5.2.5-.7.8-2.3.9-1.5.8-.6.6.5.5v.9h-1.2v-.9l-.2-.5.2-2.5-.7-1.6-.3-1.7,2-1.9.2-1.2.8-.9-.3-.9.5-1.9v-2.7l-1.7-.4-1-.7h-1.4v-.6l-.2-1.1,4.9-1.6.7.9,1.2-.3.3,1.5-.6.9.2.5,1.5,1.5-.2-.9.4-.6.7-.2.2-2.4-1.6-1.9h-.4Z" fill="#1e69d9" stroke="#fff" stroke-miterlimit="3.1" stroke-width=".3"/>
      <path id="CR" d="M115.5,120.9l.3.7,1.3,1.5h-.4l-.2.9.4.2-.6.9h0l-.2-.5-.8-.7-1.6-.9v-.5l-.7.7-.9-.6-.3-.7.3-1.3,1.3.2h.9l.7.4.5-.3h0ZM116.5,125.7l-.2-.5h0l.2.5Z" fill="#1e69d9" stroke="#fff" stroke-miterlimit="3.1" stroke-width=".3"/>
      <path id="SV" d="M108.9,116.8l-.2.4h-1.4l-2-.9v-.2l1.3-.9,1.3.7,1.3.3-.2.6h-.1Z" fill="#1e69d9" stroke="#fff" stroke-miterlimit="3.1" stroke-width=".3"/>
      <path id="KH" d="M426.7,121.7h-1.3l-.2-1.2-.5.6-.6-1.5-.8-1.7-.4-1.5h.4l.5-1,1.2-.5,2.5.2,1.3.7v-.7l.9-.4.5.5,1.2-.6-.2.9.6,1-.2.8.2,1.2-1.3.6-.4.5-.7-.2-.2.8.5.9-.7-.4-1.2.2-.2.6-.7.2h-.2Z" fill="#1e69d9" stroke="#fff" stroke-miterlimit="3.1" stroke-width=".3"/>
      <path id="BZ" d="M107.3,109.5l.5-.2,1-.9.3.2h0l-.4,1.3v1.1l-.6,1.2-.7.6h-.6l.5-3.2h0Z" fill="#1e69d9" stroke="#fff" stroke-miterlimit="3.1" stroke-width=".3"/>
      <path id="KP" d="M457.8,68.4l.3.2.2.2-.9.3-.3.9.6,1.3-.7.2-1,1.1-1.1.5.2.9,1.7.9-.2.5h-1.6l-.6.9-1.8-.3-.2.5-1-.7-.2-.7.4-1.4-2-.8-.2-.4.6-.6,1.5-.7.5-1.3.5-.2.7.5,1.4.2-.6-1h1.3l.4-.8h.6l-.2-.8,1.3.7h.4Z" fill="#1e69d9" stroke="#fff" stroke-miterlimit="3.1" stroke-width=".3"/>
      <path id="VE" d="M154.5,124.9l.3.4-1.2.8-.2,1.1h.5l-.7.7h-.7v.9l-.4.5,1,1.2.2.4-.6.7-1,.5-2,.3v.7l-1.1-.6h-2l.7.6.2,1.8h1.2v.5l-1.1.4-.2.5-1.7.8-.7.8-.3-.5-.6.4-1.3-.8-.5-2-1.1-.9.9-.9-.5-.5-.4-1.3v-1.3l.8-1.2v-.4l-3.3.2-1.1-1.4-.8-.2-1,.2-1.5-.2-.6-.7.2-1.4-.9-1.6-.6.2.7-1.1.2-1,.7-1.2.9-.9,1.1-.3-1,.4.5,1.5-.9,1.5.9,1.3.8-.5v-.6l-.8-1.8,2.4-1.1-.2-.6.5-.5.5,1.2h1.3l.8.5v.8l.7.3,2.7-.3.5.6,1.9.3,1.3-.9,2.2-.2,1.3.2-1.4.3.7,1.3.2-.5,1,.2,1.3,1-.5.9,1.8.4h0Z" fill="#1e69d9" stroke="#fff" stroke-miterlimit="3.1" stroke-width=".3"/>
      <path id="GY" d="M153.1,130.4l-1-1.2.4-.5v-.9h.7l.7-.7h-.5l.2-1.2,1.2-.8-.3-.4,1.5.9,1,1.2v.5l.7.3,1.4,1.2-.2,1v.7h-.8l-.6,1.3.6,1.3h.6l.2.9.8,1.3h.4-1l-.8.5-1.3.2-.8.6-1.6-1.1-.4-1.3.2-1.6.5-.6-.2-.7-.7-.2.2-.9-1.3-.2.2.4Z" fill="#1e69d9" stroke="#fff" stroke-miterlimit="3.1" stroke-width=".3"/>
      <path id="HN" d="M106.5,115.1l.4-1.1,1.7-1.1.9-.3,2.2.2.8-.4h1.5l1.2.3.8,1,1,.4-2.3.6-.9-.2-.3.7-.9.5h-.6l-1.1.4v.8l-1,.5-.3-.5-.5-.2.2-.6-1.3-.3-1.3-.7h-.2Z" fill="#1e69d9" stroke="#fff" stroke-miterlimit="3.1" stroke-width=".3"/>
      <path id="GA" d="M270.2,137.3h2.5v-2.1h3.1v.2l-.2.9.2.6.9-.4.8.2.3.7-.9,1.2v.7l1,.6-.2,2.1-.6,1-.5-.6-.5.5-.7-.2-.4-.7h-.6v.7h-1.5l.2,1.4.5.2-.2.7-.6-.3-.6.7-.8-1-1.2-1-1.1-1.5.2-.8h-.5l-.6-1.3.6.2.3-.5v-1.6h.5l.4-.9.2.3Z" fill="#1e69d9" stroke="#fff" stroke-miterlimit="3.1" stroke-width=".3"/>
      <path id="IL" d="M308.9,87.1l.9-1.6.3-1.3h.6l.5-.6.2.8-.2.3-.3.2.2,1.4-.2.4v.5h0v.2h0l-.4,1.2-.2,1.5h0v-.4l-1.3-2.6h-.1Z" fill="#1e69d9" stroke="#fff" stroke-miterlimit="3.1" stroke-width=".3"/>
      <path id="NI" d="M112.1,120.6l-1.3-1.1-.4-.7-1.3-1.2.5-.2,1-.5v-.8l1.1-.5h.6l.9-.5.3-.7.9.2,2.3-.6-.2,1-.8,1.6-.7,3.4.3.8-.5.3-.7-.5h-.9l-1.3-.2.2.2Z" fill="#1e69d9" stroke="#fff" stroke-miterlimit="3.1" stroke-width=".3"/>
      <path id="MW" d="M311.6,158h0ZM311.4,157.8h0ZM310.7,155.2l-.2-.2h0l.2.2ZM310.4,154.9h0ZM310,155.2l.4,1.4.2,1.8-.5,1.1.4.9v.8l1.5,1.7-.6-1.5,1.6,1.9-.2,2.4-.7.2-.4.6.2.9-1.5-1.5-.2-.5.6-.9-.3-1.5-1.2.3-.7-.9-.6-.5.4-1.8.6-.2-.2-2.7.8-.5-.6-1.1-.7-.9.8.3.9.2h0Z" fill="#1e69d9" stroke="#fff" stroke-miterlimit="3.1" stroke-width=".3"/>
      <path id="TM" d="M341.6,70.4l1.6.2v-1.2l.5.7.8-.2-.5-.8.5-.6.8.4-.5-.7.5-.2,1.5.9h.6l.6,1.5,3.1.6,1.1,1.6,2.9,1.7h.3l2.2,1.2,1.6.4.2,1.1-1.3-.4-.3.5h-.7l-.7,1.6-1.7.7-.3.7-1.2.5-.6-.5-1.3-.3-.3-1.6-1.3-.2-.6-.6-2.1-1.1-2.4-.5-.3-.5h-1.2l-.2.3h-1.4l-.9.9-1.3.3-.5-2,.2-.6-.7-.7-.2-1-1.3-.2v-1.5l1.4.6.9-.2.5-.6-1.1-.6-.5-1h-1.1l-.5.5v.6l-.6-.6.8-.6,1.9-.3,1.2.6,1.1,1.2h.8,0Z" fill="#1e69d9" stroke="#fff" stroke-miterlimit="3.1" stroke-width=".3"/>
      <path id="ZM" d="M301.1,154.6l1.1-1.2-.4-.3,2.7-.5-.2.4,1,.5.2-.3,1.3.8,1.5.6.7.9.6,1.1-.8.5.2,2.7-.6.2-.4,1.8.6.5-4.9,1.6.2,1.1h-.9l-1.6.7-.2.8h-.5l-1.5,1-.9,1.3-.6.2-2.4-.4-.5-.5h-1.3l-1.3.2-2-1.8-.2-.6.2-5.3h3.3v-3.5l.7.4-.2.5,1.6-.3v.8l2.3.6.9-.7.7,1.2,1.1.2,1.4,1.7.6-.3.5.3v-2.1l-.5.6-.8-.2-.9-.9-.2-.7.5-1.5v-1.3l-.2-.6v-.2Z" fill="#1e69d9" stroke="#fff" stroke-miterlimit="3.1" stroke-width=".3"/>
      <path id="NC" d="M308,80.8h-.4l-.4-.2h-1.2l.3-.4.9.2,1.8-.6-1,.6.2.4h-.2,0ZM305.9,80.6h0Z" fill="#1e69d9" stroke="#fff" stroke-miterlimit="3.1" stroke-width=".3"/>
      <path id="LT" d="M285.5,47.3l-.2-.7-.2-.7,1.5-.6,3.6.2,1.7.2,1.4.8-.4.9-.6.3-.5,1.1-1.6.7h-1.3v-.5l-1-.3v-.9l-2.4-.6h0ZM285,47.2l.2-.3-.2.3h0Z" fill="#1e69d9" stroke="#fff" stroke-miterlimit="3.1" stroke-width=".3"/>
      <path id="GH" d="M255.9,128.9l-.4.5h-1.2l-1.7.9-1.4.3-.8.5-1.7-.5h.4l-.6-2v-.9l.4-1.3.8-1-.3-2.1-.4-1.9.3-.6h3.1l1.1-.2.2.9.7.7-.2,1,.6.3-.3,1,.4.9v1.5l-.2.8,1.2,1.3h0Z" fill="#1e69d9" stroke="#fff" stroke-miterlimit="3.1" stroke-width=".3"/>
      <path id="SI" d="M274.9,63.5h0l.2-.2-.6-1.2.5-.4,1.3.2.5-.3,1.7-.2.2-.3h.2l.4.6-1.3.5-.5,1.3h-2.7,0Z" fill="#1e69d9" stroke="#fff" stroke-miterlimit="3.1" stroke-width=".3"/>
      <path id="BA" d="M281.4,67.8h-.2v-.2l-2.3-1.9-.7-.8v-.8l.9.2.9-.5,1.4.4h1.3l.6.3h.5l-.3.9.8.5-.6.2v.6l-1.1.9v.7l-.9-.4-.3-.2h0Z" fill="#1e69d9" stroke="#fff" stroke-miterlimit="3.1" stroke-width=".3"/>
      <path id="JO" d="M310.9,87.4l.2-.2h-.2v-.2h.2v-.7l-.2-1.4.3-.2,1.7.8,3.1-1.8.5,1.5.2.6-.3.2-3.1.9,1.7,1.7-.7.9-1.2.2-1,1.1-1.8-.3v-.3h0l.2-1.5.4-1.1v-.2Z" fill="#1e69d9" stroke="#fff" stroke-miterlimit="3.1" stroke-width=".3"/>
      <path id="SY" d="M316,83.6l-3.1,1.8-1.7-.8.2-.3-.2-.8.3-.6.9-.6-.4-.7h-.7l-.2-1.3v-.9l.3.2.6-1.6,1.3.3,1.2-.5.7.3h1.7l1.7-.6h.9l1.1-.3.3.3-.7.9-.8.2v2.8l-.7.8-2.9,1.6.2-.2Z" fill="#1e69d9" stroke="#fff" stroke-miterlimit="3.1" stroke-width=".3"/>
      <path id="MC" d="M265.5,66.4h.2-.2Z" fill="#1e69d9" stroke="#fff" stroke-miterlimit="3.1" stroke-width=".3"/>
      <path id="AL" d="M286.8,71.1h0ZM284.2,69.1v-.4l.5-.6.5.2.7.5.2.6v.9l.2.4v.3h.5v.2h.2v.2h0l-.9,1.4-.6.2-.9-.9-.3-.8.4-1.9h-.4v-.5.2ZM284.2,68.8h0Z" fill="#1e69d9" stroke="#fff" stroke-miterlimit="3.1" stroke-width=".3"/>
      <path id="UY" d="M168.6,193.3l-.6.7.2.8v.2l.3.2-.5,1-1.7.9-.7-.2-1.3.2-1.7-.8h-1.2l-.9-.9-.2-1.3.5-.2-.3-1-.2-.9.6-2.9h1.3l1.1.7.4.8.6-.4.6.7,1.1.3,1.7,1.5.8.5h0Z" fill="#1e69d9" stroke="#fff" stroke-miterlimit="3.1" stroke-width=".3"/>
      <path id="CNM" d="M308.2,80.8h-.2.2ZM305.9,80.6h0ZM306,80.6h0ZM307.6,80.9h0l-.5-.2h-1.1,1.1l.4.2h.1Z" fill="#1e69d9" stroke="#fff" stroke-miterlimit="3.1" stroke-width=".3"/>
      <path id="RW" d="M302.1,143.6h-.2v-.4l.8-.7-.2-.6.2-.2.4-.2.5.2.9-.7.6.9v1.3h-1.5v.6h-1.5v-.2Z" fill="#1e69d9" stroke="#fff" stroke-miterlimit="3.1" stroke-width=".3"/>
      <path id="SX" d="M333.4,125.7h-1.7l-4.9-1.6-1-.7-1.3-2,.4-.6.6-.8,1.7,1.7h1.2l1.3-.7,1.2.3,1.5-.9h2.6v3l-1.5,2.4h-.1Z" fill="#1e69d9" stroke="#fff" stroke-miterlimit="3.1" stroke-width=".3"/>
      <path id="BO" d="M140.1,166v-.3l.2.2h-.2ZM139.6,168.1l-.3-.3.9-1.3.7-.3-.4-.6-1-.8.4-.5-.5-.4.8-1.3-.4-.9v-1.3l.6-.6-1.6-2.6h2.1l.9-.4,1.7-1.3,2-.4.3.9-.2.5.2,1.1.7,1.4,1,.8,2.2.3.6.5,1,.2.6.7,1.3-.2.9.5.8,4.1,2.7.2.2,1.5,1,.5.5,1.1-.8,3.3v-.6l-1.6-.9h-1.5l-2.8.6-.7,1.5v.9l-.4,1.9-.3-.4h-1.8l-.5,1.5-.5-1.1-1.9-.2-.9-.5-1.3,1.7h-1.2l-.8-2.6-1-1.4v-1.1l.4-.5-.9-.8-.4-1.3-.6-1.1h-.2Z" fill="#1e69d9" stroke="#fff" stroke-miterlimit="3.1" stroke-width=".3"/>
      <path id="CG" d="M275.6,146.7l-.6-.4-1.3,1.1-.3-.8-1.2-1,.6-.7.6.3.2-.7-.5-.2-.2-1.4h1.5v-.8h.6l.4.7.7.2.5-.5.5.6.6-1,.2-2.1-1.1-.6v-.7l1-1.2-.3-.7-.8-.2-.9.4-.2-.6.2-.9h2.1l2.7.7v-.9l.5-.9v-1.1l1.6-.4,2,.4v.6l-.9,1.6v1l-.3.9.2,1.1-.3,1.5-.8.8-.8.4-1,1.4v2l-.5.9-.6.2-1.2,1.3-.7.2v-1l-1.7,1-.5-.5h0Z" fill="#1e69d9" stroke="#fff" stroke-miterlimit="3.1" stroke-width=".3"/>
      <path id="EH" d="M226,104.6v-1.1h3.5l1.1-1.5.3-1.8.5-.6.7-.3.5-.7,1-.7.7-2h.5l.6-.9v-.5l.7-.2,1.9.2.6-.4h1l.2-.9v2.7h-5.4v4.2l-1.7.7-.2.9v2h-6.4l-.2.9h0Z" fill="#1e69d9" stroke="#fff" stroke-miterlimit="3.1" stroke-width=".3"/>
      <path id="ME" d="M285.2,68.4l-.5-.2-.5.6h-.4l.4.3v.4l-.9-.7-.5-.2v-.2h0v-.7l1.1-.9.6.6,1.3.5-.6.2v.2h0Z" fill="#1e69d9" stroke="#fff" stroke-miterlimit="3.1" stroke-width=".3"/>
      <path id="RS" d="M285.7,67.9l-1.3-.5-.6-.6v-.6l.6-.2-.8-.5.3-.9h-.5v-.4l-.3-1.3.9-.4h1.1l.9.7v.4l1.2.6-.2.5,1.3.5.4-.4.5.9-.5.7,1,1-.8.6v.8h-.7l-.6.2.2-.7-.6-.2-1-.9-.6.7h.1Z" fill="#1e69d9" stroke="#fff" stroke-miterlimit="3.1" stroke-width=".3"/>
      <path id="BJ" d="M258.4,128.5l-1.4.2h-.4v-4.6l-.5-.8v-.8l-.9-.6.2-1,.9-.8h.9l.6-.7v-.6l.7-.3,1.3,1.2-.2.5.6,1.3-.5,1.3-1.3,1.3-.2,2,.2,1.4v1.1h0Z" fill="#1e69d9" stroke="#fff" stroke-miterlimit="3.1" stroke-width=".3"/>
      <path id="TG" d="M256.6,128.7h-.3l-.4.2-1.2-1.3.2-.8v-1.5l-.5-.9.3-1-.6-.3.2-1-.7-.7-.2-.9,1.1.2h.6l-.2,1,.9.6v.8l.4.8v4.7h.4Z" fill="#1e69d9" stroke="#fff" stroke-miterlimit="3.1" stroke-width=".3"/>
      <path id="AF" d="M372.7,77.2l-.8.2.3.2-1.1.2h-2l-2,1.4.8.8.2.6-.9,1.2.2.7h-1.7l.6,1.2-1.1.4-.4,1.1.2.9-.7.5-1.1-.4-1.1,1-.7-.2-.9.6v1.8l-3.3.7-.9-.2-1.7.2-2.7-.8,1.3-1.6-.3-.9-1.4-.2-.2-1.3-.5-1.3.3-.9h-.6l-.2-.9.6-.4.2-2.1,1.3.3.6.5,1.2-.5.3-.7,1.7-.7.7-1.6h.7l.3-.6,1.3.4,1.2.3h.9l.5.4.9-.5.9.2.2-.8h1v-.6l.6-.7h1.2l.5.8v1.3l.4.6,1.6-.5.9-.7.8.4.7-.3,1.1.3v.2Z" fill="#1e69d9" stroke="#fff" stroke-miterlimit="3.1" stroke-width=".3"/>
      <path id="UA" d="M287.8,58.7l.2-.5.2-.7.6.2-.5-.9.7-.7,1.4-1v-.5l-.9-1.1,1.2-.6h2l2.4.5h1.4l1.7.4,1.7-.3.5-.9h1.3l.9-.4h2.1l1.1.9-.2.8h1.3l1.1,1.6,1.5.2,1.2-.3.9.9.2-.2,1.6.3,1.4.6v.9l-.3.2.6.9-.3.7h-1.4l-.6.3-.2.9h-.9l-1.1.6-1.4.2-1.6.8,1.2,1.4,1.7-.2-.5.7-1-.2-.7.5h-.9l-.8.7-.7-.5v-.8l-1.1-.4v-.5l1.3-.5-3.1-.5.8-.4-.6-.3h-1.2l-2.2,1.9.2.5-.6-.4-.8.3-.9-.3,1-.9v-.7h1.7l-.3-.7-.6-.2v-.6l-.8-.3.2-.6-2.3-.9-1.8.3-.6.4-1.4.2h-3.6l-.5-.3-.7-.5h-.2Z" fill="#1e69d9" stroke="#fff" stroke-miterlimit="3.1" stroke-width=".3"/>
      <path id="JK" d="M377.9,80.1l-1.1.6-.5-.9,1,.3h.6Z" fill="#1e69d9" stroke="#fff" stroke-miterlimit="3.1" stroke-width=".3"/>
      <path id="RO" d="M299.8,64l-.2.6h-.6l-.7.9v.9l-2.4-.7-1.3.2-1.2.6-3.2-.4-1-.5-.5-.9-.4.4-1.3-.5.2-.5-1.2-.6v-.4l-.9-.6,1.4-.3,1.1-2,1.3-.8h5l.6-.4.6.2.5.8,1.2,1.1.4.6-.2,1,.3.9.9.3.8-.3.6.4h.2Z" fill="#1e69d9" stroke="#fff" stroke-miterlimit="3.1" stroke-width=".3"/>
      <path id="QA" d="M336.7,98l-.2-1.3.7-1.1.6.5.2,1.5-.2.5h-.6l-.2-.2h-.3Z" fill="#1e69d9" stroke="#fff" stroke-miterlimit="3.1" stroke-width=".3"/>
      <path id="LI" d="M268.6,60.6l.2.2h-.2v-.3h0Z" fill="#1e69d9" stroke="#fff" stroke-miterlimit="3.1" stroke-width=".3"/>
      <path id="AT" d="M268.6,60.9h0l-.2-.3.2-.2-.2-.2h.2l.7.4.4-.5.9.3.9-.3,1.8-.2v-.7l1.3-.7.2-.4,1.3.3.4-.6,3.1.5v.4l.4.6v.5h-.9l-.2,1.3-.5.2-.2.3-1.7.2-.5.3-1.3-.2-2-.2-.4-.7-2.7.4h-.5l-.9-.3.4-.2Z" fill="#1e69d9" stroke="#fff" stroke-miterlimit="3.1" stroke-width=".3"/>
      <path id="SZ" d="M305.8,182.1l.2.5v.9l-.2.8-1.3-.2-.5-.6v-.7l1.1-1,.8.3h-.1Z" fill="#1e69d9" stroke="#fff" stroke-miterlimit="3.1" stroke-width=".3"/>
      <path id="HU" d="M285.1,62.5h-1.1l-.9.3-.8.3-1.7-.4-1.3-.9-.4-.6h-.2l.5-.2.2-1.3h.8v-.4l1.1.4h1.5v-.5l1.7-.2.8-.6h1.4l1.2.2.7.5.5.2-1.3.8-1.1,2-1.4.3h-.2Z" fill="#1e69d9" stroke="#fff" stroke-miterlimit="3.1" stroke-width=".3"/>
      <path id="LU" d="M263.6,56.9h-.8l-.2-.6.6-.4.6.5-.2.5h0Z" fill="#1e69d9" stroke="#fff" stroke-miterlimit="3.1" stroke-width=".3"/>
      <path id="AD" d="M256.1,68.3h.5v.2l-.3.2-.2-.3h0Z" fill="#1e69d9" stroke="#fff" stroke-miterlimit="3.1" stroke-width=".3"/>
      <path id="CI" d="M248.8,130.6h-.3.3ZM241.4,131.8v-1.3l.2-1.3-.6-.5-1.3-.5.5-1-.3-.7h.5l.2-1-.2-.5.9.2-.5-.7.2-1h-.4l.2-1.3.5-.5,1.2.5,1.2-.9v.8l1.2-.3.7.2.7,1,1.6-.5h.8l.9.8.3,2.1-.8,1-.5,1.3v.9l.6,1.9-1.9-.2-3.1.3-2.8,1.2h0Z" fill="#1e69d9" stroke="#fff" stroke-miterlimit="3.1" stroke-width=".3"/>
      <path id="LR" d="M239.8,126.5l.3.7-.5,1,1.3.5.6.5-.2,1.3v1.3l-1.2-.4-1.7-.9-1.8-1.6-1.7-.9-.2-.4,1.5-1.4.5-1.2,1.3.2.6,2,.7-.9.3.2h.2Z" fill="#1e69d9" stroke="#fff" stroke-miterlimit="3.1" stroke-width=".3"/>
      <path id="SL" d="M236.9,124.9l-.5,1.2-1.5,1.4-2.4-1,.7-.2-.7-.5-.6-1.9,1-.6.3-.7,2.1-.2.9,1.2.3,1-.4.6.8-.3h0Z" fill="#1e69d9" stroke="#fff" stroke-miterlimit="3.1" stroke-width=".3"/>
      <path id="BN" d="M444.8,131.1h.2v-.2l.4.9-.6-.8h0ZM443.1,131.4l.9-.2.8-.3-.6,1.5-1-1h0Z" fill="#1e69d9" stroke="#fff" stroke-miterlimit="3.1" stroke-width=".3"/>
      <path id="IQ" d="M332.2,89.3h-2.2l-.9,1.5-3-.2-4.5-3.1-2.7-1.4-2-.3-.2-.6-.5-1.5,2.9-1.6.7-.8v-2.8l.8-.2.7-.9.5-.4,2.4.2v.4l.9-.2,1.1,1.9,1.7.3-.5.5v.7l-.7,1.1v.8l.9.5.7,1.1,2,.9.8,1-.2,1.3h.5v.9l.9.8h0Z" fill="#1e69d9" stroke="#fff" stroke-miterlimit="3.1" stroke-width=".3"/>
      <path id="GE" d="M324.5,70.5h-1.3l-1.1.3-1.1-.8-.5.2-1.5-.2.3-.5-.6-1.4-.8-.5-1.7-.6,1-.3,1.5.6h2l1.9,1.1,1.3-.3,1.5.5-.2.4,1.3.5-.3.4.9.6-.2.4-2-.6-.3.2h0Z" fill="#1e69d9" stroke="#fff" stroke-miterlimit="3.1" stroke-width=".3"/>
      <path id="GM" d="M226.2,117.3v-.4l.3-.5h1.7l1.1-.3,1.7.8-.9.2-1.3-.6-1.1.7-1.6.2h.1Z" fill="#1e69d9" stroke="#fff" stroke-miterlimit="3.1" stroke-width=".3"/>
      <path id="TD" d="M277.8,117.5l.5-.2h-1.2l-.8-1-.2-1.1,1.5-2.3,1.8-2,.3-5,.4-.7-1.3-2-.4-2.4,1.6-.8,13.3,6.5.2,6.3h-1.4l-.6,1.7-.6.2.3.7-.8.6.3.8-.7.9h.6l.7,1.2v.7l.5.4v.9l-.8-.2-1.2.6v.3l-2.1,2.1-2.2.2v.5l-.8,1-1.6.2-1.5.7-.3-.5-1.3.7-.5-.2-.5-1.6-2.1-1.9.4-.5h2.5l-1-1.4v-1.2l-.5-1.9-.6-.5v.2Z" fill="#1e69d9" stroke="#fff" stroke-miterlimit="3.1" stroke-width=".3"/>
      <path id="KV" d="M286.1,69.5l-.2-.6-.7-.5v-.2l.5-.2.6-.7,1,.9.6.2-.2.7h-.8l-.8.6v-.2Z" fill="#1e69d9" stroke="#fff" stroke-miterlimit="3.1" stroke-width=".3"/>
      <path id="DJ" d="M324.9,120.8l-1.7.2-.2-.3.2-.2-.2-.2v-.4l.9-1.6.5.2.7-.6.5,1.2-1.3.8h1.2l-.6.9Z" fill="#1e69d9" stroke="#fff" stroke-miterlimit="3.1" stroke-width=".3"/>
      <path id="BI" d="M303.1,146.5l-.5-.9-.2-.9v-.5l-.3-.5h1.4v-.7l1,.2-.2.8.7.6-.7.5-.7,1.2-.5.3h0Z" fill="#1e69d9" stroke="#fff" stroke-miterlimit="3.1" stroke-width=".3"/>
      <path id="SR" d="M160.1,135.8h-.4l-.8-1.4-.2-.9h-.6l-.6-1.3.6-1.3h.7v-.8l.5-.9,1.7.4v-.3h2.4l.7.2-.2.8-.5.8.2,1.4.6.9-.3,1-.8.9-.6-.3-1.3.2-.4-.2v1.2l-.9-.2.2-.2Z" fill="#1e69d9" stroke="#fff" stroke-miterlimit="3.1" stroke-width=".3"/>
      <path id="GW" d="M226.3,118.6l1.7-.2.8-.4h2.4l-.4.9.4.7-1.7.4-.6.9-.6-.6-1.3.5.4-.9-.6-.9-.6-.2v-.2Z" fill="#1e69d9" stroke="#fff" stroke-miterlimit="3.1" stroke-width=".3"/>
      <path id="SN" d="M231.2,118h-2.4l-.8.4-1.7.2-.2-.8v-.5l1.6-.2,1.1-.7,1.3.6.9-.2-1.7-.8-1.1.3h-1.7l-1-1.8,1.2-1.9.3-1,2.4-.3h.9l.8.9h.6l.4.8,1.6,1.4.5,1-.2.8,1.2,1.3v.9l-1.7.2-2.2-.5h-.1Z" fill="#1e69d9" stroke="#fff" stroke-miterlimit="3.1" stroke-width=".3"/>
      <path id="GN" d="M231.2,118l2.2.5,1.7-.2,1.1.9.8-.6.9.3.9-.7.6.9v.5l.7.5-.5.6h.7l.5,1.4-.2,1.3h.4l-.2,1,.5.7-.9-.2.2.5-.2,1h-.5l-.3-.2-.7.9-.6-2-1.3-.2-.8.3.4-.6-.3-1-.9-1.2-2.1.2-.3.7-1,.6-.9-1.3-1.3-1-.6-.8.6-.9,1.7-.4-.4-.7.4-.9h-.3Z" fill="#1e69d9" stroke="#fff" stroke-miterlimit="3.1" stroke-width=".3"/>
      <path id="ZW" d="M295.4,168.6l2.4.4.6-.2,1.8-1.8,1.3-.2-.2-.4.2-.8,1.6-.8h.9v.7h1.4l1,.7,1.7.4v2.7l-.5,1.9.3.9-.8.9-.2,1.2-2,1.9h-1.5l-1.7-.4-.5-.6-1.7-.4-.5-.9v-.9h-.6v-.7l-1.8-.9-.2-1-.7-.9-.4-.9h.1Z" fill="#1e69d9" stroke="#fff" stroke-miterlimit="3.1" stroke-width=".3"/>
      <path id="MK" d="M286.8,71.2h0ZM288.8,68.8l1.1.9v.7l-.4.3h-1.3l-1.3.5-.2-.2v.2h-.3v-.3h-.2l-.3-.4v-.9l.9-.6h.8l.6-.2h.6,0Z" fill="#1e69d9" stroke="#fff" stroke-miterlimit="3.1" stroke-width=".3"/>
      <path id="PY" d="M165.5,179l-.2.6-.2,1.7v.2h0l-.2,1.9-.9.5-.5.7-.6-.2-1.6.3-1.4-.3h-.9l.6-1.9.8-1.2-.4-.4-1.7-.7-2.1-1.3-1.7-.3-1.6-1.3-1.3-1.3.5-1.9v-.9l.6-1.5,2.8-.6h1.5l1.6.9v.6l.7,1.3v1.9l2.1.2.4-.2,1.3.9.5,2.2,1.3-.2.7.4h-.1Z" fill="#1e69d9" stroke="#fff" stroke-miterlimit="3.1" stroke-width=".3"/>
      <path id="LV" d="M295.5,45.8l-.7.6-1.5.2-1.4-.8-1.7-.2-3.6-.2-1.5.6v-1.3l.8-1.2,1.3-.3,1,1.1.7.2.9-.5-.2-1,1.4-.4,1.9.9h1.3l.8.4-.2.7.8.5v.7h0Z" fill="#1e69d9" stroke="#fff" stroke-miterlimit="3.1" stroke-width=".3"/>
      <path id="BF" d="M255.4,120.8h-.6l-1.1-.2-1.1.2h-3.1l-.3.6.4,1.9-.9-.7h-.8l-1.6.4-.7-1-.7-.2.6-2.5,1-.3.5-1-.2-.6.5-.5,1.3.2v-.7h.6v-.5l.6-.4.6.2,2.3-1.5,1.6.2v.6l.6,1.4.5.2.2.9.9.7h1.1l-.2.5.6.7-.6.8h-.9l-.9.7h-.2Z" fill="#1e69d9" stroke="#fff" stroke-miterlimit="3.1" stroke-width=".3"/>
      <path id="SS" d="M310.3,132l-.8.8-.8-.2-1.4.6-.6-.5h-1l-.5.5-1.1-.8-.6-1-.6-.2-.5.6-.7-.4-.7.5-.9-.5-.6-.8-.6-1.1-1.2-.6v-.9l-1.8-1.2-.9-1.3-1-.2v-.6l.5-.3.4-1.6.5-.8,1.3-.2,1.2,1.5h2.2l.3.3h1.3l2-1.6,1.3.9h.8l1.1-1.6.8-.6-.2-1.1-.5-.5h1.1l.8-.4-.2,1,.2,1.3,1.3,1.1v1.3h.3v1.3l-.2.3h-1.2l-.2,1.1,1.1.2,1.7,1.6.4,1.3.6.8h.7l.2,1.3h-.5l-.4-.7-1.6.7-.7.6h0Z" fill="#1e69d9" stroke="#fff" stroke-miterlimit="3.1" stroke-width=".3"/>
      <path id="NA" d="M292.4,168.3l1.3-.2h1.3l.5.5-1.7.3-1.1.8-.4-.8-3.8.5-.2,6h-1.7v4.6l-.3,6-.7.2-.7.7h-1.6l-1.2-.4-.5-1.1-.9.9-1.3-1-.6-1-.6-2.6v-1.6l-.4-.4-.2-3.8-.7-.8-.9-1.6-.4-1.2-1.4-2.4-.7-.9v-1.5h1.3l.9-.5,1.3.7h7.5l.5.6,3.4.5h.9l3.3-.7-.2.2Z" fill="#1e69d9" stroke="#fff" stroke-miterlimit="3.1" stroke-width=".3"/>
      <path id="LA" d="M418,105.3l.5-.8.2-.9.6-.4.2.6h.8v-1.1l-.5-.7.9-.2,1.6,1.4.4,1.2.9.3.6-.5,1,.5-.4.4,1.1.5-.5.8h-1l-.2.5,1.5.8,1.9,1.9,1.4,1.1,1.7,1.8-.4.2.9.9v.9l-1.3.6-.5-.5-.9.4v.7l-1.3-.7.5-1v-1.3l-1.6-1.3v-1.3l-1.6-1.7-1-.2-.6.7-1.5-.3-1.4,1.2-.4-.2.4-.8-.3-.6.3-1-.2-.9h-1.3v-.9l-.8-.4.3.3Z" fill="#1e69d9" stroke="#fff" stroke-miterlimit="3.1" stroke-width=".3"/>
      <path id="CO" d="M124.8,127.1l1.3-1.2-.3-1.3.9,1.3-.2-1,2.3-1.5.2-1.9,1.2-.9.8.5.4-1,1.4.2,1.7-1,.3-.6.9-.3.7.5-.4.4-1.1.3-.9.9-.7,1.2-.2,1-.7,1.1.6-.2.9,1.6-.2,1.4.6.7,1.5.2,1-.2.8.2,1.1,1.4,3.2-.2v.4l-.6,1.2v1.3l.3,1.3.5.5-.9.9,1.1.9.5,2h-.3l-.4-1.5-1.4.6h-2.8v1.1h.9l.3.7h-1.5v1.3l.7.6.3,1.5-.8,4.6-.6-.7h-.7l1.1-1.8-1.4-.9-.9.3-.6-.4-1,.5-1.3-.4v-.7l-.5-.2-.2-.7-1-.5-.9-1.3h-.8l-1.6-1-.2.3-1.7-.2-.2-.4-1.8-.9-.4-.4.4-.5-.2-.7.6-.7.9-.2,1.3-1.9-.7-.6.3-.5v-1.7l.2-.5-.4-.6.2-.6-.9-1.1h0Z" fill="#1e69d9" stroke="#fff" stroke-miterlimit="3.1" stroke-width=".3"/>
      <path id="MD" d="M294.6,58.9l1.8-.3,2.3.9-.2.6.7.3v.6l.7.2.3.7h-1.8v.6l-1,.9-.3-.9.2-1-.4-.6-1.2-1.1-.5-.8-.6-.2h0Z" fill="#1e69d9" stroke="#fff" stroke-miterlimit="3.1" stroke-width=".3"/>
      <path id="CZ" d="M282.6,56.8l-1.1.7-1.7.8-3.1-.5-.4.6-1.3-.3-2.3-1.6.2-1,2.7-.9h.7l2.5.6-.4.2.9.6.7-.5,1,.6,1.1.2.5.6h0Z" fill="#1e69d9" stroke="#fff" stroke-miterlimit="3.1" stroke-width=".3"/>
      <path id="CF" d="M293.9,124.6v.6l1.1.2.9,1.3,1.7,1.2v.9l1.3.6.6,1.1-.6-.2-1,.2-1.5-.6-.5.6h-1.3l-2,.7-.7-.3-.6,1-3.2-.4-.4-.5-1-.6-1.1.4-.9.9.2,1.4-2-.4-1.5.4v1.1l-.6.9-.2-.9-1.6-1.6-.3-1.1-.5-.3-.3-1.1.2-.8-.4-.5.6-.4,1.3-2.1.5.2,1.3-.7.3.5,1.5-.7,1.6-.2.9-1v-.5l2.1-.2,2.2-2.1v-.3l1.1-.6.7.2,1.3,1.7-.2,1.8,1.1.2h-.1Z" fill="#1e69d9" stroke="#fff" stroke-miterlimit="3.1" stroke-width=".3"/>
      <path id="BT" d="M402.4,93l.6.5.3.9-.6.2-3.1.2-1.2-.2-.5-.9.9-1.3,1-.4,2.4,1h.2Z" fill="#1e69d9" stroke="#fff" stroke-miterlimit="3.1" stroke-width=".3"/>
      <path id="KG" d="M379.3,69v.2l-1.3.4-1.3.7-.3.5-2,.2v.6l-1.5.5-.3-.5-1.1.2-1.2.8-.3,1h-1.6l-.5.4-1.3-.7-1,.4-.6-.3h-1.8l-.2-.3,1-.7.9.2.6-.3,1.2.2,2-1-.8-.2-1.6-1-.5.6-1-.2-1-.5,1.4-1h-.5v-.6l1.2-.5,2.7.7v-1l.8-.4,1.6.7.9-.2h4.2l.9.3,2.1.9h.2ZM365.1,72.8h-.2l.2.2h.2l-.2-.2ZM366.9,72.8v-.2h-.2l.2.2ZM365.9,72.5h-.4l.2.3h.2v-.3h0Z" fill="#1e69d9" stroke="#fff" stroke-miterlimit="3.1" stroke-width=".3"/>
      <path id="CU" d="M128.9,105.8l-2.5.2,1.2-1-.4-.4h-2.2l.7-.3-.6-1.3-.8.2-1.1-.2-.9-.6-2.2-.2-.5-.5.5-.4h-1.4l-.8.5.9,1.3-.5.2-.8-1.2h-.9l-1,.6.3-.9.7-.5,1.3-.5,2-.3,1.3.2,1.1-.2,1.3.6.7.3-.2.4,1.7-.2,2.1,1.8,1.3.6h.9l.2.5,1.1.2.8.9-2.3.3-.9-.2h0Z" fill="#1e69d9" stroke="#fff" stroke-miterlimit="3.1" stroke-width=".3"/>
      <path id="VN" d="M430.7,103.3l-1,.4v.5l-1.2.7.2.5-.9.4-.5,1.7.9,1.2.6.2.5,1.1,2.3,2,.6.2,1,1.3,1.2,2.5v.8l.4.9-.4.4.2,1.2-.4,1-1.4.7-1.3.9-.9-.2.2.6-.4,1-1.6.7-.6.8-.6-.5-.2-2.1-1.6-.3h.9l.7-.2.2-.6,1.2-.2.7.4-.5-.9.2-.8.7.2.4-.5,1.3-.6-.2-1.2.2-.8-.6-1,.2-.9v-.9l-.9-.9.4-.2-1.7-1.8-1.4-1.1-1.9-1.9-1.5-.8.2-.6h1l.5-.7-1.1-.5.4-.4-1-.5-.6.5-.9-.3-.4-1.2-1.6-1.4.5-.6.9.5.4-.5,1.2.5,2-1.4,1,.7h1l.6,1.5,1.1.7,1.1.2.2-.4Z" fill="#1e69d9" stroke="#fff" stroke-miterlimit="3.1" stroke-width=".3"/>
      <path id="MG" d="M336,166.5l-.8,1.3.2.7-2.3,6-.9,1.9-.7,2.3-.9,1.8-1.4.4-1.1.6h-.7l-1.7-.9-.5-1,.2-1.6-.5-1-.2-.9.6-1.6,1.7-2.2v-.8l-.5-1.8-.2-1.6.9-1.3v-.8h.8l.7-.5h.6l2.4-1.2.6-.9v.6l1-1.9-.2-.5.5-.3h.9l.3-1.6.6-.9.5,1.1.6.7.3,2.4.4,1.6-.4.9-.5-.9-.4.2.2,1.6h-.1Z" fill="#1e69d9" stroke="#fff" stroke-miterlimit="3.1" stroke-width=".3"/>
      <path id="EG" d="M310.2,90l-.8,2.9-1.7-1.3-.2-.8-.7-.7-.4-.9-.2.6.6,1,1.6,2-.2.2.9,1.3v.5l2.7,4.4.4,1.7.9.5,1.1,1.1h-19.5l-.5-11.9-.5-1.6.5-1-.3-1,.5-.5,3.5.5.2.2,1.6.2.9.4.8-.2,1.3-.9h1.9l.9.7,1.6-.3.9.2.9-.3,1.2,2.6v.4h.1Z" fill="#1e69d9" stroke="#fff" stroke-miterlimit="3.1" stroke-width=".3"/>
      <path id="SO" d="M334.9,120.4l2.1-.5.9-.7.9.2-.3.5v1.4l-.2.5v1.5l-2.4,4-.5,1.5-1.8,2.7-3.1,3.4-1.7.9-2.5,2-1.5,1.6-1.7,2.3-.9-1.3v-6.1l1.4-2,.4-.3,1.1-.2.6-.6,1.4-.5h1.7l2.4-2.6,2.5-2.5,1.6-2.4v-3l-.4.2Z" fill="#1e69d9" stroke="#fff" stroke-miterlimit="3.1" stroke-width=".3"/>
      <path id="LK" d="M386.1,125.6l.5-2.9,1,.8,1.1,1.4.8,1.5.2,1-.3.9-1.7.9-.9-.3-.4-1.1-.4-2.2h.2-.1Z" fill="#1e69d9" stroke="#fff" stroke-miterlimit="3.1" stroke-width=".3"/>
      <path id="BW" d="M286.5,180.2v-4.6h1.7l.2-6,3.8-.5.4.8,1.1-.8,1.7-.3.4.9.7.9.2,1,1.7.9v.7h.8v.9l.5.9,1.7.4.5.6-1.9.9-.8.9-1.3.7-.3,1-.7.6-.9.2-.6,1.4-1.3.3-1.4-.3-.8-.5h-.7l-.6,1.2-1.7,1.4h-1.6v-.7l.3-.5-.7-1.8-.6-.5h.2Z" fill="#1e69d9" stroke="#fff" stroke-miterlimit="3.1" stroke-width=".3"/>
    </g>
  </g>
  <g id="listened">
    <g>
      <path id="JP" d="M469.1,82.1l-.2,1.7-.9-.5-.6.2-.5,1.1-.6-.4-.6-.9.7-1.1.4.3,1.4-.7.9.2h0ZM463.1,86l.4-1.2-.9.7v-1l-1.4-.6-.6.9h-.5l1.1-1.3.2-.5-1-.6,1,.5.6.6.6-.7,1,.4h.9l.9,1.1-.4.7v1.9h-.6l.4,1-.7-.9-.9.2-.3-1.1h.2ZM476.2,71.7l1.1.9.5.9-.5,1.3.4.7-.8-.2v.5l.6,1.2-.2,1.8.8.9-.5.9-.6.5-.6-1.1-.9.6-.3.9-.2-.8-.8.7-1.8.2-.7-.8v.7l.6.6-.9.3-.2.9h-.8l-.8-.6.2-1.3-1.6-.2v.6l-1.1-.2-1.3.3-.7.9-.9-.4-.9.2-.6-.8h.7l1.7-1.8-.2-.9.5.8.6.2,1.7-.3,2,.2v-.8l.8-1.1-.2-1.2.8-.3-.2,1.1,1.9-.5.6-.7-.8-.4,1.4-.3.2-2.4-.7-.8-.3-1,.6-.4-.2-.8.9.7h.6v-.7l-.7.2v-.7l.9.7.6.9.3.2ZM478.1,68.3v1.1l-2.7-1.1-1.1.5-.6-.4-.5.5,1.7.8-1.7.4v-.7l-.8-.4-.2-.7.8-.5-.4-.6,1.3.4.3-.4-.4-2.1-.7-.9h-.4l-.5-.2,1.2-.3,3.2,2,2.4.6.7-.5v.7l.7,1-.7.4h-.9l-.7.5h0Z" fill="#1e69d9" stroke="#6e6e6e" stroke-miterlimit="3.1" stroke-width=".3"/>
      <path id="FR" d="M268.6,68.2l.2.9-.6,1.3-.6-.3-.4-1.1.3-.6h1v-.2ZM523.1,173.6v-1.3l1.9,2,1.1.6.9.9-.4.3-2.2-1.4-1.3-1.3v.2ZM150.2,109.1h.2-.2ZM265.6,66.3h-.2l-1.6,1.1-1.5-.2-2.2-.6-1.4,1,.2.9-1,.2-.9-.2h0l-.4-.2v-.2h-.4l-1.2-.4-1.1.2-2-.6-.7-.5.5-.4.5-1.7.2-2.3-1.2-.8-.2-.9-1.3-.7-1.7-.7-.6.2-.5-.4.6-.2-.6-.6,2.4-.5.7.5,1.7-.4-.6-1.6h1l.2.5,1.4.2.6-.7,1.6-.5.5-.5v-1l1.5-.3,1.7,1.3.9.2-.2.4h1l1,.8h.5l.2.2h.6l.7.4,2.1.4-.9,1.3v.9l-.8.4-1.4,1.3.2.5v-.2h.9v.4l.3.4-.2.4.5.5-.8.5.6.5v.9l1,.2-.2.6h0ZM164.1,130.1l.4-.6,1.6.5,2.1,1.8v.5l-1.2,1.5-.4,1.1-.6.5-.6-.3-1.3.4-.9-.4.8-.9.3-1-.6-.9-.2-1.4.5-.8h0Z" fill="#1e69d9" stroke="#6e6e6e" stroke-miterlimit="3.1" stroke-width=".3"/>
      <path id="AU" d="M473.1,198.1l.6.3-1.1.5h-1.2v-.5l1.6-.3h.1ZM469.6,158.2l.2.4h-.9l.6-1,.6.3.9-.3.3.7-.9.5-.8-.6h0ZM485.5,208.9l-1,1.9-.4-.6-1.6,1.3-1.2-.2-.5-1.6.2-.7v-1.8l.4-1-.7-.7v-.5l1,1.3v.4l2.1.8,2.4-.5.6-.5.3-1.4.3,1.2h-.4l-.9,2.7h-.6ZM493.4,166.2l.9,2.1-.4,1,.5.3v1.1l1.4.5.2.5,2.1,1-.6.4.7.9.2,2,.6.6-.2-.8,1.3.9-.2.8.9,1.3h.5l.9,2,.6.2.7-.5-.9,1.3-.3,2.1.4.5-.4,1.1-.2,1.3-2,3.1-.5,1.3-1,1.1v.5l-1.5.8-1.7,2-2.7,3-1,1.7-.2.9-.9.5h-1.9l-1.3.5-1.5.9-.7.2-.3.7-.8-.9-1.2-.2.5-1-2.9,1.7-1.5-.9h-1.2l-1.3-.5-.9-1.5.5-.9v-1l-.7-.8h-1.5l.7-.4.5-.9-.4-1-1.3,1.7-1.3.2.5-.6h.6v-.6l1.9-2.3h-.9l-.6.9-1.1.4-2.1,1.7-.2-1.7-.5-1.1-.6-.2.2-1.2-.6-.4h-.9l-.4-.4h-.9l-1.6-.8-3.5.3-3,1h-1.7l-3.8,1.4-1.3,1.3-2.4-.2-3.2.2-1,.9h-1.1l-.9.8-2.1.2-1.7-.3-1.3-1.3.2-.9.4.2.8-.6.4-1.1.3-1.6-.5-1.3v-1l.2-1.2-.3-1.7-.5-.7v-1.3l-.9-1.5-.3-1.5,1.1,1.8-.4-1.5.2-.3.7,1.5.2-1-.8-2.1.2-.8.6-.9.2-1.6.8-1.3v1.1l1-1.1,1.7-.9v-.9l.6.5.5-.4,1.7-.4h.9l.8-.4,1.1-.2.5-.6.8.2,2.4-.8.6-.4,1.2-1.5.8-.5v-1.5l1.5-1.4v.3l.7,1.6.2-.9.3.3-.2-1.7,1.3.3.2-1.8.8.2.5-1.3,1.6-.2.4-.8.6.3.7-.8.7.3,1.1,1.3-.3,1,.9-.9,1.8.6.2-.3-.6-.8.6-.6.4-1,.6-.2-.2-.6.9-.9,3.5-.4-.2-1.1-1-.3,1.3-.4v.8l.5-.3.4.6h1l1,.5.5-.2.5.5,1.4-.7-.5.5h.7l.6-.4.8.5-.9.8-1.1,1.7h1.7l-.6.9-.6-.7-.6.2-1,1.6,1.7,1.3,1.9.9.8.8,1.1.3.6-.7-.2,1.4,1.1.6,1.5-.5,1.3-2.3.6-1.7v-1.8l.5-1.1-.2-.5.6-.7h-.6l1.2-2.4.2-1.6.2.9h.6l.3,1.1v.8l.4.2-.2.5.6.5v1.9l.5,1.3.9-.5.2.6,1,.6-.3.9v1.9Z" fill="#1e69d9" stroke="#6e6e6e" stroke-miterlimit="3.1" stroke-width=".3"/>
      <path id="PH" d="M458.6,123.6l-.9.5-1.2-1.4.8-.4-.2-.7.6-.8.6.3-.6,1.6.4.9h.5ZM458.9,122.8l.5-.6h.6l-.3.9-1.6.2.9-2.4.2.9-.6.5.2.5h0ZM459.7,120l1,.4v.8l.5,1.1h-.8v-1.2l-.8.3.2-1.4h-.1ZM457.8,118.3l.4-.2.7,1.4-1-.6v-.5h-.1ZM452.4,116.4l1.6.3.6.5.2.9-.5.6-1.9-2.4h0ZM460.4,119.9v-.4l-1.1-1.3h1.5l.6.5v1l.6.9h-.8l-.7-.7h-.1ZM455.6,119.3l1.1.6h.9v.6l-.8.7-1,.5v-2.4h-.2ZM459.6,128.3v-1.1l.2-.5-1.4-.6v.7h-.8l-.4-.7-.6.5-.4,1.2-.5.2.4-1.9.2-.4,1.1-.3.7-.9.6.2.2.7h.6l.3-.7.5.2v-.9l.6.4.6-.3-.2-1.1.2-.6.2.7.6-.2.7,1.5.2,1.7.4.9-.6.9-.8-1-.6,1.1.6.9-.5.9-.6-.5-1.4-.5-.3-.5h.2ZM449.4,123.7l2-2.4-.2-.4.4-.8.7-.4-.2-1.1.8.4-1.1,1.5.3,1.1-1.5,1.1-.4.9-1.8,1.3.5-.9.6-.3h0ZM457.1,115.8l1.7.3-.9.3,1,1v.7l-1.1-.8-.5-.7-1.2-.9.2,1.3-.9-.9-.7-.4-.4.5-1.5-.9.6-.6-.7-.5v.6l-.8-.5-.7-1.9v-.7l.9.3-.4-2.4.2-1.5.9-.2,1.4.6.3-.4-1.2-1.3.8.5.7,1-.2,1.1.8,1-.4,1.4-.9.6-.2.9.7,1v.9l1,.2.2-.5,1.1.6.2.3ZM455.6,119.3h0v-.5l.2.5h-.2Z" fill="#1e69d9" stroke="#6e6e6e" stroke-miterlimit="3.1" stroke-width=".3"/>
      <path id="ES" d="M225,91.8l.2-.5.9,1.1.3-.5,1.3-.3,1.1.7-.3.6-1.3-.6-1.3.2-1-.7h.1ZM259.9,72.5l-1.3,1.5v-.3l-.9-.5,1.3-.5v.3l1-.5h-.1ZM245.3,79.4h.2v.2h0v-.2h-.2ZM245.4,79l-.4.2-.9-.5-.6-1.1-1.4-.4-.2-.5.8-.8-.5-.7.6-.9-.9-1.1h.9l.4-1.1-.2-1.1,1.2-.9-.6-.6-2.5.2v-.6l-.9.3v-1.3l-.6-.8,1.3-.4.7-.5.9.3h3l1.8.2,1-.2,2.7.2.7.5,2,.6,1.1-.2,1.2.4.2.3.2-.2h.4l.9.2,1-.2v.8l-1.7,1.1-1.7.4-2,2.5.3.9.6.4-1.2.6-.3,1.2-1.5.5-.6.9-3.8.2-1.2.5-.3.5v.2ZM249.2,80.5h0Z" fill="#1e69d9" stroke="#6e6e6e" stroke-miterlimit="3.1" stroke-width=".3"/>
      <path id="GB" d="M243.5,43.1v-.6l1.3-.6-.2.8s-1.1.4-1.1.4ZM162.3,224.3l1.7-.2.5.2-.8.9-.9.5-1.1-.6,1.1.2.4-.5-.8-.6h0ZM164,225.9v-.5l.5-.5.2-.7,1.7.2.4.6-2.7,1h0ZM308,81h-.4.4-.2l.2.2v-.2ZM307.8,80.9h0ZM245.4,79h0ZM306.6,81.6h-.4.4ZM243.1,47.6l1.7-.4.9,1-.8,1.1-.4-.2h-.6l-.5-.5-.4.5-1.3-.6.7-.2.7-.8h0ZM245.6,43.5l-.2-.6.8-.2-.2-.6.6-.6h2.3l.2-.8.9.2-.7,1.1-1.3.6-.2.7,1.1-.3h2.3l.3.4-.7.9-1.4,1.4,1.5.2.8.6.6,1.6.9.3.7.6.6,1.7,2,.5v1.2l-1.1.8-.7.2,1.5.2v.5l-1.7.6-.7-.2-1.7.4-.9-.2-.9.2h-1.5l-.5.6-1.5-.2-.6.6-.4-.3,2-1.8h1.7l-2-.9-.9.3-.5-.5,1.7-.6v-1.6l1.6-.3.5-1.3-.6.2-.5-.7.3-.6h-1.5v.8l-.2-.6-.9-.2.8-1-1.2-.8-.2,1-.2-1.7-.9.2-.5-.6.9-.2.4-.6-1.2.2.3-1.1.3.6.6-.3h0Z" fill="#1e69d9" stroke="#6e6e6e" stroke-miterlimit="3.1" stroke-width=".3"/>
      <path id="DK" d="M269.5,46.4l.5.9v.9l-.9-.3-.9-.9s1.3-.6,1.3-.6ZM271.9,47.9l-1.3-.5-.2-.8.8-.4.2.4.6-.8.7.9-.7.3v.9h-.1ZM267.9,48l-.9-.2h-.2l-.2-.9-.8-.2.5-.6-.5-1.1h.6l1.8-.9-1.3.2-.6.6-.4-.3.6-.6h1.2l.8-.8.8-.2-.2,1.9.9.3-2.1,1.6v.6l.9.5h-.9,0Z" fill="#1e69d9" stroke="#6e6e6e" stroke-miterlimit="3.1" stroke-width=".3"/>
      <path id="CA" d="M138.1,64.3l-.9.2-1,.6-.8.4h-.6l-.9.6-.7-.3-2.4.3-1.3.9h1.1v.5h.2l-2,.3-.6.4-1.3-.2-.9.6-1.3.4-.5-.4h1l-.2-.4.2-.2.3-.6,1.2-.6.3-1.2.9-.9-.2-1.1,2,1.3.7-.6-1.1-1.9-1.4-.2-.4.8-2.4-.5,1.1-.2,1,.2.7-.4-2.3-.2-1.1.2h0v-.8l-.5.2-.2-.9.4-.5-.5-.6.4-.5-1.3.2-.5-.6-.2-1h-3l-.2-.2-1.3.6-.9.8h-2.8l-1.6-.9-3-.5v-.9l-.6.5h-42.1l-.2-.2-.2.2h0v-.5l-1-.5.5-.4-1.3.2-.2-.5-.5.2.5.9,1.2.4-.3.2.5.9-.5.2-1.5-.4-1.8-1.2-2.2-2.2,1-.6.7.6,1.8.3h.9v.2-.4h-2l-1.2-1,.7-1.7-.9,1.2.7-2.7h0l-.6.6-.5.5.3-1.1h.8l-.8-.5-.9-1.6,1.6-1.6.5-1v-.3l-1.6-.9-.8-3-1.4-1.4-.2-.9-1.5.3-.9.7-1.4.5v-.6l-1.3-1.4.4-.5-1.5.3-1.3-.2,2.8-3.9,1.6-2.1,3.2-3.9,1.6-1.9,3.4-3.6h2.8l-.2.6,2,.6h1.3l1.2-.9,1.3-.2.9-.4.9.6.9-.5h1.2l4.1-1-.2.5-2.6.6-1.5.2-1.9.8,3-.9v.5l1.4-.6,1.9-.3v.3l1.3-.7,1.3-.2-.6-.2.4-.5.8.7v.9l.9.7,1.9-1.2.5.5-.9.6,1.9-.2.8-.5h2l1,.7,2,.3.6.3,2.5.3.3-.3,1,.2.8.5-.2.6h-1.3l-.8.8,2.7.2,3.1-.2,2.2-.7.2.9.9.5,1.1-1.2h1.6l2.1-.9-1.4.2-1.8.6-1.6-.2,1.2-.6,3-.5h.7l.2,1.1,1.2-.4-.6.8h1.5l2.1.6,1.3-.2h3.1l.9.4.8-.3-.5-.4-.6.2-.4-.8,2.1-.2.2.7,1.4-.4-1.6,1.3v.4h1.1l.8-1.3h.9l2.2-.8-.2-1,1.3-.4h-1.2l-2.1-.8v-.8l1.1-.5-.5-.3.7-.8h1.1v-.5l1.3-.6h.8-.7l.6-.9-.3-.6.9-1.4,2-.8h2l1,.2,2.6.2-3.4,1.7-.9.2h-2.3l.5.4-1.4.7h-.5l1.3,1.1-.6.9,1.3,1.2h-.9l.5,1,1.5.2-1.5.2.6.7-.7.7.3.3.9-.5.7-.9,1.2-.3.9.9-.2.6h-.9l-.2,1.1.6.6-.2.4,1.6-.4v-.9l.6-.6v.8l.9-.4.9-1.1,1.5-.6-.6-.2.3-1,1.6-.2,2.2.4,1.3.9-.9.3.5.5-1.7.5v.7l.8.8-.8.8h-.6l-2.1,1.3-.6-.2-.6-1,.4,1.4v.9l-1.1-.2-.2-.8h-.9v-.6h-1.9l.9.6-1.2.7-1.7.7h-.8l-1.9-1h-2.3l1.7.2,1.1.8,2.5.2v.2l-1.6,1-.6.5-1.7.4-1.1-.4-.3.7-1.3.3-1.3-.2,1.3.6-.2.5-1.3.5h-1.5l.4.4h-1l-.6,1-2.1.8-2.4,2.5-.6,1.4.2.5h1.9v2.1l-.5.9,2.6-.6,2.9.7,1.1.7.3.6,2.5.7,1.4.6,1-.2,2.3.5-.7,1.3.2.7-.7,1.4.8.9-.4.3,1,.5.5,1.1.9.2.9-.8.4.7.4-.6-.8-1,.8.5.8-.7-.3-1.1.3-.9v-.9l-.6-.9,3.3-1,2-1.3.5-.6.3-1.6-.2-.9-.6-.6-1.3-.5v-.3l1.7-.9.2-.6,1-.5-.5-.8.4-.6h-.9l1.6-1.2-.5-.9.5-.9h.9l3.5.7,1.5-.6,1.8.7.8.6-.4.4,1.3.6,1.9.5-.8.4-.5,1.7.7.8.9.3,1,.9,2.3-.9,1.3-.8v-.8l.8-.4.6-.9.7.9-.2.5,1.2,1v.8l1.2,1.9-.4.4.9.2-.9.6.9.4-1.3.4h1.2l.9,1.3-.5.4,1.2-.2-.2.4h1.2v.4l2.1.4.2.2-1.3.2-.8.5-2.3.5-.2.7,3.4-1.5.9.2.2.7,1.9.4-.2,2.1-.5.5-1.7.9h-1.1l-2.1.7-1.6,1.1-2.3.2-3.8-.2h-4l-1.3.8-.5.9h-1l-1.7.9-1.8,1.7-2.4,1.6,1.2-.3,2.7-2,1.4-.6,3.3-.9h1.9l1,.5-.3.8-1.7.7-1.8-.2,1.2.7h1.3l-.8.8.6,1.5.6.5,2.4.7.9-.5,1.3.9-4,1.3h-1.3l-.2.5-2.3,1.5-.7-1.1.5-.9,2-.9,2.4-.4h-1.9l.2-.9-2.4,1.2-1.6.2-.4-.2-.5-.2.2-.5-.3-.2-.2-.2.5-2.2-.7-.4-.9.2-.4-.4-1.5,1.2-.7,1.4-2.2,1.4h-5l2-.7.5-.7-.6.7-2,.7.5.8ZM141.1,62.5l2.1-1h.2-.2l-2,.8-.2.2h0ZM156.4,56.1l1.1.2,2.1.8.2.5h-.9l-1.9-.5-1-.7.4-.2h0ZM131.8,50.7h.5l.3.9-1.8-.6s1-.3,1-.3ZM140.4,35.4v.6l-1,.7-.5-.3.2-.6,1.3-.4ZM137,34.5v.4l-2,.9h-.9v-.5l1.2-.7h1.7ZM143.9,32.8l.6.5-1.5.9-.6-.5h1.2l.6-.6-.3-.4h0ZM150.3,25.6h.5l-.5,1.3-1.3.5h-1.6l.2-1,1-.6h1.6v-.2ZM146.9,23.7l.5-.3.2.5-1.3.6.2.6-.9.6.5-.8-.5-.5,1.2-.6v-.3.2ZM116.7,17.3l-1.5.8-.9-.9.3-.5h1.9l.6.2-.5.4h0ZM104.1,12.7l-1.6.9h-1.6l1.6-.6s1.6-.3,1.6-.3ZM121.3,12.3v-.4l1-.2.9.4-1.3.3h1.6v.4h-2.5l.4-.6h0ZM141,10.1l.5.5h-1.6v-.5h1.1ZM122.3,10.5l-.2.5-.6-.5v-.5h.8s0,.5,0,.5ZM134.8,9.9h2.3l-.4.5h-3.1v-.4h1.2ZM156.4,62.3l-1.4-.3.2-.6,1.2.6h1.3l-.5.7-.9-.4h0ZM56,51.5v.9l-1-1.6,1.3-.2-.2.9h0ZM136.1,44.8l1.6.6-1.6.9h-.6l.9-1.3-.4-.2h.1ZM132.7,13.1l1,.9-.9,1h-1.5l-.5-.2-.4.5-.5-1.2,2.9-1h-.1ZM115.7,9l-2-.2,4.1-.5.9.3-.5.5-2-.2-.5.2h0ZM58.6,48.6l1.4,1.8-.6.5-.8-.5v-1.7h0ZM160.1,63l.5-.8,1.1.4-2.1.9-.6-.4v-.6l1.7-1.6.2.7-1.4,1.5.6-.2h0ZM55.1,49.2h2.2l-1.3,1.4-1.1-.3s.2-1.1.2-1.1ZM153.6,18.1h-2.7l-1.5.2-.9-.2v-.7h-.7l.4-.8,1.7.2h1.8l1,.2.9.7s0,.4,0,.4ZM136.3,9l-.8.2v.5l-2.2.2-1-.3,1.3-.2-1-.2-.3-.3.9-.6,2.1.3,1.1.5h-.1ZM163,24.2l-2.8-.3,1.5.5-1.3.7,1.9.2.8.3v.7l1.9-.3,1.2,1.1h.8l-.8.8,1.5-.5,1.3.8-.5.6-1.6.2.2.9h-1.5l-.8.4.3.4-.6.5-.9-.6-.3.3-.9-1.1.3-.4-2.4-.9-.7.2.5.9h-1l-.5-.4.3,1,.9-.3.2,1,2.2.9-.5.5,1.3.8.2.5-.8.5-.8-.5.3,1.1h-.8l.9.7h-.9l-.2-.5-1.6-.5-.5.2-1-1.3v.5l-1.6-.6.7.8,1.8,1,.9.8-.4.3.8.6,1.1.2-.5.4-1.3-.9-1.8-.5-1.6-.2-1.3-.7-1.2-.2-1.5-.7.9-.6-.6-.3h-1v-.5l-.9-.2-.2-.9-.7.6.2-.6-1.1.6-1.4-.4v.4l-1.6.3-1.5-.3v-.9l1.3-.4v-.5l3.1.3,1.6-.4h.9l-.9-1,2.5-1,1-.6.3-1.1-.2-.8-1.4-.2-.5.5,1.1.2-.2.3h-1.3l.9-1.2-.9.2-.7-.3.4-.3h.9l-1-.5-1.8.6v-.8l-.4-.5h.9l-1-.6.3-.6-1.7-.2v.7h-1.3l-.8.5-1.1-.2-.6-.4-1.9.2-.9-.2-2.7-.2-3.5-.6-.5-1,1.5.2h1.5l-.9-.4-2.2-.2.2-1,.6-.6,2.4-1.6,2-.7,1.7-.2h1.9v.3l-1.8.5-1.3.8v.6l-.5.9.7.8.6.2-1.4.5h1.3l.7-.9h-.7l-.6-.5.9-.5,1.1.2-1-.9,2-1.3,2.9-.6h1.7v.8l.6.2v.7l-1.4.9v.3l1.7-.7,1.2.3.7-.5,1.5-.4,2.9.4-.5.6h1.3l-.2.6-1.8.5,2.2-.4-.2.3.8.3.5-.3.7-.2,1.2.2.9,1-.8.5,1.6-.4,1.9.5,1,1.4h-1.2l1.3.6-.2.3h.1ZM171.4,58.4h1.4l-.9.6-.6.8.4.3.6-.8.6-.2-.6,1.1.7-.5.2.4-.7,1.3-.9.2v-.5h-.9l.8-.9-.2-.6-.3.7-1.3.2-.6.6h-1.1l.6-1.1h-1.7l-1.8-.2-1.7.2-.3-.5,1.7-.9-.4-.2,2.7-3.4,1.3-1.2,1.4-.6h.6l-.6.8.2.5h-.5l-1.6,1.4-.4.8,1.3-.9.5.3-.5.7h1.3l-.2.4,1.9-.8v.5l.8.4-.9.6v.5h-.3ZM109.1,10.7l-1.3.2-.5.9-1.8.2-.8.5-.6-.2,1-.6-2,.5.2.2-1.1.4v-.4l-1.4.8h-1.1l-1.1-.3-.9.2v-.4l.9-.4h1.1l1-.5,4.1-1.1,3.5-.4.8.5h0ZM134.4,33.4l-1.3.7h-.9v-.9l-1.9.2.6-.6,1.1-.2v-.9l1.7-1.9h1.2l1.3.9,1.8.7.6.4v.6h.9l.7.6-1.3.5-1.4-.4-.2-.3-1.5-.3-.4.6-1,.2h0ZM120.2,23.5l1.2-.6.9.7h1.2l-.5.2v.9h.9l-2.3.7-2-.5-2.2-.3-.7.4v-.6h1.4l2-.5v-.4h0ZM115.7,22.9l-1.5.9,1.6.4-1.2.3v.6l-.5-.5-1.3.2-1.7-.5-1.9-.2.2-.5-1.6.8h-1.7l-.9.5-5.8.4-.5-.6.5-.6-3-.2-1.1-.8.9-.6,3.5-.3,2.5.2.9-.5-2.1-.4-3.6.3-1.3-.2-.6-.6,3.3-.6.9-.3-3.4.3.6-.5h-1.3l.3-.4,1.8-.5-.2-.4,2.2-.8,4.4-.7.5.4-.5.5-1.1.3,1.6-.2,1.1-.6,2,.6-1.4.5h1.2l1.6-.5-.2-.5h.8l1.3.7-.6,1.3.5.3,1-.5-.4-.4.4-1,1.3-1.3.3.5h1.2l.9.8-.5,1.1.2.9-.9.8.5.6,2.5,1.1.8-.2-1,1.2-.9-.7h-.6ZM125.5,19.7l-2.4.6-1.3.4-1.6-1.6-1.3-.2-.6-.5.7-.6h.6l.5.6,1.4-.2v-.5l-.8-.6,1.4-.6,1.6-.2.5.3,1.6-.2h-1.6l2.4-.4-.3.4.6.5-2.7,1h2l.2.9-1,.9h.1ZM102.9,17.1l-6.3,1.4-.7.5-1.3.2-1.7,1.3-3.9.6-.4-1-1.2-.4h-.9l2.2-1,.2-.5,3.2-1.5-.3-1,3-.2,1.5-.2,1.4.5h2.7l1.3.3,1.1,1h.1ZM124.7,13.8l1.8-.4-4.2.3.4-.4h-.9l1.8-.5.8.4-.3-.7,1.1-.6,1.1-.2,3.8.4-1.2,1.7-1,.2v1.2l-.4-.7h-2.9v-.7h0ZM115.5,11.6l1.1-.2-.4.8.3.2-.9.4.7.3,1.7-.3.9.2.4,1h1.2l-1,.6-1.1-.7-1.2.6-3.3.2v-.2l-4.8.9-2,.2-1.4-.4,3-.6h1.3l1.2-.4-6.6.5-2-.5,1.9-.9,2.8-.2h-2.4l.7-.5,1.8-.5h1.4v-.5h.5l-.3.9h1.4l1.3.6-.3.5h2.8l.3-.3-.9-.2,1.3-.4-1.1-.3,1.9-.7h-.2ZM137.4,15.2l-2.4-.4v-.7l1.1-.6.2-.5-.5-.8-3.1.2-.8-1.2,1.5-.2,2.4.2.4.5h2.2l1.9.7h-2.4l1.2.2,1.8.9,1.5-.2,1.2.2,2.1-.2,1.3-.3h3.3l1.5.6-.2.5-1.3.2,1.3.2-1.5.5-2.1.2-2.1-.2-1,.2h-4.5l-1.3-.2-1.5.2h-.2ZM115.9,10.4l-2.7.2-.9-.2-.2-.5-.9.2-.8-.4,1.3-.2.7.5,1.7-.3,3.3-.2-1.8.4.7.2-.6.5.2-.2ZM125.1,7.3h2.1l.9.5.8-.2,2,.9-.6.2.2.9h-2v-.5h-2.1l-.2.5,1.7.2h-2l-.2-.7.9-.3-2.3.2-.3-.4h1.8l.4-.6-2-.2.8-.5h.1ZM146.5,5.9l1-.4h.9v.9l-.7.6h2l.3.5-2.2.3-4.5,1.5-.5-.7v.7h-2.6l-1-.2-1-1.1,1.4-.3h1.6l-.3-.3-1.8.2h-1.6l-.2-.5,2-.3-2,.2-.4-.7h2.3l-1.7-.3,1.5-.2-.3-.5,2-.2h-1l1.2-.5.4.2,1.7-.2-1.2-.3,1.6-.2,1.3.3.2,1h1.7l-.2.6h.1ZM152.5,10.6l2,.4-.7.3h1.9l-.2.4-1.3.2-1.1.5-1.8.2.2-.5h-5l-.9.2-2.5-.2h-1.4l.3-.5-.9.5-1.5-.2-.2-.4,3.5-.7,1.9-.2-.9-.2v-.8l1.4-.2,1.3.3-.2.5,1.3-.6v-.5h-2.4l.5-.5,1.6-.6,1.9-.2h3.8-2.7v-1.2l-1.6-.2.9-.9h3.1l1.4.8.2.4.8-.5-1.6-.6,6.6-.5h-2.3l2.4-.3-.5-.3-3.3.6-4.9.2-1.8-.2,1.7-.6,4.4-.4-4.7.3-2,.6-2.1-.4,1.3-.2h2l2.8-.5-2.4.2-4.1.2.5-.5-.9-.2,1.7-.3h-2.7l1.5-.3,3.9-.5,3.7.2-2.1-.2,1.9-.3-.2-.2,3,.2,2.9.6-2.4-.7,1.3-.5,1.5.2-.8-.4h2v-.2h3.3l1.5-.2h2.1l.2.3,1.8-.4h3.4l-.2.2,3.6.2-3,.4h1.4l3.5-.5,1.6.7h1.5v.5l-4.3.8h-1.1l-1.9.4-4.5.5,5.6-.5h1.5l-2.1.5-3.3.8-3.7,1-1.5.6-1,.2-1.3-.2v.4h-2.4v.2h-3.8.8l3.5.2-.2.3-1.7-.2-1,.2,2.3.5-.5.3h-2.1l1.5.3-.9.5-1.9.3h-1.2l-.2.5-2.1.5h-2.2Z" fill="#1e69d9" stroke="#6e6e6e" stroke-miterlimit="3.1" stroke-width=".3"/>
      <path id="JM" d="M126.7,108.4h.9l1,.9-1-.2-.6.5-.9-.2-.6-1h1.3-.1Z" fill="#1e69d9" stroke="#6e6e6e" stroke-miterlimit="3.1" stroke-width=".3"/>
      <path id="NO" d="M280.4,8.6h.8l.3.5-1.5.2-1.2-.5,1.6-.2h0ZM280.7,10.4h-.6l.7-.8-.9-.2,2.5-.2.3.4,1.6.3-1.3.9h-1v-.5l-1.4.2h0ZM295.7,23.1l.2.5-.9-.2-.2.5-1.3.5.4-.8-.4-.3-1.7-.6-1.9.2-.6.4-.2,1.3-.9.5-1.4-.5-.9.3-1.1-.2-1.2-.9-1.3.4-.7,1.1-2.5-.3-.2.9-.9-.2-1.5,1.2.4.6-1.3.9.2.4-1.3.2v1.3l-1,1.3.6.2v.8l-1.1-.2-.8.2-.9,1.1.4.5.2,1.2-.2.9,1,.6-.2.5h-.6l.6.9v.6l-1,.4v1l-.5.5h-.4l-.5-.2-.5-.6-2.9,1.9-1.3.4-1.6-.2-1.6-1,.2-.6h-.5v-1.4l-.7-1,.3-.9h-.5l1.1-.8-.9-.4,1.3-.9,1.3-.4.6-.7,1.4-.2,1-.6-.8-.3.7-.2.6.5.7-.2.6.6,1-.2v-.3l-1.3.2-.6-.4,2-1.5,1-.2h-1.4l1.4-.3.5-.8h.4l-.3-.9,1.7-.3-.7-.2,1-.7-.3-.2,1.5-.5-.5-.4,1.4-1.1,1.3.2-.3-.6.2-.2-3.8.6-1,.5.4-.5,2.3-.6-.6-.4,1.5-.3,1.5-.2v.8l1.1-.9-.7-.2,1.2-.6h1.6l.2-.2,1.4-.4.5-.5.9.6.9-.3-.9-.2,1.7-.2-.2-.7,1.5-.2.6.5.3-.7,1.6.2.5-.6.2.5-1,.6.2.6,1.8-1.4v.9l1-.8-.3-.3,1.8.2-.8.8h.6l.6-.6,1.6.2,1.7.7-1.2.4h-2.1l3.1.4-.6.2ZM271.3,10.3l3.5-.5-3.5.2-.5-.5h1.7l.9-.5-1.3-.6v.6l-1.1.3h-1.2l-1.2-.7.3.7-1.3-.4-.8-.8.8.3.2-.4-.9-1,1.3-.5.4.3,2-.4-.5.7,1.5-.5,1,.3.3.5,1.3.7-.7-.7-.5-.9.6-.3,1.6.3,1.6.6.4.7,1.4.2,1.9.3-3.1.6-.6.9v.7h-.6l-.9,1.5-3.1-1-.8-.6h0ZM283.3,7.5h-1.3l-.2-.4-3.8.2-.2-.5,2.7-.2v-.2l-3.8.2-.6-.3.7-.2-1.3-.2.6-.4,1.3.5.6-.8.5-.2.6.7h1.2l.7.4.3-.9.4.6,1.6-.2,3,.2.6.5-1.5.4.2.2-2.2.5h-.1Z" fill="#1e69d9" stroke="#6e6e6e" stroke-miterlimit="3.1" stroke-width=".3"/>
      <path id="ID" d="M452.7,154.6l1.3,1-.6.5-1.3-.9-.9-.2.4-.5h1.3-.2ZM447.3,153l-.9.9-.2-.8.6-.4.6.3h-.1ZM445.3,153.5l-.6.2-1.3-1.2h1.3l.8.5-.2.5h0ZM483.8,152.6l.2.4h-2l.7-1.3,1.3-.5.4.4-.6.9h0ZM472.4,150.9l-.3.9-.8.9-.2-1.3.3.2.9-.6h.1ZM443.5,150.8l-1.3.2h-1.3l.2-.5h1.8l.6.3h0ZM457.2,148h-.9v-.5l.5.4.2-.9.9-.5,1.2,1.3h-.7l-.7.7-.4-.5h-.1ZM465.1,145.4h-.8l-.9-.3-.2-.7,1.3-.2.7.5v.7h-.1ZM432.3,143.9l.3-.5h.7l.2.9-1,.2-.2-.6h0ZM462,142.1h1.6l-.8.5-.4-.3-2,.2v-.5l1.6.2h0ZM419.3,142.4l1.4,1.7-.7-.3v-.5l-1.9-1.3-.5-.8.5-.5.6,1.4.6.4h0ZM470.6,139.9l-.3-.7.9-.2.7.6-1,.2.7.9-1.3,1.7-.9-.3,1-.3.7-.7-.6-.6v-.6h0ZM465.3,140.3l.4-.8.5.7-.2.8.8.8h-1.3l.5-.7v-.7h-.7ZM427,137.6l.9,1.7-.7.8-.2-.2.5-.9-.9-1.9,1.3.3-.9.2h0ZM414,135.1l-1.3-.7.2-.3,1.2,1,1.4.2v1.1l1,.9-.4.6-.7-1.1-.2-1.4-1.2-.4h0ZM431,143.9l-1.2-.2-.3-1.1-1.1-.3.8-.7h.7l.4,1.3.9.4-.2.6h0ZM476.9,149.8l-.6.5.2-1.3.6-.9.5.4-.2,1.1-.5.2ZM424.1,137.4l-.7-1.1.7.2v.7h.9v.5l-.9-.3h0ZM448.6,153v-.4h1l1.4.3v.5l-.9.4-2.4.4-.4-.2.2-.9,1.2-.2h-.1ZM466,144.4l.3-.6,2.7-.2,1.7.6.2.4,1.2,1.1-3.1-1.3-1.1-.2-.5.5-1.1.4-.2-.9v.2ZM460,154.3h.2l.6-.4v.4l.2.5-1.1,1.1-1.7.3v.5l-1,.4,2.2-2.6.3.2.4-.5h-.1ZM449.3,132.2h.3l-.5.2.3.8-1.2-.2,1.7,2.3-.4.6,1.9,1.5-.3.3-1.7.2-.4.7-.2,1.4-.6,1.1-.8.4-.3,1.3h.3l-.4,1.1-.4.2.2,1.5-.5-.5-2.3,1v-.9l-.6-.5-1,.2v-.5h-1l-.8.4-1.3.2v-1.3l-1.9.5-.6-.2-.5-3.1-.8.3.2-.7-.7-.6v-1l-.5-1.2.3-1.2.9-.9v.9l1.6,1.2,1-.3.6.2.9-.3.2-.5,1.3-.2,1.1.6.5-.4h.9l.6-.8v-.5l.6-.4-.2-.5.6-.4.2-1.9.3-.3h2.2l.7.4h.2l.3-.2ZM487.9,143.3l-.2,6.2-.3,4.6-1.4-1.4v-.3l-1.9.4.4-1.3-.7-.5.2-.9-1.4-2.3-3-1.3h-1.3l-1.4-1.1h-.6l-.5-.6-.7.9h-.6l-.2-1.3-1-1,.9.2.5-.5,1.7-.2v-.5l-2.2.3-1-.3-.4-.9-1.4-.2.5-1,2.4-.8,1.1.6h1l.5,1-.2,1.3.5,1.2.2-.6.7,1.4h.9l1.3-1.3.2-.5,1.3-.2-.5-.5-1,.2-.6-.5-.2-1.3.7.4v.9l1.5.2,1.2-.5,3.4,1.5h.5l1.3.3-.2.2ZM429.2,143l.7,1.4-.2,1-.3,3-.4.2-.5-.5-1,.8-1.3-1.3-2.6-1.9-.2-.6-1-.6-1.3-1.8v-.5l-.9-1.7-1.6-1.8-.9.2.4-.8-.9-2.1-1.5-.8v-.8l-1.6-1.5h-.4l-1.8-1.8-.4-.7.3-.6,1.6.7h1.8l.7.5.6,1.2,2.5,1.7.3.9,1.7,1.3-.3-.5,1,.5.4-.3.2.7.6.5.8,1.1,1.3.3.7.9-.6.3.6.2-.6.6.7.5h.9l.3,1.4.5.3-.2.5h1.9ZM454.4,152.9l.8.4.4-.4.9.5,1.1-.7,1.8.2,1.8-.2v.3l-1.8.3-.4-.4-.6.5-2.2.2-.6.2h-1.5l-2-.4.9-.5h1.4ZM439.1,152.7h-1.8l-2.1-.9-1.8.2-1.4-.5-1.5-.2v-.5l-1.6-.5.9-1.5,1.3.3.4-.3,1,.5h1.1l.4.9,3.1.3.5-.8,2.2.7h.6l.5,1.1.9.4,1.2-.3.7.4-.2.9.4.6-2.2-.9-1,.3-1.4-.3h-.2ZM456.8,144.7l.7,1.2.6-.2-.2.7-1.3.2v.5l-1-.3.3-.9-1.3-.9.4-1.3-.6-.2-.9.5.4.5v2.4l-.3,1.4-1.3.2-.3-.4.5-1.8-.5-1.5-.6.2-.2-1.6.6-.3.3-.8v-1.2l.7-1v-1.5l.5-.8h.9l.6-1,1.2.5,3.9.4,1-.6.9-.9.2.6-1.6,1.6-1.8.2-.3-.3h-4.4l-.6,1.2.2.7,1,1.3h.7l.9-1.6.7-.3.2.9,2-.2-.4.9.5.2-.8.9.2-.9-.5.5-.2-.8-.6.6-1.3.7.8,1.3.7.8-.4.4-.2-.2ZM466.5,140.2l-.9-1.3v-.9l.3-.3-.4-.6.2-.9.9-.9.7-.5v.9l-.9.6v.7l-.6.5.3.4.6-1,.9-.3v.9l-.7.3.9,1-1.5-.4v.9l.8,1.4-.7-.4h.1Z" fill="#1e69d9" stroke="#6e6e6e" stroke-miterlimit="3.1" stroke-width=".3"/>
      <path id="SE" d="M281.8,42.9v.9l-.9.7-.4-1,1.3-.5h0ZM282,24.4l2.1.9,1,.2,1.3.7-.2.8.9,1.2-.4.6.9,1-1.4.2-1.2-.2.2.6-.9.2-.7,1,.7.3-1,1-1.5.7-.4-.2-.5.6-1.6,1.2h-.8l.4.5-.4,1v.9l.8.9.4-.2,1.7,1.3-.2.9-.7-.2-.4.6-1.7.6.2.5-.6.7.4.7v1l.6-.6-.8,1.7-.3-.7-.6.9h-1.7l-.7.5v.7h-1.7l-.8-1.5.5-.6-.8-.5-1-1.3v-.7l-.8-.4v-1.1h0l.4.2.5-.5v-1l.9-.4v-.6l-.5-.9h.6l.2-.6-1-.6.2-.9-.2-1.2-.4-.5.9-1.1.8-.2,1,.2v-.8l-.6-.2,1.1-1.3v-1.3l1.3-.2-.2-.4,1.3-.9-.4-.6,1.5-1.2.9.2.2-.9,2.5.3.7-1.1h0Z" fill="#1e69d9" stroke="#6e6e6e" stroke-miterlimit="3.1" stroke-width=".3"/>
      <path id="BR" d="M170.3,138.2v.5l1.1-.3-.3.6h-1.8l1-.8ZM169.3,140.3l.9-1,3.3.3-.8,1.9-1.6.6-.7-.3-.6.2-.6-1.7h.1ZM168.2,194.8l.5-1.3.9-.4-.2-.6-.7.8-.8-.5-1.7-1.5-1.1-.3-.6-.7-.6.4-.4-.8-1.1-.8h-1.3l1.7-1.7.9-1.4,1.3-1,1.6-.7.2-1.6-.5-1h-1.2v-.3l.5-1.3v-1l-.8-.4-1.3.2-.5-2.2-1.3-.9-.4.2-2.2-.2v-1.9l-.5-1.3.8-3.3-.5-1.1-1-.5-.2-1.5-2.7-.2-.8-4.1-.9-.5-1.3.2-.6-.7-1-.2-.6-.5-2.2-.3-1-.8-.7-1.4-.2-1.1.2-.5-.3-.9-2,.4-1.7,1.3-.9.5h-3.9v-2.6l-1.1.9h-1.7l-.2-.7-1.6-.2.5-.5-1-1.3-.3-.9-.6-.4.5-.4v-.7l.9-.8-.2-.5.5-1.6,1.6-1,1.6-.2.2-.4,1.4.2.8-4.6-.3-1.5-.7-.6v-1.3h1.5l-.3-.8h-.9v-1.1h2.8l1.4-.6.4,1.6h.3l1.3.7.6-.4.3.5.7-.8,1.7-.8.2-.5,1.1-.4v-.5h-1.1l-.2-1.8-.7-.6h2l1,.6v-.7l2-.3,1-.5.6-.7-.2-.4,1.3.2-.2.9.7.2.2.7-.5.6-.2,1.6.4,1.3,1.6,1.1.8-.6,1.3-.2.8-.5h1l.8.3v-1.2l.5.2,1.3-.2.6.3.9.4,1.3-.4.6.3.6-.5.4-1.1,1.2-1.5.2-.6.7.9.2,1.4.5,1.5h.3l.9.8-.3,1.6h-.6l-1.6,2.1.2.8-.9.7-.7-.2v.5l2.1-.9.5,1.2,1.6.2.6-.3-.5,1.6.7-1.2,2.1-2.2h.8l.7.3,1.5.2,1.4,1.3.5-.6.8.9v1.8l.2-.8.4.5.7-.9,2.1.9,1.3.2h2.7l2.5,1.3.6.7,1.5,1.3.9.3h1.7l.6.6.8,2.8v1.3l-.8,2.1-1.7,2.1-.9.5-1.2,2.1-1,1.5-.7-.6-.3,1-.2,2.4.5,2-.6,2.1.2.9-.7.9v2l-.5.6-.5,1.4-.5.4-.5,1.1.2.7-1.6,1-.2.7h-3.7l-1.6,1.1-2.4,1-1.3,1.2-1.2,1.8v1.1l.5,1.4-.4,1.6-1.6,1.6-.6,1.7-1.2,1.7v-.7l.6-.5v-.7l-.9-.2-.2,1.4-.8.4-.4.7v.9l-.4,1.3-1,1.1-.3-.2v-.5Z" fill="#1e69d9" stroke="#6e6e6e" stroke-miterlimit="3.1" stroke-width=".3"/>
      <path id="IT" d="M275.6,77.3l-2-1,.5-.6,1.6.3,3-.5-.7.8-.2.8.4.5-.3.6s-2.3-.9-2.3-.9ZM267,71.2l1-.5h.9l.5,1-.3,2.3h-.8l-.4.5-.7-.2.2-1.9-.3-1.3h-.1ZM265.6,66.3l.2-.6-1.1-.2v-.9l-.5-.5.8-.5-.5-.5.2-.4h1.3l.3-.5,1.2.3v.4l.6-1.1,1.1.2.7-.3v-.6l2.7-.4.4.7,2,.2-.5.4.6,1.2-.8-.3-1.6.8.6.5-.5.5.2.8,2,1.2.8,1.5,1.8,1.1h1.3v.9l3.2,1.3.8.9-.2.5-.8-.8-1.3-.4-.7.7v.7l.9.5v.8l-.9.2v.5l-.8.9-.7-.2.3-1,.6-.2-1-2.1-1.1-.3-.2-.7-1.2-.3-.6-.6h-1l-.6-.3-1.6-1.4-.7-.4-1-1-.8-1.5-2-.7-.9.9-1,.2h0ZM273.4,69.5h0ZM273.3,66.2v-.2h0v.2Z" fill="#1e69d9" stroke="#6e6e6e" stroke-miterlimit="3.1" stroke-width=".3"/>
      <path id="SD" d="M293.2,106.6v-.8h1.7l-.2-3.3h19.5v.5l.8,1.3v1.4l.6,2.1,1.8,1.2-.6.8-2,.8v1.3l-.8,2,.2,1.4-.6,2.6h-.7l-.8,1.3-.6,2-.5-.3-.7,2.4h-.3v-1.3l-1.3-1.1-.2-1.3.2-1-.8.4h-1.1l.5.5.2,1.1-.8.6-1.1,1.5h-.8l-1.3-.9-2,1.6h-1.3l-.3-.4h-2.2l-1.2-1.4-1.3.2-.5.8-.4,1.6-.6.3-1.1-.2.2-1.8-1.3-1.7v-.9l-.6-.4v-.7l-.6-1.1h-.6l.7-.9-.3-.8.8-.6-.3-.7.6-.2.6-1.6h1.4l-.2-6.4h.2Z" fill="#1e69d9" stroke="#6e6e6e" stroke-miterlimit="3.1" stroke-width=".3"/>
      <path id="MN" d="M431.4,56.3l-.6,2.7.8.7,1.4-.2,1,.2.5-.2-.3-.2h1.3l2.2,1.3.6.5-.2.6-2.3-.2-1.2.6h-1.1l-.3,1-.6.5h-1.7l-1,1.2-2.7-.5-.5,1,1.2,1.3-1.3.6-.5.9-1.3.5h-2.1l-2,.3-2.2.9-1,.2-.2-.3-1.2.2-1.1-.4-1.7-.3-.8-.5-2.6-.2-.8.2-3.7-.4-1.3.2-1-.9-1.3-1.7h-.6l-1.9-.7-.8-.4-2-.2-2.2-.2-.5-.6.2-.9-.2-.9-1.7-1.8-1.4-.5h-.8l-1.9-.9-.5-1,.4-.5h1l1.1-.4-.2-.3,2.4-.9,1.3-.7.5.4,2.5.2.8.9,1.5.2.5-.2,2.4.5,1-.5v-.7l-1-.8v-.8l.9-1.1,2,.6h.8l2.8.7.6,1.2,2.4.8,2.3-.6,2.1.2,1.1.5h1.1l.2.6,1.2.5h.9l2.5.3.8-.4,2.4-.4v-.3l1.4-.8,2,.6,1.2-.2.8.3.2-.4Z" fill="#1e69d9" stroke="#6e6e6e" stroke-miterlimit="3.1" stroke-width=".3"/>
      <path id="PT" d="M242.2,77.2l-.9.4-1-.2-.6.2.3-.6v-1.7l-1-.5,1.3-3.5-.2-1.7.2-.2.9-.3v.6l2.6-.2.6.6-1.2.9.2,1.1-.4,1.1h-.9l.9,1.1-.6.9.5.7-.8.8.2.5h-.1Z" fill="#1e69d9" stroke="#6e6e6e" stroke-miterlimit="3.1" stroke-width=".3"/>
      <path id="MA" d="M249.2,80.5h0l.2.2h.9l.8.6v2.5l.5.9.6.3-.3.7h-2l-.5.5-1.3.2-.3.5.3,1-1.2.4-2.3,1.5-2.2.2-.9.2-1.6,1.2v1.7l-.2.9h-1l-.6.5-1.9-.2-.8.2v.5l-.6.9h-.5l-.7,2.1-1,.7-.5.7-.7.3-.5.6-.3,1.8-1.1,1.4h-3.5l.5-1.3.6-.5.2-.8,1-1.6,1.3-1.2.2-1.2.6-1.2,1.4-.9,1.2-2,2.4-.6,1.5-1.1,1.3-1.4.3-.9-.4-.5v-1.2l1-1.3v-.6l1.3-1.2,2.4-.9,1.3-1.7.6-1.5.9-.2h0v.2l.2.4,1.4.8,2.3-.3h0l-.3-.3Z" fill="#1e69d9" stroke="#6e6e6e" stroke-miterlimit="3.1" stroke-width=".3"/>
      <path id="NL" d="M150.3,109.1h-.2.2ZM259,53.7h1.3l-.6.2-.7-.2h0ZM264.7,50.6l-.2,1.7-.9.6h-.7l.5.6-.3,1.3-.2-.7-1.3-.5-1.2.2-.6-.4,1.5-2.2.7-.3.4-.6h1.8l.5.4h0Z" fill="#1e69d9" stroke="#6e6e6e" stroke-miterlimit="3.1" stroke-width=".3"/>
      <path id="KE" d="M318.9,146.8l-2.4-1.7-.2-1-5.9-3.3.2-1.2h1.1l-.2-.5-.9.3-.4-.9,1.7-2.3-.2-1.4-.8-1.1v-.9l-.8-.9.7-.6,1.6-.7.4.7h.5l.2.3h1.3l2,1.3,2.4.4.5-.8,1.5-.7.7.5h1.2l-1.5,1.9v6.1l.9,1.3-1.5,1.4-.8.4v.9l-1.3,2.2h-.4l.4.3Z" fill="#1e69d9" stroke="#6e6e6e" stroke-miterlimit="3.1" stroke-width=".3"/>
      <path id="FI" d="M287.7,29.7l-.9-1,.4-.6-.9-1.2.2-.8-1.3-.7-1-.2-2.1-.9,1.3-.4,1.2.9,1.1.2.9-.3,1.4.5.9-.5.2-1.3.6-.4,1.9-.2,1.7.6.4.3-.4.8-.5.8.4.5.9.2,1.1.6-1,1.4,1.3,1.2.4.8h-.6v1.1l.9.5v.5l.7.6-.7.5,1.9.9.6.5-.4.7-2.6,2-1.8,1.2h-.9l-1.7.5h-1l-2.3.5-2.4-.6-.8-.5-1.6,1-1.1-.5.7-.2.4.6,1.5-1.3v-.7l-.4-1.9-.5-.6.2-.8,1.6-.3.5-.8.8-.2,1.8-1.6h.7v-1l-1.7-.6v.2Z" fill="#1e69d9" stroke="#6e6e6e" stroke-miterlimit="3.1" stroke-width=".3"/>
      <path id="IR" d="M324.9,77.4l-.3-1-.6-.4-.2-1.4-.5-.9,1.2-.4,1.1,1,1.2.2h.5l2.1-1.4.7.5-.4.9,1,.7h.4l.4,1.1.7.4,1.2.2.6.6,1,.5,1.3.2,2.4-.5h.9l-.2-.8,1.3-.3.9-.9h1.4l.2-.3h1.2l.3.5,2.4.5,2.1,1.1.6.6,1.3.2.3,1.6-.2,2.1-.6.4.2.8h.6l-.3.9.5,1.3.2,1.3,1.4.2.3.9-1.3,1.6,2,2.2,1.4.5.2,1.6,1,.2-.3.9-1.3.2-.7.5-.2,1.7-.2.2-1.5-.6-1,.2-1.8-.4h-1l-1.4-.3-.7-1.8-1.1-.5-.7.7-.4-.4-1.3.9-.9-.4h-.9l-.5-.5-1.4-.6-.3-.4-1.7-.6-1.4-2.5-1.1-1.3-.7.3-1.1-.6v.6h-.6l-.9-.8v-.9h-.6l.2-1.3-.8-1-2-.9-.7-1.1-.9-.5v-.8l.6-1.1v-.7l.5-.5-1.7-.3-1.1-1.9h-.3Z" fill="#1e69d9" stroke="#6e6e6e" stroke-miterlimit="3.1" stroke-width=".3"/>
      <path id="CD" d="M302.4,144.6l-.3,1.6v1.3l.6.9-.4.5.5,1.3,1,.9.2.9.5.6-2.7.5-.9,1,.2.5.3.6v1.3l-.6,1.5.2.7.9.9.8.2.5-.6v2.1l-.5-.3-.6.3-1.4-1.7-1.1-.2-.7-1.2-.9.7-2.2-.6v-.8l-1.7.3.2-.5-.7-.4-1.6.4h-.8l-.5.2v-.8l-.2-1.4-.6-.9.2-1.6-.3-.7v-1.3h-2l.2-.6h-1.8l-.2,1.8h-2l-.9.2-1-1.3-.6-2.3-.5-.2h-5.2l-1.3.3-.4-.5h.6l-.2-1.2,1.1-.7.5.5,1.7-1v1l.8-.2,1.2-1.3.6-.2.5-.9v-2l1-1.4.8-.4.8-.8.3-1.5-.2-1.1.3-.9v-1l.9-1.6v-.6l-.2-1.4.9-.9,1.1-.4,1,.6.4.5,3.2.4.6-1,.7.3,2-.8h1.3l.5-.5,1.5.6,1-.2.6.2.6.8.9.5.7-.5.7.4.5-.6.6.2.6,1,1.1.8-.2,1.7.9.5-1.3,1.1v.4l-.9.7-.4,1.5-.6.7h.6l-.2.7v.8l-.3.2-.2.2-.5.5v1.2h.2l.3.6v.9Z" fill="#1e69d9" stroke="#6e6e6e" stroke-miterlimit="3.1" stroke-width=".3"/>
      <path id="DE" d="M266.8,47.9h.2l.9.2h.8l.3.5.9.3v.4l1.1.2,1.5-.9.9.2.4-.6.6.6-.7.2,1.4.6h-.6l.7.3.2.7-.3.7.8.4v1.3l.7.9-.3.7h-.7l-2.7.8-.2,1,2.3,1.6-.2.4-1.4.7v.7l-1.7.2-.9.3-.9-.3-.4.5-.7-.4-.8-.4v.2l-.9-.2-.2.4h-1.3v-.9l.9-1.3-2.1-.4-.7-.5.2-.5-.6-.5.3-.3-.5-.7.3-1.3-.5-.6h.7l.9-.6.2-1.7-.2-.5,1.2-.3,1,.4.6-.6-.6-1h.6l-.5-.6v-.3ZM268,59.9h0Z" fill="#1e69d9" stroke="#6e6e6e" stroke-miterlimit="3.1" stroke-width=".3"/>
      <path id="BE" d="M263,54.8l.5.7-.3.3-.6.4.2.6h-.5l-1-.7h-1l.2-.5-.9-.2-1.7-1.3.9-.4h.3l.7.2.6-.2h0l1.2-.2,1.3.5.2.7h-.1Z" fill="#1e69d9" stroke="#6e6e6e" stroke-miterlimit="3.1" stroke-width=".3"/>
      <path id="IE" d="M243.1,47.6l-.7.8-.7.2,1.3.6.4-.5.5.6h.6l.4,1.8-.6,1.3h-1.7l-2,.9-1.7.2-.8-.6.7-.3.6-.9-.6.2,1.4-1.2-1.7-.2.5-.4v-1.1h2l.7-.6h-.9l.8-.9,1.6-.3v.5h-.1Z" fill="#1e69d9" stroke="#6e6e6e" stroke-miterlimit="3.1" stroke-width=".3"/>
      <path id="PE" d="M139.5,164.8l-.9-.2v.8l1.5.6h.2l-.2.5h0l-.9,1.3.3.3-.6.4-.2.9-.7.2-1.7-1-.2-.7-1.6-.9-2.2-.9-2.6-1.4-1.3-1.2-.6-.9v-1.2l-1.7-2.2v-.6l-.9-.6v-.6l-.8-.9-.8-1.9-.9-1.6-.9-.8-.9-1.6-2-1.2.4-.7-.5-.7-.2-1.7,1.5-1.4.3.9-.5.3.2.6.4-.3,1,.4.8.8.6-.7.5-1.9.8-.7,2-.7,1-.8.8-.9.5-1.7-.6-.7h1.3l.9,1.4,1,.5.2.7.5.2v.7l1.3.4,1-.5.6.4.9-.3,1.4.9-1.1,1.7h.7l.6.8-1.4-.2-.2.4-1.6.2-1.6,1-.5,1.6.2.5-1,.8v.7l-.4.4.6.4.3.9,1,1.3-.5.5,1.6.2.2.8h1.7l1.1-.9-.2.7v1.9h1.9l1.6,2.6-.5.6v1.3l.3.9-.8,1.3.5.4-.4.5.4-.4Z" fill="#1e69d9" stroke="#6e6e6e" stroke-miterlimit="3.1" stroke-width=".3"/>
      <path id="KR" d="M454.5,76.2l.6-.8h1.6l.2-.6,2.3,2.3,1,2v.9l-.9,1.3-1-.6-.6,1h-1.4l.7,1.4-.2.5h-.6l.6-.5-.8-1.5-1-.5h.8l-.3-.7.2-1.3-.8-1.2.4-.5-1.3-1.3h.6-.1Z" fill="#1e69d9" stroke="#6e6e6e" stroke-miterlimit="3.1" stroke-width=".3"/>
      <path id="ZA" d="M306,183.6h1.3l-1,2.8-1,.7-1,.9-1.4,2.1-1.6,1.4-.9,1-2.9,2-1,.4h-1l-.2.4h-1.1l-.3.3-1.9-.3-.4.2-1.3-.2-1.1.5-2.2.2-.9.5h-.6l-1.7-1.6-.9-1.7.7-.3v-1.6l-1.5-2.2-.7-2-.5-.9.9-.9.5,1.1,1.2.3h1.6l.7-.6.7-.2.2-6,.6.5.7,1.8-.3.5v.8h1.6l1.7-1.4.6-1.2h.7l.8.5,1.4.3,1.3-.3.6-1.4.9-.2.7-.6.3-1,1.3-.7.8-.9,1.9-.9,1.7.3h1.5l.3,1.8.7,1.6-.2,2.5-.8-.3-1.1,1v.7l.5.6,1.3.2.3-.8-.5.3ZM297.9,188.1h-.4l.5,1.3,1.1.5.5-.8,1.3-.4.6-.9-1.3-1.3-1.5.5-.8,1.1h0Z" fill="#1e69d9" stroke="#6e6e6e" stroke-miterlimit="3.1" stroke-width=".3"/>
      <path id="ET" d="M323,120.3l-.2.2.2.2.2.3,1.7-.2-.4.6,1.3,2,1,.7,4.9,1.6h1.7l-2.5,2.5-2.4,2.7h-1.7l-1.4.4-.6.6-1.1.2-.4.3h-1.2l-.7-.5-1.5.7-.5.8-2.4-.4-2-1.3h-1.3l-.2-.3-.2-1.2h-.7l-.6-.9-.4-1.3-1.7-1.6-1.1-.2.2-1.1h1.2l.3-.3v-1.3l.6-2.4.5.3.6-2,.8-1.3h.7l.6-2.7,1.3-.3.4.5.6-1.3.9.8.9-.4,1.8.3,1.3.5.6.9,1,.7,1,1.2-1,1.6v.4h0Z" fill="#1e69d9" stroke="#6e6e6e" stroke-miterlimit="3.1" stroke-width=".3"/>
      <path id="CM" d="M275.9,135.5v-.2h-3.2v.2h-2.2l-.3-.3.2-1.3-.6-1.3-1.1-.4-.2-.8-.5-.4.3-.6v-1.1l2.3-2,.7-.2,1.2,1.1.9-1.1.5-2,.9-.7v-1l.7-.2v-.9l1.3-2,1-.3v-1.2l-.7-.3-.2-1.2h.4v.3l.3-.2.6.5.5,1.9v1.2l.9,1.3h-2.5l-.4.6,2.1,1.9.5,1.6-1.3,2.1-.6.4.4.5-.2.8.3,1.1.5.3.3,1.1,1.6,1.6.2.9v.9l-2.7-.8h-2.1l.2.2ZM277.7,117.3h0Z" fill="#1e69d9" stroke="#6e6e6e" stroke-miterlimit="3.1" stroke-width=".3"/>
      <path id="SK" d="M288.3,57.5l-.2.7-.2.5-1.2-.3h-1.4l-.8.7-1.7.2v.4h-1.5l-1.1-.3-.5-.6v-.4l1.8-.8,1.1-.7.9-.2,1,.7.4-.3.9.2,1.4-.2,1.1.5h0Z" fill="#1e69d9" stroke="#6e6e6e" stroke-miterlimit="3.1" stroke-width=".3"/>
      <path id="PK" d="M376.2,79.8l.5.9-.5.6-1.3.4-2.4-.4-.8.6.6,2,.7.7h.5l.2.5.9.6-1.2.7.2,1-1.6,2-.6,1.5-.9.5-.5,1.3-1.9.3-.5-.5-1.2,1.4-.2.6,1.2.5v.9l1,.5.9,1.6-.5.7-.3-.3-.9.5-1.9-.2v.5l-.9.2h-.8l-.6-.4-.4-1-.9-.2v-.7l-.6-.4-2.9.3-1.3-.2-.3.3h-1.7l-1.2.2-.2-.2.2-1.7.7-.5,1.3-.2.3-.9-1-.2-.2-1.6-1.4-.5-2-2.2,2.7.8,1.7-.2.9.2,3.3-.7v-1.8l.9-.6.7.2,1.1-1,1.1.4.7-.5-.2-.9.4-1.1,1.1-.4-.6-1.2h1.7l-.2-.7.9-1.2-.2-.6-.8-.8,2-1.3h2l1.1-.3h.9l1.5.9v.7l1.6.6h0Z" fill="#1e69d9" stroke="#6e6e6e" stroke-miterlimit="3.1" stroke-width=".3"/>
      <path id="BG" d="M298.3,66.4v.6h-.6l-.5,1.6.5.7-1.5-.2-1.1.6-.2.6-1.4.2-1.2-.5-2.4.4v-.7l-1-.9v-.8l.9-.6-1-1,.5-.7,1,.5,3.2.4,1.2-.6,1.3-.2,2.4.7h0Z" fill="#1e69d9" stroke="#6e6e6e" stroke-miterlimit="3.1" stroke-width=".3"/>
      <path id="NE" d="M273.4,99.9l2.5.6,1.2.9,1.3-.6.4,2.4,1.3,2-.4.7-.3,5-1.8,2-1.5,2.3.2,1.1-1.2.3-.6.7-1.7-.5-2.2.2-.8.8-1.6-.2-1.4-.7-1.5.6-.9-1-1.4-.5-1.1.2-1.2.5v.8l-.8.8v1.3l-1.3-1.2-.8.3v.6l-.5-.7.2-.5h-1.1l-.9-.7-.2-.9-.5-.2-.7-1.4v-.6h1.3l.6-.6h3.6l.6-.6.5-1.2v-4.6l2.6-.5,2.7-2.4,7.3-4.4h0Z" fill="#1e69d9" stroke="#6e6e6e" stroke-miterlimit="3.1" stroke-width=".3"/>
      <path id="CH" d="M268,59.9h0l.5.3h0l.2.2-.2.2v.3h0l.9.3h.5v.6l-.7.3-1.1-.2-.6,1.1v-.4l-1.3-.3-.3.5h-1.3l-.3-.4v-.4l-.3-.2-.3.2-.2.2-.2-.5,1.4-1.3.9-.4h1.3l.2-.4.9.2h0Z" fill="#1e69d9" stroke="#6e6e6e" stroke-miterlimit="3.1" stroke-width=".3"/>
      <path id="NG" d="M276.3,116.3l.8,1,.2,1.2.8.3v1.2l-1.1.3-1.2,2v.9l-.7.2v1l-1,.7-.5,2-.9,1.1-1.2-1.1-.7.2-2.2,2v1.1l-.4.6-.6-.2.2.6h-1.7l-1.8.5-.9-.5-1.2-2.3-.9-.6h-2.8v-2.5l.2-2,1.3-1.3.5-1.3-.6-1.3.2-.5v-1.3l.8-.8v-.8l1.3-.5,1.1-.2,1.4.5.9,1,1.5-.6,1.4.7,1.6.2.8-.8,2.2-.2,1.7.5.6-.7,1.2-.3h-.3Z" fill="#1e69d9" stroke="#6e6e6e" stroke-miterlimit="3.1" stroke-width=".3"/>
      <path id="LB" d="M310.1,84.1l.7-1.3.5-1.3h.7l.4.8-.9.6-.3.6-.5.6h-.6Z" fill="#1e69d9" stroke="#6e6e6e" stroke-miterlimit="3.1" stroke-width=".3"/>
      <path id="PL" d="M283.2,48.6l-.3.2.6-.2,4.4.2h0l1,.3v.4l.9,1.3v.8l-.9.6.7.4v.9l.9,1.1v.5l-1.4,1-.7.7.5.9-.6-.2-1.1-.5-1.4.2-.9-.2-.4.3-1-.7-.9.2-.5-.6-1.1-.2-1-.6-.7.5-.9-.6.4-.2-2.5-.5.3-.7-.7-.9v-1.3l-.8-.4.3-.7-.2-.7.5-.3h-.7l2.8-.6.6-.4,2.6-.5.4.6h1.8Z" fill="#1e69d9" stroke="#6e6e6e" stroke-miterlimit="3.1" stroke-width=".3"/>
      <path id="BY" d="M289.5,53.5v-.9l-.7-.4.9-.6v-.8l-.8-1.3h1.3l1.6-.6.5-1.1.6-.3.4-.9,1.5-.2.7-.6,4.2.9.7,1.6,1,1.4,1.5.6-.8.6h-1.3l1,1.6h-1.3l-.5.9-1.7.3-1.7-.5h-1.4l-2.4-.5h-2l-1.2.7h-.1Z" fill="#1e69d9" stroke="#6e6e6e" stroke-miterlimit="3.1" stroke-width=".3"/>
      <path id="ML" d="M244.8,121.7l-1.2.3v-.8l-1.2.9-1.2-.5-.5.5-.5-1.4h-.7l.5-.6-.8-.5v-.5l-.5-.9-.9.7-.9-.3-.8.6-1.1-.9v-.9l-1.2-1.3.2-.8-.5-1,.7-.2.2-1.1h.5l.8.7.3-.5,1,.2,1.3-.2h6.4l.2-1.3-.4-.4-1.5-14.1h2.9l9.7,6.5v.5l1.3.9,2.2.7-.2,1.1.5.2,1.4-.2v4.6l-.6,1.2-.6.5h-3.6l-.6.6h-1.2l-1.6-.2-2.3,1.5-.6-.2-.6.4v.6h-.7v.7l-1.3-.2-.5.5.2.6-.5,1-1,.3-.6,2.5v.2Z" fill="#1e69d9" stroke="#6e6e6e" stroke-miterlimit="3.1" stroke-width=".3"/>
      <path id="NZ" d="M519.2,213.6l-1.6,1.3-2.4,1.5h-1.7l-1.1.9-1.1.2,1.2-.9v-.8h-1.4v-.6l1.3-1.1,3.1-1.9h.7l1.8-.8,3.1-1.6,1.2-1.3.7-.3,1-1.3,1.3-.6v1.3l1.3-.6-.2.5.9-.4-.8.7v.7l-1.7,1-.8.8-1.2.6v.9l-.9-.2-2.2.9-.8,1.1h.3ZM533,204.9l-2.8,2.4-1.6.8-.9-.6,1.3-1,.5-.6-.2-.6-1.4-.9.2-.3,1.6-.6,1.2-1.7v-1.9l.5-.8-.7.2-.7-1.7.2-.5-.4-.8.6-.2-.2.8,1.1.2.6,1-.4.6.3.5-.4.9.9.5.3-1.6.3,2.4.7.4,1,.2,1.3-.7.8.3-1.1,1.3-.7.2-.4.7h-.8l-1,.6.2.4h.1Z" fill="#1e69d9" stroke="#6e6e6e" stroke-miterlimit="3.1" stroke-width=".3"/>
      <path id="IS" d="M219.5,30.3l1.7-1.2,1,.2-.5-.5h.8l1.7.7-.5.6.9.5.9-.6.3-.6.6.6.5-.6,1.5-.2.9.3.7-.4h.9l.6-.6,1,.7h.9l-.2.6,1.6.4v.6l-1.5,1.3-1.2.2-1.8.7-1.6.2-1.6.6-2-.2-.5-.3-.9-.3-2.2.2,1.1-.5.5-.5-.9-.7-1.7-.2,1.8-.2.5-.6-.9-.2h-2.7.3Z" fill="#1e69d9" stroke="#6e6e6e" stroke-miterlimit="3.1" stroke-width=".3"/>
      <path id="US" d="M58.4,47.2l-.2-.2,1.5-.9v.6l-1.2,1.3v-.7h0ZM56.6,45l-1.6,1.3.8-1.7,1-.4,1,.2.5.7-1.8.2v-.2h0ZM13.8,38.7l.5.2-.4.6-1.1.3-1-.5,2-.6ZM54.5,44l.5-.6.5.5-.2.9-.8.8v-1.7h0ZM57.4,42.7l-.5.3.2.8-1.5.6.6-.6.4-1.3.9.2h-.1ZM13.3,34.1h-.9l-2.3-.6,2.4-.3v.4l1.7.3-1,.2h.1ZM56,46.2l.5-.7,1.1.9.2.9-.5.9-.4-.7-.9-.3.2,1-.9-1s.7-1,.7-1ZM29.5,42.7l2-1-.2.9-1.6.3h1v.6l-3,1-1,.2-.2-.7,3.1-1.2h0ZM53.8,43l.2-.4,1.2-.3,1,.4-.4.9-1.1-.5v.5s-.9-.6-.9-.6ZM124.9,68.4l-.2-.2-.5.6h0l-.9,1,1.4.6,1.3-.2,4.3-1.7.5-.6h-.2v-.5l1.6-.2.9.2h1.3l.9-.6.2-1,.6-.2v-.2l1.1-.6.9-.2h5l2.2-1.4.7-1.4,1.5-1.2.4.4.9-.2.7.4-.5,2.2.2.3h.3l-.2.5.5.2.2.5-1.5.5-1.3.8-.5-.4-.8.6-2.1,1.1-.5.7.2.4-.9.6.5.2.3,1-.8.6v-.5l-1.9.5h-1.3l-1.1.5h2.1l-1.2.3-2.3.5.4.2-.4,1-1.7,1.4-.7-.9.5,1.2v.5l-.7.9-1,.9.6-1-.9-.9.5-.2-.4-1.1-.5,1.5.2.7-.3,1.3.4.3v2.1l-.9.5.2.5-.8.8h-.9l-1.3.7-.3.5h-.9l-1.2,1.1-2,1.2-1.6,1.3-.8,1.7.2,1.6.8,2.2v.6l.4,2.1-.3,1.7-.5.9-1.2.2-.3-1.2-.5-.2-.2-.8h-.5l-.6-1.8.6-.5-.7-.2.5-1.7-1.4-1.7-.5-.3-1.7.9-1.7-1.5-.5.2-3.1.3-.6-.3-1.3.4-1-.3v.6l.9-.2v.4l.9-.6.2.7-.6.6-.2.8-1.2-.8-1.3.6-1.3-1.1-1.1.3-1.4-.4-1.5.2-2.7,1.6-2.8,1.1.4.2-.9,1.3v2.1l-1.7-.2-1.4-.8v-.6l-.3-.2v-.9l-.9-1.1-.4-1.4-.5-.5h-.2l-.2-.3-1.6-.4-.6.2-.9,1.3-1.4-.6-.6-.5-.2-1.4-2.2-2h-2.7l-.2.7h-4.6l-5.6-1.9.2-.4-3.9.3v-.9l-1.1-1.1h-.2l-.5,1.6-.2-.4.6-1.3-1.6-.9h-1.4v-1.2l-.8-.9-.6-1.6.4-.3-.8-.7.2-.9.5.5-.3-1.1-.2.5-1.3-1.8.3-1.5-.6-1,1.2-1.7v-2.4l1-1.2,1.8-3.3.2-1.2.5-.8-.2-.3.4-2.4.6.3,2,.2.3-.5-.7-.2,1.2-.2-.2-.6h42.1l.7-.5v.9l2.9.5,1.6.8h2.8l.9.2.5.9h.9l-.9.7.9.2.2.5,1.2.2.8-.4,1.9-.2-.3.4.9.2.6-.2v.3l-.4.2.4.2h0l.5.3-1.7-.2-.2.3-1.2-.4v1.3l1.3-.9,1.5.8.2.5-.4,1.3-.9.6.2.6.9-.6h.8v1.6l-.3.6-.2.2.4-1ZM66.1,57.7h0ZM10.8,48l.3.5-.6-.5-2.5.6.9-.8,1.7-.3.2.3.2-.4,3.2-1.3,1.9-.2.6-.5,2.8-.9,2.6-1.2,1.5-1.5,1.1-.7-1.9.5-.9-.3-.7.6-.2-.8-.6.2-.2-.5-1.5.9-.9-.3.2-.9.8-.4v-1l-2.4.6-1.7-1.3,1.5-.5.9.4.8-.2-1.6-.2-1.3-1.1,1.3-.6v-.2l2.2-1,1.1-.9.8-.2,1.2.3,1.6-.6,1.8-.2.9-.4.5-.8-.2-.5,1-.2-.2-.5-3.5.9-.7-.3-2,.2-1.4-.2-.2-.9,1.3-.2-1.6-.2-.6-.4,3.8-1,2.4-.5h1.5l-.8.8h2.7l1.3-.2-.9-.4-.4-.7h.6l.2.7,1,.2,1-.3-.6-.2-1.1.2.4-.9-.9.2-1.6-.2.2-.9-.9-.7-1.2-.5,1.5-.9h2.7l2.6-.9.9-.7,2.4-.9h1.4l2.5-.8h2.2l2.5-.8,1.4.2-1,.4.5.2,1-.5.2.6,2-.2,1.1.2-.2.7,3.5-.2,2.6.6h1.7l.5.2,2.9-.2,2.4.8-3.4,3.6-1.6,1.9-3.2,3.9-1.6,2.1-2.8,3.9,1.3.2,1.5-.3-.4.5,1.3,1.4v.6l1.3-.5.9-.7,1.5-.3.2.9,1.4,1.4.8,3,1.7.9v.3l-.6,1-.9.6-.9.2.2-.6.7-.9-.2-.4h-.9l-.7.8.6-2-.5-.6-.9-.2.5-.4-.3-1.1-.6-.2v-1.8l-.7,1.8-1.9-.3-.5.3-1-.6-.4-.8-1.7-.8.7-.6-1.3.3-3.1-.7-1.8.2-1.1-.6-1.5-.3.5-.6-1.5-.2-1.5.3-.4,1.3h-2.4l-2,.9-1.5.3-1-.2,1.5-.5-.8-.3,1.2-.7.6-.8,2-.6,1.6.3-1.5-.7-1.9.5-1.3.7.2.2-1.5.5-.6.5-2.7.9-.5.6,1.1.2-1.3.6-1.3.9h-1.1l-1.6.9h-.4l-1.5.9-3.2.9v.3l-1.8.6-2.9.7h.8l-.3.7-.7-.8-4.3,1.2h.4ZM2.9,50.3h.3-.3ZM2.9,50.3h-.5l-2.3.9,1.6-.9h1.3,0ZM3.2,50.3l.7-.7,1.9-.4-.3.5-1.1.5-1.2.2h0Z" fill="#1e69d9" stroke="#6e6e6e" stroke-miterlimit="3.1" stroke-width=".3"/>
    </g>
  </g>
</svg>