<?xml version="1.0" encoding="UTF-8"?>
<svg id="Layer_1" xmlns="http://www.w3.org/2000/svg" version="1.1" viewBox="0 0 516.4 288.1">
  <!-- Generator: Adobe Illustrator 29.8.4, SVG Export Plug-In . SVG Version: 2.1.1 Build 6)  -->
  <g>
    <path d="M45.1,123.8h30.9v141.2h-30.9V123.8Z" fill="#1e69d9"/>
    <path d="M84.7,158.4h30.9v106.6h-30.9v-106.6Z" fill="#1e69d9"/>
    <path d="M124.3,139.2h30.9v125.8h-30.9s0-125.8,0-125.8Z" fill="#1e69d9"/>
    <path d="M163.9,139.8h30.9v125.2h-30.9v-125.2Z" fill="#1e69d9"/>
    <path d="M203.5,136.3h30.9v128.7h-30.9v-128.7Z" fill="#1e69d9"/>
    <path d="M243.1,185.3h30.9v79.7h-30.9v-79.7Z" fill="#1e69d9"/>
    <path d="M282.7,163.8h30.9v101.2h-30.9v-101.2Z" fill="#1e69d9"/>
    <path d="M322.4,166h30.9v99h-30.9v-99Z" fill="#1e69d9"/>
    <path d="M362,63.1h30.9v201.9h-30.9V63.1Z" fill="#1e69d9"/>
    <path d="M401.6,47.5h30.9v217.5h-30.9V47.5Z" fill="#1e69d9"/>
    <path d="M441.2,70.9h30.9v194.1h-30.9V70.9Z" fill="#1e69d9"/>
    <path d="M480.8,204.6h30.9v60.4h-30.9v-60.4Z" fill="#1e69d9"/>
  </g>
  <g>
    <line x1="41.2" y1="265" x2="516.4" y2="265" fill="none" stroke="#777"/>
    <g>
      <g>
        <line x1="140.2" y1="271" x2="140.2" y2="265" fill="none" stroke="#777"/>
        <g isolation="isolate">
          <g isolation="isolate">
            <text transform="translate(126.9 281.5)" fill="#777" font-family="ArialMT, Arial" font-size="12" isolation="isolate"><tspan x="0" y="0">MAR</tspan></text>
          </g>
        </g>
      </g>
      <g>
        <line x1="258.9" y1="271" x2="258.9" y2="265" fill="none" stroke="#777"/>
        <g isolation="isolate">
          <text transform="translate(246.8 281.5)" fill="#777" font-family="ArialMT, Arial" font-size="12" isolation="isolate"><tspan x="0" y="0">JUN</tspan></text>
        </g>
      </g>
      <g>
        <line x1="377.8" y1="271" x2="377.8" y2="265" fill="none" stroke="#777"/>
        <g isolation="isolate">
          <text transform="translate(365.8 281.5)" fill="#777" font-family="ArialMT, Arial" font-size="12" isolation="isolate"><tspan x="0" y="0">SEP</tspan></text>
        </g>
      </g>
      <g>
        <line x1="496.5" y1="271" x2="496.5" y2="265" fill="none" stroke="#777"/>
        <g isolation="isolate">
          <g isolation="isolate">
            <text transform="translate(483.8 281.5)" fill="#777" font-family="ArialMT, Arial" font-size="12" isolation="isolate"><tspan x="0" y="0">DEC</tspan></text>
          </g>
        </g>
      </g>
    </g>
  </g>
  <g>
    <line x1="41.2" y1="5" x2="41.2" y2="265" fill="none" stroke="#777"/>
    <g>
      <g>
        <line x1="35.2" y1="265" x2="41.2" y2="265" fill="none" stroke="#777"/>
        <g isolation="isolate">
          <g isolation="isolate">
            <text transform="translate(26.5 269.3)" fill="#777" font-family="ArialMT, Arial" font-size="12" isolation="isolate"><tspan x="0" y="0">0</tspan></text>
          </g>
        </g>
      </g>
      <g>
        <line x1="35.2" y1="200" x2="41.2" y2="200" fill="none" stroke="#777"/>
        <g isolation="isolate">
          <g isolation="isolate">
            <text transform="translate(3.2 204.3)" fill="#777" font-family="ArialMT, Arial" font-size="12" isolation="isolate"><tspan x="0" y="0">1,500</tspan></text>
          </g>
        </g>
      </g>
      <g>
        <line x1="35.2" y1="135" x2="41.2" y2="135" fill="none" stroke="#777"/>
        <g isolation="isolate">
          <g isolation="isolate">
            <text transform="translate(3.2 139.3)" fill="#777" font-family="ArialMT, Arial" font-size="12" isolation="isolate"><tspan x="0" y="0">3,000</tspan></text>
          </g>
        </g>
      </g>
      <g>
        <line x1="35.2" y1="70" x2="41.2" y2="70" fill="none" stroke="#777"/>
        <g isolation="isolate">
          <g isolation="isolate">
            <text transform="translate(3.2 74.3)" fill="#777" font-family="ArialMT, Arial" font-size="12" isolation="isolate"><tspan x="0" y="0">4,500</tspan></text>
          </g>
        </g>
      </g>
      <g>
        <line x1="35.2" y1="5" x2="41.2" y2="5" fill="none" stroke="#777"/>
        <g isolation="isolate">
          <g isolation="isolate">
            <text transform="translate(3.2 16.3)" fill="#777" font-family="ArialMT, Arial" font-size="12" isolation="isolate"><tspan x="0" y="0">6,000</tspan></text>
          </g>
        </g>
      </g>
    </g>
  </g>
</svg>