<?xml version="1.0" encoding="utf-8"?>
<!-- Generator: Adobe Illustrator 28.3.0, SVG Export Plug-In . SVG Version: 6.00 Build 0)  -->
<svg version="1.1" id="Layer_1" xmlns="http://www.w3.org/2000/svg" xmlns:xlink="http://www.w3.org/1999/xlink" x="0px" y="0px"
	 viewBox="0 0 1000 750" style="enable-background:new 0 0 1000 750;" xml:space="preserve">
<style type="text/css">
	.st0{fill:#1C1C1C;}
	.st1{fill:#E5E3E0;}
	.st2{opacity:0.8;fill:#E5E3E0;enable-background:new    ;}
</style>
<rect class="st0" width="1000" height="750"/>
<g>
	<g>
		<path class="st1" d="M441.3,350.8l35.7-45.4l-9.6-31.4h-82.3v22.2H457l-59.5,74.7l10.2,8.9c8.9-5.2,15.1-7.1,24.7-7.1
			c26.8,0,45.4,17.3,45.4,42c0,24.1-19.7,42.9-44.7,42.9c-19.1,0-33.6-11.1-39.2-30.9l-22.2,4c7.1,31.2,30.2,49.4,62.6,49.4
			c39.2,0,68.2-28.7,68.2-67.3C502.4,376.4,477.1,350.8,441.3,350.8z"/>
	</g>
	<path class="st1" d="M371.8,476.7l-6.8-22.6h-72.1l55.2-76.8c17.3-24.1,23.4-39.2,23.4-56.5c0-29.9-23.4-50.9-57.1-50.9
		c-36.7,0-57.4,21.6-58.6,60.8H279c0.3-10.8,1.2-15.4,3.7-21.3c4.6-10.8,16-17.3,29.9-17.3c20.1,0,34.2,12.7,34.2,30.5
		c0,12.3-4.6,21.6-25.3,51.5L250,476.7H371.8z"/>
	<g>
		<polygon class="st2" points="723.2,270.9 679.7,416.7 691.9,460.7 750,270.9 		"/>
		<polygon class="st1" points="689.2,476.6 676,429.1 665.4,391.4 665.4,391.5 631.8,270.9 606.5,270.9 664.3,476.6 		"/>
		<polygon class="st2" points="565.3,416.3 578.1,459.3 615.3,327.6 603.4,285 		"/>
		<polygon class="st1" points="561.8,428.5 574.6,471.6 576.1,476.6 550.4,476.6 487.4,270.9 514.9,270.9 547.2,379.4 		"/>
	</g>
</g>
</svg>
