<?xml version="1.0" encoding="utf-8"?>
<!-- Generator: Adobe Illustrator 27.1.0, SVG Export Plug-In . SVG Version: 6.00 Build 0)  -->
<svg version="1.1" id="Layer_1" xmlns="http://www.w3.org/2000/svg" xmlns:xlink="http://www.w3.org/1999/xlink" x="0px" y="0px"
	 viewBox="0 0 800 600" style="enable-background:new 0 0 800 600;" xml:space="preserve">
<style type="text/css">
	.st0{fill:#FFFFFF;}
</style>
<rect width="800" height="600"/>
<g>
	<path class="st0" d="M244.9,278.6c-10.3,13.3-19.5,27.3-25.2,43.3c-6.9,19.5-8.5,39.4,0.6,58.5c14.7,31.1,40.4,46.9,74.3,48.3
		c27.8,1.2,50.6-10.5,68.2-32c30.3-37.2,17.7-93.2-26.1-112.9c-31.9-14.3-62.9-11-91.6,9.6c-1.4,1-2.7,2.1-4.1,3.1
		c-0.3-0.3-0.5-0.5-0.8-0.8c34.3-43.2,70.8-89.2,105.4-132.7l-8.2-3.6C337.4,159.6,271,244.8,244.9,278.6z M241.7,305.8
		c14.8-15.3,33.3-22,54.2-22.8c17.5-0.7,33.7,3.5,47.8,14.1c14.6,11,22.9,25.8,25.7,43.7c0.5,3.5,0.7,7.1,0.9,10.4
		c-0.8,25.2-11.9,44.8-33.2,57.5c-29.1,17.4-58.8,15.9-86.2-3.5C214.5,379.5,216.8,331.5,241.7,305.8z"/>
	<path class="st0" d="M295.2,407.2c32.1,1.1,59.4-23.9,59.8-55.5c0.4-32.3-23.2-56.9-55.2-58c-35.3-1.3-60,22.3-61.2,58.1
		C238.5,381.9,261.7,406.1,295.2,407.2z M296.9,301.8c28.7,0.2,49.5,21.1,49.4,49.7c-0.1,26.9-21.8,47.5-49.8,47.4
		c-28.4-0.1-49.9-20.7-49.8-47.7C246.7,322.2,267.6,301.6,296.9,301.8z"/>
	<path class="st0" d="M315.6,150c-33.4,43.5-68.3,86-100.5,130.4c-40.7,54.4-28.9,133.6,37.4,160.5c53.4,24.3,127.1-1.8,144.8-58.4
		c-2-4.6-3.6-9.2-5.2-14.1c-3.2,16.5-11.1,32.1-23.3,44.4c-17.5,17.6-38.9,26.6-63.4,28.4c-25.2,1.9-48.6-3.7-69.1-18.7
		c-26.5-19.4-38.4-45.7-36.1-78.5c1.7-24.1,11.1-45.1,25-64.2C257,237,290.3,195.3,323,153.2L315.6,150z"/>
	<path class="st0" d="M445.3,403.8c26.7,30.2,72.8,32.6,102.3,5.1c13.5-12.6,21.9-28.4,27.4-45.7c11.3-35.2,12.3-70.9,4.4-106.9
		c-4.2-19.4-11.6-37.4-24.2-53.1c-22.8-28.3-62.4-35.5-93.4-16.8c-15.4,9.3-25.7,23.2-33.2,39.2c-11.3,24.1-15.1,49.9-15.4,75.1
		c0.2,17.9,1.8,34.4,6,50.7C424.2,370.7,431.9,388.7,445.3,403.8z M434.1,234.3c5.9-14.9,14.3-28.1,27.4-37.8
		c24-17.8,64.9-17.5,88.4,13.2c10.4,13.7,16.6,29.3,20.4,45.8c4.7,20.3,5.8,41,4.5,61.8c-1.2,17.8-4.3,35.2-10.9,51.9
		c-6,15.2-14.3,28.9-27.7,38.7c-26.4,19.3-64,14.8-85.4-10.1c-11.8-13.6-18.4-29.7-22.6-47c-4-16.1-5.6-32.4-5.5-56.9
		C422.6,278.7,425.5,255.9,434.1,234.3z"/>
	<path class="st0" d="M469.4,394.9c16.6,15.1,39.6,15.8,57,1.7c8.9-7.3,15.1-16.6,19.8-27c9.8-21.5,13.3-44.2,13.5-60.3
		c0.1-23.3-1.8-39.1-6-54.5c-4.1-14.6-9.9-28.5-20-40.2c-13.3-15.4-31.6-20.9-48.9-14.7c-12.2,4.4-20.8,13.1-27.5,23.8
		c-10,16.1-15,34-17.5,52.6c-3.6,27.3-1.9,54.1,6.7,80.4C451.2,371.2,457.9,384.5,469.4,394.9z M457.2,241.8c3.2-8,7.4-15.4,13.2-22
		c16.5-18.8,41.1-18.7,57.4,0.2c9.3,10.8,14.7,23.6,17.9,37.2c7.9,32.8,7.5,65.5-2.6,97.8c-3.5,11.4-8.8,21.9-17.2,30.7
		c-15.7,16.6-37.7,16.7-53.6,0.3c-8.6-8.8-13.9-19.6-17.6-31.1c-5.5-17.1-7.9-33.5-7.9-48C446.9,281.2,449.4,261.1,457.2,241.8z"/>
	<path class="st0" d="M606.4,333.2c3.7-27,2.4-54.5-3.8-81c-5.5-23.6-15-45.9-31.9-64.3c-8.8-9.9-18.6-17.8-29.5-23.5
		s-23-9.1-36.3-9.9c-13.3-0.8-25.7,1-37.3,5.2c-11.5,4.2-22.2,10.9-32,19.9c-9.7,8.9-17.4,18.9-23.7,29.8
		c-6.3,10.9-11,22.7-14.6,35.1c-4.4,15.3-6.9,30.8-7.7,46.3c3.3,4.2,6.2,8.5,8.6,13.1c0-0.7,0-1.3,0-2c0.1-14.9,1.4-29.5,4.5-43.7
		c3.1-14.2,7.9-28,14.9-41.4c4.6-8.9,10.1-17.2,16.6-24.4c6.5-7.3,14-13.6,22.9-18.6c17.1-9.7,36-13,54-10.4
		c18.1,2.6,35.3,11.2,49,25.3c8,8.3,14.5,17.4,19.7,27.3c5.2,9.8,9.3,20.3,12.4,31.3c3.6,12.7,5.8,25.6,6.8,38.5s0.7,26-0.7,39.1
		c-1.2,11.2-3.1,22.1-6.1,32.8c-3,10.7-7,21-12.3,31c-4.7,8.9-10.2,17.1-16.8,24.3c-6.6,7.2-14.2,13.4-23.2,18.2
		c-16.7,9.1-35.6,12.1-53.7,9.4s-35.3-11.1-48.7-24.6c-8-8.2-14.5-17.2-19.7-26.9c-5.2-9.7-9.2-20.1-12.3-31
		c-3.4-10-3.7-20.9-6.1-31c-4.1-16.4-12.5-30.4-25.1-42.2c-17.3-16.2-38.4-24.1-61.7-26.3c-4.9-0.5-9.9-0.6-15.3-0.9
		c23.6-28.4,46.9-56.5,70.4-84.8c-2.5-1.1-4.9-2.1-7.2-3.1c-27.9,33.8-55.8,67.3-84,101.3c3.6-1.1,6.6-2.3,9.6-3
		c14.4-3.4,28.7-1.8,42.8,1.8c21.7,5.6,39.7,17,51.9,36.2c14.2,21.3,11,47.9,21.6,70.6c4.2,10.7,9.7,20.9,16.6,30.5
		c7.5,10.4,16.2,19.2,26.1,26.1c29.8,21.3,74.3,22.1,104.8,1.7c9.3-6,17.6-13.8,24.9-22.9c7.9-9.9,14.2-20.7,19-32
		C600.2,365.2,604.2,349.4,606.4,333.2z"/>
</g>
</svg>
