<?xml version="1.0" encoding="UTF-8"?>
<svg id="Layer_1" xmlns="http://www.w3.org/2000/svg" version="1.1" viewBox="0 0 1600 1000">
  <!-- Generator: Adobe Illustrator 30.2.1, SVG Export Plug-In . SVG Version: 2.1.1 Build 1)  -->
  <rect width="1600" height="1000" fill="#212221"/>
  <g>
    <path d="M565.9,380.7l-38.4,218.4h-40.2l38.4-218.4h40.2Z" fill="#f2f2f2"/>
    <path d="M626.7,380.7l-38.4,218.4h-40.2l38.4-218.4h40.2Z" fill="#f2f2f2"/>
    <path d="M649.1,599.1h-40.2l27.7-157.3h40.2l-27.7,157.3ZM639.5,418.6l6.7-37.9h42.5l-6.7,37.9h-42.5Z" fill="#f2f2f2"/>
    <path d="M1077.6,441.9c24.2,0,34.7,13.1,30.3,37.9l-3.5,19.8h-40.2l2.9-16.3c.9-4.4-.6-6.4-4.7-6.4h-31.7c-3.8,0-6.1,2.3-7,6.4l-13.1,74.6c-.9,4.4.6,6.4,4.7,6.4h31.7c3.8,0,6.4-2.3,7-6.4l2.9-16.3h40.2l-3.5,19.8c-4.4,24.8-19.5,37.9-43.7,37.9h-49.8c-24.2,0-34.7-13.1-30.3-37.9l14.3-81.5c4.4-24.8,19.5-37.9,43.7-37.9h49.8Z" fill="#f2f2f2"/>
    <path d="M1223.9,441.9c24.2,0,34.7,13.1,30.3,37.9l-9,52.1h-87.7l-4.9,28.2c-.9,4.4.6,6.4,4.7,6.4h36.1c3.5,0,5.8-2.3,6.7-6.4l2-12.2h40.2l-2.3,13.4c-4.4,24.8-19.5,37.9-43.7,37.9h-53.9c-24.2,0-34.7-13.1-30.3-37.9l14.3-81.5c4.4-24.8,19.5-37.9,43.7-37.9h53.9ZM1213.9,480.9c.9-4.4-.9-6.4-4.7-6.4h-36.1c-3.8,0-6.1,2.3-6.7,6.4l-4.1,23.9h47.2l4.4-23.9Z" fill="#f2f2f2"/>
    <path d="M786.1,442h-53.9c-24.2,0-39.3,13.1-43.7,37.9l-2.3,13.4h40.2l2-12.2c.9-4.1,3.2-6.4,6.7-6.4h36.1c4.1,0,5.5,2,4.7,6.4l-4.9,28.2h-15.9,0c0,0-34.7,0-34.7,0-24.2,0-39.3,13.1-43.7,37.9l-2.1,11.9h0s-.4,2.2-.4,2.2c-4.4,24.8,6.1,37.9,30.3,37.9h90.9l20.9-119.4c4.4-24.8-6.1-37.9-30.3-37.9ZM761.9,560.3c-.6,4.1-2.9,6.4-6.7,6.4h-36.1c-3.8,0-5.5-2-4.7-6.4l1.5-8h0s.2-1.4.2-1.4l1.8-9.9c1-2.9,3.1-4.6,6.3-4.6h41.7l-4.1,23.9Z" fill="#f2f2f2"/>
    <path d="M934.1,441.9h-90.6l-27.7,157.3h40.2l15.4-87.5,4.1-23.1h0l1.5-10.5h41.9c3.8,0,5.2,2,4.4,6.4l-20.1,114.7h40.2l21-119.4c4.4-24.8-6.1-37.9-30.3-37.9Z" fill="#f2f2f2"/>
    <path d="M457.7,441.9h-53.9c-24.2,0-39.3,13.1-43.7,37.9l-2.3,13.4h40.2l2-12.2c.9-4.1,3.2-6.4,6.7-6.4h36.1c4.1,0,5.5,2,4.7,6.4l-4.9,28.2h-15.9,0c0,0-34.7,0-34.7,0-24.2,0-39.3,13.1-43.7,37.9l-2.1,11.9h0s-.4,2.2-.4,2.2c-4.4,24.8,6.1,37.9,30.3,37.9h90.9l20.9-119.4c4.4-24.8-6.1-37.9-30.3-37.9ZM433.5,560.1c-.6,4.1-2.9,6.4-6.7,6.4h-36.1c-3.8,0-5.5-2-4.7-6.4l1.5-8h0s.2-1.4.2-1.4l1.8-9.9c1-2.9,3.1-4.6,6.3-4.6h41.8l-4.1,23.9Z" fill="#f2f2f2"/>
  </g>
</svg>