<?xml version="1.0" encoding="utf-8"?>
<!-- Generator: Adobe Illustrator 27.1.0, SVG Export Plug-In . SVG Version: 6.00 Build 0)  -->
<svg version="1.1" id="Layer_1" xmlns="http://www.w3.org/2000/svg" xmlns:xlink="http://www.w3.org/1999/xlink" x="0px" y="0px"
	 viewBox="0 0 1600 1000" style="enable-background:new 0 0 1600 1000;" xml:space="preserve">
<style type="text/css">
	.st0{fill:#212221;}
	.st1{fill:#FFFFFF;}
</style>
<rect class="st0" width="1600" height="1000"/>
<g>
	<g>
		<g>
			<path class="st1" d="M533.2,375.5l-38.4,218.4h-40.2L493,375.5H533.2z"/>
			<path class="st1" d="M608.9,375.5l-38.4,218.4h-40.2l38.4-218.4H608.9z"/>
			<path class="st1" d="M646.8,593.9h-40.2l27.7-157.3h40.2L646.8,593.9z M637.2,413.4l6.7-37.9h42.5l-6.7,37.9H637.2z"/>
			<path class="st1" d="M1113.2,436.7c24.2,0,34.7,13.1,30.3,37.9l-3.5,19.8h-40.2l2.9-16.3c0.9-4.4-0.6-6.4-4.7-6.4h-31.7
				c-3.8,0-6.1,2.3-7,6.4l-13.1,74.6c-0.9,4.4,0.6,6.4,4.7,6.4h31.7c3.8,0,6.4-2.3,7-6.4l2.9-16.3h40.2l-3.5,19.8
				c-4.4,24.8-19.5,37.9-43.7,37.9h-49.8c-24.2,0-34.7-13.1-30.3-37.9l14.3-81.5c4.4-24.8,19.5-37.9,43.7-37.9H1113.2z"/>
			<path class="st1" d="M1268.7,436.7c24.2,0,34.7,13.1,30.3,37.9l-9,52.1h-87.7l-4.9,28.2c-0.9,4.4,0.6,6.4,4.7,6.4h36.1
				c3.5,0,5.8-2.3,6.7-6.4l2-12.2h40.2l-2.3,13.4c-4.4,24.8-19.5,37.9-43.7,37.9h-53.9c-24.2,0-34.7-13.1-30.3-37.9l14.3-81.5
				c4.4-24.8,19.5-37.9,43.7-37.9H1268.7z M1258.8,475.7c0.9-4.4-0.9-6.4-4.7-6.4h-36.1c-3.8,0-6.1,2.3-6.7,6.4l-4.1,23.9h47.2
				L1258.8,475.7z"/>
			<path class="st1" d="M797.1,436.7h-53.9c-24.2,0-39.3,13.1-43.7,37.9l-2.3,13.4h40.2l2-12.2c0.9-4.1,3.2-6.4,6.7-6.4h36.1
				c4.1,0,5.5,2,4.7,6.4l-4.9,28.2H766l0.1,0.1h-34.7c-24.2,0-39.3,13.1-43.7,37.9l-2.1,11.9l0,0l-0.4,2.3
				c-4.4,24.8,6.1,37.9,30.3,37.9h53.9h37.1l20.9-119.4C831.7,449.8,821.3,436.7,797.1,436.7z M772.9,554.9
				c-0.6,4.1-2.9,6.4-6.7,6.4h-36.1c-3.8,0-5.5-2-4.7-6.4l1.5-8l0,0l0.2-1.4l1.8-9.9c1-2.9,3.1-4.6,6.3-4.6h9.1H777L772.9,554.9z"/>
			<path class="st1" d="M960,436.7h-9.6h-40.8h-40.2l-27.7,157.3h40.2l15.4-87.5l4.1-23.1l0,0l1.5-10.5h33.7c0,0,0,0,0,0h8.2
				c3.8,0,5.2,2,4.4,6.4l-20.1,114.7h40.2l21-119.4C994.6,449.8,984.1,436.7,960,436.7z"/>
			<path class="st1" d="M412.8,436.7h-53.9c-24.2,0-39.3,13.1-43.7,37.9l-2.3,13.4h40.2l2-12.2c0.9-4.1,3.2-6.4,6.7-6.4h36.1
				c4.1,0,5.5,2,4.7,6.4l-4.9,28.2h-15.9l0.1,0.1h-34.7c-24.2,0-39.3,13.1-43.7,37.9l-2.1,11.9l0,0l-0.4,2.3
				c-4.4,24.8,6.1,37.9,30.3,37.9h53.9h37.1l20.9-119.4C447.5,449.8,437,436.7,412.8,436.7z M388.6,554.9c-0.6,4.1-2.9,6.4-6.7,6.4
				h-36.1c-3.8,0-5.5-2-4.7-6.4l1.5-8l0,0l0.2-1.4l1.8-9.9c1-2.9,3.1-4.6,6.3-4.6h41.8L388.6,554.9z"/>
		</g>
	</g>
</g>
</svg>
