<?xml version="1.0" encoding="utf-8"?>
<!-- Generator: Adobe Illustrator 27.1.0, SVG Export Plug-In . SVG Version: 6.00 Build 0)  -->
<svg version="1.1" id="Layer_1" xmlns="http://www.w3.org/2000/svg" xmlns:xlink="http://www.w3.org/1999/xlink" x="0px" y="0px"
	 viewBox="0 0 1600 800" style="enable-background:new 0 0 1600 800;" xml:space="preserve">
<style type="text/css">
	.st0{fill:#0B599E;}
	.st1{fill:#FFFFFF;}
	.st2{fill:#F63437;}
</style>
<rect class="st0" width="1600" height="800"/>
<g>
	<g>
		<path class="st1" d="M467.8,334.6h32.8v101.9h49.8v28.8h-82.6V334.6z"/>
	</g>
	<g>
		<path class="st1" d="M581.4,334.6h32.8v101.9h49.8v28.8h-82.6V334.6z"/>
	</g>
	<g>
		<path class="st1" d="M727.8,465.4H695V334.6h32.8V465.4z"/>
	</g>
	<g>
		<path class="st1" d="M1007.8,414.8v-80.1h31.7v130.8h-31l-54.6-78.6v78.6h-31.7V334.6h33L1007.8,414.8z"/>
	</g>
	<g>
		<path class="st1" d="M1174.1,375.8c-8.1-8.1-20.3-13.9-35.5-13.9c-21.6,0-33.9,15.9-33.9,38.1c0,23.1,14.1,38.1,35.2,38.1
			c15.6,0,25.3-4.6,36.8-13.7v33.5c-12.8,7.7-24.9,9.7-38.3,9.7c-41.2,0-67.4-28-67.4-67.6c0-39.9,26.9-67.6,67.4-67.6
			c13.4,0,25.1,2.2,35.7,8.4V375.8z"/>
	</g>
	<g>
		<path class="st1" d="M1300,436.6v28.8h-88.1V334.6h86.5v28.8h-54.2v22.5h49.3v28.2h-49.3v22.5H1300z"/>
	</g>
	<g>
		<polygon class="st2" points="432.7,443.8 429.3,435 400.8,435 394.5,435 350.7,435 347.5,443.8 397.6,443.8 400.8,443.8 		"/>
		<polygon class="st1" points="370.5,367.4 384.4,406.6 418.3,406.6 390.3,334.6 350.9,334.6 300,465.4 334.6,465.4 343.6,440.5 
			353.5,413.9 		"/>
		<polygon class="st1" points="434.3,447.8 399,447.8 405.2,465.4 441.1,465.4 		"/>
		<polygon class="st2" points="385.8,410.6 359.7,410.6 356.5,419.4 388.9,419.4 391.4,419.4 423.2,419.4 419.8,410.6 391.4,410.6 
					"/>
		<polygon class="st2" points="390.3,423.3 355,423.3 352.2,431 393.1,431 395.6,431 427.8,431 424.8,423.3 395.6,423.3 		"/>
	</g>
	<g>
		<polygon class="st2" points="886.7,443.8 883.3,435 854.8,435 848.5,435 804.7,435 801.5,443.8 851.6,443.8 854.8,443.8 		"/>
		<polygon class="st1" points="824.4,367.4 838.4,406.6 872.3,406.6 844.3,334.6 804.8,334.6 754,465.4 788.5,465.4 797.6,440.5 
			807.5,413.9 		"/>
		<polygon class="st1" points="888.3,447.8 853,447.8 859.2,465.4 895.1,465.4 		"/>
		<polygon class="st2" points="839.8,410.6 813.7,410.6 810.5,419.4 842.9,419.4 845.4,419.4 877.2,419.4 873.8,410.6 845.4,410.6 
					"/>
		<polygon class="st2" points="844.3,423.3 809,423.3 806.2,431 847.1,431 849.5,431 881.8,431 878.8,423.3 849.5,423.3 		"/>
	</g>
</g>
<g>
	<defs>
		<rect id="SVGID_1_" width="1600" height="800"/>
	</defs>
	<clipPath id="SVGID_00000115492790889636418810000010204524290320008378_">
		<use xlink:href="#SVGID_1_"  style="overflow:visible;"/>
	</clipPath>
</g>
</svg>
