<?xml version="1.0" encoding="UTF-8"?>
<svg id="Layer_1" data-name="Layer 1" xmlns="http://www.w3.org/2000/svg" xmlns:xlink="http://www.w3.org/1999/xlink" version="1.1" viewBox="0 0 800 600">
  <defs>
    <style>
      .cls-1 {
        fill: #e8e6df;
      }

      .cls-1, .cls-2, .cls-3, .cls-4, .cls-5, .cls-6, .cls-7 {
        stroke-width: 0px;
      }

      .cls-2 {
        fill: url(#linear-gradient);
      }

      .cls-3 {
        fill: url(#linear-gradient-4);
      }

      .cls-4 {
        fill: url(#linear-gradient-2);
      }

      .cls-5 {
        fill: url(#linear-gradient-3);
      }

      .cls-6 {
        fill: url(#linear-gradient-5);
      }

      .cls-7 {
        fill: url(#linear-gradient-6);
      }
    </style>
    <linearGradient id="linear-gradient" x1="590.24" y1="333.15" x2="590.24" y2="266.51" gradientUnits="userSpaceOnUse">
      <stop offset="0" stop-color="#c4a254"/>
      <stop offset="1" stop-color="#c4a254"/>
    </linearGradient>
    <linearGradient id="linear-gradient-2" x1="283.57" y1="334.18" x2="283.57" y2="266.97" xlink:href="#linear-gradient"/>
    <linearGradient id="linear-gradient-3" x1="360.7" y1="333.16" x2="360.7" y2="266.99" xlink:href="#linear-gradient"/>
    <linearGradient id="linear-gradient-4" x1="436.13" y1="334.29" x2="436.13" y2="265.85" xlink:href="#linear-gradient"/>
    <linearGradient id="linear-gradient-5" x1="516.47" y1="333.16" x2="516.47" y2="266.99" xlink:href="#linear-gradient"/>
    <linearGradient id="linear-gradient-6" x1="209.25" x2="209.25" xlink:href="#linear-gradient"/>
  </defs>
  <rect class="cls-1" x="-.24" y=".07" width="800" height="600"/>
  <g>
    <path class="cls-2" d="M595.62,266.51h-10.76l-29.12,66.64h11.91l1.64-3.86c1.71-2.94,3.64-5.3,5.82-7.13,4-3.35,8.91-4.98,15.03-4.98s11.04,1.63,15.03,4.98c1.95,1.63,3.69,3.69,5.26,6.19l2.02,4.8h12.29l-29.12-66.64ZM590.16,306.88c-4.39,0-8.54.69-12.28,2.03h0l.84-2.03,11.34-26.47,11.44,26.47.82,1.99c-3.71-1.31-7.77-1.99-12.16-1.99Z"/>
    <path class="cls-4" d="M300.25,305.07c0,12.2-6.24,18.34-16.64,18.34s-16.73-6.52-16.73-18.81v-37.62h-11.63v38.1-.02c.01,19.19,10.88,29.12,28.18,29.12s28.45-9.92,28.45-29.68v-37.53h-11.63v38.1Z"/>
    <path class="cls-5" d="M386.64,288.07v-.19c0-5.76-1.98-10.68-5.48-14.27-4.26-4.16-10.78-6.62-19.1-6.62h-29.49v66.17h11.63v-23.07h14.56l16.26,23.07h13.8l-17.87-25.05c9.17-2.65,15.69-9.17,15.69-20.04ZM361.21,299.78h-17.02v-22.21h16.92c8.61,0,13.71,3.88,13.71,10.97v.19c0,6.71-5.29,11.06-13.61,11.06h0Z"/>
    <path class="cls-3" d="M436.22,265.85c-20.32,0-34.69,15.6-34.69,34.22v.19c0,18.62,14.18,34.03,34.5,34.03s34.69-15.6,34.69-34.22v-.19c0-18.62-14.18-34.03-34.5-34.03ZM458.53,300.26c0,12.85-9.17,23.25-22.31,23.25s-22.5-10.58-22.5-23.44v-.19c0-12.86,9.17-23.35,22.31-23.35s22.5,10.68,22.5,23.54v.19Z"/>
    <path class="cls-6" d="M542.42,288.07v-.19c0-5.76-1.98-10.68-5.48-14.27-4.26-4.16-10.78-6.62-19.1-6.62h-29.49v66.17h11.63v-23.07h14.56l16.26,23.07h13.8l-17.87-25.05c9.17-2.65,15.69-9.17,15.69-20.04ZM516.99,299.78h-17.02v-22.21h16.92c8.61,0,13.71,3.88,13.71,10.97v.19c0,6.71-5.29,11.06-13.61,11.06h0Z"/>
    <path class="cls-7" d="M203.87,266.51l-29.12,66.64h11.91l1.64-3.86c1.71-2.94,3.64-5.3,5.82-7.13,4-3.35,8.91-4.98,15.03-4.98s11.04,1.63,15.03,4.98c1.95,1.63,3.69,3.69,5.26,6.19l2.02,4.8h12.29l-29.12-66.64h-10.76ZM221.33,308.87c-3.71-1.31-7.77-1.99-12.16-1.99s-8.54.69-12.28,2.03l.84-2.03,11.34-26.47,11.44,26.47.82,1.99Z"/>
  </g>
</svg>