<?xml version="1.0" encoding="utf-8"?>
<!-- Generator: Adobe Illustrator 27.1.0, SVG Export Plug-In . SVG Version: 6.00 Build 0)  -->
<svg version="1.1" id="Layer_1" xmlns="http://www.w3.org/2000/svg" xmlns:xlink="http://www.w3.org/1999/xlink" x="0px" y="0px"
	 viewBox="0 0 600 660" style="enable-background:new 0 0 600 660;" xml:space="preserve">
<style type="text/css">
	.st0{fill:#1B1B38;}
	.st1{fill:#8D8DB8;}
</style>
<rect class="st0" width="600" height="660"/>
<g>
	<g>
		<g>
			<path class="st1" d="M487.7,232.6c-8.4-29.5-21-55.1-37.4-76c-17-21.5-38.2-38.1-62.9-49.3c-25.5-11.5-54.8-17.4-87.3-17.4
				c-32.5,0-61.9,5.8-87.3,17.4c-24.7,11.2-45.9,27.8-62.9,49.3c-16.5,20.9-29.1,46.4-37.4,76c-8.2,28.9-12.3,61.7-12.3,97.4
				s4.2,68.5,12.3,97.4c8.4,29.5,21,55.1,37.4,76c17,21.5,38.2,38.1,62.9,49.3c25.5,11.5,54.8,17.4,87.3,17.4
				c32.5,0,61.9-5.8,87.3-17.4c24.7-11.2,45.9-27.8,62.9-49.3c16.5-20.9,29.1-46.4,37.4-76c8.2-28.9,12.3-61.7,12.3-97.4
				S495.8,261.5,487.7,232.6z M475.3,423.9c-7.9,27.9-19.7,52-35.2,71.5c-15.7,19.9-35.3,35.3-58.1,45.6
				c-23.8,10.8-51.4,16.2-82.1,16.2s-58.3-5.5-82.1-16.2c-22.8-10.3-42.4-25.7-58.1-45.6c-15.4-19.6-27.3-43.6-35.2-71.5
				c-7.9-27.8-11.9-59.4-11.9-93.9s4-66.1,11.9-93.9c7.9-27.9,19.7-52,35.2-71.5c15.7-19.9,35.3-35.3,58.1-45.6
				c23.8-10.8,51.4-16.2,82.1-16.2s58.3,5.5,82.1,16.2c22.8,10.3,42.4,25.7,58.1,45.6c15.4,19.6,27.3,43.6,35.2,71.5
				c7.9,27.8,11.9,59.4,11.9,93.9S483.2,396.1,475.3,423.9z"/>
			<path class="st1" d="M353.8,230.9c0,0,7.3,3.1,9.1,5c1.8,1.8,5,9.1,5,9.1c0.7,1.3,2.6,1.3,3.3,0c0,0,3.1-7.3,5-9.1
				c1.8-1.8,9.1-5,9.1-5c1.3-0.7,1.3-2.6,0-3.3c0,0-7.3-3.1-9.1-5c-1.8-1.8-5-9.1-5-9.1c-0.7-1.3-2.6-1.3-3.3,0c0,0-3.1,7.3-5,9.1
				c-1.8,1.8-9.1,5-9.1,5C352.5,228.3,352.5,230.1,353.8,230.9z"/>
			<path class="st1" d="M404.3,406.9c-0.6-0.5-1.3-1-1.5-1.2c-18-16-26.5-27.5-34.8-38.6c-11.2-15-21.1-28.2-50-47.3
				c8.5-1.4,16.1-3.7,22.9-6.9c9.5-4.6,17-10.9,22.4-18.8c1.2-1.8,0.6-4.2-1.2-5.3l-4.6-2.7c-1.7-1-3.9-0.5-5,1.1
				c-8.8,12.7-25.1,19.9-47.4,21.1c-0.3-8.1-3.5-20.1-13.1-37.6c-1.7-3-4.9-4.6-8.3-4.2c-3.4,0.5-6.1,3-6.9,6.3
				c-1.6,7.1-3.6,14.1-6,21c-16.4-12-27-28.2-31.1-47c-0.9-4-1.4-8.1-1.6-12.3c0.1-0.3,0.2-0.7,0.2-1.1
				c1.1-22.2,14.2-36.9,26.4-43.5c10.4-5.6,21.5-6.2,30.1-1.8c1.7,0.8,3.7,0.3,4.7-1.3l3-4.5c1.2-1.8,0.6-4.4-1.3-5.4
				c-12.5-6.6-28.1-6.1-42.6,1.6c-2.3,1.2-4.5,2.6-6.6,4.1c9.9-13.9,25.9-23.6,43.3-26.2c18.9-2.7,37.2,3.4,51.8,17.2
				c1.4,1.4,3.7,1.3,5.1,0l3.8-3.7c1.5-1.5,1.5-3.9,0-5.4c-17.6-16.7-39.7-24.1-62.6-20.8c-24.3,3.5-46.2,18.8-57.2,39.9
				c-10.7,20.5-14,43.8-9.3,65.7c0.7,3.3,1.6,6.6,2.6,9.7c-8.9-14.2-12-29.9-9.4-46.6c0.3-2-1-3.8-3-4.2l-5.2-1.1
				c-2.1-0.4-4.1,1-4.4,3.1c-6.2,39.1,14.7,73.9,58.1,96.5c-8.1,19.6-19,38.2-32,54.1c-11.4,14-24.4,26-38.6,35.7
				c-15.4,10.6-32.4,18.4-50.4,23.4l1.7,6.1c0.7,2.1,1.4,4.1,2.1,6.2c19.2-5.4,37.3-13.8,53.8-25.1c15.2-10.4,29.1-23.3,41.3-38.2
				c19-23.3,33.8-51.9,42.3-81.5c5,11.1,6.8,20.2,6.8,25.5c0,10.5-2.7,17.8-2.7,17.8l0.9-1.5l2.8-5.1c1-1.9,3.4-2.5,5.2-1.4
				c2,1.2,4,2.5,5.8,3.6c31.7,20,41.1,32.6,52.7,48.1c8.3,11.1,17.6,23.6,36.6,40.5c0.4,0.3,0.9,0.8,2,1.6c1.1,0.9,4.3,3.5,5.7,4.8
				c1.3,4.8-0.1,10.7-3.9,15.8c-4,5.5-9.6,8.8-14.7,8.7c-5.2-0.1-15.2-2.9-22.5-4.9c-3.5-1-6.5-1.8-8.8-2.3
				c-22.4-4.9-48.7-12.5-56.8-28.5c-0.8-1.7-2.8-2.5-4.5-1.9l-5.1,1.7c-2.1,0.7-3.1,3.1-2.2,5.1c3.6,7.5,10,14.1,19,19.7
				c-13.9,16.7-18.5,37.5-22.9,57.7c-3.4,15.6-6.6,30.4-14.2,41.4c4.5,0.8,9.1,1.4,13.9,1.8c6.6-12.1,9.7-26.5,12.8-40.5
				c4.3-19.5,8.7-39.7,22.1-54.4c11.8,5,24.8,8.2,35.1,10.4c1.9,0.4,4.7,1.2,8.1,2.1c8.4,2.3,18.9,5.2,25.7,5.3c0.1,0,0.3,0,0.4,0
				c9.2,0,18.5-5.2,24.9-14c6.4-8.9,8.4-19.5,5.3-28.5C413.1,414.2,411.5,412.6,404.3,406.9z"/>
		</g>
	</g>
</g>
</svg>
