<?xml version="1.0" encoding="UTF-8"?>
<svg id="Layer_1" data-name="Layer 1" xmlns="http://www.w3.org/2000/svg" version="1.1" viewBox="0 0 1000 1000">
  <defs>
    <style>
      .cls-1 {
        fill: #6ca575;
      }

      .cls-1, .cls-2 {
        stroke-width: 0px;
      }

      .cls-2 {
        fill: #fff;
      }
    </style>
  </defs>
  <rect class="cls-1" x="0" width="1000" height="1000"/>
  <g>
    <path class="cls-2" d="M500,247.5c-54.2,0-105.11,26.34-143.37,74.16-38.13,47.66-59.13,111-59.13,178.34s21,130.68,59.13,178.34c38.26,47.82,89.18,74.16,143.37,74.16s105.11-26.34,143.37-74.16c38.13-47.66,59.13-111,59.13-178.34s-21-130.68-59.13-178.34c-38.26-47.82-89.18-74.16-143.37-74.16ZM500,747.5c-108.9,0-197.5-111.03-197.5-247.5s88.6-247.5,197.5-247.5,197.5,111.03,197.5,247.5-88.6,247.5-197.5,247.5Z"/>
    <path class="cls-2" d="M714.03,250.89c-27.77-32.4-60.12-57.84-96.15-75.62-37.33-18.42-76.99-27.76-117.88-27.76s-80.55,9.34-117.88,27.76c-36.03,17.78-68.38,43.22-96.15,75.62-57.05,66.56-88.47,155.03-88.47,249.11s31.42,182.56,88.47,249.11c27.77,32.4,60.12,57.84,96.15,75.62,37.33,18.42,76.99,27.76,117.88,27.76s80.55-9.34,117.88-27.76c36.03-17.78,68.38-43.22,96.15-75.62,57.05-66.56,88.47-155.03,88.47-249.11s-31.42-182.56-88.47-249.11ZM710.23,745.86c-56.18,65.54-130.84,101.64-210.23,101.64s-154.05-36.1-210.23-101.64c-56.27-65.65-87.27-152.97-87.27-245.86s30.99-180.21,87.27-245.86c56.18-65.54,130.84-101.64,210.23-101.64s154.05,36.1,210.23,101.64c56.27,65.65,87.27,152.97,87.27,245.86s-30.99,180.21-87.27,245.86Z"/>
    <polygon class="cls-2" points="297.99 372.88 281.91 365.69 290.78 345.87 282.47 342.16 273.6 361.97 264.77 358.02 274.83 335.53 266.52 331.81 252.37 363.44 293.9 382.02 297.99 372.88"/>
    <path class="cls-2" d="M317.21,334.73l-6.1-9.18,10.82-15.91,10.78,2.3,5.89-8.65-48.86-9.65-5.19,7.63,26.92,41.9,5.74-8.44ZM297.02,304.33l15.6,3.3-6.8,10-8.8-13.3Z"/>
    <polygon class="cls-2" points="372.78 269.47 366.48 262.91 350.11 278.61 324.92 252.34 317.69 259.27 349.19 292.11 372.78 269.47"/>
    <path class="cls-2" d="M369.58,243.08c6.79,11.16,20.66,14.82,32.1,7.86,7.5-4.56,10.32-9.93,11.71-16.64l-8.79-2.19c-1.36,4.64-3,8.07-7.45,10.77-6.66,4.06-14.65,1.31-18.71-5.35l-.07-.11c-4.06-6.66-2.65-14.98,3.9-18.97,3.89-2.37,7.96-2.56,12.61-1.66l1.62-9.59c-5.77-1.36-11.65-1.13-18.98,3.33-11.94,7.27-14.76,21.39-8.03,32.44l.07.11Z"/>
    <path class="cls-2" d="M421.67,213.71c3.37,12.49,15.81,19.97,29.37,16.32,13.56-3.65,20.65-16.54,17.29-29.02l-.03-.13c-3.36-12.49-15.81-19.97-29.37-16.32-13.56,3.65-20.65,16.54-17.29,29.03l.03.13ZM441.21,193.5c7.78-2.1,15,2.69,17.02,10.22l.03.13c2.03,7.53-1.71,15.14-9.49,17.23-7.78,2.1-15-2.69-17.03-10.22l-.03-.13c-2.03-7.53,1.71-15.14,9.49-17.23Z"/>
    <polygon class="cls-2" points="500.63 193.58 521.18 223.58 529.68 224 531.97 178.57 522.1 178.07 520.7 206.05 500.81 177 491.6 176.54 489.31 221.97 499.18 222.47 500.63 193.58"/>
    <polygon class="cls-2" points="607.93 244.35 587.74 234.01 604.34 201.61 595.44 197.05 574.68 237.54 603.78 252.45 607.93 244.35"/>
    <path class="cls-2" d="M631,260.02l14.52,12.63-3.56,10.43,7.9,6.87,15.37-47.37-6.96-6.06-44.79,21.78,7.7,6.7,9.84-4.97ZM653.75,248.54l-5.12,15.1-9.12-7.94,14.25-7.16Z"/>
    <polygon class="cls-2" points="665.27 309.66 676.53 301.49 684.04 302.54 676.65 325.34 683.72 335.07 693.53 304 720.04 307.65 712.94 297.87 686 294.62 702.09 282.93 696.21 274.83 659.39 301.56 665.27 309.66"/>
    <polygon class="cls-2" points="705.3 379.57 713.36 375.8 702.9 353.43 711.55 349.38 720.64 368.81 728.71 365.03 719.62 345.61 727.97 341.7 738.3 363.77 746.37 360 731.83 328.92 690.62 348.2 705.3 379.57"/>
    <rect class="cls-2" x="250.18" y="620.68" width="45.5" height="10.01" transform="translate(-206.64 139.91) rotate(-21.06)"/>
    <polygon class="cls-2" points="319.11 668.03 294.84 682.02 308.46 649.56 303.86 641.56 264.43 664.28 269.37 672.84 294.43 658.4 280.37 691.93 284.62 699.31 324.04 676.59 319.11 668.03"/>
    <polygon class="cls-2" points="356.17 714.92 324.47 727.7 340.15 697.33 332.71 689.16 311.21 733.61 317.16 740.15 363.43 722.9 356.17 714.92"/>
    <rect class="cls-2" x="344.05" y="748.92" width="45.5" height="10.01" transform="translate(-455.69 591.3) rotate(-52.87)"/>
    <polygon class="cls-2" points="431.94 765.51 398.14 748.82 394.05 757.1 406.47 763.23 390.42 795.75 399.4 800.18 415.45 767.66 427.86 773.78 431.94 765.51"/>
    <path class="cls-2" d="M456.03,771.78l-28.68,40.71,9.98,2.14,6.21-9.11,18.81,4.04,1.93,10.85,10.23,2.2-9.45-48.9-9.02-1.94ZM448.89,797.63l9.01-13.16,2.81,15.7-11.82-2.54Z"/>
    <polygon class="cls-2" points="527.11 776.24 489.44 777.89 489.84 787.11 503.68 786.51 505.26 822.75 515.26 822.31 513.68 786.07 527.51 785.47 527.11 776.24"/>
    <rect class="cls-2" x="548.64" y="770.33" width="10.01" height="45.5" transform="translate(-183.14 166.47) rotate(-14.7)"/>
    <path class="cls-2" d="M622.77,762.74c-6.09-11.41-19.91-15.9-32.29-9.29-12.39,6.61-16.4,20.76-10.31,32.18l.06.11c6.09,11.41,19.91,15.9,32.29,9.29,12.39-6.61,16.4-20.76,10.31-32.18l-.06-.12ZM608.29,786.83c-7.11,3.8-15.22.76-18.89-6.12l-.06-.12c-3.67-6.88-1.74-15.13,5.37-18.93s15.22-.75,18.89,6.13l.06.12c3.67,6.88,1.74,15.13-5.37,18.93Z"/>
    <polygon class="cls-2" points="646.82 711.79 666.11 732.11 631.36 726.47 624.67 732.83 656 765.82 663.16 759.02 643.25 738.04 679.14 743.85 685.32 737.98 653.99 704.99 646.82 711.79"/>
    <path class="cls-2" d="M674.31,677.22l27.51,41.52,5.62-8.52-6.23-9.09,10.6-16.06,10.81,2.15,5.76-8.74-48.99-8.96-5.08,7.71ZM702.46,683.18l-6.66,10.09-8.99-13.17,15.65,3.08Z"/>
    <polygon class="cls-2" points="734.44 643.79 700.85 629.76 696.99 639 738.98 656.54 751.58 626.37 743.18 622.86 734.44 643.79"/>
    <path class="cls-2" d="M724.63,240.27c-29.15-33.78-63.1-60.3-100.92-78.83-39.18-19.2-80.8-28.94-123.71-28.94s-84.53,9.74-123.71,28.94c-37.81,18.53-71.77,45.06-100.92,78.83-59.89,69.39-92.87,161.63-92.87,259.73s32.98,190.33,92.87,259.73c29.15,33.78,63.1,60.3,100.92,78.83,39.18,19.2,80.8,28.94,123.71,28.94s84.53-9.74,123.71-28.94c37.81-18.53,71.77-45.06,100.92-78.83,59.89-69.39,92.87-161.63,92.87-259.73s-32.98-190.33-92.87-259.73ZM720.85,756.46c-59.01,68.38-137.44,106.04-220.85,106.04s-161.83-37.66-220.85-106.04c-59.1-68.49-91.65-159.57-91.65-256.46s32.55-187.98,91.65-256.46c59.01-68.38,137.44-106.04,220.85-106.04s161.83,37.66,220.85,106.04c59.1,68.49,91.65,159.56,91.65,256.46s-32.55,187.98-91.65,256.46Z"/>
    <path class="cls-2" d="M544.1,448.7c4.05,0,7.34-3.29,7.34-7.34h-14.68c0,4.05,3.29,7.34,7.34,7.34Z"/>
    <path class="cls-2" d="M514.9,448.7c4.05,0,7.34-3.29,7.34-7.34h-14.68c0,4.05,3.29,7.34,7.34,7.34Z"/>
    <path class="cls-2" d="M529.5,458.86c4.05,0,7.34-3.29,7.34-7.34h-14.68c0,4.05,3.29,7.34,7.34,7.34Z"/>
    <path class="cls-2" d="M558.7,458.86c4.05,0,7.34-3.29,7.34-7.34h-14.68c0,4.05,3.29,7.34,7.34,7.34Z"/>
    <path class="cls-2" d="M544.1,469.02c4.05,0,7.34-3.29,7.34-7.34h-14.68c0,4.05,3.29,7.34,7.34,7.34Z"/>
    <path class="cls-2" d="M514.9,469.02c4.05,0,7.34-3.29,7.34-7.34h-14.68c0,4.05,3.29,7.34,7.34,7.34Z"/>
    <path class="cls-2" d="M522.16,471.83c0,4.05,3.29,7.34,7.34,7.34s7.34-3.29,7.34-7.34h-14.68Z"/>
    <path class="cls-2" d="M558.7,479.17c4.05,0,7.34-3.29,7.34-7.34h-14.68c0,4.05,3.29,7.34,7.34,7.34Z"/>
    <path class="cls-2" d="M544.1,489.33c4.05,0,7.34-3.29,7.34-7.34h-14.68c0,4.05,3.29,7.34,7.34,7.34Z"/>
    <path class="cls-2" d="M656.56,413.45c-3.31-6.98-7.83-13.04-12.72-18.91-4.98-5.79-10.21-11.25-16.54-15.68,3.32,6.97,7.84,13.04,12.72,18.91,4.97,5.79,10.21,11.26,16.54,15.68Z"/>
    <path class="cls-2" d="M650.14,418.66c-3.7-6.88-8.58-12.8-13.8-18.49-5.31-5.61-10.87-10.89-17.46-15.09,3.71,6.88,8.58,12.8,13.8,18.49,5.3,5.62,10.86,10.9,17.46,15.09Z"/>
    <path class="cls-2" d="M598.62,389.25c.09,4.43,2.51,8.92,6.83,12.63l.04.04.04.04c11.82,9.72,24,19.74,38.62,28.54l-129.99,196.12-5.17-27.48c24.54-22.77,45.14-52.45,61.4-88.49,4.45-10.19,7.54-19.91,9.56-29.24h0s0-.06.01-.1c2.62-12.11,3.45-23.56,3.13-34.57-.02-4.31-.28-8.44-.82-12.33-1.58-15.35-5.01-29.92-8.4-44.3-2.77-11.73-5.62-23.85-7.34-36.04.31-13.28-4.56-25.54-14.11-35.47-8.48-8.82-20.45-15.48-33.72-18.76-12.88-3.19-26.19-3-37.45.55-12.59,3.96-22.08,11.81-27.45,22.71l-.27.55v.61c.25,9.71-3.24,18.19-6.32,25.67-2.11,5.12-4.11,9.96-4.51,14.43-.33,3.63.93,8.06,3.99,9.49,1.22.57,3.67,1.11,6.48-1.7,1.69-1.68,3.86-2.77,6.17-3.63l1.14,8.69c.89,12.64-9.89,20.89-20.32,28.88-4.03,3.09-7.84,6-11,9.13-9.16,8.44-15.97,18.5-21.99,28.16-24.37,40.88-32.96,90.69-41.26,138.85-3.5,20.31-6.87,39.75-11.28,58.35,1.21,2.02,2.44,4.02,3.69,5.99,5.05-20.2,8.7-41.33,12.51-63.49,8.22-47.72,16.73-97.06,40.6-137.1,5.78-9.27,12.33-18.96,21.06-27.04,14.85-11.96,31.89-14.01,45.6-5.46,13.34,8.31,19.84,24.71,16.19,40.82l-.02.11c-5.4,29.63-24.56,50.2-44.84,71.96-1.34,1.44-2.69,2.89-4.06,4.37-26.18,28.77-42.89,63.79-59.04,97.66-3.91,8.2-7.96,16.68-12.08,24.95-1.64,3.36-3.16,6.5-4.56,9.42,1.14,1.48,2.29,2.93,3.45,4.37,1.67-3.51,3.53-7.36,5.59-11.58,4.13-8.29,8.19-16.79,12.11-25.01,6.62-13.87,13.33-27.93,20.74-41.65-3.57,49.34,5.48,83.14,10.98,92.61-1.47,1.85-2.93,3.69-4.39,5.53-3.52,4.44-7.08,8.93-10.67,13.43,1.34,1,2.69,1.99,4.04,2.95,3.56-4.44,7.08-8.88,10.55-13.27,17.28-21.81,35.03-44.21,55.42-63.71l8.13,43.22-35.78,53.98c1.62.59,3.25,1.15,4.89,1.68l34.53-52.09c3.1.39,5.58,2.77,6.12,5.82l-31.99,48.8c1.71.44,3.44.85,5.17,1.23l56.14-85.63h.39c0-.19-.02-.37-.03-.56l135.83-207.19c8.81-9.88,10.44-21.22,4.72-32.81-4.93-9.99-10.86-19.56-16.59-28.81-.73-1.18-1.46-2.36-2.19-3.54-3.32-5.39-8.44-8.47-14.05-8.47h0c-2.82,0-5.62.76-8.33,2.26-8.73,4.85-15.75,9.8-21.46,15.14-3.73,3.48-4.45,7.26-4.4,9.82ZM561.54,354.14v.21s.02.21.02.21c1.75,12.48,4.65,24.79,7.46,36.69,1.74,7.4,3.5,14.85,5,22.43-2.71-3.08-6.12-5.47-10.39-6.97-25.17-7.91-30.29-17.11-36.78-28.76-4.84-8.69-10.32-18.54-25.05-29.26-3.87-2.62-7.85-4.73-11.92-6.35,3.05-5.11,6.03-9.77,10.37-12.76-.62,1.49-.96,3.13-.96,4.84,0,7.03,5.72,12.74,12.74,12.74s12.74-5.72,12.74-12.74c0-2.52-.74-4.86-2.01-6.84,3.89.9,7.37,2.02,10.56,3.06,7.91,2.58,14.83,4.82,23.16,2.05,3.74,7.23,5.24,14.76,5.06,21.45ZM465.46,376.75l-1.27-9.75-.48.06c3.42-1.06,6.62-2.12,8.55-4.46,3.52-4.26,3.79-9.87.69-14.63-1.07-1.64-2.6-3.2-4.5-4.47,12.88-.39,23.33,4.44,30.47,9.27,3.94,2.87,7.14,5.64,9.84,8.35-8.37,17.85-24.77,25.7-43.45,20.77.21-1.64.27-3.35.14-5.14ZM504.28,334.42c0-4.27,3.47-7.74,7.74-7.74s7.74,3.47,7.74,7.74-3.47,7.74-7.74,7.74-7.74-3.47-7.74-7.74ZM458.57,324.77c7.92-15.39,29.08-27.47,58.95-20.08,18.07,4.47,29.64,13.47,36.36,23.58-6.33,1.75-11.79-.03-19-2.38-4.83-1.57-10.31-3.36-17-4.32-19.5-2.79-26.66,8.72-32.83,19.11-9.37-2.77-19.11-2.94-28.88-.43,1.44-4.75,2.46-9.87,2.4-15.48ZM449.64,368.6c-.46.46-.76.62-.89.67-.51-.4-1.26-2.3-1.06-4.46.34-3.71,2.11-8.01,4.16-12.98.78-1.9,1.59-3.85,2.36-5.88l.02.06c6.67-1.87,12.21,1.12,14.54,4.7.91,1.39,2.69,5.03-.35,8.71-1.07,1.29-3.76,2.12-6.62,3.01-4.05,1.26-8.65,2.68-12.14,6.18ZM425.96,677.22c-5.67-11.84-13.92-47.66-8.4-99.04,9.04-15.62,19.21-30.6,31.49-44.09,1.35-1.45,2.7-2.9,4.04-4.34,20.79-22.31,40.42-43.38,46.09-74.42,4.1-18.16-3.3-36.69-18.43-46.11-9.27-5.78-19.82-7.35-30.33-4.88,5.93-4.96,11.32-10.57,13.75-17.57,4,1.04,7.92,1.55,11.72,1.55,15.42,0,28.78-8.34,36.5-23.26,4.5,5.3,7.33,10.36,10.09,15.32,6.75,12.12,12.58,22.6,39.57,31.07,8.15,2.87,13.11,9.85,15.07,21.91.29,2.64.53,5.31.7,8h-11.86c0,4.05,3.29,7.34,7.34,7.34,1.83,0,3.49-.67,4.77-1.77,0,.19,0,.38.01.57-.02,4.31-.25,9.02-.71,14.18h-11.42c0,4.05,3.29,7.34,7.34,7.34,1.23,0,2.39-.31,3.41-.84-.43,3.77-.97,7.74-1.6,11.92-1.95,9.11-4.94,18.59-9.28,28.51-19.1,42.35-44.26,75.72-74.85,99.23-24.82,20.11-45.42,44.8-65.01,69.38ZM481.84,622.36c3.97-3.65,8.04-7.2,12.23-10.6,3.6-2.77,7.12-5.67,10.57-8.71l5.56,29.54-20.59,31.07-7.77-41.3ZM498.72,673.95c-1.48-2.41-3.78-4.26-6.51-5.18l21.51-32.45c3,.32,5.44,2.49,6.16,5.35l-21.16,32.27ZM606.43,383.09c6.05-5.66,13.2-10.38,20.47-14.42,1.98-1.1,3.98-1.64,5.9-1.64,3.83,0,7.34,2.12,9.79,6.1,6.47,10.48,13.11,20.93,18.55,31.94,4.75,9.63,3.53,19.02-4.2,27.53l-133.84,204.16c-1.51-2.29-3.77-4.03-6.43-4.89l134.57-203.04c-16.1-9.06-28.86-19.5-42.54-30.75-4.56-3.92-7.59-10.04-2.28-15.01Z"/>
    <path class="cls-2" d="M238.1,500.67c4.9-4.6,7.2-7.55,7.2-12.5v-.1c0-6.6-4.9-10.85-11.95-10.85-5.55,0-9.35,2.3-12.95,6.6l5.4,5.7c2.55-2.8,4.35-4.2,6.7-4.2s3.8,1.45,3.8,3.7-1.2,3.85-4.35,7l-11.4,11.1v7.1h24.85v-7.8h-13.35l6.05-5.75Z"/>
    <path class="cls-2" d="M264.55,514.92c9.1,0,14.8-7.65,14.8-18.55v-.8c0-10.85-5.65-18.45-14.7-18.45s-14.75,7.65-14.75,18.55v.8c0,10.85,5.6,18.45,14.65,18.45ZM258.95,495.67c0-6.9,2.2-10.45,5.6-10.45s5.7,3.65,5.7,10.5v.65c0,6.85-2.2,10.45-5.6,10.45s-5.7-3.65-5.7-10.5v-.65Z"/>
    <path class="cls-2" d="M747.83,488.17v-.1c0-6.6-4.9-10.85-11.95-10.85-5.55,0-9.35,2.3-12.95,6.6l5.4,5.7c2.55-2.8,4.35-4.2,6.7-4.2s3.8,1.45,3.8,3.7-1.2,3.85-4.35,7l-11.4,11.1v7.1h24.85v-7.8h-13.35l6.05-5.75c4.9-4.6,7.2-7.55,7.2-12.5Z"/>
    <path class="cls-2" d="M768.23,492.67l8.2-7.95v-6.9h-23v7.7h12.25l-7.7,7.9.95,5.1h2.55c4.4,0,6.7,1.6,6.7,4.25v.1c0,2.45-1.85,4.05-4.6,4.05-3.1,0-5.5-1.5-7.35-3.35l-4.95,6.3c3.1,3.05,7.3,5,12.8,5,7.55,0,12.95-4.65,12.95-11.9v-.15c0-6.1-4-9-8.8-10.15Z"/>
  </g>
</svg>