<?xml version="1.0" encoding="utf-8"?>
<!-- Generator: Adobe Illustrator 27.1.0, SVG Export Plug-In . SVG Version: 6.00 Build 0)  -->
<svg version="1.1" id="Layer_1" xmlns="http://www.w3.org/2000/svg" xmlns:xlink="http://www.w3.org/1999/xlink" x="0px" y="0px"
	 viewBox="0 0 800 600" style="enable-background:new 0 0 800 600;" xml:space="preserve">
<style type="text/css">
	.st0{fill:#009EDE;}
	.st1{fill:#FFFFFF;}
</style>
<rect class="st0" width="800" height="600"/>
<g>
	<path class="st1" d="M224.9,240.7l-9.9,24.5c-6.1-3.5-12.1-4.3-19.5-3c-12.8,2.3-22.3,14.4-22.3,26.8c0,12.8,10.1,21.2,22.2,19
		c2.5-0.4,5.9-1.8,7.9-3.3v-22.3l22.7-4v43.5c-6.9,4.2-20,8.3-28.5,9.9c-28.8,5.1-47.6-9.6-47.6-38.7c0-27.8,20-50.6,47.5-55.4
		C206.2,236,219.8,237.8,224.9,240.7z"/>
	<path class="st1" d="M292.9,280.5c0,18.4-14.5,36.3-32.7,39.5c-18.2,3.2-32.7-9.4-32.7-28c0-18.8,14.7-36.4,32.7-39.5
		C278.6,249.2,292.9,262,292.9,280.5z M260.2,298.3c6.6-1.1,11.7-7.4,11.7-14.1c0-6.9-5.2-11.2-11.9-10c-6.3,1.1-11.6,7.3-11.6,14.1
		S253.8,299.4,260.2,298.3z"/>
	<path class="st1" d="M315,219.1v19.5l-21,3.7v-19.5L315,219.1z M315,244.3v64.5l-21,3.7V248L315,244.3z"/>
	<path class="st1" d="M373.8,250.7v47.7l-21,3.7v-35.6c0-6-2-8.3-6.4-7.6c-4.5,0.8-6.1,4.7-6.1,9.8v35.7l-21,3.7v-64.5l21-3.7v6
		c4.1-5.3,9.1-9.1,15.4-10.1C366.2,233.8,373.8,239,373.8,250.7z"/>
	<path class="st1" d="M420.6,225.7l12.1-2.1l-6.3,10.8c3.1,2.7,6.1,10.1,6.1,17.8c0,6.9-2.9,13.6-5.9,17c3.1,2.9,5.2,7.3,5.2,14.3
		c0,12.4-8.6,28.1-29.8,31.9c-10.6,1.9-19.5-1.6-27.2-7.2l10.4-17.9c4.1,4.3,11.4,6.1,17.4,5c4.3-0.7,8.2-3.7,8.2-8.7v-2.9
		c-2,1-4.7,1.6-6.5,1.9c-19.3,3.4-28.1-10.1-28.1-23.8c0-21.3,14.2-32.4,26.6-34.6C409.2,226.2,415,226.6,420.6,225.7z M403.7,264.7
		c4.1-0.7,7.8-5.2,7.8-9.5c0-4.3-3.5-7.6-7.8-6.9c-4,0.7-7.6,5-7.6,9.6C396.1,262.2,399.7,265.3,403.7,264.7z"/>
	<path class="st1" d="M499.6,186.6l3.5,23.1l-27.4,4.8v9.3l17.9-3.2v23.6l-17.9,3.2v9.3l30.4-5.4l-5.9,24.7l-47.3,8.4v-89.6
		L499.6,186.6z"/>
	<path class="st1" d="M554.8,222.1v44.3l-18.2,3.2v-4.7l-0.2,0.1c-2.3,3.9-7.4,7.5-13.5,8.6c-11.1,2-19.5-5.4-19.5-19.2
		c0-11.6,8.1-23.4,21.5-25.7c3.8-0.7,7.4-0.6,9.3,0.1c0-6.7-2.5-8-11.4-6.5c-4.6,0.8-7.3,1.6-13.2,3.8l2.5-15.8
		c7.5-1.8,11.7-2.9,17.4-3.9C546.5,203.5,554.8,205.7,554.8,222.1z M529.9,254.9c3.5-0.7,6.4-4.1,6.4-7.8c0-3.7-2.9-6.1-6.4-5.5
		c-3.5,0.6-6.4,4.1-6.4,7.8C523.6,253.1,526.4,255.6,529.9,254.9z"/>
	<path class="st1" d="M590.1,215.2c-1.8-0.9-4.3-1.5-7.1-1c-2.3,0.4-4.7,2.3-4.7,5.2c0,4.7,13.7,7.9,13.7,22.7
		c0,12.4-7.5,20.8-23,23.5c-2.8,0.5-6.1,0.8-11.6,0.6v-20c2.3,0.7,4.3,0.9,6.3,0.5c2.6-0.5,5.6-2,5.6-5c0-5.5-12.9-6.7-12.9-21.8
		c0-12.4,7.3-20.9,21.8-23.4c8.6-1.5,10.7-1.6,11.9-1.6L590.1,215.2L590.1,215.2z"/>
	<path class="st1" d="M650,227.1l-11.4,45.6l-18.8,3.4l10.1-45.4L650,227.1z"/>
	<path class="st1" d="M619.3,255.2l5.2-22.9v-0.2c-0.8,0.5-2.2,0.9-2.9,1c-4.3,0.7-6.4,0-6.4-4.5V210l7.8-1.4V190l-7.8,1.4v-20.4
		l-21,16.2v7.9v18.6v29.1c0,14.5,6.3,15.6,23.6,12.5L619.3,255.2z"/>
	<path class="st1" d="M224.9,337l-9.9,24.5c-6.1-3.5-12.1-4.3-19.5-3c-12.8,2.3-22.3,14.4-22.3,26.8c0,12.8,10.1,21.2,22.2,19
		c2.5-0.4,5.9-1.8,7.9-3.3v-22.3l22.7-4v43.5c-6.9,4.2-20,8.3-28.5,9.9c-28.8,5.1-47.6-9.6-47.6-38.7c0-27.8,20-50.6,47.5-55.4
		C206.2,332.4,219.8,334.1,224.9,337z"/>
	<path class="st1" d="M292.9,376.8c0,18.4-14.5,36.3-32.7,39.5c-18.2,3.2-32.7-9.4-32.7-28c0-18.8,14.7-36.4,32.7-39.5
		C278.6,345.5,292.9,358.3,292.9,376.8z M260.2,394.6c6.6-1.1,11.7-7.4,11.7-14.1c0-6.9-5.2-11.2-11.9-10
		c-6.3,1.1-11.6,7.3-11.6,14.1S253.8,395.8,260.2,394.6z"/>
	<path class="st1" d="M315,315.5v19.5l-21,3.7v-19.5L315,315.5z M315,340.6v64.5l-21,3.7v-64.5L315,340.6z"/>
	<path class="st1" d="M373.8,347v47.7l-21,3.7v-35.7c0-6-2-8.3-6.4-7.6c-4.5,0.8-6.1,4.7-6.1,9.8v35.7l-21,3.7v-64.5l21-3.7v6
		c4.1-5.3,9.1-9.1,15.4-10.1C366.2,330.1,373.8,335.3,373.8,347z"/>
	<path class="st1" d="M420.6,322l12.1-2.1l-6.3,10.8c3.1,2.7,6.1,10.1,6.1,17.8c0,6.9-2.9,13.6-5.9,17c3.1,2.9,5.2,7.3,5.2,14.3
		c0,12.4-8.6,28.1-29.8,31.9c-10.6,1.9-19.5-1.6-27.2-7.2l10.4-17.9c4.1,4.3,11.4,6.1,17.4,5c4.3-0.7,8.2-3.7,8.2-8.7v-2.8
		c-2,1-4.7,1.6-6.5,1.9c-19.3,3.4-28.1-10.1-28.1-23.8c0-21.3,14.2-32.4,26.6-34.6C409.2,322.5,415,323,420.6,322z M403.7,361
		c4.1-0.7,7.8-5.2,7.8-9.5c0-4.3-3.5-7.6-7.8-6.9c-4,0.7-7.6,5-7.6,9.6C396.1,358.6,399.7,361.7,403.7,361z"/>
	<path class="st1" d="M499.6,282.9l3.5,23.1l-27.4,4.8v9.3l17.9-3.2v23.6l-17.9,3.2v33l-22.7,4v-89.7L499.6,282.9z"/>
	<path class="st1" d="M545.6,320.1v44.3l-18.2,3.2v-4.7l-0.2,0.1c-2.3,3.9-7.4,7.5-13.5,8.6c-11.1,2-19.5-5.4-19.5-19.2
		c0-11.6,8.1-23.4,21.5-25.7c3.8-0.7,7.4-0.6,9.3,0.1c0-6.7-2.5-8-11.4-6.5c-4.6,0.8-7.3,1.6-13.2,3.8l2.5-15.8
		c7.5-1.8,11.7-2.9,17.4-3.9C537.3,301.4,545.6,303.7,545.6,320.1z M520.7,352.9c3.5-0.7,6.4-4.1,6.4-7.8s-2.9-6.1-6.4-5.5
		c-3.5,0.7-6.4,4.1-6.4,7.8S517.3,353.6,520.7,352.9z"/>
	<path class="st1" d="M580.9,313.2c-1.8-0.9-4.3-1.5-7.1-1c-2.3,0.4-4.7,2.3-4.7,5.2c0,4.7,13.7,7.9,13.7,22.7
		c0,12.4-7.5,20.8-23,23.5c-2.8,0.5-6.1,0.8-11.6,0.6v-20c2.3,0.7,4.3,0.9,6.3,0.5c2.6-0.5,5.6-2,5.6-5c0-5.5-12.9-6.7-12.9-21.8
		c0-12.4,7.3-20.9,21.8-23.4c8.6-1.5,10.7-1.6,11.9-1.6L580.9,313.2L580.9,313.2z"/>
	<path class="st1" d="M584.9,293v-7.9l21-16.2v20.4l7.8-1.4v18.6l-7.8,1.4v18.6c0,4.5,2.2,5.2,6.4,4.5c0.7-0.2,2-0.5,2.9-1
		l-3.1,22.7l-3.6,0.7c-17.3,3-23.6,1.9-23.6-12.5v-29.1V293z"/>
</g>
</svg>
