<?xml version="1.0" encoding="UTF-8" standalone="no"?>
<svg width="1200px" height="750px" viewBox="0 0 1200 750" version="1.1" xmlns="http://www.w3.org/2000/svg" xmlns:xlink="http://www.w3.org/1999/xlink" style="background: #ED202D;">
    <!-- Generator: Sketch 3.8.3 (29802) - http://www.bohemiancoding.com/sketch -->
    <title>Artboard 1 Copy 2</title>
    <desc>Created with Sketch.</desc>
    <defs></defs>
    <g id="Page-1" stroke="none" stroke-width="1" fill="none" fill-rule="evenodd">
        <g id="Artboard-1-Copy-2" fill="#FFFFFF">
            <g id="Group" transform="translate(200.000000, 312.000000)">
                <polygon id="Fill-1" points="100.234551 21.4662539 100.234551 2.76904025 3.69708978 2.76904025 14.2357895 13.3077399 92.3782043 13.3077399 13.6562229 110.858204 90.0673684 110.858204 101.269845 122.147368 101.269845 100.235294 37.0444582 100.235294"></polygon>
                <polygon id="Fill-2" points="2.07306502 26.1421672 63.3585139 26.1421672 0 105.25548 0 123.779319 99.6532508 123.779319 89.1071207 113.156409 8.84210526 113.156409 87.571517 15.6059443 13.2829721 15.6059443 2.07306502 4.39603715"></polygon>
                <path d="M204.622167,90.1072446 C197.699567,97.6688545 189.186873,101.445944 179.086563,101.445944 C168.988731,101.445944 160.478514,97.6688545 153.553437,90.1072446 C146.630836,82.5505882 143.163344,73.3765944 143.163344,62.5803096 C143.163344,51.7914551 146.630836,42.5852632 153.553437,34.9716409 C160.478514,27.353065 168.988731,23.5437771 179.086563,23.5437771 C189.186873,23.5437771 197.699567,27.353065 204.622167,34.9716409 C211.549721,42.5852632 215.007307,51.7914551 215.007307,62.5803096 C215.007307,73.3765944 211.549721,82.5505882 204.622167,90.1072446 M178.999876,14.5902167 C165.333003,14.5902167 153.672322,19.2143653 144.337337,28.3289164 C135.007307,37.4360372 130.279133,48.9332508 130.279133,62.4936223 C130.279133,76.0589474 135.007307,87.556161 144.337337,96.6632817 C153.672322,105.78031 165.333003,110.399505 178.999876,110.399505 C192.661796,110.399505 204.329907,105.78031 213.662415,96.6632817 C222.994923,87.5536842 227.720619,76.0589474 227.720619,62.4936223 C227.720619,48.9357276 222.994923,37.4409907 213.662415,28.3289164 C204.329907,19.2143653 192.661796,14.5902167 178.999876,14.5902167" id="Fill-3"></path>
                <path d="M215.271827,98.3103406 C205.491022,107.858328 193.287926,112.697957 178.999381,112.697957 C164.715789,112.697957 152.510217,107.858328 142.731889,98.3103406 C132.943653,88.7524458 127.982663,76.7029102 127.982663,62.4936223 C127.982663,48.2917647 132.943653,36.2397523 142.731889,26.6818576 C152.510217,17.13387 164.713313,12.2892879 178.999381,12.2892879 C193.287926,12.2892879 205.493498,17.13387 215.271827,26.6818576 C225.062539,36.2422291 230.026006,48.2917647 230.026006,62.4936223 C230.026006,76.7004334 225.062539,88.7474923 215.271827,98.3103406 M178.999381,-0.000495356037 C161.112074,-0.000495356037 146.050774,5.97102167 133.817957,17.9190093 C121.582663,29.8645201 115.467492,44.7227245 115.467492,62.4936223 C115.467492,80.2694737 121.582663,95.127678 133.817957,107.075666 C146.050774,119.016223 161.112074,124.990217 178.999381,124.990217 C196.886687,124.990217 211.950464,119.016223 224.188235,107.075666 C236.416099,95.127678 242.531269,80.2694737 242.531269,62.4936223 C242.531269,44.7227245 236.416099,29.8645201 224.188235,17.9190093 C211.950464,5.97102167 196.886687,-0.000495356037 178.999381,-0.000495356037" id="Fill-5"></path>
                <path d="M292.390588,26.3145511 L307.451889,26.3145511 C321.183158,26.3145511 331.370155,29.5145511 338.007926,35.9244582 C344.645697,42.3294118 347.964582,51.476161 347.964582,63.3622291 C347.964582,75.2482972 344.645697,84.3083591 338.007926,90.5399381 C331.370155,96.771517 321.876656,99.8897833 309.532384,99.8897833 L292.390588,99.8897833 L292.390588,26.3145511 Z M345.968297,98.1436533 C355.513808,90.247678 360.355913,78.574613 360.355913,63.4414861 C360.355913,48.3034056 355.508854,36.5139319 345.955913,28.3900929 C336.343529,20.2266254 321.299567,16.0879257 301.250031,16.0879257 L279.991827,16.0879257 L279.991827,110.116409 L304.338576,110.116409 C322.347245,110.116409 336.353437,106.086687 345.968297,98.1436533 L345.968297,98.1436533 Z" id="Fill-7"></path>
                <path d="M266.892384,2.76928793 L308.145635,2.76928793 C329.723344,2.76928793 346.285573,8.04978328 357.827368,18.610774 C369.366687,29.1692879 375.140062,43.8565944 375.140062,62.6677399 C375.140062,81.483839 369.517771,96.3692879 358.263282,107.331517 C347.013746,118.2987 329.839752,123.777337 306.758638,123.777337 L265.386502,123.777337 L265.386502,4.2974613 L277.693622,15.0293498 L277.693622,112.416347 L304.338824,112.416347 C322.892384,112.416347 337.396409,108.210774 347.434799,99.9135604 C357.537585,91.5643344 362.659567,79.2918885 362.659567,63.4429721 C362.659567,47.5965325 357.537585,35.2175851 347.444706,26.6404954 C337.406316,18.1104644 321.859567,13.7860062 301.250279,13.7860062 L279.47195,13.7860062 L266.892384,2.76928793 Z" id="Fill-9"></path>
                <polygon id="Fill-11" points="410.862415 16.7519505 398.510712 4.39529412 398.510712 123.778576 423.892755 123.778576 410.862415 110.753189"></polygon>
                <polygon id="Fill-13" points="413.165077 15.7978947 413.165077 109.80161 425.51678 122.150836 425.51678 2.77003096 400.137214 2.77003096"></polygon>
                <polygon id="Fill-15" points="503.63517 2.76928793 491.818452 2.76928793 439.536099 123.777337 466.523096 123.777337 455.932384 113.189102"></polygon>
                <polygon id="Fill-17" points="517.958885 2.76928793 569.451146 121.946997 553.39418 112.136471 513.203467 19.1209907 489.740929 73.9222291 518.719257 73.9222291 523.373127 84.6318266 483.875913 84.6318266 478.474056 97.1866254 467.672817 121.677028 458.662291 112.666502 506.12483 2.76928793"></polygon>
                <polygon id="Fill-19" points="513.203715 24.9117028 506.511455 40.3519505 526.865635 86.9302786 485.389474 86.9302786 480.775232 97.6398762 530.248916 97.6398762 541.503406 123.779814 568.034675 123.779814 551.573994 113.72161"></polygon>
                <path d="M639.831579,99.8885449 C630.139938,99.8885449 621.887307,96.4854489 615.078638,89.6743034 C608.267492,82.8681115 604.86192,73.8352941 604.86192,62.580805 C604.86192,51.3287926 608.470588,42.3876161 615.680495,35.7498452 C622.895356,29.1145511 631.578947,25.7931889 641.7387,25.7931889 C653.842724,25.7931889 664.052012,30.6377709 672.383901,40.2922601 L671.78452,24.1832817 C669.09226,22.1052632 666.221672,20.3244582 663.256966,18.8879257 C656.616718,15.6755418 649.186378,14.0482972 641.164087,14.0482972 C627.489783,14.0482972 615.762229,18.7467492 606.310836,28.0123839 C596.866873,37.273065 592.07678,48.9956656 592.07678,62.8582043 C592.07678,76.720743 596.775232,88.349226 606.033437,97.4266254 C615.306502,106.511455 627.286687,111.115789 641.639628,111.115789 C655.888545,111.115789 669.619814,104.017337 680.178328,92.1708978 L672.376471,84.1362229 C663.950464,94.6402477 653.104644,99.8885449 639.831579,99.8885449" id="Fill-21"></path>
                <path d="M641.640867,113.416718 C626.663777,113.416718 614.1387,108.589474 604.427245,99.0712074 C594.703406,89.5430341 589.779567,77.3597523 589.779567,62.8582043 C589.779567,48.3541796 594.797523,36.079257 604.702167,26.3727554 C614.596904,16.6662539 626.864396,11.7473684 641.165325,11.7473684 C649.536842,11.7473684 657.306502,13.45387 664.2613,16.8198142 C667.53065,18.4049536 670.681115,20.3814241 673.628483,22.7021672 L674.049536,23.0291022 L674.695975,40.4705882 L690.383901,22.6798762 C676.996904,7.56160991 660.375232,0 640.526316,0 C622.752941,0 607.721362,6.00371517 595.434056,18.006192 C583.136842,30.0086687 576.989474,44.9832817 576.989474,62.930031 C576.989474,80.8767802 583.02291,95.7325077 595.079876,107.504644 C607.139319,119.279257 622.490402,125.166563 641.13065,125.166563 C659.770898,125.166563 675.95418,117.434056 689.687926,101.966563 L681.782043,93.8229102 C670.785139,106.10774 656.526316,113.416718 641.640867,113.416718" id="Fill-23"></path>
                <path d="M717.301053,61.1975232 C723.822415,66.5647059 734.123344,70.9213622 748.206316,74.2674923 C757.090526,76.4619195 763.034799,78.6266254 766.036656,80.7616099 C769.038514,82.8965944 770.534489,85.7820433 770.534489,89.4179567 C770.534489,93.0513932 769.122724,95.9368421 766.294241,98.0718266 C763.468235,100.209288 759.569783,101.274303 754.611269,101.274303 C743.86452,101.274303 732.188978,95.8823529 719.594551,85.1331269 L722.066378,102.708359 C739.574737,113.229721 752.585263,112.76904 752.721486,112.75418 C763.317152,113.113313 772.275666,109.747368 778.001981,103.30774 C782.727678,97.9975232 784.731393,91.0823529 783.636656,83.8377709 C781.893003,72.2786378 764.240991,66.3467492 747.205697,62.0668731 C727.000124,56.9919505 716.939443,44.6798762 720.285573,29.1331269 C721.808793,22.0495356 726.54935,16.2934985 733.642848,12.9226006 C740.520867,9.65077399 749.055851,8.87058824 757.675046,10.7256966 C758.247183,10.8520124 771.740681,13.85387 780.934489,19.3102167 L781.410031,19.5925697 L783.480619,34.2229102 L796.15678,15.926935 C790.155542,10.8495356 783.114056,6.92383901 775.039752,4.15479876 C766.958019,1.38328173 758.873808,0.00123839009 750.799505,0.00123839009 C738.450279,0.00123839009 728.151827,3.11702786 719.899195,9.34860681 C711.646563,15.5801858 707.522724,24.4396285 707.522724,35.9219814 C707.522724,47.4068111 710.77969,55.8303406 717.301053,61.1975232" id="Fill-26"></path>
                <path d="M788.888173,63.8823529 C782.537709,58.2278638 773.623777,53.9851393 762.138947,51.1591331 C750.654118,48.3281734 743.325325,45.876161 740.15257,43.7981424 C736.979814,41.7226006 735.392198,38.9263158 735.392198,35.4018576 C735.392198,31.8848297 736.690031,29.0563467 739.288173,26.9213622 C741.883839,24.7839009 745.435542,23.7164087 749.933375,23.7164087 C760.685077,23.7164087 771.117276,27.4018576 781.229969,34.7455108 L779.285697,21.0117647 C770.408916,15.9145511 757.319133,13.0018576 757.185387,12.9721362 C749.066502,11.228483 741.051641,11.9442724 734.62935,15.0006192 C728.199628,18.0594427 723.904892,23.2482972 722.532755,29.6185759 C719.481362,43.803096 728.910464,55.0996904 747.761238,59.8377709 C765.534613,64.298452 783.969288,70.6018576 785.911084,83.4934985 C787.107368,91.4266254 784.910464,99.0055728 779.719133,104.83839 C773.819443,111.471207 764.828731,115.077399 754.290031,115.077399 C753.774861,115.077399 753.25969,115.069969 752.734613,115.052632 C752.266502,115.082353 738.740805,115.562848 720.407678,104.390093 L719.942043,104.10774 L717.32161,85.4897833 L702.327183,103.872446 C717.673313,118.066873 734.931517,125.165325 754.089412,125.165325 C767.362477,125.165325 778.069598,121.789474 786.203344,115.037771 C794.339567,108.286068 798.408916,99.4860681 798.408916,88.6377709 C798.408916,77.7894737 795.231207,69.5368421 788.888173,63.8823529" id="Fill-28"></path>
            </g>
        </g>
    </g>
</svg>