<?xml version="1.0" encoding="utf-8"?>
<!-- Generator: Adobe Illustrator 27.1.0, SVG Export Plug-In . SVG Version: 6.00 Build 0)  -->
<svg version="1.1" id="Layer_1" xmlns="http://www.w3.org/2000/svg" xmlns:xlink="http://www.w3.org/1999/xlink" x="0px" y="0px"
	 viewBox="0 0 800 600" style="enable-background:new 0 0 800 600;" xml:space="preserve">
<style type="text/css">
	.st0{fill:#111111;}
	.st1{fill:#FFFFFF;}
</style>
<rect class="st0" width="800" height="600"/>
<g>
	<path class="st1" d="M581.1,193.9c-28.3-28.3-66-43.9-106.1-43.9H175v300h300c40.1,0,77.7-15.6,106.1-43.9
		c28.3-28.3,43.9-66,43.9-106.1S609.4,222.3,581.1,193.9z M447.7,422.7H202.3V177.3h245.5V422.7z M561.8,386.8
		c-23.2,23.2-54,35.9-86.8,35.9v-92c16.9,0,30.7-13.8,30.7-30.7s-13.8-30.7-30.7-30.7v-92c32.8,0,63.6,12.8,86.8,35.9
		c23.2,23.2,35.9,54,35.9,86.8S585,363.6,561.8,386.8z"/>
	<polygon class="st1" points="307.1,362.1 278.1,362.1 278.1,214.1 251.8,214.1 251.8,385.9 307.1,385.9 	"/>
	<path class="st1" d="M353.2,387.4h13c21.4,0,31.9-10.6,31.9-31.9v-40h-25.8v38.8c0,6.9-3.2,10.1-9.8,10.1h-4.9
		c-6.9,0-10.1-3.2-10.1-10.1V245.8c0-6.9,3.2-10.1,10.1-10.1h4.4c6.6,0,9.8,3.2,9.8,10.1v33.6h25.8v-35.1
		c0-21.4-10.3-31.7-31.7-31.7h-12.8c-21.4,0-31.9,10.6-31.9,31.9v110.9C321.3,376.8,331.9,387.4,353.2,387.4z"/>
</g>
</svg>
