<?xml version="1.0" encoding="utf-8"?>
<!-- Generator: Adobe Illustrator 27.1.0, SVG Export Plug-In . SVG Version: 6.00 Build 0)  -->
<svg version="1.1" id="Layer_1" xmlns="http://www.w3.org/2000/svg" xmlns:xlink="http://www.w3.org/1999/xlink" x="0px" y="0px"
	 viewBox="0 0 172.8 172.8" style="enable-background:new 0 0 172.8 172.8;" xml:space="preserve">
<style type="text/css">
	.st0{fill:#148F5B;}
	.st1{fill:#011D2D;}
</style>
<rect class="st0" width="172.8" height="172.8"/>
<g>
	<g>
		<circle class="st1" cx="86.4" cy="86.4" r="72"/>
	</g>
	<g>
		<path class="st0" d="M52.9,107.3l-3.2,6.8H30.5v-1.5c1.4-0.4,3.3-1,3.3-3V93.2c0-2-1.6-2.3-4.9-2.3c-5.6,0-8.2,2.8-8.2,6
			c0,2.5,1.5,4.1,3.4,4.1c1.7,0,1.6-1.4,1.8-2.7c0.2-1.5,1.2-3.1,3-3.1c1.2,0,2,1.2,2,2.3c0,3.1-2.9,5.7-6.3,5.7
			c-3.8,0-6.2-2.5-6.2-6.2c0-5.1,4.1-8.2,10.5-8.2c2.3,0,6.2,0.2,9.4,0.2h3.2v1.5c-1.5,0.4-3.3,0.9-3.3,3v16.2
			c0,1.6,1.4,2.3,2.5,2.3h3c2.7,0,5.7-2.7,6.8-4c0,0,0.7-0.8,1.2-1.4L52.9,107.3z"/>
		<path class="st0" d="M62,114.1h-8.6v-1.4c1.1-0.3,2.4-0.7,2.4-2.4v-5.4c0-1.9-0.9-2.3-1.4-2.3l-1-0.1v-1.4
			c0.8-0.3,1.6-0.7,2.4-1.1c1-0.5,1.8-1.1,2.4-1.5h1.6v12.2c0,1.7,1.2,2,2,2.2v1.2H62z M57.9,93.7c-1.3,0-2.3-1.1-2.3-2.3
			s1.1-2.3,2.3-2.3s2.3,1.1,2.3,2.3S59.2,93.7,57.9,93.7z"/>
		<path class="st0" d="M72.1,114.7c-1.6,0-3.3-0.5-4.4-1.6l-1.2,1h-2V95.5c0-1.9-0.9-2.3-1.4-2.3l-1-0.1v-1.4
			c0.8-0.3,1.6-0.7,2.4-1.2c1-0.5,1.8-1.1,2.4-1.5h1.6v10.4c1-0.9,2.3-1.5,4.2-1.5c3.9,0,7.1,2.4,7.1,7.7
			C79.8,110.6,77,114.7,72.1,114.7z M72,99.7c-1.6,0-2.8,1.1-3.5,2.1v9.3c0.7,1,1.6,1.8,3,1.8c2.3,0,4.3-2,4.3-6.8
			C75.8,101.1,73.9,99.7,72,99.7z"/>
		<path class="st0" d="M109.4,96.6c-1.6,0-2.8-1-2.8-3c0-1.4-1.2-1.9-2.3-1.9c-5.5,0-14.1,6.8-16.8,12v6.9c0,1.7,1.4,2,2.2,2.2v1.3
			H81v-1.4c1.1-0.3,2.4-0.7,2.4-2.4v-5.4c0-1.9-0.9-2.3-1.4-2.3l-1-0.1v-1.4c0.8-0.3,1.6-0.7,2.4-1.1c1-0.5,1.8-1.1,2.4-1.5h1.6v2
			c3.8-4.6,10.4-11.2,18.7-11.2c3.5,0,5.7,2.2,5.7,4.5C111.9,95.5,110.8,96.6,109.4,96.6z"/>
		<path class="st0" d="M107.7,113.3c-0.5,0.6-1.5,1-2.7,1c-1.3,0-2.4-0.4-3.2-1.3c-0.8,0.7-2.3,1.6-4.9,1.6c-3,0-5.5-1.4-5.5-4.3
			c0-3.9,4.5-5,6.7-5.6c1.2-0.4,2.3-0.7,3.2-1v-1.8c0-1.7-1-2.7-2.2-2.7c-1.1,0-1.9,0.9-2.3,1.9c-0.5,1.2-1,1.9-2.1,1.9
			c-1.2,0-1.8-0.7-1.8-1.7c0-1.7,2.4-3.6,6.2-3.6c3.6,0,6.3,1.8,6.3,4.8v8.4c0,1.4,1.7,2,2.3,1.7V113.3z M101.3,105.8
			c-2.3,0.1-5.7,1.6-5.7,4.1c0,1.8,1,2.8,2.6,2.8s3.1-1.2,3.1-2.9V105.8z"/>
		<path class="st0" d="M120.9,101.5c-1.2,0-1.8-0.6-2.7-0.6c-1,0-2.4,1.3-3.1,2.7v7c0,1.7,1.4,2,2.2,2.2v1.3h-8.7v-1.4
			c1.1-0.3,2.4-0.7,2.4-2.4v-5.4c0-1.9-0.9-2.3-1.4-2.3l-1-0.1v-1.4c0.8-0.3,1.6-0.7,2.4-1.1c1-0.5,1.8-1.1,2.4-1.5h1.6v2.4
			c1.3-1.4,3-2.9,5.1-2.9c1.6,0,2.3,1.1,2.3,1.8C122.6,100.7,121.8,101.5,120.9,101.5z"/>
		<path class="st0" d="M140.1,99.7c-1.1,0.4-2.2,1.1-3,3.1l-4.7,12.3c-1.3,3.4-2.9,5.5-5.7,5.5c-1.7,0-3.1-1-3.1-2.4
			c0-0.8,0.5-1.5,1.5-1.5c1.4,0,1.6,1.5,2.4,1.5c0.7,0,1.2-0.3,2-1.9l1.1-2.3l-5.2-12.3c-0.6-1.3-1.7-1.6-2.5-1.8v-1.5h8.3v1.3
			c-0.7,0.2-1.6,0.6-1.6,1.5c0,0.2,0.1,0.5,0.2,0.8l2.9,6.6l2.6-6.6c0.1-0.3,0.2-0.5,0.2-0.8c0-0.9-1-1.2-1.7-1.5v-1.3h6.3
			L140.1,99.7L140.1,99.7z"/>
		<path class="st0" d="M67.2,135.9l-3.2,6.8H44.8v-1.5c1.4-0.4,3.3-1,3.3-3v-16c0-2.3-1.7-2.8-3.1-3.1v-1.5h10.9v1.5
			c-1.5,0.4-3.3,0.9-3.3,3v16.2c0,1.6,1.4,2.3,2.5,2.3h3c2.7,0,5.7-2.7,6.8-4c0,0,0.7-0.8,1.2-1.4L67.2,135.9z"/>
		<path class="st0" d="M76.5,143.2c-5.3,0-8.4-3.2-8.4-7.9c0-5.1,3.3-9,8.4-9c5.2,0,8.3,3.8,8.3,8.7
			C84.9,139.8,81.1,143.2,76.5,143.2z M76.5,127.9c-2.4,0-4.3,1.9-4.3,7c0,5.1,1.8,6.6,4.1,6.6c2.3,0,4.2-2.4,4.2-6.8
			C80.5,130.4,78.9,127.9,76.5,127.9z"/>
		<path class="st0" d="M100.8,128.3c-1,0.2-2.2,0.5-3,2.4l-4.7,11.9h-2L86,130.5c-0.8-1.8-2.1-2.1-2.7-2.2v-1.4h8.4v1.4
			c-0.9,0.2-1.7,0.5-1.7,1.3c0,0.2,0.1,0.4,0.2,0.6l3,6.8l2.5-6.3c0.1-0.2,0.1-0.5,0.1-0.6c0-0.9-0.9-1.5-1.5-1.7V127h6.5
			C100.8,127,100.8,128.3,100.8,128.3z"/>
		<path class="st0" d="M114.3,137.7c-1.2,2.9-3,5.4-6.8,5.4c-5.7,0-8.2-4.2-8.2-8.4c0-4.3,2.9-8.5,7.9-8.5c4.8,0,7,3.5,7,6
			c0,0.5,0,0.6-0.4,0.6h-10.1c0,0.5-0.1,1.1-0.1,1.7c0,4.4,1.6,6.7,4.1,6.7c2.3,0,3.9-1.8,4.8-4.2L114.3,137.7z M109.5,131.4
			c0-0.9-0.3-3.4-2.4-3.4c-1.6,0-2.7,1-3.2,3.4H109.5z"/>
		<path class="st0" d="M143.4,125.2c-1.6,0-2.8-1-2.8-3c0-1.4-1.2-1.9-2.3-1.9c-5.5,0-14.1,6.8-16.8,12v6.9c0,1.7,1.4,2,2.2,2.2v1.3
			H115v-1.4c1.1-0.3,2.4-0.7,2.4-2.4v-5.4c0-1.9-0.9-2.3-1.4-2.3l-1-0.1v-1.4c0.8-0.3,1.6-0.7,2.4-1.1c1-0.5,1.8-1.1,2.4-1.5h1.6v2
			c3.8-4.6,10.4-11.2,18.7-11.2c3.5,0,5.7,2.2,5.7,4.5C145.9,124.1,144.8,125.2,143.4,125.2z"/>
	</g>
	<g>
		<path class="st0" d="M22.4,71.7c-0.8,0-1.3,0.3-1.4,0.9c-0.1,0.5,0.2,0.9,0.8,1.1c0.4,0.1,0.6,0,0.9-0.2c0.3-0.2,0.2-0.2,1-1.2
			c0.9-1.2,1.8-1.6,3.1-1.3c1.9,0.4,2.9,1.8,2.5,3.6c-0.3,1.6-1.4,2.4-3.2,2.3l-0.2-1.7c1.1,0,1.6-0.3,1.7-1
			c0.1-0.6-0.2-1.1-0.8-1.2c-0.3-0.1-0.6,0-0.8,0.1c-0.2,0.2-0.2,0.2-1,1.2c-0.9,1.1-1.9,1.5-3.2,1.3c-1.7-0.4-2.7-1.8-2.4-3.3
			c0.3-1.4,1.2-2.1,2.8-2.2L22.4,71.7z"/>
		<path class="st0" d="M27,63.9c3.3,1.1,4.5,2.5,3.9,4.6c-0.6,2-2.6,2.4-5.9,1.4c-3.3-1.1-4.5-2.5-3.9-4.6
			C21.7,63.2,23.6,62.8,27,63.9z M25.7,67.8c2.5,0.8,3.2,0.8,3.5,0.1c0.2-0.8-0.3-1.1-3-2c-2.4-0.8-3.1-0.8-3.4-0.1
			C22.5,66.5,23.1,66.9,25.7,67.8z"/>
		<path class="st0" d="M23.6,58.9l5.8,2.6c1.4,0.6,1.9,0.6,2.2-0.2c0.1-0.3,0.1-0.6-0.1-0.8S31,60,30.1,59.7l-5.7-2.6l0.7-1.6
			l5.7,2.6c1.6,0.7,2.3,1.3,2.6,2.1c0.2,0.6,0.1,1.3-0.3,2.1c-0.9,1.9-2.1,2.2-4.6,1.1l-5.9-2.7L23.6,58.9z"/>
		<path class="st0" d="M36.1,56.5l-1,1.8l-7-4l-0.8,1.4l-1.6-0.9l2.7-4.7L30,51l-0.9,1.4L36.1,56.5z"/>
		<path class="st0" d="M34.1,48.6l-3.2-2.3l1.2-1.7l8.2,5.8l-1.2,1.7l-3.5-2.5l-0.9,1.2l3.5,2.5L37,55l-8.2-5.8l1.2-1.7l3.2,2.3
			L34.1,48.6z"/>
		<path class="st0" d="M41.5,39.9c-1.2-1.1-1.8-1.3-2.4-0.8c-0.6,0.6-0.2,1.4,1.7,3.3c1.8,1.7,2.4,2.1,3,1.5
			c0.5-0.5,0.4-1.1-0.6-2.2l1.3-1.1c0.7,0.8,1.1,1.4,1.2,2.1c0.3,1,0,1.8-0.8,2.6c-1.5,1.5-3.5,1.1-5.9-1.3c-2.4-2.4-2.9-4.5-1.4-6
			c0.9-0.9,1.9-1.1,2.9-0.7c0.6,0.2,1.1,0.6,1.9,1.3L41.5,39.9z"/>
		<path class="st0" d="M45.3,36.8l1.9-1.5l1.1,1.3l-1.9,1.5L48,40l2.4-2l1.1,1.4l-4,3.3L41.1,35l4-3.3l1.1,1.4l-2.4,2L45.3,36.8z"/>
		<path class="st0" d="M46.5,30.6l1.7-1.1l3.9,2.9c0.3,0.3,0.7,0.6,1.5,1.4c-0.5-0.7-1.4-1.9-1.8-2.5l-2-2.9l1.4-0.9l5.5,8.4
			l-1.4,0.9l-4.4-3.2c-0.5-0.3-0.9-0.8-1.6-1.4c0.6,0.8,1.5,2.1,1.8,2.4l2.3,3.5L52,39L46.5,30.6z"/>
		<path class="st0" d="M60,34.2l-1.8,1L54.4,28L53,28.8l-0.9-1.7l4.8-2.5l0.9,1.7l-1.5,0.8L60,34.2z"/>
		<path class="st0" d="M57.7,24.1l2.4-1c1.2-0.5,1.7-0.6,2.4-0.3c0.7,0.3,1.3,0.9,1.7,1.8c0.5,1.2,0.5,2.1-0.2,3l3.1,3.4l-2,0.8
			l-2.6-3.2l-0.6,0.2l1.5,3.6l-1.9,1L57.7,24.1z M61.8,27.2c0.7-0.3,0.8-0.9,0.5-1.8c-0.4-0.9-0.9-1.2-1.6-0.9l-0.5,0.2l1.1,2.6
			L61.8,27.2z"/>
		<path class="st0" d="M68.4,20.3l5,9l-2,0.6l-1-2l-1.9,0.5l0.2,2.2l-1.8,0.5l-0.6-10.2L68.4,20.3z M68.4,24
			c-0.3-0.6-0.4-0.9-0.7-1.6c0.1,0.7,0.2,1.1,0.2,1.6l0.2,2.8l1.5-0.4L68.4,24z"/>
		<path class="st0" d="M71.6,19.5l2-0.4l1.5,8l2.5-0.5l0.3,1.8l-4.5,0.9L71.6,19.5z"/>
		<path class="st0" d="M81.1,18l2.6-0.1c1.3-0.1,1.8,0.1,2.3,0.6c0.6,0.6,0.9,1.3,0.9,2.3c0.1,1.3-0.3,2.1-1.2,2.7l1.7,4.3l-2.2,0.1
			L83.9,24h-0.6l0.1,3.9l-2,0.1L81.1,18z M83.9,22.4c0.7,0,1.1-0.5,1.1-1.5c0-0.9-0.4-1.4-1.2-1.4h-0.6l0.1,2.9H83.9z"/>
		<path class="st0" d="M90.3,22.1l2.4,0.2L92.6,24l-2.4-0.2L90,26.3l3.2,0.2l-0.1,1.8L87.9,28l0.6-10l5.2,0.3l-0.1,1.8l-3.2-0.3
			L90.3,22.1z"/>
		<path class="st0" d="M99.2,29.2l-0.9-0.1v-1.2c-0.6,0.9-1.2,1.2-2.2,1c-2-0.3-2.7-2.2-2.2-5.5c0.6-3.4,2-5,4.1-4.7
			c1.7,0.3,2.5,1.6,2.3,3.8h-1.7c0-1.6-0.1-2-0.9-2.1c-0.9-0.1-1.3,0.6-1.7,3.3c-0.4,2.3-0.2,3.2,0.6,3.3c0.8,0.1,1.2-0.4,1.4-1.8
			L96.8,25l0.3-1.6l3,0.5L99.2,29.2z"/>
		<path class="st0" d="M102.5,19.8l2,0.5L102,30l-2-0.5L102.5,19.8z"/>
		<path class="st0" d="M110.3,27.5c-1.1,3.3-2.6,4.5-4.6,3.7c-2-0.7-2.4-2.6-1.2-5.9c1.2-3.3,2.6-4.5,4.7-3.8
			C111.1,22.3,111.5,24.2,110.3,27.5z M106.5,26.1c-0.9,2.5-0.9,3.2-0.2,3.5c0.8,0.3,1.1-0.2,2-3c0.8-2.4,0.9-3.1,0.2-3.4
			C107.8,23,107.3,23.6,106.5,26.1z"/>
		<path class="st0" d="M113.6,23.4l1.8,0.9l-0.5,4.8c-0.1,0.4-0.2,0.9-0.4,2c0.3-0.8,0.9-2.2,1.2-2.8l1.5-3.2l1.5,0.7l-4.3,9
			l-1.5-0.7l0.5-5.4c0.1-0.6,0.2-1.2,0.4-2.1c-0.3,0.9-1,2.4-1.1,2.7l-1.8,3.8l-1.5-0.7L113.6,23.4z"/>
		<path class="st0" d="M123.5,28.8l-3.4,9.7l-1.7-1.1l0.8-2l-1.7-1L116,36l-1.6-1l7.2-7.3L123.5,28.8z M120.8,31.3
			c0.2-0.6,0.3-0.9,0.7-1.5c-0.4,0.5-0.7,0.9-1,1.2l-1.9,2.1l1.3,0.8L120.8,31.3z"/>
		<path class="st0" d="M126.3,30.7l1.6,1.2l-4.9,6.5l2,1.5l-1.1,1.5l-3.7-2.8L126.3,30.7z"/>
		<path class="st0" d="M133.7,36.8l1.4,1.5l-5.8,5.8l1.8,1.8l-1.3,1.3l-3.2-3.3L133.7,36.8z"/>
		<path class="st0" d="M137.8,41.1l1.3,1.6l-7.6,6.5l-1.3-1.6L137.8,41.1z"/>
		<path class="st0" d="M140.2,43.9l1.6,2.2c0.8,1.2,1,1.4,0.9,2c0,0.7-0.5,1.4-1.2,2c-1,0.7-1.7,0.8-2.5,0.3
			c0.1,0.5,0.2,0.8,0.1,1.2c-0.2,0.6-0.6,1.1-1.2,1.5c-0.7,0.5-1.5,0.7-2.2,0.6c-0.6-0.1-1.1-0.5-1.8-1.5l-1.8-2.5L140.2,43.9z
			 M135.1,51.1c0.5,0.7,1,0.8,1.8,0.2c0.4-0.3,0.7-0.7,0.7-1c0-0.2-0.1-0.4-0.4-0.8l-0.4-0.6l-2.2,1.6L135.1,51.1z M138.5,48.5
			c0.5,0.6,0.9,0.7,1.6,0.2s0.8-1.1,0.4-1.7l-0.4-0.6l-2,1.4L138.5,48.5z"/>
		<path class="st0" d="M144.5,49.9l1.3,2.2c0.7,1.2,0.8,1.7,0.6,2.3c-0.2,0.8-0.8,1.4-1.6,1.9c-1.2,0.7-2,0.7-3,0.2l-3,3.5l-1.1-1.9
			l2.8-3l-0.3-0.5l-3.4,2l-1-1.7L144.5,49.9z M141.9,54.4c0.4,0.6,1,0.7,1.8,0.2s1-1,0.7-1.7l-0.3-0.5l-2.5,1.4L141.9,54.4z"/>
		<path class="st0" d="M149.6,60l-8.3,6.1l-0.8-1.9l1.8-1.2l-0.8-1.8l-2.1,0.5l-0.7-1.7l10.1-1.9L149.6,60z M146,60.5
			c0.5-0.4,0.8-0.5,1.5-0.9c-0.6,0.2-1.1,0.3-1.6,0.4l-2.7,0.6l0.6,1.4L146,60.5z"/>
		<path class="st0" d="M150.9,63.1l0.8,2.5c0.4,1.3,0.4,1.8,0.1,2.4c-0.4,0.7-1,1.2-2,1.5c-1.3,0.4-2.1,0.3-3-0.4l-3.7,2.8l-0.7-2.1
			l3.4-2.3l-0.2-0.6l-3.7,1.2l-0.6-1.9L150.9,63.1z M147.5,66.9c0.2,0.7,0.8,0.9,1.7,0.6s1.2-0.8,1-1.5l-0.2-0.5l-2.7,0.9
			L147.5,66.9z"/>
		<path class="st0" d="M147.5,72.4l5.4-3.2l0.4,2.1l-2.9,1.5c-0.4,0.2-0.8,0.3-1.5,0.5c0.7-0.1,1.1-0.1,1.6-0.1l3.3,0.3l0.4,1.8
			l-6.2-1l-4,0.8l-0.4-2L147.5,72.4z"/>
	</g>
</g>
</svg>
