<?xml version="1.0" encoding="utf-8"?>
<!-- Generator: Adobe Illustrator 27.1.0, SVG Export Plug-In . SVG Version: 6.00 Build 0)  -->
<svg version="1.1" id="Layer_1" xmlns="http://www.w3.org/2000/svg" xmlns:xlink="http://www.w3.org/1999/xlink" x="0px" y="0px"
	 viewBox="0 0 144 144" style="enable-background:new 0 0 144 144;" xml:space="preserve">
<style type="text/css">
	.st0{fill:#011D2D;}
	.st1{fill:#148F5B;}
</style>
<g>
	<g>
		<circle class="st0" cx="72" cy="72" r="72"/>
	</g>
	<g>
		<path class="st1" d="M38.5,92.9l-3.2,6.8H16.1v-1.5c1.4-0.4,3.3-1,3.3-3V78.8c0-2-1.6-2.3-4.9-2.3c-5.6,0-8.2,2.8-8.2,6
			c0,2.5,1.5,4.1,3.4,4.1c1.7,0,1.6-1.4,1.8-2.7c0.2-1.5,1.2-3.1,3-3.1c1.2,0,2,1.2,2,2.3c0,3.1-2.9,5.7-6.3,5.7
			c-3.8,0-6.2-2.5-6.2-6.2c0-5.1,4.1-8.2,10.5-8.2c2.3,0,6.2,0.2,9.4,0.2h3.2v1.5c-1.5,0.4-3.3,0.9-3.3,3v16.2
			c0,1.6,1.4,2.3,2.5,2.3h3c2.7,0,5.7-2.7,6.8-4c0,0,0.7-0.8,1.2-1.4L38.5,92.9z"/>
		<path class="st1" d="M47.6,99.7H39v-1.4c1.1-0.3,2.4-0.7,2.4-2.4v-5.4c0-1.9-0.9-2.3-1.4-2.3l-1-0.1v-1.4c0.8-0.3,1.6-0.7,2.4-1.1
			c1-0.5,1.8-1.1,2.4-1.5h1.6v12.2c0,1.7,1.2,2,2,2.2V99.7z M43.5,79.3c-1.3,0-2.3-1.1-2.3-2.3s1.1-2.3,2.3-2.3s2.3,1.1,2.3,2.3
			S44.8,79.3,43.5,79.3z"/>
		<path class="st1" d="M57.7,100.3c-1.6,0-3.3-0.5-4.4-1.6l-1.2,1h-2V81.1c0-1.9-0.9-2.3-1.4-2.3l-1-0.1v-1.4
			c0.8-0.3,1.6-0.7,2.4-1.2c1-0.5,1.8-1.1,2.4-1.5h1.6v10.4c1-0.9,2.3-1.5,4.2-1.5c3.9,0,7.1,2.4,7.1,7.7
			C65.4,96.2,62.6,100.3,57.7,100.3z M57.6,85.3c-1.6,0-2.8,1.1-3.5,2.1v9.3c0.7,1,1.6,1.8,3,1.8c2.3,0,4.3-2,4.3-6.8
			C61.4,86.7,59.5,85.3,57.6,85.3z"/>
		<path class="st1" d="M95,82.2c-1.6,0-2.8-1-2.8-3c0-1.4-1.2-1.9-2.3-1.9c-5.5,0-14.1,6.8-16.8,12v6.9c0,1.7,1.4,2,2.2,2.2v1.3
			h-8.7v-1.4c1.1-0.3,2.4-0.7,2.4-2.4v-5.4c0-1.9-0.9-2.3-1.4-2.3l-1-0.1v-1.4c0.8-0.3,1.6-0.7,2.4-1.1c1-0.5,1.8-1.1,2.4-1.5h1.6v2
			c3.8-4.6,10.4-11.2,18.7-11.2c3.5,0,5.7,2.2,5.7,4.5C97.5,81.1,96.4,82.2,95,82.2z"/>
		<path class="st1" d="M93.3,98.9c-0.5,0.6-1.5,1-2.7,1c-1.3,0-2.4-0.4-3.2-1.3c-0.8,0.7-2.3,1.6-4.9,1.6c-3,0-5.5-1.4-5.5-4.3
			c0-3.9,4.5-5,6.7-5.6c1.2-0.4,2.3-0.7,3.2-1v-1.8c0-1.7-1-2.7-2.2-2.7c-1.1,0-1.9,0.9-2.3,1.9c-0.5,1.2-1,1.9-2.1,1.9
			c-1.2,0-1.8-0.7-1.8-1.7c0-1.7,2.4-3.6,6.2-3.6c3.6,0,6.3,1.8,6.3,4.8v8.4c0,1.4,1.7,2,2.3,1.7V98.9z M86.9,91.4
			c-2.3,0.1-5.7,1.6-5.7,4.1c0,1.8,1,2.8,2.6,2.8c1.6,0,3.1-1.2,3.1-2.9V91.4z"/>
		<path class="st1" d="M106.5,87.1c-1.2,0-1.8-0.6-2.7-0.6c-1,0-2.4,1.3-3.1,2.7v7c0,1.7,1.4,2,2.2,2.2v1.3h-8.7v-1.4
			c1.1-0.3,2.4-0.7,2.4-2.4v-5.4c0-1.9-0.9-2.3-1.4-2.3l-1-0.1v-1.4c0.8-0.3,1.6-0.7,2.4-1.1c1-0.5,1.8-1.1,2.4-1.5h1.6v2.4
			c1.3-1.4,3-2.9,5.1-2.9c1.6,0,2.3,1.1,2.3,1.8C108.2,86.3,107.4,87.1,106.5,87.1z"/>
		<path class="st1" d="M125.7,85.3c-1.1,0.4-2.2,1.1-3,3.1l-4.7,12.3c-1.3,3.4-2.9,5.5-5.7,5.5c-1.7,0-3.1-1-3.1-2.4
			c0-0.8,0.5-1.5,1.5-1.5c1.4,0,1.6,1.5,2.4,1.5c0.7,0,1.2-0.3,2-1.9l1.1-2.3l-5.2-12.3c-0.6-1.3-1.7-1.6-2.5-1.8V84h8.3v1.3
			c-0.7,0.2-1.6,0.6-1.6,1.5c0,0.2,0.1,0.5,0.2,0.8l2.9,6.6l2.6-6.6c0.1-0.3,0.2-0.5,0.2-0.8c0-0.9-1-1.2-1.7-1.5V84h6.3V85.3z"/>
		<path class="st1" d="M52.8,121.5l-3.2,6.8H30.4v-1.5c1.4-0.4,3.3-1,3.3-3v-16c0-2.3-1.7-2.8-3.1-3.1v-1.5h10.9v1.5
			c-1.5,0.4-3.3,0.9-3.3,3v16.2c0,1.6,1.4,2.3,2.5,2.3h3c2.7,0,5.7-2.7,6.8-4c0,0,0.7-0.8,1.2-1.4L52.8,121.5z"/>
		<path class="st1" d="M62.1,128.8c-5.3,0-8.4-3.2-8.4-7.9c0-5.1,3.3-9,8.4-9c5.2,0,8.3,3.8,8.3,8.7
			C70.5,125.4,66.7,128.8,62.1,128.8z M62.1,113.5c-2.4,0-4.3,1.9-4.3,7c0,5.1,1.8,6.6,4.1,6.6s4.2-2.4,4.2-6.8
			C66.1,116,64.5,113.5,62.1,113.5z"/>
		<path class="st1" d="M86.4,113.9c-1,0.2-2.2,0.5-3,2.4l-4.7,11.9h-2l-5.1-12.1c-0.8-1.8-2.1-2.1-2.7-2.2v-1.4h8.4v1.4
			c-0.9,0.2-1.7,0.5-1.7,1.3c0,0.2,0.1,0.4,0.2,0.6l3,6.8l2.5-6.3c0.1-0.2,0.1-0.5,0.1-0.6c0-0.9-0.9-1.5-1.5-1.7v-1.4h6.5V113.9z"
			/>
		<path class="st1" d="M99.9,123.3c-1.2,2.9-3,5.4-6.8,5.4c-5.7,0-8.2-4.2-8.2-8.4c0-4.3,2.9-8.5,7.9-8.5c4.8,0,7,3.5,7,6
			c0,0.5,0,0.6-0.4,0.6H89.3c0,0.5-0.1,1.1-0.1,1.7c0,4.4,1.6,6.7,4.1,6.7c2.3,0,3.9-1.8,4.8-4.2L99.9,123.3z M95.1,117
			c0-0.9-0.3-3.4-2.4-3.4c-1.6,0-2.7,1-3.2,3.4H95.1z"/>
		<path class="st1" d="M129,110.8c-1.6,0-2.8-1-2.8-3c0-1.4-1.2-1.9-2.3-1.9c-5.5,0-14.1,6.8-16.8,12v6.9c0,1.7,1.4,2,2.2,2.2v1.3
			h-8.7v-1.4c1.1-0.3,2.4-0.7,2.4-2.4v-5.4c0-1.9-0.9-2.3-1.4-2.3l-1-0.1v-1.4c0.8-0.3,1.6-0.7,2.4-1.1c1-0.5,1.8-1.1,2.4-1.5h1.6v2
			c3.8-4.6,10.4-11.2,18.7-11.2c3.5,0,5.7,2.2,5.7,4.5C131.5,109.7,130.4,110.8,129,110.8z"/>
	</g>
	<g>
		<path class="st1" d="M8,57.3c-0.8,0-1.3,0.3-1.4,0.9c-0.1,0.5,0.2,0.9,0.8,1.1c0.4,0.1,0.6,0,0.9-0.2s0.2-0.2,1-1.2
			c0.9-1.2,1.8-1.6,3.1-1.3c1.9,0.4,2.9,1.8,2.5,3.6c-0.3,1.6-1.4,2.4-3.2,2.3l-0.2-1.7c1.1,0,1.6-0.3,1.7-1
			c0.1-0.6-0.2-1.1-0.8-1.2c-0.3-0.1-0.6,0-0.8,0.1c-0.2,0.2-0.2,0.2-1,1.2c-0.9,1.1-1.9,1.5-3.2,1.3c-1.7-0.4-2.7-1.8-2.4-3.3
			c0.3-1.4,1.2-2.1,2.8-2.2L8,57.3z"/>
		<path class="st1" d="M12.6,49.5c3.3,1.1,4.5,2.5,3.9,4.6c-0.6,2-2.6,2.4-5.9,1.4c-3.3-1.1-4.5-2.5-3.9-4.6
			C7.3,48.8,9.2,48.4,12.6,49.5z M11.3,53.4c2.5,0.8,3.2,0.8,3.5,0.1c0.2-0.8-0.3-1.1-3-2c-2.4-0.8-3.1-0.8-3.4-0.1
			C8.1,52.1,8.7,52.5,11.3,53.4z"/>
		<path class="st1" d="M9.2,44.5l5.8,2.6c1.4,0.6,1.9,0.6,2.2-0.2c0.1-0.3,0.1-0.6-0.1-0.8c-0.2-0.2-0.5-0.5-1.4-0.8l-5.7-2.6
			l0.7-1.6l5.7,2.6c1.6,0.7,2.3,1.3,2.6,2.1c0.2,0.6,0.1,1.3-0.3,2.1c-0.9,1.9-2.1,2.2-4.6,1.1l-5.9-2.7L9.2,44.5z"/>
		<path class="st1" d="M21.7,42.1l-1,1.8l-7-4l-0.8,1.4l-1.6-0.9l2.7-4.7l1.6,0.9L14.7,38L21.7,42.1z"/>
		<path class="st1" d="M19.7,34.2l-3.2-2.3l1.2-1.7l8.2,5.8l-1.2,1.7l-3.5-2.5l-0.9,1.2l3.5,2.5l-1.2,1.7l-8.2-5.8l1.2-1.7l3.2,2.3
			L19.7,34.2z"/>
		<path class="st1" d="M27.1,25.5c-1.2-1.1-1.8-1.3-2.4-0.8c-0.6,0.6-0.2,1.4,1.7,3.3c1.8,1.7,2.4,2.1,3,1.5
			c0.5-0.5,0.4-1.1-0.6-2.2l1.3-1.1c0.7,0.8,1.1,1.4,1.2,2.1c0.3,1,0,1.8-0.8,2.6c-1.5,1.5-3.5,1.1-5.9-1.3c-2.4-2.4-2.9-4.5-1.4-6
			c0.9-0.9,1.9-1.1,2.9-0.7c0.6,0.2,1.1,0.6,1.9,1.3L27.1,25.5z"/>
		<path class="st1" d="M30.9,22.4l1.9-1.5l1.1,1.3l-1.9,1.5l1.6,1.9l2.4-2l1.1,1.4l-4,3.3l-6.4-7.7l4-3.3l1.1,1.4l-2.4,2L30.9,22.4z
			"/>
		<path class="st1" d="M32.1,16.2l1.7-1.1l3.9,2.9c0.3,0.3,0.7,0.6,1.5,1.4c-0.5-0.7-1.4-1.9-1.8-2.5L35.4,14l1.4-0.9l5.5,8.4
			l-1.4,0.9l-4.4-3.2c-0.5-0.3-0.9-0.8-1.6-1.4c0.6,0.8,1.5,2.1,1.8,2.4l2.3,3.5l-1.4,0.9L32.1,16.2z"/>
		<path class="st1" d="M45.6,19.8l-1.8,1L40,13.6l-1.4,0.8l-0.9-1.7l4.8-2.5l0.9,1.7l-1.5,0.8L45.6,19.8z"/>
		<path class="st1" d="M43.3,9.7l2.4-1c1.2-0.5,1.7-0.6,2.4-0.3c0.7,0.3,1.3,0.9,1.7,1.8c0.5,1.2,0.5,2.1-0.2,3l3.1,3.4l-2,0.8
			l-2.6-3.2l-0.6,0.2l1.5,3.6L47.1,19L43.3,9.7z M47.4,12.8c0.7-0.3,0.8-0.9,0.5-1.8c-0.4-0.9-0.9-1.2-1.6-0.9l-0.5,0.2l1.1,2.6
			L47.4,12.8z"/>
		<path class="st1" d="M54,5.9l5,9l-2,0.6l-1-2L54.1,14l0.2,2.2l-1.8,0.5L51.9,6.5L54,5.9z M54,9.6C53.7,9,53.6,8.7,53.3,8
			c0.1,0.7,0.2,1.1,0.2,1.6l0.2,2.8l1.5-0.4L54,9.6z"/>
		<path class="st1" d="M57.2,5.1l2-0.4l1.5,8l2.5-0.5l0.3,1.8L59,14.9L57.2,5.1z"/>
		<path class="st1" d="M66.7,3.6l2.6-0.1c1.3-0.1,1.8,0.1,2.3,0.6c0.6,0.6,0.9,1.3,0.9,2.3c0.1,1.3-0.3,2.1-1.2,2.7l1.7,4.3
			l-2.2,0.1l-1.3-3.9l-0.6,0l0.1,3.9l-2,0.1L66.7,3.6z M69.5,8c0.7,0,1.1-0.5,1.1-1.5c0-0.9-0.4-1.4-1.2-1.4l-0.6,0L68.9,8L69.5,8z"
			/>
		<path class="st1" d="M75.9,7.7l2.4,0.2l-0.1,1.7l-2.4-0.2l-0.2,2.5l3.2,0.2l-0.1,1.8l-5.2-0.3l0.6-10l5.2,0.3l-0.1,1.8L76,5.4
			L75.9,7.7z"/>
		<path class="st1" d="M84.8,14.8l-0.9-0.1l0-1.2c-0.6,0.9-1.2,1.2-2.2,1c-2-0.3-2.7-2.2-2.2-5.5c0.6-3.4,2-5,4.1-4.7
			c1.7,0.3,2.5,1.6,2.3,3.8l-1.7,0c0-1.6-0.1-2-0.9-2.1c-0.9-0.1-1.3,0.6-1.7,3.3c-0.4,2.3-0.2,3.2,0.6,3.3c0.8,0.1,1.2-0.4,1.4-1.8
			l-1.2-0.2l0.3-1.6l3,0.5L84.8,14.8z"/>
		<path class="st1" d="M88.1,5.4l2,0.5l-2.5,9.7l-2-0.5L88.1,5.4z"/>
		<path class="st1" d="M95.9,13.1c-1.1,3.3-2.6,4.5-4.6,3.7c-2-0.7-2.4-2.6-1.2-5.9c1.2-3.3,2.6-4.5,4.7-3.8
			C96.7,7.9,97.1,9.8,95.9,13.1z M92.1,11.7c-0.9,2.5-0.9,3.2-0.2,3.5c0.8,0.3,1.1-0.2,2-3c0.8-2.4,0.9-3.1,0.2-3.4
			C93.4,8.6,92.9,9.2,92.1,11.7z"/>
		<path class="st1" d="M99.2,9l1.8,0.9l-0.5,4.8c-0.1,0.4-0.2,0.9-0.4,2c0.3-0.8,0.9-2.2,1.2-2.8l1.5-3.2l1.5,0.7l-4.3,9l-1.5-0.7
			l0.5-5.4c0.1-0.6,0.2-1.2,0.4-2.1c-0.3,0.9-1,2.4-1.1,2.7l-1.8,3.8l-1.5-0.7L99.2,9z"/>
		<path class="st1" d="M109.1,14.4l-3.4,9.7L104,23l0.8-2l-1.7-1l-1.5,1.6l-1.6-1l7.2-7.3L109.1,14.4z M106.4,16.9
			c0.2-0.6,0.3-0.9,0.7-1.5c-0.4,0.5-0.7,0.9-1,1.2l-1.9,2.1l1.3,0.8L106.4,16.9z"/>
		<path class="st1" d="M111.9,16.3l1.6,1.2l-4.9,6.5l2,1.5l-1.1,1.5l-3.7-2.8L111.9,16.3z"/>
		<path class="st1" d="M119.3,22.4l1.4,1.5l-5.8,5.8l1.8,1.8l-1.3,1.3l-3.2-3.3L119.3,22.4z"/>
		<path class="st1" d="M123.4,26.7l1.3,1.6l-7.6,6.5l-1.3-1.6L123.4,26.7z"/>
		<path class="st1" d="M125.8,29.5l1.6,2.2c0.8,1.2,1,1.4,0.9,2c0,0.7-0.5,1.4-1.2,2c-1,0.7-1.7,0.8-2.5,0.3
			c0.1,0.5,0.2,0.8,0.1,1.2c-0.2,0.6-0.6,1.1-1.2,1.5c-0.7,0.5-1.5,0.7-2.2,0.6c-0.6-0.1-1.1-0.5-1.8-1.5l-1.8-2.5L125.8,29.5z
			 M120.7,36.7c0.5,0.7,1,0.8,1.8,0.2c0.4-0.3,0.7-0.7,0.7-1c0-0.2-0.1-0.4-0.4-0.8l-0.4-0.6l-2.2,1.6L120.7,36.7z M124.1,34.1
			c0.5,0.6,0.9,0.7,1.6,0.2c0.7-0.5,0.8-1.1,0.4-1.7l-0.4-0.6l-2,1.4L124.1,34.1z"/>
		<path class="st1" d="M130.1,35.5l1.3,2.2c0.7,1.2,0.8,1.7,0.6,2.3c-0.2,0.8-0.8,1.4-1.6,1.9c-1.2,0.7-2,0.7-3,0.2l-3,3.5l-1.1-1.9
			l2.8-3l-0.3-0.5l-3.4,2l-1-1.7L130.1,35.5z M127.5,40c0.4,0.6,1,0.7,1.8,0.2c0.8-0.5,1-1,0.7-1.7l-0.3-0.5l-2.5,1.4L127.5,40z"/>
		<path class="st1" d="M135.2,45.6l-8.3,6.1l-0.8-1.9l1.8-1.2l-0.8-1.8l-2.1,0.5l-0.7-1.7l10.1-1.9L135.2,45.6z M131.6,46.1
			c0.5-0.4,0.8-0.5,1.5-0.9c-0.6,0.2-1.1,0.3-1.6,0.4l-2.7,0.6l0.6,1.4L131.6,46.1z"/>
		<path class="st1" d="M136.5,48.7l0.8,2.5c0.4,1.3,0.4,1.8,0.1,2.4c-0.4,0.7-1,1.2-2,1.5c-1.3,0.4-2.1,0.3-3-0.4l-3.7,2.8l-0.7-2.1
			l3.4-2.3l-0.2-0.6l-3.7,1.2l-0.6-1.9L136.5,48.7z M133.1,52.5c0.2,0.7,0.8,0.9,1.7,0.6c0.9-0.3,1.2-0.8,1-1.5l-0.2-0.5l-2.7,0.9
			L133.1,52.5z"/>
		<path class="st1" d="M133.1,58l5.4-3.2l0.4,2.1l-2.9,1.5c-0.4,0.2-0.8,0.3-1.5,0.5c0.7-0.1,1.1-0.1,1.6-0.1l3.3,0.3l0.4,1.8
			l-6.2-1l-4,0.8l-0.4-2L133.1,58z"/>
	</g>
</g>
</svg>
