<?xml version="1.0" encoding="utf-8"?>
<!-- Generator: Adobe Illustrator 27.1.0, SVG Export Plug-In . SVG Version: 6.00 Build 0)  -->
<svg version="1.1" id="Layer_1" xmlns="http://www.w3.org/2000/svg" xmlns:xlink="http://www.w3.org/1999/xlink" x="0px" y="0px"
	 viewBox="0 0 600 600" style="enable-background:new 0 0 600 600;" xml:space="preserve">
<style type="text/css">
	.st0{clip-path:url(#SVGID_00000042736986140168087720000012240738263509307781_);}
</style>
<rect width="600" height="600"/>
<g>
	<defs>
		<circle id="SVGID_1_" cx="300.3" cy="300.1" r="175"/>
	</defs>
	<use xlink:href="#SVGID_1_"  style="overflow:visible;fill:#FFFFFF;"/>
	<clipPath id="SVGID_00000163769640230799931490000012124956654105100700_">
		<use xlink:href="#SVGID_1_"  style="overflow:visible;"/>
	</clipPath>
	<g style="clip-path:url(#SVGID_00000163769640230799931490000012124956654105100700_);">
		<g>
			<g>
				<rect x="252.4" y="230.2" width="98.8" height="24.7"/>
				<path d="M351.2,259.9h-98.8c-2.8,0-5-2.2-5-5v-24.7c0-2.8,2.2-5,5-5h98.8c2.8,0,5,2.2,5,5v24.7
					C356.2,257.7,354,259.9,351.2,259.9z M257.4,249.9h88.8v-14.7h-88.8V249.9z"/>
			</g>
			<g>
				<polygon points="252.4,180.9 301.8,147.9 351.2,180.9 				"/>
				<path d="M351.2,185.9h-98.8c-2.2,0-4.1-1.4-4.8-3.6c-0.6-2.1,0.2-4.4,2-5.6l49.4-32.9c1.7-1.1,3.9-1.1,5.5,0l49.4,32.9
					c1.8,1.2,2.7,3.5,2,5.6C355.3,184.4,353.4,185.9,351.2,185.9z M268.9,175.9h65.7l-32.9-21.9L268.9,175.9z"/>
			</g>
			<g>
				<defs>
					<path id="SVGID_00000165216206502976320290000013631964295089519025_" d="M351.2,305.1h-98.8c-1.5,0-2.9-0.7-3.9-1.9
						c-0.9-1.2-1.3-2.7-1-4.2l9.9-45.2c0.5-2.3,2.5-3.9,4.9-3.9h79c2.3,0,4.4,1.6,4.9,3.9l9.9,45.2c0.3,1.5,0,3-1,4.2
						C354.1,304.4,352.7,305.1,351.2,305.1z M258.6,295.1H345l-7.7-35.2h-71L258.6,295.1z"/>
				</defs>
				<use xlink:href="#SVGID_00000165216206502976320290000013631964295089519025_"  style="overflow:visible;"/>
				<clipPath id="SVGID_00000001624877728762611600000015492949991595317891_">
					<use xlink:href="#SVGID_00000165216206502976320290000013631964295089519025_"  style="overflow:visible;"/>
				</clipPath>
			</g>
			<g>
				<rect x="296.8" y="180.9" width="10" height="49.4"/>
			</g>
			<g>
				<path d="M547.3,245.1c-0.1,0-0.2,0-0.2,0l-205.9-9.9c-2.7-0.1-4.8-2.3-4.8-5v-49.4c0-2.7,2.1-4.9,4.8-5L547,166
					c1.4-0.1,2.7,0.4,3.7,1.4c1,0.9,1.5,2.3,1.5,3.6v69.1c0,1.4-0.6,2.7-1.5,3.6C549.8,244.6,548.5,245.1,547.3,245.1z M346.3,225.5
					l195.9,9.4v-58.6l-195.9,9.4V225.5z"/>
			</g>
			<g>
				<path d="M53.3,245.1c-1.3,0-2.5-0.5-3.5-1.4c-1-0.9-1.5-2.3-1.5-3.6V171c0-1.4,0.6-2.7,1.5-3.6c1-0.9,2.3-1.4,3.7-1.4l209,9.9
					c2.7,0.1,4.8,2.3,4.8,5v49.4c0,2.7-2.1,4.9-4.8,5l-209,9.9C53.5,245.1,53.4,245.1,53.3,245.1z M58.3,176.2v58.7l199-9.4v-39.8
					L58.3,176.2z"/>
			</g>
			<g>
				<path d="M547.3,210.5H341.3c-2.8,0-5-2.2-5-5s2.2-5,5-5h205.9c2.8,0,5,2.2,5,5S550,210.5,547.3,210.5z"/>
			</g>
			<g>
				<path d="M260.8,210.5H54.8c-2.8,0-5-2.2-5-5s2.2-5,5-5h205.9c2.8,0,5,2.2,5,5S263.5,210.5,260.8,210.5z"/>
			</g>
			<g>
				<path d="M341.3,235.2h-79c-2.8,0-5-2.2-5-5v-49.4c0-2.8,2.2-5,5-5h79c2.8,0,5,2.2,5,5v49.4C346.3,233,344.1,235.2,341.3,235.2z
					 M267.3,225.2h69v-39.4h-69V225.2z"/>
			</g>
		</g>
		<g>
			<path d="M490.5,305.1H110.1c-2.8,0-5-2.2-5-5c0-2.8,2.2-5,5-5h380.4c2.8,0,5,2.2,5,5C495.5,302.9,493.3,305.1,490.5,305.1z"/>
		</g>
		<g>
			<path d="M300.3,356c-30.8,0-55.9-25.1-55.9-55.9h10c0,25.3,20.6,45.9,45.9,45.9c25.3,0,45.9-20.6,45.9-45.9h10
				C356.2,330.9,331.1,356,300.3,356z"/>
		</g>
		<g>
			<path d="M300.3,457.3c-86.7,0-157.2-70.5-157.2-157.2h10c0,81.2,66,147.2,147.2,147.2c81.2,0,147.2-66,147.2-147.2h10
				C457.5,386.8,386.9,457.3,300.3,457.3z"/>
		</g>
		<g>
			<path d="M300.3,389.8c-49.4,0-89.7-40.2-89.7-89.7h10c0,43.9,35.7,79.7,79.7,79.7c43.9,0,79.7-35.7,79.7-79.7h10
				C389.9,349.5,349.7,389.8,300.3,389.8z"/>
		</g>
		<g>
			<path d="M300.3,423.5c-68.1,0-123.4-55.4-123.4-123.4h10c0,62.5,50.9,113.4,113.4,113.4c62.5,0,113.4-50.9,113.4-113.4h10
				C423.7,368.2,368.3,423.5,300.3,423.5z"/>
		</g>
		<g>
			<path d="M317.4,300.1c0,9.5-7.7,17.2-17.2,17.2c-9.5,0-17.2-7.7-17.2-17.2"/>
			<path d="M300.3,322.3c-12.2,0-22.2-9.9-22.2-22.2h10c0,6.7,5.5,12.2,12.2,12.2c6.7,0,12.2-5.5,12.2-12.2h10
				C322.4,312.3,312.5,322.3,300.3,322.3z"/>
		</g>
	</g>
</g>
</svg>
