<svg id="Layer_1" data-name="Layer 1" xmlns="http://www.w3.org/2000/svg" viewBox="0 0 750 500"><defs><style>.cls-1{fill:#3f515d;}</style></defs><title>misc-logoArtboard 1</title><path class="cls-1" d="M149.37,330.55V185.24H125V168.06h67.32v17.18H167.94V330.55Z"/><path class="cls-1" d="M252.21,238.86v-70.8h18.57V330.55H252.21V256.27H222v74.28H203.46V168.06H222v70.8Z"/><path class="cls-1" d="M339.49,168.06v17.18H307v53.85h31.34V256H307v57.34h33v17.18H288.42V168.06Z"/><path class="cls-1" d="M546.77,301.76c0,20.2-10,30.18-30.18,30.18h-5.8c-20.19,0-30.18-10-30.18-30.18V168.06h18.57V302.69c0,8.36,3.95,12.3,12.3,12.3h4.41c8.36,0,12.3-3.95,12.3-12.3V168.06h18.57Z"/><path class="cls-1" d="M582.06,330.55V185.24H557.68V168.06H625v17.18H600.63V330.55Z"/><polygon class="cls-1" points="401.69 191.92 401.69 168.06 383.13 168.06 383.13 238.77 401.69 220.2 401.69 191.92"/><polygon class="cls-1" points="450.44 168.06 431.87 168.06 431.87 191.92 431.87 220.19 450.44 238.76 450.44 168.06"/><polygon class="cls-1" points="471.11 271.92 464.41 265.21 464.41 265.21 416.81 217.61 416.79 217.63 416.76 217.61 410.05 224.31 362.45 271.92 374.76 284.23 381.47 277.52 383.13 275.87 383.13 330.55 401.69 330.55 401.69 303.21 401.69 257.3 416.78 242.21 431.87 257.3 431.87 303.21 431.87 330.55 450.44 330.55 450.44 275.87 458.8 284.23 471.11 271.92"/></svg>