<svg id="Layer_1" data-name="Layer 1" xmlns="http://www.w3.org/2000/svg" viewBox="0 0 750 500"><defs><style>.cls-1{fill:#3f515d;}</style></defs><title>misc-logoArtboard 4</title><path class="cls-1" d="M420.45,375H329.55a11.36,11.36,0,0,1,0-22.73h90.91a11.36,11.36,0,0,1,0,22.73Z"/><path class="cls-1" d="M352.27,329.55H284.09a11.36,11.36,0,1,1,0-22.73h68.18a11.36,11.36,0,0,1,0,22.73Z"/><path class="cls-1" d="M465.91,329.55H397.73a11.36,11.36,0,0,1,0-22.73h68.18a11.36,11.36,0,1,1,0,22.73Z"/><path class="cls-1" d="M375,284.09H284.09a11.36,11.36,0,1,1,0-22.73H375a11.36,11.36,0,1,1,0,22.73Z"/><path class="cls-1" d="M465.91,284.09H420.45a11.36,11.36,0,1,1,0-22.73h45.45a11.36,11.36,0,1,1,0,22.73Z"/><path class="cls-1" d="M465.91,238.64H375a11.36,11.36,0,1,1,0-22.73h90.91a11.36,11.36,0,1,1,0,22.73Z"/><path class="cls-1" d="M420.45,193.18H329.55a11.36,11.36,0,0,1,0-22.73h90.91a11.36,11.36,0,0,1,0,22.73Z"/><path class="cls-1" d="M397.73,147.73H352.27a11.36,11.36,0,1,1,0-22.73h45.45a11.36,11.36,0,1,1,0,22.73Z"/><path class="cls-1" d="M329.55,238.64H284.09a11.36,11.36,0,1,1,0-22.73h45.45a11.36,11.36,0,1,1,0,22.73Z"/></svg>