<svg id="Layer_1" data-name="Layer 1" xmlns="http://www.w3.org/2000/svg" viewBox="0 0 750 500"><defs><style>.cls-1{fill:#3f515d;}</style></defs><title>misc-logoArtboard 5</title><path class="cls-1" d="M369.81,215.65H403l3.76-19.5H328l-3.75,19.5h12.45l-19.2,47.55a85.93,85.93,0,0,0-3.45,11.25h-.6a84.38,84.38,0,0,0,.3-11.25l-3.45-67h-20.7l-29.55,67a75.08,75.08,0,0,0-3.9,11.25h-.6a106.69,106.69,0,0,0,.75-11.25l-.6-47.55H268.2l3.75-19.5h-46.8l-3.75,19.5h9l4.2,87.75h29.55l24.3-54.9a91.54,91.54,0,0,0,4.2-11.85h.6a74.11,74.11,0,0,0-.6,11.85l3,54.9H325.2l38.4-87.75Z"/><path class="cls-1" d="M523,226.15H497.16l-9.81,50.25a50.61,50.61,0,0,0-1.2,9.6c0,16.8,12.3,17.85,24.15,17.85a70.36,70.36,0,0,0,7.8-.45l3.6-18.75s-1.65.15-2.85.15c-4.2,0-5.85-2-5.85-5.4a27.9,27.9,0,0,1,.6-5Z"/><polygon class="cls-1" points="500.25 196.15 490.74 196.15 420.3 196.15 416.55 215.65 428.55 215.65 415.2 283.9 403.35 283.9 399.6 303.4 451.8 303.4 455.55 283.9 442.05 283.9 446.1 262.9 477.6 262.9 481.8 241.9 450.3 241.9 454.8 218.65 455.38 215.65 456.44 215.65 486.15 215.65 491.61 215.65 496.46 215.65 524.84 215.65 528.6 196.15 500.25 196.15"/><path class="cls-1" d="M396.88,284.8c-4.2,0-5.85-2-5.85-5.4a27.9,27.9,0,0,1,.6-5l9.45-48.3H369.41l-8.2,18.75h10.33l-6.15,31.5a50.54,50.54,0,0,0-1.2,9.6c0,16.8,12.3,17.85,24.15,17.85a70.37,70.37,0,0,0,7.8-.45l3.6-18.75S398.08,284.8,396.88,284.8Z"/></svg>