<svg id="Layer_1" data-name="Layer 1" xmlns="http://www.w3.org/2000/svg" viewBox="0 0 750 500"><defs><style>.cls-1{fill:#000;@media (prefers-color-scheme: dark) { filter: invert(100%) saturate(0%) ;}}</style></defs><title>misc-logoArtboard 3</title><path class="cls-1" d="M498.74,204.93c0-4.58-2.92-8.1-8.32-8.1h-2.62V213.7C495.29,213.7,498.74,211.38,498.74,204.93Z"/><polygon class="cls-1" points="314.93 267.52 310.88 305.25 319.08 305.25 315.08 267.52 314.93 267.52"/><path class="cls-1" d="M208.3,183.69V316.31l147.28,58.58V255.07h8.25l11.1,36.83h.15l11.1-36.83h8.25V374.89L541.7,316.31V183.69L375,117.39Zm51,115.93c0,6-2.85,11.78-10.88,11.78-4.65,0-7.87-1.8-10-5l5.17-5.25c1,2.18,2.62,3.68,4.27,3.68,2.47,0,3.83-2,3.83-4.5v-45.3h7.65Zm9.93-102.42h-9.75v48.3h-7.65V197.2h-9.75v-6.9h27.15Zm53.91,146.56-3.43-32.36h-9.52l-3.48,32.36h-7.27l11.64-88.68h7.65l12.44,88.68Zm-3.81-141.62V245.5H311.7V202.14l-12.24-47.77h8l8.11,37.87h.15l7.79-37.87h7.65Zm175,109.26c-7.5,0-12.45-4.65-13.35-13.2l7.27-2.33c.45,5.1,2.32,9,6.15,9,2.78,0,5.55-2.33,5.55-6.75,0-3-1.27-6.37-5.4-10.5l-6-5.93c-5-4.95-6.82-9.23-6.82-14.63,0-8.17,5.92-13.12,12.3-13.12,7.57,0,12.38,4.58,12.6,12.08l-6.9,2.48c-.3-4.13-1.65-7.65-5.55-7.65-3,0-4.8,2.7-4.8,5.77,0,2.78,1.2,5.93,5.17,9.83l6.23,6.07c5.25,5.1,6.82,9.3,6.82,15.08C507.63,305.17,503.06,311.4,494.36,311.4ZM480.14,190.3h12.38c8.33,0,14.25,5.93,14.25,15.15,0,5.63-3.15,11.93-9.45,13.65l11.17,26.4h-8.77l-10.13-25.28h-1.8V245.5h-7.65Zm-55.53-35.93h20.1v6.53H432.26v35.78h12.45v6.53H432.26V239h12.45v6.53h-20.1Zm0,100.7h20.1v6.53H432.26v34.55h12.45v6.53H432.26v35.17h12.45v6.53h-20.1Zm-37.68-9.57H367V133.8l7.65-3V238.6h12.3Z"/><path class="cls-1" d="M375,96.59,187.5,173.3V326.7L375,403.41l187.5-76.7V173.3ZM549.2,320.06,387.15,385.23V273.52H387l-9.07,31.35h-5.85L363,273.52h-.15v111.7L200.8,320.06V179.94L375,109.89l174.2,70.06Z"/></svg>