<svg id="Layer_1" data-name="Layer 1" xmlns="http://www.w3.org/2000/svg" viewBox="0 0 750 500"><defs><style>.cls-1{fill:#3f515d;}</style></defs><title>misc-logoArtboard 2</title><path class="cls-1" d="M375,125A125,125,0,1,0,500,250,125,125,0,0,0,375,125ZM356.1,350V260l18.9-18.9L393.9,260v90a101.19,101.19,0,0,1-37.79,0Zm61-7.37V283.27l10.47,10.47L443,278.32l-8.4-8.4h0L375,210.31l0,0,0,0-8.4,8.4L307,278.32l15.42,15.42,8.4-8.4,2.07-2.07V342.6a101.74,101.74,0,0,1,0-185.2v72.14l23.26-23.26V150a101.19,101.19,0,0,1,37.79,0v56.24l23.26,23.26V157.4a101.74,101.74,0,0,1,0,185.2Z"/></svg>