<svg id="Layer_1" data-name="Layer 1" xmlns="http://www.w3.org/2000/svg" viewBox="0 0 1200 750"><defs><style>.cls-1{fill:#3f515d;}.cls-2{fill:#fff;}</style></defs><title>misc-logoArtboard 4 copy</title><rect class="cls-1" width="1200" height="750"/><path class="cls-2" d="M645.45,500H554.55a11.36,11.36,0,0,1,0-22.73h90.91a11.36,11.36,0,0,1,0,22.73Z"/><path class="cls-2" d="M577.27,454.55H509.09a11.36,11.36,0,1,1,0-22.73h68.18a11.36,11.36,0,0,1,0,22.73Z"/><path class="cls-2" d="M690.91,454.55H622.73a11.36,11.36,0,0,1,0-22.73h68.18a11.36,11.36,0,1,1,0,22.73Z"/><path class="cls-2" d="M600,409.09H509.09a11.36,11.36,0,1,1,0-22.73H600a11.36,11.36,0,1,1,0,22.73Z"/><path class="cls-2" d="M690.91,409.09H645.45a11.36,11.36,0,1,1,0-22.73h45.45a11.36,11.36,0,1,1,0,22.73Z"/><path class="cls-2" d="M690.91,363.64H600a11.36,11.36,0,1,1,0-22.73h90.91a11.36,11.36,0,1,1,0,22.73Z"/><path class="cls-2" d="M645.45,318.18H554.55a11.36,11.36,0,0,1,0-22.73h90.91a11.36,11.36,0,0,1,0,22.73Z"/><path class="cls-2" d="M622.73,272.73H577.27a11.36,11.36,0,1,1,0-22.73h45.45a11.36,11.36,0,1,1,0,22.73Z"/><path class="cls-2" d="M554.55,363.64H509.09a11.36,11.36,0,1,1,0-22.73h45.45a11.36,11.36,0,1,1,0,22.73Z"/></svg>