<?xml version="1.0" encoding="utf-8"?>
<!-- Generator: Adobe Illustrator 27.1.0, SVG Export Plug-In . SVG Version: 6.00 Build 0)  -->
<svg version="1.1" id="Layer_1" xmlns="http://www.w3.org/2000/svg" xmlns:xlink="http://www.w3.org/1999/xlink" x="0px" y="0px"
	 viewBox="0 0 800 600" style="enable-background:new 0 0 800 600;" xml:space="preserve">
<style type="text/css">
	.st0{fill:#EC4731;}
</style>
<path class="st0" d="M531.9,209.2l-15-21.7l-15,21.7c-2.2,3.2-8.4,12.3-16.7,25.1c-29.9-54.1-63.4-103.1-69.9-112.5l-15-21.7
	l-15,21.7c-6.5,9.4-40,58.5-69.9,112.5c-8.2-12.8-14.5-21.9-16.7-25.1l-15-21.7l-15,21.7c-9.3,13.4-90.7,132.8-90.7,185.2
	c0,58.3,47.4,105.6,105.6,105.6s105.6-47.4,105.6-105.6c0-25.8-19.8-67.9-40.9-105.6c-7.7,15.2-14.2,29.2-19,41.5
	c13.7,26.6,23.5,50.6,23.5,64.1c0,17.3-6.4,33.1-16.9,45.2c-20.9-18-34.1-44.7-34.1-74.4c0-41.7,61.4-144.2,98.4-200.5
	c18.4,28,42.8,67.5,62.7,105.2c-24.7,41.6-51.8,94.1-51.8,124.4c0,23.9,8,46,21.5,63.7c-10.1,3.5-21,5.5-32.4,5.5
	c-4.5,0-9-0.3-13.3-0.9c-7.8,11.8-17.5,22.1-28.8,30.6c13.3,4.4,27.4,6.8,42.1,6.8c74.3,0,134.8-60.5,134.8-134.8
	c0-19.2-8.6-45.6-21.2-73.9c-8.8,14.5-16.4,28-22.8,40.1c4.7,13.3,7.5,25,7.5,33.8c0,29.7-13.2,56.3-34.1,74.4
	c-10.5-12.1-16.9-27.9-16.9-45.2c0-26.6,37.9-93.7,69.2-142.1c31.3,48.4,69.2,115.5,69.2,142.1c0,38-30.8,68.9-68.7,69.2
	c-10,11.9-21.8,22.2-35,30.6c10.8,3.7,22.4,5.8,34.5,5.8c58.3,0,105.6-47.4,105.6-105.6C622.5,342,541.1,222.6,531.9,209.2z
	 M304.9,460.3c-6.7,2.1-13.8,3.3-21.1,3.3c-38.2,0-69.2-31.1-69.2-69.2c0-26.6,37.9-93.7,69.2-142.1c4,6.1,8.1,12.6,12.2,19.3
	c-17.4,35.6-30.4,70-30.4,93.7C265.5,402.3,280.6,435.9,304.9,460.3z"/>
</svg>
