<?xml version="1.0" encoding="utf-8"?>
<!-- Generator: Adobe Illustrator 27.1.0, SVG Export Plug-In . SVG Version: 6.00 Build 0)  -->
<svg version="1.1" id="Layer_1" xmlns="http://www.w3.org/2000/svg" xmlns:xlink="http://www.w3.org/1999/xlink" x="0px" y="0px"
	 viewBox="0 0 1080 1080" style="enable-background:new 0 0 1080 1080;" xml:space="preserve">
<style type="text/css">
	.st0{fill:#C3DFF0;}
	.st1{fill:#F0C907;}
	.st2{fill:#FFFFFF;}
	.st3{opacity:0.5;fill:url(#SVGID_1_);}
	.st4{fill:#089BD7;}
	.st5{opacity:0.5;fill:url(#SVGID_00000058582722866295358950000007289641988760746122_);}
	.st6{opacity:0.5;fill:url(#SVGID_00000124163160041710850490000016864147521782290345_);}
	.st7{fill:url(#SVGID_00000055674996711620331200000016344231434012572835_);}
	.st8{opacity:0.5;fill:url(#SVGID_00000020364386308912212290000008929154828648368800_);}
	.st9{fill:none;stroke:#FFFFFF;stroke-width:2;stroke-miterlimit:10;}
	.st10{opacity:0.25;fill:url(#SVGID_00000062169128737863408620000009751799464619055505_);}
</style>
<g>
	<rect class="st0" width="1080" height="1080"/>
	<g>
		<g>
			<g>
				
					<image style="overflow:visible;opacity:0.25;" width="1751" height="1751" xlink:href="546085A386523BCA.png"  transform="matrix(0.24 0 0 0.24 92.88 207.6)">
				</image>
				<g>
					<circle class="st1" cx="300" cy="414.8" r="180"/>
				</g>
			</g>
			<g>
				<g>
					<g>
						<g>
							<path class="st2" d="M300,318.8c25.6,0,49.8,10,67.9,28.1C386,365,396,389.1,396,414.8s-10,49.8-28.1,67.9
								c-18.1,18.1-42.2,28.1-67.9,28.1s-49.8-10-67.9-28.1C214,464.5,204,440.4,204,414.8s10-49.8,28.1-67.9
								C250.2,328.7,274.4,318.8,300,318.8 M300,294.8c-66.3,0-120,53.7-120,120s53.7,120,120,120s120-53.7,120-120
								S366.3,294.8,300,294.8L300,294.8z"/>
						</g>
						<path class="st2" d="M317,491.1l21.2-21.2l12.1,12.1c6.4-4.8,12.2-10.5,17-17l-12.1-12.1l21.2-21.2l4.8,4.8
							c1.9-6.9,2.9-14.2,2.9-21.8s-1-14.8-2.9-21.8l-4.8,4.8l-21.2-21.2l12.1-12.1c-4.8-6.4-10.5-12.2-17-17l-12.1,12.1L317,338.4
							l4.8-4.8c-6.9-1.9-14.2-2.9-21.8-2.9s-14.8,1-21.8,2.9l4.8,4.8l-21.2,21.2l-12.1-12.1c-6.4,4.8-12.2,10.5-17,17l12.1,12.1
							l-21.2,21.2l-4.8-4.8c-1.9,6.9-2.9,14.2-2.9,21.8s1,14.8,2.9,21.8l4.8-4.8l21.2,21.2l-12.1,12.1c4.8,6.4,10.5,12.2,17,17
							l12.1-12.1l21.2,21.2l-4.8,4.8c6.9,1.9,14.2,2.9,21.8,2.9s14.8-1,21.8-2.9L317,491.1z M359.4,414.8L338.2,436L317,414.8
							l21.2-21.2L359.4,414.8z M300,355.4l21.2,21.2L300,397.8l-21.2-21.2L300,355.4z M240.6,414.8l21.2-21.2l21.2,21.2L261.8,436
							L240.6,414.8z M278.8,452.9l21.2-21.2l21.2,21.2L300,474.1L278.8,452.9z"/>
					</g>
				</g>
			</g>
			<radialGradient id="SVGID_1_" cx="300" cy="414.75" r="180" gradientUnits="userSpaceOnUse">
				<stop  offset="0" style="stop-color:#FFFFFF;stop-opacity:0"/>
				<stop  offset="0.25" style="stop-color:#FFFFFF;stop-opacity:0"/>
				<stop  offset="1" style="stop-color:#000000;stop-opacity:0.15"/>
			</radialGradient>
			<circle class="st3" cx="300" cy="414.8" r="180"/>
		</g>
		<g>
			<g>
				
					<image style="overflow:visible;opacity:0.25;" width="1751" height="1751" xlink:href="546085A386523BCE.png"  transform="matrix(0.24 0 0 0.24 452.4 583.44)">
				</image>
				<g>
					<circle class="st4" cx="659.6" cy="790.5" r="180"/>
				</g>
			</g>
			
				<radialGradient id="SVGID_00000023988500889645247050000008413293741709939898_" cx="659.625" cy="790.5" r="180" gradientUnits="userSpaceOnUse">
				<stop  offset="0" style="stop-color:#FFFFFF;stop-opacity:0"/>
				<stop  offset="0.25" style="stop-color:#FFFFFF;stop-opacity:0"/>
				<stop  offset="1" style="stop-color:#000000;stop-opacity:0.15"/>
			</radialGradient>
			
				<circle style="opacity:0.5;fill:url(#SVGID_00000023988500889645247050000008413293741709939898_);" cx="659.6" cy="790.5" r="180"/>
			<g>
				<g>
					<g>
						<g>
							<path class="st1" d="M659.6,694.5c25.6,0,49.8,10,67.9,28.1c18.1,18.1,28.1,42.2,28.1,67.9s-10,49.8-28.1,67.9
								c-18.1,18.1-42.2,28.1-67.9,28.1s-49.8-10-67.9-28.1c-18.1-18.1-28.1-42.2-28.1-67.9s10-49.8,28.1-67.9
								C609.9,704.5,634,694.5,659.6,694.5 M659.6,670.5c-66.3,0-120,53.7-120,120s53.7,120,120,120s120-53.7,120-120
								S725.9,670.5,659.6,670.5L659.6,670.5z"/>
						</g>
						<path class="st1" d="M676.6,866.9l21.2-21.2l12.1,12.1c6.4-4.8,12.2-10.5,17-17l-12.1-12.1l21.2-21.2l4.8,4.8
							c1.9-6.9,2.9-14.2,2.9-21.8s-1-14.8-2.9-21.8l-4.8,4.8l-21.2-21.2l12.1-12.1c-4.8-6.4-10.5-12.2-17-17l-12.1,12.1l-21.2-21.2
							l4.8-4.8c-6.9-1.9-14.2-2.9-21.8-2.9s-14.8,1-21.8,2.9l4.8,4.8l-21.2,21.2l-12.1-12.1c-6.4,4.8-12.2,10.5-17,17l12.1,12.1
							l-21.2,21.2l-4.8-4.8c-1.9,6.9-2.9,14.2-2.9,21.8s1,14.8,2.9,21.8l4.8-4.8l21.2,21.2l-12.1,12.1c4.8,6.4,10.5,12.2,17,17
							l12.1-12.1l21.2,21.2l-4.8,4.8c6.9,1.9,14.2,2.9,21.8,2.9s14.8-1,21.8-2.9L676.6,866.9z M719,790.5l-21.2,21.2l-21.2-21.2
							l21.2-21.2L719,790.5z M659.6,731.1l21.2,21.2l-21.2,21.2l-21.2-21.2L659.6,731.1z M600.2,790.5l21.2-21.2l21.2,21.2
							l-21.2,21.2L600.2,790.5z M638.4,828.7l21.2-21.2l21.2,21.2l-21.2,21.2L638.4,828.7z"/>
					</g>
				</g>
			</g>
		</g>
		<g>
			<g>
				
					<image style="overflow:visible;opacity:0.25;" width="1751" height="1751" xlink:href="546085A386523BC9.png"  transform="matrix(0.24 0 0 0.24 212.64 458.16)">
				</image>
				<g>
					<circle class="st2" cx="419.9" cy="665.2" r="180"/>
				</g>
			</g>
			
				<radialGradient id="SVGID_00000176742000404569806700000006928681212898007480_" cx="419.875" cy="665.25" r="180" gradientUnits="userSpaceOnUse">
				<stop  offset="0" style="stop-color:#FFFFFF;stop-opacity:0"/>
				<stop  offset="0.25" style="stop-color:#FFFFFF;stop-opacity:0"/>
				<stop  offset="1" style="stop-color:#000000;stop-opacity:0.15"/>
			</radialGradient>
			
				<circle style="opacity:0.5;fill:url(#SVGID_00000176742000404569806700000006928681212898007480_);" cx="419.9" cy="665.2" r="180"/>
			
				<linearGradient id="SVGID_00000023257558807983053970000002790946242214665385_" gradientUnits="userSpaceOnUse" x1="335.0222" y1="750.1028" x2="504.7278" y2="580.3972">
				<stop  offset="0" style="stop-color:#F0B509;stop-opacity:0"/>
				<stop  offset="1" style="stop-color:#F0C907"/>
			</linearGradient>
			<circle style="fill:url(#SVGID_00000023257558807983053970000002790946242214665385_);" cx="419.9" cy="665.2" r="120"/>
		</g>
		<g>
			<g>
				
					<image style="overflow:visible;opacity:0.25;" width="1751" height="1751" xlink:href="546085A386523BCB.png"  transform="matrix(0.24 0 0 0.24 332.64 82.32)">
				</image>
				<g>
					<circle class="st4" cx="539.8" cy="289.5" r="180"/>
				</g>
			</g>
			<polygon class="st1" points="539.8,222 581.5,161.1 579.4,234.9 649,210.1 603.9,268.6 674.8,289.5 603.9,310.4 649,368.9 
				579.4,344.1 581.5,417.9 539.8,357 498,417.9 500.1,344.1 430.5,368.9 475.6,310.4 404.8,289.5 475.6,268.6 430.5,210.1 
				500.1,234.9 498,161.1 			"/>
			<g>
				<path class="st2" d="M413.2,268.6c13.8-2.9,28.2,2.5,28.7,19.3l0.2,6.9l-18.8,4l-0.1-6.6c0-6.6-3.8-8.2-7.2-7.5
					c-3.6,0.8-5.9,4-5,8.2c2.6,12,26.8,18.1,31.5,40.5c3.9,18.2-7.2,29.4-23.3,32.8c-15.8,3.4-28.5-4-29.3-20.9l-0.2-6.4l19-4
					l0.3,6.8c0.2,6.9,4,9.3,8.1,8.3c4.2-0.9,6.6-4.7,5.6-9.6c-2.8-13.1-26.9-20-31.4-40.7C387.8,282,398.2,271.8,413.2,268.6z"/>
				<path class="st2" d="M451.6,262.4l27.5-5.9c16-3.4,28,6.1,28.3,22.4l0.1,4.5c0.5,20.7-7,30.1-23.9,33.7l-11.6,2.5l0,33.5
					l-20.5,4.4L451.6,262.4z M472,275.5l0,26.6l7.3-1.5c5.8-1.2,8.9-5.1,8.9-14.2l0-2.5c0-8.5-2.9-11.2-8.9-9.9L472,275.5z"/>
				<path class="st2" d="M515.8,343.8l0.1-95.1l21.1-4.5l-0.1,95.1L515.8,343.8z"/>
				<path class="st2" d="M569.4,285.5l0.1,46.9l-20.9,4.4l0.1-95.1l20.7-4.4l0,44.9l13.3-47.7l22.8-4.8l-17.7,49.9l18.8,44.9
					l-22.7,4.8L569.4,285.5z"/>
				<path class="st2" d="M612.6,228.1l45.6-9.7l0,18.1l-24.9,5.3l-0.1,19.4l22.6-4.8l-0.1,18.1l-22.4,4.8l0,21.3l24.9-5.3l0,18.1
					l-45.7,9.7L612.6,228.1z"/>
				<path class="st2" d="M667.9,301.4c-1.3-6.1,2.2-11.5,8.6-12.8s11.7,2.2,13,8.3c1.3,6.1-2.2,11.7-8.5,13.1
					S669.2,307.5,667.9,301.4z M688.6,212l-1.9,63.8l-17.2,3.7l-2-63L688.6,212z"/>
			</g>
			
				<radialGradient id="SVGID_00000056396020405236730920000013282332016743283358_" cx="539.75" cy="289.5" r="180" gradientUnits="userSpaceOnUse">
				<stop  offset="0" style="stop-color:#FFFFFF;stop-opacity:0"/>
				<stop  offset="0.25" style="stop-color:#FFFFFF;stop-opacity:0"/>
				<stop  offset="1" style="stop-color:#000000;stop-opacity:0.15"/>
			</radialGradient>
			
				<circle style="opacity:0.5;fill:url(#SVGID_00000056396020405236730920000013282332016743283358_);" cx="539.8" cy="289.5" r="180"/>
		</g>
		<g>
			<g>
				
					<image style="overflow:visible;opacity:0.25;" width="1751" height="1751" xlink:href="546085A386523BC8.png"  transform="matrix(0.24 0 0 0.24 572.88 332.88)">
				</image>
				<g>
					<circle class="st1" cx="780" cy="540" r="180"/>
				</g>
			</g>
			<g>
				<g>
					<g>
						<path class="st9" d="M675.8,614.7c7.7-11.9,21.7-18.1,33.9-6.7l5,4.8l-10.5,16.1l-4.7-4.6c-4.7-4.7-8.5-3.1-10.4-0.2
							c-2,3.1-1.3,7,2.2,9.3c10.3,6.7,31.8-6.1,50.9,6.3c15.6,10.1,15.7,25.9,6.7,39.7c-8.8,13.5-22.9,17.3-35.5,5.9l-4.7-4.4
							l10.6-16.3l5,4.6c5,4.8,9.4,3.7,11.6,0.1c2.4-3.6,1.3-8-2.8-10.7c-11.2-7.3-33.2,4.9-51-6.6
							C667.3,642.1,667.4,627.6,675.8,614.7z"/>
						<path class="st9" d="M698.5,583.2l15.3-23.6c8.9-13.7,24.1-15.5,35.9-4.2l3.3,3.2c15,14.3,16.3,26.3,7,40.7l-6.5,10l23.7,23.7
							l-11.4,17.6L698.5,583.2z M722.2,578l18.8,18.9l4.1-6.2c3.2-5,2.7-9.9-3.7-16.3l-1.8-1.8c-6-6-9.9-5.9-13.3-0.7L722.2,578z"/>
						<path class="st9" d="M801.4,595.3l-67.2-67.3L746,510l67.2,67.3L801.4,595.3z"/>
						<path class="st9" d="M798.2,516.2l33.2,33.1l-11.6,17.9l-67.2-67.3l11.5-17.8l31.7,31.7l-24.3-43.1l12.7-19.6l22.8,47.8
							l45.1,18.5l-12.6,19.4L798.2,516.2z"/>
						<path class="st9" d="M788.1,445.1l25.4-39.1l12.8,12.8l-13.8,21.3l13.7,13.8l12.6-19.3l12.8,12.9l-12.5,19.2l15,15.1
							l13.8-21.3l12.8,12.8l-25.5,39.2L788.1,445.1z"/>
						<path class="st9" d="M879.1,457.8c-5.2-3.4-6.5-9.7-3-15.1c3.5-5.4,9.9-6.8,15.1-3.4c5.2,3.4,6.8,9.9,3.2,15.3
							C890.8,460,884.3,461.2,879.1,457.8z M830.4,380l43.8,46.5l-9.6,14.8l-45.9-43.1L830.4,380z"/>
					</g>
					<g>
						<path class="st9" d="M759.1,666.5c-2.9-13.8,2.5-28.2,19.3-28.7l6.9-0.2l4,18.8l-6.6,0.1c-6.6,0-8.2,3.8-7.5,7.2
							c0.8,3.6,4,5.9,8.2,5c12-2.6,18.1-26.8,40.5-31.5c18.2-3.9,29.4,7.2,32.8,23.3c3.4,15.8-4,28.5-20.9,29.3l-6.4,0.2l-4-19
							l6.8-0.3c6.9-0.2,9.3-4,8.3-8.1c-0.9-4.2-4.7-6.6-9.6-5.6c-13.1,2.8-20,26.9-40.7,31.4C772.5,691.9,762.3,681.6,759.1,666.5z"
							/>
						<path class="st9" d="M752.9,628.2l-5.9-27.5c-3.4-16,6.1-28,22.4-28.3l4.5-0.1c20.7-0.5,30.1,7,33.7,23.9l2.5,11.6l33.5,0
							l4.4,20.5L752.9,628.2z M766,607.8l26.6,0l-1.5-7.3c-1.2-5.8-5.1-8.9-14.2-8.9l-2.5,0c-8.5,0-11.2,2.9-9.9,8.9L766,607.8z"/>
						<path class="st9" d="M834.3,564l-95.1-0.1l-4.5-21.1l95.1,0.1L834.3,564z"/>
						<path class="st9" d="M776,510.3l46.9-0.1l4.4,20.9l-95.1-0.1l-4.4-20.7l44.9,0L725,496.9l-4.8-22.8l49.9,17.7L815,473
							l4.8,22.7L776,510.3z"/>
						<path class="st9" d="M718.6,467.1l-9.7-45.6l18.1,0l5.3,24.9l19.4,0.1l-4.8-22.6l18.1,0.1l4.8,22.4l21.3,0l-5.3-24.9l18.1,0
							l9.7,45.7L718.6,467.1z"/>
						<path class="st9" d="M791.9,411.9c-6.1,1.3-11.5-2.2-12.8-8.6c-1.3-6.3,2.2-11.7,8.3-13c6.1-1.3,11.7,2.2,13.1,8.5
							C801.8,405.1,798,410.6,791.9,411.9z M702.5,391.2l63.8,1.9l3.7,17.2l-63,2L702.5,391.2z"/>
					</g>
					<g>
						<path class="st9" d="M854.7,644.2c-11.9-7.7-18.1-21.7-6.7-33.9l4.8-5l16.1,10.5l-4.6,4.7c-4.7,4.7-3.1,8.5-0.2,10.4
							c3.1,2,7,1.3,9.3-2.2c6.7-10.3-6.1-31.8,6.3-50.9c10.1-15.6,25.9-15.7,39.7-6.7c13.5,8.8,17.3,22.9,5.9,35.5l-4.4,4.7
							l-16.3-10.6l4.6-5c4.8-5,3.7-9.4,0.1-11.6c-3.6-2.4-8-1.3-10.7,2.8c-7.3,11.2,4.9,33.2-6.6,51
							C882.1,652.7,867.6,652.6,854.7,644.2z"/>
						<path class="st9" d="M823.2,621.5l-23.6-15.3c-13.7-8.9-15.5-24.1-4.2-35.9l3.2-3.3c14.3-15,26.3-16.3,40.7-7l10,6.5
							l23.7-23.7l17.6,11.4L823.2,621.5z M818,597.8l18.9-18.8l-6.2-4.1c-5-3.2-9.9-2.7-16.3,3.7l-1.8,1.8c-6,6-5.9,9.9-0.7,13.3
							L818,597.8z"/>
						<path class="st9" d="M835.3,518.6l-67.3,67.2L750,574l67.3-67.2L835.3,518.6z"/>
						<path class="st9" d="M756.2,521.8l33.1-33.2l17.9,11.6l-67.3,67.2l-17.8-11.5l31.7-31.7l-43.1,24.3l-19.6-12.7l47.8-22.8
							l18.5-45.1l19.4,12.6L756.2,521.8z"/>
						<path class="st9" d="M685.1,531.9L646,506.5l12.8-12.8l21.3,13.8l13.8-13.7l-19.3-12.6l12.9-12.8l19.2,12.5l15.1-15
							l-21.3-13.8l12.8-12.8l39.2,25.5L685.1,531.9z"/>
						<path class="st9" d="M697.8,440.9c-3.4,5.2-9.7,6.5-15.1,3s-6.8-9.9-3.4-15.1c3.4-5.2,9.9-6.8,15.3-3.2
							S701.2,435.7,697.8,440.9z M620,489.6l46.5-43.8l14.8,9.6l-43.1,45.9L620,489.6z"/>
					</g>
				</g>
				<g>
					<g>
						<path class="st2" d="M652.3,619.5c-14.1,0-23.4-9-24.1-23.6l-0.3-8.1l23-4.9l0.4,9.1c0.1,2,0.6,6.6,4.4,6.6h0
							c0.4,0,0.8-0.1,1.3-0.2c3.3-0.7,4.9-3.5,4.1-7.2c-1.1-5.1-6.2-9.4-12-14.4c-7.8-6.6-16.7-14.1-19.3-26.4
							c-3.5-17.1,5.2-29.5,23.3-33.4c2.5-0.5,5-0.8,7.5-0.8c16.9,0,23.3,11.3,23.7,22l0.3,8.6l-22.8,4.8l-0.2-9
							c0-2.6-0.6-5.7-3.7-5.7c-0.3,0-0.7,0-1.1,0.1c-1.3,0.3-2.3,0.9-2.9,1.9c-0.7,1-0.8,2.4-0.5,3.9c0.9,4.4,5.6,8.2,11.1,12.6
							c7.8,6.4,17.6,14.3,20.5,27.8c1.9,9.1,0.4,17.3-4.5,23.6c-4.5,5.7-11.5,9.7-20.3,11.6C657.3,619.2,654.7,619.5,652.3,619.5z"
							/>
						<path class="st1" d="M660.5,518.4c11.3,0,21.2,6.1,21.7,20l0.2,6.9l-18.8,4l-0.1-6.6c0-5.6-2.8-7.6-5.7-7.6
							c-0.5,0-1,0.1-1.5,0.2c-3.6,0.8-5.9,4-5,8.2c2.6,12,26.8,18.1,31.5,40.5c3.9,18.2-7.2,29.4-23.3,32.8
							c-2.5,0.5-4.9,0.8-7.2,0.8c-12.3,0-21.4-7.4-22.1-21.7l-0.2-6.4l19-4l0.3,6.8c0.2,5.9,3,8.5,6.4,8.5c0.6,0,1.2-0.1,1.8-0.2
							c4.2-0.9,6.6-4.7,5.6-9.6c-2.8-13.1-26.9-20-31.4-40.7c-3.6-17.6,6.8-27.8,21.8-31C655.8,518.6,658.2,518.4,660.5,518.4
							 M660.5,514.4L660.5,514.4c-2.6,0-5.2,0.3-7.9,0.8c-19,4-28.6,17.7-24.9,35.7c2.7,12.9,12.3,21,20,27.5c1,0.8,2,1.7,2.9,2.5
							l-2.4,0.5l-19,4l-3.3,0.7l0.1,3.4l0.2,6.4l0,0l0,0c0.4,7.9,3.1,14.4,8,18.9c4.6,4.3,10.9,6.6,18.1,6.6c2.6,0,5.3-0.3,8.1-0.9
							c9.3-2,16.7-6.2,21.5-12.3c5.3-6.8,7-15.5,4.9-25.3c-3-14.3-13.1-22.4-21.2-29c-0.4-0.3-0.7-0.6-1.1-0.9l18.7-4l3.3-0.7
							l-0.1-3.3l-0.2-6.9C685.7,523.7,675.6,514.4,660.5,514.4L660.5,514.4z M659.6,548.9c-2.3-2.2-3.9-4.2-4.4-6.4
							c-0.4-1.8,0.3-3.1,1.9-3.4c0.2,0,0.4-0.1,0.6-0.1c0.4,0,1.7,0,1.7,3.6l0,0l0,0L659.6,548.9L659.6,548.9z M655.7,596.6
							c-1.9,0-2.3-2.9-2.4-4.6l0,0l0,0l-0.3-6.8l-0.1-2.2c3.2,2.9,5.5,5.8,6.2,8.7c0.3,1.2,0.5,4.2-2.5,4.8l-0.1,0l-0.1,0
							C656.2,596.6,655.9,596.6,655.7,596.6L655.7,596.6z"/>
					</g>
					<g>
						<path class="st2" d="M689.8,511.2l29.1-6.2c2.3-0.5,4.5-0.7,6.7-0.7c14.1,0,23.8,10.1,24,25l0.1,4.5
							c0.5,21.1-7.1,31.8-25.5,35.7l-10.1,2.1l0,33.5l-24.5,5.2L689.8,511.2z M714.2,550.2l4.9-1c3.8-0.8,7.4-2.9,7.3-12.2l0-2.5
							c0-8.2-2.8-8.2-4.3-8.2c-0.6,0-1.4,0.1-2.2,0.3l-5.6,1.2L714.2,550.2z"/>
						<path class="st1" d="M725.7,506.3c12.8,0,21.8,9,22,23.1l0.1,4.5c0.5,20.7-7,30.1-23.9,33.7l-11.6,2.5l0,33.5l-20.5,4.4
							l0.1-95.1l27.5-5.9C721.5,506.6,723.6,506.3,725.7,506.3 M712.2,552.7l7.3-1.5c5.8-1.2,8.9-5.1,8.9-14.2l0-2.5
							c0-7.2-2.1-10.2-6.3-10.2c-0.8,0-1.7,0.1-2.6,0.3l-7.2,1.5L712.2,552.7 M725.7,502.3v4V502.3L725.7,502.3
							c-2.3,0-4.7,0.3-7.1,0.8L691,509l-3.2,0.7l0,3.2l-0.1,95.1l0,4.9l4.8-1l20.5-4.4l3.2-0.7l0-3.2l0-30.2l8.5-1.8
							c19.2-4.1,27.6-15.7,27.1-37.7l-0.1-4.5c-0.1-7.9-2.7-14.6-7.4-19.5C739.6,505,733,502.3,725.7,502.3L725.7,502.3z
							 M716.2,529.3l4-0.8c0.7-0.1,1.3-0.2,1.8-0.2c1,0,1.2,0.3,1.4,0.6c0.4,0.6,0.9,2,1,5.7l0,2.6c0,8.3-2.7,9.6-5.7,10.2l-2.4,0.5
							L716.2,529.3L716.2,529.3z"/>
					</g>
					<g>
						<polygon class="st2" points="754.1,497.6 779.2,492.2 779.1,591.4 754,596.8 						"/>
						<path class="st1" d="M777.2,494.7l-0.1,95.1l-21.1,4.5l0.1-95.1L777.2,494.7 M781.2,489.8l-4.8,1l-21.1,4.5l-3.2,0.7l0,3.2
							l-0.1,95.1l0,4.9l4.8-1l21.1-4.5l3.2-0.7l0-3.2l0.1-95.1L781.2,489.8L781.2,489.8z"/>
					</g>
					<g>
						<polygon class="st2" points="787,490.6 811.7,485.3 811.7,518.1 821.5,483.3 848.9,477.4 830.3,530 849.8,576.4 823,582.1 
							811.7,548.3 811.8,584.5 786.9,589.8 						"/>
						<path class="st1" d="M845.9,480.1L828.2,530L847,575l-22.7,4.8L809.7,536l0.1,46.9l-20.9,4.4l0.1-95.1l20.7-4.4l0,44.9
							l13.3-47.7L845.9,480.1 M852,474.7l-7,1.5l-22.8,4.8l-2.4,0.5l-0.7,2.3l-5.5,19.6l0-15.7l0-4.9l-4.8,1l-20.7,4.4L785,489
							l0,3.2l-0.1,95.1l0,4.9l4.8-1l20.9-4.4l3.2-0.7l0-3.2l0-22.2l6.8,20.3l1.1,3.4l3.5-0.7l22.7-4.8l4.7-1l-1.9-4.5l-18.2-43.5
							l17.1-48.4L852,474.7L852,474.7z"/>
					</g>
					<g>
						<polygon class="st2" points="850.9,477 900.5,466.5 900.5,488.7 875.7,494 875.6,509.3 898.2,504.5 898.1,526.7 875.7,531.5 
							875.6,548.7 900.5,543.4 900.5,565.6 850.8,576.2 						"/>
						<path class="st1" d="M898.5,468.9l0,18.1l-24.9,5.3l-0.1,19.4l22.6-4.8l-0.1,18.1l-22.4,4.8l0,21.3l24.9-5.3l0,18.1l-45.7,9.7
							l0.1-95.1L898.5,468.9 M902.5,464l-4.8,1l-45.6,9.7l-3.2,0.7l0,3.2l-0.1,95.1l0,4.9l4.8-1l45.7-9.7l3.2-0.7l0-3.2l0-18.1
							l0-4.9l-4.8,1l-20,4.3l0-13.1l19.3-4.1l3.2-0.7l0-3.2l0.1-18.1l0-5l-4.9,1l-17.7,3.8l0-11.2l21.7-4.6l3.2-0.7l0-3.2l0-18.1
							L902.5,464L902.5,464z"/>
					</g>
					<g>
						<path class="st2" d="M918.7,562.7c-6.2,0-11.2-4.2-12.5-10.4c-1.5-7.2,2.7-13.6,10.1-15.2c1-0.2,2-0.3,3-0.3
							c6.1,0,11.1,4.1,12.4,10.1c0.7,3.5,0.1,7-1.7,9.8c-1.8,2.9-4.8,4.9-8.4,5.7C920.7,562.6,919.7,562.7,918.7,562.7z
							 M905.7,465.4l25.2-5.4l-2,67.9l-21.1,4.5L905.7,465.4z"/>
						<path class="st1" d="M928.8,462.5l-1.9,63.8l-17.2,3.7l-2-63L928.8,462.5 M919.3,538.8c5.1,0,9.3,3.3,10.4,8.5
							c1.3,6.1-2.2,11.7-8.5,13.1c-0.9,0.2-1.7,0.3-2.5,0.3c-5.2,0-9.5-3.5-10.6-8.8c-1.3-6.1,2.2-11.5,8.6-12.8
							C917.6,538.9,918.5,538.8,919.3,538.8 M933,457.5l-5,1.1l-21.1,4.5l-3.3,0.7l0.1,3.3l2,63l0.1,4.8l4.7-1l17.2-3.7l3.1-0.7
							l0.1-3.1l1.9-63.8L933,457.5L933,457.5z M919.3,534.8L919.3,534.8c-1.1,0-2.3,0.1-3.5,0.4c-4.1,0.9-7.5,3.1-9.6,6.4
							c-2.1,3.2-2.9,7.2-2,11.2c1.5,7.1,7.3,11.9,14.5,11.9c1.1,0,2.2-0.1,3.4-0.4c8.4-1.8,13.4-9.4,11.6-17.8
							C932.2,539.5,926.4,534.8,919.3,534.8L919.3,534.8z"/>
					</g>
				</g>
			</g>
			
				<radialGradient id="SVGID_00000147900205653103243980000013955355359600105657_" cx="779" cy="540" r="180" gradientUnits="userSpaceOnUse">
				<stop  offset="0" style="stop-color:#FFFFFF;stop-opacity:0"/>
				<stop  offset="0.25" style="stop-color:#FFFFFF;stop-opacity:0"/>
				<stop  offset="1" style="stop-color:#000000;stop-opacity:0.15"/>
			</radialGradient>
			
				<circle style="opacity:0.25;fill:url(#SVGID_00000147900205653103243980000013955355359600105657_);" cx="779" cy="540" r="180"/>
		</g>
	</g>
</g>
</svg>
