<?xml version="1.0" encoding="utf-8"?>
<!-- Generator: Adobe Illustrator 27.1.0, SVG Export Plug-In . SVG Version: 6.00 Build 0)  -->
<svg version="1.1" id="Layer_1" xmlns="http://www.w3.org/2000/svg" xmlns:xlink="http://www.w3.org/1999/xlink" x="0px" y="0px"
	 viewBox="0 0 1000 750" style="enable-background:new 0 0 1000 750;" xml:space="preserve">
<style type="text/css">
	.st0{fill:#65C8D0;}
	.st1{fill:#222222;}
</style>
<g>
	<rect class="st0" width="1000" height="750"/>
</g>
<g>
	<path class="st1" d="M796.5,380.8c-0.9-26.8-7.2-53.2-18.7-78.5c-11.1-24.3-26.5-46.4-45.8-65.7c-19.3-19.3-41.4-34.7-65.7-45.8
		c-25.3-11.6-51.7-17.9-78.5-18.7c-0.1,0-0.2,0-0.3,0l-375,0c-2.4,0-4.7,0.9-6.4,2.6c-1.7,1.7-2.6,4-2.6,6.4v150
		c0,2.4,0.9,4.7,2.6,6.4l25,25c1.7,1.7,4,2.6,6.4,2.6h66v166c0,2.4,0.9,4.7,2.6,6.4l25,25c1.7,1.7,4,2.6,6.4,2.6h150c5,0,9-4,9-9
		V524c13.2,10.7,27.8,19.6,43.5,26.3c22.9,9.8,47.3,14.8,72.5,14.8c24.8,0,48.9-4.9,71.6-14.5c21.9-9.3,41.6-22.5,58.5-39.4
		c16.9-16.9,30.2-36.6,39.4-58.5c9.6-22.7,14.5-46.8,14.5-71.6C796.5,381,796.5,380.9,796.5,380.8z"/>
	<path class="st0" d="M587.5,181.1l-375,0v150h100v200h150v-52.5c31.8,32.4,76,52.5,125,52.5c96.6,0,175-78.4,175-175
		C762.5,259.5,684.1,181.1,587.5,181.1z"/>
	<path class="st1" d="M587.5,201.6H242h-4.5H233v109h4.5h4.5h91v191v4.5v4.5h109v-4.5v-4.5v-93.5c21.4,59.7,78.5,102.5,145.5,102.5
		c85.2,0,154.5-69.3,154.5-154.5C742,270.9,672.7,201.6,587.5,201.6z M535.5,210.6c-11.4,4.1-22.2,9.5-32.2,16H242v-16H535.5z
		 M455.1,276.6H242v-16h224.1C462.1,265.7,458.4,271.1,455.1,276.6z M473.8,251.6H242v-16h248.9
		C484.8,240.5,479.1,245.9,473.8,251.6z M242,285.6h208c-2.7,5.2-5,10.5-7.1,16H242V285.6z M383,310.6v191h-16v-191H383z M392,310.6
		h16v191h-16V310.6z M342,310.6h16v191h-16V310.6z M433,501.6h-16v-191h22.8c-4.4,14.4-6.8,29.7-6.8,45.5c0,0,0,0,0,0V501.6z
		 M587.5,501.6c-80.2,0-145.5-65.2-145.5-145.5v0h0c0-80.2,65.3-145.5,145.5-145.5c78.7,0,143,62.8,145.4,141h-16
		c-2.4-69.3-59.5-125-129.4-125c-71.4,0-129.5,58.1-129.5,129.5s58.1,129.5,129.5,129.5c69.9,0,127-55.7,129.4-125h16
		C730.5,438.8,666.2,501.6,587.5,501.6z M691.9,351.6c-2.4-55.5-48.3-100-104.4-100c-57.6,0-104.5,46.9-104.5,104.5
		s46.9,104.5,104.5,104.5c56.1,0,102-44.5,104.4-100h16c-2.4,64.4-55.5,116-120.4,116c-66.4,0-120.5-54.1-120.5-120.5
		s54.1-120.5,120.5-120.5c64.9,0,118,51.6,120.4,116H691.9z M666.9,351.6c-2.3-41.8-37-75-79.4-75c-43.8,0-79.5,35.7-79.5,79.5
		s35.7,79.5,79.5,79.5c42.3,0,77-33.2,79.4-75h16c-2.4,50.6-44.2,91-95.4,91c-52.7,0-95.5-42.8-95.5-95.5s42.8-95.5,95.5-95.5
		c51.2,0,93,40.4,95.4,91H666.9z M641.8,351.6c-2.3-28-25.8-50-54.3-50c-30.1,0-54.5,24.4-54.5,54.5s24.4,54.5,54.5,54.5
		c28.5,0,52-22,54.3-50h16c-2.3,36.8-33,66-70.3,66c-38.9,0-70.5-31.6-70.5-70.5c0-38.9,31.6-70.5,70.5-70.5c37.4,0,68,29.2,70.3,66
		H641.8z M633,356.1c0,25.1-20.4,45.5-45.5,45.5S542,381.2,542,356.1c0-25.1,20.4-45.5,45.5-45.5S633,331,633,356.1z"/>
</g>
</svg>
