<svg viewBox="0 0 800 600" xmlns="http://www.w3.org/2000/svg"><path d="m0 0h800v600h-800z" fill="#3a8457"/><path d="m537.66 287.66-125.31-125.32-12.35-12.34-12.34 12.34-125.31 125.32-12.35 12.34 12.35 12.35 125.31 125.3 12.34 12.35 12.35-12.35 125.31-125.3 12.34-12.35zm-68.83 68.82-36.05-36.06h22.77v-17.42h-40.24l-10.31-10.35h22.78v-17.46h-40.25l-10.31-10.32h22.78v-17.46h-52.59v52.59h17.46v-22.78l10.32 10.32v40.23h17.46v-22.77l10.35 10.31v40.24h17.46v-22.78l36.05 36.06-56.51 56.48-125.31-125.31 125.31-125.31 125.31 125.31z" fill="#faf9f2"/></svg>