<?xml version="1.0" encoding="utf-8"?>
<!-- Generator: Adobe Illustrator 27.1.0, SVG Export Plug-In . SVG Version: 6.00 Build 0)  -->
<svg version="1.1" id="Layer_1" xmlns="http://www.w3.org/2000/svg" xmlns:xlink="http://www.w3.org/1999/xlink" x="0px" y="0px"
	 viewBox="0 0 500 500" style="enable-background:new 0 0 500 500;" xml:space="preserve">
<style type="text/css">
	.st0{fill:#0D6147;}
	.st1{fill:#FFFFFF;}
	.st2{fill:#DDDDDD;}
	.st3{fill:#1E9E4E;}
</style>
<rect class="st0" width="500" height="500"/>
<g>
	<path class="st1" d="M250.1,435.7c-3.3,0-6.6-0.7-9.7-2.2c-12.7-6.1-45.5-22.8-76-46.7c-41.2-32.4-62.3-65.3-62.5-97.8l0.2-164.2
		c0.1-10,6.6-18.7,16.2-21.6c27.3-8,60.3-13.3,96-15.4V77.8c0-7.5,6-13.5,13.5-13.5h44.9c7.5,0,13.5,6,13.5,13.5v10.1
		c35.7,2.2,68.6,7.4,96,15.4c9.5,2.9,16.2,11.6,16.2,21.6l0.2,164.2c-0.3,32.5-21.3,65.4-62.5,97.8c-30.5,24-63.3,40.7-76,46.7
		C256.8,435,253.5,435.7,250.1,435.7L250.1,435.7z"/>
	<path class="st2" d="M272.6,64.3c7.5,0,13.5,6,13.5,13.5v10.1c35.7,2.2,68.6,7.4,96,15.4c9.5,2.9,16.2,11.6,16.2,21.6l0.2,164.2
		c-0.3,32.5-21.3,65.4-62.5,97.8c-30.5,24-63.3,40.7-76,46.7c-6.1,3-13.3,3-19.4,0c-12.7-6.1-45.5-22.8-76-46.7
		c-41.2-32.3-62.3-65.3-62.5-97.8l0.2-164.2c0.1-10,6.6-18.7,16.2-21.6c27.3-8,60.3-13.3,96-15.4V77.8c0-7.5,6-13.5,13.5-13.5l0,0
		H272.6z M272.6,62.5h-44.9c-8.4,0-15.3,6.8-15.3,15.3v8.4c-35,2.2-67.7,7.5-94.7,15.4c-10.3,3.1-17.4,12.5-17.5,23.3
		c0,6.7-0.2,164.2-0.2,164.2c0.3,33.2,21.5,66.5,63.2,99.2c30.6,24.1,63.6,40.9,76.4,47c6.6,3.1,14.3,3.1,20.9,0
		c12.8-6.1,45.7-22.9,76.4-47c41.6-32.7,62.9-66,63.2-99.2c0,0-0.2-157.5-0.2-164.2c-0.1-10.8-7.2-20.2-17.5-23.3
		c-26.7-7.8-59.4-13.1-94.4-15.4v-8.4C287.9,69.3,281,62.5,272.6,62.5z"/>
	<path class="st1" d="M384.7,118.2c-34.5-11.1-82-18-134.6-18S150,107,115.5,118.1h-0.2v170.7c0.5,74.2,134.8,134.3,134.8,134.3
		S384.4,363,384.9,288.8V118.1L384.7,118.2L384.7,118.2z"/>
	<path class="st3" d="M250.1,425.6c-1.9,0-3.7-0.4-5.3-1.3c-12.4-5.9-44.4-22.3-74.1-45.6c-38.7-30.4-58.4-60.6-58.7-89.9l0.2-164.1
		c0-5.5,3.7-10.3,8.9-11.9c35.4-10.4,81.2-16.1,129-16.1s93.6,5.7,129,16.1c5.3,1.5,8.9,6.4,8.9,11.9l0.2,164.1
		c-0.2,29.3-19.9,59.6-58.7,89.9c-29.7,23.4-61.7,39.6-74.1,45.6C253.8,425.2,252,425.6,250.1,425.6L250.1,425.6z M118.8,288.9
		c0.2,27.1,19,55.6,56.1,84.6c29.2,22.9,60.7,39,72.9,44.8c1.5,0.7,3.3,0.7,4.9,0c12.2-5.8,43.7-21.8,72.9-44.8
		c37-29,55.9-57.5,56.1-84.6l-0.2-164.1c0-2.5-1.6-4.7-4-5.4c-34.9-10.2-80-15.8-127.1-15.8s-92.3,5.6-127.1,15.8
		c-2.4,0.7-4,2.9-4,5.4L118.8,288.9z"/>
	<path class="st1" d="M218.7,91.2h62.9v18h-62.9V91.2z"/>
	<g>
		<path class="st3" d="M151.9,145.6v12.8l-3.1,0.6v-12.8l-4.8,1v-2.7l12.7-2.5v2.7L151.9,145.6z"/>
		<path class="st3" d="M162.7,148c-0.4,0-0.6,0.1-1,0.1c-1.6,0.3-2.7,1.6-2.7,3.2v5.8l-3,0.5v-11.3l3-0.5v1.6c0.5-1.2,1.6-2,3-2.2
			c0.3,0,0.4-0.1,0.7-0.1V148z"/>
		<path class="st3" d="M164,140.7l3.1-0.4v2.8l-3.1,0.4V140.7z M166.9,155.7l-3,0.4v-11.3l3-0.4V155.7z"/>
		<path class="st3" d="M172.1,153.8v5l-3,0.4v-15.2l3-0.4v1.2c0.7-1,1.9-1.6,3.1-1.8c3.1-0.4,4.9,2,4.9,5.2c0,3.2-1.8,6.2-4.9,6.6
			C174.1,155,172.9,154.7,172.1,153.8z M172.1,149.6c0,1.9,1.1,2.9,2.5,2.7c1.7-0.3,2.6-1.7,2.6-3.7c0-2-0.9-3.1-2.6-3
			c-1.4,0.2-2.5,1.4-2.5,3.3V149.6z"/>
		<path class="st3" d="M184.6,153.3l-3,0.4v-15.5l3-0.4V153.3z"/>
		<path class="st3" d="M186.1,147.5c-0.1-3.2,2.2-6,5.5-6.5c3.3-0.4,5.1,2,5.1,5.1v0.9l-7.7,0.8c0.2,1.7,1.3,2.6,2.7,2.5
			c1.2-0.1,2.1-0.8,2.4-1.9l2.5,0.6c-0.8,2.1-2.7,3.6-4.9,3.8C188.3,153.1,186.1,151,186.1,147.5z M189,145.8l4.7-0.4
			c0.1-1-0.7-1.9-1.7-1.9c-0.2,0-0.4,0-0.5,0C190.3,143.5,189.3,144.5,189,145.8z"/>
		<path class="st3" d="M213,135.3v2.7l-7.5,0.5v3.4l6.3-0.4v2.7l-6.3,0.4v3.9l7.5-0.5v2.8l-10.7,0.8v-15.4L213,135.3z"/>
		<path class="st3" d="M218.9,134.9l5.3-0.2c4.9-0.2,7.8,2.7,7.8,7.4c0,4.7-3,7.9-7.8,8.1l-5.3,0.3V134.9z M224.2,147.5
			c3-0.1,4.7-2.2,4.7-5.2s-1.7-4.9-4.8-4.9l-2.2,0.1v10.1L224.2,147.5z"/>
		<path class="st3" d="M232.9,144.1c0-3.3,2.3-5.9,5.5-6c3.4-0.1,5.2,2.4,5.2,5.6v0.9l-7.8,0.2c0.2,1.7,1.3,2.7,2.8,2.7
			c1.1,0.1,2.1-0.6,2.4-1.7l2.5,0.9c-0.8,2.1-2.8,3.4-5,3.3C235.2,150,232.9,147.7,232.9,144.1z M235.8,142.7l4.7-0.1
			c0-1.1-0.9-2-2-2c-0.1,0-0.2,0-0.3,0C237.2,140.6,236.1,141.5,235.8,142.7L235.8,142.7z"/>
		<path class="st3" d="M247.6,149.6l-4.1-11.3h3.1l2.5,7.6l2.5-7.7h3.1l-4.1,11.3L247.6,149.6z"/>
		<path class="st3" d="M254.6,144c0-3.3,2.3-5.8,5.5-5.8c3.3,0.1,5.2,2.6,5.2,5.8v0.9l-7.8-0.1c0.2,1.7,1.3,2.8,2.8,2.8
			c1.1,0.1,2.2-0.5,2.4-1.6l2.5,0.9c-0.8,2-2.9,3.3-5,3.1C257,149.9,254.6,147.5,254.6,144L254.6,144z M257.7,142.6l4.7,0.1
			c0-1.2-0.9-2.1-2-2.2c-0.1,0-0.1,0-0.2,0C258.9,140.6,257.9,141.4,257.7,142.6L257.7,142.6z"/>
		<path class="st3" d="M269.9,149.9l-3.1-0.1v-15.5l3.1,0.1V149.9z"/>
		<path class="st3" d="M276.9,150.4c-3.2-0.2-5.6-2.6-5.6-6.2s2.2-5.8,5.6-5.7c3.3,0.1,5.6,2.6,5.6,6.1
			C282.5,148.2,280.1,150.6,276.9,150.4z M276.9,147.9c1.6,0.1,2.5-1.2,2.5-3.3c0-2.2-1-3.4-2.5-3.5c-1.6-0.1-2.6,1.2-2.6,3.2
			C274.3,146.6,275.3,147.8,276.9,147.9z"/>
		<path class="st3" d="M286.5,149.5v5l-3.1-0.2v-15.2l3.1,0.2v1.2c0.8-0.9,2-1.3,3.1-1.2c3.1,0.2,4.9,3,4.9,6.2
			c0,3.2-1.8,5.8-4.9,5.6C288.5,151.2,287.3,150.5,286.5,149.5z M286.4,145.4c0,1.9,1.1,3.1,2.5,3.1c1.7,0.1,2.6-1.2,2.6-3.1
			s-0.9-3.3-2.6-3.5c-1.4-0.1-2.5,0.9-2.5,2.9V145.4z"/>
		<path class="st3" d="M299.2,151.6l-3-0.3V140l3,0.3v1.2c0.8-0.8,2-1.3,3.1-1.1c1.3,0.1,2.4,0.8,3.1,1.8c0.9-0.9,2.2-1.3,3.5-1.3
			c2.2,0.2,4,2.2,3.8,4.4v7.5l-3-0.3v-6.6c0-1.3-0.4-2.2-1.7-2.3c-1-0.1-1.9,0.6-2.1,1.6c0,0.2,0,0.3,0,0.4v6.6l-3-0.3v-6.6
			c0-1.3-0.4-2.2-1.7-2.3c-1-0.1-1.9,0.5-2,1.5c0,0.2,0,0.4,0,0.5L299.2,151.6L299.2,151.6z"/>
		<path class="st3" d="M314,147.5c0-3.3,2.2-5.6,5.5-5.2c3.3,0.4,5.1,3.1,5.1,6.3v0.9l-7.7-1c0.1,1.5,1.2,2.9,2.8,3.1
			c1,0.3,2.1-0.4,2.4-1.3l2.5,1.2c-0.8,2-2.9,3.1-4.9,2.6C316.4,153.6,313.8,150.7,314,147.5z M317,146.4l4.7,0.6
			c0-1.3-1-2.2-2.2-2.3C318.3,144.4,317.2,145.2,317,146.4L317,146.4L317,146.4z"/>
		<path class="st3" d="M326.1,143.3l3,0.4v1.2c0.8-0.8,2-1.2,3.1-0.9c2.2,0.3,4,2.3,3.8,4.7v7.5l-3-0.4v-6.6c0-1.3-0.5-2.2-1.8-2.4
			c-1-0.2-1.9,0.4-2.1,1.3c0,0.2,0,0.4,0,0.5v6.6l-3-0.4L326.1,143.3L326.1,143.3z"/>
		<path class="st3" d="M338.3,147.7l-1.5-0.3V145l1.5,0.3V142l3,0.5v3.2l2.2,0.4v2.5l-2.2-0.4v5.2c0,1,0.5,1.2,1.4,1.3
			c0.4,0.1,0.7,0.1,1,0.1v2.5c-0.6,0-1.3,0-1.9-0.2c-2.2-0.4-3.4-1.3-3.4-3.7L338.3,147.7z"/>
		<path class="st3" d="M345.8,154c0.8,1.2,2,2.1,3.3,2.3c1,0.2,1.9,0,1.9-0.8c0-0.8-0.8-1.2-2.6-1.8c-1.8-0.6-3.8-1.6-3.8-4
			c0-2.2,1.9-3.3,4.6-2.8c1.8,0.4,3.5,1.3,4.6,2.9l-1.7,1.5c-0.7-1.1-1.7-1.8-3-2.1c-0.9-0.2-1.5,0.1-1.5,0.7c0,0.6,0.7,1,2.2,1.5
			c2,0.8,4.2,1.7,4.2,4.3c0,2.3-2.2,3.4-4.9,2.9c-2.1-0.4-3.9-1.5-5.1-3.1L345.8,154z"/>
		<path class="st3" d="M327.4,334.5c-21.6,0-32.3,10.1-54.8,10.1c-28.8,0-49.4-17.3-99.7-10.1c6.1,6,12.6,11.7,19.3,17
			c5.3,4.1,10.7,8.1,16.1,11.8s10.7,7.1,15.7,10.2c5,3.1,9.9,5.9,14.3,8.4c4.4,2.4,8.4,4.6,11.9,6.4c3.4-1.8,7.5-4,11.9-6.4
			c4.4-2.4,9.3-5.3,14.3-8.4c5-3.1,10.3-6.5,15.7-10.2c5.4-3.7,10.8-7.6,16.1-11.8C314.9,346.1,321.3,340.6,327.4,334.5"/>
	</g>
	<ellipse class="st1" cx="250.1" cy="365.3" rx="9" ry="2.2"/>
	<path class="st0" d="M272.6,344.6c-13.7,0-25.7-4-39.9-7.3c22.4,5.4,34.7,20.7,75.5,14.2c6.7-5.3,13.2-11,19.2-17
		C305.8,334.5,295.1,344.6,272.6,344.6z"/>
	<path class="st3" d="M256,324.8h1.8v42.7H256V324.8z"/>
	<path class="st1" d="M255.1,330h0.9v35.2h-0.9V330z"/>
	<path class="st3" d="M236.2,329.3l20.7,4.5v-9L236.2,329.3z"/>
	<path class="st3" d="M227.7,77.8v44.9h44.9V77.8C272.6,77.8,227.7,77.8,227.7,77.8z M252.9,112h-14.6v-8.4h9.7v-6.7h-9.7v-8.4h14.6
		l9,11.8L252.9,112z"/>
	<path class="st0" d="M187.2,306c-3.4,4-8.4,7.1-16.1,7.1s-12.8-3.1-16.2-7.1c-5.5-6.6-6.1-15.6-6.1-35.4c0-19.8,0.5-28.8,6.1-35.4
		c3.4-4.1,8.4-7.1,16.1-7.1c7.6,0,12.8,3.1,16.1,7.1c5.6,6.6,6.1,15.6,6.1,35.4C193.2,290.3,192.8,299.4,187.2,306z M177.4,243.1
		c-1.2-1.9-3.1-3.1-6.3-3.1s-5,1.3-6.2,3.1c-2.4,4-2.9,12.4-2.9,27.6c0,15.2,0.4,23.6,2.9,27.6c1.2,1.9,3.1,3.1,6.2,3.1
		s5.1-1.3,6.3-3.1c2.4-4,2.8-12.4,2.8-27.6C180.1,255.4,179.8,247,177.4,243.1z"/>
	<path class="st0" d="M226,279.6h-7.8v32.6H205v-83.2H226c15.1,0,21.4,7.9,21.4,25.3S241.1,279.6,226,279.6L226,279.6z M225.5,240.8
		h-7.4v27h7.4c7,0,8.8-5,8.8-13.5C234.2,245.9,232.5,240.8,225.5,240.8z"/>
	<path class="st0" d="M258.7,312.3v-83.2h35v11.8h-21.9v23.5h18.9v11.8h-18.9v24.2h21.8v11.9L258.7,312.3L258.7,312.3z"/>
	<path class="st0" d="M337.6,312.3l-19.6-49.4v49.4h-13.1v-83.2h11.7l19.5,49.4v-49.4h13.1v83.2H337.6z"/>
	<path class="st0" d="M168,211.2c-2.2,2.5-5.2,4.2-8.4,4.7c-4.8,0.8-7.7-0.6-9.7-2.8c-3.1-3.3-3.3-9.2-3.3-17.8
		c0-8.6,0.2-14.6,3.3-19c2.2-3.3,5.7-5.6,9.7-6.2c3.7-0.6,6.3,0,8.4,1.7c2.2,1.7,3.8,5,4,9.3l-8.8,1.5c0-1.2-0.2-2.3-0.7-3.3
		c-0.5-1-1.3-1.4-3-1.2c-1.3,0.2-2.4,1.1-3,2.2c-1.1,2.2-1.2,7.9-1.2,13.3c0,5.4,0.1,11,1.2,12.8c0.5,1.1,1.8,1.6,3,1.3
		c1.3-0.2,2.5-1,3-2.2c0.4-1.2,0.7-2.3,0.7-3.6l8.8-1.5C171.9,204.3,170.4,208.2,168,211.2z"/>
	<path class="st0" d="M194.4,210.7v-18.8l-7.4,0.8v18.8l-8.9,0.9v-44.8l8.9-0.9v18l7.4-0.8v-18l8.9-0.9v44.7L194.4,210.7z"/>
	<path class="st0" d="M232.2,208.3l-1.4-6.9l-10.3,0.4l-1.4,7l-9.3,0.4l11.5-45.2l8.8-0.4l11.5,44.3L232.2,208.3z M225.6,176.9
		l-3.5,16.7l6.9-0.3L225.6,176.9z"/>
	<path class="st0" d="M265.1,208.2l-5.5-17.5l-3-0.1V208l-8.9-0.2v-44.7l12.8,0.2c9.8,0.2,12.5,5.3,12.5,13.8
		c0,4.8-0.7,9.1-5.1,11.7l6.6,19.5L265.1,208.2z M260.5,171.4l-3.8-0.1v11.3l3.8,0.1c3.4,0.1,3.6-3.1,3.6-5.6
		C264.1,174.4,263.9,171.5,260.5,171.4L260.5,171.4z"/>
	<path class="st0" d="M282,208.9v-44.8l8.9,0.5v44.7L282,208.9z"/>
	<path class="st0" d="M314.6,174.9v36.7l-8.9-0.9V174l-7.5-0.8v-8.1l23.9,2.6v8.1L314.6,174.9z"/>
	<path class="st0" d="M344.5,199.1V216l-8.8-1.5v-16.9l-9-29.5l9.7,1.6l3.7,16.9l3.7-15.5l9.7,1.6L344.5,199.1z"/>
</g>
</svg>
