<?xml version="1.0" encoding="utf-8"?>
<!-- Generator: Adobe Illustrator 27.1.0, SVG Export Plug-In . SVG Version: 6.00 Build 0)  -->
<svg version="1.1" id="Layer_1" xmlns="http://www.w3.org/2000/svg" xmlns:xlink="http://www.w3.org/1999/xlink" x="0px" y="0px"
	 viewBox="0 0 1600 1200" style="enable-background:new 0 0 1600 1200;" xml:space="preserve">
<style type="text/css">
	.st0{fill:#EEEEEE;}
	.st1{fill:#FFFFFF;}
	.st2{fill:#3296BF;}
	.st3{fill:#EF783A;}
</style>
<g>
	<rect class="st0" width="1600" height="1200"/>
</g>
<g>
	<g>
		<g>
			<circle class="st1" cx="800" cy="600" r="362.2"/>
			<path class="st2" d="M800,237.8c200.1,0,362.3,162.2,362.3,362.2c0,200.1-162.2,362.2-362.3,362.2S437.8,800.1,437.8,600
				C437.8,399.9,599.9,237.8,800,237.8 M800,227.8c-50.2,0-99,9.8-144.9,29.3c-44.3,18.7-84.1,45.6-118.3,79.8
				c-34.2,34.2-61,74-79.8,118.3c-19.4,45.9-29.3,94.6-29.3,144.9s9.8,99,29.3,144.9c18.7,44.3,45.6,84.1,79.8,118.3
				c34.2,34.2,74,61,118.3,79.8c45.9,19.4,94.6,29.3,144.9,29.3s99-9.8,144.9-29.3c44.3-18.7,84.1-45.6,118.3-79.8s61-74,79.8-118.3
				c19.4-45.9,29.3-94.6,29.3-144.9s-9.8-99-29.3-144.9c-18.7-44.3-45.6-84.1-79.8-118.3s-74-61-118.3-79.8
				C899,237.7,850.2,227.8,800,227.8L800,227.8z"/>
		</g>
		<g>
			<path class="st2" d="M600.1,720.7l8.7,13.1L569.4,760l7.2,10.9l-11.1,7.4l-23.1-34.9l11.1-7.4l7.2,10.9L600.1,720.7z"/>
			<path class="st2" d="M542.2,685l-21.8,8.4l-5.7-14.7l56.6-21.9l5.7,14.7l-23.2,9l8.2,21.2l23.2-9l5.7,14.7l-56.6,21.9l-5.7-14.7
				l21.8-8.4L542.2,685z"/>
			<path class="st2" d="M557.5,635.7l10.9,3l1.8,16.6l-62.9-16.5l-1.9-17.1l57.8-29.4l1.9,16.7l-10,5.1L557.5,635.7z M525.1,628.2
				l0,0.2l19.9,4.3l-1.5-13L525.1,628.2z"/>
			<path class="st2" d="M503.6,581.2l2.5-15.6l41.1-22.7l0-0.2l-36.6-5.8l2.5-15.6l59.9,9.5l-2.5,15.6l-41.2,22.7l0,0.2l36.7,5.8
				l-2.5,15.6L503.6,581.2z"/>
			<path class="st2" d="M534.7,467.3l8-17.8l16.2,33.8l39.9-10.8l-8.4,18.6l-32.4,7.7l-0.1,0.1l24,10.8l-6.5,14.4l-55.3-25l6.5-14.4
				l22.8,10.3l0.1-0.1L534.7,467.3z"/>
			<path class="st2" d="M585,418.2c-3.7,0.9-7.2,2.8-9.5,5.9c-1.7,2.3-2.7,6.4,0,8.4c2.8,2.1,6.5-0.4,8.8-2.1l3.4-2.5
				c7.1-5.2,14.4-7.9,22.2-1.9c4.8,3.6,8.9,8.5,9.2,14.8c0.3,6.2-2.1,12.3-5.8,17.2c-4.6,6.1-11.2,10.5-18.4,12.8l-6.1-13.1
				c5.1-1.1,10.2-3.1,13.4-7.4c2.2-3,3.1-7.2-0.3-9.8c-3.5-2.7-8.5,1.4-11.3,3.5c-8.2,6.2-14.2,9.8-23.6,2.8
				c-9.8-7.4-10.9-19.3-3.6-29c3.7-4.9,9.7-9.7,15.4-12.1L585,418.2z"/>
			<path class="st2" d="M634.2,369.5l5.9,8.2l14-10.1l7.8,10.8l-14,10.1l14,19.3l-12.8,9.2l-35.5-49.1l28.2-20.4l7.8,10.8
				L634.2,369.5z"/>
			<path class="st2" d="M728.9,338.9c7.5,18.1-0.2,36.3-18.1,43.8c-18,7.5-36.3,0.1-43.8-18c-7-16.9,2.9-35,19-41.7
				C702.1,316.3,721.9,322,728.9,338.9z M682.1,358.4c4,9.7,14.1,13.8,22.8,10.1c8.7-3.6,12.9-13.6,8.9-23.3
				c-3.2-7.7-13.3-11.8-22-8.2C683.1,340.7,678.9,350.7,682.1,358.4z"/>
			<path class="st2" d="M795.4,361.3l-19.4,2.7L758,343l-0.2,0l3.2,23.1l-15.6,2.2l-8.4-60.1l23.3-3.2c11.9-1.7,21.7,2.8,23.4,15.6
				c1.2,8.3-2.5,16.1-10.8,18.8L795.4,361.3z M756.4,332.9l1.5-0.2c5.1-0.7,10.7-2.5,9.8-9c-0.9-6.5-6.8-6.7-11.9-6l-1.5,0.2
				L756.4,332.9z"/>
			<path class="st2" d="M889.3,342.3c-2.1,8.6-4.3,15.8-11.2,22.1c-7.6,6.8-17.1,8.4-27,6.2c-18.6-4.1-28.8-19.6-24.6-38.3
				c4.3-19.2,20.1-29,39.2-24.8c12.2,2.7,20.4,10.3,23,22.5l-16,2.9c-0.9-6.1-4.5-10.9-10.7-12.3c-10.1-2.2-17.5,6.2-19.5,15.3
				c-2,9.2,1.4,19.8,11.5,22c6.7,1.5,12.5-0.8,14.7-7.5l-12.6-2.8l2.7-12.1L889.3,342.3z"/>
			<path class="st2" d="M900.4,385.3l-14.5-6.3l24.1-55.7l14.5,6.3L900.4,385.3z"/>
			<path class="st2" d="M942.5,381.9l32.6-22.6l14.3,9.5l-55.1,36.3l-10.2-6.8l12.2-64.7l14.3,9.5L942.5,381.9z"/>
			<path class="st2" d="M967.3,432.9l-11.4-10.9l41.8-44l11.4,10.9L967.3,432.9z"/>
			<path class="st2" d="M1023.6,402.4l9.1,12.9l-13.6,45l0.1,0.1l30.3-21.4l9.1,12.9l-49.5,35.1L1000,474l13.6-45.1l-0.1-0.1
				l-30.3,21.5l-9.1-12.9L1023.6,402.4z"/>
			<path class="st2" d="M1064,539.1c-8.4,2.8-15.8,4.7-24.7,2.1c-9.8-2.9-16.1-10.1-19.5-19.7c-6.3-18,1.6-34.8,19.6-41.1
				c18.6-6.5,35.2,1.8,41.7,20.3c4.1,11.8,2,22.7-7,31.4l-10.9-12.1c4.8-4,6.9-9.6,4.8-15.6c-3.4-9.8-14.5-11.6-23.3-8.6
				c-8.9,3.1-16.1,11.6-12.6,21.4c2.3,6.5,7.3,10.2,14.1,8.5l-4.2-12.2l11.7-4.1L1064,539.1z"/>
			<path class="st2" d="M1034,631.1l0.4-19.6l23.7-14.4l0-0.2l-23.3-0.5l0.3-15.8l60.6,1.3l-0.5,23.6c-0.3,12-6.2,20.9-19.1,20.7
				c-8.4-0.2-15.5-5-16.8-13.6L1034,631.1z M1068.2,597.2l0,1.5c-0.1,5.1,0.7,11,7.3,11.1c6.6,0.1,7.7-5.6,7.8-10.8l0-1.5
				L1068.2,597.2z"/>
			<path class="st2" d="M1078.8,698.8l-33-8.7c-7.5-2-14.9-4.3-19.1-11.6c-3.5-6.2-3.2-14.3-1.4-21.2c1.8-6.8,5.6-14.1,11.7-17.7
				c7.2-4.3,14.8-2.7,22.3-0.7l33,8.7l-4,15.2l-30.9-8.2c-7.6-2-16.1-3.7-18.7,6.1s5.6,12.5,13.2,14.6l30.9,8.2L1078.8,698.8z"/>
			<path class="st2" d="M1070.4,720.3l-8,13.6l-46.6,6.2l-0.1,0.1l32,18.7l-8,13.6L987.4,742l8-13.6l46.7-6.2l0.1-0.1l-32.1-18.8
				l8-13.6L1070.4,720.3z"/>
		</g>
		<g>
			<g>
				<g>
					<g>
						<path class="st3" d="M712.9,665L712.9,665L712.9,665C712.9,665,712.9,665,712.9,665z"/>
					</g>
					<g>
						<g>
							<path class="st3" d="M894.9,723.3c-32.3-2.6-45-31.6-45-31.6c-3,0.7-6.1,1.3-9.3,1.7c-3.1,0.4-6.3,0.6-9.6,0.6
								c0.8,1.3,1.6,2.6,2.5,3.9C840.6,708.7,862.9,736.1,894.9,723.3z"/>
						</g>
						<g>
							<path class="st3" d="M737.5,731.9c4.7-40.8,42.2-47.9,42.2-47.9c-1.4-0.7-2.7-1.3-4-2c-1.3-0.7-2.5-1.3-3.8-2
								c-2.6-1.3-4.8-2.5-6.9-3.5c-2.1-1-4-1.9-5.9-2.5C719.7,695.1,737.5,731.9,737.5,731.9z"/>
						</g>
					</g>
					<g>
						<g>
							<path class="st3" d="M866.8,499.9c0.1-6.2,2.5-12,6.8-16.3c4.3-4.3,10-6.7,16.1-6.7c0,0,9.7-0.9,22.8,13.3
								c0,0-20.1,0-27.2,21.8c-3.8,17.9,2.6,25.5,8.7,28.6c1.7,0.9,3.4,1.4,5.1,1.7c0.6,0.1,1.3,0.1,2,0.2c0.3,0,0.5,0,0.8,0l0,0
								c0.1,0,0.2,0,0.3,0c8.6-0.9,18.5-13.5,4.6-30.2c3.3,9,1.3,17.2-6,17.2c-4.4,0-7.1-4.9-6-10.6c1.1-5.7,4.3-8.3,4.3-8.3
								c3.5-3.9,11.8-5.5,11.8-5.5c2.6-0.5,5.5-0.7,8.5-0.4c0.2,0,0.4,0,0.6,0.1c0.2,0,0.4,0,0.5,0.1c0.2,0,0.4,0.1,0.6,0.1
								c0.2,0,0.4,0.1,0.6,0.1c0.2,0,0.4,0.1,0.6,0.1c0.2,0,0.4,0.1,0.6,0.1c0.2,0,0.4,0.1,0.6,0.1c0.2,0,0.4,0.1,0.6,0.1
								c0.2,0,0.4,0.1,0.6,0.1c0.2,0.1,0.5,0.1,0.7,0.2c0.2,0,0.3,0.1,0.5,0.1c0.4,0.1,0.8,0.2,1.2,0.4c0.1,0.1,0.3,0.1,0.5,0.2
								c0.3,0.1,0.5,0.2,0.8,0.3c0.1,0,0.2,0.1,0.3,0.1c5.8,2.1,9.2,5.1,9.2,5.1s0,0,0,0l0,0c0,0,0-0.1,0-0.1l0,0c0,0,0-0.1,0-0.1
								c0,0,0,0,0,0c0-0.1,0-0.1,0-0.2c0,0,0,0,0-0.1c0-0.1,0-0.2,0-0.3c0,0,0,0,0,0c0-0.1,0-0.2,0-0.3c0,0,0-0.1,0-0.1
								c0-0.1,0-0.3,0-0.4c0,0,0-0.1,0-0.1c0-0.1,0-0.3,0-0.4c0,0,0-0.1,0-0.1c0-0.2,0-0.3-0.1-0.5c0-0.1,0-0.1,0-0.2
								c0-0.2-0.1-0.3-0.1-0.5c0,0,0-0.1,0-0.1c0-0.2-0.1-0.4-0.1-0.6c0-0.1,0-0.1,0-0.2c0-0.2-0.1-0.4-0.1-0.7c0-0.1,0-0.1,0-0.2
								c0-0.2-0.1-0.4-0.1-0.6c0-0.1,0-0.1,0-0.2c-0.1-0.2-0.1-0.5-0.2-0.7c0-0.1,0-0.1-0.1-0.2c-0.1-0.2-0.1-0.5-0.2-0.7
								c0,0,0-0.1,0-0.1c-0.1-0.3-0.1-0.5-0.2-0.8c0-0.1,0-0.2-0.1-0.2c-0.1-0.3-0.2-0.6-0.2-0.9c0-0.1,0-0.1-0.1-0.2
								c-0.1-0.3-0.2-0.5-0.2-0.8c0-0.1,0-0.1-0.1-0.2c-0.1-0.3-0.2-0.6-0.3-1c0-0.1-0.1-0.2-0.1-0.3c-0.1-0.3-0.2-0.6-0.3-1
								c0,0,0-0.1,0-0.1l0,0c-1.6-4.8-4.2-10.6-8.1-16.7c-11-15.1-23.7-23.1-36.8-23.1c-11,0-21.3,4.3-29,12.1
								c-7.7,7.7-12,18-12.1,28.9c-0.2,17.9,8.2,36.1,17.1,55.5c8.5,18.4,17.3,37.5,17.3,54.9c0,29.8-24.2,54.1-54.1,54.1
								c-11.8,0-28.4-2.9-35.5-6.3c-3-1.4-5.9-2.9-8.7-4.4c-2.3-1.2-4.6-2.4-7-3.5c-9.5-6.3-17.1-13.9-24.4-21
								c-0.8-0.8-1.7-1.6-2.5-2.4c1,0.2,2.1,0.3,3.1,0.5c7.7,1.3,15.5,2.6,23.8,3.1c23.2,0.7,56-4.3,76.3-33.4
								c-1.4,1.8-14.8,18.1-65.6,16.4c-10.9,0.5-21.1-1.2-31.7-2.9c-10.8-1.8-22-3.6-35.3-3.6h0h0h0c0,0,0,0,0,0c-0.1,0-0.1,0-0.2,0
								c-26.6,0.7-47.3,6-59.9,10.4c-0.5,0.2-1.1,0.4-1.6,0.6c0.8-1.1,1.8-2.3,2.8-3.4c2.3-2.6,5.3-5.4,9.1-8.2
								c12.6-10.5,35-24.7,66.5-27.7c0,0-15.3-16.7-54.3-16.7c-2.7,0-5.3,0.1-7.8,0.2c1.3-0.8,2.7-1.6,4.2-2.3
								c7.5-3.9,15.1-6.6,22.9-8.1c29.3-6.6,54.6,0.9,54.6,0.9c-2.5-15.1-18.3-27.4-30.4-34.8c-3.6-2.1-7.4-4.2-11.6-6.2
								c-0.9-0.5-1.9-0.9-2.8-1.4c6.2-0.5,13.3-0.6,21,0c15.6,1.3,30.2,5.5,43.6,12.6c12.8,6.7,24.5,16.1,34.9,27.9
								c-25.7,5.6-46.1,24-53,47.6c6,1,11.6,1.9,17.2,2.4c3.4-9.7,9.9-18.1,18.5-24.2l0,0c0,0,0.3-0.2,1-0.7c0,0,0,0,0.1,0
								c3.4-2.3,14.7-9.6,25.9-13l0,0c1.6-0.5,3.1-0.9,4.7-1.2c0,0,0,0,0,0c0.3-0.1,0.6-0.1,0.8-0.2c0,0,0,0,0.1,0
								c0.9-0.1,1.8-0.3,2.6-0.3c0.1,0,0.1,0,0.2,0c0.2,0,0.4,0,0.7,0c0.1,0,0.1,0,0.2,0c0.2,0,0.4,0,0.7,0c0.1,0,0.1,0,0.2,0
								c0.3,0,0.5,0,0.8,0c0,0,0,0,0,0c0.2,0,0.5,0,0.7,0c0.1,0,0.2,0,0.2,0c0.2,0,0.4,0,0.5,0c0.1,0,0.2,0,0.3,0
								c0.2,0,0.4,0,0.5,0.1c0.1,0,0.2,0,0.2,0c0.2,0,0.5,0.1,0.7,0.1c0,0,0,0,0,0l0,0c0,0,0-0.1-0.1-0.2c0,0,0,0,0,0
								c0,0,0-0.1,0-0.1c0,0,0-0.1-0.1-0.1c0,0,0,0,0-0.1c0,0,0-0.1-0.1-0.1c0,0,0,0,0,0c-1.9-4.8-14-32.3-50.5-52.9
								c-15.4-8.1-32.3-13-50.1-14.5c-4.4-0.4-8.6-0.5-12.6-0.5c-30.7,0.8-46.9,14.3-46.9,14.3c5.2,4.8,15.9,11.3,25.6,16.6
								c6,2.8,12.4,6.2,18.5,9.7c-10.7-0.2-20.4,1.4-28.9,3.9c-36.1,11-50.4,41.7-50.4,41.7c7.3,0.9,22.2,0.8,33.1,0.6
								c4-0.3,8.4-0.4,12.9-0.4c-3.4,1.3-6.7,2.7-9.9,4.2c-2.5,1.2-5,2.5-7.3,3.9c-15.3,9.2-34.6,26.6-30,54.7
								c0,0,42.9-20.5,80.3-17.8l0,0h0c7,3.2,13.7,9.8,21.5,17.5c0.5,0.5,1.1,1,1.6,1.6c-17,0.5-33.2,4.3-48.4,11.3
								c-7.4,3.5-14.5,7.7-21,12.5c0.3-0.9,0.7-1.8,1.1-2.7c4.1-9.6,10.3-17.8,18.7-24.6c-13.2,2.5-23.2,6-29.7,8.7
								c-0.2,0.3-0.3,0.6-0.5,0.8c-3,5.3-18.2,34.1-2,49.8c0,0,12.8-13,30.2-23.5c3.3-2,6.7-3.9,10.2-5.5c0,0,0.1,0,0.1-0.1
								c0,0,0.1,0,0.1-0.1c0,0,0,0,0.1,0c3.6-1.7,7.3-3.2,11-4.4c0,0,0.1,0,0.2-0.1c9.8-3.2,20.1-5,30.7-5.3c0.1,0,0.2,0.1,0.4,0.1
								c5.6-0.1,11,0.5,15.4,2.3l0,0c5.6,1.7,10.8,4.4,16.8,7.5c3,1.5,6,3.1,9.3,4.7c10.6,5,30.3,8,43.2,8
								c39.9,0,72.3-32.4,72.3-72.3c0-21.4-9.6-42.3-18.9-62.5C874.2,530.1,866.6,513.6,866.8,499.9z"/>
						</g>
					</g>
				</g>
			</g>
		</g>
		<g>
			<polygon class="st2" points="415,792.8 1204.9,792.8 1185,918.6 395.1,918.7 			"/>
			<g>
				<path class="st1" d="M463.6,818.1l-11.9,75.3l-14.5,0l9.9-62.3l-7.2,0l2-13L463.6,818.1z"/>
				<path class="st1" d="M515.6,855.8c-2.1,13.3-9.3,38.8-27.4,38.8c-18.1,0-17.1-25.6-15-38.8c2.1-13.3,9.2-38.8,27.3-38.8
					C518.6,816.9,517.7,842.5,515.6,855.8z M487.7,855.8c-0.8,4.9-4.7,25.3,2.7,25.3c7.4,0,9.9-20.4,10.7-25.3
					c0.7-4.9,4.7-25.3-2.7-25.3C491,830.5,488.4,850.9,487.7,855.8z"/>
				<path class="st1" d="M566,818.1l4.6,20.5l0.5,3.7l0.2,0l2.6-5.6l9.6-18.6l16.7,0l-23.8,39.2l-5.7,36l-14.9,0l5.7-36l-11.9-39.2
					L566,818.1z"/>
				<path class="st1" d="M635.8,818.1l-2.2,14l-15.1,0l-2.6,16.4l13.3,0l-2.2,14l-13.3,0l-2.7,17l15.3,0l-2.2,14l-30.1,0l11.9-75.3
					L635.8,818.1z"/>
				<path class="st1" d="M673.6,818.1l6.2,75.3l-15.9,0l-0.8-12.7l-15.1,0l-4.7,12.7l-14.8,0l29.3-75.3L673.6,818.1z M662.2,848.9
					l0.1-11.4l-0.2,0l-3.4,11.4l-6.4,20.1l10.5,0L662.2,848.9z"/>
				<path class="st1" d="M685.8,893.4l11.9-75.3l15,0c9.5,0,26.4,1,23.1,21.6c-1.3,8.3-5.7,15.4-13.8,19.5l7.7,34.2l-15.7,0
					l-7.6-34.7l-0.2,0l-5.5,34.7L685.8,893.4z M707.5,850.5l2.6,0.1c6.8,0,10.2-4.6,11.2-10.8c0.9-5.4-1-9.8-8.6-9.4l-2,0
					L707.5,850.5z"/>
				<path class="st1" d="M778.8,835.1c-2.5-2.6-5.9-4.8-10-4.8c-4.6,0-7.9,2.8-8.7,7.4c-1.9,12.4,20.7,13.1,17.4,33.4
					c-2.1,13.4-11.4,23.5-25.4,23.5c-4.2,0-9.2-1.3-12.2-3.8l2.3-14.2c3.1,2.4,6.2,4,10.6,4c4.8,0,9.1-3.2,9.9-8.2
					c0.9-5.8-3.3-8-7-11c-7.7-5.8-12.1-11.4-10.4-22.4c1.9-11.9,10.4-22.2,23.2-22.2c4.8,0,8.9,1.3,12.6,3.7L778.8,835.1z"/>
				<path class="st1" d="M807.1,893.4l11.9-75.3l15,0c9.5,0,26.4,1,23.1,21.6c-1.3,8.3-5.7,15.4-13.8,19.5l7.7,34.2l-15.7,0
					l-7.6-34.7l-0.2,0l-5.5,34.7L807.1,893.4z M828.8,850.5l2.6,0.1c6.8,0,10.2-4.6,11.2-10.8c0.9-5.4-1-9.8-8.6-9.4l-2,0
					L828.8,850.5z"/>
				<path class="st1" d="M886.4,818.1l-7.7,48.7c-0.9,5.7-3,14.3,5.1,14.3c7.3,0,8.2-5.5,9.2-11.1l8.2-51.9l14.9,0l-8.7,54.9
					c-1.2,8-4.3,21.6-25.8,21.6c-13.9,0-21.2-6.5-18.9-20.6l8.8-55.9L886.4,818.1z"/>
				<path class="st1" d="M940.5,818.1l11.4,45.4l0.3-0.2c-0.4-3.6,0-7.5,0.6-11.4l5.3-33.8l14.9,0L961,893.4l-14.1,0L935.8,848
					l-0.2,0.2l-0.5,7.6l-0.4,3.1l-5.5,34.5l-14.9,0l11.9-75.3L940.5,818.1z"/>
				<path class="st1" d="M997.7,818.1l11.4,45.4l0.3-0.2c-0.4-3.6,0-7.5,0.6-11.4l5.3-33.8l14.9,0l-11.9,75.3l-14.1,0L993,848
					l-0.2,0.2l-0.5,7.6l-0.4,3.1l-5.5,34.5l-14.9,0l11.9-75.3L997.7,818.1z"/>
				<path class="st1" d="M1055.5,818.1l-11.9,75.3l-14.9,0l11.9-75.3L1055.5,818.1z"/>
				<path class="st1" d="M1080.3,818.1l11.4,45.4l0.3-0.2c-0.4-3.6,0-7.5,0.6-11.4l5.3-33.8l14.9,0l-11.9,75.3l-14.1,0l-11.2-45.4
					l-0.2,0.2l-0.5,7.6l-0.4,3.1l-5.5,34.5l-14.9,0l11.9-75.3L1080.3,818.1z"/>
				<path class="st1" d="M1166.4,851.5l-1,5.9c-2.5,16-9.8,37.2-30,37.2c-20.3,0-23.4-21.8-20.8-38.4c2.8-17.4,11.8-39.2,33-39.2
					c11.5,0,17.9,7.2,19.4,17.9l-15.4,5.6c-0.1-3.8-0.4-9.7-6.1-9.7c-10-0.6-13.9,18-15,25.1c-1.3,7.8-3.5,25.1,7.5,25.1
					c7.6,0,10.4-10.2,11.2-15.4l-9.5,0l2.3-14L1166.4,851.5z"/>
			</g>
		</g>
	</g>
</g>
</svg>
