<?xml version="1.0" encoding="utf-8"?>
<!-- Generator: Adobe Illustrator 27.1.0, SVG Export Plug-In . SVG Version: 6.00 Build 0)  -->
<svg version="1.1" id="Layer_1" xmlns="http://www.w3.org/2000/svg" xmlns:xlink="http://www.w3.org/1999/xlink" x="0px" y="0px"
	 viewBox="0 0 1600 1200" style="enable-background:new 0 0 1600 1200;" xml:space="preserve">
<style type="text/css">
	.st0{fill:#E7E9E9;}
	.st1{clip-path:url(#SVGID_00000103944946811875953240000018276706072270138801_);}
	.st2{fill:#EE7839;}
	.st3{fill:#3096BF;}
	.st4{fill:#FFFFFF;}
</style>
<g>
	<rect x="0" y="0" class="st0" width="1600" height="1200"/>
	<g>
		<defs>
			<rect id="SVGID_1_" y="0" width="1600" height="1200"/>
		</defs>
		<clipPath id="SVGID_00000031202767661098890660000012035606391651338637_">
			<use xlink:href="#SVGID_1_"  style="overflow:visible;"/>
		</clipPath>
		<g style="clip-path:url(#SVGID_00000031202767661098890660000012035606391651338637_);">
			<path class="st2" d="M539.7,481.2l-3,19h-16l-13.1,83.2h-20.2l13.1-83.2h-15.9l3-19H539.7z"/>
			<path class="st2" d="M569.1,481.2l-6.2,40h20.5l6.2-40h20.2l-16.1,102.1h-20.2l6.9-43.2h-20.5l-6.9,43.2h-20.2l16.1-102.1H569.1z
				"/>
			<path class="st2" d="M663,481.2l8.4,102.1h-21.5l-1.1-17.2h-20.5l-6.4,17.2h-20l39.8-102.1H663z M647.6,522.9l0.1-15.4h-0.3
				l-4.6,15.4l-8.7,27.2h14.2L647.6,522.9z"/>
			<path class="st2" d="M715,481.2l15.4,61.6l0.4-0.3c-0.5-4.9,0-10.2,0.8-15.4l7.2-45.9h20.2l-16.1,102.1h-19.1l-15.2-61.6
				l-0.3,0.3l-0.7,10.3l-0.5,4.2l-7.5,46.9h-20.2l16.1-102.1H715z"/>
			<path class="st2" d="M793.5,481.2l-7.2,45.7h0.3l24-45.7h20.6l-26.3,47.1l12.6,55h-21.3l-10.3-52h-0.3l-8.3,52h-20.2l16.1-102.1
				H793.5z"/>
			<path class="st2" d="M881.1,504.2c-3.4-3.5-8-6.5-13.5-6.5c-6.2,0-10.7,3.8-11.8,10c-2.6,16.8,28,17.7,23.6,45.4
				c-2.8,18.2-15.4,31.8-34.4,31.8c-5.7,0-12.5-1.8-16.5-5.1l3.1-19.2c4.2,3.3,8.4,5.4,14.4,5.4c6.5,0,12.3-4.3,13.4-11.1
				c1.2-7.9-4.5-10.8-9.5-14.9c-10.4-7.9-16.4-15.4-14.1-30.3c2.6-16.1,14.1-30.1,31.4-30.1c6.5,0,12.1,1.8,17.1,5L881.1,504.2z"/>
			<path class="st2" d="M976.4,481.2l-3,19h-20.6l-3.4,21.8H968l-3,19h-18.6l-6.8,42.4h-20.2l16.1-102.1H976.4z"/>
			<path class="st2" d="M1049.1,532.3c-6.1,38.3-26.3,52.7-44.3,52.7c-18,0-33.6-14.4-27.5-52.7c6.1-38.3,26.1-52.7,44.2-52.7
				C1039.5,479.6,1055.2,493.9,1049.1,532.3z M1007.8,566.3c13.4,0,18.4-25.9,19.8-34c1.4-9.1,4.3-34-9.1-34
				c-13.4,0-18.3,24.9-19.6,34C997.5,540.4,994.4,566.3,1007.8,566.3z"/>
			<path class="st2" d="M1051.7,583.3l16.1-102.1h20.3c12.9,0,35.8,1.4,31.3,29.3c-1.8,11.2-7.7,20.9-18.7,26.4l10.4,46.5h-21.3
				l-10.3-47.1h-0.3l-7.5,47.1H1051.7z M1081.1,525.1l3.5,0.1c9.2,0,13.8-6.2,15.2-14.6c1.2-7.3-1.4-13.3-11.7-12.7h-2.7
				L1081.1,525.1z"/>
			<path class="st2" d="M543.7,661.9l-1.4,8c-3.4,21.7-13.3,50.5-40.8,50.5c-27.5,0-31.7-29.5-28.2-52.2c3.8-23.6,16-53.2,44.8-53.2
				c15.6,0,24.3,9.8,26.3,24.2l-20.9,7.6c-0.1-5.1-0.5-13.1-8.3-13.1c-13.5-0.8-18.8,24.4-20.3,34c-1.8,10.6-4.7,34,10.2,34
				c10.3,0,14.1-13.8,15.2-20.9h-12.9l3.1-19H543.7z"/>
			<path class="st2" d="M581.7,616.7l-16.1,102.1h-20.2l16.1-102.1H581.7z"/>
			<path class="st2" d="M611.6,616.7l4.5,49c0.8,5.8,0.5,11.7,0.9,17.5h0.3c2-6,3.3-11.8,5.8-17.7l20.1-48.8h21.1l-44.4,102.1h-16.5
				l-13.4-102.1H611.6z"/>
			<path class="st2" d="M692.8,616.7l-16.1,102.1h-20.2l16.1-102.1H692.8z"/>
			<path class="st2" d="M726.5,616.7l15.4,61.6l0.4-0.3c-0.5-4.9,0-10.2,0.8-15.4l7.2-45.9h20.2l-16.1,102.1h-19.1l-15.2-61.6
				l-0.3,0.3l-0.7,10.3l-0.5,4.2l-7.5,46.9H691l16.1-102.1H726.5z"/>
			<path class="st2" d="M843.3,661.9l-1.4,8c-3.4,21.7-13.3,50.5-40.8,50.5c-27.5,0-31.7-29.5-28.2-52.2c3.8-23.6,16-53.2,44.8-53.2
				c15.6,0,24.2,9.8,26.3,24.2l-20.9,7.6c-0.1-5.1-0.5-13.1-8.3-13.1c-13.5-0.8-18.8,24.4-20.3,34c-1.8,10.6-4.7,34,10.2,34
				c10.3,0,14.1-13.8,15.2-20.9h-12.9l3.1-19H843.3z"/>
			<path class="st3" d="M881.7,718.8l16.1-102.1h20.3c12.9,0,35.8,1.4,31.3,29.3c-1.8,11.2-7.7,20.9-18.7,26.4l10.4,46.5h-21.3
				l-10.3-47.1h-0.3l-7.5,47.1H881.7z M911.1,660.6l3.5,0.1c9.2,0,13.8-6.2,15.2-14.6c1.2-7.3-1.4-13.3-11.7-12.7h-2.7L911.1,660.6z
				"/>
			<path class="st3" d="M989.3,616.7l-10.4,66.1c-1.2,7.7-4.1,19.4,6.9,19.4c9.9,0,11.1-7.5,12.5-15l11.1-70.4h20.2l-11.8,74.5
				c-1.6,10.8-5.8,29.3-35,29.3c-18.8,0-28.7-8.8-25.6-27.9l11.9-75.9H989.3z"/>
			<path class="st3" d="M1062.7,616.7l15.4,61.6l0.4-0.3c-0.5-4.9,0-10.2,0.8-15.4l7.2-45.9h20.2l-16.1,102.1h-19.1l-15.2-61.6
				l-0.3,0.3l-0.7,10.3l-0.5,4.2l-7.5,46.9h-20.2l16.1-102.1H1062.7z"/>
		</g>
		<g style="clip-path:url(#SVGID_00000031202767661098890660000012035606391651338637_);">
			<g>
				<g>
					<g>
						<g>
							<path class="st4" d="M499.7,751.2l-3,19h-16l-13.1,83.2h-20.2l13.1-83.2h-15.9l3-19H499.7z"/>
						</g>
					</g>
					<g>
						<g>
							<path class="st4" d="M529.1,751.2l-6.2,40h20.5l6.2-40h20.2l-16.1,102.1h-20.2l6.9-43.2h-20.5l-6.9,43.2h-20.2l16.1-102.1
								H529.1z"/>
						</g>
					</g>
					<g>
						<g>
							<path class="st4" d="M623,751.2l8.4,102.1h-21.5l-1.1-17.2h-20.5l-6.4,17.2h-20l39.8-102.1H623z M607.6,792.9l0.1-15.4h-0.3
								l-4.6,15.4l-8.7,27.2h14.2L607.6,792.9z"/>
						</g>
					</g>
					<g>
						<g>
							<path class="st4" d="M675,751.2l15.4,61.6l0.4-0.3c-0.5-4.9,0-10.2,0.8-15.4l7.2-45.9h20.2l-16.1,102.1h-19.1l-15.2-61.6
								l-0.3,0.3l-0.7,10.3l-0.5,4.2l-7.5,46.9h-20.2l16.1-102.1H675z"/>
						</g>
					</g>
					<g>
						<g>
							<path class="st4" d="M753.5,751.2l-7.2,45.7h0.3l24-45.7h20.6l-26.3,47.1l12.6,55h-21.3l-10.3-52h-0.3l-8.3,52h-20.2
								l16.1-102.1H753.5z"/>
						</g>
					</g>
					<g>
						<g>
							<path class="st4" d="M841.1,774.2c-3.4-3.5-8-6.5-13.5-6.5c-6.2,0-10.7,3.8-11.8,10c-2.6,16.8,28,17.7,23.6,45.4
								c-2.8,18.2-15.4,31.8-34.4,31.8c-5.7,0-12.5-1.8-16.5-5.1l3.1-19.2c4.2,3.3,8.4,5.4,14.4,5.4c6.5,0,12.3-4.3,13.4-11.1
								c1.2-7.9-4.5-10.8-9.5-14.9c-10.4-7.9-16.4-15.4-14.1-30.3c2.6-16.1,14.1-30.1,31.4-30.1c6.5,0,12.1,1.8,17.1,5L841.1,774.2z
								"/>
						</g>
					</g>
					<g>
						<g>
							<path class="st4" d="M936.4,751.2l-3,19h-20.6l-3.4,21.8H928l-3,19h-18.6l-6.8,42.4h-20.2l16.1-102.1H936.4z"/>
						</g>
					</g>
					<g>
						<g>
							<path class="st4" d="M1009.1,802.3c-6.1,38.3-26.3,52.7-44.3,52.7c-18,0-33.6-14.4-27.5-52.7c6.1-38.3,26.1-52.7,44.2-52.7
								C999.5,749.6,1015.2,763.9,1009.1,802.3z M967.8,836.3c13.4,0,18.4-25.9,19.8-34c1.4-9.1,4.3-34-9.1-34
								c-13.4,0-18.3,24.9-19.6,34C957.5,810.4,954.4,836.3,967.8,836.3z"/>
						</g>
					</g>
					<g>
						<g>
							<path class="st4" d="M1011.7,853.3l16.1-102.1h20.3c12.9,0,35.8,1.4,31.3,29.3c-1.8,11.2-7.7,20.9-18.7,26.4l10.4,46.5h-21.3
								l-10.3-47.1h-0.3l-7.5,47.1H1011.7z M1041.1,795.1l3.5,0.1c9.2,0,13.8-6.2,15.2-14.6c1.2-7.3-1.4-13.3-11.7-12.7h-2.7
								L1041.1,795.1z"/>
						</g>
					</g>
					<g>
						<g>
							<path class="st4" d="M503.7,931.9l-1.4,8c-3.4,21.7-13.3,50.5-40.8,50.5c-27.5,0-31.7-29.5-28.2-52.2
								c3.8-23.6,16-53.2,44.8-53.2c15.6,0,24.3,9.8,26.3,24.2l-20.9,7.6c-0.1-5.1-0.5-13.1-8.3-13.1c-13.5-0.8-18.8,24.4-20.3,34
								c-1.8,10.6-4.7,34,10.2,34c10.3,0,14.1-13.8,15.2-20.9h-12.9l3.1-19H503.7z"/>
						</g>
					</g>
					<g>
						<g>
							<path class="st4" d="M541.7,886.7l-16.1,102.1h-20.2l16.1-102.1H541.7z"/>
						</g>
					</g>
					<g>
						<g>
							<path class="st4" d="M571.6,886.7l4.5,49c0.8,5.8,0.5,11.7,0.9,17.5h0.3c2-6,3.3-11.8,5.8-17.7l20.1-48.8h21.1l-44.4,102.1
								h-16.5l-13.4-102.1H571.6z"/>
						</g>
					</g>
					<g>
						<g>
							<path class="st4" d="M652.8,886.7l-16.1,102.1h-20.2l16.1-102.1H652.8z"/>
						</g>
					</g>
					<g>
						<g>
							<path class="st4" d="M686.5,886.7l15.4,61.6l0.4-0.3c-0.5-4.9,0-10.2,0.8-15.4l7.2-45.9h20.2l-16.1,102.1h-19.1l-15.2-61.6
								l-0.3,0.3l-0.7,10.3l-0.5,4.2l-7.5,46.9H651l16.1-102.1H686.5z"/>
						</g>
					</g>
					<g>
						<g>
							<path class="st4" d="M803.3,931.9l-1.4,8c-3.4,21.7-13.3,50.5-40.8,50.5c-27.5,0-31.7-29.5-28.2-52.2
								c3.8-23.6,16-53.2,44.8-53.2c15.6,0,24.2,9.8,26.3,24.2l-20.9,7.6c-0.1-5.1-0.5-13.1-8.3-13.1c-13.5-0.8-18.8,24.4-20.3,34
								c-1.8,10.6-4.7,34,10.2,34c10.3,0,14.1-13.8,15.2-20.9h-12.9l3.1-19H803.3z"/>
						</g>
					</g>
					<g>
						<g>
							<path class="st4" d="M841.7,988.8l16.1-102.1h20.3c12.9,0,35.8,1.4,31.3,29.3c-1.8,11.2-7.7,20.9-18.7,26.4l10.4,46.5h-21.3
								l-10.3-47.1h-0.3l-7.5,47.1H841.7z M871.1,930.6l3.5,0.1c9.2,0,13.8-6.2,15.2-14.6c1.2-7.3-1.4-13.3-11.7-12.7h-2.7
								L871.1,930.6z"/>
						</g>
					</g>
					<g>
						<g>
							<path class="st4" d="M949.3,886.7l-10.4,66.1c-1.2,7.7-4.1,19.4,6.9,19.4c9.9,0,11.1-7.5,12.5-15l11.1-70.4h20.2l-11.8,74.5
								c-1.6,10.8-5.8,29.3-35,29.3c-18.8,0-28.7-8.8-25.6-27.9l11.9-75.9H949.3z"/>
						</g>
					</g>
					<g>
						<g>
							<path class="st4" d="M1022.7,886.7l15.4,61.6l0.4-0.3c-0.5-4.9,0-10.2,0.8-15.4l7.2-45.9h20.2l-16.1,102.1h-19.1l-15.2-61.6
								l-0.3,0.3l-0.7,10.3l-0.5,4.2l-7.5,46.9h-20.2l16.1-102.1H1022.7z"/>
						</g>
					</g>
				</g>
			</g>
		</g>
		<g style="clip-path:url(#SVGID_00000031202767661098890660000012035606391651338637_);">
			<g>
				<g>
					<g>
						<g>
							<path class="st4" d="M459.7,1021.2l-3,19h-16l-13.1,83.2h-20.2l13.1-83.2h-15.9l3-19H459.7z"/>
						</g>
					</g>
					<g>
						<g>
							<path class="st4" d="M489.1,1021.2l-6.2,40h20.5l6.2-40h20.2l-16.1,102.1h-20.2l6.9-43.2h-20.5l-6.9,43.2h-20.2l16.1-102.1
								H489.1z"/>
						</g>
					</g>
					<g>
						<g>
							<path class="st4" d="M583,1021.2l8.4,102.1h-21.5l-1.1-17.2h-20.5l-6.4,17.2h-20l39.8-102.1H583z M567.6,1062.9l0.1-15.4
								h-0.3l-4.6,15.4l-8.7,27.2h14.2L567.6,1062.9z"/>
						</g>
					</g>
					<g>
						<g>
							<path class="st4" d="M635,1021.2l15.4,61.6l0.4-0.3c-0.5-4.9,0-10.2,0.8-15.4l7.2-45.9h20.2l-16.1,102.1h-19.1l-15.2-61.6
								l-0.3,0.3l-0.7,10.3l-0.5,4.2l-7.5,46.9h-20.2l16.1-102.1H635z"/>
						</g>
					</g>
					<g>
						<g>
							<path class="st4" d="M713.5,1021.2l-7.2,45.7h0.3l24-45.7h20.6l-26.3,47.1l12.6,55h-21.3l-10.3-52h-0.3l-8.3,52h-20.2
								l16.1-102.1H713.5z"/>
						</g>
					</g>
					<g>
						<g>
							<path class="st4" d="M801.1,1044.2c-3.4-3.5-8-6.5-13.5-6.5c-6.2,0-10.7,3.8-11.8,10c-2.6,16.8,28,17.7,23.6,45.4
								c-2.8,18.2-15.4,31.8-34.4,31.8c-5.7,0-12.5-1.8-16.5-5.1l3.1-19.2c4.2,3.3,8.4,5.4,14.4,5.4c6.5,0,12.3-4.3,13.4-11.1
								c1.2-7.9-4.5-10.8-9.5-14.9c-10.4-7.9-16.4-15.4-14.1-30.3c2.6-16.1,14.1-30.1,31.4-30.1c6.5,0,12.1,1.8,17.1,5L801.1,1044.2
								z"/>
						</g>
					</g>
					<g>
						<g>
							<path class="st4" d="M896.4,1021.2l-3,19h-20.6l-3.4,21.8H888l-3,19h-18.6l-6.8,42.4h-20.2l16.1-102.1H896.4z"/>
						</g>
					</g>
					<g>
						<g>
							<path class="st4" d="M969.1,1072.3c-6.1,38.3-26.3,52.7-44.3,52.7c-18,0-33.6-14.4-27.5-52.7c6.1-38.3,26.1-52.7,44.2-52.7
								C959.5,1019.6,975.2,1033.9,969.1,1072.3z M927.8,1106.3c13.4,0,18.4-25.9,19.8-34c1.4-9.1,4.3-34-9.1-34
								c-13.4,0-18.3,24.9-19.6,34C917.5,1080.4,914.4,1106.3,927.8,1106.3z"/>
						</g>
					</g>
					<g>
						<g>
							<path class="st4" d="M971.7,1123.3l16.1-102.1h20.3c12.9,0,35.8,1.4,31.3,29.3c-1.8,11.2-7.7,20.9-18.7,26.4l10.4,46.5h-21.3
								l-10.3-47.1h-0.3l-7.5,47.1H971.7z M1001.1,1065.1l3.5,0.1c9.2,0,13.8-6.2,15.2-14.6c1.2-7.3-1.4-13.3-11.7-12.7h-2.7
								L1001.1,1065.1z"/>
						</g>
					</g>
					<g>
						<g>
							<path class="st4" d="M463.7,1201.9l-1.4,8c-3.4,21.7-13.3,50.5-40.8,50.5c-27.5,0-31.7-29.5-28.2-52.2
								c3.8-23.6,16-53.2,44.8-53.2c15.6,0,24.3,9.8,26.3,24.2l-20.9,7.6c-0.1-5.1-0.5-13.1-8.3-13.1c-13.5-0.8-18.8,24.4-20.3,34
								c-1.8,10.6-4.7,34,10.2,34c10.3,0,14.1-13.8,15.2-20.9h-12.9l3.1-19H463.7z"/>
						</g>
					</g>
					<g>
						<g>
							<path class="st4" d="M501.7,1156.7l-16.1,102.1h-20.2l16.1-102.1H501.7z"/>
						</g>
					</g>
					<g>
						<g>
							<path class="st4" d="M531.6,1156.7l4.5,49c0.8,5.8,0.5,11.7,0.9,17.5h0.3c2-6,3.3-11.8,5.8-17.7l20.1-48.8h21.1l-44.4,102.1
								h-16.5l-13.4-102.1H531.6z"/>
						</g>
					</g>
					<g>
						<g>
							<path class="st4" d="M612.8,1156.7l-16.1,102.1h-20.2l16.1-102.1H612.8z"/>
						</g>
					</g>
					<g>
						<g>
							<path class="st4" d="M646.5,1156.7l15.4,61.6l0.4-0.3c-0.5-4.9,0-10.2,0.8-15.4l7.2-45.9h20.2l-16.1,102.1h-19.1l-15.2-61.6
								l-0.3,0.3l-0.7,10.3l-0.5,4.2l-7.5,46.9H611l16.1-102.1H646.5z"/>
						</g>
					</g>
					<g>
						<g>
							<path class="st4" d="M763.3,1201.9l-1.4,8c-3.4,21.7-13.3,50.5-40.8,50.5c-27.5,0-31.7-29.5-28.2-52.2
								c3.8-23.6,16-53.2,44.8-53.2c15.6,0,24.2,9.8,26.3,24.2l-20.9,7.6c-0.1-5.1-0.5-13.1-8.3-13.1c-13.5-0.8-18.8,24.4-20.3,34
								c-1.8,10.6-4.7,34,10.2,34c10.3,0,14.1-13.8,15.2-20.9h-12.9l3.1-19H763.3z"/>
						</g>
					</g>
					<g>
						<g>
							<path class="st4" d="M801.7,1258.8l16.1-102.1h20.3c12.9,0,35.8,1.4,31.3,29.3c-1.8,11.2-7.7,20.9-18.7,26.4l10.4,46.5h-21.3
								l-10.3-47.1h-0.3l-7.5,47.1H801.7z M831.1,1200.6l3.5,0.1c9.2,0,13.8-6.2,15.2-14.6c1.2-7.3-1.4-13.3-11.7-12.7h-2.7
								L831.1,1200.6z"/>
						</g>
					</g>
					<g>
						<g>
							<path class="st4" d="M909.3,1156.7l-10.4,66.1c-1.2,7.7-4.1,19.4,6.9,19.4c9.9,0,11.1-7.5,12.5-15l11.1-70.4h20.2l-11.8,74.5
								c-1.6,10.8-5.8,29.3-35,29.3c-18.8,0-28.7-8.8-25.6-27.9l11.9-75.9H909.3z"/>
						</g>
					</g>
					<g>
						<g>
							<path class="st4" d="M982.7,1156.7l15.4,61.6l0.4-0.3c-0.5-4.9,0-10.2,0.8-15.4l7.2-45.9h20.2l-16.1,102.1h-19.1l-15.2-61.6
								l-0.3,0.3l-0.7,10.3l-0.5,4.2l-7.5,46.9h-20.2l16.1-102.1H982.7z"/>
						</g>
					</g>
				</g>
			</g>
		</g>
		<g style="clip-path:url(#SVGID_00000031202767661098890660000012035606391651338637_);">
			<g>
				<g>
					<g>
						<g>
							<path class="st4" d="M579.7,211.2l-3,19h-16l-13.1,83.2h-20.2l13.1-83.2h-15.8l3-19H579.7z"/>
						</g>
					</g>
					<g>
						<g>
							<path class="st4" d="M609.1,211.2l-6.2,40h20.5l6.2-40h20.2l-16.1,102.1h-20.2l6.9-43.2h-20.5l-6.9,43.2h-20.2l16.1-102.1
								H609.1z"/>
						</g>
					</g>
					<g>
						<g>
							<path class="st4" d="M703,211.2l8.4,102.1h-21.5l-1.1-17.2h-20.5l-6.4,17.2h-20l39.8-102.1H703z M687.6,252.9l0.1-15.4h-0.3
								l-4.6,15.4l-8.7,27.2h14.2L687.6,252.9z"/>
						</g>
					</g>
					<g>
						<g>
							<path class="st4" d="M755,211.2l15.4,61.6l0.4-0.3c-0.5-4.9,0-10.2,0.8-15.4l7.2-45.9h20.2l-16.1,102.1h-19.1l-15.2-61.6
								l-0.3,0.3l-0.7,10.3l-0.5,4.2l-7.5,46.9h-20.2l16.1-102.1H755z"/>
						</g>
					</g>
					<g>
						<g>
							<path class="st4" d="M833.5,211.2l-7.2,45.7h0.3l24-45.7h20.6l-26.3,47.1l12.6,55h-21.3l-10.3-52h-0.3l-8.3,52h-20.2
								l16.1-102.1H833.5z"/>
						</g>
					</g>
					<g>
						<g>
							<path class="st4" d="M921.1,234.2c-3.4-3.5-8-6.5-13.5-6.5c-6.2,0-10.7,3.8-11.8,10c-2.6,16.8,28,17.7,23.6,45.4
								c-2.8,18.2-15.4,31.8-34.4,31.8c-5.7,0-12.5-1.8-16.5-5.1l3.1-19.2c4.2,3.3,8.4,5.4,14.4,5.4c6.5,0,12.3-4.3,13.4-11.1
								c1.2-7.9-4.5-10.8-9.5-14.9c-10.4-7.9-16.4-15.4-14.1-30.3c2.6-16.1,14.1-30.1,31.4-30.1c6.5,0,12.1,1.8,17.1,5L921.1,234.2z
								"/>
						</g>
					</g>
					<g>
						<g>
							<path class="st4" d="M1016.4,211.2l-3,19h-20.6l-3.4,21.8h18.6l-3,19h-18.6l-6.8,42.4h-20.2l16.1-102.1H1016.4z"/>
						</g>
					</g>
					<g>
						<g>
							<path class="st4" d="M1089.1,262.3c-6.1,38.3-26.3,52.7-44.3,52.7c-18,0-33.6-14.4-27.5-52.7c6.1-38.3,26.1-52.7,44.2-52.7
								S1095.2,223.9,1089.1,262.3z M1047.8,296.3c13.4,0,18.4-25.9,19.8-34c1.4-9.1,4.3-34-9.1-34c-13.4,0-18.3,24.9-19.6,34
								C1037.5,270.4,1034.4,296.3,1047.8,296.3z"/>
						</g>
					</g>
					<g>
						<g>
							<path class="st4" d="M1091.7,313.3l16.1-102.1h20.3c12.9,0,35.8,1.4,31.3,29.3c-1.8,11.2-7.7,20.9-18.7,26.4l10.4,46.5h-21.3
								l-10.3-47.1h-0.3l-7.5,47.1H1091.7z M1121.1,255.1l3.5,0.1c9.2,0,13.8-6.2,15.2-14.6c1.2-7.3-1.4-13.3-11.7-12.7h-2.7
								L1121.1,255.1z"/>
						</g>
					</g>
					<g>
						<g>
							<path class="st4" d="M583.7,391.9l-1.4,8c-3.4,21.7-13.3,50.5-40.8,50.5c-27.5,0-31.7-29.5-28.2-52.2
								c3.8-23.6,16-53.2,44.8-53.2c15.6,0,24.3,9.8,26.3,24.2l-20.9,7.6c-0.1-5.1-0.5-13.1-8.3-13.1c-13.5-0.8-18.8,24.4-20.3,34
								c-1.8,10.6-4.7,34,10.2,34c10.3,0,14.1-13.8,15.2-20.9h-12.9l3.1-19H583.7z"/>
						</g>
					</g>
					<g>
						<g>
							<path class="st4" d="M621.7,346.7l-16.1,102.1h-20.2l16.1-102.1H621.7z"/>
						</g>
					</g>
					<g>
						<g>
							<path class="st4" d="M651.6,346.7l4.5,49c0.8,5.8,0.5,11.7,0.9,17.5h0.3c2-6,3.3-11.8,5.8-17.7l20.1-48.8h21.1l-44.4,102.1
								h-16.5l-13.4-102.1H651.6z"/>
						</g>
					</g>
					<g>
						<g>
							<path class="st4" d="M732.8,346.7l-16.1,102.1h-20.2l16.1-102.1H732.8z"/>
						</g>
					</g>
					<g>
						<g>
							<path class="st4" d="M766.5,346.7l15.4,61.6l0.4-0.3c-0.5-4.9,0-10.2,0.8-15.4l7.2-45.9h20.2l-16.1,102.1h-19.1l-15.2-61.6
								l-0.3,0.3l-0.7,10.3l-0.5,4.2l-7.5,46.9H731l16.1-102.1H766.5z"/>
						</g>
					</g>
					<g>
						<g>
							<path class="st4" d="M883.3,391.9l-1.4,8c-3.4,21.7-13.3,50.5-40.8,50.5c-27.5,0-31.7-29.5-28.2-52.2
								c3.8-23.6,16-53.2,44.8-53.2c15.6,0,24.2,9.8,26.3,24.2l-20.9,7.6c-0.1-5.1-0.5-13.1-8.3-13.1c-13.5-0.8-18.8,24.4-20.3,34
								c-1.8,10.6-4.7,34,10.2,34c10.3,0,14.1-13.8,15.2-20.9h-12.9l3.1-19H883.3z"/>
						</g>
					</g>
					<g>
						<g>
							<path class="st4" d="M921.7,448.8l16.1-102.1h20.3c12.9,0,35.8,1.4,31.3,29.3c-1.8,11.2-7.7,20.9-18.7,26.4l10.4,46.5h-21.3
								l-10.3-47.1h-0.3l-7.5,47.1H921.7z M951.1,390.6l3.5,0.1c9.2,0,13.8-6.2,15.2-14.6c1.2-7.3-1.4-13.3-11.7-12.7h-2.7
								L951.1,390.6z"/>
						</g>
					</g>
					<g>
						<g>
							<path class="st4" d="M1029.3,346.7l-10.4,66.1c-1.2,7.7-4.1,19.4,6.9,19.4c9.9,0,11.1-7.5,12.5-15l11.1-70.4h20.2l-11.8,74.5
								c-1.6,10.8-5.8,29.3-35,29.3c-18.8,0-28.7-8.8-25.6-27.9l11.9-75.9H1029.3z"/>
						</g>
					</g>
					<g>
						<g>
							<path class="st4" d="M1102.7,346.7l15.4,61.6l0.4-0.3c-0.5-4.9,0-10.2,0.8-15.4l7.2-45.9h20.2l-16.1,102.1h-19.1l-15.2-61.6
								l-0.3,0.3l-0.7,10.3l-0.5,4.2l-7.5,46.9h-20.2l16.1-102.1H1102.7z"/>
						</g>
					</g>
				</g>
			</g>
		</g>
		<g style="clip-path:url(#SVGID_00000031202767661098890660000012035606391651338637_);">
			<g>
				<g>
					<g>
						<g>
							<path class="st4" d="M619.7-58.8l-3,19h-16l-13.1,83.2h-20.2l13.1-83.2h-15.8l3-19H619.7z"/>
						</g>
					</g>
					<g>
						<g>
							<path class="st4" d="M649.1-58.8l-6.2,40h20.5l6.2-40h20.2L673.6,43.3h-20.2l6.9-43.2h-20.5L633,43.3h-20.2l16.1-102.1H649.1
								z"/>
						</g>
					</g>
					<g>
						<g>
							<path class="st4" d="M743-58.8l8.4,102.1h-21.5l-1.1-17.2h-20.5L702,43.3h-20l39.8-102.1H743z M727.6-17.1l0.1-15.4h-0.3
								l-4.6,15.4l-8.7,27.2h14.2L727.6-17.1z"/>
						</g>
					</g>
					<g>
						<g>
							<path class="st4" d="M795-58.8l15.4,61.6l0.4-0.3c-0.5-4.9,0-10.2,0.8-15.4l7.2-45.9h20.2L822.9,43.3h-19.1l-15.2-61.6
								l-0.3,0.3l-0.7,10.3l-0.5,4.2l-7.5,46.9h-20.2l16.1-102.1H795z"/>
						</g>
					</g>
					<g>
						<g>
							<path class="st4" d="M873.5-58.8l-7.2,45.7h0.3l24-45.7h20.6l-26.3,47.1l12.6,55h-21.3l-10.3-52h-0.3l-8.3,52h-20.2
								l16.1-102.1H873.5z"/>
						</g>
					</g>
					<g>
						<g>
							<path class="st4" d="M961.1-35.8c-3.4-3.5-8-6.5-13.5-6.5c-6.2,0-10.7,3.8-11.8,10c-2.6,16.8,28,17.7,23.6,45.4
								C956.5,31.3,943.9,45,925,45c-5.7,0-12.5-1.8-16.5-5.1l3.1-19.2c4.2,3.3,8.4,5.4,14.4,5.4c6.5,0,12.3-4.3,13.4-11.1
								C940.5,7,934.8,4,929.8,0c-10.4-7.9-16.4-15.4-14.1-30.3c2.6-16.1,14.1-30.1,31.4-30.1c6.5,0,12.1,1.8,17.1,5L961.1-35.8z"/>
						</g>
					</g>
					<g>
						<g>
							<path class="st4" d="M1056.4-58.8l-3,19h-20.6l-3.4,21.8h18.6l-3,19h-18.6l-6.8,42.4h-20.2l16.1-102.1H1056.4z"/>
						</g>
					</g>
					<g>
						<g>
							<path class="st4" d="M1129.1-7.7c-6.1,38.3-26.3,52.7-44.3,52.7c-18,0-33.6-14.4-27.5-52.7c6.1-38.3,26.1-52.7,44.2-52.7
								S1135.2-46.1,1129.1-7.7z M1087.8,26.3c13.4,0,18.4-25.9,19.8-34c1.4-9.1,4.3-34-9.1-34c-13.4,0-18.3,24.9-19.6,34
								C1077.5,0.4,1074.4,26.3,1087.8,26.3z"/>
						</g>
					</g>
					<g>
						<g>
							<path class="st4" d="M1131.7,43.3l16.1-102.1h20.3c12.9,0,35.8,1.4,31.3,29.3c-1.8,11.2-7.7,20.9-18.7,26.4l10.4,46.5h-21.3
								l-10.3-47.1h-0.3l-7.5,47.1H1131.7z M1161.1-14.9l3.5,0.1c9.2,0,13.8-6.2,15.2-14.6c1.2-7.3-1.4-13.3-11.7-12.7h-2.7
								L1161.1-14.9z"/>
						</g>
					</g>
					<g>
						<g>
							<path class="st4" d="M623.7,121.9l-1.4,8c-3.4,21.7-13.3,50.5-40.8,50.5c-27.5,0-31.7-29.5-28.2-52.2
								c3.8-23.6,16-53.2,44.8-53.2c15.6,0,24.3,9.8,26.3,24.2l-20.9,7.6c-0.1-5.1-0.5-13.1-8.3-13.1c-13.5-0.8-18.8,24.4-20.3,34
								c-1.8,10.6-4.7,34,10.2,34c10.3,0,14.1-13.8,15.2-20.9h-12.9l3.1-19H623.7z"/>
						</g>
					</g>
					<g>
						<g>
							<path class="st4" d="M661.7,76.7l-16.1,102.1h-20.2l16.1-102.1H661.7z"/>
						</g>
					</g>
					<g>
						<g>
							<path class="st4" d="M691.6,76.7l4.5,49c0.8,5.8,0.5,11.7,0.9,17.5h0.3c2-6,3.3-11.8,5.8-17.7l20.1-48.8h21.1l-44.4,102.1
								h-16.5L669.9,76.7H691.6z"/>
						</g>
					</g>
					<g>
						<g>
							<path class="st4" d="M772.8,76.7l-16.1,102.1h-20.2l16.1-102.1H772.8z"/>
						</g>
					</g>
					<g>
						<g>
							<path class="st4" d="M806.5,76.7l15.4,61.6l0.4-0.3c-0.5-4.9,0-10.2,0.8-15.4l7.2-45.9h20.2l-16.1,102.1h-19.1l-15.2-61.6
								l-0.3,0.3l-0.7,10.3l-0.5,4.2l-7.5,46.9H771l16.1-102.1H806.5z"/>
						</g>
					</g>
					<g>
						<g>
							<path class="st4" d="M923.3,121.9l-1.4,8c-3.4,21.7-13.3,50.5-40.8,50.5c-27.5,0-31.7-29.5-28.2-52.2
								c3.8-23.6,16-53.2,44.8-53.2c15.6,0,24.2,9.8,26.3,24.2l-20.9,7.6c-0.1-5.1-0.5-13.1-8.3-13.1c-13.5-0.8-18.8,24.4-20.3,34
								c-1.8,10.6-4.7,34,10.2,34c10.3,0,14.1-13.8,15.2-20.9h-12.9l3.1-19H923.3z"/>
						</g>
					</g>
					<g>
						<g>
							<path class="st4" d="M961.7,178.8l16.1-102.1h20.3c12.9,0,35.8,1.4,31.3,29.3c-1.8,11.2-7.7,20.9-18.7,26.4l10.4,46.5h-21.3
								l-10.3-47.1h-0.3l-7.5,47.1H961.7z M991.1,120.6l3.5,0.1c9.2,0,13.8-6.2,15.2-14.6c1.2-7.3-1.4-13.3-11.7-12.7h-2.7
								L991.1,120.6z"/>
						</g>
					</g>
					<g>
						<g>
							<path class="st4" d="M1069.3,76.7l-10.4,66.1c-1.2,7.7-4.1,19.4,6.9,19.4c9.9,0,11.1-7.5,12.5-15l11.1-70.4h20.2l-11.8,74.5
								c-1.6,10.8-5.8,29.3-35,29.3c-18.8,0-28.7-8.8-25.6-27.9l11.9-75.9H1069.3z"/>
						</g>
					</g>
					<g>
						<g>
							<path class="st4" d="M1142.7,76.7l15.4,61.6l0.4-0.3c-0.5-4.9,0-10.2,0.8-15.4l7.2-45.9h20.2l-16.1,102.1h-19.1l-15.2-61.6
								l-0.3,0.3l-0.7,10.3l-0.5,4.2l-7.5,46.9h-20.2l16.1-102.1H1142.7z"/>
						</g>
					</g>
				</g>
			</g>
		</g>
		<g style="clip-path:url(#SVGID_00000031202767661098890660000012035606391651338637_);">
			<g>
				<g>
					<g>
						<g>
							<path class="st4" d="M1194.4,481.2l-3,19h-16l-13.1,83.2h-20.2l13.1-83.2h-15.8l3-19H1194.4z"/>
						</g>
					</g>
					<g>
						<g>
							<path class="st4" d="M1223.8,481.2l-6.2,40h20.5l6.2-40h20.2l-16.1,102.1h-20.2l6.9-43.2h-20.5l-6.9,43.2h-20.2l16.1-102.1
								H1223.8z"/>
						</g>
					</g>
					<g>
						<g>
							<path class="st4" d="M1317.7,481.2l8.4,102.1h-21.5l-1.1-17.2H1283l-6.4,17.2h-20l39.8-102.1H1317.7z M1302.2,522.9l0.1-15.4
								h-0.3l-4.6,15.4l-8.7,27.2h14.2L1302.2,522.9z"/>
						</g>
					</g>
					<g>
						<g>
							<path class="st4" d="M1369.7,481.2l15.4,61.6l0.4-0.3c-0.5-4.9,0-10.2,0.8-15.4l7.2-45.9h20.2l-16.1,102.1h-19.1l-15.2-61.6
								l-0.3,0.3l-0.7,10.3l-0.5,4.2l-7.5,46.9h-20.2l16.1-102.1H1369.7z"/>
						</g>
					</g>
					<g>
						<g>
							<path class="st4" d="M1448.1,481.2l-7.2,45.7h0.3l24-45.7h20.6l-26.3,47.1l12.6,55h-21.3l-10.3-52h-0.3l-8.3,52h-20.2
								l16.1-102.1H1448.1z"/>
						</g>
					</g>
					<g>
						<g>
							<path class="st4" d="M1535.8,504.2c-3.4-3.5-8-6.5-13.5-6.5c-6.2,0-10.7,3.8-11.8,10c-2.6,16.8,28,17.7,23.6,45.4
								c-2.8,18.2-15.4,31.8-34.4,31.8c-5.7,0-12.5-1.8-16.5-5.1l3.1-19.2c4.2,3.3,8.4,5.4,14.4,5.4c6.5,0,12.3-4.3,13.4-11.1
								c1.2-7.9-4.5-10.8-9.5-14.9c-10.4-7.9-16.4-15.4-14.1-30.3c2.6-16.1,14.1-30.1,31.4-30.1c6.5,0,12.1,1.8,17.1,5L1535.8,504.2
								z"/>
						</g>
					</g>
					<g>
						<g>
							<path class="st4" d="M1631,481.2l-3,19h-20.6l-3.4,21.8h18.6l-3,19h-18.6l-6.8,42.4h-20.2l16.1-102.1H1631z"/>
						</g>
					</g>
					<g>
						<g>
							<path class="st4" d="M1703.8,532.3c-6.1,38.3-26.3,52.7-44.3,52.7c-18,0-33.6-14.4-27.5-52.7c6.1-38.3,26.1-52.7,44.2-52.7
								C1694.2,479.6,1709.9,493.9,1703.8,532.3z M1662.5,566.3c13.4,0,18.4-25.9,19.8-34c1.4-9.1,4.3-34-9.1-34
								c-13.4,0-18.3,24.9-19.6,34C1652.2,540.4,1649.1,566.3,1662.5,566.3z"/>
						</g>
					</g>
					<g>
						<g>
							<path class="st4" d="M1706.4,583.3l16.1-102.1h20.3c12.9,0,35.8,1.4,31.3,29.3c-1.8,11.2-7.7,20.9-18.7,26.4l10.4,46.5h-21.3
								l-10.3-47.1h-0.3l-7.5,47.1H1706.4z M1735.8,525.1l3.5,0.1c9.2,0,13.8-6.2,15.2-14.6c1.2-7.3-1.4-13.3-11.7-12.7h-2.7
								L1735.8,525.1z"/>
						</g>
					</g>
					<g>
						<g>
							<path class="st4" d="M1198.4,661.9l-1.4,8c-3.4,21.7-13.3,50.5-40.8,50.5c-27.5,0-31.7-29.5-28.2-52.2
								c3.8-23.6,16-53.2,44.8-53.2c15.6,0,24.3,9.8,26.3,24.2l-20.9,7.6c-0.1-5.1-0.5-13.1-8.3-13.1c-13.5-0.8-18.8,24.4-20.3,34
								c-1.8,10.6-4.7,34,10.2,34c10.3,0,14.1-13.8,15.2-20.9h-12.9l3.1-19H1198.4z"/>
						</g>
					</g>
					<g>
						<g>
							<path class="st4" d="M1236.3,616.7l-16.1,102.1H1200l16.1-102.1H1236.3z"/>
						</g>
					</g>
					<g>
						<g>
							<path class="st4" d="M1266.3,616.7l4.5,49c0.8,5.8,0.5,11.7,0.9,17.5h0.3c2-6,3.3-11.8,5.8-17.7l20.1-48.8h21.1l-44.4,102.1
								H1258l-13.4-102.1H1266.3z"/>
						</g>
					</g>
					<g>
						<g>
							<path class="st4" d="M1347.4,616.7l-16.1,102.1h-20.2l16.1-102.1H1347.4z"/>
						</g>
					</g>
					<g>
						<g>
							<path class="st4" d="M1381.2,616.7l15.4,61.6l0.4-0.3c-0.5-4.9,0-10.2,0.8-15.4l7.2-45.9h20.2l-16.1,102.1H1390l-15.2-61.6
								l-0.3,0.3l-0.7,10.3l-0.5,4.2l-7.5,46.9h-20.2l16.1-102.1H1381.2z"/>
						</g>
					</g>
					<g>
						<g>
							<path class="st4" d="M1497.9,661.9l-1.4,8c-3.4,21.7-13.3,50.5-40.8,50.5c-27.5,0-31.7-29.5-28.2-52.2
								c3.8-23.6,16-53.2,44.8-53.2c15.6,0,24.2,9.8,26.3,24.2l-20.9,7.6c-0.1-5.1-0.5-13.1-8.3-13.1c-13.5-0.8-18.8,24.4-20.3,34
								c-1.8,10.6-4.7,34,10.2,34c10.3,0,14.1-13.8,15.2-20.9h-12.9l3.1-19H1497.9z"/>
						</g>
					</g>
					<g>
						<g>
							<path class="st4" d="M1536.4,718.8l16.1-102.1h20.3c12.9,0,35.8,1.4,31.3,29.3c-1.8,11.2-7.7,20.9-18.7,26.4l10.4,46.5h-21.3
								l-10.3-47.1h-0.3l-7.5,47.1H1536.4z M1565.8,660.6l3.5,0.1c9.2,0,13.8-6.2,15.2-14.6c1.2-7.3-1.4-13.3-11.7-12.7h-2.7
								L1565.8,660.6z"/>
						</g>
					</g>
					<g>
						<g>
							<path class="st4" d="M1644,616.7l-10.4,66.1c-1.2,7.7-4.1,19.4,6.9,19.4c9.9,0,11.1-7.5,12.5-15l11.1-70.4h20.2l-11.8,74.5
								c-1.6,10.8-5.8,29.3-35,29.3c-18.8,0-28.7-8.8-25.6-27.9l11.9-75.9H1644z"/>
						</g>
					</g>
					<g>
						<g>
							<path class="st4" d="M1717.4,616.7l15.4,61.6l0.4-0.3c-0.5-4.9,0-10.2,0.8-15.4l7.2-45.9h20.2l-16.1,102.1h-19.1l-15.2-61.6
								l-0.3,0.3l-0.7,10.3l-0.5,4.2l-7.5,46.9h-20.2l16.1-102.1H1717.4z"/>
						</g>
					</g>
				</g>
			</g>
		</g>
		<g style="clip-path:url(#SVGID_00000031202767661098890660000012035606391651338637_);">
			<g>
				<g>
					<g>
						<g>
							<path class="st4" d="M1154.4,751.2l-3,19h-16l-13.1,83.2h-20.2l13.1-83.2h-15.8l3-19H1154.4z"/>
						</g>
					</g>
					<g>
						<g>
							<path class="st4" d="M1183.8,751.2l-6.2,40h20.5l6.2-40h20.2l-16.1,102.1h-20.2l6.9-43.2h-20.5l-6.9,43.2h-20.2l16.1-102.1
								H1183.8z"/>
						</g>
					</g>
					<g>
						<g>
							<path class="st4" d="M1277.7,751.2l8.4,102.1h-21.5l-1.1-17.2H1243l-6.4,17.2h-20l39.8-102.1H1277.7z M1262.2,792.9l0.1-15.4
								h-0.3l-4.6,15.4l-8.7,27.2h14.2L1262.2,792.9z"/>
						</g>
					</g>
					<g>
						<g>
							<path class="st4" d="M1329.7,751.2l15.4,61.6l0.4-0.3c-0.5-4.9,0-10.2,0.8-15.4l7.2-45.9h20.2l-16.1,102.1h-19.1l-15.2-61.6
								l-0.3,0.3l-0.7,10.3l-0.5,4.2l-7.5,46.9h-20.2l16.1-102.1H1329.7z"/>
						</g>
					</g>
					<g>
						<g>
							<path class="st4" d="M1408.1,751.2l-7.2,45.7h0.3l24-45.7h20.6l-26.3,47.1l12.6,55h-21.3l-10.3-52h-0.3l-8.3,52h-20.2
								l16.1-102.1H1408.1z"/>
						</g>
					</g>
					<g>
						<g>
							<path class="st4" d="M1495.8,774.2c-3.4-3.5-8-6.5-13.5-6.5c-6.2,0-10.7,3.8-11.8,10c-2.6,16.8,28,17.7,23.6,45.4
								c-2.8,18.2-15.4,31.8-34.4,31.8c-5.7,0-12.5-1.8-16.5-5.1l3.1-19.2c4.2,3.3,8.4,5.4,14.4,5.4c6.5,0,12.3-4.3,13.4-11.1
								c1.2-7.9-4.5-10.8-9.5-14.9c-10.4-7.9-16.4-15.4-14.1-30.3c2.6-16.1,14.1-30.1,31.4-30.1c6.5,0,12.1,1.8,17.1,5L1495.8,774.2
								z"/>
						</g>
					</g>
					<g>
						<g>
							<path class="st4" d="M1591,751.2l-3,19h-20.6l-3.4,21.8h18.6l-3,19h-18.6l-6.8,42.4h-20.2l16.1-102.1H1591z"/>
						</g>
					</g>
					<g>
						<g>
							<path class="st4" d="M1663.8,802.3c-6.1,38.3-26.3,52.7-44.3,52.7c-18,0-33.6-14.4-27.5-52.7c6.1-38.3,26.1-52.7,44.2-52.7
								C1654.2,749.6,1669.9,763.9,1663.8,802.3z M1622.5,836.3c13.4,0,18.4-25.9,19.8-34c1.4-9.1,4.3-34-9.1-34
								c-13.4,0-18.3,24.9-19.6,34C1612.2,810.4,1609.1,836.3,1622.5,836.3z"/>
						</g>
					</g>
					<g>
						<g>
							<path class="st4" d="M1666.4,853.3l16.1-102.1h20.3c12.9,0,35.8,1.4,31.3,29.3c-1.8,11.2-7.7,20.9-18.7,26.4l10.4,46.5h-21.3
								l-10.3-47.1h-0.3l-7.5,47.1H1666.4z M1695.8,795.1l3.5,0.1c9.2,0,13.8-6.2,15.2-14.6c1.2-7.3-1.4-13.3-11.7-12.7h-2.7
								L1695.8,795.1z"/>
						</g>
					</g>
					<g>
						<g>
							<path class="st4" d="M1158.4,931.9l-1.4,8c-3.4,21.7-13.3,50.5-40.8,50.5c-27.5,0-31.7-29.5-28.2-52.2
								c3.8-23.6,16-53.2,44.8-53.2c15.6,0,24.3,9.8,26.3,24.2l-20.9,7.6c-0.1-5.1-0.5-13.1-8.3-13.1c-13.5-0.8-18.8,24.4-20.3,34
								c-1.8,10.6-4.7,34,10.2,34c10.3,0,14.1-13.8,15.2-20.9h-12.9l3.1-19H1158.4z"/>
						</g>
					</g>
					<g>
						<g>
							<path class="st4" d="M1196.3,886.7l-16.1,102.1H1160l16.1-102.1H1196.3z"/>
						</g>
					</g>
					<g>
						<g>
							<path class="st4" d="M1226.3,886.7l4.5,49c0.8,5.8,0.5,11.7,0.9,17.5h0.3c2-6,3.3-11.8,5.8-17.7l20.1-48.8h21.1l-44.4,102.1
								H1218l-13.4-102.1H1226.3z"/>
						</g>
					</g>
					<g>
						<g>
							<path class="st4" d="M1307.4,886.7l-16.1,102.1h-20.2l16.1-102.1H1307.4z"/>
						</g>
					</g>
					<g>
						<g>
							<path class="st4" d="M1341.2,886.7l15.4,61.6l0.4-0.3c-0.5-4.9,0-10.2,0.8-15.4l7.2-45.9h20.2l-16.1,102.1H1350l-15.2-61.6
								l-0.3,0.3l-0.7,10.3l-0.5,4.2l-7.5,46.9h-20.2l16.1-102.1H1341.2z"/>
						</g>
					</g>
					<g>
						<g>
							<path class="st4" d="M1457.9,931.9l-1.4,8c-3.4,21.7-13.3,50.5-40.8,50.5c-27.5,0-31.7-29.5-28.2-52.2
								c3.8-23.6,16-53.2,44.8-53.2c15.6,0,24.2,9.8,26.3,24.2l-20.9,7.6c-0.1-5.1-0.5-13.1-8.3-13.1c-13.5-0.8-18.8,24.4-20.3,34
								c-1.8,10.6-4.7,34,10.2,34c10.3,0,14.1-13.8,15.2-20.9h-12.9l3.1-19H1457.9z"/>
						</g>
					</g>
					<g>
						<g>
							<path class="st4" d="M1496.4,988.8l16.1-102.1h20.3c12.9,0,35.8,1.4,31.3,29.3c-1.8,11.2-7.7,20.9-18.7,26.4l10.4,46.5h-21.3
								l-10.3-47.1h-0.3l-7.5,47.1H1496.4z M1525.8,930.6l3.5,0.1c9.2,0,13.8-6.2,15.2-14.6c1.2-7.3-1.4-13.3-11.7-12.7h-2.7
								L1525.8,930.6z"/>
						</g>
					</g>
					<g>
						<g>
							<path class="st4" d="M1604,886.7l-10.4,66.1c-1.2,7.7-4.1,19.4,6.9,19.4c9.9,0,11.1-7.5,12.5-15l11.1-70.4h20.2l-11.8,74.5
								c-1.6,10.8-5.8,29.3-35,29.3c-18.8,0-28.7-8.8-25.6-27.9l11.9-75.9H1604z"/>
						</g>
					</g>
					<g>
						<g>
							<path class="st4" d="M1677.4,886.7l15.4,61.6l0.4-0.3c-0.5-4.9,0-10.2,0.8-15.4l7.2-45.9h20.2l-16.1,102.1h-19.1l-15.2-61.6
								l-0.3,0.3l-0.7,10.3l-0.5,4.2l-7.5,46.9h-20.2l16.1-102.1H1677.4z"/>
						</g>
					</g>
				</g>
			</g>
		</g>
		<g style="clip-path:url(#SVGID_00000031202767661098890660000012035606391651338637_);">
			<g>
				<g>
					<g>
						<g>
							<path class="st4" d="M1114.4,1021.2l-3,19h-16l-13.1,83.2h-20.2l13.1-83.2h-15.8l3-19H1114.4z"/>
						</g>
					</g>
					<g>
						<g>
							<path class="st4" d="M1143.8,1021.2l-6.2,40h20.5l6.2-40h20.2l-16.1,102.1h-20.2l6.9-43.2h-20.5l-6.9,43.2h-20.2l16.1-102.1
								H1143.8z"/>
						</g>
					</g>
					<g>
						<g>
							<path class="st4" d="M1237.7,1021.2l8.4,102.1h-21.5l-1.1-17.2H1203l-6.4,17.2h-20l39.8-102.1H1237.7z M1222.2,1062.9
								l0.1-15.4h-0.3l-4.6,15.4l-8.7,27.2h14.2L1222.2,1062.9z"/>
						</g>
					</g>
					<g>
						<g>
							<path class="st4" d="M1289.7,1021.2l15.4,61.6l0.4-0.3c-0.5-4.9,0-10.2,0.8-15.4l7.2-45.9h20.2l-16.1,102.1h-19.1l-15.2-61.6
								l-0.3,0.3l-0.7,10.3l-0.5,4.2l-7.5,46.9h-20.2l16.1-102.1H1289.7z"/>
						</g>
					</g>
					<g>
						<g>
							<path class="st4" d="M1368.1,1021.2l-7.2,45.7h0.3l24-45.7h20.6l-26.3,47.1l12.6,55h-21.3l-10.3-52h-0.3l-8.3,52h-20.2
								l16.1-102.1H1368.1z"/>
						</g>
					</g>
					<g>
						<g>
							<path class="st4" d="M1455.8,1044.2c-3.4-3.5-8-6.5-13.5-6.5c-6.2,0-10.7,3.8-11.8,10c-2.6,16.8,28,17.7,23.6,45.4
								c-2.8,18.2-15.4,31.8-34.4,31.8c-5.7,0-12.5-1.8-16.5-5.1l3.1-19.2c4.2,3.3,8.4,5.4,14.4,5.4c6.5,0,12.3-4.3,13.4-11.1
								c1.2-7.9-4.5-10.8-9.5-14.9c-10.4-7.9-16.4-15.4-14.1-30.3c2.6-16.1,14.1-30.1,31.4-30.1c6.5,0,12.1,1.8,17.1,5
								L1455.8,1044.2z"/>
						</g>
					</g>
					<g>
						<g>
							<path class="st4" d="M1551,1021.2l-3,19h-20.6l-3.4,21.8h18.6l-3,19h-18.6l-6.8,42.4h-20.2l16.1-102.1H1551z"/>
						</g>
					</g>
					<g>
						<g>
							<path class="st4" d="M1623.8,1072.3c-6.1,38.3-26.3,52.7-44.3,52.7c-18,0-33.6-14.4-27.5-52.7c6.1-38.3,26.1-52.7,44.2-52.7
								C1614.2,1019.6,1629.9,1033.9,1623.8,1072.3z M1582.5,1106.3c13.4,0,18.4-25.9,19.8-34c1.4-9.1,4.3-34-9.1-34
								c-13.4,0-18.3,24.9-19.6,34C1572.2,1080.4,1569.1,1106.3,1582.5,1106.3z"/>
						</g>
					</g>
					<g>
						<g>
							<path class="st4" d="M1626.4,1123.3l16.1-102.1h20.3c12.9,0,35.8,1.4,31.3,29.3c-1.8,11.2-7.7,20.9-18.7,26.4l10.4,46.5
								h-21.3l-10.3-47.1h-0.3l-7.5,47.1H1626.4z M1655.8,1065.1l3.5,0.1c9.2,0,13.8-6.2,15.2-14.6c1.2-7.3-1.4-13.3-11.7-12.7h-2.7
								L1655.8,1065.1z"/>
						</g>
					</g>
					<g>
						<g>
							<path class="st4" d="M1118.4,1201.9l-1.4,8c-3.4,21.7-13.3,50.5-40.8,50.5c-27.5,0-31.7-29.5-28.2-52.2
								c3.8-23.6,16-53.2,44.8-53.2c15.6,0,24.3,9.8,26.3,24.2l-20.9,7.6c-0.1-5.1-0.5-13.1-8.3-13.1c-13.5-0.8-18.8,24.4-20.3,34
								c-1.8,10.6-4.7,34,10.2,34c10.3,0,14.1-13.8,15.2-20.9h-12.9l3.1-19H1118.4z"/>
						</g>
					</g>
					<g>
						<g>
							<path class="st4" d="M1156.3,1156.7l-16.1,102.1H1120l16.1-102.1H1156.3z"/>
						</g>
					</g>
					<g>
						<g>
							<path class="st4" d="M1186.3,1156.7l4.5,49c0.8,5.8,0.5,11.7,0.9,17.5h0.3c2-6,3.3-11.8,5.8-17.7l20.1-48.8h21.1l-44.4,102.1
								H1178l-13.4-102.1H1186.3z"/>
						</g>
					</g>
					<g>
						<g>
							<path class="st4" d="M1267.4,1156.7l-16.1,102.1h-20.2l16.1-102.1H1267.4z"/>
						</g>
					</g>
					<g>
						<g>
							<path class="st4" d="M1301.2,1156.7l15.4,61.6l0.4-0.3c-0.5-4.9,0-10.2,0.8-15.4l7.2-45.9h20.2l-16.1,102.1H1310l-15.2-61.6
								l-0.3,0.3l-0.7,10.3l-0.5,4.2l-7.5,46.9h-20.2l16.1-102.1H1301.2z"/>
						</g>
					</g>
					<g>
						<g>
							<path class="st4" d="M1417.9,1201.9l-1.4,8c-3.4,21.7-13.3,50.5-40.8,50.5c-27.5,0-31.7-29.5-28.2-52.2
								c3.8-23.6,16-53.2,44.8-53.2c15.6,0,24.2,9.8,26.3,24.2l-20.9,7.6c-0.1-5.1-0.5-13.1-8.3-13.1c-13.5-0.8-18.8,24.4-20.3,34
								c-1.8,10.6-4.7,34,10.2,34c10.3,0,14.1-13.8,15.2-20.9h-12.9l3.1-19H1417.9z"/>
						</g>
					</g>
					<g>
						<g>
							<path class="st4" d="M1456.4,1258.8l16.1-102.1h20.3c12.9,0,35.8,1.4,31.3,29.3c-1.8,11.2-7.7,20.9-18.7,26.4l10.4,46.5
								h-21.3l-10.3-47.1h-0.3l-7.5,47.1H1456.4z M1485.8,1200.6l3.5,0.1c9.2,0,13.8-6.2,15.2-14.6c1.2-7.3-1.4-13.3-11.7-12.7h-2.7
								L1485.8,1200.6z"/>
						</g>
					</g>
					<g>
						<g>
							<path class="st4" d="M1564,1156.7l-10.4,66.1c-1.2,7.7-4.1,19.4,6.9,19.4c9.9,0,11.1-7.5,12.5-15l11.1-70.4h20.2l-11.8,74.5
								c-1.6,10.8-5.8,29.3-35,29.3c-18.8,0-28.7-8.8-25.6-27.9l11.9-75.9H1564z"/>
						</g>
					</g>
					<g>
						<g>
							<path class="st4" d="M1637.4,1156.7l15.4,61.6l0.4-0.3c-0.5-4.9,0-10.2,0.8-15.4l7.2-45.9h20.2l-16.1,102.1h-19.1l-15.2-61.6
								l-0.3,0.3l-0.7,10.3l-0.5,4.2l-7.5,46.9h-20.2l16.1-102.1H1637.4z"/>
						</g>
					</g>
				</g>
			</g>
		</g>
		<g style="clip-path:url(#SVGID_00000031202767661098890660000012035606391651338637_);">
			<g>
				<g>
					<g>
						<g>
							<path class="st4" d="M1234.4,211.2l-3,19h-16l-13.1,83.2h-20.2l13.1-83.2h-15.8l3-19H1234.4z"/>
						</g>
					</g>
					<g>
						<g>
							<path class="st4" d="M1263.8,211.2l-6.2,40h20.5l6.2-40h20.2l-16.1,102.1h-20.2l6.9-43.2h-20.5l-6.9,43.2h-20.2l16.1-102.1
								H1263.8z"/>
						</g>
					</g>
					<g>
						<g>
							<path class="st4" d="M1357.7,211.2l8.4,102.1h-21.5l-1.1-17.2H1323l-6.4,17.2h-20l39.8-102.1H1357.7z M1342.2,252.9l0.1-15.4
								h-0.3l-4.6,15.4l-8.7,27.2h14.2L1342.2,252.9z"/>
						</g>
					</g>
					<g>
						<g>
							<path class="st4" d="M1409.7,211.2l15.4,61.6l0.4-0.3c-0.5-4.9,0-10.2,0.8-15.4l7.2-45.9h20.2l-16.1,102.1h-19.1l-15.2-61.6
								l-0.3,0.3l-0.7,10.3l-0.5,4.2l-7.5,46.9h-20.2l16.1-102.1H1409.7z"/>
						</g>
					</g>
					<g>
						<g>
							<path class="st4" d="M1488.1,211.2l-7.2,45.7h0.3l24-45.7h20.6l-26.3,47.1l12.6,55h-21.3l-10.3-52h-0.3l-8.3,52h-20.2
								l16.1-102.1H1488.1z"/>
						</g>
					</g>
					<g>
						<g>
							<path class="st4" d="M1575.8,234.2c-3.4-3.5-8-6.5-13.5-6.5c-6.2,0-10.7,3.8-11.8,10c-2.6,16.8,28,17.7,23.6,45.4
								c-2.8,18.2-15.4,31.8-34.4,31.8c-5.7,0-12.5-1.8-16.5-5.1l3.1-19.2c4.2,3.3,8.4,5.4,14.4,5.4c6.5,0,12.3-4.3,13.4-11.1
								c1.2-7.9-4.5-10.8-9.5-14.9c-10.4-7.9-16.4-15.4-14.1-30.3c2.6-16.1,14.1-30.1,31.4-30.1c6.5,0,12.1,1.8,17.1,5L1575.8,234.2
								z"/>
						</g>
					</g>
					<g>
						<g>
							<path class="st4" d="M1671,211.2l-3,19h-20.6l-3.4,21.8h18.6l-3,19h-18.6l-6.8,42.4h-20.2l16.1-102.1H1671z"/>
						</g>
					</g>
					<g>
						<g>
							<path class="st4" d="M1743.8,262.3c-6.1,38.3-26.3,52.7-44.3,52.7c-18,0-33.6-14.4-27.5-52.7c6.1-38.3,26.1-52.7,44.2-52.7
								C1734.2,209.6,1749.9,223.9,1743.8,262.3z M1702.5,296.3c13.4,0,18.4-25.9,19.8-34c1.4-9.1,4.3-34-9.1-34
								c-13.4,0-18.3,24.9-19.6,34C1692.2,270.4,1689.1,296.3,1702.5,296.3z"/>
						</g>
					</g>
					<g>
						<g>
							<path class="st4" d="M1746.4,313.3l16.1-102.1h20.3c12.9,0,35.8,1.4,31.3,29.3c-1.8,11.2-7.7,20.9-18.7,26.4l10.4,46.5h-21.3
								l-10.3-47.1h-0.3l-7.5,47.1H1746.4z M1775.8,255.1l3.5,0.1c9.2,0,13.8-6.2,15.2-14.6c1.2-7.3-1.4-13.3-11.7-12.7h-2.7
								L1775.8,255.1z"/>
						</g>
					</g>
					<g>
						<g>
							<path class="st4" d="M1238.4,391.9l-1.4,8c-3.4,21.7-13.3,50.5-40.8,50.5c-27.5,0-31.7-29.5-28.2-52.2
								c3.8-23.6,16-53.2,44.8-53.2c15.6,0,24.3,9.8,26.3,24.2l-20.9,7.6c-0.1-5.1-0.5-13.1-8.3-13.1c-13.5-0.8-18.8,24.4-20.3,34
								c-1.8,10.6-4.7,34,10.2,34c10.3,0,14.1-13.8,15.2-20.9h-12.9l3.1-19H1238.4z"/>
						</g>
					</g>
					<g>
						<g>
							<path class="st4" d="M1276.3,346.7l-16.1,102.1H1240l16.1-102.1H1276.3z"/>
						</g>
					</g>
					<g>
						<g>
							<path class="st4" d="M1306.3,346.7l4.5,49c0.8,5.8,0.5,11.7,0.9,17.5h0.3c2-6,3.3-11.8,5.8-17.7l20.1-48.8h21.1l-44.4,102.1
								H1298l-13.4-102.1H1306.3z"/>
						</g>
					</g>
					<g>
						<g>
							<path class="st4" d="M1387.4,346.7l-16.1,102.1h-20.2l16.1-102.1H1387.4z"/>
						</g>
					</g>
					<g>
						<g>
							<path class="st4" d="M1421.2,346.7l15.4,61.6l0.4-0.3c-0.5-4.9,0-10.2,0.8-15.4l7.2-45.9h20.2l-16.1,102.1H1430l-15.2-61.6
								l-0.3,0.3l-0.7,10.3l-0.5,4.2l-7.5,46.9h-20.2l16.1-102.1H1421.2z"/>
						</g>
					</g>
					<g>
						<g>
							<path class="st4" d="M1537.9,391.9l-1.4,8c-3.4,21.7-13.3,50.5-40.8,50.5c-27.5,0-31.7-29.5-28.2-52.2
								c3.8-23.6,16-53.2,44.8-53.2c15.6,0,24.2,9.8,26.3,24.2l-20.9,7.6c-0.1-5.1-0.5-13.1-8.3-13.1c-13.5-0.8-18.8,24.4-20.3,34
								c-1.8,10.6-4.7,34,10.2,34c10.3,0,14.1-13.8,15.2-20.9h-12.9l3.1-19H1537.9z"/>
						</g>
					</g>
					<g>
						<g>
							<path class="st4" d="M1576.4,448.8l16.1-102.1h20.3c12.9,0,35.8,1.4,31.3,29.3c-1.8,11.2-7.7,20.9-18.7,26.4l10.4,46.5h-21.3
								l-10.3-47.1h-0.3l-7.5,47.1H1576.4z M1605.8,390.6l3.5,0.1c9.2,0,13.8-6.2,15.2-14.6c1.2-7.3-1.4-13.3-11.7-12.7h-2.7
								L1605.8,390.6z"/>
						</g>
					</g>
					<g>
						<g>
							<path class="st4" d="M1684,346.7l-10.4,66.1c-1.2,7.7-4.1,19.4,6.9,19.4c9.9,0,11.1-7.5,12.5-15l11.1-70.4h20.2l-11.8,74.5
								c-1.6,10.8-5.8,29.3-35,29.3c-18.8,0-28.7-8.8-25.6-27.9l11.9-75.9H1684z"/>
						</g>
					</g>
					<g>
						<g>
							<path class="st4" d="M1757.4,346.7l15.4,61.6l0.4-0.3c-0.5-4.9,0-10.2,0.8-15.4l7.2-45.9h20.2l-16.1,102.1h-19.1l-15.2-61.6
								l-0.3,0.3l-0.7,10.3l-0.5,4.2l-7.5,46.9h-20.2l16.1-102.1H1757.4z"/>
						</g>
					</g>
				</g>
			</g>
		</g>
		<g style="clip-path:url(#SVGID_00000031202767661098890660000012035606391651338637_);">
			<g>
				<g>
					<g>
						<g>
							<path class="st4" d="M1274.4-58.8l-3,19h-16l-13.1,83.2h-20.2l13.1-83.2h-15.8l3-19H1274.4z"/>
						</g>
					</g>
					<g>
						<g>
							<path class="st4" d="M1303.8-58.8l-6.2,40h20.5l6.2-40h20.2l-16.1,102.1h-20.2l6.9-43.2h-20.5l-6.9,43.2h-20.2l16.1-102.1
								H1303.8z"/>
						</g>
					</g>
					<g>
						<g>
							<path class="st4" d="M1397.7-58.8l8.4,102.1h-21.5l-1.1-17.2H1363l-6.4,17.2h-20l39.8-102.1H1397.7z M1382.2-17.1l0.1-15.4
								h-0.3l-4.6,15.4l-8.7,27.2h14.2L1382.2-17.1z"/>
						</g>
					</g>
					<g>
						<g>
							<path class="st4" d="M1449.7-58.8l15.4,61.6l0.4-0.3c-0.5-4.9,0-10.2,0.8-15.4l7.2-45.9h20.2l-16.1,102.1h-19.1l-15.2-61.6
								l-0.3,0.3l-0.7,10.3l-0.5,4.2l-7.5,46.9h-20.2l16.1-102.1H1449.7z"/>
						</g>
					</g>
					<g>
						<g>
							<path class="st4" d="M1528.1-58.8l-7.2,45.7h0.3l24-45.7h20.6l-26.3,47.1l12.6,55h-21.3l-10.3-52h-0.3l-8.3,52h-20.2
								L1508-58.8H1528.1z"/>
						</g>
					</g>
					<g>
						<g>
							<path class="st4" d="M1615.8-35.8c-3.4-3.5-8-6.5-13.5-6.5c-6.2,0-10.7,3.8-11.8,10c-2.6,16.8,28,17.7,23.6,45.4
								c-2.8,18.2-15.4,31.8-34.4,31.8c-5.7,0-12.5-1.8-16.5-5.1l3.1-19.2c4.2,3.3,8.4,5.4,14.4,5.4c6.5,0,12.3-4.3,13.4-11.1
								c1.2-7.9-4.5-10.8-9.5-14.9c-10.4-7.9-16.4-15.4-14.1-30.3c2.6-16.1,14.1-30.1,31.4-30.1c6.5,0,12.1,1.8,17.1,5L1615.8-35.8z
								"/>
						</g>
					</g>
					<g>
						<g>
							<path class="st4" d="M1711-58.8l-3,19h-20.6l-3.4,21.8h18.6l-3,19h-18.6l-6.8,42.4h-20.2l16.1-102.1H1711z"/>
						</g>
					</g>
					<g>
						<g>
							<path class="st4" d="M1783.8-7.7c-6.1,38.3-26.3,52.7-44.3,52.7c-18,0-33.6-14.4-27.5-52.7c6.1-38.3,26.1-52.7,44.2-52.7
								C1774.2-60.4,1789.9-46.1,1783.8-7.7z M1742.5,26.3c13.4,0,18.4-25.9,19.8-34c1.4-9.1,4.3-34-9.1-34
								c-13.4,0-18.3,24.9-19.6,34C1732.2,0.4,1729.1,26.3,1742.5,26.3z"/>
						</g>
					</g>
					<g>
						<g>
							<path class="st4" d="M1786.4,43.3l16.1-102.1h20.3c12.9,0,35.8,1.4,31.3,29.3c-1.8,11.2-7.7,20.9-18.7,26.4l10.4,46.5h-21.3
								l-10.3-47.1h-0.3l-7.5,47.1H1786.4z M1815.8-14.9l3.5,0.1c9.2,0,13.8-6.2,15.2-14.6c1.2-7.3-1.4-13.3-11.7-12.7h-2.7
								L1815.8-14.9z"/>
						</g>
					</g>
					<g>
						<g>
							<path class="st4" d="M1278.4,121.9l-1.4,8c-3.4,21.7-13.3,50.5-40.8,50.5c-27.5,0-31.7-29.5-28.2-52.2
								c3.8-23.6,16-53.2,44.8-53.2c15.6,0,24.3,9.8,26.3,24.2l-20.9,7.6c-0.1-5.1-0.5-13.1-8.3-13.1c-13.5-0.8-18.8,24.4-20.3,34
								c-1.8,10.6-4.7,34,10.2,34c10.3,0,14.1-13.8,15.2-20.9h-12.9l3.1-19H1278.4z"/>
						</g>
					</g>
					<g>
						<g>
							<path class="st4" d="M1316.3,76.7l-16.1,102.1H1280l16.1-102.1H1316.3z"/>
						</g>
					</g>
					<g>
						<g>
							<path class="st4" d="M1346.3,76.7l4.5,49c0.8,5.8,0.5,11.7,0.9,17.5h0.3c2-6,3.3-11.8,5.8-17.7l20.1-48.8h21.1l-44.4,102.1
								H1338l-13.4-102.1H1346.3z"/>
						</g>
					</g>
					<g>
						<g>
							<path class="st4" d="M1427.4,76.7l-16.1,102.1h-20.2l16.1-102.1H1427.4z"/>
						</g>
					</g>
					<g>
						<g>
							<path class="st4" d="M1461.2,76.7l15.4,61.6l0.4-0.3c-0.5-4.9,0-10.2,0.8-15.4l7.2-45.9h20.2l-16.1,102.1H1470l-15.2-61.6
								l-0.3,0.3l-0.7,10.3l-0.5,4.2l-7.5,46.9h-20.2l16.1-102.1H1461.2z"/>
						</g>
					</g>
					<g>
						<g>
							<path class="st4" d="M1577.9,121.9l-1.4,8c-3.4,21.7-13.3,50.5-40.8,50.5c-27.5,0-31.7-29.5-28.2-52.2
								c3.8-23.6,16-53.2,44.8-53.2c15.6,0,24.2,9.8,26.3,24.2l-20.9,7.6c-0.1-5.1-0.5-13.1-8.3-13.1c-13.5-0.8-18.8,24.4-20.3,34
								c-1.8,10.6-4.7,34,10.2,34c10.3,0,14.1-13.8,15.2-20.9h-12.9l3.1-19H1577.9z"/>
						</g>
					</g>
					<g>
						<g>
							<path class="st4" d="M1616.4,178.8l16.1-102.1h20.3c12.9,0,35.8,1.4,31.3,29.3c-1.8,11.2-7.7,20.9-18.7,26.4l10.4,46.5h-21.3
								l-10.3-47.1h-0.3l-7.5,47.1H1616.4z M1645.8,120.6l3.5,0.1c9.2,0,13.8-6.2,15.2-14.6c1.2-7.3-1.4-13.3-11.7-12.7h-2.7
								L1645.8,120.6z"/>
						</g>
					</g>
					<g>
						<g>
							<path class="st4" d="M1724,76.7l-10.4,66.1c-1.2,7.7-4.1,19.4,6.9,19.4c9.9,0,11.1-7.5,12.5-15l11.1-70.4h20.2l-11.8,74.5
								c-1.6,10.8-5.8,29.3-35,29.3c-18.8,0-28.7-8.8-25.6-27.9l11.9-75.9H1724z"/>
						</g>
					</g>
					<g>
						<g>
							<path class="st4" d="M1797.4,76.7l15.4,61.6l0.4-0.3c-0.5-4.9,0-10.2,0.8-15.4l7.2-45.9h20.2l-16.1,102.1h-19.1l-15.2-61.6
								l-0.3,0.3l-0.7,10.3l-0.5,4.2l-7.5,46.9h-20.2L1778,76.7H1797.4z"/>
						</g>
					</g>
				</g>
			</g>
		</g>
		<g style="clip-path:url(#SVGID_00000031202767661098890660000012035606391651338637_);">
			<g>
				<g>
					<g>
						<g>
							<path class="st4" d="M-114.9,481.2l-3,19h-16l-13.1,83.2h-20.2l13.1-83.2h-15.9l3-19H-114.9z"/>
						</g>
					</g>
					<g>
						<g>
							<path class="st4" d="M-85.5,481.2l-6.2,40h20.5l6.2-40h20.2L-61,583.3h-20.2l6.9-43.2h-20.5l-6.9,43.2h-20.2l16.1-102.1
								H-85.5z"/>
						</g>
					</g>
					<g>
						<g>
							<path class="st4" d="M8.4,481.2l8.4,102.1H-4.8l-1.1-17.2h-20.5l-6.4,17.2h-20l39.8-102.1H8.4z M-7.1,522.9l0.1-15.4h-0.3
								l-4.6,15.4l-8.7,27.2h14.2L-7.1,522.9z"/>
						</g>
					</g>
					<g>
						<g>
							<path class="st4" d="M60.4,481.2l15.4,61.6l0.4-0.3c-0.5-4.9,0-10.2,0.8-15.4l7.2-45.9h20.2L88.3,583.3H69.2L54,521.7
								l-0.3,0.3l-0.7,10.3l-0.5,4.2l-7.5,46.9H24.9L41,481.2H60.4z"/>
						</g>
					</g>
					<g>
						<g>
							<path class="st4" d="M138.8,481.2l-7.2,45.7h0.3l24-45.7h20.6l-26.3,47.1l12.6,55h-21.3l-10.3-52H131l-8.3,52h-20.2
								l16.1-102.1H138.8z"/>
						</g>
					</g>
					<g>
						<g>
							<path class="st4" d="M226.5,504.2c-3.4-3.5-8-6.5-13.5-6.5c-6.2,0-10.7,3.8-11.8,10c-2.6,16.8,28,17.7,23.6,45.4
								c-2.8,18.2-15.4,31.8-34.4,31.8c-5.7,0-12.5-1.8-16.5-5.1l3.1-19.2c4.2,3.3,8.4,5.4,14.4,5.4c6.5,0,12.3-4.3,13.4-11.1
								c1.2-7.9-4.5-10.8-9.5-14.9c-10.4-7.9-16.4-15.4-14.1-30.3c2.6-16.1,14.1-30.1,31.4-30.1c6.5,0,12.1,1.8,17.1,5L226.5,504.2z
								"/>
						</g>
					</g>
					<g>
						<g>
							<path class="st4" d="M321.7,481.2l-3,19h-20.6l-3.4,21.8h18.6l-3,19h-18.6l-6.8,42.4h-20.2L281,481.2H321.7z"/>
						</g>
					</g>
					<g>
						<g>
							<path class="st4" d="M394.5,532.3c-6.1,38.3-26.3,52.7-44.3,52.7c-18,0-33.6-14.4-27.5-52.7c6.1-38.3,26.1-52.7,44.2-52.7
								S400.6,493.9,394.5,532.3z M353.2,566.3c13.4,0,18.4-25.9,19.8-34c1.4-9.1,4.3-34-9.1-34c-13.4,0-18.3,24.9-19.6,34
								C342.9,540.4,339.8,566.3,353.2,566.3z"/>
						</g>
					</g>
					<g>
						<g>
							<path class="st4" d="M397.1,583.3l16.1-102.1h20.3c12.9,0,35.8,1.4,31.3,29.3c-1.8,11.2-7.7,20.9-18.7,26.4l10.4,46.5h-21.3
								L425,536.2h-0.3l-7.5,47.1H397.1z M426.5,525.1l3.5,0.1c9.2,0,13.8-6.2,15.2-14.6c1.2-7.3-1.4-13.3-11.7-12.7h-2.7
								L426.5,525.1z"/>
						</g>
					</g>
					<g>
						<g>
							<path class="st4" d="M-110.9,661.9l-1.4,8c-3.4,21.7-13.3,50.5-40.8,50.5c-27.5,0-31.7-29.5-28.2-52.2
								c3.8-23.6,16-53.2,44.8-53.2c15.6,0,24.3,9.8,26.3,24.2l-20.9,7.6c-0.1-5.1-0.5-13.1-8.3-13.1c-13.5-0.8-18.8,24.4-20.3,34
								c-1.8,10.6-4.7,34,10.2,34c10.3,0,14.1-13.8,15.2-20.9h-12.9l3.1-19H-110.9z"/>
						</g>
					</g>
					<g>
						<g>
							<path class="st4" d="M-73,616.7l-16.1,102.1h-20.2l16.1-102.1H-73z"/>
						</g>
					</g>
					<g>
						<g>
							<path class="st4" d="M-43,616.7l4.5,49c0.8,5.8,0.5,11.7,0.9,17.5h0.3c2-6,3.3-11.8,5.8-17.7l20.1-48.8H9.7l-44.4,102.1
								h-16.5l-13.4-102.1H-43z"/>
						</g>
					</g>
					<g>
						<g>
							<path class="st4" d="M38.1,616.7L22,718.8H1.8l16.1-102.1H38.1z"/>
						</g>
					</g>
					<g>
						<g>
							<path class="st4" d="M71.9,616.7l15.4,61.6l0.4-0.3c-0.5-4.9,0-10.2,0.8-15.4l7.2-45.9h20.2L99.8,718.8H80.7l-15.2-61.6
								l-0.3,0.3l-0.7,10.3l-0.5,4.2l-7.5,46.9H36.4l16.1-102.1H71.9z"/>
						</g>
					</g>
					<g>
						<g>
							<path class="st4" d="M188.6,661.9l-1.4,8c-3.4,21.7-13.3,50.5-40.8,50.5c-27.5,0-31.7-29.5-28.2-52.2
								c3.8-23.6,16-53.2,44.8-53.2c15.6,0,24.2,9.8,26.3,24.2l-20.9,7.6c-0.1-5.1-0.5-13.1-8.3-13.1c-13.5-0.8-18.8,24.4-20.3,34
								c-1.8,10.6-4.7,34,10.2,34c10.3,0,14.1-13.8,15.2-20.9h-12.9l3.1-19H188.6z"/>
						</g>
					</g>
					<g>
						<g>
							<path class="st4" d="M227.1,718.8l16.1-102.1h20.3c12.9,0,35.8,1.4,31.3,29.3c-1.8,11.2-7.7,20.9-18.7,26.4l10.4,46.5h-21.3
								L255,671.7h-0.3l-7.5,47.1H227.1z M256.5,660.6l3.5,0.1c9.2,0,13.8-6.2,15.2-14.6c1.2-7.3-1.4-13.3-11.7-12.7h-2.7
								L256.5,660.6z"/>
						</g>
					</g>
					<g>
						<g>
							<path class="st4" d="M334.7,616.7l-10.4,66.1c-1.2,7.7-4.1,19.4,6.9,19.4c9.9,0,11.1-7.5,12.5-15l11.1-70.4h20.2l-11.8,74.5
								c-1.6,10.8-5.8,29.3-35,29.3c-18.8,0-28.7-8.8-25.6-27.9l11.9-75.9H334.7z"/>
						</g>
					</g>
					<g>
						<g>
							<path class="st4" d="M408.1,616.7l15.4,61.6l0.4-0.3c-0.5-4.9,0-10.2,0.8-15.4l7.2-45.9h20.2L436,718.8h-19.1l-15.2-61.6
								l-0.3,0.3l-0.7,10.3l-0.5,4.2l-7.5,46.9h-20.2l16.1-102.1H408.1z"/>
						</g>
					</g>
				</g>
			</g>
		</g>
		<g style="clip-path:url(#SVGID_00000031202767661098890660000012035606391651338637_);">
			<g>
				<g>
					<g>
						<g>
							<path class="st4" d="M-154.9,751.2l-3,19h-16l-13.1,83.2h-20.2l13.1-83.2h-15.9l3-19H-154.9z"/>
						</g>
					</g>
					<g>
						<g>
							<path class="st4" d="M-125.5,751.2l-6.2,40h20.5l6.2-40h20.2L-101,853.3h-20.2l6.9-43.2h-20.5l-6.9,43.2h-20.2l16.1-102.1
								H-125.5z"/>
						</g>
					</g>
					<g>
						<g>
							<path class="st4" d="M-31.6,751.2l8.4,102.1h-21.5l-1.1-17.2h-20.5l-6.4,17.2h-20l39.8-102.1H-31.6z M-47.1,792.9l0.1-15.4
								h-0.3l-4.6,15.4l-8.7,27.2h14.2L-47.1,792.9z"/>
						</g>
					</g>
					<g>
						<g>
							<path class="st4" d="M20.4,751.2l15.4,61.6l0.4-0.3c-0.5-4.9,0-10.2,0.8-15.4l7.2-45.9h20.2L48.3,853.3H29.2L14,791.7
								l-0.3,0.3l-0.7,10.3l-0.5,4.2l-7.5,46.9h-20.2L1,751.2H20.4z"/>
						</g>
					</g>
					<g>
						<g>
							<path class="st4" d="M98.8,751.2l-7.2,45.7h0.3l24-45.7h20.6l-26.3,47.1l12.6,55h-21.3l-10.3-52H91l-8.3,52H62.5l16.1-102.1
								H98.8z"/>
						</g>
					</g>
					<g>
						<g>
							<path class="st4" d="M186.5,774.2c-3.4-3.5-8-6.5-13.5-6.5c-6.2,0-10.7,3.8-11.8,10c-2.6,16.8,28,17.7,23.6,45.4
								c-2.8,18.2-15.4,31.8-34.4,31.8c-5.7,0-12.5-1.8-16.5-5.1l3.1-19.2c4.2,3.3,8.4,5.4,14.4,5.4c6.5,0,12.3-4.3,13.4-11.1
								c1.2-7.9-4.5-10.8-9.5-14.9c-10.4-7.9-16.4-15.4-14.1-30.3c2.6-16.1,14.1-30.1,31.4-30.1c6.5,0,12.1,1.8,17.1,5L186.5,774.2z
								"/>
						</g>
					</g>
					<g>
						<g>
							<path class="st4" d="M281.7,751.2l-3,19h-20.6l-3.4,21.8h18.6l-3,19h-18.6l-6.8,42.4h-20.2L241,751.2H281.7z"/>
						</g>
					</g>
					<g>
						<g>
							<path class="st4" d="M354.5,802.3c-6.1,38.3-26.3,52.7-44.3,52.7c-18,0-33.6-14.4-27.5-52.7c6.1-38.3,26.1-52.7,44.2-52.7
								S360.6,763.9,354.5,802.3z M313.2,836.3c13.4,0,18.4-25.9,19.8-34c1.4-9.1,4.3-34-9.1-34c-13.4,0-18.3,24.9-19.6,34
								C302.9,810.4,299.8,836.3,313.2,836.3z"/>
						</g>
					</g>
					<g>
						<g>
							<path class="st4" d="M357.1,853.3l16.1-102.1h20.3c12.9,0,35.8,1.4,31.3,29.3c-1.8,11.2-7.7,20.9-18.7,26.4l10.4,46.5h-21.3
								L385,806.2h-0.3l-7.5,47.1H357.1z M386.5,795.1l3.5,0.1c9.2,0,13.8-6.2,15.2-14.6c1.2-7.3-1.4-13.3-11.7-12.7h-2.7
								L386.5,795.1z"/>
						</g>
					</g>
					<g>
						<g>
							<path class="st4" d="M-150.9,931.9l-1.4,8c-3.4,21.7-13.3,50.5-40.8,50.5c-27.5,0-31.7-29.5-28.2-52.2
								c3.8-23.6,16-53.2,44.8-53.2c15.6,0,24.3,9.8,26.3,24.2l-20.9,7.6c-0.1-5.1-0.5-13.1-8.3-13.1c-13.5-0.8-18.8,24.4-20.3,34
								c-1.8,10.6-4.7,34,10.2,34c10.3,0,14.1-13.8,15.2-20.9h-12.9l3.1-19H-150.9z"/>
						</g>
					</g>
					<g>
						<g>
							<path class="st4" d="M-113,886.7l-16.1,102.1h-20.2l16.1-102.1H-113z"/>
						</g>
					</g>
					<g>
						<g>
							<path class="st4" d="M-83,886.7l4.5,49c0.8,5.8,0.5,11.7,0.9,17.5h0.3c2-6,3.3-11.8,5.8-17.7l20.1-48.8h21.1l-44.4,102.1
								h-16.5l-13.4-102.1H-83z"/>
						</g>
					</g>
					<g>
						<g>
							<path class="st4" d="M-1.9,886.7L-18,988.8h-20.2l16.1-102.1H-1.9z"/>
						</g>
					</g>
					<g>
						<g>
							<path class="st4" d="M31.9,886.7l15.4,61.6l0.4-0.3c-0.5-4.9,0-10.2,0.8-15.4l7.2-45.9h20.2L59.8,988.8H40.7l-15.2-61.6
								l-0.3,0.3l-0.7,10.3l-0.5,4.2l-7.5,46.9H-3.6l16.1-102.1H31.9z"/>
						</g>
					</g>
					<g>
						<g>
							<path class="st4" d="M148.6,931.9l-1.4,8c-3.4,21.7-13.3,50.5-40.8,50.5c-27.5,0-31.7-29.5-28.2-52.2
								c3.8-23.6,16-53.2,44.8-53.2c15.6,0,24.2,9.8,26.3,24.2l-20.9,7.6c-0.1-5.1-0.5-13.1-8.3-13.1c-13.5-0.8-18.8,24.4-20.3,34
								c-1.8,10.6-4.7,34,10.2,34c10.3,0,14.1-13.8,15.2-20.9h-12.9l3.1-19H148.6z"/>
						</g>
					</g>
					<g>
						<g>
							<path class="st4" d="M187.1,988.8l16.1-102.1h20.3c12.9,0,35.8,1.4,31.3,29.3c-1.8,11.2-7.7,20.9-18.7,26.4l10.4,46.5h-21.3
								L215,941.7h-0.3l-7.5,47.1H187.1z M216.5,930.6l3.5,0.1c9.2,0,13.8-6.2,15.2-14.6c1.2-7.3-1.4-13.3-11.7-12.7h-2.7
								L216.5,930.6z"/>
						</g>
					</g>
					<g>
						<g>
							<path class="st4" d="M294.7,886.7l-10.4,66.1c-1.2,7.7-4.1,19.4,6.9,19.4c9.9,0,11.1-7.5,12.5-15l11.1-70.4h20.2l-11.8,74.5
								c-1.6,10.8-5.8,29.3-35,29.3c-18.8,0-28.7-8.8-25.6-27.9l11.9-75.9H294.7z"/>
						</g>
					</g>
					<g>
						<g>
							<path class="st4" d="M368.1,886.7l15.4,61.6l0.4-0.3c-0.5-4.9,0-10.2,0.8-15.4l7.2-45.9h20.2L396,988.8h-19.1l-15.2-61.6
								l-0.3,0.3l-0.7,10.3l-0.5,4.2l-7.5,46.9h-20.2l16.1-102.1H368.1z"/>
						</g>
					</g>
				</g>
			</g>
		</g>
		<g style="clip-path:url(#SVGID_00000031202767661098890660000012035606391651338637_);">
			<g>
				<g>
					<g>
						<g>
							<path class="st4" d="M-194.9,1021.2l-3,19h-16l-13.1,83.2h-20.2l13.1-83.2h-15.9l3-19H-194.9z"/>
						</g>
					</g>
					<g>
						<g>
							<path class="st4" d="M-165.5,1021.2l-6.2,40h20.5l6.2-40h20.2l-16.1,102.1h-20.2l6.9-43.2h-20.5l-6.9,43.2h-20.2l16.1-102.1
								H-165.5z"/>
						</g>
					</g>
					<g>
						<g>
							<path class="st4" d="M-71.6,1021.2l8.4,102.1h-21.5l-1.1-17.2h-20.5l-6.4,17.2h-20l39.8-102.1H-71.6z M-87.1,1062.9l0.1-15.4
								h-0.3l-4.6,15.4l-8.7,27.2h14.2L-87.1,1062.9z"/>
						</g>
					</g>
					<g>
						<g>
							<path class="st4" d="M-19.6,1021.2l15.4,61.6l0.4-0.3c-0.5-4.9,0-10.2,0.8-15.4l7.2-45.9h20.2L8.3,1123.3h-19.1l-15.2-61.6
								l-0.3,0.3l-0.7,10.3l-0.5,4.2l-7.5,46.9h-20.2l16.1-102.1H-19.6z"/>
						</g>
					</g>
					<g>
						<g>
							<path class="st4" d="M58.8,1021.2l-7.2,45.7h0.3l24-45.7h20.6l-26.3,47.1l12.6,55H61.6l-10.3-52H51l-8.3,52H22.5l16.1-102.1
								H58.8z"/>
						</g>
					</g>
					<g>
						<g>
							<path class="st4" d="M146.5,1044.2c-3.4-3.5-8-6.5-13.5-6.5c-6.2,0-10.7,3.8-11.8,10c-2.6,16.8,28,17.7,23.6,45.4
								c-2.8,18.2-15.4,31.8-34.4,31.8c-5.7,0-12.5-1.8-16.5-5.1l3.1-19.2c4.2,3.3,8.4,5.4,14.4,5.4c6.5,0,12.3-4.3,13.4-11.1
								c1.2-7.9-4.5-10.8-9.5-14.9c-10.4-7.9-16.4-15.4-14.1-30.3c2.6-16.1,14.1-30.1,31.4-30.1c6.5,0,12.1,1.8,17.1,5L146.5,1044.2
								z"/>
						</g>
					</g>
					<g>
						<g>
							<path class="st4" d="M241.7,1021.2l-3,19h-20.6l-3.4,21.8h18.6l-3,19h-18.6l-6.8,42.4h-20.2l16.1-102.1H241.7z"/>
						</g>
					</g>
					<g>
						<g>
							<path class="st4" d="M314.5,1072.3c-6.1,38.3-26.3,52.7-44.3,52.7c-18,0-33.6-14.4-27.5-52.7c6.1-38.3,26.1-52.7,44.2-52.7
								S320.6,1033.9,314.5,1072.3z M273.2,1106.3c13.4,0,18.4-25.9,19.8-34c1.4-9.1,4.3-34-9.1-34c-13.4,0-18.3,24.9-19.6,34
								C262.9,1080.4,259.8,1106.3,273.2,1106.3z"/>
						</g>
					</g>
					<g>
						<g>
							<path class="st4" d="M317.1,1123.3l16.1-102.1h20.3c12.9,0,35.8,1.4,31.3,29.3c-1.8,11.2-7.7,20.9-18.7,26.4l10.4,46.5h-21.3
								l-10.3-47.1h-0.3l-7.5,47.1H317.1z M346.5,1065.1l3.5,0.1c9.2,0,13.8-6.2,15.2-14.6c1.2-7.3-1.4-13.3-11.7-12.7h-2.7
								L346.5,1065.1z"/>
						</g>
					</g>
					<g>
						<g>
							<path class="st4" d="M-190.9,1201.9l-1.4,8c-3.4,21.7-13.3,50.5-40.8,50.5c-27.5,0-31.7-29.5-28.2-52.2
								c3.8-23.6,16-53.2,44.8-53.2c15.6,0,24.3,9.8,26.3,24.2l-20.9,7.6c-0.1-5.1-0.5-13.1-8.3-13.1c-13.5-0.8-18.8,24.4-20.3,34
								c-1.8,10.6-4.7,34,10.2,34c10.3,0,14.1-13.8,15.2-20.9h-12.9l3.1-19H-190.9z"/>
						</g>
					</g>
					<g>
						<g>
							<path class="st4" d="M-153,1156.7l-16.1,102.1h-20.2l16.1-102.1H-153z"/>
						</g>
					</g>
					<g>
						<g>
							<path class="st4" d="M-123,1156.7l4.5,49c0.8,5.8,0.5,11.7,0.9,17.5h0.3c2-6,3.3-11.8,5.8-17.7l20.1-48.8h21.1l-44.4,102.1
								h-16.5l-13.4-102.1H-123z"/>
						</g>
					</g>
					<g>
						<g>
							<path class="st4" d="M-41.9,1156.7L-58,1258.8h-20.2l16.1-102.1H-41.9z"/>
						</g>
					</g>
					<g>
						<g>
							<path class="st4" d="M-8.1,1156.7l15.4,61.6l0.4-0.3c-0.5-4.9,0-10.2,0.8-15.4l7.2-45.9h20.2l-16.1,102.1H0.7l-15.2-61.6
								l-0.3,0.3l-0.7,10.3l-0.5,4.2l-7.5,46.9h-20.2l16.1-102.1H-8.1z"/>
						</g>
					</g>
					<g>
						<g>
							<path class="st4" d="M108.6,1201.9l-1.4,8c-3.4,21.7-13.3,50.5-40.8,50.5c-27.5,0-31.7-29.5-28.2-52.2
								c3.8-23.6,16-53.2,44.8-53.2c15.6,0,24.2,9.8,26.3,24.2l-20.9,7.6c-0.1-5.1-0.5-13.1-8.3-13.1c-13.5-0.8-18.8,24.4-20.3,34
								c-1.8,10.6-4.7,34,10.2,34c10.3,0,14.1-13.8,15.2-20.9H72.5l3.1-19H108.6z"/>
						</g>
					</g>
					<g>
						<g>
							<path class="st4" d="M147.1,1258.8l16.1-102.1h20.3c12.9,0,35.8,1.4,31.3,29.3c-1.8,11.2-7.7,20.9-18.7,26.4l10.4,46.5h-21.3
								l-10.3-47.1h-0.3l-7.5,47.1H147.1z M176.5,1200.6l3.5,0.1c9.2,0,13.8-6.2,15.2-14.6c1.2-7.3-1.4-13.3-11.7-12.7h-2.7
								L176.5,1200.6z"/>
						</g>
					</g>
					<g>
						<g>
							<path class="st4" d="M254.7,1156.7l-10.4,66.1c-1.2,7.7-4.1,19.4,6.9,19.4c9.9,0,11.1-7.5,12.5-15l11.1-70.4h20.2l-11.8,74.5
								c-1.6,10.8-5.8,29.3-35,29.3c-18.8,0-28.7-8.8-25.6-27.9l11.9-75.9H254.7z"/>
						</g>
					</g>
					<g>
						<g>
							<path class="st4" d="M328.1,1156.7l15.4,61.6l0.4-0.3c-0.5-4.9,0-10.2,0.8-15.4l7.2-45.9h20.2L356,1258.8h-19.1l-15.2-61.6
								l-0.3,0.3l-0.7,10.3l-0.5,4.2l-7.5,46.9h-20.2l16.1-102.1H328.1z"/>
						</g>
					</g>
				</g>
			</g>
		</g>
		<g style="clip-path:url(#SVGID_00000031202767661098890660000012035606391651338637_);">
			<g>
				<g>
					<g>
						<g>
							<path class="st4" d="M-74.9,211.2l-3,19h-16l-13.1,83.2h-20.2l13.1-83.2h-15.9l3-19H-74.9z"/>
						</g>
					</g>
					<g>
						<g>
							<path class="st4" d="M-45.5,211.2l-6.2,40h20.5l6.2-40h20.2L-21,313.3h-20.2l6.9-43.2h-20.5l-6.9,43.2h-20.2l16.1-102.1
								H-45.5z"/>
						</g>
					</g>
					<g>
						<g>
							<path class="st4" d="M48.4,211.2l8.4,102.1H35.2l-1.1-17.2H13.7l-6.4,17.2h-20l39.8-102.1H48.4z M32.9,252.9l0.1-15.4h-0.3
								l-4.6,15.4l-8.7,27.2h14.2L32.9,252.9z"/>
						</g>
					</g>
					<g>
						<g>
							<path class="st4" d="M100.4,211.2l15.4,61.6l0.4-0.3c-0.5-4.9,0-10.2,0.8-15.4l7.2-45.9h20.2l-16.1,102.1h-19.1L94,251.7
								l-0.3,0.3l-0.7,10.3l-0.5,4.2l-7.5,46.9H64.9L81,211.2H100.4z"/>
						</g>
					</g>
					<g>
						<g>
							<path class="st4" d="M178.8,211.2l-7.2,45.7h0.3l24-45.7h20.6l-26.3,47.1l12.6,55h-21.3l-10.3-52H171l-8.3,52h-20.2
								l16.1-102.1H178.8z"/>
						</g>
					</g>
					<g>
						<g>
							<path class="st4" d="M266.5,234.2c-3.4-3.5-8-6.5-13.5-6.5c-6.2,0-10.7,3.8-11.8,10c-2.6,16.8,28,17.7,23.6,45.4
								c-2.8,18.2-15.4,31.8-34.4,31.8c-5.7,0-12.5-1.8-16.5-5.1l3.1-19.2c4.2,3.3,8.4,5.4,14.4,5.4c6.5,0,12.3-4.3,13.4-11.1
								c1.2-7.9-4.5-10.8-9.5-14.9c-10.4-7.9-16.4-15.4-14.1-30.3c2.6-16.1,14.1-30.1,31.4-30.1c6.5,0,12.1,1.8,17.1,5L266.5,234.2z
								"/>
						</g>
					</g>
					<g>
						<g>
							<path class="st4" d="M361.7,211.2l-3,19h-20.6l-3.4,21.8h18.6l-3,19h-18.6l-6.8,42.4h-20.2L321,211.2H361.7z"/>
						</g>
					</g>
					<g>
						<g>
							<path class="st4" d="M434.5,262.3c-6.1,38.3-26.3,52.7-44.3,52.7c-18,0-33.6-14.4-27.5-52.7c6.1-38.3,26.1-52.7,44.2-52.7
								S440.6,223.9,434.5,262.3z M393.2,296.3c13.4,0,18.4-25.9,19.8-34c1.4-9.1,4.3-34-9.1-34c-13.4,0-18.3,24.9-19.6,34
								C382.9,270.4,379.8,296.3,393.2,296.3z"/>
						</g>
					</g>
					<g>
						<g>
							<path class="st4" d="M437.1,313.3l16.1-102.1h20.3c12.9,0,35.8,1.4,31.3,29.3c-1.8,11.2-7.7,20.9-18.7,26.4l10.4,46.5h-21.3
								L465,266.2h-0.3l-7.5,47.1H437.1z M466.5,255.1l3.5,0.1c9.2,0,13.8-6.2,15.2-14.6c1.2-7.3-1.4-13.3-11.7-12.7h-2.7
								L466.5,255.1z"/>
						</g>
					</g>
					<g>
						<g>
							<path class="st4" d="M-70.9,391.9l-1.4,8c-3.4,21.7-13.3,50.5-40.8,50.5c-27.5,0-31.7-29.5-28.2-52.2
								c3.8-23.6,16-53.2,44.8-53.2c15.6,0,24.3,9.8,26.3,24.2l-20.9,7.6c-0.1-5.1-0.5-13.1-8.3-13.1c-13.5-0.8-18.8,24.4-20.3,34
								c-1.8,10.6-4.7,34,10.2,34c10.3,0,14.1-13.8,15.2-20.9h-12.9l3.1-19H-70.9z"/>
						</g>
					</g>
					<g>
						<g>
							<path class="st4" d="M-33,346.7l-16.1,102.1h-20.2l16.1-102.1H-33z"/>
						</g>
					</g>
					<g>
						<g>
							<path class="st4" d="M-3,346.7l4.5,49c0.8,5.8,0.5,11.7,0.9,17.5h0.3c2-6,3.3-11.8,5.8-17.7l20.1-48.8h21.1L5.2,448.8h-16.5
								l-13.4-102.1H-3z"/>
						</g>
					</g>
					<g>
						<g>
							<path class="st4" d="M78.1,346.7L62,448.8H41.8l16.1-102.1H78.1z"/>
						</g>
					</g>
					<g>
						<g>
							<path class="st4" d="M111.9,346.7l15.4,61.6l0.4-0.3c-0.5-4.9,0-10.2,0.8-15.4l7.2-45.9h20.2l-16.1,102.1h-19.1l-15.2-61.6
								l-0.3,0.3l-0.7,10.3l-0.5,4.2l-7.5,46.9H76.4l16.1-102.1H111.9z"/>
						</g>
					</g>
					<g>
						<g>
							<path class="st4" d="M228.6,391.9l-1.4,8c-3.4,21.7-13.3,50.5-40.8,50.5c-27.5,0-31.7-29.5-28.2-52.2
								c3.8-23.6,16-53.2,44.8-53.2c15.6,0,24.2,9.8,26.3,24.2l-20.9,7.6c-0.1-5.1-0.5-13.1-8.3-13.1c-13.5-0.8-18.8,24.4-20.3,34
								c-1.8,10.6-4.7,34,10.2,34c10.3,0,14.1-13.8,15.2-20.9h-12.9l3.1-19H228.6z"/>
						</g>
					</g>
					<g>
						<g>
							<path class="st4" d="M267.1,448.8l16.1-102.1h20.3c12.9,0,35.8,1.4,31.3,29.3c-1.8,11.2-7.7,20.9-18.7,26.4l10.4,46.5h-21.3
								L295,401.7h-0.3l-7.5,47.1H267.1z M296.5,390.6l3.5,0.1c9.2,0,13.8-6.2,15.2-14.6c1.2-7.3-1.4-13.3-11.7-12.7h-2.7
								L296.5,390.6z"/>
						</g>
					</g>
					<g>
						<g>
							<path class="st4" d="M374.7,346.7l-10.4,66.1c-1.2,7.7-4.1,19.4,6.9,19.4c9.9,0,11.1-7.5,12.5-15l11.1-70.4h20.2l-11.8,74.5
								c-1.6,10.8-5.8,29.3-35,29.3c-18.8,0-28.7-8.8-25.6-27.9l11.9-75.9H374.7z"/>
						</g>
					</g>
					<g>
						<g>
							<path class="st4" d="M448.1,346.7l15.4,61.6l0.4-0.3c-0.5-4.9,0-10.2,0.8-15.4l7.2-45.9h20.2L476,448.8h-19.1l-15.2-61.6
								l-0.3,0.3l-0.7,10.3l-0.5,4.2l-7.5,46.9h-20.2l16.1-102.1H448.1z"/>
						</g>
					</g>
				</g>
			</g>
		</g>
		<g style="clip-path:url(#SVGID_00000031202767661098890660000012035606391651338637_);">
			<g>
				<g>
					<g>
						<g>
							<path class="st4" d="M-34.9-58.8l-3,19h-16L-67,43.3h-20.2l13.1-83.2h-15.9l3-19H-34.9z"/>
						</g>
					</g>
					<g>
						<g>
							<path class="st4" d="M-5.5-58.8l-6.2,40H8.7l6.2-40h20.2L19,43.3H-1.2L5.7,0.1h-20.5l-6.9,43.2h-20.2l16.1-102.1H-5.5z"/>
						</g>
					</g>
					<g>
						<g>
							<path class="st4" d="M88.4-58.8l8.4,102.1H75.2l-1.1-17.2H53.7l-6.4,17.2h-20L67.1-58.8H88.4z M72.9-17.1l0.1-15.4h-0.3
								l-4.6,15.4l-8.7,27.2h14.2L72.9-17.1z"/>
						</g>
					</g>
					<g>
						<g>
							<path class="st4" d="M140.4-58.8l15.4,61.6l0.4-0.3c-0.5-4.9,0-10.2,0.8-15.4l7.2-45.9h20.2L168.3,43.3h-19.1L134-18.3
								l-0.3,0.3l-0.7,10.3l-0.5,4.2l-7.5,46.9h-20.2L121-58.8H140.4z"/>
						</g>
					</g>
					<g>
						<g>
							<path class="st4" d="M218.8-58.8l-7.2,45.7h0.3l24-45.7h20.6l-26.3,47.1l12.6,55h-21.3l-10.3-52H211l-8.3,52h-20.2
								l16.1-102.1H218.8z"/>
						</g>
					</g>
					<g>
						<g>
							<path class="st4" d="M306.5-35.8c-3.4-3.5-8-6.5-13.5-6.5c-6.2,0-10.7,3.8-11.8,10c-2.6,16.8,28,17.7,23.6,45.4
								C301.9,31.3,289.3,45,270.3,45c-5.7,0-12.5-1.8-16.5-5.1l3.1-19.2c4.2,3.3,8.4,5.4,14.4,5.4c6.5,0,12.3-4.3,13.4-11.1
								C285.9,7,280.2,4,275.2,0c-10.4-7.9-16.4-15.4-14.1-30.3c2.6-16.1,14.1-30.1,31.4-30.1c6.5,0,12.1,1.8,17.1,5L306.5-35.8z"/>
						</g>
					</g>
					<g>
						<g>
							<path class="st4" d="M401.7-58.8l-3,19h-20.6L374.8-18h18.6l-3,19h-18.6L365,43.3h-20.2L361-58.8H401.7z"/>
						</g>
					</g>
					<g>
						<g>
							<path class="st4" d="M474.5-7.7C468.4,30.6,448.2,45,430.2,45c-18,0-33.6-14.4-27.5-52.7c6.1-38.3,26.1-52.7,44.2-52.7
								S480.6-46.1,474.5-7.7z M433.2,26.3c13.4,0,18.4-25.9,19.8-34c1.4-9.1,4.3-34-9.1-34c-13.4,0-18.3,24.9-19.6,34
								C422.9,0.4,419.8,26.3,433.2,26.3z"/>
						</g>
					</g>
					<g>
						<g>
							<path class="st4" d="M477.1,43.3l16.1-102.1h20.3c12.9,0,35.8,1.4,31.3,29.3c-1.8,11.2-7.7,20.9-18.7,26.4l10.4,46.5h-21.3
								L505-3.8h-0.3l-7.5,47.1H477.1z M506.5-14.9l3.5,0.1c9.2,0,13.8-6.2,15.2-14.6c1.2-7.3-1.4-13.3-11.7-12.7h-2.7L506.5-14.9z"
								/>
						</g>
					</g>
					<g>
						<g>
							<path class="st4" d="M-30.9,121.9l-1.4,8c-3.4,21.7-13.3,50.5-40.8,50.5c-27.5,0-31.7-29.5-28.2-52.2
								c3.8-23.6,16-53.2,44.8-53.2c15.6,0,24.3,9.8,26.3,24.2l-20.9,7.6c-0.1-5.1-0.5-13.1-8.3-13.1c-13.5-0.8-18.8,24.4-20.3,34
								c-1.8,10.6-4.7,34,10.2,34c10.3,0,14.1-13.8,15.2-20.9h-12.9l3.1-19H-30.9z"/>
						</g>
					</g>
					<g>
						<g>
							<path class="st4" d="M7,76.7L-9.1,178.8h-20.2l16.1-102.1H7z"/>
						</g>
					</g>
					<g>
						<g>
							<path class="st4" d="M37,76.7l4.5,49c0.8,5.8,0.5,11.7,0.9,17.5h0.3c2-6,3.3-11.8,5.8-17.7l20.1-48.8h21.1L45.2,178.8H28.7
								L15.3,76.7H37z"/>
						</g>
					</g>
					<g>
						<g>
							<path class="st4" d="M118.1,76.7L102,178.8H81.8L97.9,76.7H118.1z"/>
						</g>
					</g>
					<g>
						<g>
							<path class="st4" d="M151.9,76.7l15.4,61.6l0.4-0.3c-0.5-4.9,0-10.2,0.8-15.4l7.2-45.9h20.2l-16.1,102.1h-19.1l-15.2-61.6
								l-0.3,0.3l-0.7,10.3l-0.5,4.2l-7.5,46.9h-20.2l16.1-102.1H151.9z"/>
						</g>
					</g>
					<g>
						<g>
							<path class="st4" d="M268.6,121.9l-1.4,8c-3.4,21.7-13.3,50.5-40.8,50.5c-27.5,0-31.7-29.5-28.2-52.2
								c3.8-23.6,16-53.2,44.8-53.2c15.6,0,24.2,9.8,26.3,24.2l-20.9,7.6c-0.1-5.1-0.5-13.1-8.3-13.1c-13.5-0.8-18.8,24.4-20.3,34
								c-1.8,10.6-4.7,34,10.2,34c10.3,0,14.1-13.8,15.2-20.9h-12.9l3.1-19H268.6z"/>
						</g>
					</g>
					<g>
						<g>
							<path class="st4" d="M307.1,178.8l16.1-102.1h20.3c12.9,0,35.8,1.4,31.3,29.3c-1.8,11.2-7.7,20.9-18.7,26.4l10.4,46.5h-21.3
								L335,131.7h-0.3l-7.5,47.1H307.1z M336.5,120.6l3.5,0.1c9.2,0,13.8-6.2,15.2-14.6c1.2-7.3-1.4-13.3-11.7-12.7h-2.7
								L336.5,120.6z"/>
						</g>
					</g>
					<g>
						<g>
							<path class="st4" d="M414.7,76.7l-10.4,66.1c-1.2,7.7-4.1,19.4,6.9,19.4c9.9,0,11.1-7.5,12.5-15l11.1-70.4h20.2l-11.8,74.5
								c-1.6,10.8-5.8,29.3-35,29.3c-18.8,0-28.7-8.8-25.6-27.9l11.9-75.9H414.7z"/>
						</g>
					</g>
					<g>
						<g>
							<path class="st4" d="M488.1,76.7l15.4,61.6l0.4-0.3c-0.5-4.9,0-10.2,0.8-15.4l7.2-45.9h20.2L516,178.8h-19.1l-15.2-61.6
								l-0.3,0.3l-0.7,10.3l-0.5,4.2l-7.5,46.9h-20.2l16.1-102.1H488.1z"/>
						</g>
					</g>
				</g>
			</g>
		</g>
	</g>
</g>
</svg>
