<?xml version="1.0" encoding="UTF-8"?>
<svg id="Layer_1" data-name="Layer 1" xmlns="http://www.w3.org/2000/svg" version="1.1" viewBox="0 0 800 600">
  <defs>
    <style>
      .cls-1 {
        fill: #e2e2e2;
      }

      .cls-1, .cls-2 {
        stroke-width: 0px;
      }

      .cls-2 {
        fill: #151515;
      }
    </style>
  </defs>
  <rect class="cls-2" width="800" height="600"/>
  <g>
    <path class="cls-1" d="M328.33,364.36c25.6,0,46.43-20.83,46.43-46.43v-107.14h-21.43v107.14c0,13.79-11.21,25-25,25s-25-11.21-25-25v-107.14h-21.43v107.14c0,25.6,20.83,46.43,46.43,46.43Z"/>
    <path class="cls-1" d="M471.18,200.07c-24.03,0-45.68,10.37-60.71,26.87v-16.16h-21.43v107.14c0,33.48-27.24,60.71-60.71,60.71s-60.71-27.24-60.71-60.71v-107.14h-21.43v107.14c0,45.29,36.85,82.14,82.14,82.14,24.03,0,45.68-10.37,60.71-26.87v16.16h21.43v-107.14c0-33.48,27.24-60.71,60.71-60.71s60.71,27.24,60.71,60.71v107.14h21.43v-107.14c0-45.29-36.85-82.14-82.14-82.14Z"/>
    <path class="cls-1" d="M471.18,235.79c-25.6,0-46.43,20.83-46.43,46.43v107.14h21.43v-107.14c0-13.79,11.21-25,25-25s25,11.21,25,25v107.14h21.43v-107.14c0-25.6-20.83-46.43-46.43-46.43Z"/>
  </g>
</svg>