<?xml version="1.0" encoding="UTF-8"?>
<svg id="Layer_1" data-name="Layer 1" xmlns="http://www.w3.org/2000/svg" version="1.1" viewBox="0 0 800 600">
  <defs>
    <style>
      .cls-1, .cls-2, .cls-3 {
        stroke-width: 0px;
      }

      .cls-1, .cls-3 {
        fill: #f0f0f0;
      }

      .cls-2 {
        fill: #151515;
      }

      .cls-3 {
        opacity: .5;
      }
    </style>
  </defs>
  <rect class="cls-2" width="800" height="600"/>
  <g>
    <g>
      <path class="cls-1" d="M205.3,201.05l28.1-4.96v160.31c0,20.87-15.52,36.73-37.74,40.64-21.95,3.87-37.47-6.51-37.47-27.38v-160.31l28.1-4.96v157.1c0,7.5,3.21,11.74,9.37,10.66,6.16-1.09,9.63-6.51,9.63-14.01v-157.1Z"/>
      <path class="cls-1" d="M271.67,255.45l.53,35.5v90.46l-25.42,4.48v-192.16l30.24-5.33,22.21,103.94.54-.09-.54-39.52v-68.24l25.43-4.48v192.16l-24.36,4.29-28.1-121.1-.53.09Z"/>
    </g>
    <path class="cls-1" d="M482.3,237v128.46c0,20.87-15.52,31.25-37.74,27.34-21.95-3.87-37.47-19.72-37.47-40.6v-128.46c0-20.87,15.52-31.25,37.47-27.38,22.21,3.92,37.74,19.77,37.74,40.64ZM435.19,231.91v122.04c0,7.5,3.21,12.88,9.37,13.96,6.16,1.09,9.63-3.12,9.63-10.61v-122.04c0-7.49-3.48-12.92-9.63-14.01s-9.37,3.17-9.37,10.66Z"/>
    <path class="cls-1" d="M523.51,212.42v166.73l32.92,5.8v25.43l-60.75-10.71v-192.16l27.83,4.91Z"/>
    <path class="cls-1" d="M641.81,267.27v124.18c0,20.87-13.11,31.68-35.33,27.76l-39.88-7.03v-192.16l39.88,7.03c22.21,3.92,35.33,19.34,35.33,40.22ZM594.7,249.59v142.91l9.63,1.7c6.16,1.09,9.37-2.36,9.37-9.85v-119.9c0-7.5-3.21-12.08-9.37-13.16l-9.63-1.7Z"/>
    <g>
      <polygon class="cls-1" points="399.59 190.57 367.75 184.96 367.75 210.38 399.59 215.99 399.59 190.57"/>
      <polygon class="cls-1" points="339.65 205.42 339.65 372.16 367.75 377.11 367.75 290.13 395.04 294.95 395.04 269.52 367.75 264.71 367.75 210.38 339.65 205.42"/>
    </g>
    <polygon class="cls-3" points="339.65 205.42 367.75 210.38 367.75 184.96 339.65 205.42"/>
  </g>
</svg>