<?xml version="1.0" encoding="utf-8"?>
<!-- Generator: Adobe Illustrator 24.1.0, SVG Export Plug-In . SVG Version: 6.00 Build 0)  -->
<svg version="1.1" id="Layer_1" xmlns="http://www.w3.org/2000/svg" xmlns:xlink="http://www.w3.org/1999/xlink" x="0px" y="0px"
	 viewBox="0 0 1920 1080" style="enable-background:new 0 0 1920 1080;" xml:space="preserve">
<style type="text/css">
	.st0{fill:#7AB691;}
	.st1{fill:#F0F0F0;}
	.st2{fill:none;stroke:#F0F0F0;stroke-width:2;stroke-miterlimit:10;}
</style>
<rect x="0" class="st0" width="1920" height="1080"/>
<g>
	<path class="st1" d="M655.41,462.09v98.33c0,31.67,16.28,41.05,34.08,41.05c20.42,0,33.24-11.1,33.24-41.05v-98.33h35.71v96.56
		c0,56.43-33.04,70.81-69.43,70.81c-37.25,0-69.35-15-69.35-70.13v-97.24H655.41z"/>
	<path class="st1" d="M782.31,534.44c0-10.53,0-22.06-0.24-31.22h33.22c0.69,3.2,1.14,11.8,1.32,15.79
		c4.21-7.78,14.24-18.66,35.94-18.66c24.89,0,41.06,16.82,41.06,47.96v78.82h-34.31v-75.01c0-13.93-4.64-24.02-19.78-24.02
		c-14.58,0-22.92,8.1-22.92,29.98v69.05h-34.31V534.44z"/>
	<path class="st1" d="M925.05,627.13v-98.11h-18.06v-25.79h18.06v-10.88c0-25.59,12.7-42.34,39.51-42.34c5.7,0,12.86,0.5,15.94,1.46
		v27.08c-1.91-0.32-4.49-0.59-7.24-0.59c-10.12,0-13.91,3.73-13.91,16.97v8.3h21.67v25.79h-21.67v98.11H925.05z"/>
	<path class="st1" d="M1107.32,564.93c0,37.49-22.44,65.07-61.69,65.07c-38.43,0-60.85-27.41-60.85-64.4
		c0-38.24,23.13-65.25,62.47-65.25C1083.72,500.35,1107.32,526.09,1107.32,564.93z M1019.59,565.17c0,23.85,10.26,37.98,26.79,37.98
		c16.79,0,26.13-14.14,26.13-37.77c0-25.93-9.52-38.19-26.6-38.19C1029.99,527.2,1019.59,538.98,1019.59,565.17z"/>
	<path class="st1" d="M1126.09,627.13V452.39h34.31v174.73H1126.09z"/>
	<path class="st1" d="M1300.09,452.39v140.69c0,11.28,0,22.71,0.24,34.05h-32.98c-0.69-3.72-1.35-10.12-1.56-12.94
		c-5.98,9.76-16.65,15.82-35.16,15.82c-31.33,0-51.27-25.16-51.27-63.81c0-38.13,21.19-65.84,56.27-65.84
		c17.83,0,27.4,6.29,30.15,11.84v-59.8H1300.09z M1214.6,565.29c0,24.15,9.41,37.23,26.2,37.23c23.59,0,26.31-19.67,26.31-37.48
		c0-21.19-2.99-37.22-25.42-37.22C1223.68,527.83,1214.6,541.89,1214.6,565.29z"/>
</g>
<line class="st2" x1="960" y1="720" x2="960" y2="1080"/>
</svg>
