<?xml version="1.0" encoding="utf-8"?>
<!-- Generator: Adobe Illustrator 27.1.0, SVG Export Plug-In . SVG Version: 6.00 Build 0)  -->
<svg version="1.1" id="Layer_1" xmlns="http://www.w3.org/2000/svg" xmlns:xlink="http://www.w3.org/1999/xlink" x="0px" y="0px"
	 viewBox="0 0 800 600" style="enable-background:new 0 0 800 600;" xml:space="preserve">
<style type="text/css">
	.st0{fill:#FFFFFF;}
</style>
<rect y="0" width="800" height="600"/>
<path class="st0" d="M599.5,280.4l-6.6-11.4c-0.3-0.5-0.9-0.6-1.4-0.4L561.4,286c-0.7,0.4-1.5-0.1-1.5-0.9v-34.8c0-0.6-0.4-1-1-1
	h-13.2c-0.6,0-1,0.4-1,1v35.4c0,0.7-0.8,1.2-1.5,0.9c-89-45.7-194-45.7-286.1,0.2c-0.7,0.3-1.4-0.1-1.4-0.9v-35.6c0-0.6-0.4-1-1-1
	h-13.2c-0.6,0-1,0.4-1,1v34.8c0,0.8-0.8,1.3-1.5,0.9l-30.1-17.4c-0.5-0.3-1.1-0.1-1.4,0.4l-6.6,11.4c-0.3,0.5-0.1,1.1,0.4,1.4
	l29.9,17.2c0.7,0.4,0.7,1.4,0,1.7l-30.2,16.7c-0.5,0.3-0.7,0.9-0.4,1.4l6.4,11.6c0.3,0.5,0.9,0.7,1.4,0.4l30.7-17
	c0.7-0.4,1.5,0.1,1.5,0.9v35.1c0,0.6,0.4,1,1,1h13.2c0.6,0,1-0.4,1-1v-34.8c0-0.8,0.8-1.3,1.5-0.9l30.1,17.4
	c0.5,0.3,1.1,0.1,1.4-0.4l6.6-11.4c0.3-0.5,0.1-1.1-0.4-1.4l-29.3-16.9c-0.7-0.4-0.7-1.4,0.1-1.8c86.9-42.6,185.5-42.7,269.3-0.1
	c0.7,0.4,0.7,1.4,0,1.8l-29.6,17.1c-0.5,0.3-0.6,0.9-0.4,1.4l6.6,11.4c0.3,0.5,0.9,0.6,1.4,0.4l30.1-17.4c0.7-0.4,1.5,0.1,1.5,0.9
	v34.8c0,0.6,0.4,1,1,1h13.2c0.6,0,1-0.4,1-1v-34.8c0-0.8,0.8-1.3,1.5-0.9l30.1,17.4c0.5,0.3,1.1,0.1,1.4-0.4l6.6-11.4
	c0.3-0.5,0.1-1.1-0.4-1.4L569,300.9c-0.7-0.4-0.7-1.3,0-1.7l30.1-17.4C599.6,281.5,599.8,280.8,599.5,280.4z"/>
</svg>
