<?xml version="1.0" encoding="utf-8"?>
<!-- Generator: Adobe Illustrator 23.0.3, SVG Export Plug-In . SVG Version: 6.00 Build 0)  -->
<svg version="1.1" id="Layer_1" xmlns="http://www.w3.org/2000/svg" xmlns:xlink="http://www.w3.org/1999/xlink" x="0px" y="0px"
	 width="800px" height="600px" viewBox="0 0 800 600" style="enable-background:new 0 0 800 600;" xml:space="preserve">
<style type="text/css">
	.st0{fill:#FFFFFF;}
</style>
<rect width="800" height="600"/>
<g>
	<path class="st0" d="M245.2,287.4c0.2-0.8,0.6-1.5,0.6-2.2c0-1.7-1.4-2.3-5.2-2.4v-2.2h12.1v2.2c-1.5,0.2-2.8,0.5-3.4,2.1
		L236.6,320H235l-8.5-23.8l-8.4,23.8h-1.6l-13.1-35.2c-0.6-1.5-1.9-1.8-3.4-2.1v-2.2h14.7v2.2c-3.8,0.1-5.1,0.6-5.1,2.4
		c0,0.6,0.2,1.4,0.6,2.2l8.5,23.9l6.6-19.2l-2.5-7.3c-0.6-1.7-1.9-1.8-3.4-2.1v-2.2h14.2v2.2c-3.8,0.1-5.2,0.6-5.2,2.4
		c0,0.6,0.2,1.4,0.6,2.2l8,23.9L245.2,287.4z"/>
	<path class="st0" d="M293.6,299.2c0,12.7-8.4,20.8-18.5,20.8c-11.4,0-18.2-8.9-18.2-19.2c0-12.7,8.4-20.8,18.5-20.8
		C286.9,280,293.6,289,293.6,299.2z M287.7,300.2c0-8.5-3.8-17.1-13-17.1c-7.8,0-11.8,7.3-11.8,16.8c0,8.5,3.8,17.1,13,17.1
		C283.8,317,287.7,309.6,287.7,300.2z"/>
	<path class="st0" d="M316.4,280.6c9.8,0,14.2,4.5,14.2,10.9c0,6.2-5.4,9.8-10.7,10.3l9.3,11.6c1.8,2.2,4.2,3.8,7.1,3.9v2.2h-7.9
		c-2.1-1.3-3.2-2.5-5-4.9l-9.4-12.1h-3v10.7c0,3.4,2,3.9,5.6,4.1v2.2H300v-2.2c3.7-0.1,5.7-0.6,5.7-4.1v-26.5c0-3.4-1.9-3.9-5.7-4.1
		v-2.2L316.4,280.6L316.4,280.6z M311.1,283.1v17h3.8c6.6,0,9.8-2.9,9.8-8.6c0-4.7-3-8.4-10-8.4H311.1z"/>
	<path class="st0" d="M347,286.7c0-3.4-1.9-3.9-5.7-4.1v-2.2H358v2.2c-3.6,0.1-5.6,0.6-5.6,4.1v26.5c0,3.4,2,3.9,5.6,4.1v2.2h-16.6
		v-2.2c3.7-0.1,5.7-0.6,5.7-4.1V286.7z M371.6,312.9c3.1,3.5,4.6,4.2,7.1,4.4v2.2h-7.4c-1.8-1-3.4-2.4-5.5-4.8l-12.9-15l13.9-13.4
		c0.6-0.6,1.2-1.2,1.2-2.1c0-1-0.6-1.3-4.4-1.5v-2.2h14.2v2.2c-2.6,0.1-4.2,1-6.1,2.8l-13.2,12.6L371.6,312.9z"/>
	<path class="st0" d="M383.8,316.2l-0.4-9.1h1.9c1.7,5.8,5,10.2,10.7,10.2c5.2,0,8.4-2.6,8.4-7.1c0-3.8-2.5-5.6-9.2-8.1
		c-7.4-2.7-11.4-5.4-11.4-11.6c0-5.8,4.4-10.4,12.2-10.4c4.5,0,8.6,1.5,11.5,3.5v8.5h-1.8c-1.3-5.4-4.6-9.2-10-9.2
		c-4.6,0-7,2.6-7,6.2c0,3.8,1.9,5.5,8.7,8c8.2,3,12,5.8,12,12c0,7.1-6.2,11-13.6,11C390.7,320,386.3,318.2,383.8,316.2z"/>
	<path class="st0" d="M455.2,305.8c-0.6-3.4-1.5-5-4-5h-9.4v12.3c0,3,1.7,3.8,5.6,3.8h5.5c4.9,0,5.8-1.6,9.4-7.4h1.5l-1.7,10h-31.4
		v-2.2c3.7-0.1,5.7-0.6,5.7-4.1v-26.5c0-3.4-1.9-3.9-5.7-4.1v-2.2h31v9.3h-1.5c-2-4.8-3.5-6.7-8-6.7h-10.6v15.2h9.4
		c2.4,0,3.4-1.7,4-5h1.9v12.6L455.2,305.8L455.2,305.8z"/>
	<path class="st0" d="M475.8,286.2c-2.2-2.6-3-3.4-5.7-3.5v-2.2h9.4l23,29.2v-23c0-3.4-1.9-3.9-5.7-4.1v-2.2h14.5v2.2
		c-3.7,0.1-5.7,0.6-5.7,4.1v32.7h-2.2l-24.6-30.7v24.6c0,3.4,1.9,3.9,5.7,4.1v2.2h-14.5v-2.2c3.7-0.1,5.7-0.6,5.7-4.1L475.8,286.2
		L475.8,286.2z"/>
	<path class="st0" d="M517,280.6h17c14.4,0,20.6,8.7,20.6,18.3c0,13.4-8.9,20.6-19.8,20.6H517v-2.2c3.7-0.1,5.7-0.6,5.7-4.1v-26.5
		c0-3.4-1.9-3.9-5.7-4.1V280.6z M528,283.1V313c0,3.3,1.8,3.9,5.7,3.9h1.2c8.6,0,13.8-5.8,13.8-16.8c0-8.6-4.2-17-15.7-17L528,283.1
		L528,283.1z"/>
	<path class="st0" d="M577.9,280.3l0.4,6.4h-1.9c-1.4-3.3-1.8-4.6-4.1-4.6h-0.9v14.1c0,1.5,0.6,1.8,2.4,1.9v1.8H564v-1.8
		c1.8-0.1,2.5-0.4,2.5-1.9v-14.1h-0.9c-2.2,0-2.8,1.4-4.1,4.6h-1.9l0.4-6.4H577.9z"/>
	<path class="st0" d="M595,284.7c0.4-0.7,0.6-1.2,0.6-1.6c0-0.7-0.6-1-2-1.1v-1.8h6.3v1.8c-0.8,0.2-1.2,0.3-1.6,1l-5.4,9.4v3.6
		c0,1.5,0.6,1.8,2.4,1.9v1.8h-9.8V298c1.8-0.1,2.4-0.4,2.4-1.9v-3.6l-5.6-9.4c-0.4-0.7-0.8-0.9-1.6-1v-1.8h9.1v1.8
		c-1.5,0.1-1.9,0.3-1.9,1.1c0,0.5,0.2,0.9,0.6,1.6l3.1,5.6L595,284.7z"/>
</g>
</svg>
