<?xml version="1.0" encoding="utf-8"?>
<!-- Generator: Adobe Illustrator 23.0.3, SVG Export Plug-In . SVG Version: 6.00 Build 0)  -->
<svg version="1.1" id="Layer_1" xmlns="http://www.w3.org/2000/svg" xmlns:xlink="http://www.w3.org/1999/xlink" x="0px" y="0px"
	 width="1920px" height="1080px" viewBox="0 0 1920 1080" style="enable-background:new 0 0 1920 1080;" xml:space="preserve">
<style type="text/css">
	.st0{fill:#FFFFFF;}
</style>
<rect width="1920" height="1080"/>
<g>
	<path class="st0" d="M707.8,445.9c0.5-1.5,1.1-3,1.1-4.2c0-3.2-2.5-4.4-9.9-4.6V433h23v4.1c-2.8,0.4-5.3,0.8-6.3,3.9l-24.1,66.7h-3
		l-16.1-45.3l-16,45.3h-3l-24.9-66.7c-1.1-2.8-3.6-3.4-6.4-3.9V433h28v4.1c-7.3,0.2-9.8,1.3-9.8,4.5c0,1.3,0.5,2.6,1.1,4.2
		l16.1,45.4l12.4-36.4l-4.7-13.9c-1.1-3.2-3.6-3.4-6.4-3.9V433h26.9v4.1c-7.4,0.2-9.9,1.3-9.9,4.5c0,1.3,0.5,2.6,1.1,4.2l15.1,45.4
		L707.8,445.9z"/>
	<path class="st0" d="M799.8,468.5c0,24.1-16,39.4-35.1,39.4c-21.8,0-34.5-16.9-34.5-36.5c0-24.1,16-39.4,35.1-39.4
		C787.1,432,799.8,448.9,799.8,468.5z M788.6,470.2c0-16.1-7.3-32.5-24.7-32.5c-14.9,0-22.4,13.9-22.4,31.8
		c0,16.1,7.3,32.5,24.7,32.5C781.1,502.1,788.6,488.2,788.6,470.2z"/>
	<path class="st0" d="M843,433.1c18.7,0,26.9,8.5,26.9,20.7c0,11.9-10.3,18.6-20.3,19.6l17.7,22c3.4,4.2,7.9,7.2,13.6,7.5v4.1h-15
		c-3.9-2.4-6.1-4.7-9.6-9.2l-17.7-22.9H833v20.4c0,6.4,3.8,7.5,10.6,7.7v4.1h-31.4v-4.2c7-0.2,10.7-1.3,10.7-7.7v-50.3
		c0-6.4-3.7-7.5-10.7-7.7V433L843,433.1L843,433.1z M832.9,437.8V470h7.3c12.5,0,18.5-5.5,18.5-16.3c0-8.9-5.6-15.8-18.9-15.8
		L832.9,437.8L832.9,437.8z"/>
	<path class="st0" d="M901,444.8c0-6.4-3.7-7.5-10.7-7.7v-4.1h31.5v4.1c-6.8,0.2-10.6,1.3-10.6,7.7v50.3c0,6.4,3.8,7.5,10.6,7.7v4.1
		h-31.5v-4.2c7-0.2,10.7-1.3,10.7-7.7V444.8z M947.8,494.4c6,6.6,8.8,7.9,13.6,8.3v4.1h-14.2c-3.4-1.9-6.4-4.6-10.4-9.2l-24.5-28.4
		l26.4-25.3c1.1-1.1,2.3-2.3,2.3-3.9c0-1.9-1.1-2.4-8.4-3v-4.1h26.8v4.1c-4.9,0.2-8.1,2-11.5,5.4l-25,23.9L947.8,494.4z"/>
	<path class="st0" d="M970.9,500.6l-0.7-17.2h3.7c3.2,11.1,9.6,19.2,20.3,19.2c9.9,0,15.8-4.9,15.8-13.4c0-7.3-4.7-10.6-17.5-15.3
		c-14-5.1-21.5-10.2-21.5-22c0-11.1,8.3-19.8,23-19.8c8.5,0,16.2,2.8,21.8,6.6v16.1h-3.4c-2.4-10.2-8.7-17.5-18.9-17.5
		c-8.8,0-13.4,5.1-13.4,11.8c0,7.2,3.6,10.4,16.6,15.2c15.4,5.7,22.8,11.1,22.8,22.8c0,13.4-11.8,20.8-25.8,20.8
		C984,507.9,975.6,504.5,970.9,500.6z"/>
	<path class="st0" d="M1106.3,480.9c-1.1-6.3-3-9.4-7.5-9.4h-17.9v23.3c0,5.7,3.2,7.2,10.6,7.2h10.5c9.2,0,11.1-3,17.7-14.1h3
		l-3.2,18.9h-59.5v-4.2c7-0.2,10.7-1.3,10.7-7.7v-50.3c0-6.4-3.7-7.5-10.7-7.7V433h58.9v17.6h-2.8c-3.8-9.2-6.8-12.7-15.2-12.7
		h-20.1v28.8h17.9c4.6,0,6.5-3.2,7.5-9.4h3.6v23.7H1106.3z"/>
	<path class="st0" d="M1145.4,443.8c-4.2-4.9-5.6-6.5-10.7-6.6v-4.1h18l43.7,55.4v-43.7c0-6.4-3.7-7.5-10.7-7.7v-4.1h27.5v4.1
		c-7,0.2-10.7,1.3-10.7,7.7v62h-4.3l-46.7-58.4V495c0,6.4,3.7,7.5,10.7,7.7v4.1h-27.5v-4.1c7-0.2,10.7-1.3,10.7-7.7L1145.4,443.8
		L1145.4,443.8z"/>
	<path class="st0" d="M1223.6,433.1h32.2c27.3,0,39,16.5,39,34.8c0,25.3-16.8,39-37.4,39h-33.9v-4.2c7-0.2,10.7-1.3,10.7-7.7v-50.3
		c0-6.4-3.7-7.5-10.7-7.7L1223.6,433.1L1223.6,433.1z M1244.4,437.8v56.7c0,6.2,3.4,7.5,10.7,7.5h2.3c16.2,0,26.2-11.1,26.2-31.8
		c0-16.4-8.1-32.2-29.7-32.2L1244.4,437.8L1244.4,437.8z"/>
	<path class="st0" d="M688.5,573.2l1.7,22h-3.4c-6.2-14.4-7.4-17.2-16.9-17.2h-8v57.3c0,6.4,4.1,7.5,11.1,7.7v4.1h-32.4v-4.1
		c7-0.2,11.1-1.3,11.1-7.7v-57.3H644c-9.6,0-10.7,2.8-17,17.2h-3.2l1.5-22H688.5z"/>
	<path class="st0" d="M759.4,611.7h-39v23.5c0,6.4,3.9,7.5,10.7,7.7v4.1h-31.5v-4.1c7-0.2,10.7-1.3,10.7-7.7v-50.3
		c0-6.4-3.7-7.5-10.7-7.7v-4.1h31.5v4.1c-6.8,0.2-10.7,1.3-10.7,7.7v21.9h39v-21.9c0-6.4-3.9-7.5-10.7-7.7v-4.1h31.5v4.1
		c-7,0.2-10.7,1.3-10.7,7.7v50.3c0,6.4,3.7,7.5,10.7,7.7v4.1h-31.5v-4.1c6.8-0.2,10.7-1.3,10.7-7.7V611.7z"/>
	<path class="st0" d="M839,622.6h-31l-4.6,11.5c-0.6,1.5-1.1,3-1.1,4.2c0,3.2,2.6,4.4,9.9,4.6v4.1h-23.5v-4.1
		c2.8-0.4,5.3-1.1,6.4-3.9l24.9-59.8l-3.2-7h11.7l28.9,66.7c1.1,2.8,3.2,3.4,6.3,3.9v4.1h-28.2v-4.1c7.3-0.2,9.8-1.3,9.8-4.5
		c0-1.3-0.5-2.6-1.1-4.2L839,622.6z M809.8,617.9h27.2l-13.9-32.9L809.8,617.9z"/>
	<path class="st0" d="M882.5,583.9c-4.2-4.9-5.6-6.5-10.7-6.6v-4.1h18l43.7,55.4V585c0-6.4-3.7-7.5-10.7-7.7v-4.1h27.5v4.1
		c-7,0.2-10.7,1.3-10.7,7.7v62h-4.3l-46.7-58.4v46.5c0,6.4,3.7,7.5,10.7,7.7v4.1h-27.5v-4.1c7-0.2,10.7-1.3,10.7-7.7V583.9z"/>
	<path class="st0" d="M971.4,584.9c0-6.4-3.7-7.5-10.7-7.7v-4.1h31.5v4.1c-6.8,0.2-10.6,1.3-10.6,7.7v50.3c0,6.4,3.8,7.5,10.6,7.7
		v4.1h-31.5v-4.1c7-0.2,10.7-1.3,10.7-7.7V584.9z M1018.2,634.6c6,6.6,8.8,7.9,13.6,8.3v4.1h-14.2c-3.4-1.9-6.4-4.6-10.4-9.2
		l-24.5-28.4l26.4-25.3c1.1-1.1,2.3-2.3,2.3-3.9c0-1.9-1.1-2.4-8.4-3v-4.1h26.8v4.1c-4.9,0.2-8.1,2-11.5,5.4l-25,23.9L1018.2,634.6z
		"/>
	<path class="st0" d="M1117.5,586c1.1-1.8,1.8-3.2,1.8-4.9c0-2.8-2.2-3.7-9.6-3.9v-4.1h23.7v4.1c-3,0.4-4.7,1.1-6.4,3.9l-23.2,36v18
		c0,6.4,3.8,7.5,10.6,7.7v4.1H1083v-4.1c7-0.2,10.7-1.3,10.7-7.7v-17.9l-22.6-36.2c-1.7-2.7-3.4-3.4-6.4-3.9v-4.1h27.9v4.1
		c-7.3,0.2-9.6,1.1-9.6,3.9c0,1.7,0.7,3,1.9,4.9l16.1,25.8L1117.5,586z"/>
	<path class="st0" d="M1209.6,608.6c0,24.1-16,39.4-35.1,39.4c-21.8,0-34.5-16.9-34.5-36.5c0-24.1,16-39.4,35.1-39.4
		C1196.9,572.1,1209.6,589.1,1209.6,608.6z M1198.3,610.4c0-16.1-7.3-32.5-24.7-32.5c-14.9,0-22.4,13.9-22.4,31.8
		c0,16.1,7.3,32.5,24.7,32.5C1190.9,642.2,1198.3,628.4,1198.3,610.4z"/>
	<path class="st0" d="M1240,621.1c0,13.2,7.3,20.3,19.2,20.3c14.2,0,22-6,22-21.1v-35.3c0-6.4-3.8-7.5-10.7-7.7v-4.1h27.5v4.1
		c-7,0.2-10.6,1.3-10.6,7.7v37.3c0,17.5-13.2,25.6-28.3,25.6c-17.7,0-29.2-8.1-29.2-25.8v-37.1c0-6.4-3.8-7.5-10.7-7.7v-4.1h31.5
		v4.1c-7,0.2-10.6,1.3-10.6,7.7L1240,621.1L1240,621.1z"/>
</g>
</svg>
