<svg viewBox="0 0 800 600" xmlns="http://www.w3.org/2000/svg"><path d="m0 0h800v600h-800z" fill="#4a74ff"/><path d="m261.54 173.08h-23.08v-23.08h46.16v23.08zm161.54 253.84h-23.08v-23.07h-23.08v46.15h-23.07v-23.08h-23.08v-23.07h-69.23v23.07h-23.08v-23.07h23.08v-23.08h23.08v-23.08h23.07v-46.15h-46.15v-23.08h46.15v-46.15h-46.15v-23.08h46.15v-23.08h-23.07v-23.07h69.23v230.77h23.07v-23.08h23.08v-184.62h-23.08v-23.07h69.23v230.77h23.08v23.07h-23.08v23.08h-23.07zm-69.23-253.84v-23.08h23.07v23.08zm92.3 0v-23.08h23.08v23.08zm23.08 207.69h23.08v-184.62h-23.08v-23.07h23.08v-23.08h46.15v23.08h23.08v23.07h-23.08v161.54h23.08v23.08h-46.16v23.08h-46.15z" fill="#fff"/><path d="m192.31 288.46h23.08v23.08h-23.08z" fill="#ff4d4d"/></svg>