<?xml version="1.0" encoding="utf-8"?>
<!-- Generator: Adobe Illustrator 27.1.0, SVG Export Plug-In . SVG Version: 6.00 Build 0)  -->
<svg version="1.1" id="Layer_1" xmlns="http://www.w3.org/2000/svg" xmlns:xlink="http://www.w3.org/1999/xlink" x="0px" y="0px"
	 viewBox="0 0 800 400" style="enable-background:new 0 0 800 400;" xml:space="preserve">
<style type="text/css">
	.st0{fill:#FFFFFF;}
</style>
<rect width="800" height="400"/>
<g>
	<g>
		<g>
			<path class="st0" d="M317.8,155.8c8.3,0,14.7-6.3,14.7-14.2c0-8-6.3-14.2-14.7-14.2s-14.5,6.2-14.5,14.2
				C303.3,149.4,309.5,155.8,317.8,155.8z"/>
			<path class="st0" d="M330.8,223.4v-58.7h-32.4v0.3c5.7,3.8,6.7,6,6.7,16.5v41.9c0,10-0.5,12.1-5.9,15.9v0.3h37.5v-0.3
				C331.5,235.4,330.8,233.3,330.8,223.4z"/>
			<path class="st0" d="M147,174l-6.5-18.2l-1.7-4.7c-1.1-3.2-1.8-5.9-1.8-8.5c0-3.6,1.7-6.3,5.3-8.6v-0.3H100v0.3
				c4.8,3.6,7.1,7.7,10.3,16.6l33.6,90.4h0.8l13-37.4l-2.1-5.9L147,174z"/>
			<path class="st0" d="M188.6,151.1c-1.1-3.2-1.7-5.7-1.7-8.2c0-3.8,1.8-6.5,5.7-8.9v-0.3h-41.9v0.3c4.8,3.6,7.1,7.7,10.3,16.6
				l5.3,15.1l2.1,6.5l23.7,68.8h0.8l12.6-35.7l-2.2-6.9L188.6,151.1z"/>
			<path class="st0" d="M244.7,223.4v-30.1v-10.7v-9.4v-39.4h-33v0.3c5.7,3.5,7.1,6,7.1,16.5v72.9c0,10-0.5,12.1-5.7,15.9v0.3h37.5
				v-0.3C245.1,235.4,244.7,233.3,244.7,223.4z"/>
			<path class="st0" d="M289.1,223.4v-36.4c0-13.6-6.7-23.7-21.2-23.7c-7.1,0-13.1,2.7-17.4,7.7c13.6,0,12.9,15.4,12.9,15.4v37
				c0,10-0.5,12.1-5.9,15.9v0.3H295v-0.3C289.7,235.4,289.1,233.3,289.1,223.4z"/>
			<polygon class="st0" points="391,160.9 377.5,160.9 377.5,164.7 390.3,164.7 			"/>
			<path class="st0" d="M379.5,228.5c-5.3,0-7.7-3.9-7.7-11.6v-38.9v-13.2v-3.8v-5.2v-21.1h-1.5c-5.1,15.3-17.1,25.1-30.8,28.3v1.8
				h6.8l-0.3,51.2c0,17.2,9.1,25.1,22.2,25.1c16,0,22.5-12.4,24.3-27.4l-1.7-0.3C389.4,223.4,385.3,228.5,379.5,228.5z"/>
			<path class="st0" d="M517.2,228c-12.8,0-20.6-11.5-20.6-31.3c0,0,0-1.9,0.1-4.7c0.3-5.5,1-10.3,2.3-14.4
				c2-6.8,5.6-13.2,12.1-14.5c-0.4,0-0.7,0-1.1,0c-21.5,0-39.6,15.6-39.6,40.4c0,23.4,15.7,37.5,34.8,37.5c16.3,0,28-9.2,31.1-26.2
				l-0.9-0.3C531.8,224.3,525.1,228,517.2,228z"/>
			<path class="st0" d="M506.5,181.2c0,7.9,6.2,14.2,14.5,14.2c8.3,0,14.7-6.3,14.7-14.2c0-8-6.3-14.2-14.7-14.2
				C512.7,167,506.5,173.2,506.5,181.2z"/>
			<path class="st0" d="M560.5,193.9c8.3,0,14.7-6.3,14.7-14.2c0-8-6.3-14.2-14.7-14.2s-14.5,6.2-14.5,14.2
				C546,187.5,552.2,193.9,560.5,193.9z"/>
			<path class="st0" d="M569.5,228.5c-1-1.1-1.8-2.5-2.3-4.4c-1.1-3.4-0.7-6.3-0.7-6.3s0-0.5,0-1.4c0.1-2,0.3-3.8,0.7-5.5
				c1.1-4.9,3.7-11.1,10.1-13.7l-4.2,0.8c-16.3,3.5-31.6,7.4-31.6,23.9c0,12.4,9.2,18.6,20.3,18.6c7.3,0,13.2-2.6,17.1-7
				C574.3,232.8,571.4,230.9,569.5,228.5z"/>
			<path class="st0" d="M618.7,233.3c-1.1,0.3-2.1,0.6-3.2,0.6c-5.9,0-7.1-4.5-7.1-12.1c0-12.7,0.2-23.9,0.2-33.4
				c0-18.7-12.7-25.2-33.9-25.2c-1.6,0-3.1,0.1-4.6,0.2c14.1,1,12.9,15.4,12.9,15.4v17.4v2.7l0.3,26c0,0.5,0.3,2.9,0.3,3.2
				c1.7,8,7.4,12.8,18.1,12.8c7.1,0,13.8-3,16.9-7.3V233.3z"/>
			<path class="st0" d="M443.3,228.3c-12.8,0-21-10.9-21-29.6v-3.2c0,0,0-0.5,0-1.5c0.2-7.2,0.9-13.5,2.2-18.3
				c1.5-6.2,2.8-11.8,6.1-12.6c-19.6,0.5-34.5,15.2-34.5,39c0,24.6,16.2,38.9,35.7,38.9c17.2,0,28.7-10.4,32-26.9l-0.9-0.3
				C458.7,224.3,451.5,228.3,443.3,228.3z"/>
			<path class="st0" d="M649.7,256.5v-9.2h0v-82.5h-32.4v0.3c5.7,3.8,6.7,6,6.7,16.5v75c0,10-0.5,12.1-5.9,15.9v0.3h38.2v-0.3
				C650.6,268.7,649.7,266.4,649.7,256.5z"/>
			<path class="st0" d="M672,163.2c-9.4,0-16.7,10.1-16.7,10.1c5.5-1.5,9.3,0.2,11.9,3.3c1.6,1.8,2.8,4.4,3.7,7.7
				c2.3,8,1.8,17.1,1.8,17.1c0,14.9-1.8,24.8-5.6,29.2c-2.6,3.3-5.5,3.3-7.8,2.5c-0.8-0.3-1.6-0.6-2.4-1.2c-1-0.7-1.7-1.3-1.7-1.3
				s5.2,10.3,15,10.3c16.6,0,29.6-15.6,29.6-39.8C700,177.9,687.6,163.2,672,163.2z"/>
			<path class="st0" d="M428.3,196.6c22.6-12.2,15.2-31.5,10-33.4l0,0c18.9,0,23.5,11.9,23.5,20.3c0,0,0.6,19.4-33.5,15.1"/>
		</g>
	</g>
</g>
</svg>
