<?xml version="1.0" encoding="utf-8"?>
<!-- Generator: Adobe Illustrator 27.1.0, SVG Export Plug-In . SVG Version: 6.00 Build 0)  -->
<svg version="1.1" id="Layer_1" xmlns="http://www.w3.org/2000/svg" xmlns:xlink="http://www.w3.org/1999/xlink" x="0px" y="0px"
	 viewBox="0 0 600 600" style="enable-background:new 0 0 600 600;" xml:space="preserve">
<style type="text/css">
	.st0{enable-background:new    ;}
	.st1{fill:#FFFFFF;}
</style>
<rect class="st0" width="600" height="600"/>
<g>
	<g>
		<path class="st1" d="M299.9,125C203.3,125,125,203.3,125,299.9c0,2.4,0.1,4.6,0.2,7c10.1,0,14.4,2.6,20.9,6.5
			c8.1,4.9,18.3,11,37.3,11s29.1-6.1,37.3-11c6.6-3.9,10.8-6.5,21.1-6.5c10.2,0,14.5,2.6,21.1,6.5c8.1,4.9,18.3,11,37.3,11
			s29.1-6.1,37.3-11c6.6-3.9,10.8-6.5,21.1-6.5s14.5,2.6,21.1,6.5c8.1,4.9,18.3,11,37.3,11s29.1-6.1,37.3-11
			c6.5-3.9,10.8-6.5,20.9-6.5c0.1-2.4,0.2-4.6,0.2-7C474.8,203.3,396.6,125,299.9,125z M437.6,286.4c-6.6,3.9-10.8,6.5-21.1,6.5
			s-14.5-2.6-21.1-6.5c-8.1-4.9-18.3-11-37.3-11s-29.1,6.1-37.3,11c-6.6,3.9-10.8,6.5-21.1,6.5c-10.2,0-14.5-2.6-21.1-6.5
			c-8.1-4.9-18.3-11-37.3-11s-29.1,6.1-37.3,11c-6.6,3.9-10.8,6.5-21.1,6.5s-14.5-2.6-21.1-6.5c-1.5-0.9-3.1-1.8-4.8-2.8
			c8.1-71.5,68.9-127.1,142.5-127.1S433.8,212.2,442,283.6C440.7,284.5,439.1,285.5,437.6,286.4z"/>
		<path class="st1" d="M416.5,362.9c-10.2,0-14.5-2.6-21.1-6.5c-8.1-4.9-18.3-11-37.3-11s-29.1,6.1-37.3,11
			c-6.6,3.9-10.8,6.5-21.1,6.5c-10.2,0-14.5-2.6-21.1-6.5c-8.1-4.9-18.3-11-37.3-11s-29.1,6.1-37.3,11c-6.6,3.9-10.8,6.5-21.1,6.5
			s-14.5-2.6-21.1-6.5c-7.3-4.4-16.1-9.6-31.2-10.8c3.6,13.3,8.7,26,15.1,37.9c8.1,4.9,18.3,10.9,37.1,10.9c19,0,29.1-6.1,37.3-11
			c6.6-3.9,10.8-6.5,21.1-6.5c10.2,0,14.5,2.6,21.1,6.5c8.1,4.9,18.3,11,37.3,11s29.1-6.1,37.3-11c6.6-3.9,10.8-6.5,21.1-6.5
			c10.2,0,14.5,2.6,21.1,6.5c8.1,4.9,18.3,11,37.3,11c18.8,0,28.9-6,37.1-10.9c6.5-11.9,11.5-24.6,15.1-37.9
			c-15.1,1.1-24,6.4-31.2,10.8C431,360.3,426.7,362.9,416.5,362.9z"/>
		<path class="st1" d="M358.2,415.4c-19,0-29.1,6.1-37.3,11c-6.6,3.9-10.8,6.5-21.1,6.5c-10.2,0-14.5-2.6-21.1-6.5
			c-8.1-4.9-18.3-11-37.3-11s-29.1,6.1-37.3,11c-5.9,3.5-10,5.9-18.2,6.4c9.9,8.4,20.6,15.8,32.2,21.9c0.8-0.4,1.5-0.9,2.2-1.3
			c6.6-3.9,10.8-6.5,21.1-6.5c10.2,0,14.5,2.6,21.1,6.5c8.1,4.9,18.3,11,37.3,11s29.1-6.1,37.3-11c6.6-3.9,10.8-6.5,21.1-6.5
			c10.2,0,14.5,2.6,21.1,6.5c0.7,0.4,1.5,0.9,2.2,1.3c11.5-6.1,22.4-13.5,32.2-21.9c-8.2-0.4-12.3-2.9-18.2-6.4
			C387.3,421.5,377.1,415.4,358.2,415.4z"/>
	</g>
</g>
</svg>
