<?xml version="1.0" encoding="utf-8"?>
<!-- Generator: Adobe Illustrator 27.1.0, SVG Export Plug-In . SVG Version: 6.00 Build 0)  -->
<svg version="1.1" id="Layer_1" xmlns="http://www.w3.org/2000/svg" xmlns:xlink="http://www.w3.org/1999/xlink" x="0px" y="0px"
	 viewBox="0 0 800 600" style="enable-background:new 0 0 800 600;" xml:space="preserve">
<style type="text/css">
	.st0{fill:#FFFFFF;}
</style>
<rect width="800" height="600"/>
<g>
	<g>
		<path class="st0" d="M260.9,321.8c-3.5-10.1-10.3-18.2-12.2-28.8c-2-11.1-6.3-18.8-11.5-28.8c-3.9,0-5.8,0-9.6,0
			c1.6,10.6,2.4,18.3,0.7,28.8c-1.6,10,1.7,18.8,1.5,28.8c-2.8-10.1-9.2-18.2-10.4-28.8c-1.3-11.1-5.1-18.7-9.7-28.8
			c-3.8,0-5.7,0-9.5,0c3,5.9,7.1,11.6,9.2,17.9c1.9,5.8,1.4,12.1,3.4,17.9c1.9,5.5,5.6,10,7.8,15.2c2.8,6.6,3.2,13.5,4.5,20.5
			c3.6,0,5.4,0,8.9,0c1.9-10.9,2.9-18,1.4-28.8c-1.4-10,2.1-18.8,2.2-28.8c3.8,9.7,3.8,19.5,8.9,28.8c5.5,9.9,7.3,17.7,9.7,28.8
			c3.6,0,5.4,0,8.9,0c1.1-6.9,3.2-13.5,2.5-20.5c-0.5-5.2-2.6-10-2.6-15.2c0-6.1,2.7-11.8,2.8-17.9c0-6-2.1-12-3.1-17.9
			c-3.8,0-5.7,0-9.4,0c2.3,10.8,3.5,17.9,2.4,28.8C256.7,303.1,260.5,311.8,260.9,321.8z"/>
		<path class="st0" d="M289.2,263.4c-5.5,0.1-9.2,2.2-10.7,5.2c-1.6,3.3-0.6,6.6-0.3,10.2c0.5,7.1-1,15,0,21.1
			c1.1,6.4,5.4,13.9,7.4,21.1c1,3.8,1.3,7.2,4,10.2c2.7,3.1,7,5.2,12.6,5.2c5.6,0,9-2.1,11.9-5.2c8.8-9.4,0.7-21.9-0.9-31.3
			c-1.9-10.9,0.2-22.8-10.2-31.3C299.5,265.8,293.7,263.3,289.2,263.4z M286.9,273.9c0.4-1.5,2-2.7,4.8-2.7c1,0,2,0.1,2.9,0.4
			c1.7,9.5-0.4,15.2-1.9,24.3c-1.4,8.2,1.3,16.1,1.4,24.3c-1.7-7-6.2-14-7.3-20.2C285.6,293,285.2,281.1,286.9,273.9z M307.9,326.1
			c-1.3,1.6-3.2,2.7-6,2.7c-1,0-1.9-0.1-2.7-0.4c2.5-9.1,1.1-15,0.3-24.2c-0.7-8.3,2.7-16,3.5-24.2c2.5,6.4,0.1,14,1.4,20
			C306,307.1,313.7,318.7,307.9,326.1z"/>
		<path class="st0" d="M357.4,284.6c-0.4-11.7-12.5-20.3-23.3-20.4c-5.4,0-10.8,0-16.2,0c2,5.9,5.1,11.7,6.1,17.9
			c1,6-0.7,11.9,0.3,17.9c0.9,5.4,3.8,10,5.2,15.2c1.8,6.8,0.8,13.6,1,20.5c3.5,0,5.2,0,8.6,0c-0.3-11.8-0.3-19.7-4.9-30.7
			c3.1,0,4.6,0,7.7,0c7.5,10.3,10.6,18.9,14.7,30.7c3.7,0,5.5,0,9.1,0c-2.2-5.3-3.1-11-5.5-16.2c-2.7-5.9-7.1-11-10.9-16.2
			C355.3,299.8,357.6,290.9,357.4,284.6z M340.2,297.4c-3.1,0-4.6,0-7.6,0c0-9.6,0.4-16.3-3.3-25.4c3.1,0,4.6,0,7.6,0
			c6.5,0.2,11.6,6.4,11.8,12.7C348.9,290,346.8,297.3,340.2,297.4z"/>
		<path class="st0" d="M398.4,264.2c-3.5,0-5.3,0-8.8,0c-0.9,6-0.8,12.3-2.6,18.1c-2,6.3-5.8,12-8.3,18.1c-0.4-6,0.6-12.2-0.3-18.1
			c-0.9-6.3-4.1-12.1-6.1-18.1c-3.5,0-5.2,0-8.6,0c2,5.9,5.1,11.7,6.1,17.9c1,6-0.7,11.9,0.3,17.9c0.9,5.4,3.8,10,5.2,15.2
			c1.8,6.8,0.8,13.6,1,20.5c3.5,0,5.2,0,8.6,0c-0.5-6.7,1.1-13.4-0.7-20c1-4.9,0.6-7.4,1.5-12.4c8.6,11,12.7,19.7,18.1,32.4
			c3.7,0,5.6,0,9.3,0c-3.1-7.2-5-14.5-9.4-21c-4.9-7.2-10.4-12.8-13.8-21C395.7,283.4,396,275.5,398.4,264.2z"/>
		<path class="st0" d="M435.2,297c-3.3-1.3-4.9-2-8-3.3c-5.4-1.7-6.3-6.8-6.7-11.6c-0.3-3.5-1.2-6.7-0.2-8.5
			c0.6-1.3,2.1-2.2,4.6-2.2c2.7,0,5,0.9,6.8,2.4c2.7,2.2,4.4,4.8,4.9,8.6c3.5,0,5.2,0,8.6,0c-1-6-5-11.2-9.9-14.7
			c-3.6-2.6-7.8-4.1-13-4.1c-4.7,0-8.4,1.5-10.2,4.1c-2.8,4-0.8,10.5-0.3,14.7c0.9,7.7,1.1,14.9,9.9,17.9c3.5,1.3,5.3,2,9,3.3
			c6.1,2.1,10.5,6.8,12,13.2c1.1,4.7,0.2,7.5-1.8,9.5c-1.4,1.4-3.4,2.3-6.3,2.3c-2.7,0-4.7-0.9-5.8-2.2c-1.7-2-1.7-4.6-2.8-9.3
			c-3.5,0-5.2,0-8.6,0c0.8,5.1,0.7,11.2,4.5,15.1c2.8,2.8,7.4,4.3,12.9,4.3c5.7,0,9.7-1.7,12.3-4.3c4-3.9,5.6-10.2,4.2-15.6
			C449.2,308.5,443.4,300.1,435.2,297z"/>
		<path class="st0" d="M481.4,335.8c9.2,0,18.4,0,27.6,0c-0.4-3.1-0.2-4.6,0-7.7c-6.3,0-12.7,0-19,0c1.3-8.9-2.1-16.2-5.3-24.3
			c5.5,0,10.9,0,16.4,0c-1-3.1-1.3-4.6-1.3-7.7c-5.5,0-10.9,0-16.4,0c0.4-9,0.2-15.5-3.2-24c6.3,0,12.7,0,19,0
			c-1.3-3.1-2-4.6-2.7-7.7c-9.2,0-18.4,0-27.6,0c2,5.9,5.1,11.7,6.1,17.9c1,6-0.7,11.9,0.3,17.9c0.9,5.4,3.8,10,5.2,15.2
			C482.2,322,481.3,328.8,481.4,335.8z"/>
		<path class="st0" d="M544.3,313.2c-6.3-8-10.3-15-13.9-24.5c-3.5-9.4-9.8-16.3-15.5-24.5c-3.2,0-4.8,0-8,0
			c2,5.9,5.1,11.7,6.1,17.9c1,6-0.7,11.9,0.3,17.9c0.9,5.4,3.8,10,5.2,15.2c1.8,6.8,0.8,13.6,1,20.5c3.5,0,5.2,0,8.6,0
			c-0.2-8.8,0.6-16.1-2.3-24.5c-3.2-9-4.4-15-3.9-24.5c3.1,9.8,7.1,16.4,13.2,24.5c5.7,7.6,8,15.8,11.5,24.5c3.1,0,4.7,0,7.8,0
			c-0.1-7,0.8-13.8-1-20.5c-1.4-5.2-4.3-9.9-5.2-15.2c-1-6,0.7-11.9-0.3-17.9c-1-6.1-4.2-12-6.1-17.9c-3.5,0-5.2,0-8.6,0
			c2.8,8.4,6.3,15.5,6.3,24.5C539.5,298.2,540.6,304.2,544.3,313.2z"/>
		<path class="st0" d="M585.2,269.3c-3.5-2.8-9.2-5.2-13.9-5c-5.5,0-11,0-16.5,0c2,5.9,5.1,11.7,6.1,17.9c1,6-0.7,11.9,0.3,17.9
			c0.9,5.4,3.8,10,5.2,15.2c1.8,6.8,0.8,13.6,1,20.5c5.5,0,11,0,16.5,0c5.8,0,9.4-2.2,12.1-5c8.7-9,0.6-21.6-1-30.7
			C593.2,289.4,595.4,277.4,585.2,269.3z M590,325.3c-1.3,1.6-3.5,2.7-6.3,2.7c-3,0-4.5,0-7.5,0c0.4-10.7-4.6-17.9-6.3-28
			c-1.7-10,0.4-18-3.6-28c3,0,4.5,0,7.5,0c2.8,0,5.3,1.1,7.3,2.7c7.5,6.1,4.1,17.9,5.4,25.3C587.5,306.6,595.7,318.4,590,325.3z"/>
	</g>
</g>
</svg>
