<?xml version="1.0" encoding="utf-8"?>
<!-- Generator: Adobe Illustrator 27.1.0, SVG Export Plug-In . SVG Version: 6.00 Build 0)  -->
<svg version="1.1" id="Layer_1" xmlns="http://www.w3.org/2000/svg" xmlns:xlink="http://www.w3.org/1999/xlink" x="0px" y="0px"
	 viewBox="0 0 1200 750" style="enable-background:new 0 0 1200 750;" xml:space="preserve">
<style type="text/css">
	.st0{fill-rule:evenodd;clip-rule:evenodd;fill:#CC2931;}
</style>
<rect width="1200" height="750"/>
<g>
	<polygon class="st0" points="300.2,333.5 300.2,314.8 203.7,314.8 214.2,325.3 292.4,325.3 213.7,422.9 290.1,422.9 301.3,434.1 
		301.3,412.2 237,412.2 	"/>
	<polygon class="st0" points="208.8,425.2 287.6,327.6 213.3,327.6 202.1,316.4 202.1,338.1 263.4,338.1 200,417.3 200,435.8 
		299.7,435.8 289.1,425.2 	"/>
	<path class="st0" d="M379,326.6c-13.7,0-25.3,4.6-34.7,13.7c-9.3,9.1-14.1,20.6-14.1,34.2c0,13.6,4.7,25.1,14.1,34.2
		c9.3,9.1,21,13.7,34.7,13.7c13.7,0,25.3-4.6,34.7-13.7c9.3-9.1,14.1-20.6,14.1-34.2c0-13.6-4.7-25.1-14.1-34.2
		C404.3,331.2,392.7,326.6,379,326.6z M404.6,402.1c-6.9,7.6-15.4,11.3-25.5,11.3c-10.1,0-18.6-3.8-25.5-11.3
		c-6.9-7.6-10.4-16.7-10.4-27.5c0-10.8,3.5-20,10.4-27.6c6.9-7.6,15.4-11.4,25.5-11.4c10.1,0,18.6,3.8,25.5,11.4
		c6.9,7.6,10.4,16.8,10.4,27.6C415,385.4,411.5,394.6,404.6,402.1z"/>
	<path class="st0" d="M379,312c-17.9,0-32.9,6-45.2,17.9c-12.2,11.9-18.4,26.8-18.4,44.6c0,17.8,6.1,32.6,18.4,44.6
		C346.1,431,361.1,437,379,437s33-6,45.2-17.9c12.2-11.9,18.3-26.8,18.3-44.6c0-17.8-6.1-32.6-18.3-44.6C412,318,396.9,312,379,312z
		 M415.3,410.3c-9.8,9.5-22,14.4-36.3,14.4c-14.3,0-26.5-4.8-36.3-14.4c-9.8-9.6-14.7-21.6-14.7-35.8c0-14.2,5-26.3,14.7-35.8
		c9.8-9.5,22-14.4,36.3-14.4c14.3,0,26.5,4.8,36.3,14.4c9.8,9.6,14.8,21.6,14.8,35.8C430,388.7,425.1,400.7,415.3,410.3z"/>
	<path class="st0" d="M560.4,375.4c0-15.1-4.8-26.9-14.4-35.1c-9.6-8.2-24.7-12.3-44.7-12.3H480v94h24.3c18,0,32-4,41.6-12
		C555.5,402.2,560.4,390.6,560.4,375.4z M538,402.5c-6.6,6.2-16.1,9.3-28.5,9.3h-17.1v-73.6h15.1c13.7,0,23.9,3.2,30.6,9.6
		c6.6,6.4,10,15.6,10,27.4C548,387.2,544.6,396.3,538,402.5z"/>
	<path class="st0" d="M557.8,330.6c-11.5-10.6-28.1-15.8-49.7-15.8h-41.3l12.6,11h21.8c20.6,0,36.2,4.3,46.2,12.9
		c10.1,8.6,15.2,21,15.2,36.8c0,15.8-5.1,28.1-15.2,36.5c-10,8.3-24.5,12.5-43.1,12.5h-26.6V327l-12.3-10.7v119.5h41.4
		c23.1,0,40.3-5.5,51.5-16.4c11.3-11,16.9-25.8,16.9-44.7C575.1,355.9,569.4,341.2,557.8,330.6z"/>
	<polygon class="st0" points="610.9,328.8 598.5,316.4 598.5,435.8 623.9,435.8 610.9,422.8 	"/>
	<polygon class="st0" points="613.2,327.8 613.2,421.8 625.5,434.2 625.5,314.8 600.1,314.8 	"/>
	<polygon class="st0" points="703.6,314.8 691.8,314.8 639.5,435.8 666.5,435.8 655.9,425.2 	"/>
	<polygon class="st0" points="706.1,314.8 658.7,424.7 667.7,433.7 678.5,409.2 683.9,396.6 723.4,396.6 718.7,385.9 689.7,385.9 
		713.2,331.1 753.4,424.1 769.5,433.9 718,314.8 	"/>
	<polygon class="st0" points="713.2,336.9 706.5,352.4 726.9,398.9 685.4,398.9 680.8,409.6 730.2,409.6 741.5,435.8 768,435.8 
		751.6,425.7 	"/>
	<path class="st0" d="M815.7,347.7c7.2-6.6,15.9-10,26.1-10c12.1,0,22.3,4.8,30.6,14.5l-0.6-16.1c-2.7-2.1-5.6-3.9-8.5-5.3
		c-6.6-3.2-14.1-4.8-22.1-4.8c-13.7,0-25.4,4.7-34.9,14c-9.4,9.3-14.2,21-14.2,34.8s4.7,25.5,14,34.6c9.3,9.1,21.3,13.7,35.6,13.7
		c14.2,0,28-7.1,38.5-18.9l-7.8-8c-8.4,10.5-19.3,15.8-32.5,15.8c-9.7,0-17.9-3.4-24.8-10.2c-6.8-6.8-10.2-15.8-10.2-27.1
		C804.9,363.3,808.5,354.4,815.7,347.7z"/>
	<path class="st0" d="M840.5,312c-17.8,0-32.8,6-45.1,18c-12.3,12-18.4,27-18.4,44.9c0,17.9,6,32.8,18.1,44.6
		c12.1,11.8,27.4,17.7,46.1,17.7c18.6,0,34.8-7.7,48.6-23.2l-7.9-8.1c-11,12.3-25.3,19.6-40.1,19.6c-15,0-27.5-4.8-37.2-14.3
		c-9.7-9.5-14.6-21.7-14.6-36.2c0-14.5,5-26.8,14.9-36.5c9.9-9.7,22.2-14.6,36.5-14.6c8.4,0,16.1,1.7,23.1,5.1
		c3.3,1.6,6.4,3.6,9.4,5.9l0.4,0.3l0.6,17.4l15.7-17.8C877,319.6,860.4,312,840.5,312z"/>
	<path class="st0" d="M917.3,373.2c6.5,5.4,16.8,9.7,30.9,13.1c8.9,2.2,14.8,4.4,17.8,6.5c3,2.1,4.5,5,4.5,8.7
		c0,3.6-1.4,6.5-4.2,8.7c-2.8,2.1-6.7,3.2-11.7,3.2c-10.7,0-22.4-5.4-35-16.1l2.5,17.6c17.5,10.5,30.5,10.1,30.7,10
		c10.6,0.4,19.6-3,25.3-9.4c4.7-5.3,6.7-12.2,5.6-19.5c-1.7-11.6-19.4-17.5-36.4-21.8c-20.2-5.1-30.3-17.4-26.9-32.9
		c1.5-7.1,6.3-12.8,13.4-16.2c6.9-3.3,15.4-4.1,24-2.2c0.6,0.1,14.1,3.1,23.3,8.6l0.5,0.3l2.1,14.6l12.7-18.3c-6-5.1-13-9-21.1-11.8
		c-8.1-2.8-16.2-4.2-24.2-4.2c-12.3,0-22.6,3.1-30.9,9.3c-8.3,6.2-12.4,15.1-12.4,26.6C907.5,359.4,910.8,367.8,917.3,373.2z"/>
	<path class="st0" d="M988.9,375.9c-6.4-5.7-15.3-9.9-26.7-12.7c-11.5-2.8-18.8-5.3-22-7.4c-3.2-2.1-4.8-4.9-4.8-8.4
		c0-3.5,1.3-6.3,3.9-8.5c2.6-2.1,6.1-3.2,10.6-3.2c10.8,0,21.2,3.7,31.3,11l-1.9-13.7c-8.9-5.1-22-8-22.1-8c-8.1-1.7-16.1-1-22.6,2
		c-6.4,3.1-10.7,8.2-12.1,14.6c-3.1,14.2,6.4,25.5,25.2,30.2c17.8,4.5,36.2,10.8,38.1,23.7c1.2,7.9-1,15.5-6.2,21.3
		c-5.9,6.6-14.9,10.2-25.4,10.2c-0.5,0-1,0-1.6,0c-0.5,0-14,0.5-32.3-10.7l-0.5-0.3l-2.6-18.6l-15,18.4
		c15.3,14.2,32.6,21.3,51.8,21.3c13.3,0,24-3.4,32.1-10.1c8.1-6.8,12.2-15.6,12.2-26.4C998.4,389.8,995.2,381.5,988.9,375.9z"/>
</g>
</svg>
