<?xml version="1.0" encoding="UTF-8"?>
<svg id="Layer_1" xmlns="http://www.w3.org/2000/svg" version="1.1" viewBox="0 0 1600 900">
  <!-- Generator: Adobe Illustrator 30.2.1, SVG Export Plug-In . SVG Version: 2.1.1 Build 1)  -->
  <rect width="1600" height="900" fill="#111"/>
  <g>
    <g>
      <path d="M427.9,289.1v28.7c-23,1.1-46,2.3-69,3.7v31.2c18.6-1.1,37.3-2.1,55.9-3v28.7c-18.6.9-37.3,1.9-55.9,3v34.6c23-1.3,46-2.6,69-3.7v28.7c-33.1,1.6-66.2,3.4-99.4,5.5v-151.9c33.1-2,66.2-3.9,99.4-5.5ZM414.8,429.5v-4.2c-23,1.2-46,2.4-69,3.8v-59.1c18.6-1.1,37.3-2.1,55.9-3.1v-4.2c-18.6,1-37.3,2-55.9,3.1v-55.7c23-1.4,46-2.6,69-3.8v-4.2c-24.4,1.2-48.8,2.6-73.2,4v127.5c24.4-1.5,48.8-2.8,73.2-4Z" fill="#fff"/>
      <path d="M565.5,283.7v151.9c-10.9.3-21.8.7-32.7,1.1-18.6-33.9-37.3-67.7-55.9-101.4v103.6c-9.5.4-19,.8-28.5,1.3v-151.9c10.9-.5,21.8-1,32.7-1.4,18.6,33.8,37.3,67.6,55.9,101.5v-103.6c9.5-.3,19-.6,28.5-.9ZM549.1,419.6c-2.4,0-4.8.2-7.2.2-22.6-40.3-45.2-80.5-67.8-120.6-4.5.2-9,.4-13.5.6v127.5c1.4,0,2.8-.1,4.2-.2v-123.2c2.4-.1,4.8-.2,7.2-.3,22.6,40.1,45.2,80.3,67.8,120.6,4.5-.2,9-.3,13.5-.4,0-42.5,0-85,0-127.5-1.4,0-2.8,0-4.2.1v123.2Z" fill="#fff"/>
      <path d="M651.2,309.8v123.7c-10.1.2-20.3.4-30.4.7v-123.7c-13.2.3-26.5.7-39.7,1v-28.3c36.6-1,73.2-1.8,109.8-2.4v28.3c-13.2.2-26.5.4-39.7.7ZM633.9,298.1c0,41.1,0,82.3,0,123.4,1.4,0,2.8,0,4.2,0v-123.4c13.2-.3,26.5-.5,39.7-.7v-4.2c-27.9.4-55.7,1-83.6,1.8v4.2c13.2-.4,26.5-.7,39.7-1Z" fill="#fff"/>
      <path d="M806,280.1c0,9.6,0,19.1,0,28.7-23,0-46,0-69.1.3v31.2c18.7-.2,37.3-.2,56-.3,0,9.6,0,19.1,0,28.7-18.7,0-37.3.1-56,.3v34.6c23-.2,46-.3,69.1-.3,0,9.6,0,19.1,0,28.7-33.2,0-66.3.2-99.5.6,0-50.6,0-101.3,0-151.9,33.2-.4,66.3-.6,99.5-.6ZM792.9,419.8c0-1.4,0-2.8,0-4.2-23,0-46,.1-69.1.4,0-19.7,0-39.4,0-59.1,18.7-.2,37.3-.3,56-.4v-4.2c-18.7,0-37.3.2-56,.4,0-18.6,0-37.1,0-55.7,23-.2,46-.4,69.1-.4,0-1.4,0-2.8,0-4.2-24.4,0-48.9.2-73.3.4v127.5c24.4-.3,48.9-.4,73.3-.4Z" fill="#fff"/>
      <path d="M943.7,281.4c0,50.6,0,101.3,0,151.9-10.9-.2-21.8-.4-32.7-.5-18.7-34.8-37.3-69.5-56-104.2v103.6c-9.5,0-19-.1-28.5-.2v-151.9c10.9,0,21.8,0,32.7.2,18.7,34.7,37.3,69.4,56,104.2,0-34.5,0-69.1,0-103.6,9.5.1,19,.3,28.5.5ZM927.2,416.6c-2.4,0-4.8,0-7.2-.1-22.6-41.4-45.2-82.8-67.8-124-4.5,0-9,0-13.5,0v127.5c1.4,0,2.8,0,4.2,0v-123.2c2.4,0,4.8,0,7.2,0,22.6,41.2,45.2,82.6,67.8,124,4.5,0,9,.1,13.5.2v-127.5c-1.4,0-2.8,0-4.2,0v123.2Z" fill="#fff"/>
      <path d="M1087.9,285.5v151.9c-10.9-.4-21.8-.8-32.7-1.2-18.6-35.2-37.3-70.3-55.9-105.3v103.6c-9.5-.2-19-.5-28.5-.7,0-50.6,0-101.3,0-151.9,10.9.2,21.8.5,32.7.8,18.7,35,37.3,70.1,55.9,105.3v-103.6c9.5.3,19,.7,28.5,1ZM1071.4,420.3c-2.4,0-4.8-.2-7.2-.3-22.6-41.9-45.2-83.6-67.8-125.3-4.5-.1-9-.2-13.5-.3v127.5c1.4,0,2.8,0,4.2.1,0-41.1,0-82.2,0-123.2,2.4,0,4.8.1,7.2.2,22.6,41.7,45.2,83.4,67.8,125.3,4.5.2,9,.3,13.5.5v-127.5c-1.4,0-2.8-.1-4.2-.2v123.2Z" fill="#fff"/>
      <path d="M1114.9,286.5c10.1.4,20.3.9,30.4,1.3v151.9c-10.1-.5-20.3-.9-30.4-1.3v-151.9ZM1132.2,427v-127.5c-1.4,0-2.8-.1-4.2-.2v127.5c1.4,0,2.8.1,4.2.2Z" fill="#fff"/>
      <path d="M1190.4,442c-10.5-.5-21-1-31.4-1.5,16.3-49.9,32.6-99.7,48.9-149.5,11.8.6,23.6,1.3,35.4,2,16.3,51.6,32.6,103.2,48.9,154.9-10.9-.7-21.8-1.4-32.7-2-3.3-11.6-6.6-23.2-9.9-34.8-16.4-1-32.8-1.9-49.1-2.7-3.4,11.2-6.8,22.4-10.1,33.7ZM1274.4,434.5c-13-43.3-26-86.6-39-129.8-6.5-.4-12.9-.7-19.4-1.1-13.2,41.8-26.4,83.6-39.7,125.4,1.3,0,2.7.1,4,.2,3.5-11.2,7-22.4,10.5-33.7,23.1,1.2,46.1,2.5,69.2,3.9,3.4,11.6,6.9,23.2,10.3,34.8,1.3,0,2.7.2,4,.2ZM1218.5,308c-8.8,27.8-17.6,55.6-26.4,83.4,22.2,1.1,44.4,2.4,66.7,3.7-8.6-28.8-17.3-57.6-25.9-86.3-4.8-.3-9.6-.5-14.3-.8ZM1225.4,325.2c5.3,18.9,10.7,37.7,16,56.6-10.8-.6-21.7-1.2-32.5-1.8,5.5-18.3,11-36.5,16.5-54.8Z" fill="#fff"/>
      <path d="M1336.4,298.9v148.1c21.2,1.5,42.4,3.1,63.6,4.7v28.7c-31.3-2.5-62.7-4.7-94-6.8v-176.8c10.1.7,20.2,1.4,30.4,2.1ZM1386.9,467.2v-4.2c-21.2-1.6-42.4-3.2-63.6-4.6v-148.1c-1.4,0-2.8-.2-4.2-.3v152.4c22.6,1.5,45.2,3.2,67.9,4.9Z" fill="#fff"/>
      <path d="M496.9,618.6c-10.5.4-21,.9-31.4,1.3,16.3-51.4,32.6-102.7,49-153.9,11.8-.4,23.6-.9,35.5-1.2,16.3,50.1,32.7,100.3,49,150.5-10.9.3-21.8.6-32.7.9-3.3-11.3-6.6-22.6-9.9-33.9-16.4.5-32.8,1.1-49.2,1.7-3.4,11.5-6.8,23.1-10.1,34.6ZM580.9,603.5c-13-42.1-26-84.2-39.1-126.2-6.5.2-12.9.4-19.4.7-13.2,43-26.5,86-39.7,129,1.3,0,2.7-.1,4-.2,3.5-11.5,7-23.1,10.6-34.6,23.1-.9,46.2-1.7,69.2-2.4,3.4,11.3,6.9,22.6,10.3,33.9,1.3,0,2.7,0,4-.1ZM525,482.1c-8.8,28.6-17.6,57.2-26.4,85.8,22.2-.9,44.5-1.7,66.7-2.3-8.7-28-17.3-56-26-84-4.8.2-9.6.3-14.4.5ZM532,498.7c5.3,18.4,10.7,36.8,16,55.2-10.8.4-21.7.7-32.5,1.1,5.5-18.8,11-37.5,16.5-56.3Z" fill="#fff"/>
      <path d="M692,613.4c-8.2-18.7-16.3-37.3-24.5-56-8.2.1-16.3.3-24.5.5v56.3c-10.1.2-20.3.4-30.4.7v-151.9c25.8-.6,51.7-1.1,77.5-1.5,17.7-.3,30,11.9,30,29.6v35.7c0,14.4-8,25.2-20.7,28.9,8.4,19.1,16.9,38.2,25.3,57.3-10.9.1-21.8.2-32.7.4ZM705.3,601c-8.2-18.6-16.3-37.2-24.5-55.8,1.8,0,3.7,0,5.5,0,13.1-.2,20.7-7.9,20.7-21v-30c0-13.1-7.6-20.6-20.7-20.4-20.2.3-40.4.7-60.6,1.1v127.5c1.4,0,2.8,0,4.2,0,0-18.7,0-37.4,0-56.1,15.5-.3,31-.6,46.5-.9,8.2,18.6,16.3,37.2,24.5,55.8,1.5,0,3,0,4.4,0ZM702.8,524.2c0,10.6-5.9,16.5-16.5,16.7-18.8.3-37.6.6-56.4,1,0-21,0-41.9,0-62.9,18.8-.4,37.6-.8,56.4-1,10.6-.2,16.5,5.7,16.5,16.2v30ZM682.5,528.9c4.6,0,7.2-2.6,7.2-7.3v-24.3c0-4.6-2.5-7.1-7.2-7.1-13.2.2-26.3.4-39.5.7v38.6c13.2-.3,26.3-.5,39.5-.7Z" fill="#fff"/>
      <path d="M844,460.8v28.7c-23-.1-46-.2-69.1,0v31.2c18.7,0,37.3,0,56,0v28.7c-18.7,0-37.3,0-56,0v34.6c23,0,46,0,69.1,0v28.7c-33.2-.2-66.3-.2-99.5,0v-151.9c33.2-.2,66.3-.3,99.5,0ZM830.9,600.4v-4.2c-23,0-46,0-69.1,0v-59.1c18.7,0,37.3-.1,56,0v-4.2c-18.7,0-37.3,0-56,0v-55.7c23-.1,46-.1,69.1,0v-4.2c-24.4,0-48.9,0-73.3,0v127.5c24.4-.1,48.9-.2,73.3,0Z" fill="#fff"/>
      <path d="M976.4,462.7v151.9c-10.9-.3-21.8-.5-32.7-.7-18.7-34.9-37.3-69.7-56-104.5v103.6c-9.5-.1-19-.2-28.5-.3v-151.9c10.9,0,21.8.2,32.7.3,18.7,34.8,37.3,69.6,56,104.5v-103.6c9.5.2,19,.4,28.5.6ZM960,597.8c-2.4,0-4.8,0-7.2-.1-22.6-41.5-45.2-83-67.8-124.3-4.5,0-9,0-13.5-.1v127.5c1.4,0,2.8,0,4.2,0v-123.2c2.4,0,4.8,0,7.2,0,22.6,41.3,45.2,82.7,67.8,124.3,4.5,0,9,.2,13.5.3v-127.5c-1.4,0-2.8,0-4.2,0v123.2Z" fill="#fff"/>
      <path d="M1017.4,615.7c-10.5-.3-21-.6-31.5-.8,16.3-50.2,32.7-100.4,49-150.6,11.8.4,23.6.8,35.5,1.2,16.3,51.2,32.6,102.5,49,153.8-10.9-.5-21.8-.9-32.7-1.3-3.3-11.5-6.6-23-9.9-34.6-16.4-.6-32.8-1.1-49.2-1.6-3.4,11.3-6.8,22.6-10.1,33.9ZM1101.4,606.3c-13-43-26-86-39-128.9-6.5-.2-12.9-.4-19.4-.6-13.2,42.1-26.5,84.2-39.7,126.3,1.3,0,2.7,0,4,.1,3.5-11.3,7-22.6,10.6-33.9,23.1.7,46.2,1.4,69.2,2.3,3.4,11.5,6.9,23.1,10.3,34.6,1.3,0,2.7.1,4,.2ZM1045.5,481.1c-8.8,28-17.6,56-26.4,84,22.2.6,44.5,1.4,66.7,2.2-8.7-28.6-17.3-57.2-26-85.8-4.8-.2-9.6-.3-14.4-.5ZM1052.4,498.2c5.3,18.7,10.7,37.5,16,56.3-10.8-.4-21.7-.7-32.5-1.1,5.5-18.4,11-36.8,16.5-55.2Z" fill="#fff"/>
      <path d="M307.9,325c0-17.7-12.2-29.2-29.9-28-16,1.1-32,2.2-48.1,3.4-17.7,1.3-29.9,14.5-29.9,32.3v118.6c0,17.7,12.2,29,29.9,27.7,16-1.2,32-2.3,48.1-3.4,17.7-1.2,29.9-14.2,29.9-32v-24.5c-10.1.7-20.2,1.3-30.4,2v18.6c0,4.6-2.5,7.3-7.2,7.7-11,.8-21.9,1.5-32.9,2.4-4.6.3-7.2-2-7.2-6.6v-106.8c0-4.6,2.5-7.4,7.2-7.7,11-.8,21.9-1.6,32.9-2.4,4.6-.3,7.2,2,7.2,6.7v18.6c3.9-.3,7.7-.5,11.6-.8,1.2-2.1,2.4-4.1,3.6-6.2,1.2,1.9,2.4,3.8,3.6,5.7,3.9-.3,7.8-.5,11.7-.8v-24.5ZM294.8,338.5c-1.4,0-2.8.2-4.2.3v-9.7c0-10.5-5.9-16.1-16.4-15.3-13.5.9-27,1.9-40.5,2.9-10.5.8-16.4,7.2-16.4,17.7v112.7c0,10.6,5.9,16,16.4,15.2,13.5-1,27-2,40.5-2.9,10.5-.7,16.4-7,16.4-17.6v-9.3c1.4,0,2.8-.2,4.2-.3v9.3c0,13.1-7.6,21.2-20.7,22.1-13.5.9-27,1.9-40.5,2.9-13.1,1-20.7-6-20.7-19.1v-112.7c0-13.1,7.6-21.3,20.7-22.2,13.5-1,27-2,40.5-2.9,13.1-.9,20.7,6.2,20.7,19.3v9.7Z" fill="#fff"/>
    </g>
    <path d="M322.9,381.4c-2.5.2-5,.3-7.6.5-.6-1.9-1.3-3.7-1.9-5.6-3.8,2.8-7.6,5.5-11.4,8.3.6-6.6,1.3-13.1,1.9-19.7-1.9.8-3.8,1.5-5.7,2.3-1.9-3-3.8-6.1-5.7-9.1-1.9,3.3-3.8,6.6-5.7,9.8-1.9-.5-3.8-1-5.7-1.5.6,6.5,1.3,12.9,1.9,19.4-3.8-2.3-7.6-4.5-11.4-6.8-.6,1.9-1.3,3.9-1.9,5.8-2.5.2-5,.4-7.6.5,1.3,2.4,2.5,4.9,3.8,7.3-1.3,1.4-2.5,2.7-3.8,4.1,5,2.2,10.1,4.3,15.1,6.5v7.6c4.3-1.4,8.7-2.8,13-4.1v-21.4c1.4,0,2.8-.2,4.2-.3v21.4c4.3.8,8.7,1.6,13,2.4v-7.6c5-2.9,10.1-5.7,15.1-8.5-1.3-1.2-2.5-2.4-3.8-3.6,1.3-2.6,2.5-5.2,3.8-7.8Z" fill="#e67a2e"/>
  </g>
</svg>