<?xml version="1.0" encoding="UTF-8"?>
<svg id="Layer_1" xmlns="http://www.w3.org/2000/svg" version="1.1" viewBox="0 0 800 600">
  <!-- Generator: Adobe Illustrator 30.1.0, SVG Export Plug-In . SVG Version: 2.1.1 Build 136)  -->
  <rect width="800" height="600" fill="#e2e2d6"/>
  <g>
    <g id="Hill__x2B__Shadow">
      <polygon id="Hill" points="222.3 354.1 257.9 264.9 347.2 264.9 382.8 175.7 507.5 175.7 578.7 354.1 222.3 354.1" fill="#a1a092"/>
      <g id="Shadow">
        <polygon id="Shadow_Bottom" points="571.7 372.1 229.8 372.1 236.7 389.7 564.7 389.7 571.7 372.1" fill="#a1a092"/>
        <polygon id="Shadow_Top" points="350.8 407.2 357.8 424.8 536.2 425.2 543.1 407.2 350.8 407.2" fill="#a1a092"/>
      </g>
    </g>
    <path id="Star" d="M320.3,246.9h-18c0-18-8.7-26.8-26.8-26.8v-18c18,0,26.8-8.7,26.8-26.8h18c0,18,8.7,26.8,26.8,26.8v18c-18,0-26.8,8.7-26.8,26.8Z" fill="#a1a092"/>
  </g>
</svg>