<?xml version="1.0" encoding="UTF-8"?>
<svg id="Layer_1" xmlns="http://www.w3.org/2000/svg" version="1.1" viewBox="0 0 800 600">
  <!-- Generator: Adobe Illustrator 29.1.0, SVG Export Plug-In . SVG Version: 2.1.0 Build 142)  -->
  <defs>
    <style>
      .st0 {
        fill: #7f7f7f;
        opacity: .1;
      }

      .st1 {
        fill: #8da79a;
      }
    </style>
  </defs>
  <rect class="st0" width="800" height="600"/>
  <path class="st1" d="M484.7,401.3c19.7-19.9,30.5-46.4,29.8-72.8l-.3-11.5-11.6-.2c-.6,0-1.2,0-1.9,0-25.8.2-51.4,11.2-70.5,30.6-7.3,7.4-13.3,20.6-18,29.5-.3-29.6,11.4-62.8,31.4-84.7,11.4-12.5,19.1-28.7,23.1-43.6,5.7-18,5.2-47.9,4.7-74.3-.2-9-.3-17.4-.2-23.6l-24.1-.7c-.2,44.6,5.3,93.1-18.1,129.6,3.2-17.1,2.8-44,2.6-62.5l-.4-66.6h-24.1c0,.1.4,60.5.4,60.5v6.5c.5,24,1,58.2-7.6,72.3-8.8-13.9-8.7-48.2-8.6-72.2l-.3-66.8-24.1-.3.4,60.6v6.4c0,18.5-.1,45.4,3.3,62.4-23.8-36.1-18.9-84.8-19.6-129.3l-24.1.9c.2,6.2.2,14.7.1,23.6-.2,26.4-.4,56.2,5.5,74.2,4.2,14.9,12.1,31,23.5,43.3,20.1,21.6,32.1,54.6,32.3,84.1-4.8-8.7-10.9-21.8-18.2-29-19.8-19.6-46.3-30.5-72.7-29.8l-11.5.3-.2,11.6c-.4,26.4,10.8,52.8,30.7,72.5,19.3,19,44.9,29.7,70.5,29.6.3,0,.6,0,.8,0l-1.3,18.1h2.4s0,0,0,0h24.1c0-.1,0-.1,0-.1h2.4s-1.6-18.1-1.6-18.1c.3,0,.7,0,1,0,25.6-.2,51.1-11.2,70.2-30.4ZM447.4,364.3c11.8-11.9,26.7-19.8,42.2-22.5-2.5,15.5-10.2,30.5-22,42.5-11.8,11.9-26.7,19.7-42.1,22.3,2.5-15.5,10.1-30.4,21.9-42.3ZM333.1,385.2c-12-11.8-19.8-26.7-22.5-42.2,15.5,2.5,30.5,10.1,42.4,22,11.9,11.8,19.7,26.6,22.4,42.1-15.5-2.4-30.4-10.1-42.3-21.8Z"/>
</svg>