<?xml version="1.0" encoding="UTF-8"?>
<svg id="Layer_1" xmlns="http://www.w3.org/2000/svg" version="1.1" viewBox="0 0 600 600">
  <!-- Generator: Adobe Illustrator 30.2.1, SVG Export Plug-In . SVG Version: 2.1.1 Build 1)  -->
  <rect width="600" height="600" fill="#f4f1ea"/>
  <g>
    <path d="M291.7,150" fill="#293035"/>
    <path d="M406.2,324.9l-.3-12-12-.2c-27.3-.6-54.8,10.8-75.2,31.3-2.2,2.2-4.3,4.6-6.3,6.9v-.8c0-17.1,9.5-32.6,24.4-41.1,5.8-3.3,11.2-7.4,16-12.2,14.5-14.5,22.6-33.9,22.1-53.3v-90.4c-8.4-.7-16.7-1.3-25-1.7v86.5c.4,12.8-5.6,32.4-15.3,41.8-1.5,1.4-3.9.1-3.5-1.9,1.5-8.4,2.3-17.8,2.2-27.8v-99.4c-8.3-.3-16.7-.4-25-.4v87.5c.1,13-1.4,35.4-3.3,42.6-1.4,5.2-8.7,5.2-10.1,0-1.9-7.2-3.4-29.6-3.3-42.6v-87.4c-8.3.2-16.6.4-25,.9v98.9c0,10,.7,19.4,2.2,27.7.4,2-2,3.3-3.5,1.9-9.7-9.4-15.7-29.1-15.4-41.9v-85.6c-8.3.6-16.6,1.3-24.9,2.2v89.2c-.5,19.4,7.6,38.8,22.1,53.3,4.8,4.8,10.2,8.9,15.9,12.2,14.8,8.5,24.4,24,24.4,41.1v.7c-2-2.3-4-4.6-6.2-6.7-20.4-20.4-47.9-31.9-75.2-31.3l-12,.2-.3,12c-.6,27.4,10.8,54.8,31.3,75.3,17,17,38.8,27.6,61.3,30.4l-1.6,19.5h30l-1.6-19.5c22.6-2.7,44.4-13.4,61.5-30.4,20.5-20.5,31.9-47.9,31.3-75.3ZM242.8,382.5c-12.3-12.3-20.4-27.8-23.1-43.9,16,2.7,31.5,10.7,43.8,23,12.3,12.3,20.3,27.7,22.9,43.7-16-2.6-31.4-10.6-43.7-22.9ZM313.5,405.3c2.7-16,10.7-31.4,22.9-43.7,12.3-12.3,27.8-20.3,43.8-23-2.7,16.1-10.7,31.5-23.1,43.9-12.3,12.3-27.7,20.2-43.7,22.9Z" fill="#293035"/>
  </g>
</svg>