<?xml version="1.0" encoding="UTF-8"?>
<svg id="Layer_1" xmlns="http://www.w3.org/2000/svg" version="1.1" viewBox="0 0 800 600">
  <!-- Generator: Adobe Illustrator 29.1.0, SVG Export Plug-In . SVG Version: 2.1.0 Build 142)  -->
  <defs>
    <style>
      .st0 {
        fill: #faf284;
      }
    </style>
  </defs>
  <rect width="800" height="600"/>
  <g>
    <path class="st0" d="M564.6,249.8h-10.9c1.8,4.2,3.7,8.3,5.5,12.5h-22.7c1.6,4.2,3.1,8.3,4.7,12.5h-23.4c1.3,4.2,2.6,8.3,3.9,12.5h-24.2c-1-4.2-2.1-8.3-3.2-12.5-1-4.2-2.1-8.3-3.1-12.5s-2.1-8.3-3.1-12.5-2.1-8.3-3.2-12.5c-1-4.2-2.1-8.3-3.1-12.5s-2.1-8.3-3.1-12.5-2.1-8.3-3.2-12.5h-18.8c.7,4.2,1.6,8.3,2.3,12.5h-19.5c.5,4.2,1.1,8.3,1.6,12.5h-20.3c.2,4.2.5,8.3.7,12.5h-42.2c.2-4.2.5-8.3.7-12.5h-20.3c.5-4.2,1.1-8.3,1.6-12.5h-19.5c.7-4.2,1.6-8.3,2.3-12.5h-18.8c-1.1,4.2-2.1,8.3-3.2,12.5-1,4.2-2.1,8.3-3.1,12.5-1.1,4.2-2.1,8.3-3.2,12.5s-2.1,8.3-3.1,12.5c-1.1,4.2-2.1,8.3-3.1,12.5s-2.1,8.3-3.2,12.5-2.1,8.3-3.1,12.5h-24.3c1.3-4.2,2.6-8.3,3.9-12.5h-23.4c1.6-4.2,3.1-8.3,4.7-12.5h-22.7c1.8-4.2,3.7-8.3,5.5-12.5h-21.8l-6.2,12.5-6.2,12.5-6.2,12.5-6.2,12.5c-2.1,4.2-4.2,8.3-6.2,12.5s-4.2,8.3-6.2,12.5-4.2,8.3-6.2,12.5-4.2,8.3-6.2,12.5h28.2c1.8-4.2,3.7-8.3,5.5-12.5h27.3c1.6-4.2,3.1-8.3,4.7-12.5h26.5c1.3-4.2,2.6-8.3,3.9-12.5h25.8c-1.1,4.2-2.1,8.3-3.1,12.5s-2.1,8.3-3.2,12.5-2.1,8.3-3.1,12.5c-1.1,4.2-2.1,8.3-3.1,12.5s-2.1,8.3-3.2,12.5-2.1,8.3-3.1,12.5-2.1,8.3-3.2,12.5h31.2c.7-4.2,1.6-8.3,2.3-12.5h30.5c.5-4.2,1.1-8.3,1.6-12.5h29.7c.2-4.2.5-8.3.7-12.5h57.7c.2,4.2.5,8.3.7,12.5h29.7c.5,4.2,1.1,8.3,1.6,12.5h30.5c.7,4.2,1.6,8.3,2.3,12.5h31.2c-1-4.2-2.1-8.3-3.2-12.5-1-4.2-2.1-8.3-3.1-12.5-1.1-4.2-2.1-8.3-3.2-12.5s-2.1-8.3-3.1-12.5-2.1-8.3-3.1-12.5c-1.1-4.2-2.1-8.3-3.2-12.5s-2.1-8.3-3.1-12.5h25.8c1.3,4.2,2.6,8.3,3.9,12.5h26.5c1.6,4.2,3.1,8.3,4.7,12.5h27.3c1.8,4.2,3.7,8.3,5.5,12.5h28.2c-2.1-4.2-4.2-8.3-6.2-12.5s-4.2-8.3-6.2-12.5-4.2-8.3-6.2-12.5-4.2-8.3-6.2-12.5-4.2-8.3-6.2-12.5-4.2-8.3-6.2-12.5-4.2-8.3-6.2-12.5-4.2-8.3-6.2-12.5h-10.9,0ZM477.8,312.3h-25.8c.5,4.2,1.1,8.3,1.6,12.5h-26.5c.2,4.2.5,8.3.7,12.5h-54.7c.2-4.2.5-8.3.7-12.5h-26.5c.5-4.2,1-8.3,1.6-12.5h-25.8c.7-4.2,1.6-8.3,2.3-12.5s1.6-8.3,2.3-12.5h24.3c.5-4.2,1-8.3,1.6-12.5h23.4c.2-4.2.5-8.3.7-12.5h45.3c.2,4.2.5,8.3.7,12.5h23.4c.5,4.2,1.1,8.3,1.6,12.5h24.3c.7,4.2,1.6,8.3,2.3,12.5s1.6,8.3,2.3,12.5h0Z"/>
    <path class="st0" d="M388.4,287.3c-.2,4.2-.2,8.3-.4,12.5s-.2,8.3-.4,12.5h25.8c-.2-4.2-.2-8.3-.4-12.5s-.2-8.3-.4-12.5h-24.3,0Z"/>
  </g>
</svg>