<?xml version="1.0" encoding="UTF-8"?>
<svg id="Layer_1" xmlns="http://www.w3.org/2000/svg" version="1.1" viewBox="0 0 800 600">
  <!-- Generator: Adobe Illustrator 29.1.0, SVG Export Plug-In . SVG Version: 2.1.0 Build 142)  -->
  <defs>
    <style>
      .st0 {
        fill: #a4c0b1;
      }

      .st1 {
        fill: #1c1226;
      }
    </style>
  </defs>
  <rect class="st0" width="800" height="600"/>
  <g>
    <path class="st1" d="M488.1,300h36.9v-125h-62.5v88.2c-18-25.7-31.2-49.2-31.2-88.2h-62.5v.2c0,3.7,0,7.3.2,10.8,0,2,.2,3.9.4,5.8,0,1.2.2,2.6.3,3.8,4.5,43.8,23.1,68.7,42.7,94.9,22.3,29.7,47.3,63.1,49.8,124.2.2,3.2.2,6.7.2,10.2h62.5c0-57.3-17.3-94.5-36.9-125h0Z"/>
    <path class="st1" d="M431,414.4c-2.5-50.3-22.4-76.9-43.5-105-22.3-29.7-47.3-63.2-49.8-124.3-.2-3.1-.2-6.3-.2-9.7v-.3h-62.5c0,59.7,18.9,95.7,39.4,125h-39.4v125h62.5v-93.6c18.1,25,31.2,48.9,31.2,93.6h62.5v-.5c0-3.5,0-6.8-.2-10.1h0Z"/>
  </g>
</svg>