<?xml version="1.0" encoding="UTF-8"?>
<svg id="Layer_1" xmlns="http://www.w3.org/2000/svg" version="1.1" viewBox="0 0 800 600">
  <!-- Generator: Adobe Illustrator 29.1.0, SVG Export Plug-In . SVG Version: 2.1.0 Build 142)  -->
  <defs>
    <style>
      .st0 {
        fill: #ffc131;
      }

      .st1 {
        fill: #fff6cf;
        opacity: .5;
      }
    </style>
  </defs>
  <rect class="st1" width="800" height="600"/>
  <path class="st0" d="M462.3,279c-7.8-3.7-9.6-14-3.5-20.2l29.6-29.6c-4.3-7.6-10.1-13.4-17.7-17.7l-29.6,29.6c-6.1,6.1-16.4,4.3-20.2-3.5-5.4-11.4-8.5-24.1-8.5-37.5-4-.1-8.2-.2-12.5-.2s-8.5,0-12.5.2c0,13.4-3.1,26.1-8.5,37.5-3.7,7.8-14,9.6-20.2,3.5l-29.6-29.6c-7.6,4.3-13.4,10.1-17.7,17.7l29.6,29.6c6.1,6.1,4.3,16.4-3.5,20.2-11.4,5.4-24.1,8.5-37.5,8.5-.1,4-.2,8.2-.2,12.5s0,8.5.2,12.5c13.4,0,26.1,3.1,37.5,8.5,7.8,3.7,9.6,14,3.5,20.2l-29.6,29.6c4.3,7.6,10.1,13.4,17.7,17.7l29.6-29.6c6.1-6.1,16.4-4.3,20.2,3.5,5.4,11.4,8.5,24.1,8.5,37.5,4,.1,8.2.2,12.5.2s8.5,0,12.5-.2c0-13.4,3.1-26.1,8.5-37.5,3.7-7.8,14-9.6,20.2-3.5l29.6,29.6c7.6-4.3,13.4-10.1,17.7-17.7l-29.6-29.6c-6.1-6.1-4.3-16.4,3.5-20.2,11.4-5.4,24.1-8.5,37.5-8.5.1-4,.2-8.2.2-12.5s0-8.5-.2-12.5c-13.4,0-26.1-3.1-37.5-8.5ZM400,348.5c-10.7-20.8-27.7-37.8-48.5-48.5,20.8-10.7,37.8-27.7,48.5-48.5,10.7,20.8,27.7,37.8,48.5,48.5-20.8,10.7-37.8,27.7-48.5,48.5Z"/>
</svg>