<?xml version="1.0" encoding="UTF-8"?>
<svg id="Layer_1" xmlns="http://www.w3.org/2000/svg" version="1.1" viewBox="0 0 800 600">
  <!-- Generator: Adobe Illustrator 30.1.0, SVG Export Plug-In . SVG Version: 2.1.1 Build 136)  -->
  <rect width="800" height="600" fill="#ddd"/>
  <path d="M690,268.2v-35.6h-67.4l-33,27.1-32.1-27.1h-67.4v20l-26-20h-146.1l-9,9-9-9H109l-9,9v48.2l9,9h60.3v59.6l8.9,8.9h52.9l8.8-8.8v-59.7h60.3l9-9v9h0v62.1c2.5,2.5,3.9,3.9,6.4,6.4h148.6c3.5-3,26-20.1,26-20.1v20h0c0,0,62.8,0,62.8,0l33.9-27.9,33.2,27.9h69.9v-37.9l-39.7-30.6,39.7-30.6ZM490.2,329.5l-39.7-30.6,39.7-30.6,39.7,30.6s-35.8,26.9-39.7,30.6Z" fill="#41544e"/>
</svg>