<?xml version="1.0" encoding="UTF-8"?>
<svg id="Layer_1" xmlns="http://www.w3.org/2000/svg" version="1.1" viewBox="0 0 1200 450">
  <!-- Generator: Adobe Illustrator 29.2.1, SVG Export Plug-In . SVG Version: 2.1.0 Build 116)  -->
  <defs>
    <style>
      .st0 {
        fill: #8be8e1;
      }

      .st1 {
        fill: #f7f7f7;
      }

      .st2 {
        fill: #1e1e2d;
      }

      .st3 {
        fill: #88d6e2;
      }
    </style>
  </defs>
  <rect class="st2" width="1200" height="450"/>
  <g>
    <path class="st1" d="M99.2,271.4l-39.2-92.8h21.1l33.1,82.2h-6.2c0,.1,31.6-82.2,31.6-82.2h21.9l31.6,82.3h-6.2c0-.1,33.1-82.3,33.1-82.3h20.7l-38.7,92.8h-23.4l-31-80.5h6l-31.1,80.5h-23.4Z"/>
    <g>
      <rect class="st3" x="341.9" y="178.6" width="19.1" height="30.3"/>
      <rect class="st0" x="341.9" y="240.8" width="19.1" height="30.6"/>
      <rect class="st3" x="254.7" y="178.6" width="19.1" height="30.3"/>
      <rect class="st0" x="254.7" y="240.8" width="19.1" height="30.6"/>
    </g>
    <path class="st1" d="M402.1,232.7v22.8h71.6v15.9h-90.7v-92.8h90.5v15.9h-71.4v23.1h58.5v15.1h-58.5Z"/>
    <path class="st1" d="M484.8,271.4l43.6-92.8h20.7l44,92.8h-20.8l-38.2-83.6h9.2l-37.9,83.6h-20.7ZM507.9,251.2v-15.9h61.4v15.9h-61.4Z"/>
    <path class="st1" d="M584.7,178.6h97.8v15.9h-97.8v-15.9ZM624.2,192.5h19.1v78.9h-19.1v-78.9Z"/>
    <path class="st1" d="M715.6,178.6v76.9h61.7v15.9h-80.8v-92.8h19.1Z"/>
    <path class="st1" d="M786.4,271.4l43.6-92.8h20.7l44,92.8h-20.8l-38.2-83.6h9.2l-37.9,83.6h-20.7ZM809.5,251.2v-15.9h61.4v15.9h-61.4Z"/>
    <path class="st1" d="M1002.3,252.5l-6,2.4v-76.3h19.1v92.8h-19.1l-75-73.3,6-2.4v75.7h-19.1v-92.8h19.1l75,73.9Z"/>
    <path class="st1" d="M1090.6,178.6c10.4,0,19.1,1.2,26.1,3.7,7,2.5,12.6,5.9,16.7,10.1,4.2,4.3,7.1,9.2,8.9,14.7,1.8,5.5,2.7,11.4,2.7,17.5s-1,12-2.9,17.6c-2,5.6-5.1,10.6-9.3,15-4.3,4.4-9.9,7.8-16.8,10.3-6.9,2.5-15.4,3.8-25.3,3.8h-53.1v-92.8h53.1ZM1056.6,255.1h33.6c6.9,0,12.6-.8,17.1-2.5,4.5-1.7,8.2-3.9,10.8-6.8,2.7-2.9,4.6-6.1,5.7-9.8,1.1-3.6,1.7-7.4,1.7-11.3s-.6-7.7-1.7-11.2c-1.1-3.5-3.1-6.7-5.7-9.5-2.7-2.8-6.3-5-10.8-6.6-4.5-1.6-10.3-2.4-17.1-2.4h-33.6v60.1Z"/>
    <rect class="st1" x="254.7" y="216.9" width="106.3" height="15.9"/>
  </g>
</svg>