<?xml version="1.0" encoding="utf-8"?>
<svg version="1.1" id="Layer_1" xmlns="http://www.w3.org/2000/svg" xmlns:xlink="http://www.w3.org/1999/xlink" x="0px" y="0px"
	 viewBox="0 0 128 128" style="enable-background:new 0 0 128 128;" xml:space="preserve">
<style type="text/css">
	.st0{fill:#1E69D9;}
	.st1{fill:#137C54;}
</style>
<path class="st0" d="M33,63C16.4,63,3,49.6,3,33S16.4,3,33,3s30,13.4,30,30S49.6,63,33,63z"/>
<g>
	<path class="st1" d="M120,62H70c-2.2,0-4-1.8-4-4V8c0-2.2,1.8-4,4-4h50c2.2,0,4,1.8,4,4v50C124,60.2,122.2,62,120,62z"/>
	<path class="st1" d="M58,124C28.2,124,4,99.8,4,70c0-2.2,1.8-4,4-4h50c2.2,0,4,1.8,4,4v50C62,122.2,60.2,124,58,124z"/>
	<path class="st1" d="M70,124c-2.2,0-4-1.8-4-4V70c0-2.2,1.8-4,4-4h50c2.2,0,4,1.8,4,4C124,99.8,99.8,124,70,124z"/>
</g>
</svg>
