<svg enable-background="new 0 0 128 128" viewBox="0 0 128 128" xmlns="http://www.w3.org/2000/svg"><path d="m33 62c-16.02 0-29-12.98-29-29 0-16.02 12.98-29 29-29 16.02 0 29 12.98 29 29 0 16.02-12.98 29-29 29z" fill="#1e69d9"/><g fill="#137c54"><path d="m120 62h-50c-2.21 0-4-1.79-4-4v-50c0-2.21 1.79-4 4-4h50c2.21 0 4 1.79 4 4v50c0 2.21-1.79 4-4 4z"/><path d="m58 124c-29.82 0-54-24.18-54-54 0-2.21 1.79-4 4-4h50c2.21 0 4 1.79 4 4v50c0 2.21-1.79 4-4 4z"/><path d="m70 124c-2.21 0-4-1.79-4-4v-50c0-2.21 1.79-4 4-4h50c2.21 0 4 1.79 4 4 0 29.82-24.18 54-54 54z"/></g></svg>