<?xml version="1.0" encoding="UTF-8"?>
<svg id="Layer_1" xmlns="http://www.w3.org/2000/svg" version="1.1" viewBox="0 0 406.9 195.8">
  <!-- Generator: Adobe Illustrator 29.6.1, SVG Export Plug-In . SVG Version: 2.1.1 Build 9)  -->
  <defs>
    <style>
      .st0 {
        fill: #3ca3db;
      }

      .st1 {
        fill: #040614;
      }
    </style>
  </defs>
  <g id="mYemEQ">
    <path class="st0" d="M398.6,34.9c1.3,3.1,4.2,13,4.4,16.6.7,8.1-.4,16.9,0,25,1.3,25.2,5.7,56.1,3,81-1,9.2-9.5,19.9-17.3,24.7-23.1,14.2-73.9,8.3-101.2,7.8-35.5-.7-86,1.9-119.5-6.5-13.9-3.5-27-11.3-40.5-15.5s-11.6-2.9-18.7.1c-5.3,2.2-12.8,15.9-20.1,20.1-9.5,5.4-33.5,5.1-43.7,1.3C14.3,178.1,7.5,134.8,4.1,106.4,2.2,91.1-.3,66.4,0,51.4S10.4,17,21.4,10.7c27.9-15.9,89.4-.6,121.2,2.2s61.7-.3,86.9,7.1c7.7,2.2,16.5,9.1,24.9,4.8,4-2,8.2-9.2,13.6-11.4,5.7-2,11.5.7,17-.9,1.3-.4,2.3-.7,3.5-.8,2.3,0,5.1.6,7.5.3,21.8-2.2,44.3-4.6,66.3-1.8,17.4,2.2,29.2,8,36.2,24.8Z"/>
    <g>
      <path class="st1" d="M390.8,154.7c-3,6.6-6.3,15.7-11.7,21.7-8.3,9.3-18.9,8.9-30.2,5.3s-3.9-2.8-5.7-3.3-5.4,0-7.1-.9-8.6-14.7-9.8-17.2c-1.9-3.9-3.9-9.2-5.1-13.4-1.6-.3-2.2.3-2.8,1.7-3,7.1-.9,23.7-7.9,28.1-11.3,7.2-33.8,3.3-40.1-9.6s-4.3-9.2-4.4-9.7c-1.8-29.5,2.7-60.3,3.2-90,.1-6.6-1.6-12.9-1-20,1.8-21.4,11.8-29.1,33-24,27.1,6.5,26.4,29.6,32.5,51.5.4,1.5,1.9,6,4,6,3.3-16.2-4.2-41.7,5.1-56,4.8-7.3,13.2-5.4,20.4-3.5s15.5,8.2,19.5,17.5c8.9,20.3,3.4,42.4,4.5,63.5.4,9.1,6.2,46.6,3.7,52.2ZM336.4,103.6c-1.5-1.2-8.5-10.2-10.1-12.4-4-5.6-10.9-16.4-11.9-23.1-.6-3.9.5-7.5-.5-12.4-2.2-10-16.1-40.5-26.5-21.1-5.1,9.5-2.1,22.8-2.5,32.7-.8,22.5-9.1,82.8,2.4,99.9s4.8,5.8,9.1,4.5,4.2-11.8,4.5-15.3c.5-5,.5-2.8,1.2-5.2,2.7-9.3,2-20.5,2-29.8,0-8.5,11.8-9.3,17.5-6.4,7.7,4,14.7,28.1,17.9,36.1,4,10.1,3.7,8.6,10.8,15.2,6.7,6.1,5.8,15,16.9,1,13.1-16.4,4.8-47.9,4-68-.8-19.1,3.5-47.8-5.4-64.6l-6-6.9c-2.7,2.1-3.8,5.5-4.3,8.8-2.6,17.7-.6,36.4-2.3,54.7-.3,3.1.7,8.5-.1,10.9-1,3-13.8,3.6-16.6,1.3Z"/>
      <path class="st1" d="M193.4,46.6c2.7,11.6,1.3,25.2,2.7,37.8.2,1.8,2.5,13.1,3,13.5,3.1,2,3.6-3,3.8-5.6,1.2-13-1.4-43,5.7-53.3,3.8-5.4,5.6-3.5,9.7-5.1s1.6-2.7,6.3-2.9c15.1-.6,22.3,6.3,26.8,17.3,2.5,6.2,3.6,12.8,3.4,19.5-.7,37.3,4.8,100.6-39.7,109.8-32.3,6.7-52.7-10.8-63.7-39.4-8.4-21.7-3.9-34.5-3.3-56.6s-.1-32.3-.7-48.4c0-2.2,1.3-4.2,3.4-4.8h0c6.8-2.1,12.9-5.4,20.6-5.2,18.5.5,18.6,9,22,23.6ZM182.4,98.6c-1.1-1.8-2-4.1-2.3-6.2-1.8-14.6,2.4-49.7-7.1-60.9-2.4-2.9-3.8-3.3-7-1s-4.8,4.7-4.8,5c-.4,1.8,1.8,10.9,1.9,13.9,1.4,38.2-10.9,77,17,109,5.3,6.1,19.1,15.8,27.2,14.3,19.4-3.6,29.6-36.4,30.7-53.3,1.2-16.6,4.2-54.1-.5-68.5-.8-2.5-5.9-12.2-8.2-12.9-5.7-1.7-6.1,6.6-9.3,8.6-1.5,14.4.6,31.8-1.1,45.7s-3.9,12.9-10.4,13.6-21.1.8-26.2-7.4Z"/>
      <path class="st1" d="M91.1,65.9c9.2,1.5,17,2.7,23.9,9.6s8.9,11.8,9.8,14.2c6.1,15-11.6,20.3-22.7,22.7-9.9,2.2-31.1.7-28,16,.5,2.2,2.5,2.8,3,5,1.8,8.6,1.2,35.6-5,42-7.1,7.4-27.8,1.8-34-6-21.6-27-19.2-70.9-22-104-1.4-16.1-9.5-37.3,10-46,20.4-9.1,67.1-9.1,87.4.6,6.9,3.3,21.3,17.3,17.9,25.6-3.6,8.7-32.3,14.2-41.2,16.3s-7.5,0-9,3c3.5-.6,6.7.5,10,1ZM115,40.4c11.9-8.2.6-11.3-7.7-13.1-18-4-59.7-6.8-74.7,4.7-1.4,1.1-4.7,4.4-5.1,6-.8,2.8,3.1,21.6,3.6,26.5,2.6,28.8-.3,72.8,16.2,96.8,2.3,3.4,9.8,12.7,12.3,5.7,3.5-9.5,2.9-28.3,1.6-38.6-.4-.6-.3-.5-.7-.9-2.7-2-1.2-5.3-1.4-8.5,0-.9.2-1.8.6-2.6,2.3-3.6,3.7-7.3,7.4-9.9,7.1-4.8,20.1-4.4,28.9-7.1s22.6-7.2,18.5-15.5-13.7-5.5-17.1-5.9c-7.6-.8-20,2.3-25.7.7s-8.9-8.8-12.5-10.9c-.8-1.4-.9-3-.8-4.5,0-1.5.4-3.3,1.5-4.9,6.8-9.3,42-9.1,55.1-18Z"/>
    </g>
  </g>
</svg>