<?xml version="1.0" encoding="UTF-8"?>
<svg id="Layer_1" xmlns="http://www.w3.org/2000/svg" version="1.1" viewBox="0 0 391.3 195.8">
  <!-- Generator: Adobe Illustrator 29.6.1, SVG Export Plug-In . SVG Version: 2.1.1 Build 9)  -->
  <defs>
    <style>
      .st0 {
        fill: #040805;
      }

      .st1 {
        fill: #094;
      }
    </style>
  </defs>
  <g id="_x31_0Bgar">
    <g>
      <path class="st1" d="M242.5,36.6c.2.2.9-.1,1.5,0,4.1-4,8-9,14.1-9.9,17.4-2.5,45.2,0,64,0,21.6-.2,38.4-5.5,54,13.9,14.3,17.8,18.6,71.3,12.7,92.8s-19.2,39-41.7,40.1c-55.4-3-110.8-9.6-166.1-12.9-26.6-1.6-56.5.9-82.3-4.7-8.9-1.9-21.3-8.9-29.4-7.1-8.1,1.8-8.8,6-13.3,6.7-18.6,2.9-43.7-2.2-51.2-21.6C-.7,120-1.1,71.4,1.7,56.4c4-21.5,16.7-31.4,38.2-32.8,40.4-2.7,89.4-.5,130,1.1,15.2.6,59.9,0,70.5,8.5,1.7,1.4,1.9,3.3,2.1,3.4Z"/>
      <g>
        <path class="st0" d="M57.5,121.6c1.4,7.7-2.4,18.6-10.3,21.2-4.3,1.4-14.7,2.4-19,1.5-6.8-1.4-14.7-12.6-15.6-19.4-2.4-17.3.2-43.5,0-62s-2.5-10.6.2-17.7c4.8-12.7,32.2-13.8,43-10.4,10.3,3.2,6.9,14.6,12.3,15.7l3.9-10c3.3-6.6,14.5-6.5,21.1-6,11.6.9,20.4,5.2,24.4,16.6,2.9,8,2.8,17.6,3.1,25.9.6,18.6,2.1,40.1-3.3,57.8-1.3,4.2-3.5,11-8.3,11.7-8.5,1.2-18.9,0-26.4-4.5s-9.1-16.1-8.1-20.4c0,0-17,0-17,0ZM53.7,63.4c-.2-.3.3-1.7,0-2.5-1.6-4.7-5.1-19.9-9.3-21.7s-12.9.1-15.5,2.5c-5.7,5-.7,26.8-.4,34.5.5,13.2-3.1,42.1,1.8,52.2,1.7,3.4,6.2,9.5,9.9,5.1s.2-24.7,3.8-31.7,21-9,24.6-2.8.4,7.9,4.8,6.7c-1.7-9.8,4.5-9.7,12.4-8.9,17.2,1.8,3.4,17.3,4.7,28.3s5.2,14.3,8.4,13.6,4.6-10,5.1-12c3.6-15.7.7-30.5-1.5-45.6-1.2-8.7,1.5-20.3-3.1-28.7s-6.5-8-7-8.2c-7.6-3.8-7.8,10.1-10.8,15.2-3,5.1-5,6.2-6.2,6.8-3.6,1.6-19.1.8-21.7-2.7h0Z"/>
        <path class="st0" d="M358.8,160c-10.7,5.8-26.7,8.9-39.1,4.9s-14.2-6.9-16-10c-3.1-5.1-4.6-21.4-5.2-27.8-1.3-14,.7-30.3-.9-43.1-.2-1.9-1.9-1-2.2-2.9-.5-4.3,1-9.4.8-12.9s-2.8-12.2-2.7-17.2c.1-5.8,9-11.7,14.5-11.5,17.8.6,25.3,14.3,27.5,30.5.8,6.1-.6,14.8,2.5,20.5l4.4-10.6c2.7-10.8-1.3-22.5-1-32.9.8-22.3,32.3-12.3,37.3,4.7,2.1,7.2.3,18.3.8,26.2,2.1,32,13.2,63.5-20.7,81.9v.2h0ZM322.6,154.4c16.6,2.2,29-7.2,38.9-19.3s6.4-16.5,6-27.1c-.4-11.6-2.4-24.2-3.1-35.9s1.8-27.4-3.5-28.5c-1.3.2-4.4,3.4-4.6,4.4-1,8.1,2.3,17.6,2.1,26.1-.4,18.9-9.9,38.5-31.8,27.7-7.1-3.5-6.4-23.5-7.4-30.6s-3.2-16.2-3.9-16.6c-5.4-3.6-4.2,14.4-4,17.5.8,14.4,1.3,28.6,2,43s3.8,20.1,6.5,31.5c.6,2.7,1.6,5.3,2.7,7.8h0Z"/>
        <path class="st0" d="M242.7,51.4c1,1,3.2.8,4.2,2.3,1,1.5,1.3,5.5,2.2,7.7s3,3.9,4.3,3.3c-.4-7.7-.6-27.5,10.6-27.1,2.2,0,3.2,1.7,5,2s4.8-.5,6.8.2.8.6,1.4,1.3c2.9,3.3,4.7,7.3,5.5,11.6,1.7,9.5,4.9,19.9,4.9,28.4s-4.3,23.3-5.1,34c-.6,8,2.5,35.4-8.5,37.5-3.3.6-14.1.3-17.5-.4-5.3-1.1-7.3-4.8-10.9-7.9s-2,1.5-3.1,3.8c-5.2,10.4-10.4,8.6-20.4,7.6s-5.2,1.2-10.4-2.5c-6.6-4.8-8.4-12.1-9.1-19.9.8-29.8-.4-59.4-4-88.9,9-8.9,14.7-11.3,27.5-8.5,12.8,2.8,9,4.3,13,9s2.9,5.8,3.8,6.7l-.2-.2h0ZM220.4,41.7c-2.1-.9-4.7,3.7-5.2,5.2-2.3,7,1.9,27.6,2.3,36.2.8,16.1-.4,34.1,1,50,.3,3.6,1.3,9.7,3.5,12.5,4.1,4.9,4.9.9,6-2.9,1.8-6.6,4.1-25.3,2.5-31.4h0c-.3-1.1.3-2.2,1.3-2.6,4.8-2.1,8.5-2.7,11.3-2.4,8.4,1.1,9.4,11.3,12.5,21.5s4,9.6,7.5,13.5,1.8,1.9,2.5,1.3c2.7-2.8,1.6-26.2,2-31.5.8-11.2,4.7-23.5,4-35,0-1.2-1.5-11-3-9.5-2.3,13.2-7.6,16.3-20.6,15s-9.3-10.2-13.4-16.3c-.7-1.1-2.6-1.5-3.9-3.3-2.8-4-4.4-11.7-6.9-16.1s-3.1-4.1-3.3-4.2h-.1Z"/>
        <path class="st0" d="M165.6,73.4c2.1,3.4,23,1.6,20.8,16.6s-13.8,3.5-16.5,13.5c-4.2,15.4,21,6.3,22.5,19.5,2.2,18.8-5.3,26.6-23.6,28.4-6.5.6-25.1-1.2-31.1-3.6-3.8-1.5-5.8-10.1-6.2-13.8-1.7-13.5-.2-27.7-1-41s-2.5-15.5-3-23-.6-18.3-.9-27.2.7-3.2,2.1-4.1c7.6-5.2,15.9-8.5,25.4-9.1s26.7,1.1,32,6.9,4.2,9.9,4.4,11.7c1.5,15.7-22.3,12.4-24.7,20.1s-.6,4.2,0,5.1h-.2,0ZM171.2,142.3c3.1-2.5,6.2-10.2,6.3-14.2.1-13.2-4.4-8.4-13.4-9.6-10.9-1.4-14.2-14.2-7.6-21.4s23-8.1,9.4-15.3-17.2,1.5-16.4-11.7c.6-10.4,10.2-9.3,17.3-12.7,14.5-7.1,6.6-21.6-6.9-22.6-6.3-.5-16.6,2.2-17.4,9.4-1.8,16.4,3,35.7,4,52,.7,12.3-1.2,27,1,39,0,.5,4.6,8.7,4.9,9.1,2.9,3.4,15.4.8,18.8-1.9h0Z"/>
      </g>
    </g>
  </g>
</svg>