<?xml version="1.0" encoding="UTF-8"?>
<svg id="Layer_1" xmlns="http://www.w3.org/2000/svg" version="1.1" viewBox="0 0 378.8 64.5">
  <!-- Generator: Adobe Illustrator 30.2.1, SVG Export Plug-In . SVG Version: 2.1.1 Build 1)  -->
  <g>
    <path d="M.4,4.1l25.7.2c5.1,0,9.2,1.5,12.3,4.4,3.1,2.9,4.6,7,4.6,12.2,0,4.5-1.4,8.4-4.3,11.7-2.8,3.3-7.1,4.9-12.8,4.9H7.9c0-.1-.2,24.1-.2,24.1H0c0,0,.4-57.4.4-57.4ZM30.5,12.2c-1.7-.8-4-1.2-7-1.3h-15.4c0,0-.1,19.8-.1,19.8h15.4c3.5.1,6.3-.6,8.4-2.1,2.2-1.5,3.3-4.1,3.3-7.8s-1.5-7.1-4.6-8.6Z" fill="#1e69d9"/>
    <path d="M93.8,4l7.8.5-3.7,57.3-7.8-.5,3.7-57.3Z" fill="#1e69d9"/>
    <path d="M145.2,50.9L181.3,7.4l-32.7-.5V0c.1,0,42.8.7,42.8.7v6.7c-.1,0-36.3,43.3-36.3,43.3l35.5.6v6.8c-.1,0-45.4-.8-45.4-.8v-6.4Z" fill="#1e69d9"/>
    <path d="M233.9,53.2l38-41.8-32.6-2.1.4-6.8,42.6,2.7-.4,6.7-38.2,41.5,35.4,2.3-.4,6.8-45.2-2.9.4-6.4Z" fill="#1e69d9"/>
    <path d="M346.9,6.2l8.8-.4,23.2,56.5-8.5.4-6.5-16.9-22.7.9-5.5,17.4-8,.3,19.2-58.2ZM361,39.5l-9.7-25-8.2,25.7,18-.7Z" fill="#1e69d9"/>
  </g>
  <g>
    <rect x="179.9" y="4.9" width="19" height="54.6" transform="translate(145.2 219.2) rotate(-86.4)" fill="#e93e3e"/>
    <g>
      <path d="M175.2,36.3l-.2,2.4-9.4-.6,3.8-4.2c1.1-1.2,3.3-3.4,3.4-5,0-1-.5-2.3-1.7-2.4-1.2,0-1.9,1.2-1.9,2.3l-2.9-.2c.4-2.7,2-4.6,4.9-4.5,2.6.2,4.4,2.2,4.2,4.8-.1,2.1-1.4,3.5-2.7,4.9l-2.2,2.3,4.6.3Z" fill="#fff"/>
      <path d="M188.5,32.5c-.2,3-1.8,7.2-5.5,7-3.7-.2-4.7-4.7-4.5-7.6.2-3,1.7-7.3,5.5-7,3.7.2,4.7,4.7,4.5,7.7ZM181.1,32c0,1.4,0,5,2,5.1,1.9.1,2.6-3.5,2.6-4.8,0-1.4,0-5-2-5.1-1.9-.1-2.6,3.4-2.6,4.8Z" fill="#fff"/>
      <path d="M200.3,37.9l-.2,2.4-9.4-.6,3.8-4.2c1.1-1.2,3.3-3.4,3.4-5,0-1-.5-2.3-1.6-2.4-1.2,0-1.9,1.2-1.9,2.3l-2.9-.2c.4-2.7,2-4.6,4.9-4.5,2.6.2,4.4,2.2,4.2,4.8-.1,2.1-1.4,3.5-2.7,4.9l-2.2,2.3,4.6.3Z" fill="#fff"/>
      <path d="M211.4,27.8l-3.1,3.9h0c.3,0,.7-.1,1.1,0,2.6.2,4,2.5,3.8,4.9-.2,2.9-2.4,4.8-5.2,4.6-2.8-.2-4.8-2.2-4.6-5,.1-1.7,1-3.3,2-4.6l4-5.3,1.9,1.6ZM210.5,36.4c0-1.3-.7-2.7-2-2.7-1.4,0-2.3,1.2-2.4,2.5,0,1.2.7,2.6,2.1,2.7,1.4,0,2.3-1.2,2.4-2.4Z" fill="#fff"/>
    </g>
  </g>
</svg>