<?xml version="1.0" encoding="UTF-8"?>
<svg id="Layer_1" xmlns="http://www.w3.org/2000/svg" version="1.1" viewBox="0 0 381.1 91">
  <!-- Generator: Adobe Illustrator 30.2.1, SVG Export Plug-In . SVG Version: 2.1.1 Build 1)  -->
  <path d="M.5,5.9l36,.2c7.1,0,12.8,2.1,17.2,6.2,4.3,4.1,6.5,9.8,6.4,17.2,0,6.3-2,11.8-6,16.5-3.9,4.7-9.9,7-18,6.9l-25.1-.2-.2,34.2H0c0,0,.5-81.1.5-81.1ZM42.7,17.3c-2.4-1.2-5.7-1.7-9.8-1.8H11.3c0-.1-.2,27.9-.2,27.9h21.5c4.8.2,8.8-.8,11.8-2.9s4.6-5.8,4.6-11.1c0-6-2.1-10-6.4-12.2Z" fill="#1e69d9"/>
  <path d="M88.1,5.7l11,.7-5.2,80.8-11-.7,5.2-80.8Z" fill="#1e69d9"/>
  <path d="M129.4,71.8l50.5-61.4-45.8-.8.2-9.6,59.8,1-.2,9.4-50.7,61.1,49.7.8-.2,9.6-63.5-1.1.2-9.1Z" fill="#1e69d9"/>
  <path d="M222.9,75.1l53.3-58.9-45.7-2.9.6-9.6,59.7,3.8-.6,9.4-53.5,58.6,49.6,3.2-.6,9.6-63.3-4.1.6-9.1h0Z" fill="#1e69d9"/>
  <path d="M336.3,8.8l12.3-.5,32.5,79.7-11.9.5-9.1-23.9-31.8,1.3-7.7,24.6-11.1.5,26.9-82.2h0ZM356.1,55.8l-13.7-35.2-11.5,36.3,25.1-1Z" fill="#1e69d9"/>
</svg>