<?xml version="1.0" encoding="UTF-8"?>
<svg id="Layer_1" xmlns="http://www.w3.org/2000/svg" version="1.1" viewBox="0 0 1948.9 1023.3">
  <!-- Generator: Adobe Illustrator 29.6.1, SVG Export Plug-In . SVG Version: 2.1.1 Build 9)  -->
  <defs>
    <style>
      .st0 {
        fill: #1e69d9;
      }
    </style>
  </defs>
  <path class="st0" d="M1018,997.6c-28,1.4-64,1.4-92.1,0-30.6-1.5-52.4-13.6-80.6-19.4s-29.5,3.1-47.6,8.1c-61.5,16.8-122.9,10.9-185.7,10.2-124.2-1.3-248.7,3.3-373.1,1.1-51.2-.9-162.8-2.7-199-43-21.7-24.3-22.9-74.1-25.8-105.2-4-43.6-6.3-84.8-7.7-128.3C.7,552.2-2.5,383.2,2.5,214.1c.8-28,0-77.6,9.2-102.8C28.6,64.5,54.7,28.6,106.2,18.8c38.1-6.4,78.2-8.5,116.8-9.9,309.5-13.8,620.3-9.8,929.9.6,52.4,3,105.7,5.3,151.1,34.4,10.4,6.7,22,18.5,32.5,24,9.4,5,15,3.3,24.5-.4,15.8-6.1,29.9-19.5,45.8-26.2,39.5-16.7,100.3-12.6,143.2-14.8s102.1-8.6,152.9-6c37.7,2,79.6,6,100.4,41.8,4.6,13.7,9.1,27.5,12.7,41.4,8.7,35,13.5,69.7,17.7,105.4,3.5,31.1,6.9,63.5,9.9,95,2.4,25,3.9,49.4,7,74.2,2.9,21.2,18.9,37.4,38.7,44.1,11.3,2.6,21.9,6.8,31.3,13.7,8,6.3,14.6,13.9,19.7,22.5,3.3,5.3,4.5,11.1,6.1,16.9,5.1,24.7,1.1,34.2-1,57.5,0,11.8-1.8,23.3-3.7,35-12.8,69.3-29.2,137.8-47.3,205.5-4.7,22.5-11.5,43.6-18,65.4-2.6,8.9-4.7,18-7.1,27-2.6,9.8-6.6,20.8-9.7,31.5-2.9,10.2-6,21.3-9.1,31.1-7.3,28.2-14.3,38.9-30.3,56.6-7,7.7-15.1,14.3-24.2,19.4-29.8,16.6-57.7,17.3-94.9,18-15.8.3-37.9,1.5-53.1,0s-36.1-21.9-43.5-28.5c-56.3-50.9-30.7-120.5-88.3-170.2-15.7-13.5-48.5-36.4-69.2-37.3-5.3-.2-20.9,6.3-25.2,9.6-16.4,19.6-23,27.8-27.9,53.8-1.5,7.3-2.7,14.6-2.9,22.1,0,8.6,1,17.3,2.1,25.9,1.2,9.4,1.7,18.9,1.3,28.3-1,25.3-6,42.9-25.8,65.3-2,2-4.1,3.8-6.3,5.6-6.8,5.5-14.5,9.8-22.9,12.4s-1.2.4-1.8.5c-30.1,8.1-58.3,7.7-89.5,6.5-33.8-1.3-83.2-5.5-102.3-37.7-9.6-16.1-5.5-65.7-8.3-87.7s-9.9-53.6-23-73c-2.6-3.5-5.1-6.8-7.5-9.2-4.9-5.2-11-8-17.2-11.9-5.9-3.7-11.1-8.9-18.1-10.5-4-1.1-8.2-1.6-12.2-2.4-8-2-17.3-2.2-24.9,1.8-3.7,2-6.3,5.4-9.3,8.7-3.8,3.9-7.1,8.5-7.5,14.1-.4,4.1.5,8,1.5,12,1.6,5.9,2.7,12,4.3,17.6,5.4,16.4,12.3,32.4,20.7,47.6,9.6,17.6,22.8,33,28.3,52.5,1.7,6.6,1.5,13.6,1.4,20.5v.2c0,13-7.9,24.7-19.8,30-11.5,5.2-25.4,7.8-36,8.4h-.2ZM51.4,67c-18.4,17.2-22.7,37.9-25.8,62.2-9.3,72.8-6.6,156.1-7.2,229.8-.8,102.3,1.9,203.5,4,305.1s-1,68.9,1,100.9c1.7,25.6,4.7,51.6,6.8,77.1,2.8,35.3,1.8,69.2,20.8,100.4,6,9.9,9.9,12.1,20.2,16.8,13.7,5.7,27.8,10.7,42.1,13.9,21.4,5.1,43.5,6.4,65.5,7.6,48.9,3.3,97.9,2.9,146.8,2.9,75.7,0,150.9,0,226.4-.7,33.6.3,67.4,1.2,101,2.1,25.8.9,51.3,2.5,77.2.6,25.3-1.7,50.5-5.5,74.2-15.1,3-1.1,5.9-1.6,9-2,38.3-5.2,71.7,13.3,109.5,16,24.7,1.6,56.2,3.4,82.7,0,6-.9,13-1.1,19.5-1.9,7.6-1.1,15.1-3.2,22.2-5.9,7.2-3.9,9.9-12.3,12.2-19.8,2.9-24.3-15.4-45.9-28-64.8-1.7-.9-3-2.2-4-3.7-4.9-6.8-13-24.4-15.7-32.8-6.9-21.5-15.1-57.6,1.7-76.2,10.5-7,23.4-12.4,36.2-11.3,9.7.8,20.4,3.3,29.7,6.9,18.8,8,31.5,24.7,43.9,40.1,13.6,27.8,22.8,58.9,26.2,89.8,2.1,19.3-1.1,35.6,10,52.5,7.2,9.7,14.9,17.7,24.3,25,9,5.8,18.4,10.3,28.5,14.2,8.2,3.3,16.5,6.3,25.1,7.1,9.8.9,19.8.3,29.6.7,30.7.3,55.2,5.3,80.5-13.9,34.4-26,31.5-62.7,29-101-1.4-14.8-.6-29.9,2.8-44.4,4.2-16.5,9.2-34.7,20.2-47.8,26.4-26.7,46.2-30.5,80.9-14.1,19.1,10,37.9,21.9,52.7,37.4,10,11.3,17.1,24.5,23.8,37.9,2.8,8.2,5,16.2,7.4,24.3,3,13.8,5.7,27.8,10.2,41.1,6.5,19.1,16.1,37.4,29.2,52.8,5.4,6.9,10.9,14,17.7,19.8,19.4,13.2,56.1,8.8,79.5,9,34.6.3,56.9.4,87.8-17.1,28.1-16,40.6-40.6,49.6-70.4,9.7-31.9,17.8-65.6,26.6-98.4,10.4-39,21.7-80.3,31.4-118.8,11.2-44.3,22.4-88.7,30.2-133.8l-3.1-4.5c-1.8,5.9-3.1,11.8-5.2,17.6-2.5,6.9-5.5,13.6-8.4,20.4-4.8,11.7-9.5,23-15,34.6-5.5,11.8-10.8,23.6-16,35.6-7.9,17.7-16.8,35-25,52.6-7.6,15.2-12.9,30.6-16.7,47.4-2.1,14.5-4.5,28.4-5.9,42.8-.7,9-1.5,18.4-2.8,27.4-2.1,14.1-5.8,27.6-9.4,41.6-3.2,12.4-7.5,24.5-13.7,35.5-5.1,10.7-23.2,27.1-34.3,30.7-13.8,3.5-27.9,6-42.1,6.8-15.6,1.6-30.9,1.8-46.7,0-14.7-1.4-19.5-.7-33-8-18.7-10.1-22.9-22-26-42-1.7-11-2.7-22-4-33-2.2-18.3-4.1-37.5-6.5-55.5-.2-1.5.5-5.2-2.5-10.5-3.7-6.4-32.9-8.3-41.2-10.3-20.5-5.7-41.1-13.7-58.9-25.7-9.4-5.9-18-13-24.9-21.8-2.5-3.5-5.1-12.5-9.2-14.5s-10.2-1.9-12.1-1.4-6.5,4.2-7.2,4.4c-2.9,1-12.4,2.1-15.5,2.2-26.9,1.6-53.3-6.1-79-6-9.1,0-11.7.7-15.7,9.8-3,6.7-2.5,21.9-2.3,29.8,1.1,36.5,11,71.8,16.3,106.7,1.2,7.5,4.4,25.2,2.6,32.2-3.2,13.2-19.9,28.9-31.9,34.6-12.7,6-23,6.9-36.5,7-18,0-38.9.2-56.5-2-10.7-1.6-21.1-4.6-29.7-10.7-7.8-5-14.8-12-16.9-21.1-3.3-20.4-3.3-41-2.4-61.5.2-13.9,0-27.8,0-41.7.3-22.7,0-46.5-8.1-68-5.7-11.8-13.7-17.8-26.1-21.3-12.3-4.5-24.8-6.5-37.9-7.7-30.7-2.1-63.7,2.5-94.5-1-8.4-.9-15.1-5.6-21.5-11-7.8-6.5-7.8-12.4-13-20.5-15.5,0-30.6,3.6-45.2,8.7-10.9,3.8-22.8,8.5-27.1,20-1.6,4.2-1,8.7-.4,13.2,1.5,16.8,9.2,30.3,16.7,45.5,2.9,6.1,6.4,11.9,11.1,16.7,16.6,17.1,38.9,31.9,52.9,50,3.9,5.4,12.7,25.2,15.1,31.9,9.8,27.5,13.3,49.2-10.2,65s-10.2,5.7-15.7,7.5c-9.1,3-18.5,4.7-28.2,4.8-26.7.7-54,.5-80.3-5.4-5.1-1.1-10.4-2.3-14.9-4.3-11-4.7-16.5-11.1-21.5-21.8-8-18-9.1-37.8-10.6-57.2-.7-6.4-3.1-12.5-6.5-18.2-5.3-8.2-12.4-14.3-20.1-20-15.6-11.3-18.5,7.7-16.9,19.5,1.6,12.7,6.1,25.5,9.9,37.3s8.9,36.5,8.1,50.7c-.5,8.6-4.5,10.1-11.3,12.6-18.6,6.5-38.7,8-58.2,6.3-11.5-1.3-20.1-10.4-27.4-18.9-4-5.4-7.8-12.4-13.1-16.5-5.5,16.4-5.7,25.7-23.6,32.5-36.8,8.6-86.9,8.3-120.6-9.6-3-1.8-4.8-7.4-6.6-10.6-3.2-5.7-6.7-11.7-9.1-18-4.4-13.5-7.2-27.5-10.9-41.3-3.3-12.9-8.7-25.2-11.4-38.2-1.3-6.3-2.1-12.6-3.5-18.9-1.5-7-3.7-13.8-6.2-20.5-2.2-6.5-7.5-11.4-9.1-18-4-6.6-12.9-1.3-17.7,1.4-5.5,2.7-9.3,7.3-12.8,12.3-9,17.4-2.5,61.6,1.9,81.9,3.8,17.6,12.5,34.4,15,52s-4.9,16.9-15.4,25.6-2.7,4.6-11.1,7.4c-19.9,6.5-53.7,2.4-75.5,2-10.5-.2-28.4,1.9-38,0s-11.3-6.3-12-7c-2.2-1.8-5.8-7.4-7.5-10-3.6-5.9-7.3-15.3-9-22-4.2-16.2-3.4-27.3-2.9-43.5,1.6-47.4,7.4-92.6,20.4-137.2,4.5-15.6,9.1-30.1,14.8-44,4-9.2,8.8-17.5,13.8-26.2.6-.5-.2-3.4-1.5-4s-1.2,1.6-2.7,2.3c-20.9,9.9-59.8,23.6-82.4,26.6s-20.9,0-26.6,2.4-3.6,4-4.8,6.7-2.2,1.7-1.8,3.5c.3,53,7.6,105.3,11.8,158s4.1,33.4-.3,50.7c-2.8,7.9-6.5,16-13,21.5-7.4,6.9-16.8,11.1-26.7,13.8-25.3,5.6-71.7,7.7-95.7-1.3-11.7-5.1-24.8-11.6-35.4-19.3-8.5-6.7-14.5-16.8-18-27-1.9-6.2-2.7-12.1-3.6-18.8-.9-6.9-2.1-13.6-3.3-20.4s-1.1-7.6-1.2-11.5c-2.8-75.5,1.9-153.4,3.3-228.6,2.2-122.8.6-245.1-3-367.5s0-1.3,0-2c-.5-17.5-.4-34.6-1-52-1-17.9-3.1-35.9-2.7-53.9.6-12.5,5.5-24.8,11.7-35.7,8.9-16.5,22.3-26,39.8-31.6,22-7.2,45.7-7.5,68.6-7.9,106.7-4.3,213.6-3.8,320.3-8.5,137.4-1.6,274.1,2.2,411.8,4.2,106.9,1.5,213.9.9,320.8,3.3,5.5,0,35.5-.9,37.6.5,22.2,4.7,37.5,15.7,42,38.9,2.2,11.2,3.3,22.8,4.2,34.3,1.7,11.7,2.5,23.3,4.2,35.1,2.9,14.9,4.9,30.5,1.3,45.5-1.9,8.6-7.9,19.2-15.8,23.7-14.7,8.4-58.2,9.4-77,12-18.1,3-37,8.5-49.7,22.7-3,4-5.4,9.5-3.3,14.4,6,13.1,23.1,19.5,36.4,21.7,42.4,2.7,91.8,11.2,136.4,7.8,31.2-.4,36-8.8,36.9-39.1,4.9-207.2,48.1-221,244.6-217.6,47.9,1.2,91.8-7.9,137,13.1,12.1,5.6,15.7,8.4,21,21,15.5,46.1,20.3,95,23.2,143.3,3,44.8,6.9,89.7,6.4,134.6,0,18.8-.3,37.5-.3,56.3-.2,13.8,1.5,27.9,4.5,41,.7,1.3.3,3.8.9,4.6,1.9,2.3,12.9,4,16.1,3s2.1-2.4,4.2-2.8c13.4-2.6,59.1-.3,72.5,3.5,15.3,6.1,21.5,14.7,27,29.5,2.4-113.2-103.8-45.8-105.1-177.4-5.3-56.9-15.2-113.5-21.3-170-1.7-16.1-.7-33.7-3.7-50-3.6-17.4-10.3-41-22.9-53.6-5.2-12-18.3-14.5-30-17s-22.3-4.1-31-5c-59-6.4-117.6,3-176.5,5-17.3.6-34.8-.4-52.1,0-29.4.5-63.4,2-90.1,15.9-18.8,10.5-38.3,29.8-61,27.6-7.2-1.2-13.7-6.6-19.8-10.8-3.4-2.4-6.9-4.5-10.5-6.6-22.7-15.1-44.5-29.1-72.8-34.7-79-11.8-158.9-13-238.6-14.9-107.8-2.7-215.6-2.3-323.4-2.6-66.3.3-132.6,0-198.9.1-118.4.7-236.8,4.9-354.9,14.2-24.7,3.3-50.3,15.4-68.6,32.5l.5-.3ZM387.4,446.5c3.3,9.7,19.9,24.6,29,29.5s25.8,9.2,33.6,8.1,12.3-8.9,17.9-9.6c16.3-2.2,42.2-.3,59.1,0,8.8.2,10.7,1.3,17.5-4.5s25.5-25.2,30.5-36.5,7.8-37.9,8.6-51.4c4.3-77.8-1.9-155.3-3.1-233l-6.4-68.6c-1.1-1.5-12.3-1.1-15.1-1-27.7.9-55.2,1.9-82.9,3.1-15.2.7-30.5-1.2-45.5,1-.6,6.1,5.3,8.9,8,12.7s2,4.6,3,6.3c17.9,41.2,17.8,89.4-3,129.5-2.4,4.6-6.1,10.6-9.2,14.8-13.8,18.6-37.8,28.2-56.9,40.3,2.8,15.8,1.1,32,2.1,47.8s3,24,4,36c1.9,22.2,2,55,9,75.5h-.2ZM648.4,177.5c7.7,10.2,15.8,17.5,28.8,20.7s30.5-1.2,46.8-2.7,40.1-.8,56.9,1.1c8.1.9,19.7,8,24.7,14.4,1.1,1.5.6,2.7.9,3.5-.8,3.9-1.2,6.9-2.8,10.7-17.1,39.5-95.6,46.2-128.9,66.1-14.7,8.8-17.8,24.8-21.8,40.2-8.7,33.9-10.7,62-13.5,96.5s-5.4,21.4.8,34.2,6.5,9.2,9.2,10.3,7.2,2.7,7.8,2.9c5.9,2.1,42.4,6.1,46.9,4.3s5.9-4.6,6.8-5c11.2-5.2,47.4-8.5,61-9.2,32.3-1.8,69.5,11.6,101.5,18.5,13.4,2.9,28.9,6.9,41.8,9.3,2.3.4,4.7-1,7.2.2,0-9.3,4.5-17.9,6.7-26.8,7.7-31.6,16.6-78.9,11.2-110.6-.5-3.2-.9-7.2-2.9-9.6s-.3-1.2-1-1.5c-3.5-1.6-20.1-.2-25.6-.5s-16.3-1.7-23.9-2.1c-22.2-1.1-44.6-.1-66.5-4-15.4-8.3-23.4-23.2-17.2-40.7,12.7-35.8,97.5-62.9,124.6-97.4,24.3-30.9,12.8-78.7,9.5-114.4l-.9-.5c-10.8-.7-21.7-1.7-32.5-2-57.9-1.8-115.6-.5-173.4-.2-22.5-.3-45.1-1.7-67.6-2.2-2.5,0-15.7.3-16.5.9-2.6,1.7-1.6,9.3-2,12-3.8,27.6-14.1,59.4,4,83.5h0ZM69.4,228.5v52c0,12.5,1.9,25.8,2,38.4.3,24.9-.6,50.1,1,74.6s0,5.4,0,8c-.5,4.3-.8,25-.3,35.5s1.4,7,3.5,9.8c5.4,7.3,11.2,14.5,16.8,21.6,4.8,6.5,10.5,12.5,18.3,15.3,8,3,15.4,5.5,23.5,6.7,10.9.8,22.5.3,33.6,0,17.7.1,30.6-5.5,45.8-12.6,3.2-1.5,6.7-3.3,8.7-6.2,2.2-2.9,2.7-6.7,3-10.2.5-5.9,1.1-11.6,1.2-17.4-1.4-37.1-12.9-80.1-5.8-116.7s17.9-17.4,33.4-23.6c14.9-5.9,30.2-13,46.2-16.8s57.4-7.7,73-18.1c.6-.4,6.4-5.1,7.1-5.7,36-31.6,37.9-101.7,24.5-144.7-1.6-5.2-8.2-15.7-12.5-19,.2-1.6-3.2-3.8-4.4-4.6-12.6-8.6-17.8-10.6-34.1-11.4-29.6-1.3-59.5,1.5-89,2.1-36.6.7-77-1.3-112.9,3.1-17.7,2.2-35.7,6.6-53.5,9.2-9.2,2.1-12.5,7.8-16.7,15.4-13.3,22-13.3,44.5-13.5,69.8-.2,15,.6,30.4,1,45.5h0ZM991.5,385c.2,21.9,2.1,71.7,18,87.5s6.9,6.6,7.8,7c11.9,4.3,30-5,43-6.7,18.8-2.4,50.1.3,69.7,1.7,17.8,1.3,37.1,6,54,6.4,44.5,1.2,90.9,2.1,135-.4,8.3-.5,16.6-.1,24.9-1.1l1.6-2.4c.5-24.8,1.9-49.3,4-74,.3-3.6-.3-7.4,0-11,1.8-18.1,9.1-35.2,7-53.9-6.6-2.8-13.2-.1-20-.6-32.5,4.9-66.5,2.1-99,1-17.9-.6-34.9-6-52.2-10.5-15.1-3.9-32.1-8.8-40.4-22.8-6.9-11.4-5.9-26.4,0-38.1,9.2-18.7,28.4-32.5,49.2-35,7.3-.9,14.7-.4,22,0,16.7,1.7,32.9-2.5,49.6-3.9,6.6-.5,13.2-.2,19.8.2,2.5-16.1-1.7-31.6-3-47.5-1.5-17.9-1.3-37.2-4.3-54.7-.9-5.2-5.1-23.4-7.6-27.1s-6.6-3.1-8.1-3.7c-48.8-11.9-99.4-5.9-149.1-6-42.4,0-90.4-2-132.9-3-2,2,5.5,35.8,6,41.5,1.7,20.8,0,47.3-7.2,66.8-4.6,8.7-3.1,16.3,1.6,24.5,5.5,10.7,13,20.6,23.2,27.2,12.7-2.9,25.3-2.2,37.8-.2,6.4.9,13.2.9,18.7,3.6,4.3,2,8,6.4,10.5,10.9,4.7,8.4,5.7,17.6,3.2,26.6-8,29.4-40.5,44.3-63.7,61-5.7,3.5-11.2,5.2-15.6,9.9-4.2,12.1-3.4,14.7-3.2,26.7h-.3ZM1474.4,99.5c-7.1,1.9-14.5,3.9-20.2,7.8-13.4,10-23.7,24.6-30.7,39.3-6.6,12.8-7.9,25.6-10.8,39.9-3,13.7-4.9,27.6-5.8,41.5-3.4,28.4-2.6,57.6-3.8,86.8-.8,19.9-4.6,39.9-2.3,60.1,1.7,7.5,4,14.7,4.7,22.4,1.8,17.1-.6,38,11.3,51.5,2.6,3.2,5.2,6.5,7.6,9.8,2.8,3.7,5.6,7,9.6,8,7.5,1.7,16.6-2.2,23.7-4.4,9.1-3.4,9.7-4.1,14.2-12.8,15.1-29.5,33.3-92.9,29.5-125.3-.4-3.7-4.6-10-.2-12.7,9.9-6.1,34,4.6,45.1,6.8,24.6,4.8,47.1,3.8,71.5-1s9.9-4.3,17.8-2.3c13.8,3.5,11.6,18.3,13.1,28.9,5.7,38.6,4.5,81.4,12.2,118.8s8.8,24.7,28.3,27.7c22.3,3.5,43,5.4,64.6-2.1,12.6-4.4,19.7-7.7,25.9-20.1,5.3-10.6,3.2-17.2,3.8-28.2,2.5-51.2,0-104.5-2-155.9-1.5-41-4.1-79.9-11.1-120.9-3.5-20.4-9.9-37.9-17.9-56.3-1.8-4.2-5.5-7.2-10-8.2s-7.7-2-11.7-2.9c-33.2-7.2-68.9-4.6-103.8-4.2-47.9.5-105.8-3.4-152.5,8h0ZM756.4,213.5c-3.8-4.7-9-4.3-14.5-4-18.9.8-39.7,5.7-59,7-18.3,1.3-40.4,3.7-56.5-6l3,78c2.1-1.1,3.9-2.9,6-4,35.1-18.9,82.7-25.9,112.1-52.5,2.1-1.9,12-13.6,11.9-15.5s-1.2-1.6-2-2c-.2-.4-.7-.6-1-1ZM854.4,320.5c6.9,5.8,16.7,7,25.5,8,15.9,1.8,30.7-1.8,47-1s22.4.8,33.9,1.1,9.6,3.5,13.9,2.7c14.1-9.5,31.2-15.8,41.7-29.4,7.9-10.2,16.9-24.3,11-37.5-1.1-2.4-2.7-4.9-5.6-5-15,1.4-30.6,2.3-45.6,2.2-13.9-.8-23.8-13.1-31.8-23.2-2.5-3.3-1.1-5.2-5.7-3.2-21,9.7-40.9,24.6-61.3,36.4-9.7,6.3-19.5,13.3-26.8,22.5-6.6,10.8-5.8,18.3,3.8,26.3h0ZM266.4,472.5l.5,1c12.6-1.6,23.5,4.1,35.3,6.7,18.3,4.1,40.7,6.5,57.2,12.3,10.5,3.7,26.9,9.3,36.7,13.8s26.9,18.1,28.3,17.2c.1-1.1.5-2.1,1-3,3.3-5.7,6.9-11.1,10-17s2.4-2.2,2-4c-11.1-.2-22.2.5-33.3-.2-19.7-1.9-38.2-12.1-51.2-26.8-13.5-16-13.9-43.8-15.7-64.1-.7-9.7-1.1-19.1-1.9-28.8-1.2-13.8-3.3-27.5-3.5-41.2-.2-10.6,0-21.4-1.2-31.9-.2-.5.6-1.9-.6-2l-6.7.3c-18.8,6.6-38.6,10.3-57.5,16.5-2.7.9-17.9,5.9-18.1,6.9,2.4,6,1.5,13,4,18.6,1.5,3,3.9,5.6,5.1,9,.7,1.9,1.2,3.9,1.5,5.8,4,31.5,13.7,61.2,11.3,93.6-.3,5.6-1.5,12.1-3,17.5l-.2-.2ZM1522.4,331.5c.4,16.1,0,33.3-3.2,49.2-6.8,28.9-18,56.9-31.9,83-7.1,14.9-18.6,17.4-33.9,21.3-4.2,1.4-8.6,2.2-13,2.5-2.9,2.1,6,3,7,3,5.6,3.4,11.8,4.5,17.7,7.8,2.8,1.6,4.5,4.9,7.9,5.2,5.2.5,18.8-4.5,25.9-5s16.4.4,24,0c23.8-1,45.1-4.7,67.5,7.4,36.3,19.7,44.7,51.9,72.9,76.1,3.4,2.9,16.6,13.2,20.1,8.8s6.6-17.4,7.5-21.3c3.9-16.5,3.4-29.2,10.3-45.7,1.5-3.6,4.6-6.4,4.2-10.3-4.1-.3-7.4-2.4-11.6-2.9-11.4-1-22-2-33.2-4.8-8.8-1.7-14.7-5.8-20.5-12.5-14.1-19.9-12-49.6-12.5-72-2.4-27.2-.2-54.6-1.6-81.9-.8-1.6-4.3-2.8-6-2.8-8.5.6-17,2-25.4,2.8-13,1.2-25.2-.4-38.3-1.9-10.6-1.1-21.2-3.1-31.3-6.6l-2.5.6h0ZM593.9,468.5c-8.5,8.4-19.1,14.9-30.5,18,2.2,3.5,7.7,4.3,11,6,29.7,15.4,46.7,29,65,56,5.5,8.1,11.3,18.5,17,27.5,1.5,1.4,1.1-1.1,1-2.1v-5.5c.4-17.3.6-49.7,9.3-64.2s3.3-3.3,4.7-4.8l7-5c-12.5.6-24.8-.7-37.3-1.5-20.9-1.4-31.2.3-43.7-17.9-.8-1.2-1.4-2.6-1.6-4s-.6-3.1-2-2.6h0ZM967.4,511.5c4.5,2,21.5,9.9,25.3,8.9s4.1-9.9,5.9-13.2,4.2-4.7,7.8-6.7,1.3.3,1.8-.1-.5-2.9.2-3.9c-16-.8-21.5-3.3-33.6-12-1.1-.8-2-1.9-2.5-3.2s-1.3-3.2-2.9-3.8l-7.8,30.7c0,2.8,4,2.5,5.8,3.3ZM217.4,502c-8.9,3.1-18.1,6.8-27.6,8.2-10.1,1.1-20.9-.3-31.1,2.5-7,1.6-14,3.6-21.3,3.8-7.1.3-14.4-1-21.6-1.5-8.2-.6-16.6.4-24.8.5-3-.2-17.8-4.8-18.7-3.9,1.1,62.8-2,125.5-3.6,188.4-.2,12.1-1.3,24.5-1.6,36.4-.2,12.8-.3,25.7-.4,38.5-.2,41.3-7.8,95.9,19.8,129.9,5.5,5.8,13.4,9,21,12.6,21.1,9.9,38.7,12.1,64.4,12.2,15.3,0,37,1,48.1-11.3,18.3-20.2,8.2-67.6,4.2-93-6.6-44-31.8-117.8,15.3-145,10.9-3.7,21.9-7.4,32.6-11.8,20.8-8.7,39.5-22.3,60.9-29.4,8.8-3.1,17.9-4.9,27.1-6.3,4.1-1.5,17.3-10.9,19.2-14.8,6.1-12.8,11.8-28.1,17.4-40.7s2.7-7.3,3.1-11.2-.8-7.5-3.1-10.5c-12-15.7-22.6-24.2-42.3-31.5-20.4-9.6-41.9-16.3-63.7-21.7-12.7-3.3-25.8-5.9-38.8-7.9-18.7-1.9-18.9,1.6-34.5,7.4h0ZM714.4,913.5c0,4,5,10.3,8,13.5s8.6,9.4,14.8,10.2c4.7.6,21.5-1.7,26.5-3s7-3,8.2-4.8c2.4-3.6,1.9-19.3,1.4-24.3-1.6-18-14.9-35.7-13.9-53.2s6.3-26.9,10.7-33.2,19.8-10.2,28.6-10.7,11.2-.6,16.7.9,6.2,2.3,8.3,3.7c12.4,10.9,17.6,23,20.2,39.1,1,5,2.2,9.9,2.8,14.9,1.1,8.1.6,16.5.6,24.8.5,13.7,1.7,27.1,14.7,34.8s44.4,13.4,64.8,14.2c22.2.9,53.3-4,63.1-25.9,2.8-3.6,2.6-7.8,1-12.1-12.8-47.1-28-56.9-62-88.1-8-7.8-14.9-16.6-21.4-25.6-9.1-12.2-17.7-24.8-24.8-38.2-4.9-14.6-4.7-33.1,5.2-45.4,7.2-8.3,17.9-12.4,27.5-17.2,18.8-8.6,34.4-13.2,53.8-19.2,7.4-2.2,29.4-21.4,34.2-27.8s6.6-14.6,8.5-24.3,0-19.5-5.3-27.8,0,0,0,0c-1.5-2.3-3.2-4.5-5.1-6.4-22.2-22.4-51.7-34.9-81.6-44.2-13.1-3.9-25.9-8.2-39.2-11.8-31.7-7.8-64-14.8-96-21.6-21-4.3-45.3-2-66.5,2-2.8.5-13.3,2.8-14.3,4.7-4.1,33-5,66.4-3.5,99.5,1.7,22,0,44,1.4,66.1.8,13.4,1.7,26.9,1.8,40.3-.3,52.5-1.4,104.9,0,157.4,1.7,12.5,4.5,27.9,10.9,38.6v.2ZM1736.9,576.5c-.9,3.5-4.5,14-7.3,20.2-1.2,2.7-3.1,4.9-5.6,6.5-9.5,6.2-20.6,7.3-32.1,8.3-30.8,3-53.6,3.5-77.1-18.9-27-25.7-39.4-64.3-80.5-69s-35.3.9-54,1c1.8,3.1,4.2,5.9,6,9,23,39.1,15.2,102.5,11.1,146.5-.9,9.9-1.8,18.5-3.6,25.6-.9,3.6-4,6.9-2,10.9.6,1.2,2.5,1.5,3.2,2.3,8.2,10,28.3,39.6,38,44.5,12,6.1,28.7,14.8,41.5,18.5,30.9,8.8,47.2.5,55.5,39.5s3.2,64.7,14.8,94.2c.8,1.9,6.2,13.4,6.9,14.1,3.5,3.1,31,6.5,37.1,6.9,18.6,1.3,57.5-.2,74.7-6.3,12.5-4.4,18.9-19.9,23.3-31.7,19.6-53.3,10.8-106.7,29.5-160.5,15-43.1,32.4-85.4,47.4-128.6,9.2-26.6,29.4-65.4,17.2-92.8-3.2-3.8-7-6.8-12-7.7-9-1.9-22.3-1.8-32.4-.8-7.3.4-13.5,3-20.7,4.3-4.5.7-9.3.7-13.7-1-4.6-1.8-8.2-4.1-13.4-3.5-8.6.6-17.7,2.1-25.3,5.3-24.2,11.7-20.6,41.6-26.5,63.6v-.4ZM410.9,930.4c5.7.2,12.3,2.6,18,2.2s11.8-2.8,13.6-5.6-3.2-15.9-4-20.1c-4.1-23.8-2-41.8-1.1-64.9,1.1-28.9-5.6-54.4,20-75,4.8-3.8,18.5-10.6,24.4-10.2,5.6,1.2,10.4,3,14.5,6.8,4.8,4.7,10.5,10.4,15.3,15.4,2.1,3.2,4,6.5,5.3,10.1,2.3,6.6,2.9,13.9,4.6,20.7,1,4.2,2.4,8.4,3.8,12.5,4.4,12.5,7.8,25.5,11.5,38.3,1.7,5.8,3.4,11.7,5,17.5,1.9,6.9,3.5,12.9,7,19.2,3.1,5.5,7.3,11.1,11.1,16.3,13.2,10.6,39.4,13.5,55.9,14,8.3-.2,21.7-.6,29.7-.9,2.2,0,3.6-.3,4.5-1,1.7-1.3,1.8-3.7,2.6-5.9,5.4-16.6,9.2-40,8.8-56.7-.6-11-3.4-23.2-4-34-2.5-43.6-2.8-86.5-10.3-129.7-11.1-64.7-30-126.4-82.1-167.3-11.6-7.8-26.4-15.8-39.4-21.4-13.3-4.4-24.6,1.8-38,2.7-2.5,1-8.3,10-10.1,12.9-12.4,20-20.3,42.4-30.6,63.4s-17.6,31.4-25.4,47.6-7.5,19.7-12.3,28.7c-14.1,26.7-29.2,43.3-40.3,73.7-10.8,29.4-24,64.9-28.4,95.6-2.1,14.3-3.1,28.8-4.5,43.2-.6,8-2.5,16.1-1,23.9,2,10.1,8.6,18.2,18.5,21.4,18.8,8.4,37,6,57.3,6.8v-.2ZM1054.8,581.5c7.3,20.1,6.9,48.8-3.4,66.3-4.5,7-11.3,13.5-17.7,18.9-6.8,5.7-14.4,8.1-21.8,12.8-1.7,2.6.6,3,1.5,4,4.3,4.8,6.3,9,12.1,13.4s16,8.8,23.4,7.5c13.8-2.4,27.8-2.2,42-3,32.5-1.7,67.1-7,91.5,20.5,22.3,25.2,15.1,90.5,17.4,124,1.2,17.6,3,49.4,8,65.5s10.6,9.1,16,11c24.8,9.1,75.6,15.4,99.2,3.1,12.5-6.5,13.9-10.8,13.3-24.7-1.7-39.9-13.4-81.1-16-121-1.1-17.8-3.5-46.2,11.5-58.5,16.2-13.2,34-4.9,53-4s44.9.7,65-7c.7-.7,5-17.2,5.4-19.6,5.7-33.9,5-112.1-11.7-142.1-4.3-5.9-7.9-11.8-14.6-14.9-4.8-2.2-10.4-3.9-15.5-5.7-13.2-4-26.6-4-40.2-4.7-43.2.3-86.5,4.1-129.7,2.6-19.6-.8-39.4-1-59-1-32.2-.7-64.4-6-96.6-7.7-8.9-1.2-17.7-2.7-26.6-1.7-7.7.9-15.9,2.9-23.3,5.1-5.1,6.6-2.8,16-.8,23.6.6,3.7.3,8,0,11.7,7.2,7.3,13.2,16.1,17.3,25.5h.3Z"/>
  <path class="st0" d="M1669.4,210.5l-4,6c-.3.3-.7.7-1,1-6.2,5.5-7.4,6.7-15.8,8.7-13.7,3.3-37.6,7-51.2,5.3s-4.6.4-7.7-.8-13.3-8-15.2-11c-5-7.8-1.8-20.9-1-29.7.9-10.3,0-23.5,8.5-31.5,9.8-4.8,19.7-9.9,30-13.2,6.4-2.1,14-2.8,22-2.7,12.2-.7,23.3-1.8,32.5,8.5,15.8,17.5,10,39.5,3,59.5h-.1ZM1626,167.9c-.7-.4-1.8-1.8-2.6-1-.6.4-3.6,7.3-3.8,8.3-1.2,8.2-1.3,19.5-1,28.1,0,3.7,2.2,4.2,5,2.3s5.2-15.5,5.6-18.7c.5-4.6,1-16.5-3.3-19h.1Z"/>
  <g>
    <path class="st0" d="M773.4,653.5c-10.3-1.6-10.7-1.4-13.5-12s-4.2-32.9,2.6-46.4,3.7-5.8,7.8-7.2c7.7-2.6,30.7-.8,39.1,1s18.4,5.9,21.6,10.9c1.5,2.4,2.8,7.4,4.4,9.6.2,6.4,0,12.9-1.2,19.3-3.1,16.5-13.5,23.3-29.8,24.7h-1c-8.5.7-21.3,1.3-30,0h0ZM800.3,612.7c-.2-.4-3.5-1.4-3.8-1.2l-1,13c2.3.6,1.7-.5,2.3-1.3,1.8-2.3,4.1-8,2.5-10.6h0Z"/>
    <path class="st0" d="M463.6,638.2c2.4-17.9,8.5-43.3,27.3-49.7,9.3-3.2,20.2-5.4,29.9-3.8,4,.6,14.4,3.2,16.7,6.4s-.3,2.4,0,3.3c1.7,3.2,3.4,4.7,4.7,9.3,5.4,18.3,5.5,37.6-1.2,54.9s-8.6,12-15.9,13.6c-16.4,3.3-32.6,4.6-49.2,2.2-.4,0-.7,0-1.1,0-7.3-1.2-12.6-7.6-13-15s.8-16.1,1.4-20.9l.3-.2ZM511.4,625.5c-.3-5.7-.4-1.1-4.3-1.9s-1.6-4.7-3.2-2.1-4.8,25.1-2.6,26.6,5.3.8,6.4.5.4-1.6.6-2c3.1-6.9,3.4-13.5,3-21h.1Z"/>
  </g>
  <g>
    <path class="st0" d="M261.4,210.5c0-2.6-2.3-4.1-2.9-6.6-2.3-9,2.9-48,5.2-58.6s2.6-9.5,9.7-12.3c15-5.8,40.6-4.7,56.3-1.3s15.2,8,15.7,16.8c.9,16,0,41.7-8.8,55.7-3.6,5.7-5.5,7.2-12,9-9.3,2.6-27.6,5.5-37.2,6.3s-.7,0-1,0c-6.6.3-15.3-.6-21-4-1.1-1.2-1.1-2-3-3l-1-2h0ZM297.4,192.5c3.4-3.6,5.7-12.9,6.4-17.9s-.7-4.7-.4-7.5c.6-5.3,4.8-12.7,1.4-18.6s-6.1-3.7-5.5-.5l-2,44.5h.1Z"/>
    <path class="st0" d="M135.1,621.2c-9.2-6-11.7-18.9-13.3-29.3-1.1-8.8-.6-18.5,4.4-26,3-4.3,7.7-7.3,12.8-9.9,10.7-5.5,23.8-6.1,35.4-5.2,6.2.6,12.4,1.6,18.9,1.8,4,.2,8.1.3,12.1,1,11.2,1.8,21.1,10.2,21.2,21.8.4,8.2-.8,16.9-3.5,24.5-4.5,13.1-12.1,15.8-24.2,18.2-17.8,3.3-47.5,12.4-63.7,3h-.2.1ZM180.4,582.5l-15-1,1,13c8.8-.2,10.9-4.8,14-12Z"/>
  </g>
</svg>