<?xml version="1.0" encoding="UTF-8"?>
<svg id="Layer_1" xmlns="http://www.w3.org/2000/svg" version="1.1" viewBox="0 0 1066.4 64.8">
  <!-- Generator: Adobe Illustrator 30.2.1, SVG Export Plug-In . SVG Version: 2.1.1 Build 1)  -->
  <path d="M25.6,40.1l-12.4.5.9,22.6-11.7.5L0,6.1l28.2-1.2c4,0,7.2.3,9.4,1.1,2.2.8,4.1,2.1,5.7,3.8,1.3,1.4,2.4,3,3.2,4.7.8,1.7,1.2,3.7,1.3,6s-.5,5.4-1.7,8.1c-1.3,2.7-3.5,4.7-6.6,5.9,2.7,1,4.6,2.4,5.8,4.3,1.2,1.9,1.9,4.9,2,8.9l.2,3.9c.1,2.6.3,4.4.5,5.3.4,1.5,1.1,2.5,2.3,3.2v1.4c0,0-13.2.5-13.2.5-.4-1.3-.7-2.3-.9-3.1-.4-1.6-.6-3.2-.7-4.9l-.3-5.3c-.2-3.7-1-6.1-2.3-7.3-1.3-1.2-3.8-1.7-7.3-1.5ZM32.5,29.3c2.3-1.2,3.5-3.4,3.3-6.6-.1-3.5-1.4-5.8-3.8-6.9-1.3-.6-3.3-.9-5.9-.8l-14,.6.6,15.5,13.6-.6c2.7-.1,4.7-.5,6.1-1.2Z" fill="#1e69d9"/>
  <path d="M122.5,34.7l-28,1,.5,14.8,31.9-1.2.4,10.3-43.6,1.6-2.1-57.5,42.2-1.5.4,10.2-30.4,1.1.4,12.2,28-1,.4,10Z" fill="#1e69d9"/>
  <path d="M157.8,5.1l12,.4-1.8,47.2,28.5,1.1-.4,10.3-40.5-1.5,2.1-57.5Z" fill="#1e69d9"/>
  <path d="M260,52l-21.2.2-3.9,11.9h-12.6c0,.1,19.9-57.7,19.9-57.7l13.6-.2,21,57.3h-13c0,.1-3.8-11.6-3.8-11.6ZM256.5,42.1l-7.4-22.6-7.2,22.7,14.6-.2Z" fill="#1e69d9"/>
  <path d="M345.1,64.8l-14.6-.9-9.7-20.2-12.7,18.9-14-.8,20.2-28.2-15.9-29.2,14.3.9,9.1,19.3,11.6-18,13.9.8-19.2,26.7,16.9,30.9Z" fill="#1e69d9"/>
  <path d="M430.2,56.4c-5.8-.2-10.1-1.9-13-5.1-4-4-5.8-9.6-5.6-16.8s2.5-12.9,6.7-16.4c3.1-3,7.6-4.5,13.4-4.3s10.1,1.9,13,5.1c3.9,3.8,5.8,9.4,5.6,16.8-.2,7.2-2.4,12.7-6.6,16.4-3.1,3-7.6,4.5-13.4,4.3ZM438.5,45.8c2-2.4,3.1-5.9,3.3-10.4s-.7-8-2.6-10.6c-1.9-2.5-4.5-3.9-7.8-4s-6,1-8.1,3.4c-2.1,2.4-3.2,5.9-3.3,10.4s.7,8.1,2.6,10.6c1.9,2.5,4.5,3.8,7.9,3.9s6-1,8.1-3.4Z" fill="#1e69d9"/>
  <path d="M488.3,37.9l-8.7.4.8,15.8-8.2.4-1.9-40.3,19.7-.9c2.8,0,5,.2,6.6.7,1.6.6,2.9,1.4,4,2.6.9,1,1.7,2.1,2.2,3.3.6,1.2.9,2.6,1,4.2s-.3,3.8-1.2,5.7c-.9,1.9-2.4,3.3-4.6,4.1,1.9.7,3.3,1.7,4.1,3,.8,1.3,1.3,3.4,1.5,6.2v2.7c.2,1.8.3,3.1.5,3.7.3,1,.8,1.8,1.6,2.2v1s-9.2.4-9.2.4c-.3-.9-.5-1.6-.6-2.1-.3-1.1-.4-2.3-.5-3.5l-.2-3.7c-.2-2.6-.7-4.3-1.7-5.1s-2.7-1.2-5.1-1ZM493.1,30.3c1.6-.8,2.4-2.4,2.3-4.7s-1-4-2.7-4.8c-.9-.4-2.3-.6-4.1-.5l-9.8.5.5,10.8,9.5-.5c1.9,0,3.3-.4,4.2-.9Z" fill="#1e69d9"/>
  <path d="M606,57.3c-3.1,2.1-7,3.2-11.6,3.4-7.6.3-14-2.1-19-7.2-5.3-5.1-8.1-12.3-8.4-21.5s1.9-16.9,6.9-22.7c4.9-5.8,11.6-8.9,20-9.2s13.3,1.4,17.8,4.9c4.6,3.5,7.3,8.1,8.1,13.6l-11.8.4c-1.1-3.9-3.4-6.6-7-8-2-.8-4.2-1.1-6.6-1-4.6.2-8.4,2.1-11.2,5.7-2.9,3.6-4.1,8.9-3.9,16s2.1,12,5.4,14.9c3.3,2.8,7.1,4.2,11.2,4s7.3-1.4,9.8-3.9c2.5-2.4,4-5.5,4.4-9.3l-13.3.5-.4-9.6,24-.9,1.1,30.9-8,.3-1.5-7.1c-2.2,2.8-4.2,4.8-6,6Z" fill="#1e69d9"/>
  <path d="M680.5,62.8c-8.2-.1-14.5-2.5-18.8-7-5.7-5.6-8.5-13.6-8.4-23.9.2-10.5,3.2-18.4,9.1-23.6,4.4-4.4,10.7-6.5,19-6.4,8.2.1,14.5,2.5,18.8,7,5.7,5.4,8.5,13.3,8.3,23.9s-3.2,18.2-9.1,23.6c-4.4,4.4-10.7,6.5-19,6.4ZM692.1,47.5c2.8-3.5,4.3-8.4,4.4-14.9s-1.2-11.5-4-15c-2.7-3.6-6.5-5.4-11.3-5.5s-8.6,1.6-11.5,5.1c-2.9,3.5-4.4,8.4-4.5,14.9s1.2,11.5,4,15.1c2.8,3.6,6.6,5.4,11.3,5.5s8.6-1.6,11.5-5.1Z" fill="#1e69d9"/>
  <path d="M807.4,62.9l2-25.6-22.4-1.8-2,25.6-11.9-1,4.6-57.4,11.9,1-1.8,21.9,22.4,1.8,1.8-21.9,11.9,1-4.6,57.4-11.9-1Z" fill="#1e69d9"/>
  <path d="M884.4,63.3c-8.2.5-14.6-1.4-19.2-5.6-6.1-5.2-9.5-12.9-10.1-23.2s1.9-18.6,7.4-24.2c4.1-4.7,10.2-7.3,18.5-7.8s14.6,1.4,19.2,5.6c6.1,4.9,9.5,12.7,10.1,23.2s-1.9,18.4-7.3,24.2c-4.1,4.7-10.2,7.3-18.5,7.8ZM894.9,47.2c2.6-3.7,3.7-8.7,3.3-15.2-.4-6.4-2.1-11.4-5-14.7-3-3.4-6.9-4.9-11.6-4.6s-8.5,2.2-11.1,5.9c-2.6,3.7-3.8,8.7-3.4,15.2.4,6.5,2.1,11.4,5.1,14.7,3,3.3,6.9,4.9,11.7,4.6s8.4-2.2,11-5.9Z" fill="#1e69d9"/>
  <path d="M949.5,62h-11.2c0,0,.5-57.7.5-57.7h17.5c0,.1,10.1,45.5,10.1,45.5l10.8-45.2h17.3c0,.1-.5,57.7-.5,57.7h-11.2c0,0,.3-39,.3-39,0-1.1,0-2.7,0-4.7,0-2,0-3.6,0-4.7l-11.3,48.2h-11.7c0,0-10.4-48.5-10.4-48.5,0,1.1,0,2.7,0,4.7,0,2,0,3.6,0,4.7l-.3,38.9Z" fill="#1e69d9"/>
  <path d="M1061.7,35.3l-27.9-1.9-1,14.8,31.8,2.2-.7,10.3-43.5-3,3.9-57.4,42.1,2.9-.7,10.2-30.4-2.1-.8,12.2,27.9,1.9-.7,10Z" fill="#1e69d9"/>
</svg>