<?xml version="1.0" standalone="no"?>
<!DOCTYPE svg PUBLIC "-//W3C//DTD SVG 20010904//EN"
 "http://www.w3.org/TR/2001/REC-SVG-20010904/DTD/svg10.dtd">
<svg version="1.0" xmlns="http://www.w3.org/2000/svg"
 width="700.000000pt" height="700.000000pt" viewBox="0 0 700.000000 700.000000"
 preserveAspectRatio="xMidYMid meet">
<metadata>
Created by potrace 1.11, written by Peter Selinger 2001-2013
</metadata>
<g transform="translate(0.000000,700.000000) scale(0.100000,-0.100000)"
fill="#000000" stroke="none">
<path d="M2509 4965 c-1 0 -2 -454 -3 -1010 -2 -925 -4 -1017 -20 -1094 -56
-264 -215 -386 -491 -376 -118 4 -197 31 -274 93 -75 61 -139 182 -157 302 -3
19 -8 37 -10 39 -3 3 -460 5 -497 2 -8 -1 -3 -73 8 -111 2 -8 6 -31 9 -50 15
-102 104 -308 164 -376 15 -17 41 -48 57 -68 41 -49 157 -137 230 -174 67 -33
171 -70 225 -78 19 -3 37 -7 40 -9 3 -2 35 -7 70 -11 129 -14 342 -6 420 16
17 5 31 8 33 8 10 -4 135 40 192 67 207 99 362 289 434 533 11 37 22 81 25 97
3 17 10 62 17 100 8 50 12 357 13 1078 1 555 -1 1012 -4 1016 -3 5 -465 11
-481 6z"/>
<path d="M3582 4956 c-5 -8 -8 -2787 -3 -2863 1 -10 126 -12 574 -9 314 2 590
7 612 10 22 4 65 12 95 17 693 128 1100 671 1085 1444 -5 225 -23 342 -80 520
-27 85 -133 305 -147 305 -4 0 -8 5 -8 10 0 21 -83 122 -162 201 -197 192
-456 316 -744 355 -27 3 -58 8 -69 11 -11 3 -273 6 -583 8 -398 1 -564 -1
-570 -9z m1072 -430 c274 -21 507 -154 644 -366 69 -107 132 -283 149 -420 10
-76 10 -362 0 -432 -65 -468 -368 -756 -826 -784 -135 -9 -531 -10 -544 -2
-11 6 -16 1986 -5 2004 7 10 453 10 582 0z"/>
</g>
</svg>
