<!DOCTYPE svg PUBLIC "-//W3C//DTD SVG 1.1//EN" "http://www.w3.org/Graphics/SVG/1.1/DTD/svg11.dtd">
<svg xmlns="http://www.w3.org/2000/svg" xmlns:xlink="http://www.w3.org/1999/xlink" x="0px" y="0px"
	 width="32px" height="32px" style="enable-background:new 0 0 18 18;" xml:space="preserve">

  <symbol id="twitter-icon" viewBox="0 0 32 32">
    <path d="M28.7,6.5v0.9C28.7,16,22.1,26,10.1,26C6.4,26,2.9,25.2,0,23.3c0.5,0.1,1,0.1,1.6,0.1c3.1,0,5.9-1.3,8.1-3.1
    c-2.8,0-5.3-2-6.1-4.6c0.4,0.1,0.8,0.1,1.2,0.1c0.6,0,1.2-0.1,1.8-0.2c-3-0.6-5.3-3.2-5.3-6.4V9.1c0.9,0.5,1.9,0.8,3,0.8
    C2.5,8.8,1.3,6.8,1.3,4.5c0-1.2,0.3-2.2,0.9-3.2c3.3,4,8.1,6.4,13.5,6.7c-0.1-0.5-0.1-1-0.1-1.5c0-3.6,2.9-6.5,6.5-6.5
    C24,0,25.7,0.8,27,2.1c1.5-0.3,2.9-0.8,4.1-1.6c-0.5,1.5-1.5,2.8-2.9,3.6c1.3-0.2,2.6-0.5,3.8-1C31.1,4.4,30,5.5,28.7,6.5z"/>
  </symbol>

  <symbol id="facebook-icon" viewBox="0 0 32 32">
    <path d="M30.2,0H1.8C0.8,0,0,0.8,0,1.8v28.5c0,1,0.8,1.8,1.8,1.8h15.3V19.6h-4.2v-4.8h4.2v-3.6c0-4.1,2.5-6.4,6.2-6.4
    	C25.1,4.8,26.6,5,27,5v4.3l-2.6,0c-2,0-2.4,1-2.4,2.4v3.1h4.8l-0.6,4.8h-4.2V32h8.2c1,0,1.8-0.8,1.8-1.8V1.8C32,0.8,31.2,0,30.2,0z"/>
  </symbol>

  <symbol id="dribbble-icon" viewBox="0 0 32 32">
    <path d="M4.2,26.9C1.6,24,0,20.2,0,16v-0.7c6.7-0.1,12.2-0.9,16.7-2.3c0.5,1,1,2,1.4,3.1c-0.4,0.1-0.8,0.2-1.2,0.4
  		C11.9,18.2,7.6,21.7,4.2,26.9z M15.6,10.8c-4.2,1.2-9.2,1.9-15.3,2c1-5,4.4-9.2,9-11.3C11.9,4.6,13.9,7.7,15.6,10.8z M22.3,30.7
  		c-2,0.9-4.1,1.3-6.3,1.3c-3.7,0-7.2-1.3-9.9-3.4c3.7-5.9,8.3-8.9,12.9-10.2C20.7,22.9,21.7,27.1,22.3,30.7z M18.2,9.9
  		c-1.7-3.1-3.7-6.3-6.2-9.4C13.3,0.2,14.6,0,16,0c4.1,0,7.9,1.6,10.7,4.1C24.5,6.6,21.7,8.5,18.2,9.9z M32,15.9
  		c-4-0.9-7.7-1.1-11.2-0.5c-0.4-1.1-1-2.2-1.5-3.4c3.7-1.5,6.7-3.6,9-6.2C30.6,8.6,32,12.1,32,15.9z M31.8,18.4
  		c-0.7,4.6-3.3,8.5-7,10.9c-0.6-3.4-1.5-7.4-3.1-11.5C25.2,17.3,28.7,17.6,31.8,18.4z"/>
  </symbol>

  <symbol id="vsco-icon" viewBox="0 0 32 32">
    <path d="M16,5c1.4,0,2.5-1.1,2.5-2.5S17.4,0,16,0c-1.4,0-2.5,1.1-2.5,2.5C13.5,3.7,14.6,5,16,5z M4.2,17.8
    	c0.9-0.9,0.9-2.5,0-3.6c-0.9-0.9-2.5-0.9-3.6,0c-0.9,0.9-0.9,2.5,0,3.6C1.6,18.7,3.2,18.7,4.2,17.8z M11,11c0.9-0.9,0.9-2.5,0-3.6
    	c-0.9-0.9-2.5-0.9-3.6,0C6.5,8.4,6.5,10,7.4,11C8.5,11.9,9.9,11.9,11,11z M22.7,11.6c1.4,0,2.5-1.1,2.5-2.5s-1.1-2.5-2.5-2.5
    	c-1.4,0-2.5,1.1-2.5,2.5C20.3,10.5,21.3,11.6,22.7,11.6z M10.8,24.4c0.9-0.9,0.9-2.5,0-3.6c-0.9-0.9-2.5-0.9-3.6,0
    	c-0.9,0.9-0.9,2.5,0,3.6C8.3,25.5,9.9,25.5,10.8,24.4z M17.6,17.6c0.9-0.9,0.9-2.5,0-3.6c-0.9-0.9-2.5-0.9-3.6,0
    	c-0.9,0.9-0.9,2.5,0,3.6C15.1,18.7,16.7,18.7,17.6,17.6z M29.5,18.5c1.4,0,2.5-1.1,2.5-2.5s-1.1-2.5-2.5-2.5c-1.4,0-2.5,1.1-2.5,2.5
    	C27,17.4,28.3,18.5,29.5,18.5z M17.8,31.3c0.9-0.9,0.9-2.5,0-3.6c-0.9-1.1-2.5-0.9-3.6,0c-0.9,0.9-0.9,2.5,0,3.6
    	C15.3,32.2,16.7,32.2,17.8,31.3z M24.5,24.6c0.9-0.9,0.9-2.5,0-3.6c-0.9-0.9-2.5-0.9-3.6,0c-0.9,0.9-0.9,2.5,0,3.6
    	C22,25.5,23.6,25.5,24.5,24.6z"/>
  </symbol>

  <symbol id="rdio-icon" viewBox="0 0 32 32">
    <path d="M32,7c0,0.2-0.3,3.2-4.8,4.8c0.1,0.5,0.1,1,0.1,1.5c0,7.4-6.1,13.3-13.7,13.3C6.1,26.7,0,20.7,0,13.3S6.1,0,13.7,0
  		c1.5,0,2.8,0.2,4,0.5v7.9c-0.8-0.5-1.8-0.8-3-0.8c-4.7,0-7.3,4-7.3,6.7c0,3,2.7,4.7,5.3,4.7c4,0,7.7-3,7.7-7V1.7
  		c1,0.5,1.9,1,2.8,1.6c2.4,1.5,4.7,2.8,8,2.8c0.3,0,0.5,0.1,0.7,0.3C31.9,6.5,32,6.8,32,7z"/>
  </symbol>

  <symbol id="spotify-icon" viewBox="0 0 32 32">
    <path d="M32,16c0,8.9-7.1,16-16,16S0,24.9,0,16S7.1,0,16,0S32,7.1,32,16z M27.7,12.9c0-0.5-0.2-1-0.7-1.3
  		c-4.1-2.5-9.2-3.2-13.6-3.2c-2.5,0-5.1,0.3-7.4,1c-0.6,0.2-1.1,0.8-1.1,1.4c0,0.8,0.6,1.5,1.5,1.5c0.2,0,0.3,0,0.5-0.1
  		c2.1-0.5,4.2-0.9,6.6-0.9c3.8,0,8.3,0.6,12,2.7c0.2,0.1,0.5,0.2,0.7,0.2C27,14.4,27.7,13.8,27.7,12.9z M13.2,14
  		c-1.9,0-4.2,0.2-6.3,0.9C6.4,15,6,15.5,6,16c0,0.7,0.6,1.3,1.2,1.3c0.1,0,0.3,0,0.4-0.1c1.8-0.5,3.7-0.8,5.5-0.8
  		c3.5,0,7.2,0.8,10.4,2.7c0.2,0.1,0.4,0.2,0.7,0.2c0.7,0,1.2-0.5,1.2-1.3c0-0.5-0.2-0.8-0.6-1.1C21.5,14.9,17.4,14,13.2,14z
  		 M13.5,19.2c-2.1,0-4,0.3-6,0.7c-0.5,0.1-0.8,0.5-0.8,1c0,0.5,0.5,1,1,1c0.1,0,0.2,0,0.2,0c2-0.4,3.9-0.7,6-0.7
  		c2.8,0,5.6,0.7,8,2.2c0.2,0.1,0.4,0.2,0.5,0.2c0.5,0,1-0.4,1-0.9c0-0.4-0.1-0.7-0.5-0.9C20.3,20,17,19.2,13.5,19.2z"/>
  </symbol>

  <symbol id="github-icon" viewBox="0 0 32 32">
    <path d="M32,14c0,9.4-6,12.7-16,12.7S0,23.3,0,14c0-2.6,0.9-4.9,2.3-6.7C2,5.5,1.7,2.4,2.7,0c3.1,0.2,5.6,1.7,7,2.8
  		C11.6,2.3,13.7,2,16,2s4.4,0.3,6.3,0.8c1.4-1.1,3.9-2.6,7-2.8c1,2.4,0.7,5.5,0.3,7.2C31.1,9.1,32,11.4,32,14z M27.8,18
  		c0-4.7-3.8-5.7-5.8-5.7s-2,0.3-6,0.3s-4-0.3-6-0.3s-5.8,1-5.8,5.7c0,4,3.1,6.7,11.8,6.7S27.8,22,27.8,18z M12.7,18.3
  		c0,2.3-0.8,3-1.7,3s-1.7-0.7-1.7-3s0.8-3,1.7-3S12.7,16,12.7,18.3z M22.7,18.3c0,2.3-0.8,3-1.7,3s-1.7-0.7-1.7-3s0.8-3,1.7-3
  		S22.7,16,22.7,18.3z"/>
  </symbol>

  <symbol id="ello-icon" viewBox="0 0 32 32">
    <path d="M32,16c0,8.8-7.2,16-16,16S0,24.8,0,16S7.2,0,16,0S32,7.2,32,16z M24.6,17.3c-0.5-0.2-1,0.2-1.1,0.6
  		c-0.9,3.4-4,5.8-7.5,5.8s-6.6-2.4-7.5-5.8c-0.1-0.5-0.6-0.8-1.1-0.6s-0.8,0.6-0.6,1.1c1.1,4.2,4.9,7.2,9.3,7.2s8.2-3,9.3-7.2
  		C25.4,17.9,25.1,17.4,24.6,17.3z"/>
  </symbol>

  <symbol id="pinterest-icon" viewBox="0 0 32 32">
    <path d="M24.8,10.5c0,7.2-4,12.6-9.9,12.6c-2,0-3.9-1-4.5-2.2c0,0-1,4.2-1.3,5c-0.8,2.9-3.1,5.8-3.3,6c-0.2,0.2-0.4,0.1-0.5-0.1
  		c0-0.4-0.6-4,0.1-7c0.3-1.5,2.3-10,2.3-10s-0.5-1.2-0.5-2.9c0-2.8,1.5-4.8,3.5-4.8c1.7,0,2.5,1.2,2.5,2.8c0,1.7-1.1,4.2-1.6,6.5
  		c-0.4,2,1,3.6,2.9,3.6c3.5,0,5.8-4.5,5.8-9.8c0-4-2.7-7-7.6-7c-5.6,0-9.1,4.2-9.1,8.8c0,1.6,0.5,2.8,1.2,3.6c0.3,0.4,0.4,0.5,0.3,1
  		C5,16.9,4.8,17.7,4.7,18c-0.1,0.5-0.5,0.6-0.9,0.5c-2.6-1.1-3.8-3.9-3.8-7C0,6.3,4.4,0,13.1,0C20.2,0,24.8,5.1,24.8,10.5z"/>
  </symbol>

  <symbol id="dayone-icon" viewBox="0 0 32 32">
    <path d="M12.3,0C5.5,0,0,5.5,0,12.3V32h32V0H12.3z M25.8,25.8l-9.2-5.9l-10,5.9V13.7c0-4.1,3.4-7.5,7.5-7.5H26v19.6
    	H25.8z"/>
  </symbol>

  <symbol id="medium-icon" viewBox="0 0 32 32">
    <path class="st0" d="M31.8,5.1L21.6,0c0,0-0.1,0-0.1,0c0,0,0,0,0,0c-0.1,0-0.2,0.1-0.3,0.2l-6.2,10.2l7,11.3l10-16.2
  		C31.9,5.3,31.9,5.2,31.8,5.1z"/>
  	<polygon class="st0" points="11.6,17.7 21.3,22.6 11.6,6.8 	"/>
  	<path class="st0" d="M22.2,23l8.9,4.5c0.5,0.2,0.9,0,0.9-0.5V7L22.2,23z"/>
  	<path class="st0" d="M10.5,5.2L1.2,0.5L0.6,0.2c-0.1,0-0.2-0.1-0.2-0.1c-0.1,0-0.2,0-0.3,0.1C0,0.3,0,0.4,0,0.5v21.3
  		c0,0.4,0.3,0.8,0.6,1l9.2,4.6c0.1,0.1,0.2,0.1,0.4,0.1c0.3,0,0.5-0.2,0.5-0.6V5.4C10.7,5.3,10.6,5.2,10.5,5.2z"/>
  </symbol>

  <symbol id="instagram-icon" viewBox="0 0 32 32">
    <path d="M16,2.9c4.3,0,4.8,0,6.5,0.1c1.6,0.1,2.4,0.3,3,0.6c0.7,0.3,1.3,0.6,1.8,1.2c0.6,0.6,0.9,1.1,1.2,1.8C28.7,7.1,29,8,29,9.5
  		c0.1,1.7,0.1,2.2,0.1,6.5s0,4.8-0.1,6.5c-0.1,1.6-0.3,2.4-0.6,3c-0.3,0.7-0.6,1.3-1.2,1.8c-0.6,0.6-1.1,0.9-1.8,1.2
  		c-0.6,0.2-1.4,0.5-3,0.6c-1.7,0.1-2.2,0.1-6.5,0.1s-4.8,0-6.5-0.1c-1.6-0.1-2.4-0.3-3-0.6c-0.7-0.3-1.3-0.6-1.8-1.2
  		c-0.6-0.6-0.9-1.1-1.2-1.8C3.3,24.9,3,24,3,22.5c-0.1-1.7-0.1-2.2-0.1-6.5s0-4.8,0.1-6.5C3,8,3.3,7.1,3.5,6.6
  		c0.3-0.7,0.6-1.3,1.2-1.8c0.6-0.6,1.1-0.9,1.8-1.2C7.1,3.3,8,3,9.5,3C11.2,2.9,11.7,2.9,16,2.9 M16,0c-4.3,0-4.9,0-6.6,0.1
  		C7.7,0.2,6.5,0.4,5.5,0.8c-1.1,0.4-1.9,1-2.8,1.8C1.8,3.6,1.2,4.5,0.8,5.5c-0.4,1-0.7,2.2-0.7,3.9C0,11.1,0,11.7,0,16
  		c0,4.3,0,4.9,0.1,6.6c0.1,1.7,0.3,2.9,0.7,3.9c0.4,1.1,1,1.9,1.8,2.8c0.9,0.9,1.8,1.4,2.8,1.8c1,0.4,2.2,0.7,3.9,0.7
  		C11.1,32,11.7,32,16,32s4.9,0,6.6-0.1c1.7-0.1,2.9-0.3,3.9-0.7c1.1-0.4,1.9-1,2.8-1.8c0.9-0.9,1.4-1.8,1.8-2.8
  		c0.4-1,0.7-2.2,0.7-3.9C32,20.9,32,20.3,32,16s0-4.9-0.1-6.6c-0.1-1.7-0.3-2.9-0.7-3.9c-0.4-1.1-1-1.9-1.8-2.8
  		c-0.9-0.9-1.8-1.4-2.8-1.8c-1-0.4-2.2-0.7-3.9-0.7C20.9,0,20.3,0,16,0L16,0z"/>
  	<path d="M16,7.8c-4.5,0-8.2,3.7-8.2,8.2c0,4.5,3.7,8.2,8.2,8.2s8.2-3.7,8.2-8.2C24.2,11.5,20.5,7.8,16,7.8z M16,21.3
  		c-2.9,0-5.3-2.4-5.3-5.3c0-2.9,2.4-5.3,5.3-5.3c2.9,0,5.3,2.4,5.3,5.3C21.3,18.9,18.9,21.3,16,21.3z"/>
  	<circle cx="24.5" cy="7.5" r="1.9"/>
  </symbol>

</svg>
