<svg id="Layer_1" data-name="Layer 1" xmlns="http://www.w3.org/2000/svg" viewBox="0 0 750 500"><defs><style>.cls-1{fill:#3f515d;}</style></defs><title>misc-logoArtboard 7</title><path class="cls-1" d="M528,236.28,388.72,97,375,83.33,361.29,97,222.05,236.28,208.33,250l13.72,13.71L361.29,402.95,375,416.67l13.72-13.72L528,263.72,541.67,250Zm-76.48,76.47-40.06-40.07h25.31v-19.4H392l-11.46-11.46h25.31v-19.4H361.15L349.68,211H375v-19.4H316.57V250H336V224.68l11.47,11.47v44.71h19.4V255.55L378.29,267v44.71H397.7V286.41l40.06,40.06L375,389.23,235.77,250,375,110.77,514.23,250Z"/></svg>