<svg id="Layer_1" data-name="Layer 1" xmlns="http://www.w3.org/2000/svg" viewBox="0 0 750 500"><defs><style>.cls-1{fill:#3f515d;}</style></defs><title>misc-logoArtboard 6</title><polygon class="cls-1" points="488.19 203.47 487.04 203.58 485.91 203.46 484.81 203.06 483.69 202.91 482.54 202.81 481.49 202.32 480.33 202.21 479.31 201.67 478.29 201.17 477.29 200.62 476.22 200.21 475.23 199.65 474.38 198.87 473.37 198.34 472.56 197.52 471.49 197.08 470.55 196.45 469.66 195.72 468.64 195.22 467.52 194.96 466.49 194.46 465.38 194.15 464.23 194.27 463.1 194.27 461.98 194.32 460.85 194.41 459.73 194.61 458.63 194.89 457.51 195.11 456.48 195.59 455.41 195.98 454.39 196.48 453.35 196.91 452.28 197.3 451.26 197.79 450.28 198.37 449.2 198.75 448.19 199.26 447.22 199.68 446.21 199.29 445.1 199.15 443.99 199.31 442.91 199.68 442.14 200.55 441.3 201.28 440.57 202.15 441.15 201.19 441.69 200.22 442.12 199.19 442.65 198.2 442.82 197.08 443.32 196.06 443.48 194.94 443.37 193.81 443.5 192.71 443.51 191.59 443.58 190.47 443.23 189.39 443.06 188.29 442.7 187.24 442.48 186.14 442.12 185.09 441.53 184.13 441.1 183.1 440.56 182.12 440.25 181.02 439.64 180.06 439.12 179.07 438.91 177.94 438.28 176.98 437.93 175.91 437.69 174.8 437.11 173.81 436.79 172.73 436.53 171.63 436.31 170.53 436.21 169.4 435.84 168.33 435.6 167.23 435.53 166.1 435.53 164.97 435.34 163.87 435.33 162.74 435.29 161.62 435.2 160.51 435.17 159.39 435.11 158.16 433.99 158.2 432.91 158.21 431.83 158.33 430.77 158.2 429.75 157.54 428.75 156.82 427.83 156.07 426.8 156.08 425.77 156.38 424.75 156.75 423.69 156.89 422.62 156.97 421.6 157.34 420.56 157.59 419.48 157.79 418.34 157.19 417.2 156.69 415.94 156.35 415.52 155.16 414.9 154.15 414.25 153.16 413.42 152.27 412.91 151.19 412.41 150.15 412.49 149.09 412.64 147.98 412.78 146.88 412.88 145.76 413.04 144.66 413.01 143.53 413.36 142.51 413.54 141.48 413.77 140.45 413.8 139.38 413.94 138.37 413.23 137.3 412.51 136.21 411.61 135.21 411.81 134.07 411.99 132.96 411.89 131.83 412.14 130.73 412.08 129.6 412.17 128.49 412.32 127.38 412.45 126.27 412.68 125.07 411.56 125.25 410.55 125.27 409.54 125.29 408.53 125.04 407.41 125.29 406.3 125.14 405.18 125.17 404.06 125.1 402.95 125.08 401.83 125.01 400.71 125.17 399.6 125.28 398.48 125.18 397.37 125.02 396.25 125.26 395.13 125.19 394.02 125.19 392.9 125.12 391.79 125.23 390.67 125.14 389.55 125.3 388.44 125.29 387.32 125.15 386.21 125.03 385.09 125.19 383.97 125.31 382.86 125.3 381.74 125.29 380.63 125.29 379.51 125.22 378.39 125.13 377.28 125.15 376.16 125.01 375.04 125.1 374 125.24 373.96 126.29 373.72 127.4 373.62 128.52 373.65 129.66 373.53 130.78 373.47 131.9 373.18 133.01 373.31 134.15 373.07 135.26 372.89 136.38 372.95 137.51 372.73 138.62 372.87 139.76 372.62 140.88 372.47 141.99 372.55 143.13 372.45 144.25 372.4 145.38 372.33 146.5 371.99 147.61 372.07 148.74 371.87 149.86 371.79 150.98 371.73 152.11 371.76 153.24 371.67 154.36 371.52 155.48 371.44 156.61 371.14 157.71 371.27 158.85 371.12 159.97 371.17 161.1 370.89 162.21 370.73 163.33 370.64 164.45 370.58 165.58 370.65 166.72 370.36 167.82 370.24 168.94 370.28 170.08 370.11 171.19 369.98 172.31 370.17 173.46 369.82 174.56 369.7 175.68 369.7 176.81 369.78 177.95 369.44 179.05 369.54 180.19 369.27 181.3 369.26 182.43 369.29 183.56 369.19 184.69 368.97 185.8 368.87 186.92 368.92 188.06 368.8 189.18 368.67 190.29 368.67 191.43 368.51 192.54 368.34 193.66 368.31 194.79 368.12 195.9 367.96 197.02 368.15 198.17 367.88 199.28 367.9 200.41 367.76 201.53 367.69 202.65 367.68 203.78 367.36 204.89 367.23 206.01 367.16 207.13 367.15 208.26 367.22 209.4 367.15 210.52 366.96 211.64 366.76 212.75 366.83 213.89 366.74 215.01 366.67 216.14 366.45 217.25 366.53 218.39 366.27 219.5 366.27 220.63 366.25 221.76 365.96 222.86 365.86 223.99 365.94 225.12 365.8 226.24 365.53 227.35 365.48 228.48 365.6 229.62 365.37 230.73 365.23 231.85 365.07 232.97 364.96 234.09 365.16 235.24 364.86 236.34 364.99 237.48 364.88 238.61 364.76 239.73 364.67 240.85 364.5 241.97 364.25 243.08 364.24 244.21 364.14 245.33 364.13 246.46 364.14 247.59 363.79 248.69 363.73 249.82 363.9 250.97 363.76 252.08 363.7 253.21 363.54 254.33 363.54 255.46 363.36 256.57 363.19 257.69 363.21 258.82 363.09 259.94 363.06 261.07 362.84 262.19 362.85 263.32 362.67 264.43 362.69 265.56 362.44 266.68 362.39 267.8 362.33 268.93 362.23 270.05 362.12 271.17 362.11 272.3 362.09 273.43 361.77 274.54 361.89 275.68 361.72 276.79 361.63 277.92 361.47 279.04 361.29 280.15 361.44 281.29 361.34 282.42 360.97 283.52 361.13 284.66 360.9 285.77 360.85 286.9 360.81 288.03 360.68 289.15 360.51 290.27 360.39 291.39 360.45 292.52 360.26 293.64 360.15 294.76 360.07 295.88 360.16 297.02 360.08 298.15 359.97 299.27 359.72 300.38 359.62 301.5 359.58 302.63 359.58 303.76 359.42 304.88 359.3 306.07 359.28 304.88 359.08 303.76 358.94 302.64 359.1 301.5 358.93 300.38 358.88 299.26 358.78 298.13 358.49 297.03 358.47 295.9 358.26 294.79 358.19 293.66 358.1 292.54 358.04 291.41 357.93 290.29 357.98 289.16 357.83 288.04 357.67 286.92 357.58 285.8 357.52 284.67 357.57 283.54 357.48 282.42 357.4 281.29 357.19 280.18 357.31 279.04 357.03 277.93 356.91 276.81 356.86 275.69 356.95 274.55 356.81 273.43 356.77 272.3 356.61 271.18 356.34 270.08 356.48 268.94 356.18 267.83 356.18 266.7 356.2 265.57 356.14 264.44 355.83 263.33 355.88 262.2 355.89 261.07 355.79 259.95 355.69 258.83 355.54 257.71 355.46 256.58 355.29 255.47 355.34 254.33 355.18 253.22 355.08 252.09 355.07 250.96 354.95 249.84 354.81 248.72 354.76 247.6 354.67 246.48 354.52 245.36 354.31 244.24 354.22 243.12 354.13 242 354.17 240.86 354.22 239.73 353.94 238.62 354.05 237.48 353.87 236.37 353.71 235.25 353.53 234.13 353.49 233.01 353.35 231.89 353.42 230.75 353.18 229.64 353.09 228.52 353.18 227.38 353.16 226.25 352.98 225.13 352.77 224.02 352.7 222.9 352.57 221.78 352.54 220.65 352.48 219.52 352.39 218.4 352.42 217.27 352.16 216.16 352.24 215.02 352.02 213.91 351.94 212.78 351.8 211.66 351.88 210.53 351.75 209.41 351.69 208.28 351.63 207.16 351.41 206.04 351.35 204.92 351.36 203.79 351.18 202.67 351.06 201.55 351 200.43 350.93 199.3 350.82 198.18 350.86 197.04 350.58 195.94 350.66 194.8 350.45 193.69 350.2 192.58 350.41 191.43 350.28 190.31 349.93 189.21 350.1 188.06 349.98 186.94 349.72 185.83 349.87 184.69 349.67 183.57 349.54 182.45 349.6 181.32 349.34 180.21 349.3 179.08 349.16 177.96 349.1 176.84 348.98 175.72 349.08 174.58 348.88 173.46 348.76 172.34 348.56 171.23 348.7 170.09 348.43 168.98 348.42 167.85 348.32 166.73 348.23 165.6 348.16 164.48 348.1 163.35 348.11 162.22 348.02 161.1 347.71 159.99 347.64 158.87 347.56 157.74 347.56 156.61 347.32 155.5 347.39 154.37 347.15 153.25 347.04 152.13 347.14 150.99 346.84 149.89 346.84 148.76 346.91 147.62 346.65 146.51 346.48 145.39 346.49 144.26 346.53 143.13 346.28 142.02 346.17 140.9 346.33 139.75 346.18 138.63 346.01 137.52 345.77 136.41 345.85 135.27 345.62 134.16 345.55 133.03 345.59 131.9 345.38 130.78 345.25 129.66 345.34 128.53 345.24 127.4 345.24 126.27 345.09 125.09 343.89 125.09 342.75 125.27 341.61 125.18 340.47 125.23 339.33 125.1 338.19 125.15 337.04 125.24 335.9 125.29 334.76 125.16 333.62 125.17 332.48 125.09 331.34 125.25 330.2 125.2 329.05 125 327.91 125.15 326.77 125.11 325.63 125.25 324.49 125.18 323.35 125.14 322.21 125.07 321.06 125.07 319.92 125.09 318.78 125.16 317.64 125.24 316.5 125.29 315.36 125.12 314.21 125.02 313.07 125.3 311.93 125.11 310.88 125.25 310.81 126.28 310.89 127.41 310.9 128.53 310.76 129.65 310.72 130.78 310.69 131.9 310.68 133.03 310.92 134.15 310.68 135.28 310.93 136.4 310.74 137.53 310.91 138.65 310.8 139.78 310.79 140.9 310.91 142.03 310.84 143.15 310.65 144.27 310.73 145.4 310.67 146.52 310.93 147.65 310.73 148.77 310.83 149.9 310.73 151.02 310.78 152.15 310.64 153.27 310.71 154.4 310.84 155.52 310.81 156.65 310.87 157.77 310.9 158.9 310.77 160.02 310.84 161.14 310.79 162.27 310.82 163.39 310.81 164.52 310.89 165.64 310.8 166.77 310.92 167.89 310.67 169.02 310.75 170.14 310.79 171.27 310.74 172.39 310.84 173.51 310.68 174.64 310.85 175.76 310.83 176.89 310.64 178.01 310.94 179.14 310.82 180.26 310.7 181.39 310.82 182.51 310.63 183.64 310.89 184.76 310.7 185.89 310.79 187.01 310.93 188.14 310.67 189.26 310.79 190.38 310.68 191.51 310.68 192.63 310.68 193.76 310.65 194.88 310.87 196.01 310.88 197.13 310.72 198.26 310.64 199.38 310.66 200.51 310.84 201.63 310.94 202.76 310.71 203.88 310.93 205 310.64 206.13 310.84 207.25 310.68 208.38 310.92 209.5 310.78 210.63 310.94 211.75 310.85 212.88 310.87 214 310.71 215.13 310.85 216.25 310.91 217.38 310.84 218.5 310.84 219.62 310.93 220.75 310.9 221.87 310.82 223 310.81 224.12 310.72 225.25 310.77 226.37 310.66 227.5 310.68 228.62 310.72 229.75 310.67 230.87 310.78 231.99 310.9 233.12 310.81 234.24 310.71 235.37 310.84 236.49 310.72 237.62 310.92 238.74 310.85 239.87 310.78 240.99 310.75 242.12 310.86 243.24 310.94 244.36 310.64 245.49 310.89 246.61 310.74 247.74 310.75 248.86 310.86 249.99 310.72 251.11 310.67 252.24 310.89 253.36 310.73 254.49 310.88 255.61 310.77 256.74 310.85 257.86 310.76 258.99 310.82 260.11 310.73 261.23 310.79 262.36 310.84 263.48 310.8 264.61 310.93 265.73 310.87 266.86 310.88 267.98 310.9 269.11 310.73 270.23 310.66 271.36 310.93 272.48 310.64 273.61 310.8 274.73 310.91 275.86 310.78 276.98 310.76 278.11 310.67 279.23 310.71 280.35 310.79 281.48 310.68 282.6 310.77 283.73 310.77 284.85 310.83 285.98 310.72 287.1 310.94 288.23 310.67 289.35 310.64 290.48 310.67 291.6 310.9 292.73 310.91 293.85 310.87 294.98 310.84 296.1 310.69 297.23 310.9 298.35 310.85 299.48 310.69 300.6 310.88 301.73 310.93 302.85 310.93 303.98 310.69 305.1 310.88 306.23 310.94 307.35 310.71 308.47 310.66 309.6 310.87 310.72 310.83 311.85 310.89 312.97 310.78 314.1 310.79 315.22 310.91 316.35 310.74 317.47 310.71 318.6 310.88 319.72 310.92 320.85 310.72 321.97 310.88 323.1 310.83 324.22 310.8 325.35 310.89 326.47 310.75 327.6 310.78 328.72 310.91 329.85 310.8 330.97 310.9 332.1 310.71 333.22 310.75 334.35 310.76 335.47 310.9 336.6 310.68 337.72 310.85 338.85 310.69 339.97 310.81 341.09 310.79 342.22 310.94 343.34 310.75 344.47 310.82 345.59 310.71 346.72 310.93 347.84 310.76 348.97 310.74 350.09 310.9 351.22 310.8 352.34 310.66 353.47 310.9 354.59 310.85 355.72 310.92 356.84 310.75 357.97 310.89 359.09 310.87 360.22 310.8 361.34 310.71 362.47 310.67 363.59 310.77 364.72 310.7 365.84 310.83 366.97 310.82 368.1 310.67 369.22 310.78 370.35 310.84 371.47 310.7 372.6 310.72 373.72 310.73 374.91 311.94 374.76 313.1 374.92 314.25 374.94 315.41 374.71 316.56 374.82 317.71 374.81 318.87 374.83 320.02 374.72 321.18 374.95 322.33 374.95 323.48 374.87 324.64 374.83 325.79 374.74 326.94 374.83 328.1 374.95 329.25 374.77 330.36 374.8 330.32 373.72 330.48 372.59 330.5 371.46 330.44 370.33 330.31 369.2 330.39 368.07 330.38 366.94 330.26 365.82 330.3 364.69 330.35 363.56 330.48 362.43 330.32 361.3 330.3 360.17 330.56 359.04 330.3 357.91 330.55 356.79 330.29 355.66 330.55 354.53 330.5 353.4 330.32 352.27 330.56 351.14 330.28 350.01 330.31 348.88 330.55 347.75 330.39 346.63 330.35 345.5 330.31 344.37 330.5 343.24 330.27 342.11 330.54 340.98 330.31 339.85 330.5 338.72 330.42 337.6 330.43 336.47 330.48 335.34 330.28 334.21 330.3 333.08 330.38 331.95 330.3 330.82 330.39 329.69 330.31 328.56 330.54 327.43 330.38 326.31 330.36 325.18 330.48 324.05 330.5 322.92 330.51 321.79 330.45 320.66 330.44 319.53 330.46 318.4 330.3 317.27 330.46 316.14 330.35 315.02 330.45 313.89 330.52 312.76 330.56 311.63 330.42 310.5 330.4 309.37 330.26 308.24 330.45 307.11 330.43 305.98 330.55 304.86 330.34 303.73 330.36 302.6 330.53 301.47 330.35 300.34 330.52 299.21 330.27 298.08 330.4 296.95 330.29 295.82 330.56 294.69 330.46 293.57 330.5 292.44 330.32 291.31 330.29 290.18 330.36 289.05 330.3 287.92 330.48 286.79 330.3 285.66 330.53 284.53 330.49 283.4 330.34 282.28 330.36 281.15 330.51 280.02 330.45 278.89 330.33 277.76 330.44 276.63 330.54 275.5 330.47 274.37 330.27 273.24 330.47 272.11 330.28 270.99 330.44 269.86 330.41 268.73 330.48 267.6 330.27 266.47 330.48 265.34 330.29 264.21 330.29 263.08 330.52 261.95 330.55 260.82 330.34 259.69 330.48 258.56 330.42 257.44 330.48 256.33 330.36 255.21 330.44 254.09 330.24 252.98 330.18 251.86 330.28 250.75 330.21 249.63 330.2 248.51 330.33 247.39 330.34 246.28 330.06 245.16 330.12 244.05 330.11 242.93 330.09 241.81 330.17 240.69 330.18 239.58 329.98 238.46 330.13 237.34 329.99 236.23 330.17 235.11 330.18 233.99 330 232.88 330.05 231.76 330.12 230.64 330.1 229.53 330.1 228.41 330.02 227.29 329.85 226.18 329.9 225.06 330.02 223.94 329.73 222.83 329.76 221.71 329.95 220.59 329.9 219.47 329.86 218.36 329.8 217.24 329.71 216.13 329.88 215.01 329.67 213.89 329.71 212.78 329.67 211.66 329.59 210.54 329.56 209.43 329.5 208.31 329.71 207.19 329.58 206.08 329.74 204.96 329.49 203.84 329.59 202.72 329.56 201.61 329.42 200.49 329.45 199.38 329.47 198.26 329.56 197.14 329.61 196.02 329.31 194.91 329.31 193.79 329.42 192.68 329.39 191.56 329.39 190.44 329.22 189.33 329.26 188.21 329.33 187.09 329.29 185.97 329.44 184.85 329.34 183.74 329.21 182.62 329.19 181.51 329.32 180.39 329.12 179.27 329.33 178.15 329.3 177.04 329.01 175.92 329.25 174.8 328.98 173.69 329.12 172.57 329.1 171.45 329.02 170.34 329.1 169.22 329 168.1 329.03 166.98 329.14 165.87 328.98 164.64 329.2 165.86 329.04 167 329.2 168.11 329.38 169.22 329.48 170.34 329.56 171.45 329.77 172.56 329.83 173.68 329.88 174.8 329.87 175.93 329.98 177.05 330.16 178.16 330.35 179.27 330.23 180.4 330.34 181.52 330.44 182.64 330.78 183.73 330.73 184.86 330.73 185.99 331.07 187.09 331.14 188.21 331.06 189.34 331.35 190.44 331.36 191.56 331.29 192.69 331.57 193.8 331.67 194.91 331.71 196.04 331.9 197.15 331.75 198.28 331.96 199.39 332.13 200.5 332.19 201.62 332.25 202.74 332.27 203.87 332.38 204.98 332.69 206.08 332.57 207.22 332.62 208.34 332.9 209.44 333.09 210.55 332.96 211.69 333.01 212.81 333.38 213.9 333.44 215.02 333.36 216.16 333.65 217.26 333.72 218.38 333.71 219.5 333.86 220.62 334.03 221.73 333.86 222.87 334.12 223.97 334.13 225.09 334.24 226.21 334.26 227.34 334.56 228.44 334.55 229.56 334.74 230.67 334.65 231.8 334.98 232.9 335.03 234.02 334.96 235.15 335.27 236.25 335.42 237.37 335.4 238.49 335.4 239.62 335.62 240.73 335.54 241.86 335.82 242.96 335.8 244.09 335.97 245.2 336.17 246.31 336.2 247.43 336.15 248.56 336.38 249.67 336.5 250.78 336.52 251.91 336.6 253.03 336.81 254.13 336.89 255.25 336.85 256.38 337.13 257.48 337.19 258.6 337.21 259.73 337.31 260.84 337.4 261.96 337.56 263.07 337.49 264.21 337.69 265.31 337.92 266.42 337.85 267.55 338.01 268.67 337.94 269.8 338.27 270.89 338.28 272.02 338.22 273.15 338.43 274.26 338.61 275.37 338.68 276.49 338.67 277.62 339 278.71 338.82 279.85 339.03 280.96 339.06 282.08 339.15 283.2 339.37 284.31 339.49 285.43 339.58 286.54 339.57 287.67 339.64 288.79 339.71 289.91 340.03 291.01 339.94 292.14 340.04 293.26 340.34 294.36 340.29 295.49 340.36 296.61 340.4 297.73 340.74 298.83 340.59 299.97 340.7 301.08 340.99 302.19 340.89 303.32 341.06 304.43 341.18 305.55 341.31 306.66 341.42 307.78 341.34 308.91 341.53 310.02 341.56 311.14 341.83 312.25 341.81 313.37 341.96 314.49 341.91 315.62 341.99 316.74 342.22 317.84 342.29 318.96 342.58 320.06 342.5 321.2 342.76 322.3 342.8 323.42 342.68 324.56 342.96 325.66 343.03 326.78 343.01 327.91 343.3 329.01 343.32 330.13 343.25 331.27 343.5 332.37 343.5 333.5 343.79 334.6 343.93 335.71 343.91 336.84 343.97 337.96 344.04 339.08 344.22 340.19 344.32 341.31 344.48 342.42 344.54 343.54 344.44 344.67 344.6 345.79 344.76 346.9 344.77 348.02 345 349.13 344.95 350.26 345.1 351.37 345.24 352.49 345.3 353.61 345.45 354.72 345.62 355.83 345.54 356.97 345.83 358.07 345.68 359.21 346.01 360.31 346.03 361.43 346.25 362.54 346.25 363.66 346.46 364.77 346.44 365.9 346.59 367.01 346.75 368.13 346.77 369.25 346.91 370.36 346.77 371.5 346.96 372.61 347.14 373.72 347.25 374.76 348.28 374.84 349.38 374.84 350.49 374.96 351.6 374.7 352.7 374.83 353.81 374.81 354.91 374.97 356.02 374.95 357.12 374.91 358.23 374.91 359.34 374.93 360.44 374.71 361.55 374.83 362.65 374.94 363.76 374.92 364.87 374.8 365.97 374.79 367.08 374.99 368.18 374.76 369.2 374.75 369.28 373.72 369.63 372.63 369.68 371.5 369.7 370.38 369.77 369.26 369.94 368.15 370.03 367.04 370.07 365.91 370.01 364.78 370.23 363.68 370.47 362.57 370.34 361.44 370.61 360.33 370.62 359.21 370.79 358.1 370.97 356.99 370.98 355.87 370.99 354.74 371.25 353.64 371.12 352.5 371.34 351.39 371.44 350.28 371.59 349.17 371.5 348.03 371.58 346.92 371.81 345.81 371.93 344.69 372.02 343.58 372.03 342.45 372.1 341.33 372.3 340.23 372.44 339.11 372.53 338 372.51 336.87 372.7 335.76 372.84 334.65 372.76 333.52 373.06 332.42 373.08 331.29 373.16 330.18 373.36 329.07 373.28 327.94 373.56 326.83 373.51 325.7 373.68 324.6 373.7 323.47 373.79 322.35 373.91 321.24 374.19 320.14 374.05 319 374.23 317.89 374.24 316.77 374.46 315.66 374.45 314.54 374.67 313.43 374.69 312.31 374.97 311.2 374.87 310.07 375.12 308.97 375.1 307.84 375.23 306.73 375.47 305.62 375.33 304.49 375.59 303.38 375.62 302.26 375.83 301.15 375.73 300.02 375.76 298.9 375.93 297.79 376.17 296.68 376.2 295.56 376.24 294.44 376.49 293.33 376.44 292.2 376.69 291.1 376.6 289.97 376.84 288.86 376.99 287.75 376.92 286.62 376.98 285.5 377.09 284.38 377.32 283.28 377.44 282.16 377.4 281.04 377.56 279.92 377.57 278.8 377.69 277.68 377.96 276.58 378.1 275.47 377.95 274.33 378.28 273.23 378.4 272.12 378.42 271 378.42 269.87 378.45 268.75 378.61 267.64 378.78 266.52 378.91 265.41 378.87 264.28 378.88 263.16 379.03 262.05 379.08 260.92 379.32 259.82 379.51 258.71 379.45 257.58 379.54 256.46 379.86 255.37 379.72 254.23 379.96 253.12 379.98 252 380.26 250.9 380.24 249.77 380.45 248.66 380.45 247.54 380.4 246.41 380.67 245.31 380.55 244.17 380.81 243.07 380.81 241.94 381.12 240.84 381.12 239.72 381.06 238.59 381.27 237.48 381.22 236.35 381.45 235.25 381.45 234.12 381.56 233 381.63 231.88 381.73 230.77 382.02 229.67 381.97 228.54 382.23 227.44 382.13 226.3 382.36 225.2 382.56 224.09 382.4 222.95 382.76 221.85 382.76 220.73 382.84 219.61 382.94 218.49 382.89 217.36 383.25 216.27 383.18 215.14 383.25 214.02 383.3 212.9 383.42 211.78 383.64 210.68 383.74 209.56 383.93 208.45 383.79 207.31 384.12 206.22 384.1 205.09 384.28 203.98 384.23 202.85 384.37 201.74 384.39 200.61 384.51 199.5 384.64 198.38 384.75 197.27 384.86 196.15 384.99 195.04 385.19 193.93 385.28 192.81 385.19 191.68 385.26 190.56 385.54 189.46 385.66 188.34 385.66 187.22 385.83 186.1 385.99 184.99 386.07 183.88 385.96 182.74 386.12 181.63 386.35 180.52 386.2 179.38 386.58 178.29 386.68 177.17 386.57 176.04 386.81 174.93 386.89 173.81 386.99 172.7 386.9 171.56 387.14 170.34 387.08 171.59 387 172.71 386.96 173.84 386.98 174.97 386.89 176.1 386.99 177.23 386.89 178.36 386.83 179.49 386.94 180.62 387.08 181.75 387 182.88 387.03 184.01 386.97 185.14 386.89 186.27 386.78 187.4 386.95 188.53 386.7 189.66 386.83 190.79 386.9 191.92 386.68 193.04 386.83 194.18 386.82 195.31 386.76 196.44 386.69 197.56 386.54 198.69 386.7 199.82 386.75 200.95 386.54 202.08 386.49 203.21 386.72 204.34 386.61 205.47 386.47 206.6 386.49 207.73 386.53 208.86 386.61 209.99 386.41 211.12 386.4 212.25 386.29 213.37 386.55 214.51 386.35 215.63 386.27 216.76 386.46 217.9 386.46 219.03 386.41 220.15 386.31 221.28 386.43 222.41 386.36 223.54 386.27 224.67 386.29 225.8 386.08 226.93 386.07 228.06 386.33 229.19 386.24 230.32 386.04 231.45 386.25 232.58 386 233.71 386.01 234.84 386.05 235.97 385.93 237.09 385.91 238.22 385.99 239.35 386 240.49 386.01 241.62 386.08 242.75 385.97 243.88 386.07 245.01 385.91 246.13 385.78 247.26 385.87 248.39 385.76 249.52 385.68 250.65 385.68 251.78 385.94 252.91 385.63 254.04 385.69 255.17 385.7 256.3 385.75 257.43 385.54 258.56 385.74 259.69 385.55 260.82 385.77 261.95 385.59 263.08 385.78 264.21 385.62 265.33 385.58 266.46 385.62 267.59 385.74 268.72 385.58 269.85 385.75 270.98 385.75 272.11 385.56 273.24 385.62 274.37 385.74 275.49 385.68 276.62 385.78 277.75 385.72 278.88 385.85 280.01 385.76 281.14 385.73 282.27 385.6 283.4 385.73 284.52 385.71 285.65 385.8 286.78 385.55 287.91 385.8 289.04 385.58 290.17 385.73 291.3 385.56 292.43 385.73 293.56 385.74 294.69 385.81 295.81 385.6 296.94 385.68 298.07 385.81 299.2 385.79 300.33 385.76 301.46 385.66 302.59 385.74 303.72 385.82 304.85 385.77 305.97 385.55 307.1 385.56 308.23 385.63 309.36 385.83 310.49 385.71 311.62 385.61 312.75 385.66 313.88 385.69 315.01 385.85 316.13 385.69 317.26 385.7 318.39 385.67 319.52 385.76 320.65 385.73 321.78 385.58 322.91 385.61 324.04 385.62 325.17 385.57 326.3 385.63 327.43 385.84 328.55 385.64 329.68 385.81 330.81 385.55 331.94 385.64 333.07 385.77 334.2 385.77 335.33 385.56 336.45 385.8 337.58 385.64 338.71 385.85 339.84 385.62 340.97 385.78 342.1 385.77 343.23 385.83 344.36 385.62 345.49 385.6 346.62 385.55 347.75 385.64 348.87 385.62 350 385.83 351.13 385.8 352.26 385.74 353.39 385.71 354.52 385.75 355.65 385.57 356.78 385.56 357.91 385.6 359.04 385.55 360.17 385.68 361.3 385.69 362.42 385.79 363.55 385.84 364.68 385.77 365.81 385.76 366.94 385.56 368.07 385.85 369.2 385.55 370.33 385.81 371.46 385.67 372.59 385.8 373.72 385.75 374.79 386.84 374.71 387.98 374.81 389.12 374.94 390.26 374.74 391.4 374.98 392.55 374.9 393.69 374.75 394.83 374.97 395.97 374.89 397.11 374.84 398.25 374.79 399.39 374.9 400.54 375 401.68 375 402.82 374.82 403.96 374.92 405.1 374.81 406.24 374.81 407.38 374.98 408.56 374.88 408.55 373.72 408.53 372.59 408.43 371.47 408.38 370.34 408.6 369.21 408.57 368.08 408.37 366.96 408.51 365.83 408.44 364.7 408.54 363.58 408.46 362.45 408.45 361.32 408.62 360.19 408.59 359.07 408.59 357.94 408.67 356.81 408.4 355.69 408.42 354.56 408.55 353.43 408.37 352.31 408.39 351.18 408.46 350.05 408.47 348.92 408.68 347.8 408.38 346.67 408.37 345.54 408.5 344.42 408.43 343.29 408.38 342.16 408.55 341.03 408.59 339.91 408.55 338.78 408.51 337.65 408.51 336.53 408.39 335.4 408.59 334.27 408.48 333.14 408.48 332.02 408.53 330.89 408.64 329.76 408.46 328.64 408.43 327.51 408.58 326.38 408.54 325.25 408.51 324.13 408.67 323 408.49 321.87 408.45 320.75 408.59 319.62 408.39 318.49 408.56 317.37 408.67 316.24 408.5 315.11 408.42 313.98 408.62 312.86 408.67 311.73 408.54 310.6 408.51 309.47 408.41 308.35 408.52 307.22 408.4 306.09 408.66 304.96 408.41 303.84 408.4 302.71 408.68 301.58 408.64 300.45 408.47 299.33 408.65 298.2 408.39 297.02 409.35 296.3 409.92 295.3 410.8 294.58 411.52 293.72 412.08 292.72 413 292.03 413.72 291.17 414.36 290.23 415.02 289.32 415.99 288.67 416.5 287.63 417.3 286.84 418.02 285.97 418.73 285.11 419.49 284.27 420.39 283.57 421.08 282.68 421.69 281.73 422.56 280.99 423.14 280.01 423.92 279.19 424.71 278.39 425.48 277.57 426.23 276.74 426.91 275.84 427.67 275.01 428.32 274.09 429.1 273.28 429.86 272.46 430.68 271.67 431.4 270.82 432.06 269.9 432.81 269.06 433.45 268.13 434.13 267.23 434.93 266.44 435.73 265.65 436.38 264.72 437.13 263.89 437.92 263.08 438.59 262.18 439.36 261.36 440.16 260.57 440.73 259.58 441.63 258.87 442.27 257.94 442.99 257.07 443.69 256.19 444.48 255.39 445.34 254.65 445.89 253.65 446.81 252.96 447.55 252.1 448.09 251.09 449.01 250.4 449.64 249.46 450.35 248.59 451.17 247.82 451.95 247 452.67 246.14 453.43 245.31 454 244.32 454.73 243.46 455.64 242.77 456.33 241.88 457.1 241.07 457.82 240.2 458.45 239.26 459.25 238.47 460.04 237.66 460.72 236.77 461.37 235.84 462.23 235.1 462.83 234.13 463.7 233.4 464.3 232.44 465.11 231.65 465.77 230.73 466.45 229.84 467.19 228.99 468.06 228.26 468.77 227.39 469.53 226.56 470.17 225.63 470.9 224.78 471.81 224.08 472.45 223.15 473.05 222.18 473.89 221.42 474.53 220.49 475.36 219.72 476.01 218.8 476.89 218.07 477.55 217.16 478.35 216.37 479.09 215.52 479.83 214.68 480.59 213.85 481.31 212.98 482 212.1 482.6 211.13 483.53 210.44 484.07 209.43 485 208.74 485.62 207.8 486.48 207.05 487.13 206.13 487.77 205.19 488.48 204.33 489.37 203.59 488.19 203.47"/></svg>