<svg id="Layer_1" data-name="Layer 1" xmlns="http://www.w3.org/2000/svg" viewBox="0 0 750 500"><defs><style>.cls-1{fill:#3f515d;}</style></defs><title>misc-logoArtboard 10</title><path class="cls-1" d="M350,194.15a35,35,0,0,0,35-35,60.22,60.22,0,0,0-30-52,10,10,0,0,0-10,0,60.22,60.22,0,0,0-30,52A35,35,0,0,0,350,194.15Zm0-66.21a40.15,40.15,0,0,1,15,31.21,15,15,0,0,1-30,0A40.15,40.15,0,0,1,350,127.94Z"/><path class="cls-1" d="M500,224.15H200a10,10,0,0,0-10,10c0,88.22,71.78,160,160,160A159.71,159.71,0,0,0,472.21,337.3,60,60,0,1,0,500,224.15Zm-289.65,20h54.81c.83,26.64,5,51.34,11.7,72.68a159.74,159.74,0,0,0-25.62,16.44A139.62,139.62,0,0,1,210.35,244.15Zm56.36,102.47a139.75,139.75,0,0,1,17.15-10.87,142.47,142.47,0,0,0,16.72,29.39A139.89,139.89,0,0,1,266.72,346.61ZM340,372.31c-12.42-4.53-24.46-17.3-34.09-36.57-1.32-2.63-2.56-5.37-3.76-8.17A139.94,139.94,0,0,1,340,319.51Zm0-72.84a159.93,159.93,0,0,0-44.66,9.3c-5.89-19.42-9.39-41.45-10.17-64.62H340Zm20-55.32h54.83c-.78,23.17-4.28,45.2-10.17,64.62a159.86,159.86,0,0,0-44.66-9.3Zm34.09,91.59c-9.63,19.26-21.67,32-34.09,36.57v-52.8a139.87,139.87,0,0,1,37.85,8.06C396.65,330.37,395.41,333.11,394.09,335.74Zm5.33,29.4a142.48,142.48,0,0,0,16.72-29.4,139.76,139.76,0,0,1,17.15,10.86A139.9,139.9,0,0,1,399.41,365.14Zm49.35-31.87a159.77,159.77,0,0,0-25.62-16.44c6.72-21.34,10.87-46,11.7-72.68h20.49a59.85,59.85,0,0,0,.95,81Q452.68,329.37,448.76,333.27Zm19.69-24.57a40,40,0,0,1,21.08-63.15A139.07,139.07,0,0,1,468.45,308.69ZM500,324.15A39.77,39.77,0,0,1,484.34,321a159,159,0,0,0,25.26-75.63,40,40,0,0,1-9.6,78.83Z"/></svg>