<svg id="Layer_1" data-name="Layer 1" xmlns="http://www.w3.org/2000/svg" viewBox="0 0 750 500"><defs><style>.cls-1{fill:#3f515d;}</style></defs><title>misc-logoArtboard 10 copy 2</title><path class="cls-1" d="M375,125A125,125,0,1,0,500,250,125.14,125.14,0,0,0,375,125Zm104.19,79.57H458.06l-26.6-53.2A114.4,114.4,0,0,1,479.19,204.57Zm-64.27-61,30.51,61H384.14l30.55-61.1ZM375,222.85l30.64,61.29H344.36Zm-39.78,54.31-30.64-61.29h61.29Zm48.92-61.29h61.29l-30.64,61.29ZM375,136.3A113.31,113.31,0,0,1,403.79,140L375,197.59,346.21,140A113.47,113.47,0,0,1,375,136.3Zm-39.69,7.16,30.56,61.11H304.57l30.51-61Zm-16.8,8-23.07,46.15-3.49,7H270.8A114.34,114.34,0,0,1,318.51,151.44ZM261.3,250a113.29,113.29,0,0,1,5.24-34.14H286.3L271,246.51l-8.78,17.55A114.14,114.14,0,0,1,261.3,250Zm.9,14.06h0Zm3.71,17.83,14.2-28.4,15.32-30.64,30.64,61.29H266.6C266.36,283.39,266.13,282.64,265.91,281.89Zm4.92,13.54h55.25L304.31,339A114.27,114.27,0,0,1,270.83,295.43Zm42.79,50.19,21.6-43.21,30.44,60.88A112.92,112.92,0,0,1,313.61,345.62Zm52,17.67h0q2.24.18,4.49.29C368.64,363.52,367.15,363.41,365.66,363.29Zm-21.3-67.86h61.29L375,356.72Zm35.49,68.15q2.26-.11,4.5-.29l30.44-60.88,21.6,43.2A112.9,112.9,0,0,1,379.85,363.58ZM445.69,339l-21.77-43.53h55.26A114.28,114.28,0,0,1,445.69,339Zm37.73-54.83H423.92l30.64-61.29,15.32,30.64,14.22,28.44C483.89,282.67,483.65,283.4,483.41,284.13ZM479,246.51l-15.32-30.64h19.75a112.71,112.71,0,0,1,4.34,48.19Z"/></svg>