<?xml version="1.0" encoding="utf-8"?>
<!-- Generator: Adobe Illustrator 23.0.3, SVG Export Plug-In . SVG Version: 6.00 Build 0)  -->
<svg version="1.1" id="Layer_1" xmlns="http://www.w3.org/2000/svg" xmlns:xlink="http://www.w3.org/1999/xlink" x="0px" y="0px"
	 width="800px" height="600px" viewBox="0 0 800 600" style="enable-background:new 0 0 800 600;" xml:space="preserve">
<style type="text/css">
	.st0{fill:#FFFFFF;}
</style>
<rect width="800" height="600"/>
<g>
	<g>
		<path class="st0" d="M294.5,277.6c0.5-1.5,1.1-2.7,1.1-3.9c0-3-2.4-4.1-9.2-4.3v-3.8h21.4v3.8c-2.7,0.4-4.9,0.8-5.9,3.6
			l-22.6,62.3h-2.8l-15-42.3l-14.9,42.3h-2.8L220.4,273c-1.1-2.7-3.3-3.2-6-3.6v-3.8h26.1v3.8c-6.8,0.2-9.1,1.2-9.1,4.2
			c0,1.2,0.5,2.5,1,3.9l15,42.4l11.6-34l-4.4-13c-1.1-2.9-3.3-3.2-6-3.6v-3.8h25.1v3.8c-6.9,0.2-9.2,1.2-9.2,4.2
			c0,1.2,0.5,2.5,1,3.9l14.1,42.4L294.5,277.6z"/>
		<path class="st0" d="M380.4,298.6c0,22.5-14.9,36.8-32.8,36.8c-20.3,0-32.2-15.8-32.2-34.1c0-22.5,14.9-36.8,32.8-36.8
			C368.5,264.6,380.4,280.4,380.4,298.6z M369.9,300.3c0-15-6.8-30.3-23.1-30.3c-13.9,0-20.9,13-20.9,29.7c0,15,6.8,30.3,23.1,30.3
			C362.9,330,369.9,317.1,369.9,300.3z"/>
		<path class="st0" d="M420.7,265.5c17.5,0,25.1,8,25.1,19.3c0,11.1-9.6,17.4-18.9,18.3l16.5,20.5c3.1,3.9,7.4,6.7,12.7,7v3.8h-14
			c-3.6-2.3-5.7-4.4-8.9-8.6l-16.6-21.4h-5.2v19c0,6,3.5,7,9.9,7.2v3.8h-29.4v-3.8c6.6-0.2,10-1.2,10-7.2v-46.9c0-6-3.4-7-10-7.2
			v-3.8H420.7z M411.3,270.1v30h6.9c11.7,0,17.3-5.1,17.3-15.2c0-8.3-5.2-14.8-17.7-14.8H411.3z"/>
		<path class="st0" d="M474.9,276.5c0-6-3.4-7-10-7.2v-3.8h29.4v3.8c-6.4,0.2-9.9,1.2-9.9,7.2v46.9c0,6,3.5,7,9.9,7.2v3.8h-29.4
			v-3.8c6.6-0.2,10-1.2,10-7.2V276.5z M518.6,322.9c5.6,6.2,8.2,7.4,12.7,7.8v3.8H518c-3.2-1.8-6-4.3-9.7-8.5l-22.9-26.5l24.6-23.7
			c1.1-1,2.2-2.2,2.2-3.6c0-1.8-1.1-2.3-7.9-2.7v-3.8h25v3.8c-4.6,0.2-7.6,1.9-10.8,5l-23.4,22.4L518.6,322.9z"/>
		<path class="st0" d="M540.2,328.7l-0.7-16.1h3.4c2.9,10.3,8.9,18,18.9,18c9.2,0,14.8-4.5,14.8-12.6c0-6.8-4.4-9.9-16.3-14.3
			c-13.1-4.8-20.1-9.5-20.1-20.6c0-10.4,7.8-18.5,21.5-18.5c8,0,15.1,2.7,20.4,6.2v15H579c-2.3-9.5-8.1-16.3-17.7-16.3
			c-8.2,0-12.5,4.7-12.5,11c0,6.7,3.3,9.7,15.5,14.2c14.4,5.3,21.3,10.4,21.3,21.3c0,12.6-11,19.4-24.1,19.4
			C552.4,335.4,544.5,332.3,540.2,328.7z"/>
	</g>
	<g>
		<path class="st0" d="M599.9,303c0.2-0.1,0.1-0.3-0.5-0.3l-0.4,0.4L599.9,303z"/>
		<path class="st0" d="M596,302.3c-0.7,0.2-1.5,0.5-1,0.9c0.7-0.4,0.8-0.2,1.6-0.6c0.6,0,1,0.1,0.9,0.3c0.2-0.1,0.9,0.1,1.2-0.2
			c-0.8-0.3-1.7-0.3-2.7-0.1C595.8,302.5,596,302.4,596,302.3z"/>
		<path class="st0" d="M539.3,301.8l0.4,0C539.6,301.8,539.5,301.8,539.3,301.8z"/>
		<path class="st0" d="M504.2,301.5c0.3,0,0.4,0,0.4-0.1C504.3,301.5,504.1,301.5,504.2,301.5z"/>
		<path class="st0" d="M498.2,301.1c0.1,0,0.2,0,0.4,0C498.4,301.1,498.3,301.1,498.2,301.1z"/>
		<path class="st0" d="M539.3,301.8l-0.9-0.1C538.3,301.8,538.9,301.7,539.3,301.8z"/>
		<path class="st0" d="M588.2,303.3c0.2,0,0.4-0.1,0.5-0.1C588.6,303.2,588.4,303.2,588.2,303.3
			C588.2,303.2,588.2,303.2,588.2,303.3z"/>
		<path class="st0" d="M554.8,301.4l0.3,0c0.1,0,0.2-0.1,0.2-0.2L554.8,301.4z"/>
		<path class="st0" d="M566.7,301.4c-0.3,0-0.4,0.3-0.5,0.4c0.2-0.1,0.4-0.2,0.6-0.2C566.8,301.6,566.8,301.5,566.7,301.4z"/>
		<path class="st0" d="M585.6,302l0.3,0C585.8,301.9,585.7,301.9,585.6,302z"/>
		<path class="st0" d="M546.3,301.4c0,0-0.1-0.1-0.1-0.1C546.2,301.3,546.2,301.3,546.3,301.4z"/>
		<path class="st0" d="M213.9,303.8C213.9,303.8,213.9,303.8,213.9,303.8C213.8,303.8,213.8,303.8,213.9,303.8z"/>
		<path class="st0" d="M200.1,302.2l0.2,0c0-0.1,0-0.1,0-0.2L200.1,302.2z"/>
		<path class="st0" d="M487.2,300.7C487.2,300.7,487.3,300.7,487.2,300.7C487.6,300.7,487.4,300.7,487.2,300.7z"/>
		<path class="st0" d="M386.4,301c1.1,0.3-1.9,0.4-0.1,0.7C386.1,301.5,387.9,301.1,386.4,301z"/>
		<path class="st0" d="M587.9,303.2c-0.2,0-0.3,0-0.5,0C587.6,303.2,587.8,303.2,587.9,303.2z"/>
		<path class="st0" d="M386.3,301.6C386.3,301.6,386.3,301.6,386.3,301.6l0.2,0C386.4,301.7,386.4,301.7,386.3,301.6z"/>
		<path class="st0" d="M461.9,300.9c0.1,0.1,0.2,0.1,0.3,0.1C462.2,301,462.1,301,461.9,300.9z"/>
		<path class="st0" d="M480.8,301.4l-0.5,0C480.5,301.4,480.6,301.4,480.8,301.4z"/>
		<path class="st0" d="M452.1,301.4c-0.3,0-0.3-0.1-0.7,0c0,0,0.1,0,0.1,0C451.7,301.3,451.9,301.3,452.1,301.4z"/>
		<path class="st0" d="M442,301.4c0.1,0,0.1,0,0.2,0.1c0.1,0,0.2,0,0.3,0L442,301.4z"/>
		<path class="st0" d="M244.8,303.6c-0.2-0.1-0.4-0.2-0.5-0.3C244.5,303.6,243,303.7,244.8,303.6z"/>
		<path class="st0" d="M588.2,303.1c-0.1,0.1-0.1,0.1-0.3,0.1c0.1,0,0.2,0,0.3,0C588.3,303.1,588.3,303.1,588.2,303.1z"/>
		<path class="st0" d="M451.7,303.9l-1.6,0C450.6,303.9,451.2,303.9,451.7,303.9z"/>
		<path class="st0" d="M317.9,303.6l-0.4,0C317.6,303.6,317.8,303.6,317.9,303.6z"/>
		<path class="st0" d="M445.3,303.9c-0.3-0.1-0.6-0.2-0.9-0.2c-0.1,0-0.1,0-0.2,0.1L445.3,303.9z"/>
		<path class="st0" d="M244.3,303.3C244.3,303.3,244.3,303.3,244.3,303.3C244.3,303.3,244.3,303.3,244.3,303.3z"/>
		<path class="st0" d="M233.7,304.1c1.5,0,0.7-0.4,1.1-0.7c1.8-0.1,0.9,0.3,1.5,0.5c1.1-0.1,2-0.5,2.9-0.5c0.1,0.1,0.2,0.1,0,0.2
			c1.2-0.3,3.6,0,5-0.4c0.1,0,0.2,0.1,0.2,0.1c-0.2-0.2-0.3-0.4-0.2-0.6c0.7,0,1.3-0.3,1.5,0c-0.4,0-0.5,0.1-0.7,0.2l0.7-0.1
			c0.7,0.4-1,0.1-1,0.4c1.4-0.1,3.1-0.5,4.1-0.3c0.2,0.4-2.5,0.1-1.1,0.5l-1.7-0.1c1.3,0.6-1,0,0.2,0.6c2.2,0.1,2.5-0.2,4.7-0.1
			c0.5-0.2-0.2-0.3,0.3-0.5c3.1-0.4,2.5,1,4.8,0.5c0.6-0.3,0.8-0.7,2.5-0.5l-0.6,0.4c2.1,0,1.2-0.6,3.5-0.3
			c-0.4,0.2-1.7,0.1-1.4,0.2c1.4,0.3,1-0.2,2.1-0.2l0.2,0.4c2.3-0.1,4.8-0.3,7.3-0.4c-0.1,0.1-0.6,0.2,0,0.4c3.2-0.2,6.8,0,9.8,0.3
			l1.2-0.3c0.3,0,0.5,0.2,0.2,0.2c1.2,0.1,0.1-0.2,0.6-0.3c0.7,0,0.9,0.2,0.5,0.3c2.1-0.3,6-0.6,8.2-0.3l-0.4,0.1
			c1.7,0.1,1.9-0.7,3.5-0.4l-0.3,0.1c3.7,0.1,7.9-0.2,10.7,0.3c0.5-0.5,3.7,0.2,3.9-0.5c2.1,0.3,1.5,0.5,4.5,0.7
			c0.8,0,1.2-0.4,2.2-0.5l0,0.4l1.4-0.4l0.7,0.4l0.9-0.1c-0.4,0-0.8-0.2-0.7-0.3c1.5-0.2,3.6,0.2,3.6,0.4l3.4-0.3
			c-0.1,0.1-0.7,0.2-1.1,0.3c1.8-0.4,0.3,0.4,2,0c-0.2-0.1,0.1-0.2,0.2-0.3c0.8,0.2,2.8,0.2,4.2,0.1l-0.3,0.2
			c2.6,0.1,5.4-0.1,8.3-0.1c-1-0.1-0.8-0.5,0-0.6l0.3,0.4c0.5-0.2-0.9-0.1,0.2-0.4c1.1,0,0.7,0.4,0.1,0.5l1.3-0.1
			c0.1,0.1-0.2,0.2-0.3,0.3c0.5-0.2,2.3,0.4,3,0l0.1,0.1c2.9,0,4.2-0.1,6.5-0.1c0-0.3,1-0.2,1.7-0.5c1.7,0.1,3.6,0.4,5.7,0.3
			c1.5-0.2,0.4-0.3,1.1-0.5c0.1,0.3,2.2,0.3,1.1,0.5c2.5,0,3.2-0.1,6.3-0.3c-0.3-0.1-0.7-0.2-0.5-0.3c0.6,0,1.3,0.1,1.2,0.3l-0.2,0
			c3.5-0.4,8.1,0.9,10.9,0.2l-0.2,0l2.9-0.3c1.3,0.1-0.8,0.2,0.2,0.4c3.1-0.5,5,0.1,7.6-0.3c2,0.9,7.1-0.1,9.8,0.5l-0.2-0.2
			c0.7-0.2,0.8,0.1,1.4,0.2c-0.1-0.2-0.8-0.2-0.3-0.3c5.9-0.2,12.2,0.3,18.3,0.5c2.2,0.1,1.3-1.1,4.1-0.6l-0.8,0.4
			c4.5-0.5,9.2,0,13.5-0.4c-0.3,0.1-0.3,0.2-0.7,0.2c0.9,0.3,3.4,0,3.4-0.2c0.7,0,0.2,0.2,0.6,0.3c0.9,0.2,2.3-0.4,2.8-0.1
			c0.1,0-0.3,0.1-0.4,0.1c0.6-0.1,2.8,0,2.2-0.3c1.6,0.2,3.1-0.1,4.5,0c0.9-0.4,2.8,0.2,3.1-0.3c-0.1,0.5,2.9,0.4,3.9,0.2
			c-0.3,0.2,0.9,0.2,0.5,0.4c1.2,0,2.3-0.1,2.1-0.4c2.2,0.6,4.4-0.5,5.6,0.3c3.5-0.3,6.8-0.5,10-0.6c-0.1,0.5-3.5,0.1-3.4,0.6
			c3-0.2,4.7-0.7,7.7-0.5c0.8,0.1-0.4,0.2-0.7,0.3c3-0.2,5.8,0,8.5-0.2c0,0-0.3,0.1-0.6,0.1c0.5,0,1.2,0.1,1.2-0.2l-0.5,0.1
			c-0.8-0.3,2.1-0.7,2.2-0.9c-0.9,0.7,2.6,0.2,1.2,1c0.3,0,0.8-0.2,0.7-0.3c0.5,0,0.7,0.1,0.2,0.3c1.9-0.1,1.2-0.4,2.9-0.4
			c0,0.1-0.4,0.2-0.5,0.3c0.9-0.2,1.7-0.4,3.2-0.3c-0.1,0.1,0.1,0.2-0.4,0.2c2.5,0,4.2-0.6,7-0.4c-0.8,0.5,0.9,0.2,1.1,0.6l1.5-0.1
			l-0.6-0.2c1.3,0,2.4-0.3,3.5-0.2l-1,0.2l2.4-0.1l-1.4-0.2c1.3-0.2-0.1-0.5,1.6-0.4c-0.3,0,1.3,0,2,0.3c0,0,0,0,0,0
			c0.6-0.1,1.3-0.3,2.2-0.2c0.2,0.1-0.2,0.5,0,0.6c0.6-0.4,3-0.1,3.8-0.5c-0.3,0.1-0.3,0.3-0.2,0.4l0.5-0.3c0.6,0.1,0.7,0.1,0.6,0.3
			c1.8,0.1-0.6-0.5,1.6-0.3c-0.2,0-0.1,0.1-0.4,0.1c2.1,0.1,4.1-0.2,6.1,0c0.6,0.4-1.7,0.1-1,0.5c2.8-0.1,5.8-0.5,8.6-0.4l-0.5,0
			c0.4-0.6,2,0.3,3.4,0c-0.3,0-0.4,0.3-0.4,0.3c1.9,0.1,3.8-0.1,6.7-0.3l-0.4,0.2c1.1,0.1,2.9,0.1,4.1,0.2c0.4-0.2,1-0.1,0.6-0.4
			c3.7,0.9,7-0.5,10.3,0.3c-0.4,0-0.9,0.1-0.6,0.1l2.8-0.1c-0.2-0.3-0.4-0.2-0.9-0.4c0.4-0.2,1.1-0.3,1.8-0.3
			c-1.2,0.2,0,0.4,0.6,0.6c-0.1-0.1,0.1-0.2,0-0.3c1.5,0.5,0.2-0.5,2.2-0.2l-0.1,0.1c0.7-0.1,1.4-0.3,2.2-0.2
			c0.3,0.3-0.8,0.1-0.8,0.4c1.1,0,2.2-0.6,3.2-0.3c-0.5,0.1-1.2,0.1-1.6,0.2c1.1,0.4,1.2,0.3,2.1,0.3l-0.1,0l1.9,0.2L565,303
			c1.4-0.8,2.9-0.1,4.8-0.7c-1.8,0.5-0.3,0.3-0.4,0.6c0.5,0.1,1.2,0.2,1,0.3c0.9-0.3,1.5,0.2,2.8-0.2c0.1,0.1,1,0,0.8,0.3
			c1.2-0.1-0.3-0.2-0.2-0.3c1.8-0.4,4.2,0.5,6.8-0.1c2.2-0.2,2.6-0.6,4.7-0.8c0.7,0.2-0.6,0.4-0.6,0.4c1.1,0.2,2,0.1,3,0
			c-0.2,0.1,0,0.2,0.3,0.3c0.8,0,0.6-0.4,1.7-0.2c-0.2,0.1-0.4,0.3-0.8,0.4c1-0.1,2-0.3,3-0.4c0.3,0.2-0.6,0.3-1,0.4
			c1.2-0.1,3-0.2,3.4-0.5l-0.7-0.1c0.4,0,0.2,0.3-0.1,0.3c-1,0.2-1.4-0.1-1.5-0.2l0.7-0.1c-0.8-0.7-3,0.1-4.5,0.1l0.6-0.5l-1.5,0.4
			c-0.3-0.1-0.5-0.4,0.2-0.5c-1.1-0.2-0.9,0.2-1.9-0.1c-0.1,0-0.1-0.1,0-0.1l-1,0.1c0.2-0.1-0.2-0.3,0.5-0.3c-1.9-0.3-3,0.4-3.7,0
			l0.2,0c-2.6,0.2-0.3,0.3-2.2,0.8l-1.3-0.9l-0.3,0.3c-0.3,0-0.8,0-0.7-0.2c-1,0.2,0.2,0.2-0.4,0.4c-1.3-0.3-3.5,0.1-3.8-0.4
			c-0.5,0.3,1.2,0.2-0.1,0.4c-0.4-0.6-1.6,0.1-2.8-0.2c0.4-0.3,1.5-0.1,0.3-0.4c-0.7,0.5-2.3-0.1-3.3,0c0,0.4-2.2,0.2-3.8,0.3
			c0.1-0.1-3.1-0.2-4.7-0.4l0-0.1c-0.3,0.4-1.9,0.3-3.1,0.4c0-0.3,0.3-0.4,0.9-0.5l-1.1,0c-0.3,0.1-0.6,0.2-1.3,0.3l0.3-0.3
			c-1.5,0-2.9,0.4-4.8,0.2c-0.1,0.3,1.5,0.8-0.5,1c-0.1-0.2-0.1-0.4,0.4-0.5c-0.2,0-0.6,0.1-0.9,0.1l0.8-0.3
			c-0.9-0.1-0.4,0.2-1.1,0.2c0-0.2-0.5-0.2-0.4-0.3c0.2,0,0.6,0.1,0.9,0c-0.8,0-1.7-0.2-2-0.3c0.1,0.1,0,0.3-0.6,0.3
			c-1.5,0-0.5-0.3-1.3-0.4c-0.4,0.2-1.3,0-1.3,0.3c-0.4,0-0.5-0.2-0.7-0.3c-0.8,0.1-3.5,0-2.7,0.4l0.2,0c0,0-0.1,0-0.1,0
			c0,0,0,0,0,0h0c-2.5,0.3-5.1-0.2-7.6,0l0-0.1c-1.5,0.1-3.3,0.1-4.3,0.3c-0.4,0-1-0.2-0.8-0.3c-1.1,0.1-1.2,0.2-2.9,0
			c1.1-0.2-0.4-0.2,1.2-0.1c-1.5-0.1-1.8-0.3-3.3,0c0.5-0.3-1.1-0.4-1.8-0.3l1,0.2c-0.8,0-1.5,0-2.1,0l0.4-0.4c-3-0.5-5.4,0.8-7.6,0
			c-0.8,0.3,1.6,0.2,0.9,0.5c-1.4-0.1-2.8-0.6-3.2-0.6c-1.9-0.2-1.7,0.6-3.7,0.4c0.3,0.1,0.5,0.5-1,0.6c-1.4-0.1-1.7-0.6-0.8-0.7
			c0.3,0,0.5,0,0.5,0.1c0.4,0,1-0.1,0.5-0.3l-0.2,0.1c-0.7-0.1-2.6-0.1-2.1-0.3c-1,0.1-0.4,0.2,0.3,0.3c-1.8-0.2-2.7,0-4.5-0.1
			c0.3,0.1,0.6,0.2,0.3,0.2c-2.6-0.2-1.2,0.3-3,0.3c-1-0.2,0.4-0.5-1.4-0.3c-1.1-0.1-0.2-0.4,0.2-0.5c-1.6,0.3-3.1-0.2-4-0.2
			l0.9-0.1c-0.5,0.1-0.9,0.1-1.4,0.1l0.5,0.3c-0.5,0-0.9,0-0.9-0.2c-0.5,0.2,0.4,0.5-0.6,0.7c-0.7-0.1-2.1,0.1-2.3-0.2
			c2.1,0.1-0.2-0.4,1.6-0.4c-0.3,0-0.8,0-1.3,0c-0.1,0,0.1-0.1,0.2-0.1c-2-0.3-0.9,0.4-3.1,0.4c0.3-0.2-0.5-0.4-0.8-0.3
			c0.9,0,0.4,0.3-0.4,0.5c-1.4-0.2-1.5,0.1-2.2,0.1l0.8,0.1c-0.3,0.2-1,0.2-1.9,0.2c-0.1-0.2,0.9-0.1,0.5-0.2
			c-1.1,0.4-2.4-0.4-3.8-0.1c-0.7-0.1-0.1-0.4-0.7-0.5c-1.6,0.3-1.8-0.3-3.5-0.1c0.5,0.3,0.6,0.2-0.6,0.5l2.8-0.2l-1.8,0.4
			c0.9,0,1.8-0.2,2.3-0.1c-0.9,0.2-0.8,0.2-0.4,0.4c-1.2-0.4-2.3,0.2-3.7,0l0-0.7c-2-0.3-3.6,0.3-6.3,0.2l0.8,0.1
			c-0.4,0.3-1.6,0-2.5,0.1c0.1-0.2-0.5-0.3-0.8-0.4c0,0.2-1.9,0-2.2,0.4l-1.2-0.3c-2.1-0.1-2.4,0.6-4.5,0.6c0.6-0.2-0.3-0.4,1.1-0.6
			c-0.7,0-1.3,0-1.3,0.1c-0.4-0.1-1.9,0.3-2.5,0.1c-0.3,0.1-0.4,0.3-1.2,0.3c-0.1,0,0-0.1,0-0.1c0,0.1-1.2,0.2-0.5,0.4
			c-2.1-0.7-5.9,0.1-7.7-0.6c-1.5,0.1-3.3,0.1-4.7,0.2c0.1-0.1,0-0.1,0.3-0.1c-1.9-0.2-1.2,0.6-3.3,0.4c-1.1-0.4,1.1-0.2,0.5-0.3
			c-0.3-0.7-2.6,0.1-4-0.3l0.3,0c-1.1-0.3-2.7,0.3-4.5,0.2c0,0,0.1-0.1,0-0.1c-1.2,0.4-3.5,0.5-5.3,0.6c0.5-0.3,0.8-0.2,0.5-0.4
			c-0.8,0,0.2,0.5-1.3,0.6c-0.5-0.2-1.6-0.3-1.8-0.6l1.5,0c-0.7-0.4-1.9,0-2.6-0.1l0.1-0.2c-2.2,0.1-2.3,0.5-4.7,0.5l0.2,0.1
			c-1.3,0.4-1.1-0.3-2.4,0.1l-0.4-0.5c-0.9,0.1-3,0.4-4.6,0.5c0.9-0.3,2.7-0.5,3.8-0.7c-0.9,0-2.9,0-3.4,0.3c0.3,0,0.8-0.2,1.1-0.1
			c-1,0.4-2.4,0.5-4.1,0.5c0.3-0.9-4.4-0.2-5.7-0.9c-3,0.3-6-0.1-9.5-0.1c1.2,0.7-1,0-0.8,0.7c-0.8,0-1.1,0-1.2,0l-2.5-0.4
			c-0.6-0.2,0.8-0.2,0.7-0.3c-1.8-0.1-0.8-0.3-1.9-0.5c0.2,0.2-0.6,0.4-1.6,0.3l1.4,0.3c-2.5,0.4-2.2-0.6-4.7-0.2l0.8-0.2
			c-1.3,0.1-4.8,0-6,0.6c-0.2-0.1-0.5-0.3,0-0.3c-3.1-0.1-6.9,0.6-9.3,0.3l0.2-0.2c-0.6,0-1,0.3-1.7,0.1c0-0.1,0.2-0.2,0-0.2
			c-0.3,0.1-1.5,0.3-2.3,0.2l0.7-0.2c-3-0.2-4.6,0.5-7.2,0.6c0-0.5-2.4-0.7-3.6-0.7l0-0.1c-3.5-0.1-6,0.4-9.2,0.6
			c-2-0.5-6.8-0.2-10.1-0.5c0.5,0.1-0.1,0.4-0.7,0.4c-0.8-0.1-2.1,0.3-2-0.1l0.3,0c-0.6-0.5-2.1-0.3-3.4-0.3l-0.2,0.6
			c-3.2-0.9-8.4,0.3-10.1-0.5c-0.8,0.2-1.7,0.1-2.5,0.3l0-0.3c-2.1-0.1-3.2-0.1-5.9,0l0.5-0.2c-1.5,0-1.9,0.9-3.3,1l-0.4-0.5
			c-2.6,0-5.2-0.4-7.8,0c0-0.1,0.1-0.2,0.5-0.2c-1.2,0-4.7-0.3-4.3,0.3c0-0.4-2.7,0-4.1,0.1l0.2-0.3c-1.2,0.4-1.2,0.5-2.9,0.6
			c-0.4,0-0.3-0.3,0.2-0.2c-1.3-0.2-1,0.3-2.6,0.1l0.6-0.2c-1.3,0-1.2,0.1-2,0.3c-0.8,0.1-2.6-0.1-2.8-0.4c-0.2,0.2-0.9,0.4-1.7,0.3
			c-0.1-0.1,0.2-0.2,0.3-0.2c-2.3-0.2-3.3,0.4-4.9,0.1c0-0.1-0.1-0.2-0.3-0.2c1.8,0,3.2,0,3.1,0c0-0.3-1.4-0.3-0.3-0.8
			c-1.2,0.2-3.1,0.7-4.5,0.6c-0.1,0-0.1-0.1-0.2-0.1l0.1,0c-0.3,0-0.6,0-0.9,0c-0.4,0-0.7-0.1-1.2-0.1c-0.2-0.2-1.7-0.1-2.4-0.1
			c0.1,0.3-0.9,0.3,0,0.5c-0.1,0,0.1,0,0.6-0.1c0.1,0,0.2,0,0.3,0c0,0,0,0,0,0c0.5,0,1.1,0,1.8,0c-0.6,0.2-1.2,0.3-2,0.1
			c-0.4,0.2-0.8,0.4-1,0.5c-1-0.4-2.9-0.7-3.1-1c-2.2,0.2-5.2,0.1-6.6,0.7c-0.6,0.1-0.7-0.2-1-0.3c0.4-0.1,0.8-0.1,1-0.1
			c-1.2,0.2-3.7,0.1-4,0.5c-1.6-0.2,0.9-0.4-1.3-0.3l0.3-0.1c-4.3-0.7-6.9,1.1-11.6,0.2c0.3,0.1,0.5,0.1,0.6,0.1
			c-5.4-0.4-11.1,0.4-16.4-0.2c-1.5-0.1-1.7,0.1-2.6,0.4l-0.3-0.3l-1.6,0.4c-2.2,0.3-3.9-0.8-6.7-0.3l0.4,0.2c-1,0-3.2,0.1-3-0.1
			c-0.1,0-0.3,0.2-0.7,0.1l0-0.2l-2.5,0.3c-1.9-0.1,0.3-0.7-2.5-0.8c-1,0.1-3,0.5-2.6,0.6c0.4,0,1.1,0.1,1.1,0.3l-1,0.1
			c-0.2,0.5-0.9,1.1,1.4,1.4l1.6-0.3l0.5,0.3l-1.4,0c0.8,0.2,1.3,0,1.8-0.1c0.1,0.1,0.4,0.2,0.7,0.3l1.6-0.5
			c0.2,0.2-0.7,0.4,0.4,0.5c0.8-0.2-0.7-0.5,0.5-0.6c0.8,0.2,0.6,0.4,1.5,0.2c0.1,0.1-0.1,0.2-0.4,0.3c0.8-0.2,2.2-0.1,2.6-0.4
			c0.8,0.3,2.8-0.1,2.7,0.4c0.3-0.1,1.4-0.4,2.2-0.4c-1.4,0.6,2.8,0,2.5,0.7c1-0.5,3.7-0.2,5.5-0.5c-0.1,0-0.3,0.1-0.5,0.1
			c1,0,1.3,0.2,2,0.3c0.1-0.4,1.7-0.5,2.6-0.8c1.2,0.4-0.8,0.5-0.4,0.9c-0.1-0.4,2.2-0.4,1.7-0.7c1,0.3,0.8,0.1,1.3,0.5
			c0.2-0.6,0.9-0.1,1.7-0.4c1.4,0.3,0.4,0.5,1.9,0.4C235,303.9,233.7,304.1,233.7,304.1z M269.7,303.1
			C269.7,303.1,269.7,303.1,269.7,303.1c-0.3,0-0.6,0-0.7,0C269.1,303.2,269.3,303.2,269.7,303.1z M272.7,303.1c-0.4,0-0.8,0-1.3,0
			c-0.1-0.1,0-0.2,0.3-0.2C271.6,303,272.3,303,272.7,303.1z M266.3,300.9c0.5,0,0.6,0,0.7,0.1c-0.2,0-0.5,0-0.8,0c0,0,0,0-0.1,0
			C266.2,301,266.2,301,266.3,300.9z"/>
		<path class="st0" d="M265.5,301.3c-0.1,0-0.1,0-0.2,0C265.4,301.4,265.5,301.4,265.5,301.3c0.1,0.1,0.2,0,0.3,0
			C265.6,301.3,265.5,301.3,265.5,301.3z"/>
		<path class="st0" d="M539.8,301.8L539.8,301.8C539.8,301.8,539.8,301.8,539.8,301.8C539.8,301.8,539.8,301.8,539.8,301.8z"/>
		<polygon class="st0" points="314.5,303.8 314.5,303.7 314.2,303.7 		"/>
		<path class="st0" d="M556.4,302.9c0,0,0.1,0.1,0.2,0.1C556.6,303,556.5,302.9,556.4,302.9z"/>
		<path class="st0" d="M563.6,303l1,0.1C564.2,303,563.9,303,563.6,303z"/>
		<path class="st0" d="M569.2,303.1c0.1-0.1,0.1-0.1,0.1-0.1c0,0,0,0,0,0L569.2,303.1z"/>
		<path class="st0" d="M481.2,303.5c-0.1,0-0.1,0-0.2,0C480.4,303.6,480.8,303.6,481.2,303.5z"/>
		<path class="st0" d="M507.3,302.8c-0.3,0.1-0.6,0.1-0.8,0.2C507,302.9,507.3,303,507.3,302.8z"/>
		<path class="st0" d="M451.9,303.9C451.9,303.9,451.9,303.9,451.9,303.9c-0.1,0-0.1,0-0.2,0L451.9,303.9z"/>
		<path class="st0" d="M505.3,302.9c0.5,0.1,0.9,0.1,1.2,0C506.1,302.9,505.7,302.9,505.3,302.9z"/>
		<path class="st0" d="M593.2,303.3l0.3,0c0,0,0,0,0-0.1L593.2,303.3z"/>
		<path class="st0" d="M593.5,303.2l0.3,0C593.6,303.2,593.5,303.2,593.5,303.2z"/>
		<path class="st0" d="M594.4,303.1l-0.6,0.1C594,303.2,594.2,303.2,594.4,303.1z"/>
		<path class="st0" d="M585.8,303.1l-0.1,0.1C585.8,303.2,585.8,303.2,585.8,303.1z"/>
		<path class="st0" d="M583.6,303.2c0.5,0,1.3,0.2,2.1,0.2l0.1-0.1C585.4,303.4,584.1,303,583.6,303.2z"/>
		<path class="st0" d="M574.3,301.7l1.9,0.1c-0.3-0.1-0.8-0.3,0.1-0.3C573.9,301.1,576.7,301.8,574.3,301.7z"/>
		<path class="st0" d="M568.5,301.6c1-0.1,0-0.2,0-0.3C567.9,301.4,567.8,301.4,568.5,301.6z"/>
		<path class="st0" d="M526.7,301.6l0.1-0.3C526,301.3,526.8,301.4,526.7,301.6z"/>
		<polygon class="st0" points="518.7,303.1 519.5,303.2 519.8,303 		"/>
		<polygon class="st0" points="514,301 514.3,300.9 513,301 		"/>
		<path class="st0" d="M443.8,301.1l0.2,0.4C444.5,301.4,444.6,301,443.8,301.1z"/>
		<path class="st0" d="M413.5,301.5c-0.3-0.2-1.2-0.3-1.7-0.1C412.4,301.4,413.1,301.5,413.5,301.5z"/>
		<polygon class="st0" points="322.5,300.9 323.2,300.7 322,300.8 		"/>
	</g>
</g>
</svg>
