<?xml version="1.0" encoding="utf-8"?>
<!-- Generator: Adobe Illustrator 23.0.1, SVG Export Plug-In . SVG Version: 6.00 Build 0)  -->
<svg version="1.1" id="Layer_1" xmlns="http://www.w3.org/2000/svg" xmlns:xlink="http://www.w3.org/1999/xlink" x="0px" y="0px"
	 width="1200px" height="750px" viewBox="0 0 1200 750" style="enable-background:new 0 0 1200 750;" xml:space="preserve">
<style type="text/css">
	.st0{fill:#4A74FF;}
	.st1{fill:#FFFFFF;}
	.st2{fill:#FF4D4D;}
</style>
<g>
	<rect y="1.4" class="st0" width="1200.4" height="748.6"/>
	<g>
		<g>
			<g>
				<path class="st1" d="M461.9,243.6h-24v-24h24h24v24H461.9z M630.1,508.1h-24v-24h-24v24v24h-24v-24h-24v-24h-24h-24h-24v24h-24
					v-24h24v-24h24v-24h24v-24v-24h-24h-24v-24h24h24v-24v-24h-24h-24v-24h24h24v-24h-24v-24h24h24h24v24v24v24v24v24v24v24v24v24
					v24h24v-24h24v-24v-24v-24v-24v-24v-24v-24v-24h-24v-24h24h24h24v24v24v24v24v24v24v24v24v24v24h24v24h-24v24h-24V508.1z
					 M558,243.6v-24h24v24H558z M654.2,243.6v-24h24v24H654.2z M678.2,460h24v-24v-24v-24v-24v-24v-24v-24v-24h-24v-24h24v-24h24h24
					v24h24v24h-24v24v24v24v24v24v24v24h24v24h-24h-24v24h-24h-24V460z"/>
			</g>
		</g>
		<rect x="413.8" y="363.8" class="st2" width="24" height="24"/>
	</g>
</g>
</svg>
