<?xml version="1.0" encoding="UTF-8"?>
<svg id="Layer_1" xmlns="http://www.w3.org/2000/svg" version="1.1" viewBox="0 0 800 400">
  <!-- Generator: Adobe Illustrator 29.6.1, SVG Export Plug-In . SVG Version: 2.1.1 Build 9)  -->
  <defs>
    <style>
      .st0 {
        fill: #1c2531;
      }

      .st1 {
        fill: #3067b8;
      }
    </style>
  </defs>
  <rect class="st0" width="800" height="400"/>
  <g>
    <path class="st1" d="M136,149.4l-36,101.4h18.1l9.3-28.1h44.9l9.3,28.1h18.3l-35.7-101.4h-28.2ZM167.2,207.2h-34.7l13.8-41.6h7.2l13.7,41.6h0Z"/>
    <rect class="st1" x="212.4" y="149.4" width="16.7" height="101.4"/>
    <path class="st1" d="M349.8,212.2h22.3c19.7,0,32.9-11.9,32.9-29.2v-4.6c0-17.7-13.9-29-32.9-29h-38.9v101.4h16.6v-38.6h0ZM349.8,165.6h21.7c10.2,0,16.7,4.9,16.7,12.9v4.6c0,8-6.4,13.1-16.7,13.1h-21.7v-30.5h0Z"/>
    <path class="st1" d="M464.3,147.6c-29.7,0-50.9,21.8-50.9,52.5s21.2,52.2,50.9,52.2,50.8-21.7,50.8-52.2-21.3-52.5-50.8-52.5h0ZM464.2,236.2c-20.1,0-33.6-14.5-33.6-36.2s13.6-36.2,33.6-36.2,33.7,14.6,33.7,36.3-13.6,36.1-33.7,36.1Z"/>
    <polygon class="st1" points="614.9 149.4 614.9 165.6 649.3 165.6 649.3 250.8 665.7 250.8 665.7 165.6 700 165.6 700 149.4 614.9 149.4"/>
    <path class="st1" d="M295.5,210.6c13-3.8,21-14,21-27.6v-4.6c0-17.7-13.9-29-32.9-29h-37.2v101.4h16.6v-38.6h14.1l24.6,38.6h19.7l-25.9-40.2h0ZM263.1,196.1v-30.5h19.9c10.2,0,16.7,4.9,16.7,12.9v4.6c0,8-6.4,13.1-16.7,13.1h-19.9Z"/>
    <path class="st1" d="M600.8,183v-4.6c0-17.7-13.9-29-32.9-29h-37.2v101.4h16.6v-38.6h14.1l24.6,38.6h19.7l-25.9-40.2c13-3.8,21-14,21-27.6h0ZM547.4,196.1v-30.5h19.9c10.2,0,16.7,4.9,16.7,12.9v4.6c0,8-6.4,13.1-16.7,13.1h-19.9Z"/>
  </g>
</svg>