<?xml version="1.0" encoding="UTF-8"?>
<svg id="Layer_1" xmlns="http://www.w3.org/2000/svg" version="1.1" viewBox="0 0 800 400">
  <!-- Generator: Adobe Illustrator 29.6.1, SVG Export Plug-In . SVG Version: 2.1.1 Build 9)  -->
  <defs>
    <style>
      .st0 {
        fill: #eae5e4;
      }

      .st1 {
        fill: #6dbbe9;
      }
    </style>
  </defs>
  <rect class="st1" width="800" height="400"/>
  <g>
    <path class="st0" d="M100,248.1l51.1-131.9h31.6l51.7,131.9h-28l-11.3-30.8h-55.6c0-.1-12,30.8-12,30.8h-27.5ZM185.8,193.2l-19.1-50.5-18.6,50.5h37.8,0Z"/>
    <path class="st0" d="M380.9,238.8v47.1h-24.5v-129h24v9.8c12.9-15,35.1-15.7,51.1-5.2,26.3,17.3,27.4,60.7,2.8,80-15.8,12.3-39.6,13-53.4-2.6h0ZM399,177.6c-25.4,3.4-25.4,46.3,0,49.8,37,5,37-54.8,0-49.8Z"/>
    <path class="st0" d="M504.1,154.6c67.4-6,73.7,91.4,9.2,96-65.8,4.7-72.2-90.4-9.2-96h0ZM505.1,177.6c-26.9,3.2-26.7,47.3.9,49.9,37.1,3.4,36.6-54.4-.9-49.9Z"/>
    <rect class="st0" x="244.4" y="156.9" width="24.5" height="91.2"/>
    <polygon class="st0" points="309.6 156.9 285.6 156.9 285.6 248.1 310.1 248.1 309.6 156.9"/>
    <polygon class="st0" points="682.3 156.9 682.3 129.9 657.8 129.9 657.8 156.9 640.2 156.9 640.2 178.9 657.8 178.9 657.8 248.1 682.3 248.1 682.3 178.9 700 178.9 700 156.9 682.3 156.9"/>
    <path class="st0" d="M328,154.5c21.8-2.9,24.7,29,4.7,31.2-21.5,2.4-23.5-28.7-4.7-31.2h0Z"/>
    <path class="st0" d="M254,114.3c21.8-2.9,24.7,29,4.7,31.2-21.5,2.4-23.5-28.7-4.7-31.2h0Z"/>
    <polygon class="st0" points="594.1 156.9 570.1 156.9 570.1 248.1 594.6 248.1 594.1 156.9"/>
    <path class="st0" d="M612.5,154.5c21.8-2.9,24.7,29,4.7,31.2-21.5,2.4-23.5-28.7-4.7-31.2h0Z"/>
  </g>
</svg>