<?xml version="1.0" encoding="UTF-8"?>
<svg id="Layer_1" xmlns="http://www.w3.org/2000/svg" version="1.1" viewBox="0 0 800 600">
  <!-- Generator: Adobe Illustrator 29.6.1, SVG Export Plug-In . SVG Version: 2.1.1 Build 9)  -->
  <defs>
    <style>
      .st0 {
        fill: #1c2531;
      }

      .st1 {
        fill: #3067b8;
      }
    </style>
  </defs>
  <rect class="st0" width="800" height="600"/>
  <g>
    <path class="st1" d="M236.7,310.4h-24.3v101.4h24.3c30.7,0,52.8-21.3,52.8-50.8s-22.1-50.6-52.8-50.6ZM236.7,395.7h-7.7v-69.1h7.7c21.1,0,35.6,13.6,35.6,34.3s-14.5,34.8-35.6,34.8Z"/>
    <rect class="st1" x="392" y="310.4" width="16.7" height="101.4"/>
    <polygon class="st1" points="465.7 396.4 462.9 396.4 437.1 310.4 418.2 310.4 450.4 411.9 478 411.9 510.3 310.4 491.3 310.4 465.7 396.4"/>
    <polygon class="st1" points="524.7 411.8 589.8 411.8 589.8 395.7 541.4 395.7 541.4 367.9 573.2 367.9 573.2 351.8 541.4 351.8 541.4 326.6 589.8 326.6 589.8 310.4 524.7 310.4 524.7 411.8"/>
    <path class="st1" d="M373.4,344v-4.6c0-17.7-13.9-29-32.9-29h-37.2v101.4h16.6v-38.6h14.1l24.6,38.6h19.7l-25.9-40.2c13-3.8,21-14,21-27.6ZM320,357.1v-30.5h19.9c10.2,0,16.7,4.9,16.7,12.9v4.6c0,8-6.4,13.1-16.7,13.1h-19.9Z"/>
    <path class="st1" d="M136,189.9l-36,101.4h18.1l9.3-28.1h44.9l9.3,28.1h18.3l-35.7-101.4h-28.2ZM167.2,247.7h-34.7l13.8-41.6h7.2l13.7,41.6Z"/>
    <rect class="st1" x="212.4" y="189.9" width="16.7" height="101.4"/>
    <path class="st1" d="M349.8,252.7h22.3c19.7,0,32.9-11.9,32.9-29.2v-4.6c0-17.7-13.9-29-32.9-29h-38.9v101.4h16.6v-38.6ZM349.8,206.1h21.7c10.2,0,16.7,4.9,16.7,12.9v4.6c0,8-6.4,13.1-16.7,13.1h-21.7v-30.5Z"/>
    <path class="st1" d="M464.3,188.1c-29.7,0-50.9,21.8-50.9,52.5s21.2,52.2,50.9,52.2,50.8-21.7,50.8-52.2-21.3-52.5-50.8-52.5ZM464.2,276.7c-20.1,0-33.6-14.5-33.6-36.2s13.6-36.2,33.6-36.2,33.7,14.6,33.7,36.3-13.6,36.1-33.7,36.1Z"/>
    <polygon class="st1" points="614.9 189.9 614.9 206.1 649.3 206.1 649.3 291.3 665.7 291.3 665.7 206.1 700 206.1 700 189.9 614.9 189.9"/>
    <path class="st1" d="M295.5,251.1c13-3.8,21-14,21-27.6v-4.6c0-17.7-13.9-29-32.9-29h-37.2v101.4h16.6v-38.6h14.1l24.6,38.6h19.7l-25.9-40.2ZM263.1,236.6v-30.5h19.9c10.2,0,16.7,4.9,16.7,12.9v4.6c0,8-6.4,13.1-16.7,13.1h-19.9Z"/>
    <path class="st1" d="M600.8,223.5v-4.6c0-17.7-13.9-29-32.9-29h-37.2v101.4h16.6v-38.6h14.1l24.6,38.6h19.7l-25.9-40.2c13-3.8,21-14,21-27.6ZM547.4,236.6v-30.5h19.9c10.2,0,16.7,4.9,16.7,12.9v4.6c0,8-6.4,13.1-16.7,13.1h-19.9Z"/>
  </g>
</svg>