<?xml version="1.0" encoding="UTF-8"?>
<svg xmlns="http://www.w3.org/2000/svg" version="1.1" viewBox="0 0 800 600">
  <defs>
    <style>
      .cls-1 {
        fill: #fff;
      }
    </style>
  </defs>
  <!-- Generator: Adobe Illustrator 28.6.0, SVG Export Plug-In . SVG Version: 1.2.0 Build 709)  -->
  <g>
    <g id="Layer_1">
      <rect width="800" height="600"/>
      <path class="cls-1" d="M499.69,307.55h-21.85l18.94-32.8c-6.16-23.65-20.76-43.89-40.38-57.32l-10.94,18.94-18.92-32.78c-8.45-2.32-17.34-3.58-26.53-3.58-15.52,0-30.22,3.54-43.33,9.85l10.95,18.97h-37.83c-16.7,16.48-27.62,38.79-29.47,63.64h21.85l-18.94,32.8c6.16,23.65,20.76,43.89,40.39,57.32l10.94-18.94,18.93,32.78c8.45,2.32,17.34,3.58,26.53,3.58,15.52,0,30.22-3.54,43.33-9.85l-10.95-18.97h37.83c16.7-16.48,27.62-38.79,29.47-63.64ZM412.23,321.18h-24.46l-12.23-21.18,12.23-21.18h24.46l12.23,21.18-12.23,21.18Z"/>
    </g>
  </g>
</svg>