<?xml version="1.0" encoding="utf-8"?>
<!-- Generator: Adobe Illustrator 18.1.1, SVG Export Plug-In . SVG Version: 6.00 Build 0)  -->
<!DOCTYPE svg PUBLIC "-//W3C//DTD SVG 1.1//EN" "http://www.w3.org/Graphics/SVG/1.1/DTD/svg11.dtd">
<svg version="1.1" id="Layer_1" xmlns="http://www.w3.org/2000/svg" xmlns:xlink="http://www.w3.org/1999/xlink" x="0px" y="0px"
	 width="18px" height="18px" viewBox="0 0 18 18" style="enable-background:new 0 0 18 18;" xml:space="preserve">
<style type="text/css">
	.st0{fill:#231F20;}
</style>
<path class="st0" d="M18,4h-0.7c-0.3,0-0.6,0.4-0.6,0.6v8.8c0,0.2,0.4,0.6,0.6,0.6H18v2.1h-6.4V14h1.3V4.7h-0.1L9.7,16.1H7.2
	L4.1,4.7H4.1V14h1.3v2.1H0V14h0.7c0.3,0,0.7-0.3,0.7-0.6V4.6C1.4,4.4,1,4,0.7,4H0V1.9h6.8L9,10.1H9l2.2-8.2H18V4z"/>
</svg>
