<?xml version="1.0" encoding="utf-8"?>
<!-- Generator: Adobe Illustrator 18.1.1, SVG Export Plug-In . SVG Version: 6.00 Build 0)  -->
<!DOCTYPE svg PUBLIC "-//W3C//DTD SVG 1.1//EN" "http://www.w3.org/Graphics/SVG/1.1/DTD/svg11.dtd">
<svg version="1.1" id="Layer_1" xmlns="http://www.w3.org/2000/svg" xmlns:xlink="http://www.w3.org/1999/xlink" x="0px" y="0px"
	 width="18px" height="18px" viewBox="-240 82 18 18" enable-background="new -240 82 18 18" xml:space="preserve">
<path fill="#231F20" d="M-231,84.8c0.8,0,1.4-0.6,1.4-1.4c0-0.8-0.6-1.4-1.4-1.4c-0.8,0-1.4,0.6-1.4,1.4
	C-232.4,84.1-231.8,84.8-231,84.8z M-237.6,92c0.5-0.5,0.5-1.4,0-2c-0.5-0.5-1.4-0.5-2,0c-0.5,0.5-0.5,1.4,0,2
	C-239.1,92.5-238.2,92.5-237.6,92z M-233.8,88.2c0.5-0.5,0.5-1.4,0-2c-0.5-0.5-1.4-0.5-2,0c-0.5,0.5-0.5,1.4,0,2
	C-235.2,88.7-234.4,88.7-233.8,88.2z M-227.2,88.5c0.8,0,1.4-0.6,1.4-1.4c0-0.8-0.6-1.4-1.4-1.4c-0.8,0-1.4,0.6-1.4,1.4
	C-228.6,87.9-228,88.5-227.2,88.5z M-233.9,95.7c0.5-0.5,0.5-1.4,0-2c-0.5-0.5-1.4-0.5-2,0c-0.5,0.5-0.5,1.4,0,2
	C-235.3,96.3-234.4,96.3-233.9,95.7z M-230.1,91.9c0.5-0.5,0.5-1.4,0-2c-0.5-0.5-1.4-0.5-2,0c-0.5,0.5-0.5,1.4,0,2
	C-231.5,92.5-230.6,92.5-230.1,91.9z M-223.4,92.4c0.8,0,1.4-0.6,1.4-1.4c0-0.8-0.6-1.4-1.4-1.4c-0.8,0-1.4,0.6-1.4,1.4
	C-224.8,91.8-224.1,92.4-223.4,92.4z M-230,99.6c0.5-0.5,0.5-1.4,0-2s-1.4-0.5-2,0c-0.5,0.5-0.5,1.4,0,2
	C-231.4,100.1-230.6,100.1-230,99.6z M-226.2,95.8c0.5-0.5,0.5-1.4,0-2c-0.5-0.5-1.4-0.5-2,0c-0.5,0.5-0.5,1.4,0,2
	C-227.6,96.3-226.7,96.3-226.2,95.8z"/>
</svg>
